<svg id="1dcbca0d-b5e3-4a7f-98fb-e4598c86eb8b" data-name="圖層 1" xmlns="http://www.w3.org/2000/svg" xmlns:xlink="http://www.w3.org/1999/xlink" viewBox="0 0 100 100"><defs><clipPath id="8f7d7a07-4896-4af4-9e01-2fc968d43bb9"><circle cx="50" cy="50" r="45" style="fill:none"/></clipPath></defs><title>12</title><circle cx="50" cy="50" r="50" style="fill:#accff6"/><g style="clip-path:url(#8f7d7a07-4896-4af4-9e01-2fc968d43bb9)"><polygon points="39.3 46.9 26.5 60.3 17.4 50.9 5.8 63.1 5.8 66.3 5.8 68.3 7.7 68.3 53.5 68.3 55.4 68.3 55.4 66.4 55.4 63.8 39.3 46.9" style="fill:#c2e97e"/></g><g style="clip-path:url(#8f7d7a07-4896-4af4-9e01-2fc968d43bb9)"><polygon points="82.5 46.9 69.7 60.3 60.6 50.9 49 63.1 49 66.3 49 68.3 50.9 68.3 96.7 68.3 98.6 68.3 98.6 66.4 98.6 63.8 82.5 46.9" style="fill:#c2e97e"/></g><circle cx="50" cy="50" r="45" style="fill:none;stroke:#fff;stroke-miterlimit:10"/><path d="M62.5,56.6a10.6,10.6,0,0,0-4.2.9L52,46.5H47.6a1.1,1.1,0,1,0,0,2.2h2.8L52,51.1H36.7l-1.2-1.9H32.8l5.9,9.1a1.1,1.1,0,0,0,.9.5l.6-.2a1.1,1.1,0,0,0,.3-1.5l-2.4-3.8H51.9L44.5,66.1H39.6a10.6,10.6,0,1,0,0,2.2h5.5a1,1,0,0,0,1-.6l7.8-13.4,2.4,4.3a10.6,10.6,0,1,0,6.2-2ZM29.1,63.2a3.9,3.9,0,1,0,3.8,5.1h4.8a8.6,8.6,0,1,1,0-2.2H32.9A3.9,3.9,0,0,0,29.1,63.2ZM62.5,75.8a8.6,8.6,0,0,1-5.2-15.5l2.4,4.1a3.9,3.9,0,1,0,2.8-1.2h-.9l-2.4-4.1a8.6,8.6,0,1,1,3.2,16.6ZM29.4,47.1a1.1,1.1,0,0,1,1.1-1.1h7a1.1,1.1,0,1,1,0,2.2h-7A1.1,1.1,0,0,1,29.4,47.1Z" style="fill:#419ce0"/><path d="M41.8,43.8a1.6,1.6,0,0,0,1.6,1.6h8.4a1.6,1.6,0,0,0,0-3.3H43.4A1.6,1.6,0,0,0,41.8,43.8Z" style="fill:#c779d3"/><path d="M42.7,45.3a1.7,1.7,0,0,0,2.3-.8l3.8-7.9a1.7,1.7,0,1,0-3.1-1.5L41.9,43A1.7,1.7,0,0,0,42.7,45.3Z" style="fill:#c779d3"/><path d="M45.3,49.3a2.5,2.5,0,0,0-1.9-3L31,43.5a2.5,2.5,0,1,0-1.1,4.8l12.5,2.9A2.5,2.5,0,0,0,45.3,49.3Z" style="fill:#c779d3"/><path d="M44.1,46.8a2.5,2.5,0,0,0-3.4,1L34.6,59a2.5,2.5,0,0,0,4.3,2.4l6.2-11.2A2.5,2.5,0,0,0,44.1,46.8Z" style="fill:#c779d3"/><path d="M28.4,46.7a5,5,0,0,0,5.9-.1c1.9-1.8,3.2-4.1,5.2-5.4s5.6-2.4,8-3.5a3.5,3.5,0,0,0,1.1-5c-1.1-1.7-3-1.4-5-1.1a18.6,18.6,0,0,0-8.2,2.6,24.7,24.7,0,0,0-6.8,6.5C27.6,42.5,26.1,44.9,28.4,46.7Z" style="fill:#c779d3"/><circle cx="52.4" cy="32" r="4.3" style="fill:#c779d3"/></svg>