<svg id="cf3bf4aa-7515-4569-8a12-daa5ff440873" data-name="圖層 1" xmlns="http://www.w3.org/2000/svg" viewBox="0 0 100 100"><title>13</title><circle cx="50" cy="50" r="50" style="fill:#c49669"/><circle cx="50" cy="50" r="45" style="fill:none;stroke:#fff;stroke-miterlimit:10"/><path d="M74,46.6H64.4V35.2H74.6L64.4,26.9H38.1L27.9,35.2H38.1V46.6H28.5L17.3,56.2H28.5V74H74V56.2H85.3ZM33.2,57.8H40m8.9-14H42.8m15,28.1H44.7V59H57.8ZM53.6,37.7h6.1m2.8,20.1h6.8" style="fill:#e5d6c7"/><rect x="42.2" y="37.1" width="6.1" height="6.07" style="fill:#c49669"/><rect x="33.1" y="57.6" width="6.8" height="6.77" style="fill:#c49669"/><rect x="54.3" y="37.1" width="6.1" height="6.07" style="fill:#c49669"/><rect x="61.9" y="57.6" width="6.8" height="6.77" style="fill:#c49669"/><polygon points="74.7 35.2 64.5 26.8 64.5 26.8 66.2 24 65 24 61.2 26.8 41.3 26.8 37.6 24.1 36.3 24.1 38 26.9 27.9 35.2 74.7 35.2" style="fill:#ff9b74"/><polygon points="17.3 56.3 85.3 56.3 74 46.5 74.1 46.5 75.9 43.7 74.6 43.7 70.8 46.5 32.1 46.4 28.3 43.7 27 43.7 28.7 46.4 28.6 46.4 17.3 56.3" style="fill:#ff9b74"/></svg>