<svg id="89c84b0b-f6eb-47a9-bb27-4435dff27328" data-name="圖層 1" xmlns="http://www.w3.org/2000/svg" viewBox="0 0 100 100"><title>14</title><circle cx="50" cy="50" r="50" style="fill:#e5d6c7"/><circle cx="50" cy="50" r="45" style="fill:none;stroke:#fff;stroke-miterlimit:10"/><path d="M67.7,45.5c-1.3,2.3-.4,5.1.2,6.6a7,7,0,0,1,.3,4.1,2.1,2.1,0,0,1-.5,1.4,10.4,10.4,0,0,0-1.5-1.8V52.8h0c0-.9-2.5-1.7-6.3-2.2V33H58.3V50.3c-2.2-.2-4.8-.4-7.6-.4V33H49.1V50c-2.8,0-5.4.2-7.6.4V33H39.9V50.6c-3.7.5-6.1,1.3-6.1,2.1v3a10.3,10.3,0,0,0-1.5,1.8,2.1,2.1,0,0,1-.5-1.4,7,7,0,0,1,.3-4.1c.5-1.5,1.5-4.3.2-6.6S27.6,43,25.9,43v3.1s2.8-.4,3.9.6a2.7,2.7,0,0,1,.3,3,10.7,10.7,0,0,0-1.3,4.6,15.4,15.4,0,0,0,.7,5,2.6,2.6,0,0,0,1.9,1.5h0a9.6,9.6,0,0,0,.7,4,12.2,12.2,0,0,0,4.8,5.4,2.8,2.8,0,0,0-.2.9v7.8c0,1.1.6,2,1.3,2h3.3c.7,0,1.3-.9,1.3-2V72.6l3.9.6h.7v8.5c0,.8.6,1.8,1.3,1.8a6.7,6.7,0,0,0,1.8.3,7.6,7.6,0,0,0,1.5-.3c.7,0,1.3-1,1.3-1.8V73.2h.4l2.9-.4v6.3c0,1.1.6,2,1.3,2H61c.7,0,1.3-.9,1.3-2V71.3a3.3,3.3,0,0,0,0-.4A12.4,12.4,0,0,0,67.9,65a9.6,9.6,0,0,0,.7-4h0a2.6,2.6,0,0,0,1.9-1.5,15.5,15.5,0,0,0,.7-5A10.7,10.7,0,0,0,70,49.7a2.7,2.7,0,0,1,.3-3c1.1-1,3.9-.6,3.9-.6V43C72.4,43,69,43.2,67.7,45.5Z" style="fill:#c49669"/><path d="M41.6,19.9c-2.4,1.7-2.7,3.4-1.5,4.4S42.6,26,42,27.2a20.4,20.4,0,0,1-2,2.7" style="fill:none;stroke:#fff;stroke-miterlimit:10;stroke-width:1.299299955368042px"/><path d="M51.4,19.9c-2.4,1.7-2.7,3.4-1.5,4.4s2.5,1.7,1.9,2.9a20.8,20.8,0,0,1-2,2.7" style="fill:none;stroke:#fff;stroke-miterlimit:10;stroke-width:1.299299955368042px"/><path d="M60.8,19.9c-2.4,1.7-2.7,3.4-1.5,4.4s2.5,1.7,1.9,2.9a20.5,20.5,0,0,1-2,2.7" style="fill:none;stroke:#fff;stroke-miterlimit:10;stroke-width:1.299299955368042px"/></svg>