<svg id="312704ed-e511-4aae-bfaf-80108dce3ea1" data-name="圖層 1" xmlns="http://www.w3.org/2000/svg" viewBox="0 0 100 100"><title>24</title><path d="M92.9,34.3h-3V42h2.9a.4.4,0,0,0,.4-.5c0-.3,0-6.9,0-6.9A.3.3,0,0,0,92.9,34.3Z" style="fill:#b7edcc"/><circle cx="50" cy="50" r="50" style="fill:#419ce0"/><circle cx="50" cy="50" r="45" style="fill:none;stroke:#fff;stroke-miterlimit:10"/><path d="M30.8,45.7H23.2v2.4a3.8,3.8,0,1,0,7.6,0V45.7Z" style="fill:#f96e6e"/><path d="M39.5,48.1V45.7H31.9v2.4a3.8,3.8,0,1,0,7.6,0Z" style="fill:#ffa3a3"/><path d="M40.6,45.7v2.4a3.9,3.9,0,0,0,2.6,3.7V64.7h-.9V52.5h-7V64.7H18.7V51.9a3.9,3.9,0,0,0,3.4-3.8V45.7H14.4v2.4a3.9,3.9,0,0,0,2,3.4V67H45.5V51.8a3.9,3.9,0,0,0,2.8-3.7V45.7Zm-4.1,7.9h4.7v5.1H36.5Z" style="fill:#ffa3a3"/><path d="M45.4,40.8H17.1l-2.6,3.9H48.1Z" style="fill:#f96e6e"/><path d="M30,56v-.9H27.2v6.7H30V61H28.6V58.6h1.2v-.8H28.6V56Z" style="fill:#fee677"/><path d="M21.6,55q-1.7,0-1.7,1.3v4.3q0,1.2,1.7,1.2a2.1,2.1,0,0,0,1.2-.3,1,1,0,0,0,.5-.9V56.3Q23.3,55,21.6,55Zm.2,5.7c0,.1-.1.2-.2.2s-.2-.1-.2-.2V56.2c0-.1.1-.2.2-.2s.2.1.2.2Z" style="fill:#fee677"/><path d="M25.1,55.1H23.6v6.7H25V59.3a2.8,2.8,0,0,0,1.6-.3,1.1,1.1,0,0,0,.4-.9V56.3a1,1,0,0,0-.4-1A3,3,0,0,0,25.1,55.1Zm.4,2.9c0,.2-.2.4-.5.4V56.1c.3,0,.5.1.5.4Z" style="fill:#fee677"/><path d="M31.5,58.2l1,3.6H34V55.1H32.8v3.1L32,55.1H30.3v6.7h1.2Z" style="fill:#fee677"/><path d="M48.2,45.7H40.6v2.4a3.8,3.8,0,1,0,7.6,0V45.7Z" style="fill:#f96e6e"/><path d="M22.1,48.1V45.7H14.5v2.4a3.8,3.8,0,1,0,7.6,0Z" style="fill:#ffa3a3"/><path d="M53.1,46.7H50a.3.3,0,0,0-.3.3V54a.3.3,0,0,0,.3.3h3.1Z" style="fill:#ffc7b6"/><rect x="55.7" y="46.7" width="4.2" height="7.63" style="fill:#b7edcc"/><rect x="62.6" y="46.7" width="4.2" height="7.63" style="fill:#ffc7b6"/><rect x="76.4" y="46.7" width="4.2" height="7.63" style="fill:#ffc7b6"/><rect x="69.5" y="46.7" width="4.2" height="7.63" style="fill:#b7edcc"/><path d="M52.1,45.8H51a17.2,17.2,0,0,1,34.2,0H84.1a16.1,16.1,0,0,0-32,0Zm31.3,0H75.8a8.1,8.1,0,0,0-15.4,0H54.8a.7.7,0,1,0-1.3,0h-.8a15.4,15.4,0,0,1,30.6,0Zm-28-2.4a.7.7,0,1,0-.8.5A.7.7,0,0,0,55.3,43.4Zm.5-3a.7.7,0,1,0,.4.8A.7.7,0,0,0,55.9,40.4Zm1.4-2a.7.7,0,1,0,.2.9A.7.7,0,0,0,57.3,38.3ZM59,36.6a.7.7,0,1,0,.1.9A.7.7,0,0,0,59,36.6Zm2-1.4a.7.7,0,1,0-.1.9A.7.7,0,0,0,61,35.1Zm2.3-1a.7.7,0,1,0-.2.9A.7.7,0,0,0,63.3,34.1Zm2.4-.6a.7.7,0,1,0-.4.8A.7.7,0,0,0,65.7,33.4Zm2.5-.2a.7.7,0,1,0-.5.7A.7.7,0,0,0,68.2,33.2Zm2.5.2a.7.7,0,1,0-.7.6A.7.7,0,0,0,70.6,33.5Zm2.4.7a.7.7,0,1,0-.8.5A.7.7,0,0,0,73,34.1Zm1.9.2a.7.7,0,1,0,.4.8A.7.7,0,0,0,74.9,34.3Zm2.2,1.4a.7.7,0,1,0,.2.9A.7.7,0,0,0,77.1,35.7ZM79,37.5a.7.7,0,1,0,.1.9A.7.7,0,0,0,79,37.5Zm1.5,3a.7.7,0,1,0-.9-.1A.7.7,0,0,0,80.4,40.4Zm1,2.3a.7.7,0,1,0-.9-.3A.7.7,0,0,0,81.5,42.7Zm1,1.6a.7.7,0,1,0-.4.8A.7.7,0,0,0,82.5,44.3Z" style="fill:#fee677"/><path d="M51,54.8v9.1c0,1.9.8,2.8,2.7,2.8H82.3c1.9,0,2.8-.8,2.8-2.8V54.8Zm10.1,6.6c0,.4-.2.6-.6.6H54c-.4,0-.6-.2-.6-.6V57a.7.7,0,0,1,.7-.7h6.4a.7.7,0,0,1,.7.7Zm10.6,3.5a.8.8,0,0,1-.9.9H65.3c-.6,0-.8-.2-.8-.8V56.7c0-.6.2-.8.8-.8h5.5a.8.8,0,0,1,.9.9Zm11-3.7c0,.4-.2.6-.6.6H75.6c-.4,0-.6-.2-.6-.6V56.9a.7.7,0,0,1,.7-.7h6.4a.7.7,0,0,1,.7.7Z" style="fill:#e5d6c7"/></svg>