<?xml version="1.0" encoding="utf-8"?>
<!-- Generator: Adobe Illustrator 16.0.0, SVG Export Plug-In . SVG Version: 6.00 Build 0)  -->
<!DOCTYPE svg PUBLIC "-//W3C//DTD SVG 1.1//EN" "http://www.w3.org/Graphics/SVG/1.1/DTD/svg11.dtd" [
	<!ENTITY st0 "fill:#AEDD47;">
	<!ENTITY st1 "fill:#4A77A9;">
	<!ENTITY st2 "fill:#E5D6C7;">
	<!ENTITY st3 "clip-path:url(#SVGID_2_);fill:#DFDFDF;">
	<!ENTITY st4 "fill:#EAC95D;">
	<!ENTITY st5 "fill:#EDEDED;">
	<!ENTITY st6 "fill:#545454;">
	<!ENTITY st7 "fill:none;stroke:#FFFFFF;stroke-miterlimit:10;">
	<!ENTITY st8 "opacity:0.25;fill:#FFFFFF;">
	<!ENTITY st9 "fill:#F2F2F2;">
	<!ENTITY st10 "fill:#F6B43F;">
	<!ENTITY st11 "fill:#5DBBD0;">
	<!ENTITY st12 "fill:#92B7EF;">
	<!ENTITY st13 "clip-path:url(#SVGID_2_);fill:#595757;">
	<!ENTITY st14 "fill:#C49669;">
	<!ENTITY st15 "fill:#C779D3;">
	<!ENTITY st16 "fill:#FBD764;">
	<!ENTITY st17 "fill:#FC6738;">
	<!ENTITY st18 "fill:#FCEFB9;">
	<!ENTITY st19 "opacity:0.3;">
	<!ENTITY st20 "fill:#FEE677;">
	<!ENTITY st21 "fill:#FF9B74;">
	<!ENTITY st22 "fill:#FFFFFF;">
	<!ENTITY st23 "clip-path:url(#SVGID_2_);fill:#F7D237;">
	<!ENTITY st24 "fill:none;stroke:#FFFFFF;stroke-width:0.4667;stroke-miterlimit:10;">
	<!ENTITY st25 "fill:#686868;">
	<!ENTITY st26 "fill:#68C1C1;">
	<!ENTITY st27 "opacity:0.14;fill:#666666;">
	<!ENTITY st28 "clip-path:url(#SVGID_2_);fill:#FC6738;">
	<!ENTITY st29 "fill:#404040;">
	<!ENTITY st30 "fill:#43D17D;">
	<!ENTITY st31 "opacity:0.13;fill:#FFFFFF;">
]>
<svg version="1.1" id="圖層_1" xmlns="http://www.w3.org/2000/svg" xmlns:xlink="http://www.w3.org/1999/xlink" x="0px" y="0px"
	 width="100px" height="100px" viewBox="0 0 100 100" style="enable-background:new 0 0 100 100;" xml:space="preserve">
<g>
	<circle style="&st26;" cx="50" cy="50" r="49.999"/>
	<circle style="&st7;" cx="50" cy="50" r="44.999"/>
	<path style="&st20;" d="M48.877,87.665c0.102,0.015,0.203,0.033,0.301,0.044c0.108,0.021,0.175,0.043,0.275,0.091
		c0.173,0.065,0.418,0,0.606,0c0.115,0,0.232,0.002,0.34,0.013c0.09,0.01,0.201,0.013,0.289,0c0.041-0.143,0.368-0.011,0.466,0.004
		c0.168,0.039,0.327,0.075,0.497,0.006c0.146-0.061,0.251-0.206,0.331-0.346c0.104-0.174,0.112-0.313,0.123-0.508
		c0.1-0.048,0.271-0.038,0.377-0.024c0.052,0.008,0.131,0.02,0.174,0.052c0.062,0.043,0.046,0.073,0.134,0.09
		c0.257,0.047,0.502-0.026,0.747,0.092c0.131,0.067,0.219,0.202,0.347,0.271c0.122,0.07,0.232,0.089,0.366,0.115
		c0.277,0.052,0.585,0.056,0.848,0.159c0.045,0.017,0.129,0.055,0.16,0.093c0.04,0.047,0.04,0.111,0.084,0.154
		c0.102,0.104,0.247,0.058,0.37,0.029c0.278-0.052,0.592,0.028,0.837-0.156c0.045-0.031,0.073-0.1,0.124-0.122
		c0.056-0.025,0.14-0.013,0.195,0.002c0.111,0.026,0.172,0.111,0.288,0.118c0.117,0.006,0.285-0.05,0.376,0.047
		c0.087,0.09,0.13,0.222,0.192,0.323c0.079,0.122,0.048,0.272,0.128,0.399c0.075,0.123,0.203,0.074,0.318,0.12
		c0.226,0.087,0.608,0.448,0.725,0.017c0.023-0.078,0.761,0.105,0.832,0.118c0.178,0.021,0.281-0.09,0.367-0.219
		c0.088-0.119,0.295-0.208,0.424-0.271c0.135-0.069,0.288-0.123,0.436-0.173c0.24-0.072,0.512,0.045,0.755-0.028
		c0.133-0.042,0.185-0.115,0.246-0.228c0.073-0.146,0.216-0.229,0.354-0.307c0.086-0.049,0.169-0.118,0.254-0.151
		c0.085-0.029,0.173-0.004,0.254-0.014c0.129-0.015,0.096-0.094,0.178-0.174c0.245-0.227,0.638-0.083,0.88-0.308
		c0.115-0.116,0.272-0.256,0.428-0.14c0.129,0.097,0.134,0.173,0.312,0.117c0.134-0.044,0.33-0.097,0.37-0.25
		c0.039-0.155,0.006-0.313,0.056-0.47c0.048-0.145,0.076-0.283-0.017-0.415c-0.089-0.132-0.225-0.132-0.364-0.157
		c-0.208-0.033-0.488-0.062-0.649-0.205c-0.065-0.054-0.117-0.133-0.172-0.184c-0.073-0.073-0.172-0.095-0.234-0.163
		c-0.056-0.059-0.082-0.148-0.156-0.186c-0.083-0.052-0.178-0.013-0.264-0.038c-0.068-0.021-0.128-0.062-0.197-0.072
		c-0.075-0.019-0.145-0.044-0.192-0.104c-0.046-0.054-0.046-0.135-0.099-0.184c-0.079-0.068-0.134-0.019-0.215,0.015
		c-0.068,0.034-0.155,0.038-0.232,0.034c-0.102-0.313-0.5-0.117-0.707-0.049c-0.229,0.08-0.493,0.08-0.693-0.054
		c-0.198-0.13-0.363-0.358-0.601-0.411c-0.24-0.055-0.452,0.032-0.656-0.139c-0.065-0.058-0.191-0.129-0.231-0.203
		c-0.03-0.054-0.018-0.121-0.037-0.18c-0.043-0.122-0.151-0.238-0.114-0.379c0.025-0.087,0.169-0.176,0.225-0.254
		c0.077-0.095,0.119-0.182,0.117-0.302c0-0.057,0.01-0.115-0.009-0.17c-0.023-0.057-0.047-0.091-0.061-0.165
		c-0.012-0.115-0.016-0.227-0.016-0.346c0.004-0.059,0.014-0.127,0-0.18c-0.013-0.06-0.053-0.101-0.065-0.155
		c-0.019-0.112-0.012-0.228-0.012-0.343c0-0.118-0.039-0.208-0.064-0.315c-0.041-0.165,0.015-0.352,0.177-0.426
		c0.1-0.05,0.233-0.078,0.317-0.149c0.102-0.089,0.08-0.228,0.076-0.346c-0.005-0.121-0.083-0.198-0.088-0.313
		c-0.013-0.139,0.042-0.207-0.107-0.264c-0.12-0.049-0.23-0.114-0.348-0.174c-0.09-0.052-0.25-0.063-0.248-0.188
		c0-0.114,0.058-0.205,0.043-0.329c-0.02-0.123-0.101-0.173-0.21-0.216c-0.012-0.072-0.008-0.126-0.038-0.192
		c-0.029-0.082-0.052-0.134-0.052-0.223c0-0.167,0.06-0.245,0.196-0.321c0.146-0.087,0.166-0.143,0.21-0.295
		c0.062-0.202,0.215-0.351,0.258-0.551c0.07-0.274,0.072-0.616-0.078-0.866c-0.078-0.139-0.147-0.274-0.251-0.402
		c-0.104-0.12-0.232-0.211-0.321-0.341c-0.093-0.137-0.159-0.267-0.347-0.26c-0.189,0.007-0.32,0.057-0.381-0.174
		c-0.036-0.147-0.057-0.316-0.057-0.474c0-0.153-0.012-0.32,0.039-0.466c0.056-0.16,0.133-0.292,0.134-0.466
		c0.004-0.168-0.005-0.328,0.03-0.49c0.072-0.311,0.422-0.544,0.422-0.876c0-0.074-0.033-0.219-0.008-0.285
		c0.053-0.144,0.427-0.082,0.549-0.082c0.205,0,0.419,0.007,0.62-0.041c0.081-0.017,0.219-0.002,0.281-0.07
		c0.061-0.063,0.042-0.158,0.067-0.235c0.015-0.06,0.052-0.117,0.07-0.186c0.068-0.202,0.121-0.41,0.205-0.606
		c0.072-0.188,0.203-0.243,0.394-0.246c0.285-0.007,0.578-0.014,0.865-0.004c0.242,0.018,0.409,0.025,0.619-0.1
		c0.197-0.127,0.389-0.132,0.6-0.033c0.162,0.079,0.269,0.203,0.461,0.169c0.178-0.032,0.479-0.268,0.648-0.131
		c0.079,0.066,0.09,0.188,0.146,0.271c0.081,0.116,0.128,0.225,0.289,0.209c0.115-0.003,0.254-0.003,0.374-0.019
		c0.11-0.019,0.236-0.042,0.341-0.042c0.214-0.004,0.334,0.257,0.54,0.279c0.333,0.041,0.638-0.157,0.921-0.283
		c0.083-0.039,0.163-0.07,0.233-0.109c0.145-0.065,0.22-0.241,0.367-0.301c0.062-0.028,0.14,0,0.202-0.028
		c0.063-0.031,0.099-0.083,0.129-0.141c0.098-0.196,0.25-0.347,0.354-0.543c0.043-0.082,0.077-0.159,0.087-0.249
		c0.01-0.042-0.021-0.07-0.01-0.113c0.012-0.061,0.066-0.124,0.081-0.184c0.028-0.112,0.014-0.245,0.063-0.343
		c0.064-0.12,0.236-0.22,0.353-0.274c0.283-0.133,0.522,0.254,0.767,0.354c0.169,0.064,0.181,0.087,0.265,0.221
		c0.108,0.184,0.186,0.092,0.309,0.005c0.128-0.094,0.343-0.111,0.505-0.151c0.371-0.094,0.746-0.144,1.123-0.067
		c0.285,0.058,0.486,0.234,0.679,0.443c0.156,0.171,0.335,0.406,0.594,0.364c0.185-0.028,0.395-0.175,0.519-0.302
		c0.076-0.08,0.252-0.222,0.259-0.335c0.105-0.019,0.191,0.021,0.292,0.029c0.258,0.032,0.505-0.068,0.742-0.161
		c0.212-0.079,0.303-0.002,0.507,0.08c0.168,0.068,0.311,0.182,0.495,0.187c0.293,0.01,0.568-0.005,0.854,0.063
		c0.304,0.072,1.265,0.299,1.37-0.173c0.042-0.207,0.231-0.371,0.236-0.574c0.004-0.232-0.138-0.44-0.133-0.673
		c0.001-0.142,0.029-0.245,0.113-0.358c0.059-0.079,0.243-0.152,0.236-0.249c-0.186-0.029-0.373,0.023-0.547-0.038
		c-0.138-0.05-0.286-0.094-0.417-0.146c-0.147-0.064-0.305-0.162-0.472-0.132c-0.146,0.019-0.3,0.17-0.434,0.235
		c-0.152,0.088-0.32,0.153-0.475,0.245c-0.152,0.084-0.182,0.301-0.326,0.377c-0.076,0.037-0.251,0.032-0.333,0.039
		c-0.164,0.02-0.334,0.013-0.509,0.029c-0.18,0.017-0.241-0.005-0.397-0.068c-0.16-0.071-0.259,0.068-0.406,0.089
		c-0.163,0.019-0.318-0.037-0.475-0.072c-0.06-0.013-0.15-0.017-0.206-0.041c-0.063-0.013-0.08-0.059-0.126-0.077
		c-0.136-0.062-0.271,0.068-0.405,0.005c-0.141-0.058-0.104-0.25-0.21-0.337c-0.098-0.073-0.274-0.049-0.389-0.099
		c-0.122-0.052-0.22-0.157-0.338-0.222c-0.107-0.059-0.218-0.108-0.33-0.168c-0.24-0.128-0.454-0.291-0.685-0.433
		c-0.454-0.28-0.897-0.702-1.416-0.848c-0.056-0.016-0.142-0.019-0.189-0.042c-0.127-0.062-0.055-0.06-0.104-0.156
		c-0.064-0.122-0.212-0.094-0.354-0.079c-0.124,0.015-0.291,0.03-0.409,0.072c-0.117,0.04-0.227,0.168-0.359,0.125
		c0.001-0.165-0.059-0.338-0.17-0.463c-0.109-0.121-0.279-0.117-0.438-0.182c-0.133-0.057-0.206-0.161-0.335-0.203
		c-0.171-0.051-0.356-0.035-0.536-0.064c-0.077-0.289-0.451-0.518-0.7-0.623c-0.292-0.134-0.403-0.444-0.576-0.694
		c-0.102-0.149-0.214-0.264-0.292-0.431c-0.07-0.156-0.101-0.311-0.165-0.466c-0.061-0.146-0.165-0.243-0.245-0.39
		c-0.048-0.077-0.068-0.169-0.113-0.247c-0.077-0.131-0.153-0.209-0.197-0.364c-0.045-0.156-0.072-0.313-0.09-0.479
		c-0.025-0.197-0.055-0.313,0.076-0.469c0.091-0.11,0.199-0.188,0.32-0.268c0.238-0.158,0.626-0.201,0.779-0.465
		c0.114-0.194,0.026-0.456,0.072-0.667c0.065-0.284,0.292-0.296,0.531-0.361c0.24-0.066,0.142-0.191,0.03-0.324
		c-0.191-0.237-0.217-0.55-0.372-0.804c-0.167-0.282-0.371-0.542-0.622-0.744c-0.136-0.105-0.254-0.231-0.415-0.297
		c-0.159-0.061-0.322-0.037-0.492-0.047c-0.009-0.083-0.021-0.203,0.005-0.277c0.029-0.089,0.113-0.144,0.134-0.247
		c0.014-0.078-0.014-0.144,0.021-0.218c0.031-0.049,0.105-0.101,0.147-0.139c0.124-0.127,0.258-0.242,0.387-0.357
		c0.103-0.085,0.208-0.169,0.311-0.248c0.075-0.058,0.149-0.167,0.225-0.207c0.06-0.036,0.179,0.005,0.221-0.036
		c0.115-0.104-0.042-0.262-0.05-0.365c-0.017-0.145,0.129-0.262,0.05-0.406c-0.059-0.113-0.161-0.126-0.188-0.256
		c-0.041-0.189,0.086-0.22,0.187-0.325c0.093-0.104,0.107-0.294,0.279-0.297c0.152,0,0.174,0.127,0.238,0.237
		c0.018,0,0.085-0.023,0.1-0.027c0.007-0.019,0.013-0.04,0.016-0.061c0.019-0.002,0.038-0.008,0.058-0.01
		c0.015-0.088-0.046-0.113-0.061-0.184c-0.024-0.091,0.011-0.081,0.022-0.163c0.017-0.101,0.032-0.082-0.011-0.182
		c-0.042-0.091-0.088-0.141-0.093-0.242c-0.002-0.234,0.121-0.181,0.231-0.313c0.103-0.123-0.055-0.184-0.053-0.326
		c0-0.133,0.142-0.186,0.176-0.311c0.039-0.141-0.007-0.256,0.085-0.378c0.114-0.158,0.307-0.38,0.487-0.427
		c0.22-0.063,0.468-0.252,0.364-0.495c-0.134-0.315-0.008-0.441,0.147-0.702c0.095-0.164,0-0.216-0.046-0.366
		c-0.039-0.135,0.024-0.276-0.013-0.407c-0.064-0.21-0.352-0.344-0.47-0.53c-0.073-0.117-0.046-0.248-0.071-0.381
		c-0.025-0.12-0.06-0.245-0.083-0.367c-0.021-0.142-0.104-0.217-0.152-0.347c-0.126-0.325,0.038-0.432,0.244-0.639
		c0.177-0.178,0.037-0.478-0.209-0.513c-0.235-0.028-0.572,0.113-0.789-0.014c-0.12-0.068-0.147-0.235-0.244-0.325
		c-0.073-0.07-0.181-0.105-0.271-0.165c-0.172-0.107-0.294-0.261-0.455-0.392c-0.113-0.088-0.201-0.201-0.313-0.296
		c-0.103-0.082-0.24-0.117-0.339-0.202c-0.172-0.144-0.234-0.387-0.366-0.567c-0.108-0.156-0.351-0.309-0.533-0.378
		c-0.26-0.086-0.547,0.029-0.802-0.077c-0.217-0.092-0.388-0.237-0.543-0.424c-0.14-0.154-0.322-0.237-0.534-0.287
		c-0.272-0.063-0.554-0.065-0.812-0.179c-0.458-0.184-0.885-0.384-1.39-0.41c-0.278-0.01-0.474-0.019-0.632-0.265
		c-0.137-0.206-0.229-0.423-0.304-0.653c-0.059-0.184-0.276-0.417-0.265-0.603c0.007-0.113,0.115-0.205,0.178-0.294
		c0.082-0.11,0.144-0.224,0.198-0.358c0.115-0.265,0.316-0.468,0.434-0.729c0.096-0.208,0.121-0.433,0.228-0.629
		c0.087-0.16,0.238-0.16,0.339-0.292c0.167-0.217,0.254-0.545,0.267-0.806c0.01-0.152,0.098-0.324,0.154-0.471
		c0.046-0.122,0.058-0.469,0.277-0.424c0.195,0.551,0.534-0.041,0.739-0.27c0.227-0.251,0.69-0.545,0.633-0.923
		c-0.121-0.064-0.271-0.098-0.402-0.145c-0.144-0.054-0.307-0.023-0.466-0.048c-0.024-0.187,0.028-0.372,0.028-0.574
		c0-0.189,0.04-0.364,0.034-0.548c0-0.193,0.046-0.321,0.153-0.481c0.089-0.139,0.211-0.261,0.051-0.426
		c-0.089,0.04-0.15,0.05-0.211,0.135c-0.065,0.086-0.026,0.164-0.151,0.11c-0.148-0.067-0.233-0.286-0.369-0.374
		c-0.076-0.05-0.155-0.053-0.224-0.082c-0.095-0.053-0.108-0.082-0.169-0.183c-0.062-0.12-0.146-0.247-0.268-0.317
		c-0.115-0.063-0.261-0.062-0.37-0.135c-0.151-0.1-0.325-0.313-0.425-0.466c-0.076-0.111-0.054-0.261-0.132-0.374
		c-0.112-0.16-0.334-0.108-0.381-0.307c-0.041-0.173-0.017-0.379-0.03-0.553c-0.012-0.14-0.095-0.293-0.149-0.414
		c-0.075-0.157-0.203-0.224-0.284-0.358c-0.16-0.259,0.069-0.629-0.138-0.859c-0.088-0.099-0.219-0.038-0.332-0.062
		c-0.1-0.019-0.184-0.084-0.264-0.146c-0.237-0.16-0.751-0.233-0.504-0.587c0.096-0.14,0.153-0.287,0.244-0.423
		c0.126-0.199,0.255-0.258,0.26-0.511c0.001-0.22-0.03-0.438-0.032-0.656c-0.012-0.214-0.106-0.409-0.178-0.611
		c-0.082-0.247-0.164-0.523-0.233-0.772c-0.021-0.085-0.014-0.163-0.018-0.249c-0.004-0.166-0.086-0.273-0.274-0.224
		c-0.089,0.369-0.79,0.026-0.958-0.109c-0.267-0.218-0.465-0.431-0.817-0.455c-0.333-0.025-0.716,0.114-1.037,0.018
		c-0.219-0.065-0.514-0.271-0.644-0.456c-0.16-0.223-0.014-0.517,0.057-0.747c0.078-0.249,0.133-0.433,0.34-0.598
		c0.247-0.195,0.471-0.377,0.662-0.618c0.171-0.221,0.323-0.449,0.451-0.695c0.103-0.198,0.331-0.523,0.222-0.723
		c-0.083-0.158-0.078-0.307-0.196-0.441c-0.078-0.087-0.104-0.065-0.138-0.197c-0.016-0.078-0.036-0.157-0.079-0.227
		c-0.035-0.06-0.098-0.094-0.12-0.167c-0.024-0.075-0.006-0.189-0.006-0.269c0-0.184-0.014-0.339,0.12-0.48
		c0.139-0.141,0.264-0.159,0.237-0.394c-0.024-0.157-0.059-0.322-0.075-0.489c-0.009-0.102-0.002-0.17,0.05-0.256
		c0.068-0.108,0.083-0.093,0.094-0.229c0.015-0.179,0.053-0.368,0.273-0.368c0.025-0.289,0.061-0.682-0.058-0.951
		c-0.063-0.141-0.134-0.255-0.123-0.413c0.006-0.137,0.145-0.292,0.129-0.419c-0.021-0.167-0.429-0.273-0.58-0.295
		c-0.108-0.008-0.354-0.02-0.451,0.038c-0.115,0.063-0.06,0.236-0.15,0.29c-0.104,0.064-0.551-0.269-0.683-0.342
		c-0.292-0.167-0.433-0.038-0.717,0.047c-0.266,0.072-0.573-0.012-0.79-0.174c-0.209-0.158-0.221-0.415-0.329-0.647
		c-0.128-0.269-0.424-0.227-0.671-0.348c-0.191-0.086-0.426-0.226-0.638-0.237c-0.166-0.209-0.245-0.381-0.271-0.651
		c-0.024-0.284-0.033-0.578-0.16-0.846c-0.108-0.229-0.281-0.419-0.378-0.654c-0.109-0.245-0.066-0.539-0.177-0.786
		c-0.059-0.132-0.17-0.203-0.296-0.252v77.42C48.525,87.676,48.711,87.643,48.877,87.665z"/>
	<g>
		<path style="&st14;" d="M28.226,63.992c0.182-0.068,0.357-0.137,0.52-0.244c0.093-0.054,0.085-0.133,0.15-0.207
			c0.053-0.06,0.12-0.114,0.177-0.165c0.094-0.097,0.131-0.215,0.114-0.342c-0.078-0.043-0.185-0.027-0.273-0.027
			c-0.234,0-0.461,0.039-0.693,0.063c-0.239,0.025-0.484,0.046-0.708,0.139c-0.282,0.115-0.434,0.476-0.316,0.765
			c0.115,0.272,0.466,0.256,0.731,0.238C27.991,64.1,28.105,64.033,28.226,63.992z"/>
		<path style="&st14;" d="M46.624,10.549c-0.238,0.112-0.193,0.419-0.29,0.626c-0.101,0.219-0.25,0.371-0.32,0.614
			c-0.085,0.295-0.23,0.388-0.526,0.463c-0.003,0.161-0.055,0.399,0.012,0.545c0.083,0.174,0.239,0.205,0.232,0.424
			c-0.014,0.365-0.16,0.582-0.402,0.822c-0.27,0.279-0.411-0.247-0.716-0.203c-0.219,0.026-0.187,0.162-0.311,0.297
			c-0.091,0.095-0.308,0.139-0.433,0.2c0.021,0.152-0.133,0.184-0.216,0.235c-0.106,0.069-0.116,0.185-0.208,0.273
			c-0.191,0.182-0.323,0.208-0.324,0.514c0,0.135,0,0.206-0.059,0.321c-0.079,0.144-0.088,0.229-0.083,0.403
			c0,0.224,0.108,0.5-0.065,0.693c-0.043,0.058-0.116,0.079-0.17,0.129c-0.048,0.042-0.099,0.091-0.137,0.141
			c-0.114,0.16-0.163,0.278-0.379,0.292c-0.149,0.008-0.289,0.029-0.439,0.052c-0.275,0.044-0.73,0.012-0.876,0.314
			c-0.135,0.274-0.241,0.566-0.541,0.709c-0.14,0.069-0.326,0.069-0.48,0.051c-0.124-0.012-0.253-0.018-0.38,0.012
			c-0.111,0.028-0.206,0.065-0.324,0.076c-0.19,0.018-0.378,0.018-0.567,0.041c-0.096,0.015-0.191-0.007-0.285,0.015
			c-0.205,0.04-0.313,0.239-0.452,0.378c-0.144,0.157-0.273,0.311-0.426,0.458c-0.129,0.11-0.265,0.211-0.395,0.324
			c-0.12,0.104-0.097,0.265-0.021,0.396c0.054,0.104,0.063,0.132,0.045,0.247c-0.014,0.073-0.035,0.142-0.002,0.21
			c0.033,0.066,0.037,0.089,0.037,0.177c0,0.075,0,0.155,0,0.232c0,0.154,0.021,0.324-0.044,0.467
			c-0.069,0.13-0.193,0.241-0.235,0.391c-0.024,0.088,0.01,0.165-0.033,0.243c-0.028,0.063-0.089,0.105-0.118,0.167
			c-0.056,0.104-0.06,0.229-0.064,0.348c-0.005,0.14-0.035,0.205-0.129,0.316c-0.055,0.068-0.133,0.07-0.217,0.037
			c-0.076-0.033-0.135-0.088-0.213-0.113c-0.085-0.026-0.169-0.054-0.258-0.087c-0.155-0.058-0.31-0.115-0.465-0.171
			c-0.142-0.043-0.269-0.118-0.408-0.157c-0.143-0.036-0.372-0.075-0.505-0.004c-0.159,0.083-0.248,0.248-0.352,0.38
			c-0.082,0.096-0.105,0.115-0.236,0.091c-0.08-0.013-0.156,0-0.238-0.009c-0.176-0.022-0.305-0.144-0.455-0.222
			c-0.093-0.054-0.176-0.105-0.249-0.18c-0.042-0.036-0.078-0.091-0.125-0.118c-0.169-0.096-0.442,0.066-0.49-0.206
			c-0.025-0.158,0.064-0.421-0.154-0.468c-0.197-0.043-0.391-0.03-0.588-0.021c-0.022,0.131-0.055,0.242-0.097,0.358
			c-0.044,0.13-0.124,0.152-0.206,0.248c-0.06,0.068-0.025,0.074-0.012,0.138c0.017,0.056,0.012,0.121,0.012,0.182
			c0,0.119,0.016,0.258-0.002,0.373c-0.238,0.094-0.441,0.237-0.57,0.456c-0.058,0.106-0.097,0.227-0.116,0.338
			c-0.014,0.11,0.005,0.247-0.059,0.349c-0.219,0.373-0.577,0.531-0.92,0.768c-0.08,0.054-0.157,0.11-0.229,0.171
			c-0.078,0.07-0.11,0.177-0.189,0.23c-0.165,0.123-0.348,0.175-0.484,0.33c-0.079,0.094-0.158,0.163-0.207,0.259
			c-0.052,0.102-0.044,0.197-0.088,0.301c-0.103,0.21-0.211,0.43-0.356,0.608c-0.135,0.17-0.24,0.382-0.35,0.569
			c-0.063,0.111-0.129,0.227-0.172,0.338c-0.025,0.072-0.052,0.136-0.094,0.195c-0.052,0.086-0.134,0.159-0.179,0.246
			c-0.054,0.103-0.054,0.227-0.079,0.337c-0.022,0.09,0.003,0.22-0.059,0.297c-0.064,0.073-0.209,0.04-0.3,0.04
			c-0.106,0-0.21-0.003-0.319,0.003c-0.096,0-0.231,0-0.32,0.022c-0.186,0.048-0.334,0.279-0.409,0.441
			c-0.092,0.192-0.17,0.371-0.328,0.518c-0.196,0.176-0.372,0.376-0.576,0.554c-0.18,0.155-0.367,0.315-0.557,0.46
			c-0.078,0.062-0.194,0.14-0.26,0.214c-0.058,0.07-0.058,0.189-0.079,0.274c-0.046,0.182-0.207,0.267-0.327,0.402
			c-0.063,0.078-0.139,0.148-0.222,0.218c-0.089,0.079-0.144,0.165-0.242,0.24c-0.09,0.065-0.194,0.11-0.28,0.174
			c-0.078,0.056-0.094,0.146-0.106,0.226c-0.015,0.102-0.022,0.224-0.084,0.308c-0.059,0.081-0.165,0.14-0.237,0.213
			c-0.143,0.155-0.253,0.313-0.458,0.365c-0.033,0.009-0.104,0.009-0.131,0.039c-0.024,0.039-0.009,0.111-0.024,0.154
			c-0.031,0.089-0.094,0.19-0.162,0.258c-0.077,0.081-0.17,0.139-0.246,0.222c-0.053,0.055-0.11,0.101-0.162,0.158
			c-0.078,0.089-0.146,0.188-0.235,0.271c-0.109,0.099-0.234,0.182-0.348,0.272c-0.063,0.051-0.21,0.14-0.238,0.215
			c-0.034,0.065,0.009,0.191,0.022,0.261c0.069,0.37,0.022,0.74,0.153,1.103c0.063,0.172,0.126,0.344,0.084,0.527
			c-0.027,0.115-0.022,0.203-0.111,0.288c-0.075,0.056-0.162,0.104-0.25,0.137c-0.175,0.054-0.372,0.026-0.534,0.136
			c-0.342,0.228-0.113,0.631-0.04,0.939c0.044,0.197,0.044,0.4,0.075,0.598c0.031,0.191,0.104,0.36,0.188,0.532
			c0.142,0.282,0.302,0.553,0.457,0.826c0.202,0.365,0.225,0.697,0.159,1.095c-0.062,0.377,0.06,0.669,0.4,0.854
			c0.15,0.082,0.308,0.148,0.449,0.247c0.15,0.101,0.285,0.233,0.446,0.31c0.317,0.165,0.685,0.031,1.017,0.134
			c0.171,0.049,0.327,0.136,0.494,0.194c0.15,0.053,0.302,0.078,0.458,0.104c0.206,0.044,0.407,0.101,0.604,0.157
			c0.697,0.227,1.299,0.605,1.949,0.92c0.503,0.247,0.921,0.604,1.339,0.973c0.17,0.162,0.365,0.285,0.539,0.44
			c0.146,0.137,0.289,0.269,0.439,0.394c0.127,0.113,0.273,0.202,0.404,0.311c0.122,0.104,0.25,0.213,0.38,0.306
			c0.151,0.121,0.285,0.242,0.421,0.387c0.09,0.092,0.204,0.157,0.297,0.253c0.258,0.251,0.547,0.473,0.789,0.738
			c0.181,0.195,0.317,0.417,0.46,0.638c0.201,0.306,0.477,0.564,0.667,0.874c0.085,0.145,0.164,0.285,0.256,0.419
			c0.135,0.209,0.199,0.431,0.274,0.663c0.06,0.201,0.193,0.366,0.217,0.574c0.045,0.456,0.099,0.892,0.201,1.336
			c0.03,0.128,0,0.231,0.004,0.36c0.008,0.165,0.022,0.334,0.063,0.495c0.047,0.192,0.129,0.414,0.128,0.609
			c0,0.245,0.032,0.504,0,0.749c-0.015,0.097-0.034,0.194-0.076,0.29c-0.042,0.105-0.015,0.204-0.015,0.319
			c-0.086,0.101,0,0.206,0,0.31c0,0.271-0.158,0.523-0.148,0.806c0.017,0.421-0.101,0.834-0.106,1.252
			c0,0.177-0.064,0.315-0.089,0.478c-0.015,0.109-0.081,0.179-0.134,0.273c-0.042,0.075-0.028,0.124-0.028,0.209
			c0.006,0.206-0.161,0.369-0.197,0.568c-0.024,0.144-0.037,0.274-0.079,0.422c-0.061,0.189-0.198,0.343-0.288,0.515
			c-0.092,0.182-0.11,0.388-0.155,0.58c-0.025,0.115-0.067,0.183-0.126,0.284c-0.131,0.217-0.283,0.399-0.458,0.584
			c-0.146,0.158-0.281,0.326-0.425,0.482c-0.125,0.132-0.247,0.256-0.362,0.4c-0.066,0.094-0.158,0.169-0.234,0.262
			c-0.084,0.104-0.113,0.204-0.219,0.299c-0.117,0.104-0.238,0.202-0.359,0.297c-0.244,0.183-0.506,0.351-0.799,0.442
			c-0.334,0.104-0.665,0.169-1.018,0.187c-0.028,0.002-0.063,0.004-0.096,0.006c-0.014,0.024-0.041,0.037-0.047,0.068
			c-0.032,0.13,0.046,0.287-0.016,0.413c-0.059,0.126-0.23,0.105-0.347,0.089c-0.229-0.024-0.641-0.053-0.709-0.328
			c-0.036-0.147,0.02-0.301,0.055-0.438c0.04-0.152,0.049-0.297,0.04-0.451c-0.279,0.282-0.464,0.646-0.656,0.989
			c-0.082,0.147-0.185,0.279-0.229,0.438c-0.044,0.152-0.061,0.327-0.052,0.484c0.019,0.361,0.231,0.73,0.378,1.05
			c0.165,0.357,0.286,0.736,0.456,1.084c0.101,0.197,0.192,0.402,0.3,0.598c0.076,0.134,0.153,0.271,0.21,0.412
			c0.054,0.132,0.057,0.271,0.104,0.391c0.029,0.082,0.08,0.182,0.093,0.264c0.023,0.165,0.006,0.332-0.013,0.496
			c-0.012,0.111-0.059,0.203-0.08,0.307c-0.024,0.14,0,0.311,0.01,0.455c0.005,0.158,0.025,0.32,0.058,0.475
			c0.069,0.287,0.091,0.563,0.11,0.855c0.011,0.122-0.004,0.199,0.05,0.32c0.055,0.126,0.109,0.257,0.166,0.386
			c0.047,0.108,0.103,0.212,0.165,0.32c0.162,0.255,0.404,0.4,0.667,0.536c0.088,0.049,0.177,0.078,0.275,0.104
			c0.127,0.033,0.202,0.058,0.325,0.005c0.141-0.048,0.282-0.086,0.415-0.157c0.182-0.1,0.347-0.226,0.502-0.358
			c0.188-0.167,0.373-0.344,0.554-0.519c0.08-0.078,0.164-0.154,0.231-0.245c0.062-0.088,0.133-0.115,0.207-0.18
			c0.071-0.065,0.129-0.132,0.204-0.182c0.143-0.101,0.239-0.203,0.362-0.321c0.114-0.108,0.215-0.21,0.28-0.353
			c0.141-0.332,0.404-0.545,0.625-0.822c0.187-0.235,0.364-0.574,0.66-0.684c0.127-0.041,0.261-0.051,0.392-0.064
			c0.596-0.069,1.209-0.026,1.761,0.211c0.261,0.113,0.511,0.255,0.734,0.422c0.278,0.215,0.535,0.479,0.77,0.732
			c0.085,0.092,0.146,0.199,0.232,0.292c0.141,0.151,0.24,0.339,0.353,0.509c0.137,0.217,0.276,0.427,0.417,0.638
			c0.142,0.203,0.324,0.392,0.528,0.546c0.08,0.064,0.152,0.073,0.244,0.105c0.131,0.06,0.239,0.15,0.378,0.185
			c0.11,0.03,0.227,0.021,0.332,0.088c0.087,0.058,0.169,0.125,0.263,0.181c0.156,0.104,0.234,0.267,0.25,0.449
			c0.01,0.12-0.019,0.25-0.007,0.369c0.018,0.135,0.103,0.253,0.159,0.37c0.112,0.235,0.221,0.467,0.37,0.679
			c0.131,0.188-0.039,0.287-0.188,0.399c-0.152,0.114-0.317,0.201-0.485,0.296c-0.269,0.154-0.296,0.361-0.3,0.656
			c0,0.299,0.031,0.553,0.136,0.829c0.117,0.311,0.059,0.532,0.006,0.845c-0.039,0.269,0.164,0.492,0.231,0.739
			c0.018,0.057,0.022,0.266,0.079,0.295c0.071,0.035,0.201-0.128,0.236-0.171c0.122-0.128,0.233-0.271,0.306-0.436
			c0.059-0.134,0.07-0.274,0.097-0.414c0.057-0.256,0.284-0.449,0.51-0.224c0.187,0.189,0.289,0.542,0.28,0.799
			c-0.012,0.27-0.201,0.539-0.123,0.808c0.076,0.271,0.402,0.378,0.647,0.443c0.298,0.082,0.583,0.052,0.884,0.002
			c0.224-0.043,0.666-0.146,0.765,0.151c0.05,0.147-0.028,0.249-0.061,0.388c-0.034,0.16-0.065,0.359-0.059,0.525
			c0.002,0.11,0.134,0.27,0.229,0.317c0.122,0.059,0.278,0.059,0.406,0.059c0.214,0,0.407-0.015,0.617-0.059
			c0.097-0.021,0.198-0.026,0.279-0.09c0.079-0.062,0.111-0.172,0.164-0.257c0.085-0.121,0.227-0.199,0.313-0.329
			c0.037-0.051,0.038-0.139,0.074-0.175c0.065-0.068,0.222-0.027,0.287,0.006c0.277,0.124,0.409,0.416,0.357,0.703
			c-0.053,0.287-0.103,0.549-0.118,0.848c-0.012,0.21-0.054,0.412-0.054,0.621c0,0.173,0.024,0.373,0.1,0.508
			c0.048,0.094,0.059,0.189,0.129,0.273c0.067,0.076,0.152,0.143,0.242,0.192c0.075,0.049,0.118,0.027,0.155,0.107
			c0.033,0.083,0.024,0.172,0.054,0.254c0.047,0.125,0.101,0.251,0.14,0.372c0.033,0.098-0.01,0.219,0.078,0.288
			c0.061,0.047,0.122,0.092,0.183,0.138V10.469c-0.022,0.007-0.04,0.019-0.064,0.023C46.872,10.518,46.735,10.496,46.624,10.549z"/>
	</g>
	<path style="&st15;" d="M60.264,59.371c2.563,0,5.126,0,7.688,0c-0.232-1.947-0.444-3.898-0.709-5.841
		c-0.141-1.036-0.191-2.049,0.09-3.071c0.149-0.544,0.218-1.111,0.332-1.704c-0.208-0.01-0.367-0.018-0.57-0.029
		c0.191-1.017,0.376-2.007,0.563-3.006c-0.213-0.023-0.359-0.038-0.56-0.061c0.188-1.012,0.373-2.003,0.56-3.01
		c-0.219-0.026-0.375-0.045-0.56-0.068c0.189-1.009,0.374-1.991,0.56-2.984c-0.214-0.023-0.371-0.04-0.563-0.06
		c0.191-1.016,0.376-1.998,0.563-2.993c-0.211-0.029-0.368-0.053-0.56-0.08c0.19-1.01,0.375-1.991,0.566-3.007
		c-0.209-0.011-0.368-0.019-0.57-0.028c0.191-1.018,0.376-2.008,0.563-3.006c-0.215-0.022-0.361-0.04-0.56-0.061
		c0.189-1.014,0.374-2.006,0.563-3.023c-0.235-0.016-0.406-0.027-0.627-0.043c0-0.296,0-0.573,0-0.886c-0.415,0-0.778,0-1.188,0
		c0-0.561,0-1.085,0-1.655c-0.311,0-0.574,0-0.837,0c0-0.685,0-1.318,0-1.949c0.147-0.027,0.266-0.051,0.395-0.074
		c0-0.564,0-1.117,0-1.694c-0.219-0.013-0.417-0.024-0.656-0.038c0-0.358,0-0.693,0-1.021c-0.191-0.026-0.335-0.045-0.489-0.066
		c0.205-0.213,0.367-0.381,0.577-0.601c-0.253-0.02-0.398-0.031-0.564-0.043c0-0.611,0-1.194,0-1.779c-0.164,0-0.327,0-0.49,0
		c0,0.595,0,1.19,0,1.779c-0.176,0.018-0.317,0.032-0.53,0.054c0.211,0.222,0.372,0.389,0.563,0.588
		c-0.168,0.025-0.307,0.048-0.496,0.077c0,0.33,0,0.664,0,1.009c-0.246,0.02-0.445,0.033-0.653,0.049c0,0.58,0,1.13,0,1.688
		c0.152,0.028,0.283,0.054,0.42,0.078c0,0.649,0,1.284,0,1.958c-0.291,0-0.557,0-0.862,0c0,0.563,0,1.088,0,1.662
		c-0.411,0-0.784,0-1.171,0c-0.015,0.316-0.026,0.583-0.039,0.868c-0.206,0.021-0.387,0.039-0.599,0.06
		c0.196,1.02,0.384,2.006,0.578,3.013c-0.196,0.019-0.367,0.034-0.576,0.055c0.192,1.006,0.382,1.989,0.575,2.994
		c-0.188,0.018-0.361,0.033-0.576,0.053c0.193,1.013,0.383,2.007,0.576,3.013c-0.209,0.024-0.38,0.044-0.575,0.067
		c0.195,1.014,0.383,1.995,0.576,2.995c-0.204,0.018-0.376,0.033-0.578,0.052c0.194,1.006,0.382,1.988,0.575,2.995
		c-0.196,0.021-0.369,0.043-0.573,0.065c0.194,1.013,0.382,2.007,0.575,3.015c-0.216,0.021-0.388,0.035-0.576,0.053
		c0.195,1.017,0.384,1.996,0.576,2.994c-0.212,0.018-0.381,0.033-0.577,0.05c0.052,0.274,0.1,0.514,0.145,0.752
		c0.246,1.293,0.527,2.561,0.326,3.916C60.594,55.404,60.462,57.393,60.264,59.371z M62.302,52.931
		c-0.422-0.006-0.767-0.399-0.773-0.887c-0.007-0.496,0.361-0.933,0.783-0.928c0.413,0.002,0.759,0.408,0.766,0.898
		C63.085,52.527,62.741,52.935,62.302,52.931z M65.601,52.93c-0.437,0.012-0.803-0.398-0.803-0.899c0-0.491,0.381-0.928,0.8-0.914
		c0.41,0.012,0.756,0.429,0.757,0.91C66.357,52.518,66.022,52.919,65.601,52.93z M60.697,27.688
		c0.009-0.038,0.017-0.076,0.026-0.112c2.216,0,4.431,0,6.648,0c0.01,0.04,0.021,0.083,0.032,0.124
		c-0.132,0.029-0.266,0.084-0.397,0.084c-1.619,0.005-3.238,0.003-4.857,0.003c-0.38,0-0.761,0.008-1.142-0.004
		C60.902,27.779,60.801,27.721,60.697,27.688z M60.84,30.825c-0.038,0-0.074-0.026-0.111-0.041
		c-0.012-0.037-0.022-0.075-0.035-0.114c0.094-0.029,0.188-0.085,0.28-0.085c2.056-0.005,4.111-0.005,6.167,0.002
		c0.082,0,0.163,0.083,0.244,0.127c-0.072,0.04-0.144,0.113-0.216,0.114C65.06,30.832,62.95,30.829,60.84,30.825z M60.682,33.79
		c0.272-0.186,6.328-0.217,6.702-0.058C67.224,33.931,61.166,33.998,60.682,33.79z M60.964,36.951
		c-0.088-0.003-0.177-0.04-0.267-0.063c0.008-0.048,0.016-0.095,0.022-0.144c2.219,0,4.436,0,6.653,0
		c0.01,0.042,0.02,0.083,0.03,0.124c-0.131,0.029-0.262,0.081-0.393,0.082c-1.77,0.006-3.54,0.003-5.311,0.003
		C61.455,36.954,61.21,36.96,60.964,36.951z M60.726,39.974c-0.01-0.036-0.019-0.073-0.029-0.109c0.1-0.037,0.198-0.106,0.298-0.106
		c2.039-0.006,4.078-0.006,6.117-0.001c0.098,0,0.193,0.05,0.29,0.078c-0.009,0.046-0.02,0.093-0.029,0.139
		C65.157,39.974,62.942,39.974,60.726,39.974z M60.698,43.03c0.008-0.051,0.015-0.101,0.021-0.15c2.217,0,4.435,0,6.651,0
		c0.012,0.039,0.022,0.076,0.034,0.116c-0.118,0.03-0.236,0.088-0.353,0.088c-1.661,0.006-3.322,0.005-4.981,0.005
		c-0.355,0-0.708,0.003-1.062-0.004C60.905,43.083,60.802,43.049,60.698,43.03z M60.717,45.982c2.223-0.072,4.445-0.075,6.668-0.017
		C67.154,46.206,61.064,46.233,60.717,45.982z M60.72,49.112c0.181-0.212,5.705-0.319,6.496-0.201
		c0.07,0.011,0.131,0.075,0.165,0.201C65.16,49.112,62.939,49.112,60.72,49.112z"/>
	<g>
		<g>
			<path style="&st2;" d="M39.674,39.095h-4.373v-5.184h4.646l-4.646-3.748H23.343l-4.64,3.748h4.642v5.184h-4.371l-5.121,4.398
				h5.121v8.093h20.701v-8.093h5.121L39.674,39.095z M32.309,50.607h-5.972v-5.869h5.972V50.607z"/>
			<rect x="25.174" y="34.766" style="&st14;" width="2.769" height="2.763"/>
			<rect x="21.059" y="44.1" style="&st14;" width="3.079" height="3.08"/>
			<rect x="30.705" y="34.766" style="&st14;" width="2.772" height="2.763"/>
			<rect x="34.148" y="44.1" style="&st14;" width="3.083" height="3.08"/>
		</g>
		<polygon style="&st20;" points="39.99,33.908 35.338,30.1 35.354,30.098 36.131,28.832 35.546,28.832 33.829,30.084 
			24.783,30.084 23.108,28.869 22.526,28.869 23.296,30.125 18.671,33.908 		"/>
		<polygon style="&st20;" points="13.853,43.518 44.79,43.518 39.686,39.075 39.73,39.071 40.507,37.807 39.923,37.807 
			38.192,39.071 20.588,39.034 18.86,37.777 18.279,37.777 19.049,39.028 18.991,39.028 		"/>
		<rect x="26.337" y="44.738" style="&st14;" width="5.972" height="5.869"/>
	</g>
	<g>
		<path style="&st17;" d="M36.655,64.699c-0.467,0.816-0.127,1.823,0.067,2.358c0.297,0.813,0.122,1.214,0.107,1.47
			c-0.014,0.265-0.088,0.417-0.174,0.504c-0.243-0.384-0.546-0.663-0.546-0.663v-1.037c0.003-0.016,0.006-0.029,0.006-0.045
			c0-0.316-0.893-0.602-2.273-0.783v-6.308h-0.561v6.244c-0.807-0.083-1.739-0.133-2.74-0.14v-6.104h-0.56V66.3
			c-1.002,0.012-1.936,0.065-2.74,0.149v-6.254H26.68v6.321c-1.328,0.181-2.18,0.457-2.18,0.77v1.082c0,0-0.304,0.281-0.547,0.664
			c-0.086-0.085-0.163-0.238-0.177-0.505c-0.014-0.256-0.189-0.656,0.108-1.47c0.194-0.535,0.534-1.542,0.067-2.358
			c-0.466-0.818-1.693-0.884-2.323-0.884v1.112c0,0,1.005-0.155,1.402,0.219c0.217,0.206,0.303,0.684,0.093,1.074
			c-0.357,0.661-0.451,1.282-0.465,1.659c-0.016,0.444,0.095,1.472,0.268,1.808c0.188,0.363,0.457,0.521,0.687,0.55
			c0.002,0,0.005,0,0.006,0.001c-0.016,0.507,0.07,1.052,0.25,1.446c0.27,0.592,0.764,1.332,1.73,1.934
			c-0.034,0.099-0.057,0.211-0.057,0.332v2.803c0,0.391,0.21,0.707,0.467,0.707h1.184c0.259,0,0.468-0.316,0.468-0.707v-2.326
			c0.42,0.098,0.879,0.177,1.394,0.226c0.075,0.005,0.159,0.006,0.238,0.01v3.068c0,0.292,0.203,0.649,0.455,0.649
			c0,0,0.404,0.131,0.662,0.118c0.208-0.009,0.546-0.118,0.546-0.118c0.251,0,0.455-0.357,0.455-0.649v-3.072
			c0.047-0.005,0.097-0.004,0.143-0.006c0.369-0.036,0.708-0.088,1.026-0.147v2.248c0,0.391,0.209,0.707,0.469,0.707h1.182
			c0.259,0,0.467-0.316,0.467-0.707V73.95c0-0.051-0.003-0.102-0.01-0.15c1.182-0.628,1.753-1.462,2.051-2.115
			c0.18-0.395,0.267-0.939,0.251-1.447c0,0,0.002,0,0.003,0c0.23-0.029,0.498-0.187,0.687-0.55c0.173-0.336,0.283-1.363,0.269-1.808
			c-0.014-0.377-0.108-0.998-0.466-1.659c-0.209-0.391-0.124-0.868,0.094-1.074c0.396-0.374,1.402-0.219,1.402-0.219v-1.112
			C38.348,63.815,37.121,63.881,36.655,64.699z"/>
		<path style="&st24;" d="M27.285,55.511c-0.848,0.605-0.967,1.211-0.544,1.574c0.424,0.363,0.907,0.605,0.667,1.028
			c-0.243,0.423-0.728,0.969-0.728,0.969"/>
		<path style="&st24;" d="M30.795,55.511c-0.847,0.605-0.968,1.211-0.545,1.574c0.425,0.363,0.909,0.605,0.668,1.028
			c-0.243,0.423-0.728,0.969-0.728,0.969"/>
		<path style="&st24;" d="M34.186,55.511c-0.847,0.605-0.968,1.211-0.545,1.574c0.425,0.363,0.909,0.605,0.667,1.028
			c-0.242,0.423-0.727,0.969-0.727,0.969"/>
	</g>
	<g>
		<defs>
			<path id="SVGID_1_" d="M83.56,70.703c0.14-0.109,0.269-0.224,0.399-0.338l0.678-0.68c0.878-1.008,1.417-2.211,1.566-3.625
				c0.281-2.646-0.559-4.845-2.723-6.464c-0.977-0.729-2.099-1.067-3.302-1.214c-0.844-0.105-1.656-0.039-2.47,0.158
				c-0.482,0.114-0.583,0.054-0.821-0.365c-0.201-0.353-0.417-0.7-0.617-1.054c-0.115-0.203-0.213-0.415-0.359-0.704
				c0.272-0.114,0.473-0.193,0.669-0.279c0.482-0.211,0.961-0.423,1.44-0.636c0.724-0.322,0.963-0.926,0.919-1.659
				c-0.064-1.117-0.355-2.174-0.955-3.13c-0.262-0.421-0.625-0.534-1.036-0.227c-0.65,0.485-1.25,1.038-1.872,1.563
				c-0.155,0.132-0.29,0.292-0.461,0.395c-0.343,0.207-0.599,0.058-0.624-0.341c-0.02-0.331,0.167-0.537,0.429-0.697
				c0.449-0.274,0.782-0.661,0.976-1.143c0.117-0.291,0.195-0.618,0.198-0.932c0.008-0.723-0.457-1.267-1.17-1.289
				c-0.828-0.026-1.66,0.043-2.489,0.089c-0.145,0.008-0.291,0.089-0.428,0.149c-0.189,0.084-0.336,0.238-0.255,0.437
				c0.061,0.151,0.218,0.29,0.365,0.368c0.125,0.064,0.3,0.038,0.453,0.035c0.679-0.012,1.356-0.033,2.037-0.046
				c0.491-0.01,0.649,0.218,0.436,0.67c-0.105,0.226-0.269,0.431-0.431,0.624c-0.261,0.312-0.544,0.605-0.817,0.909
				c-0.252,0.281-0.33,0.608-0.143,0.938c0.52,0.918,0.369,1.851,0.026,2.753c-0.562,1.473-1.188,2.921-1.787,4.378
				c-0.256,0.627-0.51,1.256-0.775,1.879c-0.119,0.28-0.268,0.549-0.405,0.821c-0.55,1.094-1.462,1.675-2.659,1.798
				c-0.519,0.055-1.049,0.029-1.574,0.013c-0.356-0.013-0.575-0.206-0.692-0.564c-0.616-1.903-1.263-3.797-1.878-5.7
				c-0.432-1.338-0.833-2.687-1.265-4.087c0.168-0.102,0.324-0.229,0.5-0.301c0.378-0.151,0.77-0.27,1.15-0.411
				c0.254-0.096,0.513-0.188,0.748-0.321c0.451-0.254,0.449-0.591-0.025-0.814c-0.233-0.109-0.525-0.159-0.786-0.143
				c-0.7,0.045-1.385-0.008-2.078-0.115c-0.431-0.066-0.881-0.056-1.319-0.032c-0.564,0.029-0.947,0.383-1.07,0.923
				c-0.117,0.507,0.102,1.048,0.591,1.287c0.312,0.151,0.664,0.259,1.007,0.287c0.287,0.025,0.439,0.126,0.525,0.377
				c0.19,0.543,0.399,1.081,0.566,1.632c0.203,0.665,0.354,1.347,0.563,2.009c0.111,0.354,0.062,0.622-0.211,0.869
				c-0.177,0.158-0.49,0.431-0.661,0.597c-0.043,0.042-0.119,0.127-0.363-0.048c-0.305-0.216-0.592-0.456-0.895-0.675
				c-0.527-0.385-1.105-0.638-1.754-0.763c-2.245-0.432-4.232,0.183-6.049,1.464C52.09,59.676,51.577,59.947,51,60.12
				c-0.521,0.153-0.739,0.398-0.527,0.905c0.222,0.535,0.355,0.633,0.19,1.003c-0.11,0.247-0.24,0.611-0.416,1.097
				c-0.622,1.727-0.021,4.784,1.22,6.163c1.066,1.185,2.267,2.104,3.865,2.377c1.162,0.198,2.314,0.176,3.471-0.166
				c1.499-0.441,2.653-1.32,3.568-2.554c0.121-0.164,0.243-0.329,0.35-0.501c0.18-0.288,0.436-0.364,0.748-0.278
				c0.243,0.068,0.481,0.16,0.726,0.229c0.488,0.14,0.974,0.3,1.471,0.395c0.29,0.055,0.611,0.044,0.903-0.012
				c0.365-0.069,0.703-0.065,1.04,0.088c0.404,0.184,0.799,0.105,1.184-0.062c0.281-0.124,0.422-0.364,0.391-0.644
				c-0.035-0.333-0.268-0.378-0.544-0.406c-0.433-0.045-0.488-0.143-0.4-0.557c0.049-0.231,0.051-0.476,0.124-0.696
				c0.059-0.182,0.153-0.394,0.299-0.498c1.372-0.976,2.176-2.346,2.769-3.877c0.803-2.072,1.62-4.138,2.433-6.205
				c0.068-0.17,0.153-0.332,0.269-0.581c0.185,0.186,0.351,0.3,0.447,0.458c0.524,0.853,1.041,1.711,1.542,2.576
				c0.25,0.429,0.192,0.619-0.25,0.869c-1.077,0.614-1.942,1.442-2.456,2.574c-0.656,1.449-0.957,2.969-0.55,4.552
				c0.169,0.653,0.391,1.297,0.638,1.925c0.409,1.042,1.174,1.825,2.021,2.513c0.593,0.484,1.298,0.799,2.062,0.938
				c0.5,0.091,1.002,0.201,1.507,0.231c0.417,0.025,0.84-0.051,1.261-0.082c0.967-0.073,1.841-0.431,2.689-0.869
				C83.222,70.932,83.4,70.826,83.56,70.703z M63.301,67.23c0.112-0.048,0.235-0.15,0.333-0.132
				c0.246,0.048,0.421,0.194,0.394,0.598c-0.23-0.075-0.412-0.108-0.564-0.194C63.383,67.458,63.353,67.324,63.301,67.23z
				 M62.438,66.088c-0.05,0.127-0.112,0.234-0.135,0.349c-0.2,1.032-0.72,1.892-1.437,2.644c-0.732,0.768-1.616,1.312-2.624,1.585
				c-0.797,0.216-1.623,0.23-2.467,0.087c-2.825-0.482-4.603-2.831-4.826-5.541c-0.07-0.844,0.22-1.598,0.45-2.38
				c0.183-0.618,0.564-1.014,1.138-1.282c0.796-0.372,1.125-0.287,1.643,0.414c0.482,0.654,0.999,1.283,1.501,1.923
				c0.221,0.281,0.523,0.439,0.871,0.479c0.4,0.046,0.808,0.056,1.211,0.068c0.847,0.03,1.693,0.037,2.539,0.085
				c0.187,0.011,0.391,0.122,0.544,0.243C61.376,65.182,61.889,65.626,62.438,66.088z M64.101,64.055
				c-0.239,0.021-0.274-0.009-0.502-0.037c-0.16-1.514-0.864-3.143-1.517-3.994c0.247-0.226,0.468-0.428,0.762-0.697
				c0.149,0.322,0.295,0.58,0.393,0.856c0.399,1.13,0.782,2.267,1.176,3.398C64.558,63.998,64.52,64.02,64.101,64.055z
				 M64.554,64.949c-0.076,0.155-0.097,0.268-0.165,0.323c-0.309,0.259-0.544,0.539-0.521,0.982
				c0.004,0.064-0.182,0.199-0.278,0.197c-0.149,0-0.297-0.092-0.482-0.158c0.472-0.361,0.472-0.361,0.475-0.956
				c0-0.192,0.007-0.251,0.007-0.485C63.863,64.877,64.297,64.92,64.554,64.949z M67.287,66.842
				c-0.196-0.126-0.387-0.261-0.589-0.375c-0.19-0.106-0.382-0.233-0.589-0.278c-0.32-0.072-0.51,0.155-0.36,0.443
				c0.128,0.245,0.341,0.448,0.533,0.656c0.117,0.127,0.265,0.229,0.41,0.352c-0.489,0.363-1.09,0.309-1.461-0.085
				c-0.489-0.521-0.544-1.323-0.081-1.804c0.603-0.627,1.129-0.671,1.762-0.242C67.388,65.831,67.551,66.397,67.287,66.842z
				 M68.226,64.955c-0.174,0.284-0.344,0.271-0.57,0.047C67.853,64.785,68.019,64.738,68.226,64.955z M79.338,71.029
				c-0.748,0.145-1.543-0.171-2.314-0.528c-1.7-0.79-2.849-2.109-3.287-3.92c-0.581-2.402,0.158-4.447,1.98-6.106
				c0.174-0.157,0.375-0.293,0.576-0.415c0.364-0.223,0.472-0.19,0.669,0.2c0.213,0.425,0.414,0.855,0.618,1.284
				c0.525,1.103,1.046,2.207,1.577,3.304c0.167,0.344,0.468,0.465,0.745,0.339c0.227-0.104,0.255-0.327,0.067-0.712
				c-0.674-1.37-1.353-2.737-2.03-4.105c-0.083-0.166-0.193-0.321-0.263-0.493c-0.124-0.313-0.027-0.503,0.291-0.571
				c1.025-0.221,2.074-0.26,3.072,0.043c2.909,0.883,4.727,3.624,4.236,6.738C84.871,68.652,82.639,71.046,79.338,71.029z"/>
		</defs>
		<clipPath id="SVGID_2_">
			<use xlink:href="#SVGID_1_"  style="overflow:visible;"/>
		</clipPath>
		<path style="&st3;" d="M83.56,70.703c0.14-0.109,0.269-0.224,0.399-0.338l0.678-0.68c0.878-1.008,1.417-2.211,1.566-3.625
			c0.281-2.646-0.559-4.845-2.723-6.464c-0.977-0.729-2.099-1.067-3.302-1.214c-0.844-0.105-1.656-0.039-2.47,0.158
			c-0.482,0.114-0.583,0.054-0.821-0.365c-0.201-0.353-0.417-0.7-0.617-1.054c-0.115-0.203-0.213-0.415-0.359-0.704
			c0.272-0.114,0.473-0.193,0.669-0.279c0.482-0.211,0.961-0.423,1.44-0.636c0.724-0.322,0.963-0.926,0.919-1.659
			c-0.064-1.117-0.355-2.174-0.955-3.13c-0.262-0.421-0.625-0.534-1.036-0.227c-0.65,0.485-1.25,1.038-1.872,1.563
			c-0.155,0.132-0.29,0.292-0.461,0.395c-0.343,0.207-0.599,0.058-0.624-0.341c-0.02-0.331,0.167-0.537,0.429-0.697
			c0.449-0.274,0.782-0.661,0.976-1.143c0.117-0.291,0.195-0.618,0.198-0.932c0.008-0.723-0.457-1.267-1.17-1.289
			c-0.828-0.026-1.66,0.043-2.489,0.089c-0.145,0.008-0.291,0.089-0.428,0.149c-0.189,0.084-0.336,0.238-0.255,0.437
			c0.061,0.151,0.218,0.29,0.365,0.368c0.125,0.064,0.3,0.038,0.453,0.035c0.679-0.012,1.356-0.033,2.037-0.046
			c0.491-0.01,0.649,0.218,0.436,0.67c-0.105,0.226-0.269,0.431-0.431,0.624c-0.261,0.312-0.544,0.605-0.817,0.909
			c-0.252,0.281-0.33,0.608-0.143,0.938c0.52,0.918,0.369,1.851,0.026,2.753c-0.562,1.473-1.188,2.921-1.787,4.378
			c-0.256,0.627-0.51,1.256-0.775,1.879c-0.119,0.28-0.268,0.549-0.405,0.821c-0.55,1.094-1.462,1.675-2.659,1.798
			c-0.519,0.055-1.049,0.029-1.574,0.013c-0.356-0.013-0.575-0.206-0.692-0.564c-0.616-1.903-1.263-3.797-1.878-5.7
			c-0.432-1.338-0.833-2.687-1.265-4.087c0.168-0.102,0.324-0.229,0.5-0.301c0.378-0.151,0.77-0.27,1.15-0.411
			c0.254-0.096,0.513-0.188,0.748-0.321c0.451-0.254,0.449-0.591-0.025-0.814c-0.233-0.109-0.525-0.159-0.786-0.143
			c-0.7,0.045-1.385-0.008-2.078-0.115c-0.431-0.066-0.881-0.056-1.319-0.032c-0.564,0.029-0.947,0.383-1.07,0.923
			c-0.117,0.507,0.102,1.048,0.591,1.287c0.312,0.151,0.664,0.259,1.007,0.287c0.287,0.025,0.439,0.126,0.525,0.377
			c0.19,0.543,0.399,1.081,0.566,1.632c0.203,0.665,0.354,1.347,0.563,2.009c0.111,0.354,0.062,0.622-0.211,0.869
			c-0.177,0.158-0.49,0.431-0.661,0.597c-0.043,0.042-0.119,0.127-0.363-0.048c-0.305-0.216-0.592-0.456-0.895-0.675
			c-0.527-0.385-1.105-0.638-1.754-0.763c-2.245-0.432-4.232,0.183-6.049,1.464C52.09,59.676,51.577,59.947,51,60.12
			c-0.521,0.153-0.739,0.398-0.527,0.905c0.222,0.535,0.355,0.633,0.19,1.003c-0.11,0.247-0.24,0.611-0.416,1.097
			c-0.622,1.727-0.021,4.784,1.22,6.163c1.066,1.185,2.267,2.104,3.865,2.377c1.162,0.198,2.314,0.176,3.471-0.166
			c1.499-0.441,2.653-1.32,3.568-2.554c0.121-0.164,0.243-0.329,0.35-0.501c0.18-0.288,0.436-0.364,0.748-0.278
			c0.243,0.068,0.481,0.16,0.726,0.229c0.488,0.14,0.974,0.3,1.471,0.395c0.29,0.055,0.611,0.044,0.903-0.012
			c0.365-0.069,0.703-0.065,1.04,0.088c0.404,0.184,0.799,0.105,1.184-0.062c0.281-0.124,0.422-0.364,0.391-0.644
			c-0.035-0.333-0.268-0.378-0.544-0.406c-0.433-0.045-0.488-0.143-0.4-0.557c0.049-0.231,0.051-0.476,0.124-0.696
			c0.059-0.182,0.153-0.394,0.299-0.498c1.372-0.976,2.176-2.346,2.769-3.877c0.803-2.072,1.62-4.138,2.433-6.205
			c0.068-0.17,0.153-0.332,0.269-0.581c0.185,0.186,0.351,0.3,0.447,0.458c0.524,0.853,1.041,1.711,1.542,2.576
			c0.25,0.429,0.192,0.619-0.25,0.869c-1.077,0.614-1.942,1.442-2.456,2.574c-0.656,1.449-0.957,2.969-0.55,4.552
			c0.169,0.653,0.391,1.297,0.638,1.925c0.409,1.042,1.174,1.825,2.021,2.513c0.593,0.484,1.298,0.799,2.062,0.938
			c0.5,0.091,1.002,0.201,1.507,0.231c0.417,0.025,0.84-0.051,1.261-0.082c0.967-0.073,1.841-0.431,2.689-0.869
			C83.222,70.932,83.4,70.826,83.56,70.703z M63.301,67.23c0.112-0.048,0.235-0.15,0.333-0.132c0.246,0.048,0.421,0.194,0.394,0.598
			c-0.23-0.075-0.412-0.108-0.564-0.194C63.383,67.458,63.353,67.324,63.301,67.23z M62.438,66.088
			c-0.05,0.127-0.112,0.234-0.135,0.349c-0.2,1.032-0.72,1.892-1.437,2.644c-0.732,0.768-1.616,1.312-2.624,1.585
			c-0.797,0.216-1.623,0.23-2.467,0.087c-2.825-0.482-4.603-2.831-4.826-5.541c-0.07-0.844,0.22-1.598,0.45-2.38
			c0.183-0.618,0.564-1.014,1.138-1.282c0.796-0.372,1.125-0.287,1.643,0.414c0.482,0.654,0.999,1.283,1.501,1.923
			c0.221,0.281,0.523,0.439,0.871,0.479c0.4,0.046,0.808,0.056,1.211,0.068c0.847,0.03,1.693,0.037,2.539,0.085
			c0.187,0.011,0.391,0.122,0.544,0.243C61.376,65.182,61.889,65.626,62.438,66.088z M64.101,64.055
			c-0.239,0.021-0.274-0.009-0.502-0.037c-0.16-1.514-0.864-3.143-1.517-3.994c0.247-0.226,0.468-0.428,0.762-0.697
			c0.149,0.322,0.295,0.58,0.393,0.856c0.399,1.13,0.782,2.267,1.176,3.398C64.558,63.998,64.52,64.02,64.101,64.055z
			 M64.554,64.949c-0.076,0.155-0.097,0.268-0.165,0.323c-0.309,0.259-0.544,0.539-0.521,0.982c0.004,0.064-0.182,0.199-0.278,0.197
			c-0.149,0-0.297-0.092-0.482-0.158c0.472-0.361,0.472-0.361,0.475-0.956c0-0.192,0.007-0.251,0.007-0.485
			C63.863,64.877,64.297,64.92,64.554,64.949z M67.287,66.842c-0.196-0.126-0.387-0.261-0.589-0.375
			c-0.19-0.106-0.382-0.233-0.589-0.278c-0.32-0.072-0.51,0.155-0.36,0.443c0.128,0.245,0.341,0.448,0.533,0.656
			c0.117,0.127,0.265,0.229,0.41,0.352c-0.489,0.363-1.09,0.309-1.461-0.085c-0.489-0.521-0.544-1.323-0.081-1.804
			c0.603-0.627,1.129-0.671,1.762-0.242C67.388,65.831,67.551,66.397,67.287,66.842z M68.226,64.955
			c-0.174,0.284-0.344,0.271-0.57,0.047C67.853,64.785,68.019,64.738,68.226,64.955z M79.338,71.029
			c-0.748,0.145-1.543-0.171-2.314-0.528c-1.7-0.79-2.849-2.109-3.287-3.92c-0.581-2.402,0.158-4.447,1.98-6.106
			c0.174-0.157,0.375-0.293,0.576-0.415c0.364-0.223,0.472-0.19,0.669,0.2c0.213,0.425,0.414,0.855,0.618,1.284
			c0.525,1.103,1.046,2.207,1.577,3.304c0.167,0.344,0.468,0.465,0.745,0.339c0.227-0.104,0.255-0.327,0.067-0.712
			c-0.674-1.37-1.353-2.737-2.03-4.105c-0.083-0.166-0.193-0.321-0.263-0.493c-0.124-0.313-0.027-0.503,0.291-0.571
			c1.025-0.221,2.074-0.26,3.072,0.043c2.909,0.883,4.727,3.624,4.236,6.738C84.871,68.652,82.639,71.046,79.338,71.029z"/>
		<circle style="&st13;" cx="79.365" cy="65.198" r="7.3"/>
		<circle style="&st13;" cx="56.701" cy="64.98" r="7.002"/>
		<ellipse style="&st13;" cx="66.126" cy="66.625" rx="2.001" ry="2.019"/>
		<ellipse style="&st3;" cx="66.126" cy="66.625" rx="1.592" ry="1.605"/>
		<path style="&st23;" d="M55.396,57.676c0.278-0.052,0.558-0.104,0.837-0.158c1.012-0.199,2.071-0.448,2.979,0.185
			c0.361,0.251,0.753,0.435,1.101,0.706c0.339,0.265,0.649,0.563,0.969,0.85c0.26,0.235,0.494,0.497,0.746,0.738
			c0.305,0.291,0.626,0.6,0.865,0.947c0.106,0.154,0.184,0.334,0.28,0.494s0.182,0.337,0.218,0.521
			c0.034,0.172,0.015,0.336,0.07,0.504c0.147,0.443,0.19,0.934,0.187,1.397c-0.001,0.151-0.073,0.267-0.073,0.423
			c0,0.162,0.009,0.318,0.024,0.475c0.018,0.187,0.117,0.342,0.097,0.525c-0.023,0.212,0.035,0.416-0.042,0.626
			c-0.138,0.376-0.62,0.458-0.958,0.338c-0.223-0.079-0.422-0.226-0.615-0.356c-0.301-0.204-0.597-0.416-0.892-0.629
			c-0.284-0.203-0.573-0.437-0.905-0.558c-0.396-0.145-0.77-0.048-1.166,0c-0.197,0.023-0.388,0.082-0.591,0.1
			c-0.261,0.024-0.521,0.04-0.783,0.046c-0.294,0.008-0.588,0.001-0.881-0.023c-0.385-0.032-0.762-0.074-1.14-0.149
			c-0.289-0.058-0.615-0.104-0.881-0.237c-0.391-0.196-0.541-0.768-0.674-1.146c-0.079-0.225-0.143-0.464-0.246-0.678
			c-0.106-0.221-0.275-0.404-0.462-0.56c-0.168-0.139-0.356-0.245-0.523-0.385c-0.158-0.132-0.234-0.1-0.4-0.024
			c-0.186,0.085-0.42,0.119-0.62,0.163c-0.226,0.05-0.459,0.078-0.685,0.014c-0.211-0.06-0.477-0.208-0.62-0.377
			c-0.141-0.168-0.144-0.412-0.229-0.609c-0.059-0.138-0.142-0.287-0.134-0.44c0.013-0.251,0.336-0.457,0.509-0.604
			c0.776-0.665,1.581-1.248,2.55-1.597C53.99,57.95,54.69,57.809,55.396,57.676z"/>
		<path style="&st28;" d="M68.893,62.516c-0.36,0.246-0.753,0.377-1.159,0.522c-0.356,0.13-0.786,0.236-1.167,0.239
			c-0.344,0.002-0.628-0.311-0.811-0.568c-0.279-0.398-0.5-0.838-0.722-1.27c-0.266-0.519-0.513-1.038-0.721-1.584
			c-0.105-0.274-0.179-0.559-0.242-0.845c-0.027-0.12-0.048-0.242-0.079-0.36c-0.033-0.124-0.103-0.234-0.137-0.358
			c-0.055-0.2-0.157-0.363-0.238-0.554c-0.092-0.213-0.177-0.426-0.24-0.643c-0.19-0.032-0.423,0.067-0.604,0.11
			c-0.207,0.048-0.465,0.105-0.653,0.205c-0.144,0.076-0.096,0.356-0.083,0.485c0.017,0.168,0.087,0.336,0.054,0.506
			c-0.034,0.17-0.063,0.342-0.12,0.511c-0.034,0.1-0.036,0.197-0.11,0.272c-0.068,0.067-5.614,4.73-5.775,5.039
			c-0.097,0.188-0.097,0.188,0.288,0.335c0.076-0.002,0.146,0.015,0.221-0.003c0.14-0.035,0.288-0.141,0.408-0.219
			c0.411-0.27,4.59-3.863,4.89-4.135c0.132-0.12,0.222-0.271,0.409-0.147c0.177,0.117,0.353,0.247,0.473,0.407
			c0.13,0.174,1.453,3.336,1.504,3.542c0,0-6.866-0.218-7.521,0.631c-0.27,0.351,6.783,0.146,7.354,0.268
			c0.201,0.043,0.007,0.073,0.19,0.169c0.183,0.095,0.757,0.155,0.959,0.193c0.534,0.099,2.906,0.694,3.196,0.69
			c0.369-0.005,0.723-0.175,1.036-0.354c0.195-0.113,0.387-0.233,0.569-0.366c0.021-0.015,0.041-0.03,0.061-0.045
			c0.338-0.253,0.713-0.571,0.92-0.947c0.085-0.155,0.124-0.357,0.181-0.525c0.059-0.176,0.096-0.359,0.148-0.538
			c0.138-0.478,0.268-0.954,0.509-1.394c0.313-0.572,0.745-1.079,1.163-1.576c0.391-0.467,0.782-0.959,1.247-1.354
			c0.257-0.219,0.591-0.43,0.924-0.242c0.312,0.176,0.517,0.54,0.694,0.836c0.217,0.358,0.412,0.729,0.604,1.1
			c0.489,0.946,0.946,1.908,1.406,2.868c0.309,0.643,0.603,1.321,1.191,1.757c0.288,0.214,0.988,0.622,1.264,0.179
			c0.19-0.306,0.076-0.788-0.008-1.111c-0.16-0.607-0.452-1.184-0.723-1.748c-0.147-0.308-0.296-0.612-0.449-0.918
			c-0.134-0.27-0.271-0.538-0.408-0.805c-0.1-0.195-0.222-0.277-0.368-0.428c-0.179-0.181-0.328-0.385-0.513-0.563
			c-0.171-0.162-0.343-0.328-0.45-0.541c-0.104-0.204-0.168-0.424-0.259-0.634c-0.075-0.171-0.178-0.324-0.275-0.484
			c-0.268-0.439-0.467-0.919-0.713-1.37c-0.095-0.172-0.199-0.339-0.31-0.501c-0.105-0.155-0.173-0.318-0.265-0.482
			c-0.215-0.384-0.433-0.764-0.655-1.145c-0.098-0.169-0.223-0.339-0.302-0.518c-0.049-0.113-0.039-0.245-0.076-0.364
			c-0.075-0.246-0.218-0.519-0.507-0.535c-0.363-0.022-0.691,0.194-0.968,0.404c-0.275,0.208-0.533,0.486-0.76,0.751
			c-0.201,0.236-0.388,0.548-0.358,0.867c0.037,0.395,0.083,0.751-0.033,1.136c-0.105,0.353-0.252,0.676-0.413,1.006
			c-0.185,0.383-0.362,0.769-0.548,1.152c-0.079,0.163-0.053,0.374-0.091,0.555c-0.043,0.201-0.108,0.397-0.187,0.587
			c-0.174,0.423-0.308,0.855-0.526,1.26c-0.147,0.273-0.31,0.527-0.493,0.776c-0.12,0.162-0.266,0.298-0.417,0.43
			C69.157,62.259,69.058,62.402,68.893,62.516z"/>
		<path style="&st13;" d="M58.604,52.536c-0.013,0.104-0.002,0.212,0.046,0.325c0.088,0.211,0.216,0.389,0.37,0.557
			c0.138,0.15,0.278,0.346,0.466,0.435c0.208,0.098,0.477,0.076,0.701,0.077c0.26,0.001,0.513-0.022,0.77-0.068
			c0.287-0.051,0.57-0.116,0.851-0.192c0.156-0.043,0.285-0.108,0.426-0.183c0.163-0.085,0.305-0.086,0.484-0.068
			c0.541,0.053,1.044-0.021,1.527-0.272c0.398-0.205,0.672-0.49,0.754-0.942c0.033-0.183,0.072-0.384-0.058-0.532
			c-0.097-0.111-0.238-0.182-0.358-0.265c-0.259-0.18-0.524-0.329-0.832-0.404c-0.547-0.134-1.078-0.174-1.64-0.17
			c-0.493,0.004-0.982,0.035-1.47,0.089c-0.367,0.041-0.728,0.104-1.04,0.313c-0.335,0.225-0.644,0.572-0.848,0.919
			C58.678,52.28,58.621,52.405,58.604,52.536z"/>
		<path style="&st23;" d="M77.631,58.412c0.042-0.006,0.084-0.011,0.127-0.016c0.917-0.098,1.813-0.044,2.731-0.014
			c0.517,0.017,1.034,0.045,1.527,0.214c0.088,0.03,0.392,0.112,0.406,0.235c0.03,0.236-0.669,0.206-0.785,0.2
			c-0.352-0.019-0.699-0.093-1.044-0.157c-0.978-0.186-2.021-0.172-2.97,0.146c-0.262,0.086-0.55,0.105-0.807,0.205
			c-0.246,0.096-0.485,0.222-0.732,0.318c-0.196,0.076-0.327,0.208-0.485,0.345c-0.12,0.104-0.257,0.169-0.386,0.261
			c-0.11,0.078-0.195,0.182-0.299,0.267c-0.263,0.211-0.426,0.48-0.658,0.715c-0.343,0.347-0.528,0.878-0.686,1.332
			c-0.086,0.251-0.141,0.527-0.199,0.786c-0.063,0.286-0.115,0.574-0.167,0.861c-0.043,0.238-0.072,0.48-0.103,0.721
			c-0.026,0.199,0.005,0.421,0.006,0.625c0,0.119,0.025,0.267,0.003,0.383c-0.026,0.136-0.089,0.235-0.222,0.25
			c-0.347,0.039-0.444-0.374-0.483-0.652c-0.027-0.194-0.07-0.391-0.084-0.585c-0.017-0.235,0.031-0.479,0.09-0.705
			c0.089-0.337,0.16-0.706,0.303-1.025c0.128-0.289,0.14-0.611,0.218-0.919c0.143-0.555,0.401-1.033,0.75-1.48
			c0.294-0.379,0.638-0.701,1.012-0.999c0.381-0.305,0.778-0.637,1.215-0.855c0.304-0.152,0.639-0.21,0.965-0.293
			C77.127,58.512,77.375,58.449,77.631,58.412z"/>
		<path style="&st13;" d="M71.054,48.512c0.212-0.328,0.599-0.493,0.96-0.584c0.138-0.034,0.259-0.112,0.389-0.136
			c0.231-0.04,0.471-0.053,0.704-0.069c0.267-0.021,0.577-0.116,0.792,0.097c0.072,0.072,0.104,0.164,0.203,0.204
			c0.136,0.052,0.292,0.009,0.425,0.079c0.112,0.06,0.101,0.128,0.12,0.241c0.026,0.154,0.065,0.264-0.043,0.401
			c-0.094,0.119-0.156,0.215-0.306,0.272c-0.137,0.052-0.255,0.083-0.382,0.156c-0.313,0.181-0.698,0.195-1.025,0.343
			c-0.361,0.163-0.704,0.19-1.09,0.134c-0.323-0.049-0.601-0.177-0.745-0.484C70.958,48.956,70.922,48.716,71.054,48.512z"/>
		<path style="&st13;" d="M75.883,56.41c0.14,0.24,0.434,0.162,0.667,0.187c0.189,0.02,0.357-0.061,0.529-0.138
			c0.887-0.392,1.824-0.891,2.064-1.909c0.127-0.541,0.059-1.164-0.039-1.706c-0.072-0.396-0.214-0.775-0.342-1.157
			c-0.064-0.191-0.125-0.384-0.172-0.581c-0.018-0.079-0.025-0.162-0.068-0.229c-0.048-0.074-0.143-0.144-0.21-0.2
			c-0.225-0.193-0.466-0.403-0.765-0.464c-0.365-0.073-0.808,0.039-1.133,0.209c-0.507,0.264-0.897,0.682-1.292,1.084
			c-0.255,0.26-1.068,0.382-1.085,0.748c-0.007,0.146,0.115,0.658,0.24,0.977C74.59,54.026,75.806,56.276,75.883,56.41z"/>
		<path style="&st3;" d="M65.818,66.33c-0.161,0.16-0.162,0.422-0.001,0.584l1.317,1.32c0.161,0.162,0.422,0.162,0.583,0l0,0
			c0.161-0.16,0.162-0.421,0.001-0.583l-1.317-1.32C66.241,66.169,65.98,66.169,65.818,66.33L65.818,66.33z"/>
		<path style="&st13;" d="M68.119,69.187c0.245-0.073,0.462-0.214,0.715-0.354c0.131-0.072,0.281-0.154,0.396-0.251
			c0.17-0.142,0.19-0.372,0.221-0.576c0.033-0.216-0.065-0.385-0.274-0.469c-0.333-0.134-0.636-0.009-0.901,0.207
			c-0.328,0.267-0.798,0.5-1.015,0.867c-0.204,0.343,0.003,0.563,0.353,0.612C67.802,69.251,67.966,69.231,68.119,69.187z"/>
	</g>
</g>
</svg>
