<?xml version="1.0" encoding="utf-8"?>
<!-- Generator: Adobe Illustrator 16.0.0, SVG Export Plug-In . SVG Version: 6.00 Build 0)  -->
<!DOCTYPE svg PUBLIC "-//W3C//DTD SVG 1.1//EN" "http://www.w3.org/Graphics/SVG/1.1/DTD/svg11.dtd" [
	<!ENTITY st0 "fill:#AEDD47;">
	<!ENTITY st1 "fill:#4A77A9;">
	<!ENTITY st2 "fill:#E5D6C7;">
	<!ENTITY st3 "clip-path:url(#SVGID_2_);fill:#DFDFDF;">
	<!ENTITY st4 "fill:#EAC95D;">
	<!ENTITY st5 "fill:#EDEDED;">
	<!ENTITY st6 "fill:#545454;">
	<!ENTITY st7 "fill:none;stroke:#FFFFFF;stroke-miterlimit:10;">
	<!ENTITY st8 "opacity:0.25;fill:#FFFFFF;">
	<!ENTITY st9 "fill:#F2F2F2;">
	<!ENTITY st10 "fill:#F6B43F;">
	<!ENTITY st11 "fill:#5DBBD0;">
	<!ENTITY st12 "fill:#92B7EF;">
	<!ENTITY st13 "clip-path:url(#SVGID_2_);fill:#595757;">
	<!ENTITY st14 "fill:#C49669;">
	<!ENTITY st15 "fill:#C779D3;">
	<!ENTITY st16 "fill:#FBD764;">
	<!ENTITY st17 "fill:#FC6738;">
	<!ENTITY st18 "fill:#FCEFB9;">
	<!ENTITY st19 "opacity:0.3;">
	<!ENTITY st20 "fill:#FEE677;">
	<!ENTITY st21 "fill:#FF9B74;">
	<!ENTITY st22 "fill:#FFFFFF;">
	<!ENTITY st23 "clip-path:url(#SVGID_2_);fill:#F7D237;">
	<!ENTITY st24 "fill:none;stroke:#FFFFFF;stroke-width:0.4667;stroke-miterlimit:10;">
	<!ENTITY st25 "fill:#686868;">
	<!ENTITY st26 "fill:#68C1C1;">
	<!ENTITY st27 "opacity:0.14;fill:#666666;">
	<!ENTITY st28 "clip-path:url(#SVGID_2_);fill:#FC6738;">
	<!ENTITY st29 "fill:#404040;">
	<!ENTITY st30 "fill:#43D17D;">
	<!ENTITY st31 "opacity:0.13;fill:#FFFFFF;">
]>
<svg version="1.1" id="圖層_1" xmlns="http://www.w3.org/2000/svg" xmlns:xlink="http://www.w3.org/1999/xlink" x="0px" y="0px"
	 width="100px" height="100px" viewBox="0 0 100 100" style="enable-background:new 0 0 100 100;" xml:space="preserve">
<g>
	<circle style="&st14;" cx="50" cy="50" r="49.999"/>
	<circle style="&st7;" cx="50" cy="50" r="44.999"/>
	<path style="&st0;" d="M22.565,54.229c-0.106-0.069-0.153-0.108-0.201-0.205c-0.04-0.077-0.083-0.104-0.164-0.16
		c-0.184-0.124-0.135-0.199-0.15-0.366c-0.009-0.081-0.073-0.133-0.062-0.214c0.01-0.061,0.067-0.15-0.035-0.2
		c0.024-0.086,0.104-0.213,0.092-0.297c-0.019-0.114-0.117-0.152-0.024-0.271c0.123-0.169,0.508-0.025,0.473-0.271
		c-0.025-0.218-0.083-0.376-0.295-0.532c-0.128-0.09-0.222-0.026-0.368-0.056c-0.121-0.025-0.238-0.147-0.332-0.215
		c0.1-0.177,0.114-0.284-0.019-0.444c-0.111-0.135-0.13-0.27-0.212-0.407c-0.077-0.131-0.282-0.235-0.233-0.397
		c0.023-0.075,0.104-0.134,0.146-0.201c0.055-0.087,0.066-0.167,0.063-0.264c-0.006-0.198,0.03-0.284,0.233-0.406
		c0.147-0.086,0.312-0.212,0.511-0.166c0.202,0.045,0.357,0.186,0.558,0.231c0.19,0.046,0.388,0.038,0.578,0.077
		c0.225,0.046,0.403,0.159,0.586,0.264c0.175,0.097,0.316,0.127,0.524,0.128c0.111-0.098,0.311-0.158,0.456-0.218
		c0.194-0.073,0.313-0.237,0.538-0.189c0.191,0.039,0.352,0.137,0.55,0.098c0.203-0.041,0.405-0.157,0.491-0.32
		c0.09-0.174,0.082-0.296,0.325-0.373c0.108-0.034,0.527-0.12,0.54-0.197c0.012-0.068-0.118-0.109-0.1-0.192
		c0.015-0.072,0.142-0.187,0.2-0.237c0.086-0.066,0.35-0.223,0.461-0.166c0.083,0.043,0.109,0.173,0.188,0.232
		c0.089,0.068,0.193,0.081,0.31,0.107c0.219,0.048,0.438,0.227,0.599,0.355c-0.108,0.108-0.014,0.202,0.086,0.284
		c0.076,0.06,0.059,0.061,0.09,0.137c0.027,0.063,0.065,0.093,0.129,0.13c0.108,0.059,0.225,0.107,0.33,0.16
		c0.153,0.08,0.104,0.151,0.12,0.275c0.019,0.123,0.119,0.18,0.229,0.254c0.048,0.031,0.106,0.086,0.164,0.105
		c0.054,0.02,0.106,0.002,0.159,0.009c0.063,0.006,0.12,0.028,0.174,0.052c0.095,0.037,0.096,0.016,0.187,0.013
		c0.138-0.005,0.224,0.058,0.36,0.081c0.173,0.025,0.256,0.27,0.324,0.402c0.085,0.16,0.149,0.329,0.197,0.504
		c0.051,0.19,0.049,0.375,0.044,0.574c-0.003,0.17,0.082,0.271,0.192,0.41c0.104,0.129,0.209,0.319,0.421,0.329
		c0.174,0.013,0.442-0.051,0.588-0.131c0.216-0.12,0.321-0.365,0.5-0.521c0.187-0.163,0.412-0.175,0.674-0.218
		c0.163-0.029,0.712-0.234,0.535-0.429c0.063-0.112,0.168-0.11,0.269-0.046c0.054,0.034,0.097,0.07,0.158,0.093
		c0.184,0.067,0.389,0.137,0.577,0.196c0.157,0.048,0.32,0.079,0.455,0.16c0.132,0.089,0.278,0.16,0.409,0.25
		c0.148,0.104,0.121,0.192,0.178,0.336c0.038,0.099,0.098,0.186,0.135,0.29c0.09,0.265,0.386,0.04,0.598-0.011
		c0.076-0.018,0.156-0.031,0.218-0.073c0.069-0.045,0.098-0.136,0.199-0.139c0.24-0.009,0.349,0.254,0.583,0.28
		c0.12,0.015,0.225-0.022,0.354,0.005c0.1,0.022,0.232,0.043,0.321,0.094c0.112,0.063,0.224,0.16,0.347,0.208
		c0.143,0.058,0.22-0.073,0.37-0.064c0.107,0.009,0.188,0.079,0.291,0.086c0.141,0.013,0.355,0.013,0.489-0.021
		c0.097-0.025,0.168-0.101,0.263-0.13c0.102-0.031,0.22-0.02,0.322-0.003c0.089,0.011,0.114,0.016,0.191-0.01
		c0.053-0.021,0.093-0.062,0.16-0.077c0.121-0.031,0.294,0.016,0.406-0.031c0.093-0.041,0.027-0.052,0.006-0.12
		c-0.02-0.063,0.004-0.098,0.023-0.158c0.178-0.013,0.192,0.097,0.231,0.199c0.044,0.117,0.098,0.189,0.214,0.269
		c0.113,0.071,0.199,0.162,0.313,0.238c0.121,0.082,0.207,0.183,0.331,0.247c0.092-0.07,0.154-0.164,0.257-0.211
		c0.092-0.049,0.186-0.108,0.285-0.141c0.255,0.125,0.203,0.472,0.243,0.687c0.036,0.193,0.225,0.6-0.203,0.473
		c-0.134,0.09,0.068,0.236,0.119,0.308c0.06,0.087,0.12,0.2,0.207,0.266c0.151,0.112,0.305,0.287,0.352,0.457
		c0.03,0.104-0.044,0.179,0.009,0.286c0.065,0.131,0.188,0.233,0.265,0.365c0.099,0.165,0.123,0.347,0.226,0.51
		c0.054,0.081,0.091,0.158,0.118,0.243c0.022,0.066,0.023,0.158,0.088,0.206c0.105,0.081,0.353,0.068,0.491,0.114
		c0.176,0.055,0.352,0.097,0.541,0.112c0.227,0.022,0.328-0.07,0.47-0.203c0.264-0.238,0.594-0.368,0.929-0.521
		c0.194-0.083,0.334-0.219,0.506-0.329c0.133-0.085,0.271-0.141,0.434-0.147c0.189-0.002,0.359-0.026,0.521-0.095
		c0.188-0.084,0.26-0.272,0.441-0.366c0.13-0.062,0.341-0.119,0.487-0.11c0.174,0.01,0.349,0.074,0.52,0.049
		c0.1-0.014,0.189-0.069,0.289-0.086c0.111-0.017,0.223-0.014,0.332-0.034c0.156-0.026,0.309-0.025,0.458-0.066
		c0.079-0.021,0.154-0.06,0.232-0.067c0.101-0.012,0.215,0.045,0.314,0.012c0.183-0.057,0.264-0.28,0.396-0.385
		c0.143-0.107,0.391-0.055,0.412,0.105c0.022,0.185,0.005,0.309,0.262,0.377c0.102,0.03,0.188,0.02,0.283,0.066
		c0.085,0.037,0.176,0.069,0.261,0.105c0.093,0.043,0.157,0.107,0.263,0.12c0.171,0.017,0.391-0.072,0.549-0.019
		c0.097,0.035,0.152,0.123,0.252,0.159c0.112,0.038,0.19,0.012,0.242,0.125c0.079,0.181,0.093,0.296,0.349,0.357
		c0.196,0.045,0.187,0.246,0.118,0.379c-0.061,0.106-0.022,0.292,0.016,0.412c0.027,0.095,0.12,0.118,0.187,0.195
		c0.057,0.067,0.018,0.158,0.099,0.212c0.085,0.058,0.198,0.005,0.222,0.104c0.024,0.109-0.068,0.148,0.074,0.242
		c0.063,0.037,0.115,0.037,0.19,0.055c0.081,0.018,0.063,0.017,0.115,0.065c0.043,0.04,0.021,0.053,0.086,0.077
		c0.05,0.021,0.095,0,0.141,0.045c-0.009,0.011-0.015,0.022-0.024,0.031c0.012,0.01,0.022,0.02,0.031,0.032
		c-0.005,0.01-0.024,0.052-0.034,0.062c-0.097-0.014-0.183-0.054-0.258,0.021c-0.083,0.087,0.024,0.17,0.04,0.26
		c0.015,0.089-0.029,0.165,0.104,0.222c0.09,0.038,0.148-0.005,0.246,0.01c0.125,0.021,0.124,0.141,0.217,0.188
		c0.066,0.039,0.238,0.025,0.244,0.123c0.005,0.038-0.079,0.081-0.086,0.126c-0.013,0.053,0.016,0.133,0.014,0.195
		c-0.003,0.081-0.005,0.169-0.003,0.251c0.005,0.111,0.008,0.223,0.025,0.335c0.001,0.037-0.003,0.095,0.01,0.13
		c0.027,0.047,0.081,0.06,0.121,0.099c0.05,0.052,0.042,0.116,0.083,0.166c0.032,0.044,0.11,0.086,0.164,0.115
		c0.089-0.081,0.155-0.171,0.271-0.225c0.118-0.053,0.25-0.061,0.38-0.084c0.245-0.044,0.501-0.04,0.753-0.007
		c0.228,0.026,0.428,0.141,0.664,0.143c0.135-0.002,0.258,0,0.179,0.144c-0.077,0.146-0.181,0.264-0.044,0.409
		c0.104,0.107,0.305,0.169,0.366,0.306c0.083,0.183-0.083,0.391-0.105,0.57c-0.012,0.094-0.018,0.178,0.004,0.267
		c0.028,0.129,0.113,0.16,0.244,0.229c0.107,0.058,0.215,0.106,0.331,0.147c0.115,0.043,0.198,0.037,0.315,0.05
		c0.069,0.01,0.134,0.036,0.205,0.045c0.126,0.019,0.236,0.007,0.353,0.037c0.125,0.029,0.234,0.077,0.36,0.104
		c0.139,0.031,0.264,0.021,0.402,0.031c0.234,0.017,0.476,0.086,0.699-0.003c0.186-0.079,0.507-0.172,0.718-0.092
		c0.106-0.079,0.188-0.177,0.302-0.241c0.089-0.045,0.187-0.039,0.286-0.082c0.118-0.054,0.198-0.139,0.324-0.143
		c0.13-0.005,0.262,0.037,0.361,0.104c0.09-0.051,0.068-0.155,0.103-0.229c0.031-0.076,0.104-0.164,0.156-0.231
		c0.061-0.076,0.117-0.159,0.221-0.144c0.083,0.016,0.046,0.052,0.145,0.013c0.038-0.014,0.082-0.056,0.119-0.076
		c0.342-0.199,0.813-0.247,1.204-0.355c0.198-0.058,0.401-0.098,0.597-0.165c0.09-0.032,0.174-0.065,0.262-0.094
		c0.095-0.032,0.208-0.039,0.298-0.079c0.086-0.034,0.159-0.133,0.251-0.15c0.104-0.019,0.202,0.078,0.305,0.032
		c0.104-0.041,0.091-0.159,0.196-0.202c0.034-0.016,0.07-0.005,0.108-0.03c0.042-0.019,0.089-0.062,0.126-0.085
		c0.098-0.064,0.208-0.118,0.276-0.207c0.061-0.08,0.026-0.186,0.146-0.236c0.115-0.052,0.157-0.072,0.237-0.168
		c0.075-0.094,0.163-0.175,0.233-0.263c0.035-0.043,0.125-0.128,0.139-0.182c0.026-0.101-0.089-0.204-0.066-0.313
		c0.021-0.112,0.064-0.223,0.086-0.331c0.027-0.095,0.013-0.229,0.073-0.311c0.063-0.095,0.201-0.133,0.31-0.181
		c0.097-0.043,0.196-0.098,0.293-0.146c0.123-0.061,0.184-0.176,0.291-0.253c0.062,0.035,0.016,0.153,0.035,0.215
		c0.026,0.088,0.074,0.144,0.158,0.201c0.138,0.098,0.332,0.11,0.47,0.207c0.119,0.086,0.125,0.243,0.229,0.349
		c0.23,0.242-0.377,0.626-0.571,0.745c-0.181,0.114-0.306,0.255-0.457,0.396c-0.094,0.091-0.231,0.114-0.354,0.17
		c-0.149,0.066-0.241,0.081-0.298,0.217c-0.061,0.154-0.122,0.317-0.269,0.431c-0.053,0.049-0.119,0.074-0.159,0.133
		c0.065,0.049,0.063,0.192,0.073,0.264c0.016,0.114,0,0.274-0.075,0.379c-0.101,0.143-0.33,0.137-0.507,0.144
		c-0.222,0.011-0.426,0.04-0.601,0.156c-0.23,0.156-0.385,0.362-0.511,0.581c-0.056,0.096-0.151,0.21-0.157,0.312
		c-0.009,0.096,0.008,0.17-0.155,0.149c-0.123-0.013-0.14-0.015-0.264,0.042c-0.179,0.08-0.529,0.042-0.587,0.236
		c-0.025,0.08-0.051,0.204-0.01,0.282c0.034,0.066,0.12,0.113,0.174,0.173c0.027,0.029,0.039,0.083,0.071,0.112
		c0.02,0.024,0.051,0.019,0.072,0.041c0.049,0.042,0.079,0.091,0.107,0.145c0.065,0.131,0.081,0.264,0.15,0.393
		c0.021,0.04,0.034,0.077,0.022,0.121c-0.015,0.042-0.069,0.068-0.083,0.112c-0.037,0.095,0.031,0.205,0,0.302
		c-0.011,0.05-0.031,0.102-0.049,0.159c-0.063,0.191-0.093,0.422-0.281,0.569c-0.115,0.092-0.331,0.045-0.434,0.153
		c-0.052,0.052-0.099,0.125-0.141,0.185c-0.051,0.066-0.12,0.135-0.173,0.193c-0.069,0.086-0.158,0.063-0.267,0.058
		c-0.077-0.006-0.155-0.05-0.233-0.037c-0.166,0.028-0.172,0.271-0.24,0.373c-0.075,0.109-0.202,0.11-0.328,0.157
		c-0.164,0.066-0.254,0.162-0.275,0.311c-0.029,0.154-0.115,0.233-0.245,0.345c-0.146,0.139-0.287,0.286-0.422,0.431
		c-0.092,0.094-0.122,0.182-0.046,0.293c0.076,0.121,0.176,0.23,0.264,0.345c0.032,0.038,0.048,0.078,0.077,0.11
		c0.033,0.043,0.1,0.073,0.108,0.129c0.01,0.059-0.068,0.12-0.096,0.167c-0.071,0.118-0.18,0.221-0.28,0.322
		c-0.06,0.061-0.28,0.222-0.221,0.306c0.028,0.038,0.13,0.08,0.176,0.109c0.199,0.136,0.167,0.401,0.318,0.563
		c0.08,0.083,0.181,0.144,0.279,0.213c0.104,0.07,0.145,0.162,0.214,0.254c0.063,0.085,0.17,0.146,0.261,0.207
		c0.094,0.063,0.205,0.122,0.312,0.163c0.168,0.065,0.203-0.021,0.292-0.116c0.088-0.098,0.199-0.075,0.326-0.066
		c0.122,0.007,0.24-0.019,0.363-0.021c0.127,0,0.242,0.021,0.365,0.04c0.223,0.027,0.426,0.164,0.557,0.31
		c0.099,0.104,0.113,0.239,0.203,0.352c0.07,0.083,0.094,0.115,0.073,0.223c-0.021,0.097-0.004,0.158,0.097,0.227
		c0.053,0.035,0.096,0.045,0.159,0.065c0.054,0.012,0.085,0.034,0.135,0.059c0.079-0.038,0.148-0.057,0.23-0.018
		c0.083,0.043,0.108,0.108,0.177,0.154c0.074,0.053,0.16-0.021,0.235-0.046c0.093-0.033,0.187-0.062,0.275-0.101
		c0.107-0.052,0.12,0.004,0.21,0.054c0.073,0.044,0.157,0.037,0.231,0.084c0.072,0.046,0.166,0.09,0.17,0.177
		c0.002,0.069-0.047,0.147-0.067,0.217c-0.034,0.11,0.05,0.212,0.169,0.259c0.078,0.032,0.149,0.049,0.22,0.096
		c0.069,0.047,0.135,0.097,0.212,0.134c0.039,0.017,0.083,0.013,0.124,0.029c0.039,0.015,0.076,0.048,0.109,0.074
		c0.072,0.048,0.14,0.091,0.215,0.132c0.051,0.021,0.083,0.024,0.128,0.036c0.043,0.014,0.073,0.042,0.106,0.064
		c0.074,0.048,0.105,0.104,0.124,0.18c0.02,0.058,0.002,0.164,0.042,0.213c0.068,0.075,0.189,0.068,0.284,0.097
		c0.045,0.017,0.078,0.047,0.125,0.054c0.064,0.011,0.168-0.022,0.236-0.03c0.202-0.033,0.253-0.173,0.405-0.271
		c0.147-0.095,0.368-0.082,0.542-0.128c0.179-0.047,0.309-0.176,0.374-0.32c0.061-0.129,0.139-0.406,0.375-0.331
		c0.04-0.036,0.08-0.081,0.094-0.126c0.021-0.055,0.017-0.102,0.097-0.114c0.054-0.007,0.104,0.026,0.159,0.026
		c0.061,0.002,0.108-0.022,0.156-0.053c0.041-0.028,0.095-0.042,0.142-0.068c0.057-0.03,0.08-0.094,0.151-0.115
		c0.059-0.021,0.124,0.002,0.188-0.001c0.071-0.003,0.132-0.042,0.213-0.049c0.058-0.009,0.13-0.002,0.194-0.011
		c0.164-0.022,0.32-0.149,0.441-0.238c0.083-0.059,0.151-0.125,0.273-0.116c0.125,0.009,0.193,0.077,0.256,0.161
		c0.07,0.086,0.181,0.136,0.255,0.218c0.072,0.08,0.008,0.197-0.03,0.282c-0.055,0.109-0.104,0.082-0.225,0.106
		c-0.146,0.03-0.14,0.163-0.127,0.267c0.017,0.21-0.262,0.347-0.248,0.559c0.007,0.074,0.072,0.088,0.018,0.16
		c-0.035,0.042-0.094,0.075-0.117,0.131c-0.021,0.054-0.021,0.124-0.034,0.186c-0.02,0.1-0.043,0.203,0.009,0.298
		c0.039,0.077,0.057,0.132,0.016,0.215c-0.075,0.15-0.28,0.235-0.353,0.383c-0.043,0.094-0.085,0.191-0.111,0.285
		c-0.025,0.09-0.073,0.229-0.046,0.319c0.036,0.094,0.052,0.19-0.049,0.27c-0.041,0.03-0.515,0.318-0.478,0.361
		c0.2,0.231-0.204,0.274-0.366,0.352c-0.086,0.039-0.118,0.121-0.229,0.107c-0.115-0.01-0.19-0.086-0.303-0.098
		c-0.091-0.008-0.191-0.041-0.288-0.035c-0.103,0.007-0.151,0.111-0.213,0.167c-0.061,0.054-0.142,0.05-0.212,0.095
		c-0.036,0.021-0.084,0.058-0.096,0.094c-0.011,0.035,0.017,0.076,0.012,0.111c-0.01,0.195-0.213,0.317-0.318,0.476
		c-0.043,0.073-0.087,0.163-0.198,0.172c-0.048,0.005-0.087-0.022-0.136-0.021c-0.037-0.001-0.102,0.027-0.133,0.043
		c-0.191,0.087-0.346,0.238-0.512,0.353c-0.082,0.057-0.148,0.104-0.25,0.134c-0.104,0.037-0.228,0.026-0.333,0.063
		c-0.19,0.072-0.267,0.224-0.421,0.332c-0.053,0.037-0.064,0.017-0.119,0.03c-0.042,0.008-0.087,0.043-0.117,0.064
		c-0.061,0.046-0.15,0.127-0.171,0.196c0.111,0.083,0.191,0.145,0.246,0.267c0.044,0.094,0.08,0.204,0.044,0.302
		c-0.042,0.112-0.142,0.175-0.248,0.242c-0.058,0.043-0.297,0.152-0.231,0.229c-0.035,0.048-0.091,0.102-0.142,0.143
		c-0.059,0.048-0.118,0.104-0.175,0.162c-0.092,0.093-0.173,0.239-0.297,0.3c-0.077,0.028-0.124,0.054-0.189,0.099
		c-0.056,0.045-0.116,0.086-0.175,0.131c-0.144,0.11-0.226,0.302-0.457,0.295c-0.067-0.002-0.126-0.013-0.19-0.01
		c-0.06,0.008-0.096-0.007-0.151-0.019c-0.059-0.012-0.12-0.007-0.178-0.016c-0.044-0.006-0.086-0.013-0.128-0.017
		c-0.092-0.007-0.19-0.013-0.271-0.051c-0.074-0.039-0.12-0.098-0.202-0.12c-0.083-0.025-0.167-0.039-0.251-0.062
		c-0.083-0.021-0.159-0.057-0.239-0.087c-0.103-0.041-0.125-0.083-0.24-0.06c-0.093,0.023-0.187,0.039-0.28,0.057
		c-0.086,0.014-0.136-0.057-0.209-0.079c-0.094-0.029-0.195-0.053-0.293-0.08c-0.065-0.02-0.114-0.06-0.179-0.076
		c-0.067-0.015-0.075,0.015-0.142,0.032c-0.074,0.024-0.155,0.04-0.234,0.042c-0.083,0.001-0.147-0.033-0.226-0.046
		c-0.121-0.017-0.252-0.086-0.354-0.157c-0.126-0.085-0.227-0.187-0.346-0.278c-0.172-0.127-0.305-0.259-0.452-0.4
		s-0.386-0.193-0.597-0.107c-0.051,0.019-0.154,0.079-0.144,0.14c0.003,0.033,0.057,0.069,0.069,0.108
		c0.035,0.094,0.011,0.195,0.043,0.286c0.024,0.061,0.076,0.121,0.073,0.185c-0.001,0.066-0.048,0.118-0.083,0.175
		c-0.076,0.121-0.163,0.222-0.269,0.327c-0.062,0.064-0.139,0.143-0.234,0.177c-0.075,0.028-0.235,0.028-0.304-0.015
		c-0.101-0.063-0.206-0.161-0.285-0.242c-0.067-0.072-0.09-0.151-0.203-0.187c-0.227-0.072-0.382,0.19-0.466,0.316
		c-0.118,0.169-0.241,0.323-0.436,0.437c-0.159,0.095-0.385,0.211-0.584,0.139c-0.2-0.068-0.27-0.271-0.424-0.386
		c-0.15-0.107-0.412-0.201-0.616-0.185c-0.247,0.021-0.242,0.21-0.116,0.342c0.07,0.07,0.149,0.133,0.201,0.216
		c0.063,0.103,0.093,0.214,0.111,0.327c0.008,0.034,0.041,0.163-0.016,0.186c-0.044,0.016-0.172-0.066-0.215-0.079
		c-0.182-0.067-0.415-0.059-0.558-0.186c-0.161-0.152-0.265-0.271-0.51-0.339c-0.216-0.06-0.385-0.146-0.564-0.266
		c-0.174-0.122-0.285-0.219-0.247-0.416c0.027-0.121,0.055-0.236,0.062-0.358c0.006-0.119,0.029-0.243-0.148-0.255
		c-0.2-0.012-0.391-0.05-0.587-0.091c-0.099-0.02-0.211-0.026-0.3-0.071c-0.078-0.042-0.141-0.108-0.218-0.153
		c-0.119-0.066-0.254-0.093-0.393-0.058c-0.08,0.023-0.16,0.037-0.238,0.058c-0.091,0.023-0.143,0.086-0.215,0.127
		c-0.09,0.055-0.197,0.072-0.296,0.112c-0.064,0.032-0.105,0.064-0.183,0.078c-0.194,0.038-0.396,0.053-0.587,0.041
		c-0.196-0.018-0.391-0.034-0.588-0.054c-0.157-0.012-0.319-0.04-0.479-0.03c-0.098,0.005-0.192-0.009-0.289-0.004
		c-0.268,0.015-0.552,0.034-0.818,0.084c-0.209,0.045-0.418,0.109-0.613,0.193c-0.414,0.177-0.741,0.461-0.992,0.783
		c-0.056,0.07-0.115,0.139-0.153,0.22c-0.082,0.19,0.036,0.414,0.085,0.603c0.059,0.22,0.056,0.436,0.186,0.639
		c0.054,0.091,0.065,0.181,0.074,0.281c0.011,0.108,0.026,0.197,0.016,0.309c-0.008,0.055,0.004,0.112,0.007,0.174
		c0.004,0.063-0.014,0.109,0.008,0.175c0.021,0.07,0.026,0.142,0.033,0.213c0.015,0.161,0.032,0.321,0.039,0.482
		c0.002,0.13-0.002,0.265-0.032,0.394c-0.021,0.096-0.068,0.18-0.109,0.268c-0.028,0.082-0.081,0.108-0.162,0.16
		c-0.063,0.037-0.126,0.069-0.198,0.094c-0.21,0.074-0.416,0.134-0.649,0.111c-0.096-0.014-0.184-0.027-0.273-0.049
		c-0.105-0.024-0.21-0.05-0.313-0.072c-0.098-0.023-0.137-0.062-0.216-0.104c-0.185-0.111-0.361-0.211-0.566-0.292
		c-0.109-0.047-0.217-0.104-0.314-0.165c-0.092-0.052-0.206-0.11-0.278-0.179c-0.052-0.053-0.083-0.113-0.144-0.162
		c-0.091-0.077-0.182-0.152-0.292-0.207c-0.056-0.027-0.139-0.043-0.203-0.063c-0.096-0.025-0.18-0.08-0.285-0.105
		c-0.113-0.029-0.233-0.045-0.351-0.063c-0.17-0.026-0.338-0.063-0.506-0.094c-0.293-0.057-0.579-0.149-0.873-0.211
		c-0.266-0.06-0.592-0.103-0.817-0.239c-0.098-0.06-0.194-0.139-0.265-0.221c-0.073-0.086-0.103-0.19-0.151-0.292
		c-0.11-0.232-0.238-0.47-0.271-0.723c0.098,0.06,0.18,0.122,0.253,0.203c0.063,0.073,0.128,0.162,0.234,0.204
		c0.2,0.078,0.418-0.115,0.545-0.218c0.068-0.051,0.164-0.129,0.117-0.208c-0.044-0.08-0.177-0.104-0.24-0.174
		c-0.084-0.088-0.043-0.194-0.001-0.288c0.047-0.117,0.093-0.229,0.108-0.354c0.015-0.065-0.039-0.096-0.052-0.157
		c-0.009-0.051-0.007-0.105-0.01-0.156c-0.013-0.084-0.065-0.15-0.15-0.191c-0.063,0.02-0.106,0.078-0.151,0.122
		c-0.114,0.115-0.202,0.244-0.303,0.368c-0.102,0.129-0.209,0.257-0.264,0.405c-0.069,0.186,0.072,0.406,0.303,0.465
		c0.245,0.06,0.423-0.177,0.545-0.313c0.162-0.182,0.286-0.372,0.389-0.578c0.087-0.183,0.117-0.379,0.126-0.573
		c0.003-0.099,0.002-0.197-0.001-0.298c-0.004-0.089-0.05-0.145-0.072-0.229c-0.017-0.072-0.018-0.15-0.042-0.221
		c-0.029-0.114-0.045-0.225-0.063-0.34c-0.021-0.133-0.058-0.269-0.08-0.404c-0.025-0.162-0.061-0.31-0.125-0.462
		c-0.032-0.071-0.053-0.118-0.109-0.177c-0.092-0.1-0.209-0.193-0.272-0.312c-0.059-0.114-0.083-0.243-0.167-0.351
		c-0.068-0.08-0.141-0.14-0.215-0.209c-0.1-0.099-0.117-0.246-0.243-0.325c-0.051-0.037-0.088-0.049-0.112-0.1
		c-0.03-0.067-0.039-0.126-0.098-0.179c-0.085-0.077-0.137-0.164-0.243-0.235c-0.249-0.172-0.438-0.396-0.698-0.559
		c-0.174-0.108-0.248-0.289-0.411-0.398c-0.062-0.041-0.167-0.041-0.187-0.125c-0.069-0.048-0.142-0.073-0.185-0.139
		c-0.036-0.058-0.086-0.106-0.136-0.153c-0.132-0.115-0.303-0.203-0.449-0.303c-0.117-0.078-0.289-0.129-0.429-0.183
		c-0.116-0.045-0.226-0.107-0.328-0.169c-0.08-0.051-0.126-0.107-0.217-0.144c-0.317-0.13-0.605-0.28-0.901-0.44
		c-0.136-0.073-0.3-0.074-0.45-0.125c-0.176-0.058-0.34-0.115-0.533-0.132c-0.126-0.01-0.248-0.028-0.376-0.043
		c-0.28-0.032-0.569,0-0.852-0.025c-0.204-0.019-0.403-0.04-0.609-0.031c-0.28,0.013-0.553,0.066-0.832,0.09
		c-0.102,0.01-0.197,0.039-0.296,0.045c-0.154,0.012-0.293,0.026-0.439,0.054c-0.121,0.025-0.249,0.043-0.37,0.063
		c-0.129,0.021-0.255,0.057-0.385,0.074c-0.149,0.025-0.298,0.041-0.452,0.058c-0.178,0.023-0.348,0.07-0.529,0.09
		c-0.427,0.056-0.846,0.118-1.241,0.268c-0.508,0.192-1.033,0.336-1.51,0.589c-0.13,0.074-0.264,0.15-0.392,0.234
		c-0.092,0.067-0.183,0.131-0.286,0.185c-0.118,0.058-0.247,0.101-0.36,0.166c-0.225,0.122-0.324,0.357-0.578,0.448
		c-0.127,0.047-0.273,0.06-0.407,0.093c-0.129,0.03-0.246,0.081-0.368,0.122c-0.278,0.094-0.512,0.037-0.709-0.148
		c-0.206-0.192-0.416-0.316-0.733-0.363c-0.241-0.034-0.482-0.063-0.72-0.108c-0.145-0.026-0.283-0.061-0.412-0.123
		c-0.134-0.063-0.255-0.146-0.396-0.202c-0.221-0.089-0.577-0.138-0.544-0.4c0.013-0.126,0.126-0.212,0.18-0.319
		c0.024-0.057,0.04-0.118,0.041-0.179c-0.006-0.076-0.061-0.111-0.117-0.171c-0.089-0.095-0.224-0.133-0.358-0.171
		c-0.282-0.082-0.48-0.255-0.736-0.37c-0.049-0.021-0.144-0.052-0.168-0.094c-0.031-0.044-0.013-0.153-0.012-0.206
		c0.001-0.092,0.014-0.187,0.007-0.282c-0.007-0.075-0.032-0.148-0.048-0.225c-0.008-0.047-0.007-0.095-0.013-0.143
		c-0.013-0.071-0.003-0.142-0.014-0.212c-0.006-0.063-0.037-0.134-0.075-0.185c-0.019-0.024-0.069-0.046-0.08-0.073
		c-0.005-0.024,0.031-0.061,0.042-0.08c0.068-0.123,0.028-0.242,0.005-0.375c-0.008-0.064,0.009-0.14-0.01-0.203
		c-0.021-0.064-0.089-0.119-0.144-0.166c-0.042-0.037-0.088-0.083-0.083-0.144c0.003-0.068,0.027-0.138,0.033-0.208
		c0.003-0.08-0.021-0.141-0.026-0.219c0-0.066-0.005-0.133-0.02-0.194c-0.023-0.116,0.005-0.229-0.081-0.325
		c-0.041-0.045-0.114-0.092-0.127-0.15c-0.011-0.061-0.001-0.15,0-0.215c0.005-0.152,0.001-0.31-0.002-0.46
		c-0.007-0.172-0.04-0.34-0.05-0.508c-0.011-0.137-0.079-0.247-0.15-0.372c-0.059-0.101-0.126-0.269-0.062-0.379
		c0.028-0.054,0.095-0.119,0.142-0.167c0.051-0.057,0.104-0.104,0.156-0.159c0.044-0.045,0.135-0.103,0.124-0.163
		c-0.017-0.063-0.106-0.102-0.151-0.151c-0.053-0.056-0.128-0.104-0.162-0.173c-0.03-0.06-0.033-0.129-0.061-0.188
		c-0.014-0.045-0.04-0.084-0.071-0.126c-0.045-0.066-0.083-0.145-0.117-0.221c-0.06-0.131-0.135-0.269-0.17-0.403
		c-0.036-0.144-0.115-0.286-0.19-0.421c-0.04-0.064-0.102-0.098-0.138-0.165c-0.034-0.064-0.036-0.13-0.053-0.208
		c-0.027-0.13,0.032-0.239,0.039-0.371c0.008-0.063-0.041-0.12-0.044-0.188c-0.001-0.06,0.003-0.12,0.008-0.181
		c0.029-0.266,0.109-0.506-0.008-0.765c-0.028-0.072-0.12-0.118-0.18-0.17c-0.056-0.055-0.109-0.122-0.145-0.194
		c-0.067-0.151-0.053-0.309,0.006-0.464c-0.06-0.056-0.151-0.104-0.221-0.154c-0.037-0.023-0.075-0.052-0.114-0.064
		c-0.045-0.02-0.066-0.006-0.079-0.063c-0.018-0.08,0.009-0.128-0.047-0.203c-0.05-0.066-0.1-0.129-0.167-0.191
		c0.091-0.102,0.18-0.203,0.301-0.283c0.136-0.088,0.25,0.062,0.355,0.113c0.188,0.087,0.225-0.113,0.365-0.158
		c0.041-0.014,0.092-0.009,0.134-0.015c0.08-0.006,0.152-0.027,0.229-0.05c0.12-0.041,0.256-0.057,0.356-0.136
		c0.046-0.036,0.076-0.08,0.124-0.112c0.077-0.057,0.078-0.076,0.06-0.152c-0.028-0.107-0.083-0.217-0.054-0.328
		c0.022-0.095,0.156-0.192,0.249-0.248c0.092-0.055,0.199-0.085,0.295-0.139c0.11-0.053,0.22-0.106,0.331-0.16
		c0.063-0.03,0.123-0.06,0.179-0.092c0.054-0.027,0.115-0.033,0.172-0.06c0.061-0.026,0.098-0.066,0.084-0.122
		c-0.021-0.091-0.045-0.131-0.125-0.191c-0.069-0.049-0.143-0.103-0.178-0.171c-0.022-0.04-0.019-0.086-0.043-0.127
		c-0.024-0.053-0.089-0.067-0.129-0.113c-0.069-0.083-0.058-0.204-0.102-0.294c-0.054-0.089-0.149-0.163-0.239-0.225
		c-0.048-0.031-0.096-0.063-0.141-0.095c-0.052-0.034-0.085-0.024-0.141-0.035c-0.057-0.013-0.097-0.043-0.134-0.078
		c-0.06-0.057-0.085-0.059-0.175-0.073c-0.116-0.016-0.226-0.066-0.228-0.17c-0.004-0.108,0-0.216-0.003-0.324
		c-0.012-0.135-0.042-0.262-0.064-0.395c-0.016-0.123-0.083-0.258-0.006-0.374c0.034-0.056,0.093-0.096,0.132-0.146
		c0.078-0.104,0.171-0.196,0.254-0.297c0.051-0.063,0.075-0.124,0.112-0.191c0.046-0.075,0.113-0.135,0.179-0.191
		c0.089-0.069,0.18-0.161,0.207-0.258c0.061-0.206-0.062-0.377-0.159-0.554c-0.11-0.194,0.132-0.405,0.24-0.56
		c0.06-0.083,0.117-0.161,0.186-0.237c0.097-0.112,0.05-0.185,0.01-0.305c-0.011-0.041-0.015-0.085-0.019-0.126
		c-0.002-0.046,0.021-0.092,0.008-0.135C22.917,54.377,22.699,54.317,22.565,54.229z"/>
	<g>
		<path style="&st22;" d="M61.297,15.949H44.958c-9.808,0-17.759,7.951-17.759,17.76l0,0c0,6.542,3.54,12.254,8.806,15.335
			l-3.314,9.106c-0.454,1.66,0.688,2.428,2.055,1.382l7.153-8.333c0.994,0.173,2.015,0.268,3.06,0.268h16.338
			c9.808,0,17.759-7.95,17.759-17.758l0,0C79.056,23.9,71.105,15.949,61.297,15.949z"/>
		<g>
			<rect x="36.491" y="26.031" style="&st21;" width="33.273" height="1.778"/>
			<rect x="36.491" y="32.23" style="&st21;" width="33.273" height="1.779"/>
			<rect x="36.491" y="38.43" style="&st21;" width="21.062" height="1.779"/>
		</g>
	</g>
</g>
</svg>
