<svg xmlns="http://www.w3.org/2000/svg" viewBox="0 0 100 100"><g data-name="圖層 1"><circle cx="50" cy="50" r="39.8" fill="#f5f8f6"/><path d="M35.5 8.4a.9.9 0 0 1-.9-.9V3.8a.9.9 0 1 1 1.8 0v3.6a.9.9 0 0 1-.9 1zm0 21.7a.9.9 0 0 1-.9-.9v-3.6a.9.9 0 1 1 1.8 0v3.6a.9.9 0 0 1-.9.9zm-9-12.7h-3.6a.9.9 0 1 1 0-1.8h3.6a.9.9 0 1 1 0 1.8zm21.7 0h-3.6a.9.9 0 1 1 0-1.8h3.6a.9.9 0 0 1 0 1.8z" fill="#ffb93e"/><path d="M35.5 8.4a.9.9 0 0 1-.9-.9V3.8a.9.9 0 1 1 1.8 0v3.6a.9.9 0 0 1-.9 1zm0 21.7a.9.9 0 0 1-.9-.9v-3.6a.9.9 0 1 1 1.8 0v3.6a.9.9 0 0 1-.9.9zm-9-12.7h-3.6a.9.9 0 1 1 0-1.8h3.6a.9.9 0 1 1 0 1.8zm21.7 0h-3.6a.9.9 0 1 1 0-1.8h3.6a.9.9 0 0 1 0 1.8zM31 9.6a.9.9 0 0 1-.8-.5L28.4 6a.9.9 0 1 1 1.6-.9l1.8 3.1a.9.9 0 0 1-.3 1.2zm10.9 18.8a.9.9 0 0 1-.8-.5l-1.8-3.1a.9.9 0 1 1 1.6-.9l1.8 3.1a.9.9 0 0 1-.3 1.2zm-17.3-4.6a.9.9 0 0 1-.5-1.7l3.1-1.8a.9.9 0 0 1 .9 1.6L25 23.6zm18.8-10.9a.9.9 0 0 1-.5-1.7L46 9.4a.9.9 0 1 1 1 1.6l-3.1 1.8zm-15.7 0h-.5L24.1 11a.9.9 0 1 1 .9-1.6l3.1 1.8a.9.9 0 0 1-.5 1.7zm18.8 10.9H46L42.9 22a.9.9 0 0 1 .9-1.6l3.2 1.7a.9.9 0 0 1-.5 1.7zm-17.3 4.6h-.5a.9.9 0 0 1-.3-1.2l1.8-3.1a.9.9 0 0 1 1.6.9L30 28a.9.9 0 0 1-.8.4zM40.1 9.6h-.5a.9.9 0 0 1-.3-1.2l1.8-3.1a.9.9 0 1 1 1.6.9l-1.8 2.9a.9.9 0 0 1-.8.5z" fill="#ffb93e"/><circle cx="35.5" cy="16.5" r="6.6" fill="#ffb93e"/><path d="M70.5 18.5a4 4 0 0 1 7.1-2.8l1.2-.3a3 3 0 0 1 3 3 3 3 0 0 1-.7 5.9h-10a3 3 0 0 1-.6-5.9zM15.7 32.9a4 4 0 0 1 7.1-2.8l1.2-.3a3 3 0 0 1 3 3 3 3 0 0 1-.7 5.9h-10a3 3 0 0 1-.6-5.9z" fill="#d2f6f9"/><path fill="#5ca06a" d="M79.6 88.8l17.5 5.7H4.2l20.5-5.7h54.9z"/><path d="M72.6 70.8a11.4 11.4 0 0 0-10.5 6.9 7.7 7.7 0 0 0-3.2-.7 7.8 7.8 0 0 0-5 1.8 8.9 8.9 0 0 0-14.9 0 7.8 7.8 0 0 0-5.1-1.9h-1.3A11.3 11.3 0 1 0 29.3 91a7.7 7.7 0 0 0 4.5 1.4 7.8 7.8 0 0 0 6-2.8 8.9 8.9 0 0 0 13 0 7.8 7.8 0 0 0 11.6.4 11.4 11.4 0 1 0 8.1-19.5z" fill="#78c348"/><path d="M22.5 93.4a11.2 11.2 0 0 0 6.8-2.2 7.7 7.7 0 0 0 4.5 1.4 7.8 7.8 0 0 0 6-2.8 8.9 8.9 0 0 0 13 0 7.8 7.8 0 0 0 11.6.4h.1a11.3 11.3 0 0 0 14.6 1.2h.2a11.4 11.4 0 0 0 4.6-8.1 8.8 8.8 0 0 1-8-.6 11.3 11.3 0 0 1-14.6-1.2 7.8 7.8 0 0 1-11.7-.3 8.9 8.9 0 0 1-13 0 7.8 7.8 0 0 1-6 2.8 7.7 7.7 0 0 1-4.6-1.4 11.3 11.3 0 0 1-14.8-1.1v.6a11.3 11.3 0 0 0 11.3 11.3z" style="mix-blend-mode:multiply" fill="#666" opacity=".15"/><path fill="none" stroke="#c6e288" stroke-linecap="round" stroke-miterlimit="10" stroke-width="2" d="M4 95.5h92.5"/><path d="M51.3 65.8a1.1 1.1 0 0 1-.1-2.2l9-1.1a1.1 1.1 0 1 1 .3 2.2l-9 1.1z" fill="#fdd09c"/><path d="M67.3 92.1a.4.4 0 0 0 .7.1l4.5-3.9a.4.4 0 0 0 0-.6L70.1 85l-2.7 2.3.9 1.1-.9 1.2a2.2 2.2 0 0 0-.2 2.3z" fill="#a97c50"/><path d="M67.3 92.1a.4.4 0 0 0 .7.1l4.5-3.9a.4.4 0 0 0 0-.6l-.2-.2-5.1 4.5z" fill="#603913"/><path d="M53.5 94.3a.4.4 0 0 0 .4.5h5.9a.4.4 0 0 0 .4-.4v-3.6h-3.5v1.4l-1.5.3a2.2 2.2 0 0 0-1.7 1.6z" fill="#a97c50"/><path d="M53.5 94.3a.4.4 0 0 0 .4.5h5.9a.4.4 0 0 0 .4-.4v-.2h-6.6z" fill="#603913"/><path d="M67.3 87.6l-4.2-5a9.3 9.3 0 0 1-2-4.3l-1.3-7.2 4-.7 1.3 7.2a5.3 5.3 0 0 0 1.1 2.4l4.2 5z" fill="#eacad2"/><path d="M56.5 91.3l-.5-8.9a10.1 10.1 0 0 1 .2-2.7l2.4-11.2 4 .8-2.5 11.2a6.1 6.1 0 0 0-.1 1.6l.6 8.9z" fill="#eacad2"/><path d="M57.6 69l-.7 5.4c0 .2.9.1 1.1.1h4.9a2.6 2.6 0 0 0 2.4-1.6 5.7 5.7 0 0 0-.2-3.8l-.2-.4c0-.2 0-.7-.2-.7h-6.8c-.2 0-.3.8-.3 1z" fill="#eacad2"/><path d="M62.5 42.6l2.5.8a4.3 4.3 0 0 1 2.9 5.4l-.2.6a6.1 6.1 0 0 1-3.7 3.9l-1.1.4z" fill="#67443e"/><path d="M63.075 53.272l-3.058-.941a3 3 0 0 1-1.986-3.75l1.353-4.396 5.926 1.823-2.235 7.264z" fill="#fdd09c"/><path fill="#fdd09c" d="M63.112 55.155l-2.3-.032.064-4.52 2.3.032z"/><path d="M57.6 68.6H65v-11c0-1.1-.7-3.3-1.7-3.3h-3.2c-2.3 2.8-3.2 3.5-3.7 4.8s.8 3 .8 3.2z" fill="#f991a5"/><path fill="#ffffe3" d="M63.3 53.1l.5 1.4-4.7.5 1-1.6 3.2-.3z"/><path d="M64.9 66c0-.1-.1-1.8-.1-1.8l-.7-2.8-1.3-5a1.4 1.4 0 1 0-2.6.7l1.2 4.5h.1l.7 2.8 1 9.1a.8.8 0 0 0 .4.7c.6.2 1.7-1.3 1.7-1.9l-.6-3.5z" style="mix-blend-mode:multiply" fill="#d8d8d8"/><path d="M63 62.1h-2.6l-1.1-5.3a1.3 1.3 0 0 1 2.5-.5z" fill="#d3a581"/><path d="M64 73.2a1.3 1.3 0 0 1-1.2 1.4h-.1a1.3 1.3 0 0 1-1.3-1.2l-.6-9.1-.4-2.1H63l.3 1.7v.1z" fill="#fdd09c"/><path d="M59.8 61.7l-1-4.8a1.7 1.7 0 0 1 1.3-2h.4a1.7 1.7 0 0 1 1.7 1.4l1.2 5.5z" fill="#ffffe3"/><path d="M58.7 44.1c-1 2.9 1.9 2.3 1.9 2.3l-.7 2.2 1.1-1 4.3 1.8.4-5.2s-5.6-4.2-7-.1z" fill="#67443e"/><path d="M60.9 47.5l3.9-4.2a4.3 4.3 0 0 1 2.9 5.4l-.2.6c-.5 1.6-2.6 2.7-4 3.4a.9.9 0 0 1-1.1-.2l-.7-2a3.1 3.1 0 0 0 .6-2.8l-1.5.2c-.2 0-.1-.2.1-.4z" fill="#67443e"/><circle cx="61.6" cy="48.7" r="1.2" transform="rotate(-72.9 61.61 48.749)" fill="#fdd09c"/><path d="M51.3 62.5l1.1.9-.4.6-.8-.7s-.7-.7.1-.8z" fill="#fdd09c"/><ellipse cx="66.3" cy="45.7" rx="1.7" ry="1.5" transform="rotate(-78.8 66.267 45.665)" fill="#ff8500"/><path d="M65.4 48.5v-.2c0-5.2 3.7-5.2 3.2-2.1v.8l-.2 1.3a13.3 13.3 0 0 0 .7 4c.2 2.7-.8 3.7-1.2 5.9-.1.6.7 1.2.7 1.2s-1.8-.2-1.9-1.5-.1-1.9-.2-3a9 9 0 0 0-.2-1.3l-.2-.5a15.6 15.6 0 0 1-.7-4.6z" fill="#67443e"/><path d="M47.3 94.2a1.7 1.7 0 0 1-1.7-1.3L43.5 84v-.3l-.8-9.2a1.7 1.7 0 1 1 3.5-.3l.8 9.1 2 8.8a1.7 1.7 0 0 1-1.3 2.1z" fill="#fdd09c"/><path d="M42.4 95.2a.4.4 0 0 0 .5.4l6.1-1.2a.4.4 0 0 0 .4-.5l-.7-3.7-3.7.8.3 1.5-1.4.6a2.3 2.3 0 0 0-1.4 2z" fill="#4c3622"/><path d="M42.4 95.2a.4.4 0 0 0 .5.4l6.1-1.2a.4.4 0 0 0 .4-.5v-.2l-7 1.3z" fill="#3f3222"/><path d="M40.8 95.3a1.7 1.7 0 0 1-1.7-1.7L38.8 82a1.7 1.7 0 0 1 0-.2l.7-8.5a1.7 1.7 0 1 1 3.5.3l-.7 8.4.3 11.6a1.7 1.7 0 0 1-1.7 1.8z" fill="#fdd09c"/><path d="M46.9 83.2v-.3h-3.5v1l.5 1.9h3.6zm-8.1-.2l.1 2.8h3.5l-.1-2.8h-3.5z" fill="#d3a581"/><path d="M43.4 58.3h-.3l-6.2-1.5a1.3 1.3 0 0 1-.9-.8l-3.5-7.9A1.3 1.3 0 0 1 35 47l3.2 7.3 5.5 1.4a1.3 1.3 0 0 1-.3 2.7z" fill="#fdd09c"/><path d="M39.9 69.1s-1.1 1.9-.9 6.4h7.5v-6.8z" fill="#f4e482"/><path d="M44.5 42.7s3.5-.4 5 1.1 1 5.2 1 5.2l-.2.6c-.6 1.9-2.2 5.2-4.1 5.9L41 57.3c1-1.6 3.3-9.5 3.6-14.6" fill="#3c2415"/><path d="M35.6 95.7a.4.4 0 0 0 .4.5h6.2a.4.4 0 0 0 .4-.4v-3.7h-3.7v1.5l-1.5.3a2.3 2.3 0 0 0-1.8 1.7z" fill="#6d4f33"/><path d="M35.6 95.7a.4.4 0 0 0 .4.5h6.2a.4.4 0 0 0 .4-.4v-.3h-7z" fill="#3f3222"/><path d="M45.384 53.635l-3.154-.97a3.1 3.1 0 0 1-2.052-3.875l1.412-4.588 6.117 1.882-2.352 7.647.029-.096z" fill="#fdd09c"/><path fill="#fdd09c" d="M45.515 55.603l-2.4-.033.066-4.74 2.4.034z"/><path d="M39.4 69.6h7.7l-.6-3.9.6-9.6a2 2 0 0 0-2-2h-2.3l-3.3 3.7c-1.3 1.2-.6 2.8.5 3.8l.4 4.1z" fill="#9b7ce0"/><path d="M44.5 42.7s3.5-.4 5 1.1 1 5.2 1 5.2l-.2.6c-.6 1.9-1.8 11.2-.5 12.7l-2.1-1.9c-4.8-3.6 5.7-11-3.1-17.7" fill="#3c2415"/><circle cx="47" cy="49.8" r="1.3" transform="rotate(-72.9 46.906 49.816)" fill="#fdd09c"/><path d="M40.8 45.3c0 .9 1.6 1.6 5 2.1l-.8 2.5 2.3-1.3 1-3.3-3-2.6s-3.3-.3-4.5 2.6z" fill="#3c2415"/><path fill="#f4e482" d="M45.6 53.6l-3 .4-.8 2.2 4.4-1.7-.6-.9zM40.3 65h2.6v1.27h-2.6zm3.3 0H46v1.27h-2.4z"/><path d="M45.1 74h-.2a1.3 1.3 0 0 1-1-1.6l1.7-7.5-2.3-6.5a1.3 1.3 0 1 1 2.5-.9l2.3 6.5a2.9 2.9 0 0 1 .1 1.6l-1.7 7.5a1.3 1.3 0 0 1-1.4.9z" style="mix-blend-mode:multiply" fill="#b2d5e7"/><path d="M43.9 71.7h3.8a.5.5 0 0 1 .5.5v1.6a.5.5 0 1 1-.9 0v-1.1h-3v1.2a.5.5 0 1 1-.9 0v-1.7a.5.5 0 0 1 .5-.5z" fill="#6b4a26"/><path d="M54.2 82.4h.4v-6.7h-.4a1.5 1.5 0 0 1-1.5-1.9H38.9a1.5 1.5 0 0 1-1.5 1.9H37v6.8h.4a1.5 1.5 0 0 1 1.5 2h13.8a1.5 1.5 0 0 1 1.5-2z" fill="#996a56"/><path d="M54.6 83.1v-.6h-.4a1.5 1.5 0 0 0-1.5 2h.5a1.4 1.4 0 0 0 1.4-1.4zm-17.2-.7H37v.6a1.4 1.4 0 0 0 1.4 1.4h.5a1.5 1.5 0 0 0-1.5-2zm16.8-6.6h.4v-.5a1.4 1.4 0 0 0-1.4-1.4h-.5a1.5 1.5 0 0 0 1.5 1.9zm-15.3-1.6a1.5 1.5 0 0 0-.1-.4h-.5a1.4 1.4 0 0 0-1.3 1.4v.5h.4a1.5 1.5 0 0 0 1.5-1.5z" fill="#f2f2f2"/><path d="M45.9 73.6h-.2a1.3 1.3 0 0 1-1.1-1.6l1.3-7.6-2.7-6.4a1.3 1.3 0 1 1 2.5-1l2.6 6.4a2.9 2.9 0 0 1 .2 1.6l-1.3 7.6a1.3 1.3 0 0 1-1.3 1z" fill="#fdd09c"/><path d="M79.1 93.4a1.3 1.3 0 1 0 1.3 1.3 1.3 1.3 0 0 0-1.3-1.3zm0 2a.7.7 0 1 1 .7-.7.7.7 0 0 1-.7.7z" fill="#58595b"/><path d="M79.1 94.7a.4.4 0 0 1-.5-.1l-1.4-2.3.6-.4 1.4 2.3a.4.4 0 0 1-.1.5z" fill="#58595b"/><circle cx="63.8" cy="73" r=".8" fill="#ff8500"/><path d="M67.597 78.583l4.565-3.068a2.6 2.6 0 0 1 3.608.708l7.195 10.708a2.6 2.6 0 0 1-.708 3.608l-4.565 3.067-10.039-14.94-.056-.083z" fill="#efa91d"/><path fill="#ff8500" d="M74 83.3l-.3-.5-.6.4-.3.2-.2.2 1.7 2.6.2-.2.3-.1.6-.5-.3-.5-.7.5-1-1.7.6-.4z"/><path d="M80.5 91.2h-.2L71 77a.2.2 0 0 1 .1-.3h.3l9.3 14.2a.2.2 0 0 1-.1.3z" fill="#9b680d"/><path fill="#58595b" d="M63.477 73.256l.659-.454 14.03 20.414-.66.453z"/><circle cx="63.8" cy="73" r=".5" fill="#58595b"/></g></svg>