<svg xmlns="http://www.w3.org/2000/svg" viewBox="0 0 100 100"><g data-name="圖層 1"><circle cx="50" cy="50" r="39.8" fill="#f5f8f6"/><path data-name="path3845" d="M77 17.5v7.2l-.6.2v.6h.4v.4h.2v.3h-.5a.3.3 0 0 0-.3.3v2.1h-.5s.1 2 .1 2.1a.3.3 0 0 0 .3.3h.1v2.1h-.9a.3.3 0 0 0-.3.3v1.1h-1a.3.3 0 0 0-.3.3v.2h-.3l.5 4.9h-.4l.5 4.8h-.5l.5 4.8h-.5l.6 4.8h-.5l.5 4.7h-.5l.5 4.7h-.5l.6 4.9h-.5l.5 5.1H74c-.1 0-.1.1-.2.2s-1.6 14.6-1.6 14.6h10.3S80.9 74 80.8 73.9s-.1-.2-.2-.2h-.3l.5-5.1h-.5l.6-4.9h-.5l.5-4.7h-.5l.5-4.7h-.5l.6-4.8h-.5l.5-4.8h-.5l.5-4.8h-.4L81 35h-.3v-.2a.3.3 0 0 0-.3-.3h-1v-1.2a.3.3 0 0 0-.3-.3h-.9v-2.1h.1a.3.3 0 0 0 .3-.3c0-.1.1-2.1.1-2.1h-.5v-2.1a.3.3 0 0 0-.3-.3h-.5v-.3h.2v-.4h.4v-.6l-.6-.2v-7.1H77z" fill="#b0d9ea"/><path fill="#5ca06a" d="M79.4 88.8l17.5 5.7H4l20.5-5.7h54.9z"/><path d="M89.3 82.1a5.8 5.8 0 0 0-5.3 3.5 3.9 3.9 0 0 0-1.6-.4 4 4 0 0 0-2.6.9 4.5 4.5 0 0 0-7.6 0 4 4 0 0 0-2.6-1H69a5.7 5.7 0 1 0-1.7 7.2 3.9 3.9 0 0 0 2.3.7 4 4 0 0 0 3.1-1.4 4.5 4.5 0 0 0 6.6 0 4 4 0 0 0 5.9.2 5.8 5.8 0 1 0 4.1-9.9z" fill="#78c348"/><path d="M63.8 93.6a5.7 5.7 0 0 0 3.4-1.1 3.9 3.9 0 0 0 2.3.7 4 4 0 0 0 3.1-1.4 4.5 4.5 0 0 0 6.6 0 4 4 0 0 0 5.9.2h.1a5.7 5.7 0 0 0 7.4.6h.1a5.8 5.8 0 0 0 2.3-4.1 4.5 4.5 0 0 1-4.1-.3 5.8 5.8 0 0 1-7.4-.6 4 4 0 0 1-6-.2 4.5 4.5 0 0 1-6.6 0 4 4 0 0 1-3.1 1.4 3.9 3.9 0 0 1-2.3-.7 5.8 5.8 0 0 1-7.5-.6v.3a5.7 5.7 0 0 0 5.8 5.8z" style="mix-blend-mode:multiply" fill="#666" opacity=".15"/><path fill="#fff18a" d="M7.6 44.2h26.9v51.06H7.6z"/><path fill="#ffe48d" d="M34.6 45.2h26.9v50.03H34.6z"/><path d="M30.1 51.7V61h-18v-9.3c0-1.8 4-3.2 9-3.2s9 1.4 9 3.2z" style="mix-blend-mode:multiply" fill="#e5e5e5" opacity=".49"/><path fill="#fff" d="M17.6 52.2h7v8.76h-7z"/><path fill="#5dbca8" d="M24.6 52.2H28v8.76h-3.4z"/><path fill="#4ea190" d="M25.2 52.7h2.3v7.66h-2.3z"/><path fill="#5dbca8" d="M14.2 52.2h3.4v8.76h-3.4z"/><path fill="#4ea190" d="M14.7 52.7H17v7.66h-2.3z"/><path fill="#398b91" d="M18.1 52.7h2.7v7.66h-2.7zm3.2 0H24v7.66h-2.7z"/><path d="M30.1 68.6v9.3h-18v-9.3c0-1.8 4-3.2 9-3.2s9 1.4 9 3.2z" style="mix-blend-mode:multiply" fill="#e5e5e5" opacity=".49"/><path fill="#fff" d="M17.6 69.1h7v8.76h-7z"/><path fill="#5dbca8" d="M24.6 69.1H28v8.76h-3.4z"/><path fill="#4ea190" d="M25.2 69.6h2.3v7.66h-2.3z"/><path fill="#5dbca8" d="M14.2 69.1h3.4v8.76h-3.4z"/><path fill="#4ea190" d="M14.7 69.6H17v7.66h-2.3z"/><path fill="#398b91" d="M18.1 69.6h2.7v7.66h-2.7zm3.2 0H24v7.66h-2.7z"/><path d="M57 51.7V61H39v-9.3c0-1.8 4-3.2 9-3.2s9 1.4 9 3.2z" style="mix-blend-mode:multiply" fill="#e5e5e5" opacity=".49"/><path fill="#fff" d="M44.5 52.2h7v8.76h-7z"/><path fill="#5dbca8" d="M51.5 52.2h3.4v8.76h-3.4z"/><path fill="#4ea190" d="M52.1 52.7h2.3v7.66h-2.3z"/><path fill="#5dbca8" d="M41.1 52.2h3.4v8.76h-3.4z"/><path fill="#4ea190" d="M41.7 52.7H44v7.66h-2.3z"/><path fill="#398b91" d="M45 52.7h2.7v7.66H45zm3.3 0H51v7.66h-2.7z"/><path d="M57 68.6v9.3H39v-9.3c0-1.8 4-3.2 9-3.2s9 1.4 9 3.2z" style="mix-blend-mode:multiply" fill="#e5e5e5" opacity=".49"/><path fill="#fff" d="M44.5 69.1h7v8.76h-7z"/><path fill="#5dbca8" d="M51.5 69.1h3.4v8.76h-3.4z"/><path fill="#4ea190" d="M52.1 69.6h2.3v7.66h-2.3z"/><path fill="#5dbca8" d="M41.1 69.1h3.4v8.76h-3.4z"/><path fill="#4ea190" d="M41.7 69.6H44v7.66h-2.3z"/><path fill="#398b91" d="M45 69.6h2.7v7.66H45zm3.3 0H51v7.66h-2.7z"/><path style="mix-blend-mode:multiply" fill="gray" opacity=".63" d="M38.5 47.7v47.6h-3.9V45.2h1.5l2.4 2.5z"/><path fill="#f5763f" d="M8.4 35.8h25.4v7.58H8.4z"/><path d="M11 39.9v2h-.7v-4.7h.7v2h.8v-2h.7v4.7h-.7v-2zm3.2-2.8a1.1 1.1 0 0 1 .8.3 1.1 1.1 0 0 1 .3.8v2.6a1.1 1.1 0 0 1-.3.8 1.1 1.1 0 0 1-.8.3 1.1 1.1 0 0 1-.8-.3 1.1 1.1 0 0 1-.3-.8v-2.6a1.1 1.1 0 0 1 .3-.8 1.1 1.1 0 0 1 .8-.3zm.4 1.1a.4.4 0 0 0-.1-.3h-.6a.4.4 0 0 0-.1.3v2.6a.4.4 0 0 0 .1.3h.6a.4.4 0 0 0 .1-.3zm2-.3h-.7v-.7H18v.7h-.7v4h-.7zm2 4v-4.7h2v.7h-1.3v1.3h.9v.7h-.9v1.3h1.3v.7zm4.4 0h-1.9v-4.7h.7v4H23z" fill="#fff"/><path d="M30.1 51.7v.7a20.1 20.1 0 0 0-6-.8 21.3 21.3 0 0 0-5.3.6l-1.2.4-.5.2c-1.2.6-2 1.2-2 2V61h-3v-9.3c0-1.8 4-3.2 9-3.2s9 1.4 9 3.2zm0 16.9v.7a20.1 20.1 0 0 0-6-.8 21.3 21.3 0 0 0-5.3.6l-1.2.4-.5.2c-1.2.6-2 1.2-2 2v6.2h-3v-9.3c0-1.8 4-3.2 9-3.2s9 1.4 9 3.2zM57 51.7v.7a20.1 20.1 0 0 0-6-.8 21.3 21.3 0 0 0-5.3.6l-1.2.4-.5.2c-1.2.6-2 1.2-2 2V61h-3v-9.3c0-1.8 4-3.2 9-3.2s9 1.4 9 3.2zm0 16.9v.7a20.1 20.1 0 0 0-6-.8 21.3 21.3 0 0 0-5.3.6l-1.2.4-.5.2c-1.2.6-2 1.2-2 2v6.2h-3v-9.3c0-1.8 4-3.2 9-3.2s9 1.4 9 3.2z" style="mix-blend-mode:multiply" fill="gray" opacity=".41"/><path fill="#f2f2f2" d="M17.6 83.8h7v8.76h-7z"/><path fill="#5dbca8" d="M24.6 83.8H28v8.76h-3.4z"/><path fill="#4ea190" d="M25.2 84.4h2.3v7.66h-2.3z"/><path fill="#5dbca8" d="M14.2 83.8h3.4v8.76h-3.4z"/><path fill="#4ea190" d="M14.7 84.4H17v7.66h-2.3z"/><path fill="#48969b" d="M18.1 84.4h2.7v7.66h-2.7zm3.2 0H24v7.66h-2.7z"/><path style="mix-blend-mode:multiply" fill="gray" opacity=".63" d="M34.6 83v9.8H21.8v2.4h-1.4v-2.4h-1.7l-.2-.2-.9-1-.6-.5-2.3-2.4-.5-.5-4.7-4.8-.4-.4h25.5z"/><path fill="#e5951f" d="M5.9 81.5h57.3v1.53H5.9z"/><path fill="#f7b858" d="M63.2 81.5H5.9l1.7-1.9h53.9l1.6 1.8.1.1zM25.6 83h1.5v12.29h-1.5z"/><path fill="#d88d1c" d="M25.6 83h1.5v1.76h-1.5z"/><path fill="#5dbca8" d="M44.7 83.3h6.6v11.96h-6.6z"/><path fill="#5dbca8" d="M51.3 83.3h3.5v11.96h-3.5z"/><path style="mix-blend-mode:multiply" fill="#224f59" opacity=".64" d="M45.1 93.9h5.8v1.04h-5.8z"/><path style="mix-blend-mode:multiply" fill="gray" opacity=".49" d="M45.1 93.9h5.8v1.04h-5.8z"/><path style="mix-blend-mode:multiply" fill="#224f59" opacity=".64" d="M45.1 83.8h5.8v10.11h-5.8z"/><path fill="#4c9e8c" d="M51.7 83.8h2.7v10.99h-2.7z"/><path fill="#5dbca8" d="M41.2 83.3h3.5v11.96h-3.5z"/><path fill="#4c9e8c" d="M41.6 83.8h2.7v10.99h-2.7z"/><path style="mix-blend-mode:multiply" fill="gray" opacity=".63" d="M61.5 83v10.9h-6.3v1.3h-1.5v-1.3H38.5V83h23z"/><path fill="#f7b858" d="M59.3 83h1.5v12.29h-1.5z"/><path fill="#d88d1c" d="M59.3 83h1.5v1.76h-1.5z"/><path fill="#f7b858" d="M42.1 83h1.5v12.24h-1.5z"/><path fill="#d88d1c" d="M42.1 83h1.5v1.76h-1.5z"/><path fill="#f7b858" d="M8.1 83h1.5v12.29H8.1z"/><path fill="#d88d1c" d="M8.1 83h1.5v1.76H8.1z"/><path d="M24.7 38.4a1.3 1.3 0 0 1 .3-1 1 1 0 0 1 .8-.3 1 1 0 0 1 .7.3 1.1 1.1 0 0 1 .3.8 2 2 0 0 1-.2.9l-.5.8-.3.5v.2l-.2.3h1.3v.7h-2.2v-.9l.2-.2.2-.3.5-.7.5-.8a1.4 1.4 0 0 0 .1-.5.5.5 0 0 0-.1-.3h-.3a.4.4 0 0 0-.4.3.7.7 0 0 0 0 .3v.2h-.6zm2.2 1.6l1.2-2.8h.7V40h.4v.7h-.4v1h-.7v-1h-1.2zm1.2 0v-1.4l-.6 1.4z" fill="#fff"/><path d="M29.9 41.6v-3.4h.4v1.2a.9.9 0 0 1 .7-.3h.5l.3.3a1.4 1.4 0 0 1 .1.6v1.6h-.4v-1.5a.7.7 0 0 0-.1-.5h-.7l-.2.3a1.2 1.2 0 0 0-.1.5v1.3z" fill="#fff" stroke="#fff" stroke-miterlimit="10" stroke-width=".448"/><path d="M75.6 7.6a4 4 0 0 1 7.1-2.8l1.2-.3a3 3 0 0 1 3 3 3 3 0 0 1-.7 5.9h-10a3 3 0 0 1-.6-5.9zm-59.2 10a4 4 0 0 1 7.1-2.8l1.2-.3a3 3 0 0 1 3 3 3 3 0 0 1-.7 5.9h-9.9a3 3 0 0 1-.6-5.9z" fill="#d2f6f9"/><path fill="none" stroke="#c6e288" stroke-linecap="round" stroke-miterlimit="10" stroke-width="2" d="M4 95.5h92.5"/><ellipse cx="23.9" cy="95.7" rx="14.3" ry=".9" style="mix-blend-mode:multiply" fill="#4d4d4d" opacity=".29"/><path style="mix-blend-mode:multiply" fill="#8fd5e0" d="M10.8 90.2h25.5v3.61H10.8z"/><path d="M12 93.8a2.3 2.3 0 1 0 2.3-2.3 2.3 2.3 0 0 0-2.3 2.3zm.7 0a1.6 1.6 0 1 1 1.6 1.6 1.6 1.6 0 0 1-1.7-1.6z" fill="#102249"/><path d="M12.6 93.8a1.6 1.6 0 1 0 1.6-1.6 1.6 1.6 0 0 0-1.6 1.6zm.7 0a1 1 0 1 1 1 1 1 1 0 0 1-1-1z" fill="#f2f2f2"/><path d="M13.3 93.8a1 1 0 0 0 1.9.1h-.4a1 1 0 0 1-1-1 1 1 0 0 0-.5.9z" fill="#999"/><path d="M13.8 93.1a1 1 0 0 0 1 1h.4a1 1 0 0 0-1-1h-.4z" fill="#ccc"/><path d="M30.4 93.8a2.3 2.3 0 1 0 2.3-2.3 2.3 2.3 0 0 0-2.3 2.3zm.7 0a1.6 1.6 0 1 1 1.6 1.6 1.6 1.6 0 0 1-1.6-1.6z" fill="#102249"/><path d="M31.1 93.8a1.6 1.6 0 1 0 1.6-1.6 1.6 1.6 0 0 0-1.6 1.6zm.7 0a1 1 0 1 1 1 1 1 1 0 0 1-1-1z" fill="#f2f2f2"/><path d="M31.8 93.8a1 1 0 0 0 1.9.1h-.4a1 1 0 0 1-1-1 1 1 0 0 0-.5.9z" fill="#999"/><path d="M32.3 93.1a1 1 0 0 0 1 1h.4a1 1 0 0 0-1-1h-.4z" fill="#ccc"/><path d="M37.1 92.7H37v.8c0-.1.1-.4.1-.8zm-3.4-8.4H10.6l.2-.2c.8-.5 9.5-.4 10.1-.4h.3c2.7 0 11-.2 12.5.6z" fill="#fff"/><path d="M37.1 92.7h-1.6l-.2.3v-.5l-.4-.5-.4-.2h-3.8c-.3.1-.4.3-.5.6l-.6 1.3H17.3l-.4-1.3c-.2-.4-.3-.6-.8-.7h-3.6c-.4.1-.4.3-.6.7l-.6 1.3h-1s-.6 0-.6-.2 0-2.5.1-3.4v-1.3c0-.3 0-.9.1-1.6a12.3 12.3 0 0 1 .4-2.5l.2-.3h23.2l.5.3h-.1l2.1 3.1v.5l.3 1.3v1.5c.5.6.6 1.2.6 1.6z" fill="#83cbd8"/><path d="M30.3 85.1v2a.3.3 0 0 0 .3.3H35c.2 0 .5 0 .4-.2L34 85.1c-.1-.2-.1-.3-.3-.3h-3.1a.3.3 0 0 0-.3.3zm.2.2a.2.2 0 0 1 .3-.2h2.8c.1 0 .1.1.2.2L35 87c.1.2-.1.2-.3.2h-3.9a.2.2 0 0 1-.3-.2z" fill="#fff"/><path d="M9.8 87.9l.2.2h26.3l.2-.2-.2-.2H10zm24.5-3.5H10.5v-.3h23.6z" fill="#ccc"/><path d="M26 85.1v2a.3.3 0 0 0 .3.3h2.9a.3.3 0 0 0 .3-.3v-2a.3.3 0 0 0-.3-.3h-2.9a.3.3 0 0 0-.3.3zm.2.1h3.1V87h-3.1z" fill="#fff"/><rect x="26.2" y="85.1" width="3.1" height="2.12" rx=".1" ry=".1" style="mix-blend-mode:multiply" fill="#3f6271" opacity=".74"/><path d="M21.9 85.1v2a.3.3 0 0 0 .3.3h2.9a.3.3 0 0 0 .3-.3v-2a.3.3 0 0 0-.3-.3h-2.9a.3.3 0 0 0-.3.3zm.2.1h3.1V87h-3.1z" fill="#fff"/><rect x="22.1" y="85.1" width="3.1" height="2.12" rx=".1" ry=".1" style="mix-blend-mode:multiply" fill="#3f6271" opacity=".74"/><path d="M17.8 85.1v2a.3.3 0 0 0 .3.3H21a.3.3 0 0 0 .3-.3v-2a.3.3 0 0 0-.3-.3h-2.9a.3.3 0 0 0-.3.3zm.2.1h3.1V87h-3z" fill="#fff"/><rect x="18.1" y="85.1" width="3.1" height="2.12" rx=".1" ry=".1" style="mix-blend-mode:multiply" fill="#3f6271" opacity=".74"/><path d="M12.9 85.1v2a.3.3 0 0 0 .4.3h3.6a.3.3 0 0 0 .4-.3v-2a.3.3 0 0 0-.4-.3h-3.6a.3.3 0 0 0-.4.3zm.3.1H17V87h-3.8z" fill="#fff"/><path d="M13.2 85.2V87H17v-1.8h-3.8zm17.3.1v1.6a.2.2 0 0 0 .3.2h3.9c.2 0 .4 0 .3-.2l-1.2-1.7c-.1-.1-.1-.2-.2-.2h-2.8a.2.2 0 0 0-.3.3z" style="mix-blend-mode:multiply" fill="#3f6271" opacity=".74"/><path d="M35.6 92.7l1.5.5v-.4h-1.5z" fill="#92d2df"/><path d="M35.3 93.3a.6.6 0 0 0 .3.5h1.7a.5.5 0 0 0 .5-.3H36a.6.6 0 0 1-.5-.6.6.6 0 0 1 .1-.3h-.2z" fill="#b3b3b3"/><path d="M35.5 93a.6.6 0 0 0 .5.6h1.7a.6.6 0 0 0 .1-.3.6.6 0 0 0-.2-.4l-.4-.2h-1.7a.6.6 0 0 0 0 .3z" fill="#f2f2f2"/><path d="M9 93.3a.5.5 0 0 0 .5.6H11a.5.5 0 0 0 .5-.3H9.8a.5.5 0 0 1-.5-.6v-.3a.6.6 0 0 0-.3.6z" fill="#b3b3b3"/><path d="M9.3 93a.5.5 0 0 0 .5.6h1.6v-.3a.6.6 0 0 0-.1-.4l-.4-.2H9.4z" fill="#f2f2f2"/><path d="M9.6 88.8v1.4h.2v-1.4z" fill="#f68821"/><path d="M30.7 88.6a.2.2 0 0 0 .2.2h1a.2.2 0 0 0 .2-.2.2.2 0 0 0-.2-.2h-1a.2.2 0 0 0-.2.2z" fill="#e5e5e5"/><path d="M36.8 89.4a1.3 1.3 0 0 1-.1.7h-.2c-.7 0-1.2-.3-1.2-.8s.5-.8 1.2-.8h.2a1.3 1.3 0 0 1 .1.9z" fill="#cae6e6"/><path d="M37.1 89.4c0 .4-.2.7-.4.7a2.1 2.1 0 0 0 0-1.4c.2 0 .4.3.4.7z" fill="#fff"/></g></svg>