<svg xmlns="http://www.w3.org/2000/svg" viewBox="0 0 100 100"><g data-name="圖層 1"><circle cx="50" cy="50" r="39.8" fill="#f5f8f6"/><path d="M70.5 18.5a4 4 0 0 1 7.1-2.8l1.2-.3a3 3 0 0 1 3 3 3 3 0 0 1-.7 5.9h-10a3 3 0 0 1-.6-5.9zM15.7 32.9a4 4 0 0 1 7.1-2.8l1.2-.3a3 3 0 0 1 3 3 3 3 0 0 1-.7 5.9h-10a3 3 0 0 1-.6-5.9z" fill="#d2f6f9"/><path data-name="path3845" d="M39.1 3.1v7.1l-.6.2v.6h.4v.4h.1v.3h-.5a.3.3 0 0 0-.3.3v2h-.5s.1 2 .1 2.1a.3.3 0 0 0 .3.3h.1v2.1h-.9a.3.3 0 0 0-.2.2v1.1h-1a.3.3 0 0 0-.2.3v.2h-.2l.5 4.8h-.4l.5 4.7h-.5l.5 4.7h-.5l.5 4.7h-.5l.5 4.6h-.5l.5 4.6h-.5l.5 4.8h-.5l.5 5H36c-.1 0-.1.1-.2.2S34.3 73 34.3 73h10.1s-1.6-14.3-1.6-14.4-.1-.2-.2-.2h-.3l.5-5h-.5l.5-4.8h-.5l.5-4.6h-.5l.5-4.6h-.5l.5-4.7h-.5l.5-4.7h-.5l.5-4.7h-.4l.5-4.8h-.2v-.2a.3.3 0 0 0-.2-.3h-1v-1.3a.3.3 0 0 0-.2-.2h-.9v-2.2h.1a.3.3 0 0 0 .3-.3c0-.1.1-2.1.1-2.1h-.5v-2a.3.3 0 0 0-.3-.3h-.5v-.3h.2V11h.4v-.6l-.6-.2V3.1h-.5z" fill="#00a29a"/><path fill="#5ca06a" d="M79.6 77.3l17.5 18.2H4.2l20.5-18.2h54.9z"/><path d="M77.3 58.3a11.4 11.4 0 0 0-10.5 6.9 7.7 7.7 0 0 0-3.2-.7 7.8 7.8 0 0 0-5 1.8 8.9 8.9 0 0 0-14.9 0 7.8 7.8 0 0 0-5.1-1.9h-1.3A11.3 11.3 0 1 0 34 78.7a7.7 7.7 0 0 0 4.5 1.4 7.8 7.8 0 0 0 6-2.8 8.9 8.9 0 0 0 13 0 7.8 7.8 0 0 0 11.6.4 11.4 11.4 0 1 0 8.1-19.5z" fill="#78c348"/><path fill="#452f27" d="M25.868 84.58l.19-13.699 1.17.016-.19 13.7zM76.1 70.9h1.2v13.7h-1.2zm-26.6 3.6h1.2v8.89h-1.2z"/><path fill="#452f27" d="M76.271 75.874l4.384-4.384.827.827-4.384 4.384zM22.58 71.256l.849-.848 3.648 3.648-.848.849z"/><path d="M27.2 80.9a11.2 11.2 0 0 0 6.8-2.2 7.7 7.7 0 0 0 4.5 1.4 7.8 7.8 0 0 0 6-2.8 8.9 8.9 0 0 0 13 0 7.8 7.8 0 0 0 11.6.4h.1a11.3 11.3 0 0 0 14.6 1.2h.2a11.4 11.4 0 0 0 4.6-8.1 8.8 8.8 0 0 1-8-.6A11.3 11.3 0 0 1 66.1 69a7.8 7.8 0 0 1-11.7-.3 8.9 8.9 0 0 1-13 0 7.8 7.8 0 0 1-6 2.8 7.7 7.7 0 0 1-4.5-1.4A11.3 11.3 0 0 1 16 69v.6a11.3 11.3 0 0 0 11.2 11.3z" style="mix-blend-mode:multiply" fill="#666" opacity=".15"/><path fill="none" stroke="#c6e288" stroke-linecap="round" stroke-miterlimit="10" stroke-width="2" d="M4 96.5h92.5"/><path d="M61.5 68a1.1 1.1 0 0 1-.1-2.2l9-1.1a1.1 1.1 0 1 1 .3 2.2l-9 1.1z" fill="#fdd09c"/><path d="M77.5 94.3a.4.4 0 0 0 .7.1l4.5-3.9a.4.4 0 0 0 0-.6l-2.3-2.7-2.7 2.3.9 1.1-.9 1.2a2.2 2.2 0 0 0-.2 2.3z" fill="#a97c50"/><path d="M77.5 94.3a.4.4 0 0 0 .7.1l4.5-3.9a.4.4 0 0 0 0-.6l-.2-.2-5.1 4.4z" fill="#603913"/><path d="M63.7 96.5a.4.4 0 0 0 .4.5H70a.4.4 0 0 0 .4-.4V93h-3.5v1.4l-1.5.3a2.2 2.2 0 0 0-1.7 1.6z" fill="#a97c50"/><path d="M63.7 96.5a.4.4 0 0 0 .4.5H70a.4.4 0 0 0 .4-.4v-.2h-6.6z" fill="#603913"/><path d="M77.5 89.8l-4.2-5a9.3 9.3 0 0 1-2-4.3L70 73.3l4-.7 1.3 7.2a5.3 5.3 0 0 0 1.1 2.4l4.2 5z" fill="#3a4752"/><path d="M66.7 93.5l-.6-8.9a10.1 10.1 0 0 1 .2-2.7l2.4-11.2 4 .8-2.4 11.2a6.1 6.1 0 0 0-.1 1.6l.6 8.9z" fill="#3a4752"/><path d="M67.7 70.8v5.9h5.7A1.7 1.7 0 0 0 75 75v-4.2z" fill="#3a4752"/><path d="M72.7 44.8l2.5.8a4.3 4.3 0 0 1 2.9 5.4l-.2.6a6.1 6.1 0 0 1-3.7 3.9l-1.1.4z" fill="#67443e"/><path d="M73.273 55.47l-3.058-.941a3 3 0 0 1-1.986-3.75l1.353-4.396 5.926 1.823-2.235 7.264z" fill="#fdd09c"/><path fill="#fdd09c" d="M73.344 57.312l-2.3-.032.063-4.52 2.3.033z"/><path d="M75.1 70.8h-7.4v-11a3.8 3.8 0 0 1 3.8-3.8h1.6a1.9 1.9 0 0 1 1.9 1.9v12.9h.1z" fill="#00a79d"/><circle cx="74.8" cy="51.8" r="1.2" transform="rotate(-72.9 74.71 51.834)" fill="#fdd09c"/><path d="M69.3 46.3c-.4 3.1 4.1 4.1 4.1 4.1l-.3 1.8 2-1.5 1-3.1-2.9-2.6s-3.6-1.8-3.9 1.3z" fill="#67443e"/><path fill="#00a79d" d="M73.5 55.3l-.1 1.3-3.8.8.4-1.3 3.5-.8z"/><path d="M75.8 57.2h.8a3.1 3.1 0 0 1 3.1 3.1v7.4a3.6 3.6 0 0 1-3.6 3.6h-1V58a.7.7 0 0 1 .7-.8z" fill="#f7ec6b"/><path d="M75.1 71.5L73 70a49.7 49.7 0 0 1-2.6-5.6c-1.5-4-1.6-6.5-.3-7.5 3.2-2.1 5.7.8 5.8.9v.9h-.2c-.6-.7-2.9-2.7-5.2-1.2s-.8 3 .5 6.6a48.9 48.9 0 0 0 2.5 5.4l1.5.7z" fill="#58595b"/><path d="M75 66.1v-.2l-.6-2.4-1.3-5a1.4 1.4 0 1 0-2.6.7l1.2 4.5h.1l.7 2.8 1 9.1a1.3 1.3 0 0 0 .6.9 1.7 1.7 0 0 0 1-1.5v-3.5h.5z" style="mix-blend-mode:multiply" fill="#61a8af"/><path d="M74.2 64.4h-2.6l-1.1-5.3a1.3 1.3 0 0 1 2.5-.5z" fill="#d3a581"/><path d="M75.2 75.4a1.3 1.3 0 0 1-1.2 1.4h-.1a1.3 1.3 0 0 1-1.3-1.2l-.6-9.1-.4-2.1h2.6l.3 1.7v.2z" fill="#fdd09c"/><path d="M71 64l-1-4.8a1.7 1.7 0 0 1 1.3-2h.4a1.7 1.7 0 0 1 1.7 1.4l1.2 5.4z" fill="#30bba5"/><path fill="#e7d0f7" d="M60.4 58l1.9 8.9-4 1.4-2.7-9.1 4.8-1.2z"/><path d="M61.5 64.7l1.1.9-.4.6-.8-.7s-.8-.7.1-.8z" fill="#fdd09c"/><path d="M57.9 61.1h-.1l-.2-.8v.3h-.2l-.3-.3.2.8h-.2l-.3-1.1a.1.1 0 0 1 0-.1h.3l.4.4.2-.6h.3l.3 1.1h-.1zm1.2-.4H59v-.2h-.4v.2h-.2v-1h.3l.7 1h-.2zm-.6-.8v.5h.3zm1.2.2v.3a.1.1 0 0 1 0 .1h-.2l-.3-1.1a.1.1 0 0 1 0-.1h.8l.2.3a.4.4 0 0 1 0 .3l-.3.2zm-.2-.6v.4h.4a.2.2 0 0 0 0-.2h-.5z" fill="#fafafb"/></g></svg>