<?xml version="1.0" encoding="utf-8"?>
<!-- Generator: Adobe Illustrator 16.0.0, SVG Export Plug-In . SVG Version: 6.00 Build 0)  -->
<!DOCTYPE svg PUBLIC "-//W3C//DTD SVG 1.1//EN" "http://www.w3.org/Graphics/SVG/1.1/DTD/svg11.dtd" [
	<!ENTITY st0 "fill:#48969B;">
	<!ENTITY st1 "fill:#ACCFF6;">
	<!ENTITY st2 "fill:#E5951F;">
	<!ENTITY st3 "fill:#4C9E8C;">
	<!ENTITY st4 "fill:#4EA190;">
	<!ENTITY st5 "fill:#800B0D;">
	<!ENTITY st6 "fill:#EA444E;">
	<!ENTITY st7 "fill:#545454;">
	<!ENTITY st8 "fill:none;stroke:#FFFFFF;stroke-miterlimit:10;">
	<!ENTITY st9 "fill:#8C1113;">
	<!ENTITY st10 "fill:#F2F2F2;">
	<!ENTITY st11 "fill:#F7B858;">
	<!ENTITY st12 "fill:#5DBCA8;">
	<!ENTITY st13 "fill:#F96E6E;">
	<!ENTITY st14 "fill:#F9B59E;">
	<!ENTITY st15 "fill:#C1C1C1;">
	<!ENTITY st16 "fill:#C2C2C2;">
	<!ENTITY st17 "fill:#C49669;">
	<!ENTITY st18 "fill:#C52126;">
	<!ENTITY st19 "opacity:0.49;fill:#808080;">
	<!ENTITY st20 "opacity:0.3;">
	<!ENTITY st21 "fill:#FEE677;">
	<!ENTITY st22 "fill:#FFC7B6;">
	<!ENTITY st23 "fill:#FFEE4D;">
	<!ENTITY st24 "fill:#FFFFFF;">
	<!ENTITY st25 "fill:#68C1C1;">
	<!ENTITY st26 "opacity:0.64;fill:#224F59;">
	<!ENTITY st27 "fill:#398B91;">
	<!ENTITY st28 "fill:#6D6E71;">
	<!ENTITY st29 "opacity:0.63;fill:#808080;">
	<!ENTITY st30 "fill:#D88D1C;">
	<!ENTITY st31 "fill:#DBDBDB;">
	<!ENTITY st32 "fill:#404040;">
	<!ENTITY st33 "fill:#414042;">
	<!ENTITY st34 "fill:#43D17D;">
]>
<svg version="1.1" id="圖層_1" xmlns="http://www.w3.org/2000/svg" xmlns:xlink="http://www.w3.org/1999/xlink" x="0px" y="0px"
	 width="100px" height="100px" viewBox="0 0 100 100" style="enable-background:new 0 0 100 100;" xml:space="preserve">
<g>
	<path style="&st21;" d="M100,50c0,27.613-22.383,50-49.998,50C22.385,100,0,77.613,0,50C0,22.385,22.385,0,50.002,0
		C77.617,0,100,22.385,100,50z"/>
	<circle style="&st8;" cx="50" cy="50" r="45"/>
	<g>
		<rect x="27.889" y="38.48" style="&st24;" width="21.713" height="41.164"/>
		<rect x="49.602" y="39.307" style="&st10;" width="21.712" height="40.338"/>
		<path style="&st23;" d="M45.992,44.531v7.484H31.495v-7.484c0-1.438,3.245-2.604,7.249-2.604
			C42.749,41.927,45.992,43.093,45.992,44.531z"/>
		<rect x="35.906" y="44.95" style="&st24;" width="5.676" height="7.065"/>
		<rect x="41.582" y="44.95" style="&st12;" width="2.721" height="7.065"/>
		<rect x="42.019" y="45.396" style="&st4;" width="1.847" height="6.176"/>
		<rect x="33.187" y="44.95" style="&st12;" width="2.72" height="7.065"/>
		<rect x="33.624" y="45.396" style="&st4;" width="1.845" height="6.176"/>
		<rect x="36.305" y="45.396" style="&st27;" width="2.192" height="6.176"/>
		<rect x="38.95" y="45.396" style="&st27;" width="2.193" height="6.176"/>
		<path style="&st23;" d="M45.992,58.161v7.484H31.495v-7.484c0-1.438,3.245-2.604,7.249-2.604
			C42.749,55.557,45.992,56.723,45.992,58.161z"/>
		<rect x="35.906" y="58.58" style="&st24;" width="5.676" height="7.065"/>
		<rect x="41.582" y="58.58" style="&st12;" width="2.721" height="7.065"/>
		<rect x="42.019" y="59.025" style="&st4;" width="1.847" height="6.176"/>
		<rect x="33.187" y="58.58" style="&st12;" width="2.72" height="7.065"/>
		<rect x="33.624" y="59.025" style="&st4;" width="1.845" height="6.176"/>
		<rect x="36.305" y="59.025" style="&st27;" width="2.192" height="6.176"/>
		<rect x="38.95" y="59.025" style="&st27;" width="2.193" height="6.176"/>
		<path style="&st23;" d="M67.705,44.531v7.484H53.208v-7.484c0-1.438,3.245-2.604,7.249-2.604S67.705,43.093,67.705,44.531z"/>
		<rect x="57.619" y="44.95" style="&st24;" width="5.676" height="7.065"/>
		<rect x="63.295" y="44.95" style="&st12;" width="2.72" height="7.065"/>
		<rect x="63.732" y="45.396" style="&st4;" width="1.845" height="6.176"/>
		<rect x="54.898" y="44.95" style="&st12;" width="2.721" height="7.065"/>
		<rect x="55.336" y="45.396" style="&st4;" width="1.847" height="6.176"/>
		<rect x="58.019" y="45.396" style="&st27;" width="2.192" height="6.176"/>
		<rect x="60.662" y="45.396" style="&st27;" width="2.192" height="6.176"/>
		<path style="&st23;" d="M67.705,58.161v7.484H53.208v-7.484c0-1.438,3.245-2.604,7.249-2.604S67.705,56.723,67.705,58.161z"/>
		<rect x="57.619" y="58.58" style="&st24;" width="5.676" height="7.065"/>
		<rect x="63.295" y="58.58" style="&st12;" width="2.72" height="7.065"/>
		<rect x="63.732" y="59.025" style="&st4;" width="1.845" height="6.176"/>
		<rect x="54.898" y="58.58" style="&st12;" width="2.721" height="7.065"/>
		<rect x="55.336" y="59.025" style="&st4;" width="1.847" height="6.176"/>
		<rect x="58.019" y="59.025" style="&st27;" width="2.192" height="6.176"/>
		<rect x="60.662" y="59.025" style="&st27;" width="2.192" height="6.176"/>
		<polygon style="&st29;" points="50.975,41.327 50.975,79.686 49.145,79.686 49.145,39.304 49.838,39.304 49.84,39.307 		"/>
		<g>
			<rect x="35.906" y="70.433" style="&st10;" width="5.676" height="7.067"/>
			<rect x="41.582" y="70.433" style="&st12;" width="2.721" height="7.067"/>
			<rect x="42.019" y="70.879" style="&st4;" width="1.847" height="6.176"/>
			<rect x="33.187" y="70.433" style="&st12;" width="2.72" height="7.067"/>
			<rect x="33.624" y="70.879" style="&st4;" width="1.845" height="6.176"/>
			<rect x="36.305" y="70.879" style="&st0;" width="2.192" height="6.176"/>
			<rect x="38.95" y="70.879" style="&st0;" width="2.193" height="6.176"/>
		</g>
		<rect x="26.456" y="68.542" style="&st2;" width="46.216" height="1.231"/>
		<polygon style="&st13;" points="72.672,68.542 26.456,68.542 27.889,67.084 71.313,67.084 72.607,68.471 		"/>
		<rect x="42.354" y="69.773" style="&st11;" width="1.175" height="9.912"/>
		<rect x="42.354" y="69.773" style="&st30;" width="1.177" height="1.422"/>
		<rect x="57.78" y="70.04" style="&st12;" width="5.351" height="9.646"/>
		<rect x="63.131" y="70.04" style="&st12;" width="2.807" height="9.646"/>
		<rect x="58.129" y="78.598" style="&st26;" width="4.655" height="0.836"/>
		<rect x="58.129" y="78.598" style="&st19;" width="4.655" height="0.836"/>
		<rect x="58.129" y="70.448" style="&st26;" width="4.655" height="8.149"/>
		<rect x="63.434" y="70.433" style="&st3;" width="2.204" height="8.861"/>
		<rect x="54.974" y="70.04" style="&st12;" width="2.807" height="9.646"/>
		<rect x="55.275" y="70.433" style="&st3;" width="2.205" height="8.861"/>
		<rect x="69.587" y="69.773" style="&st11;" width="1.175" height="9.913"/>
		<rect x="69.587" y="69.773" style="&st30;" width="1.175" height="1.422"/>
		<rect x="55.671" y="69.773" style="&st11;" width="1.176" height="9.871"/>
		<rect x="55.671" y="69.773" style="&st30;" width="1.176" height="1.422"/>
		<rect x="28.256" y="69.773" style="&st11;" width="1.175" height="9.912"/>
		<rect x="28.256" y="69.773" style="&st30;" width="1.175" height="1.422"/>
	</g>
	<g>
		<g>
			<g>
				<g>
					<polygon style="&st18;" points="68.86,38.642 69.877,38.642 69.877,37.284 					"/>
					<polygon style="&st18;" points="73.689,38.642 72.671,38.642 72.671,37.284 					"/>
				</g>
				<rect x="69.796" y="34.982" style="&st13;" width="2.929" height="44.981"/>
				<rect x="69.121" y="54.894" style="&st13;" width="4.276" height="25.07"/>
				<rect x="69.796" y="35.958" style="&st5;" width="2.929" height="1.164"/>
				<rect x="69.121" y="34.929" style="&st13;" width="4.276" height="1.794"/>
				<path style="&st33;" d="M73.094,54.638v-0.253c0-0.476-0.405-0.862-0.901-0.862h-1.863c-0.498,0-0.903,0.387-0.903,0.862v0.253
					h-0.305v1.173h4.276v-1.173H73.094z"/>
			</g>
			<g>
				<g>
					<polygon style="&st18;" points="25.437,38.642 26.456,38.642 26.456,37.284 					"/>
					<polygon style="&st18;" points="30.268,38.642 29.247,38.642 29.247,37.284 					"/>
				</g>
				<rect x="26.372" y="34.982" style="&st13;" width="2.93" height="44.981"/>
				<rect x="25.699" y="54.894" style="&st13;" width="4.274" height="25.07"/>
				<rect x="26.372" y="35.958" style="&st5;" width="2.93" height="1.208"/>
				<rect x="25.699" y="34.929" style="&st13;" width="4.274" height="1.794"/>
				<path style="&st33;" d="M29.67,54.638v-0.253c0-0.476-0.404-0.862-0.9-0.862h-1.864c-0.5,0-0.9,0.387-0.9,0.862v0.253h-0.306
					v1.173h4.274v-1.173H29.67z"/>
			</g>
		</g>
		<g>
			<polygon style="&st13;" points="23.226,41.071 75.79,41.071 76.19,38.479 22.936,38.479 			"/>
			<polygon style="&st5;" points="76.026,39.54 76.146,38.761 22.968,38.761 23.055,39.54 			"/>
			<rect x="21.99" y="38.347" style="&st13;" width="55.146" height="0.781"/>
			<polygon style="&st18;" points="23.226,34.997 75.79,34.997 76.19,32.406 22.936,32.406 			"/>
			<rect x="21.99" y="32.272" style="&st18;" width="55.146" height="0.781"/>
		</g>
		<path style="&st9;" d="M75.919,34.169l0.271-1.763H22.936l0.197,1.759C34.796,34.691,64.256,34.693,75.919,34.169z"/>
		<rect x="47.423" y="34.592" style="&st18;" width="4.28" height="6.266"/>
		<rect x="47.94" y="34.836" style="&st33;" width="3.244" height="5.336"/>
		<path style="&st13;" d="M81.785,32.97c-15.54,0.935-48.904,0.935-64.444,0c0.047-0.721,0.095-1.442,0.142-2.164
			c15.445,0.931,48.716,0.931,64.16,0C81.69,31.527,81.738,32.249,81.785,32.97z"/>
		<path style="&st18;" d="M81.754,32.499c-0.037-0.564-0.074-1.128-0.111-1.693c-15.444,0.931-48.715,0.931-64.16,0
			c-0.038,0.565-0.073,1.129-0.11,1.693C32.89,33.407,66.231,33.407,81.754,32.499z"/>
		<path style="&st13;" d="M82.444,32.059c-15.98,0.962-49.783,0.962-65.765,0c0.051-0.741,0.1-1.483,0.147-2.225
			c15.883,0.957,49.588,0.957,65.472,0C82.348,30.575,82.396,31.317,82.444,32.059z"/>
		<path style="&st28;" d="M16.811,30.092c-0.02,0.276-0.036,0.555-0.054,0.832c15.931,0.904,49.682,0.904,65.614,0
			c-0.019-0.277-0.038-0.556-0.056-0.832C66.42,30.999,32.707,30.999,16.811,30.092z"/>
		<path style="&st13;" d="M83.765,30.398c-16.858,1.016-51.545,1.016-68.402,0c-0.039-0.422-0.039-0.705,0.155-0.827
			c16.753,1.01,51.337,1.01,68.093,0C83.799,29.732,83.712,29.616,83.765,30.398z"/>
	</g>
</g>
</svg>
