<?xml version="1.0" encoding="utf-8"?>
<!-- Generator: Adobe Illustrator 16.0.0, SVG Export Plug-In . SVG Version: 6.00 Build 0)  -->
<!DOCTYPE svg PUBLIC "-//W3C//DTD SVG 1.1//EN" "http://www.w3.org/Graphics/SVG/1.1/DTD/svg11.dtd" [
	<!ENTITY st0 "fill:#E36A5C;">
	<!ENTITY st1 "fill:#E5D6C7;">
	<!ENTITY st2 "fill:#545454;">
	<!ENTITY st3 "fill:none;stroke:#FFFFFF;stroke-miterlimit:10;">
	<!ENTITY st4 "fill:#242C3C;">
	<!ENTITY st5 "fill:#5D9EA6;">
	<!ENTITY st6 "fill:#92B7EF;">
	<!ENTITY st7 "fill:#C2E97E;">
	<!ENTITY st8 "fill:#C49669;">
	<!ENTITY st9 "fill:#FC6738;">
	<!ENTITY st10 "fill:#999999;">
	<!ENTITY st11 "opacity:0.3;">
	<!ENTITY st12 "fill:#FEE677;">
	<!ENTITY st13 "fill:#FF9B74;">
	<!ENTITY st14 "fill:#FFEE4D;">
	<!ENTITY st15 "fill:#FFFFFF;">
	<!ENTITY st16 "fill:none;stroke:#FFFFFF;stroke-width:0.5913;stroke-miterlimit:10;">
	<!ENTITY st17 "fill:#6DBEC4;">
	<!ENTITY st18 "fill:#404040;">
	<!ENTITY st19 "fill:#45A36F;">
]>
<svg version="1.1" id="圖層_1" xmlns="http://www.w3.org/2000/svg" xmlns:xlink="http://www.w3.org/1999/xlink" x="0px" y="0px"
	 width="100px" height="100px" viewBox="0 0 100 100" style="enable-background:new 0 0 100 100;" xml:space="preserve">
<g>
	<circle style="&st12;" cx="50" cy="50" r="49.999"/>
	<circle style="&st3;" cx="50" cy="50" r="44.999"/>
	<g>
		<g>
			<path style="&st1;" d="M60.093,62.448H55.72v-5.184h4.646l-4.646-3.748H43.762l-4.64,3.748h4.642v5.184h-4.371l-5.121,4.398
				h5.121v8.093h20.701v-8.093h5.121L60.093,62.448z M41.523,67.577h3.083 M48.668,61.188H45.9 M52.729,73.961h-5.972v-5.869h5.972
				V73.961z M50.815,58.427h2.774 M54.885,67.577h3.075"/>
			<rect x="45.593" y="58.119" style="&st8;" width="2.769" height="2.763"/>
			<rect x="41.479" y="67.453" style="&st8;" width="3.079" height="3.08"/>
			<rect x="51.124" y="58.119" style="&st8;" width="2.772" height="2.763"/>
			<rect x="54.567" y="67.453" style="&st8;" width="3.083" height="3.08"/>
		</g>
		<polygon style="&st13;" points="60.41,57.262 55.758,53.453 55.774,53.451 56.55,52.186 55.966,52.186 54.249,53.438 
			45.203,53.438 43.528,52.223 42.945,52.223 43.715,53.479 39.091,57.262 		"/>
		<polygon style="&st13;" points="34.272,66.871 65.209,66.871 60.105,62.429 60.15,62.425 60.926,61.16 60.343,61.16 
			58.612,62.425 41.008,62.388 39.28,61.131 38.699,61.131 39.468,62.382 39.411,62.382 		"/>
	</g>
	<g>
		<path style="&st8;" d="M82.862,57.961c-0.591,1.034-0.161,2.311,0.085,2.988c0.376,1.03,0.155,1.537,0.136,1.861
			c-0.017,0.335-0.111,0.528-0.221,0.639c-0.308-0.486-0.692-0.84-0.692-0.84v-1.314c0.003-0.02,0.007-0.037,0.007-0.057
			c0-0.401-1.13-0.763-2.88-0.992v-7.991h-0.71v7.911c-1.023-0.105-2.204-0.169-3.472-0.178v-7.733h-0.709v7.734
			c-1.27,0.015-2.452,0.082-3.472,0.188v-7.923h-0.71v8.009c-1.683,0.229-2.762,0.579-2.762,0.975v1.371
			c0,0-0.385,0.355-0.693,0.842c-0.11-0.108-0.206-0.303-0.224-0.641c-0.018-0.324-0.239-0.831,0.137-1.861
			c0.247-0.678,0.677-1.954,0.085-2.988c-0.591-1.037-2.145-1.12-2.943-1.12v1.409c0,0,1.274-0.196,1.776,0.277
			c0.275,0.261,0.384,0.866,0.118,1.361c-0.453,0.837-0.572,1.624-0.589,2.103c-0.02,0.563,0.12,1.864,0.34,2.289
			c0.239,0.461,0.579,0.659,0.87,0.697c0.002,0,0.006,0,0.008,0.001c-0.02,0.642,0.088,1.333,0.316,1.833
			c0.342,0.749,0.967,1.687,2.192,2.449c-0.043,0.125-0.072,0.267-0.072,0.421v3.551c0,0.495,0.267,0.896,0.592,0.896h1.499
			c0.328,0,0.593-0.4,0.593-0.896v-2.947c0.532,0.124,1.113,0.224,1.765,0.285c0.096,0.007,0.201,0.008,0.301,0.013v3.888
			c0,0.369,0.257,0.822,0.577,0.822c0,0,0.512,0.166,0.839,0.15c0.263-0.011,0.692-0.15,0.692-0.15c0.318,0,0.577-0.453,0.577-0.822
			v-3.893c0.06-0.006,0.123-0.005,0.181-0.008c0.467-0.046,0.896-0.111,1.3-0.187v2.849c0,0.495,0.265,0.896,0.593,0.896h1.497
			c0.328,0,0.592-0.4,0.592-0.896v-3.551c0-0.065-0.004-0.129-0.012-0.19c1.497-0.796,2.221-1.853,2.598-2.68
			c0.228-0.5,0.338-1.191,0.318-1.834c0,0,0.003,0,0.004,0c0.291-0.038,0.631-0.236,0.871-0.697c0.219-0.425,0.358-1.727,0.34-2.289
			c-0.018-0.479-0.137-1.266-0.59-2.103c-0.265-0.495-0.157-1.101,0.119-1.361c0.503-0.474,1.776-0.277,1.776-0.277v-1.409
			C85.007,56.841,83.453,56.924,82.862,57.961z"/>
		<path style="&st16;" d="M70.991,46.319c-1.074,0.768-1.226,1.534-0.689,1.994c0.537,0.461,1.149,0.768,0.844,1.304
			c-0.307,0.536-0.922,1.227-0.922,1.227"/>
		<path style="&st16;" d="M75.439,46.319c-1.073,0.768-1.227,1.534-0.69,1.994c0.538,0.461,1.151,0.768,0.846,1.304
			c-0.308,0.536-0.922,1.227-0.922,1.227"/>
		<path style="&st16;" d="M79.734,46.319c-1.073,0.768-1.227,1.534-0.691,1.994c0.538,0.461,1.152,0.768,0.846,1.304
			c-0.307,0.536-0.921,1.227-0.921,1.227"/>
	</g>
	<g>
		<g>
			<g>
				<g>
					<g>
						<g>
							<path style="&st15;" d="M27.825,54.55c0,0.348-0.285,0.633-0.632,0.633h-3.794c-0.348,0-0.631-0.285-0.631-0.633v-6.321
								c0-0.348,0.283-0.632,0.631-0.632h3.794c0.347,0,0.632,0.284,0.632,0.632V54.55z"/>
						</g>
					</g>
				</g>
			</g>
			<g>
				<g>
					<g>
						<g>
							<path style="&st15;" d="M32.882,67.195c0,0.347-0.284,0.631-0.632,0.631H18.342c-0.348,0-0.632-0.284-0.632-0.631V53.287
								c0-0.35,0.285-0.634,0.632-0.634H32.25c0.348,0,0.632,0.284,0.632,0.634V67.195z"/>
						</g>
					</g>
				</g>
			</g>
			<g>
				<g>
					<g>
						<g>
							<g>
								<polygon style="&st17;" points="15.161,60.261 18.322,75.413 25.296,75.413 25.296,57.712 								"/>
							</g>
						</g>
					</g>
				</g>
				<g>
					<g>
						<g>
							<g>
								<polygon style="&st5;" points="35.392,60.241 25.296,57.712 25.296,75.413 32.231,75.413 								"/>
							</g>
						</g>
					</g>
				</g>
			</g>
			<g>
				<g>
					<g>
						<g>
							<rect x="18.959" y="54.834" style="&st4;" width="12.635" height="0.633"/>
						</g>
					</g>
				</g>
			</g>
			<g>
				<g>
					<g>
						<g>
							<rect x="18.959" y="56.099" style="&st4;" width="12.635" height="0.632"/>
						</g>
					</g>
				</g>
			</g>
			<g>
				<g>
					<g>
						<g>
							<rect x="22.768" y="49.452" style="&st0;" width="5.057" height="1.267"/>
						</g>
					</g>
				</g>
			</g>
		</g>
	</g>
	<g>
		<path style="&st9;" d="M61.267,33.491L61.267,33.491c-1.492,2.205-3.647,3.938-6.188,4.926c-0.181,0.082-0.363,0.191-0.492,0.345
			l-4.362,9.443l-4.361-9.443c-0.152-0.173-0.336-0.306-0.536-0.363c-2.516-0.988-4.654-2.713-6.145-4.907
			c-1.472-2.146-2.337-4.745-2.337-7.545c0-3.709,1.5-7.031,3.919-9.45c2.419-2.415,5.771-3.93,9.46-3.93
			c3.686,0,7.044,1.515,9.46,3.93c2.416,2.419,3.919,5.741,3.919,9.45C63.604,28.746,62.748,31.346,61.267,33.491L61.267,33.491z"/>
		<path style="&st15;" d="M50.225,18.267L50.225,18.267c-2.118,0-4.027,0.863-5.43,2.248c-1.386,1.386-2.249,3.31-2.249,5.432
			c0,2.086,0.84,4.002,2.208,5.381l0.041,0.047c1.403,1.387,3.312,2.252,5.43,2.252c2.112,0,4.043-0.865,5.429-2.252l0,0
			c1.386-1.393,2.25-3.311,2.25-5.428c0-2.122-0.864-4.046-2.25-5.432C54.269,19.13,52.343,18.267,50.225,18.267L50.225,18.267z"/>
		<path style="&st10;" d="M53.561,29.28L53.561,29.28c-0.85,0.857-2.038,1.39-3.34,1.39c-1.306,0-2.486-0.532-3.336-1.39
			l-0.032-0.022c-0.838-0.856-1.357-2.03-1.357-3.313c0-1.299,0.531-2.484,1.389-3.341c0.851-0.854,2.03-1.394,3.336-1.394
			c1.303,0,2.49,0.54,3.34,1.394c0.856,0.856,1.38,2.042,1.38,3.341C54.941,27.252,54.417,28.438,53.561,29.28L53.561,29.28z"/>
	</g>
</g>
</svg>
