<?xml version="1.0" encoding="utf-8"?>
<!-- Generator: Adobe Illustrator 16.0.0, SVG Export Plug-In . SVG Version: 6.00 Build 0)  -->
<!DOCTYPE svg PUBLIC "-//W3C//DTD SVG 1.1//EN" "http://www.w3.org/Graphics/SVG/1.1/DTD/svg11.dtd" [
	<!ENTITY st0 "fill:#ACCFF6;">
	<!ENTITY st1 "fill:#E34D7F;">
	<!ENTITY st2 "fill:#828282;">
	<!ENTITY st3 "fill:#B7EDCC;">
	<!ENTITY st4 "fill:#EDEDED;">
	<!ENTITY st5 "fill:#545454;">
	<!ENTITY st6 "fill:none;stroke:#FFFFFF;stroke-miterlimit:10;">
	<!ENTITY st7 "opacity:0.5;fill:#FFFFFF;">
	<!ENTITY st8 "fill:#F7A83B;">
	<!ENTITY st9 "fill:#F96E6E;">
	<!ENTITY st10 "fill:#C2C2C2;">
	<!ENTITY st11 "fill:#C2E97E;">
	<!ENTITY st12 "fill:#FBCA61;">
	<!ENTITY st13 "fill:#FBD764;">
	<!ENTITY st14 "fill:#FC6738;">
	<!ENTITY st15 "fill:#FCEFB9;">
	<!ENTITY st16 "fill:#FEE677;">
	<!ENTITY st17 "fill:#FFA3A3;">
	<!ENTITY st18 "fill:#FFFFFF;">
	<!ENTITY st19 "fill:none;">
	<!ENTITY st20 "fill:#CA2F59;">
	<!ENTITY st21 "fill:#9C9C9C;">
	<!ENTITY st22 "fill:#68C1C1;">
	<!ENTITY st23 "fill:#9DCED1;">
	<!ENTITY st24 "fill:#D4B99B;">
	<!ENTITY st25 "fill:#D9E9F9;">
	<!ENTITY st26 "fill:#DBDBDB;">
	<!ENTITY st27 "fill:#404040;">
	<!ENTITY st28 "fill:#419CE0;">
	<!ENTITY st29 "fill:#43D17D;">
]>
<svg version="1.1" id="圖層_1" xmlns="http://www.w3.org/2000/svg" xmlns:xlink="http://www.w3.org/1999/xlink" x="0px" y="0px"
	 width="100px" height="100px" viewBox="0 0 100 100" style="enable-background:new 0 0 100 100;" xml:space="preserve">
<g>
	<circle style="&st11;" cx="50" cy="50" r="49.999"/>
	<circle style="&st6;" cx="50" cy="50" r="44.999"/>
	<g>
		<g>
			<rect x="23.327" y="31.378" style="&st18;" width="53.795" height="45.52"/>
		</g>
		<g>
			<g>
				<g>
					<rect x="66.776" y="39.654" style="&st10;" width="4.139" height="4.139"/>
				</g>
			</g>
			<g>
				<g>
					<rect x="60.569" y="39.654" style="&st10;" width="4.139" height="4.139"/>
				</g>
			</g>
			<g>
				<g>
					<rect x="54.362" y="39.654" style="&st10;" width="4.139" height="4.139"/>
				</g>
			</g>
			<g>
				<g>
					<rect x="48.155" y="39.654" style="&st10;" width="4.139" height="4.139"/>
				</g>
			</g>
			<g>
				<g>
					<rect x="41.948" y="39.654" style="&st10;" width="4.139" height="4.139"/>
				</g>
			</g>
		</g>
		<g>
			<g>
				<g>
					<rect x="66.776" y="45.861" style="&st10;" width="4.139" height="4.138"/>
				</g>
			</g>
			<g>
				<g>
					<rect x="60.569" y="45.861" style="&st10;" width="4.139" height="4.138"/>
				</g>
			</g>
			<g>
				<g>
					<rect x="54.362" y="45.861" style="&st10;" width="4.139" height="4.138"/>
				</g>
			</g>
			<g>
				<g>
					<rect x="48.155" y="45.861" style="&st10;" width="4.139" height="4.138"/>
				</g>
			</g>
			<g>
				<g>
					<rect x="41.948" y="45.861" style="&st10;" width="4.139" height="4.138"/>
				</g>
			</g>
			<g>
				<g>
					<rect x="35.741" y="45.861" style="&st14;" width="4.139" height="4.138"/>
				</g>
			</g>
			<g>
				<g>
					<rect x="29.534" y="45.861" style="&st10;" width="4.139" height="4.138"/>
				</g>
			</g>
		</g>
		<g>
			<g>
				<g>
					<rect x="66.776" y="52.069" style="&st10;" width="4.139" height="4.138"/>
				</g>
			</g>
			<g>
				<g>
					<rect x="60.569" y="52.069" style="&st10;" width="4.139" height="4.138"/>
				</g>
			</g>
			<g>
				<g>
					<rect x="54.362" y="52.069" style="&st10;" width="4.139" height="4.138"/>
				</g>
			</g>
			<g>
				<g>
					<rect x="48.155" y="52.069" style="&st14;" width="4.139" height="4.138"/>
				</g>
			</g>
			<g>
				<g>
					<rect x="41.948" y="52.069" style="&st10;" width="4.139" height="4.138"/>
				</g>
			</g>
			<g>
				<g>
					<rect x="35.741" y="52.069" style="&st10;" width="4.139" height="4.138"/>
				</g>
			</g>
			<g>
				<g>
					<rect x="29.534" y="52.069" style="&st10;" width="4.139" height="4.138"/>
				</g>
			</g>
		</g>
		<g>
			<g>
				<g>
					<rect x="66.776" y="58.276" style="&st10;" width="4.139" height="4.138"/>
				</g>
			</g>
			<g>
				<g>
					<rect x="60.569" y="58.276" style="&st10;" width="4.139" height="4.138"/>
				</g>
			</g>
			<g>
				<g>
					<rect x="54.362" y="58.276" style="&st10;" width="4.139" height="4.138"/>
				</g>
			</g>
			<g>
				<g>
					<rect x="48.155" y="58.276" style="&st10;" width="4.139" height="4.138"/>
				</g>
			</g>
			<g>
				<g>
					<rect x="41.948" y="58.276" style="&st10;" width="4.139" height="4.138"/>
				</g>
			</g>
			<g>
				<g>
					<rect x="35.741" y="58.276" style="&st10;" width="4.139" height="4.138"/>
				</g>
			</g>
			<g>
				<g>
					<rect x="29.534" y="58.276" style="&st10;" width="4.139" height="4.138"/>
				</g>
			</g>
		</g>
		<g>
			<g>
				<g>
					<rect x="48.155" y="64.482" style="&st10;" width="4.139" height="4.138"/>
				</g>
			</g>
			<g>
				<g>
					<rect x="41.948" y="64.482" style="&st10;" width="4.139" height="4.138"/>
				</g>
			</g>
			<g>
				<g>
					<rect x="35.741" y="64.482" style="&st10;" width="4.139" height="4.138"/>
				</g>
			</g>
			<g>
				<g>
					<rect x="29.534" y="64.482" style="&st14;" width="4.139" height="4.138"/>
				</g>
			</g>
		</g>
		<g>
			<rect x="23.327" y="23.102" style="&st14;" width="53.795" height="8.276"/>
		</g>
		<g>
			<rect x="23.327" y="31.378" style="&st10;" width="53.795" height="1.034"/>
		</g>
	</g>
</g>
</svg>
