<?xml version="1.0" encoding="utf-8"?>
<!-- Generator: Adobe Illustrator 16.0.0, SVG Export Plug-In . SVG Version: 6.00 Build 0)  -->
<!DOCTYPE svg PUBLIC "-//W3C//DTD SVG 1.1//EN" "http://www.w3.org/Graphics/SVG/1.1/DTD/svg11.dtd" [
	<!ENTITY st0 "fill:#ACCFF6;">
	<!ENTITY st1 "fill:#AEDD47;">
	<!ENTITY st2 "fill:#E34D7F;">
	<!ENTITY st3 "fill:#1C75BC;">
	<!ENTITY st4 "fill:#52AA52;">
	<!ENTITY st5 "fill:none;stroke:#FFFFFF;stroke-miterlimit:10;">
	
		<!ENTITY st6 "fill:none;stroke:#C779D3;stroke-width:4.252;stroke-linecap:round;stroke-linejoin:round;stroke-dasharray:0.2467,8.539;">
	<!ENTITY st7 "fill:#27AAE1;">
	<!ENTITY st8 "fill-rule:evenodd;clip-rule:evenodd;fill:none;stroke:#3A63C9;stroke-width:0.4496;stroke-miterlimit:10;">
	<!ENTITY st9 "fill:#C2C2C2;">
	<!ENTITY st10 "opacity:0.5;fill-rule:evenodd;clip-rule:evenodd;fill:#FFFFFF;">
	<!ENTITY st11 "fill:#C779D3;">
	<!ENTITY st12 "fill:#FC6738;">
	<!ENTITY st13 "fill:#999999;">
	<!ENTITY st14 "fill:#FCEFB9;">
	<!ENTITY st15 "fill-rule:evenodd;clip-rule:evenodd;">
	<!ENTITY st16 "fill:#FFC7B6;">
	<!ENTITY st17 "fill:#FFEE4D;">
	<!ENTITY st18 "fill:#FFFFFF;">
	<!ENTITY st19 "fill:#CA2F59;">
	<!ENTITY st20 "fill:#68C1C1;">
	<!ENTITY st21 "fill-rule:evenodd;clip-rule:evenodd;fill:#F7A83B;">
	<!ENTITY st22 "fill-rule:evenodd;clip-rule:evenodd;fill:#92B7EF;">
	<!ENTITY st23 "fill-rule:evenodd;clip-rule:evenodd;fill:#FFFFFF;">
	<!ENTITY st24 "fill:none;stroke:#C779D3;stroke-width:4.252;stroke-linecap:round;stroke-linejoin:round;">
	<!ENTITY st25 "fill:#A7A9AC;">
	<!ENTITY st26 "fill:#DBDBDB;">
	<!ENTITY st27 "fill:#414042;">
	<!ENTITY st28 "fill:#419CE0;">
]>
<svg version="1.1" id="圖層_1" xmlns="http://www.w3.org/2000/svg" xmlns:xlink="http://www.w3.org/1999/xlink" x="0px" y="0px"
	 width="100px" height="100px" viewBox="0 0 100 100" style="enable-background:new 0 0 100 100;" xml:space="preserve">
<g>
	<circle style="&st11;" cx="50" cy="50" r="49.999"/>
	<circle style="&st5;" cx="50" cy="50" r="44.999"/>
	<g>
		<g>
			<g>
				<g>
					<polygon style="&st20;" points="86.771,27.99 86.771,67.58 13.681,67.58 13.681,27.99 86.771,27.99 					"/>
				</g>
			</g>
		</g>
		<g>
			<g>
				<rect x="15.204" y="29.512" style="&st26;" width="70.043" height="36.545"/>
			</g>
			<g>
				<g>
					<polygon style="&st26;" points="56.317,29.512 85.247,29.512 82.202,26.468 56.317,26.468 					"/>
				</g>
				<g>
					<polygon style="&st26;" points="44.135,26.468 18.249,26.468 15.204,29.512 44.135,29.512 					"/>
				</g>
			</g>
			<g>
				<polygon style="&st9;" points="85.247,66.057 15.204,66.057 18.249,63.011 82.202,63.011 				"/>
			</g>
			<g>
				<path style="&st18;" d="M53.27,26.468c-1.682,0-3.044,1.362-3.044,3.044v36.545c0-1.683,1.362-3.046,3.044-3.046h28.932V26.468
					H53.27z"/>
			</g>
			<g>
				<path style="&st18;" d="M47.181,26.468c1.684,0,3.045,1.362,3.045,3.044v36.545c0-1.683-1.361-3.046-3.045-3.046H18.249V26.468
					H47.181z"/>
			</g>
		</g>
		<rect x="42.331" y="28.762" style="&st16;" width="3.609" height="9.608"/>
		<rect x="55.128" y="50.377" style="&st26;" width="11.142" height="8.533"/>
		<rect x="67.729" y="50.377" style="&st26;" width="11.142" height="8.533"/>
		<rect x="55.128" y="35.197" style="&st26;" width="11.142" height="9.85"/>
		<rect x="67.729" y="35.197" style="&st26;" width="11.142" height="9.85"/>
		<rect x="55.128" y="30.859" style="&st26;" width="11.142" height="2.707"/>
		<rect x="67.729" y="30.859" style="&st26;" width="11.142" height="2.707"/>
		<rect x="55.128" y="46.344" style="&st26;" width="11.142" height="2.707"/>
		<rect x="67.729" y="46.344" style="&st26;" width="11.142" height="2.707"/>
		<path style="&st4;" d="M32.301,30.065c-0.002-0.072,0.002-0.107,0.035-0.167c0.024-0.048,0.024-0.077,0.024-0.134
			c0-0.127,0.055-0.138,0.134-0.213c0.038-0.037,0.042-0.085,0.086-0.113c0.035-0.021,0.099-0.034,0.09-0.098
			c0.052-0.025,0.142-0.044,0.18-0.083c0.052-0.056,0.038-0.112,0.129-0.123c0.126-0.019,0.185,0.2,0.297,0.084
			c0.101-0.1,0.161-0.189,0.167-0.341c0.003-0.091-0.062-0.104-0.096-0.176c-0.028-0.061-0.006-0.159-0.005-0.226
			c0.123-0.031,0.183-0.07,0.218-0.192c0.029-0.101,0.091-0.164,0.133-0.255c0.04-0.086,0.021-0.213,0.12-0.26
			c0.046-0.021,0.103-0.013,0.151-0.023c0.062-0.013,0.105-0.04,0.153-0.082c0.098-0.084,0.154-0.105,0.283-0.07
			c0.094,0.024,0.212,0.042,0.257,0.143c0.046,0.103,0.028,0.225,0.073,0.326c0.041,0.098,0.112,0.177,0.157,0.271
			c0.053,0.111,0.057,0.232,0.066,0.351c0.011,0.112,0.043,0.184,0.112,0.271c0.088,0.005,0.186,0.063,0.265,0.099
			c0.103,0.05,0.226,0.032,0.278,0.144c0.045,0.097,0.05,0.203,0.137,0.269c0.09,0.067,0.217,0.103,0.327,0.072
			c0.118-0.035,0.177-0.089,0.298-0.02c0.054,0.03,0.24,0.169,0.283,0.142c0.037-0.022,0.014-0.094,0.062-0.12
			c0.041-0.023,0.142-0.019,0.187-0.016c0.063,0.009,0.231,0.053,0.24,0.122c0.007,0.053-0.051,0.117-0.053,0.174
			c-0.005,0.065,0.024,0.113,0.051,0.172c0.049,0.111,0.035,0.274,0.024,0.395c-0.091,0-0.107,0.078-0.113,0.152
			c-0.005,0.057-0.011,0.05-0.039,0.095c-0.022,0.036-0.024,0.064-0.021,0.106c0.007,0.069,0.021,0.138,0.031,0.203
			c0.011,0.097-0.041,0.104-0.098,0.163c-0.056,0.059-0.05,0.123-0.05,0.199c0,0.033-0.007,0.08,0.002,0.111
			c0.009,0.03,0.035,0.045,0.05,0.069c0.018,0.028,0.026,0.062,0.033,0.094c0.014,0.055,0.025,0.046,0.057,0.082
			c0.049,0.056,0.047,0.117,0.081,0.183c0.045,0.083-0.049,0.218-0.092,0.3c-0.053,0.103-0.116,0.197-0.187,0.289
			c-0.079,0.1-0.172,0.175-0.274,0.256c-0.086,0.068-0.108,0.145-0.141,0.248c-0.029,0.096-0.09,0.218-0.023,0.31
			c0.054,0.077,0.176,0.162,0.267,0.189c0.133,0.04,0.292-0.018,0.43-0.007c0.146,0.01,0.228,0.098,0.339,0.188
			c0.069,0.056,0.36,0.198,0.397,0.045c0.078-0.021,0.112,0.024,0.114,0.093c0.001,0.036-0.001,0.068,0.007,0.104
			c0.028,0.104,0.063,0.218,0.097,0.32c0.029,0.084,0.069,0.165,0.074,0.254c0,0.091,0.014,0.181,0.013,0.272
			c-0.002,0.104-0.056,0.129-0.108,0.211c-0.037,0.057-0.061,0.118-0.101,0.176c-0.103,0.146,0.11,0.177,0.209,0.243
			c0.033,0.025,0.068,0.053,0.109,0.061c0.047,0.01,0.101-0.016,0.138,0.025c0.086,0.096-0.009,0.249,0.057,0.356
			c0.034,0.056,0.087,0.084,0.118,0.148c0.022,0.051,0.057,0.114,0.062,0.172c0.006,0.072-0.004,0.158,0.013,0.229
			c0.02,0.082,0.111,0.061,0.158,0.127c0.033,0.047,0.024,0.109,0.055,0.155c0.042,0.063,0.114,0.152,0.176,0.193
			c0.045,0.03,0.106,0.029,0.154,0.056c0.05,0.029,0.085,0.082,0.111,0.132c0.025,0.041,0.031,0.054,0.07,0.075
			c0.029,0.013,0.062,0.014,0.093,0.034c0.056,0.037,0.091,0.128,0.153,0.155c0.052,0.022,0.036-0.01,0.063-0.046
			c0.025-0.035,0.051-0.039,0.088-0.056c0.066,0.068,0.016,0.119-0.021,0.177c-0.044,0.066-0.063,0.119-0.063,0.199
			c0.002,0.076-0.014,0.149-0.014,0.228c0,0.084-0.021,0.161-0.012,0.238c0.066,0.01,0.134-0.003,0.193,0.02
			c0.055,0.02,0.117,0.033,0.167,0.061c0.023,0.156-0.168,0.278-0.263,0.383c-0.085,0.095-0.226,0.34-0.307,0.111
			c-0.091-0.019-0.096,0.125-0.115,0.176c-0.023,0.061-0.06,0.132-0.064,0.195c-0.005,0.108-0.041,0.244-0.11,0.334
			c-0.042,0.055-0.104,0.055-0.141,0.121c-0.044,0.082-0.055,0.175-0.094,0.261c-0.049,0.108-0.132,0.193-0.18,0.303
			c-0.022,0.056-0.048,0.103-0.082,0.148c-0.026,0.037-0.071,0.075-0.074,0.122c-0.005,0.077,0.085,0.174,0.11,0.25
			c0.031,0.096,0.069,0.186,0.126,0.271c0.065,0.103,0.147,0.106,0.262,0.11c0.209,0.011,0.386,0.094,0.576,0.17
			c0.107,0.047,0.224,0.048,0.337,0.074c0.087,0.021,0.163,0.055,0.221,0.119c0.064,0.077,0.135,0.138,0.225,0.176
			c0.106,0.044,0.225-0.004,0.333,0.032c0.075,0.028,0.176,0.092,0.221,0.156c0.055,0.075,0.081,0.176,0.152,0.235
			c0.041,0.035,0.098,0.05,0.141,0.084c0.046,0.039,0.083,0.086,0.13,0.123c0.066,0.054,0.117,0.117,0.188,0.162
			c0.037,0.024,0.082,0.039,0.112,0.068c0.04,0.037,0.051,0.106,0.101,0.135c0.09,0.053,0.229-0.006,0.327,0.006
			c0.103,0.015,0.16,0.139,0.087,0.213c-0.085,0.086-0.153,0.13-0.101,0.265c0.02,0.054,0.054,0.085,0.063,0.144
			c0.01,0.051,0.024,0.103,0.035,0.152c0.01,0.056-0.001,0.109,0.029,0.158c0.049,0.077,0.168,0.133,0.195,0.22
			c0.015,0.055-0.011,0.113,0.005,0.169c0.019,0.063,0.059,0.084,0.019,0.152c-0.064,0.107-0.117,0.16-0.061,0.291
			c0.043,0.101-0.06,0.179-0.151,0.205c-0.075,0.02-0.155,0.111-0.202,0.177c-0.038,0.051-0.019,0.099-0.035,0.157
			c-0.014,0.052-0.073,0.073-0.073,0.129c-0.001,0.059,0.064,0.084,0.022,0.135c-0.046,0.055-0.097,0.032-0.096,0.13
			c0.002,0.042,0.021,0.063,0.038,0.101c0.018,0.041,0.012,0.033,0.005,0.075c-0.005,0.034-0.019,0.03-0.009,0.067
			c0.006,0.029,0.032,0.04,0.025,0.076c-0.008,0.001-0.016,0.003-0.024,0.004c-0.001,0.009-0.003,0.018-0.006,0.025
			c-0.006,0.002-0.034,0.012-0.042,0.012c-0.026-0.046-0.036-0.099-0.099-0.099c-0.071,0.001-0.077,0.08-0.116,0.123
			c-0.042,0.044-0.094,0.057-0.077,0.135c0.011,0.054,0.053,0.06,0.078,0.106c0.033,0.06-0.027,0.108-0.021,0.168
			c0.003,0.043,0.068,0.108,0.021,0.151c-0.018,0.018-0.067,0-0.092,0.016c-0.031,0.017-0.062,0.062-0.093,0.086
			c-0.043,0.032-0.086,0.067-0.129,0.103c-0.053,0.048-0.109,0.096-0.16,0.148c-0.018,0.016-0.048,0.037-0.061,0.058
			c-0.015,0.03-0.003,0.058-0.009,0.09c-0.009,0.043-0.044,0.065-0.056,0.103c-0.011,0.031-0.006,0.081-0.002,0.115
			c0.071,0.004,0.138-0.006,0.204,0.02c0.066,0.027,0.116,0.079,0.172,0.123c0.104,0.084,0.188,0.191,0.258,0.309
			c0.064,0.105,0.075,0.235,0.154,0.333c0.046,0.056,0.087,0.107-0.013,0.135c-0.099,0.027-0.193,0.032-0.22,0.149
			c-0.019,0.088,0.018,0.196-0.03,0.277c-0.063,0.109-0.225,0.127-0.323,0.192c-0.05,0.033-0.095,0.065-0.133,0.111
			c-0.054,0.064-0.042,0.112-0.031,0.194c0.007,0.068,0.019,0.134,0.037,0.198s0.05,0.097,0.082,0.151
			c0.019,0.032,0.027,0.07,0.047,0.103c0.033,0.061,0.076,0.101,0.102,0.161c0.027,0.064,0.04,0.129,0.068,0.193
			c0.032,0.069,0.079,0.117,0.121,0.179c0.071,0.104,0.118,0.232,0.239,0.288c0.103,0.044,0.258,0.139,0.29,0.259
			c0.075,0.012,0.151,0.005,0.223,0.026c0.053,0.018,0.083,0.061,0.139,0.084c0.066,0.027,0.136,0.025,0.182,0.075
			c0.046,0.052,0.071,0.124,0.07,0.192c0.055,0.018,0.101-0.035,0.149-0.052c0.049-0.018,0.118-0.024,0.169-0.03
			c0.059-0.006,0.12-0.018,0.147,0.033c0.021,0.04-0.01,0.039,0.043,0.064c0.02,0.01,0.056,0.011,0.079,0.018
			c0.215,0.061,0.399,0.235,0.587,0.352c0.096,0.059,0.185,0.126,0.284,0.18c0.046,0.024,0.092,0.045,0.137,0.069
			c0.049,0.026,0.09,0.07,0.14,0.092c0.047,0.021,0.121,0.011,0.161,0.041c0.044,0.036,0.029,0.116,0.087,0.14
			c0.056,0.026,0.111-0.027,0.168-0.002c0.02,0.008,0.026,0.026,0.053,0.032c0.023,0.01,0.061,0.012,0.085,0.017
			c0.065,0.015,0.129,0.038,0.197,0.03c0.062-0.009,0.103-0.066,0.168-0.037c0.065,0.026,0.09,0.035,0.165,0.028
			c0.072-0.007,0.143-0.004,0.211-0.012c0.034-0.003,0.106-0.001,0.138-0.017c0.06-0.031,0.072-0.121,0.135-0.156
			c0.064-0.038,0.134-0.065,0.197-0.102c0.056-0.027,0.119-0.09,0.18-0.098c0.069-0.013,0.135,0.028,0.196,0.055
			c0.054,0.021,0.115,0.04,0.173,0.061c0.072,0.025,0.15,0.004,0.227,0.016c0.003,0.04-0.073,0.07-0.098,0.104
			c-0.035,0.047-0.046,0.09-0.047,0.148c-0.002,0.097,0.057,0.183,0.055,0.279c-0.002,0.084-0.081,0.152-0.098,0.238
			c-0.044,0.195-0.442,0.102-0.568,0.071c-0.118-0.028-0.232-0.022-0.354-0.026c-0.077-0.002-0.135-0.049-0.206-0.077
			c-0.084-0.034-0.122-0.066-0.21-0.033c-0.098,0.038-0.201,0.08-0.308,0.066c-0.042-0.003-0.077-0.02-0.121-0.012
			c-0.002,0.047-0.076,0.105-0.107,0.139c-0.051,0.053-0.138,0.113-0.215,0.125c-0.107,0.018-0.181-0.08-0.246-0.15
			c-0.08-0.087-0.164-0.16-0.282-0.185c-0.156-0.031-0.312-0.011-0.466,0.028c-0.067,0.017-0.156,0.023-0.209,0.063
			c-0.051,0.036-0.083,0.074-0.128-0.002c-0.035-0.056-0.04-0.064-0.11-0.092c-0.102-0.041-0.201-0.202-0.318-0.146
			c-0.049,0.022-0.12,0.063-0.146,0.113c-0.021,0.041-0.015,0.096-0.026,0.143c-0.006,0.024-0.028,0.051-0.033,0.076
			c-0.005,0.018,0.008,0.029,0.004,0.047c-0.004,0.037-0.018,0.069-0.036,0.104c-0.043,0.081-0.106,0.144-0.146,0.225
			c-0.013,0.024-0.027,0.046-0.054,0.059c-0.026,0.012-0.058,0-0.083,0.012c-0.061,0.024-0.092,0.098-0.152,0.125
			c-0.029,0.016-0.062,0.029-0.097,0.045c-0.118,0.053-0.244,0.135-0.382,0.118c-0.085-0.01-0.135-0.118-0.224-0.116
			c-0.043,0-0.096,0.01-0.142,0.018c-0.05,0.006-0.107,0.006-0.155,0.008c-0.066,0.006-0.086-0.039-0.12-0.087
			c-0.023-0.034-0.027-0.085-0.06-0.112c-0.07-0.057-0.195,0.041-0.269,0.055c-0.08,0.014-0.124-0.038-0.191-0.07
			c-0.088-0.041-0.167-0.039-0.249,0.014c-0.087,0.052-0.156,0.049-0.256,0.041c-0.119-0.004-0.241-0.001-0.359,0.002
			c-0.079,0.001-0.133,0.024-0.163,0.102c-0.035,0.082-0.057,0.168-0.085,0.252c-0.008,0.028-0.023,0.052-0.029,0.077
			c-0.01,0.032-0.002,0.071-0.028,0.098c-0.026,0.028-0.083,0.021-0.117,0.029c-0.083,0.02-0.172,0.017-0.257,0.017
			c-0.05,0-0.206-0.025-0.228,0.034c-0.01,0.027,0.003,0.087,0.003,0.118c0,0.138-0.145,0.234-0.175,0.363
			c-0.015,0.067-0.011,0.134-0.013,0.203c0,0.072-0.032,0.127-0.056,0.193c-0.021,0.061-0.016,0.13-0.016,0.193
			c0,0.065,0.009,0.135,0.023,0.196c0.025,0.096,0.08,0.075,0.158,0.072c0.078-0.003,0.105,0.051,0.144,0.107
			c0.037,0.054,0.09,0.092,0.133,0.142c0.043,0.053,0.072,0.109,0.104,0.167c0.062,0.104,0.061,0.245,0.032,0.359
			c-0.018,0.083-0.082,0.145-0.107,0.229c-0.019,0.063-0.027,0.086-0.087,0.122c-0.057,0.031-0.082,0.063-0.082,0.133
			c0,0.037,0.01,0.059,0.021,0.093c0.012,0.027,0.011,0.05,0.016,0.08c0.045,0.018,0.079,0.038,0.087,0.089
			c0.006,0.052-0.018,0.089-0.018,0.137c-0.001,0.052,0.065,0.057,0.103,0.078c0.049,0.024,0.095,0.052,0.145,0.072
			c0.062,0.023,0.039,0.052,0.044,0.109c0.002,0.048,0.035,0.08,0.037,0.13c0.001,0.049,0.011,0.106-0.032,0.144
			c-0.035,0.029-0.09,0.041-0.131,0.062c-0.067,0.031-0.09,0.108-0.073,0.177c0.011,0.045,0.027,0.082,0.027,0.131
			c0,0.048-0.003,0.096,0.005,0.143c0.005,0.022,0.021,0.039,0.027,0.063c0.005,0.022,0.001,0.051,0,0.075
			c0,0.05,0.001,0.096,0.007,0.144c0.005,0.03,0.015,0.045,0.025,0.068c0.008,0.022,0.004,0.047,0.004,0.07
			c0.001,0.05-0.017,0.086-0.048,0.125c-0.023,0.032-0.083,0.069-0.093,0.105c-0.015,0.059,0.029,0.106,0.047,0.157
			c0.008,0.024,0.002,0.052,0.015,0.074c0.017,0.031,0.069,0.061,0.096,0.085c0.085,0.07,0.173,0.034,0.272,0.057
			c0.099,0.022,0.167,0.117,0.249,0.171c0.083,0.056,0.192,0.056,0.288,0.022c0.085-0.028,0.251-0.109,0.293,0.02
			c0.032,0.002,0.068,0,0.096-0.014c0.034-0.014,0.057-0.034,0.089-0.006c0.022,0.02,0.022,0.054,0.041,0.076
			c0.02,0.025,0.048,0.035,0.08,0.043c0.029,0.005,0.054,0.021,0.082,0.03c0.035,0.011,0.075-0.006,0.109,0.016
			c0.031,0.016,0.041,0.053,0.064,0.077c0.026,0.028,0.066,0.037,0.097,0.067c0.023,0.021,0.045,0.054,0.072,0.076
			c0.067,0.06,0.183,0.071,0.269,0.085c0.058,0.011,0.114,0.011,0.151,0.065c0.039,0.055,0.027,0.112,0.007,0.172
			c-0.021,0.065-0.007,0.131-0.023,0.195c-0.017,0.063-0.098,0.085-0.153,0.104c-0.074,0.023-0.076-0.009-0.129-0.049
			c-0.064-0.048-0.13,0.01-0.177,0.058c-0.101,0.094-0.264,0.034-0.365,0.128c-0.034,0.033-0.02,0.066-0.074,0.072
			c-0.034,0.004-0.07-0.007-0.105,0.006c-0.035,0.014-0.069,0.042-0.105,0.063c-0.057,0.032-0.117,0.066-0.147,0.127
			c-0.025,0.047-0.047,0.077-0.102,0.095c-0.101,0.03-0.214-0.019-0.313,0.012c-0.061,0.021-0.125,0.043-0.18,0.071
			c-0.054,0.026-0.14,0.063-0.176,0.112c-0.036,0.054-0.079,0.1-0.152,0.091c-0.029-0.005-0.335-0.081-0.345-0.049
			c-0.048,0.179-0.207,0.029-0.301-0.007c-0.048-0.02-0.101,0.001-0.132-0.05c-0.033-0.053-0.021-0.115-0.053-0.166
			c-0.026-0.042-0.044-0.097-0.08-0.134c-0.038-0.04-0.107-0.017-0.156-0.02c-0.048-0.003-0.073-0.038-0.119-0.049
			c-0.023-0.006-0.058-0.012-0.081-0.001c-0.021,0.01-0.033,0.038-0.052,0.051c-0.102,0.076-0.232,0.043-0.347,0.064
			c-0.051,0.012-0.111,0.031-0.153-0.012c-0.019-0.018-0.019-0.045-0.035-0.064c-0.013-0.016-0.048-0.031-0.066-0.038
			c-0.109-0.043-0.237-0.045-0.352-0.066c-0.056-0.011-0.102-0.019-0.152-0.048c-0.053-0.028-0.089-0.084-0.144-0.112
			c-0.102-0.049-0.203-0.019-0.31-0.038c-0.037-0.007-0.03-0.02-0.056-0.037c-0.018-0.014-0.051-0.019-0.072-0.021
			c-0.044-0.006-0.115-0.01-0.157,0.01c-0.004,0.081-0.008,0.139-0.051,0.211c-0.033,0.058-0.077,0.118-0.137,0.144
			c-0.07,0.028-0.136,0.014-0.206-0.003c-0.041-0.006-0.176-0.061-0.193-0.001c-0.036,0.005-0.082,0.004-0.12,0
			c-0.044-0.005-0.093-0.006-0.141-0.006c-0.078,0-0.179,0.027-0.251,0c-0.042-0.02-0.069-0.028-0.114-0.037
			c-0.041-0.005-0.083-0.013-0.125-0.019c-0.104-0.014-0.229,0.031-0.304-0.067c-0.021-0.028-0.036-0.058-0.06-0.083
			c-0.023-0.021-0.028-0.043-0.042-0.07c-0.014-0.029-0.037-0.052-0.052-0.08c-0.012-0.021-0.023-0.041-0.035-0.06
			c-0.027-0.041-0.058-0.084-0.066-0.134c-0.006-0.046,0.008-0.089-0.007-0.133c-0.016-0.044-0.038-0.085-0.055-0.129
			c-0.018-0.044-0.026-0.089-0.037-0.136c-0.016-0.059-0.001-0.085-0.052-0.123c-0.043-0.029-0.082-0.062-0.123-0.093
			c-0.037-0.029-0.019-0.079-0.032-0.119c-0.016-0.051-0.039-0.103-0.058-0.154c-0.012-0.034-0.009-0.071-0.022-0.105
			c-0.016-0.033-0.033-0.024-0.064-0.045c-0.037-0.021-0.072-0.048-0.1-0.08c-0.029-0.034-0.034-0.074-0.054-0.112
			c-0.032-0.057-0.042-0.14-0.042-0.211c0-0.087,0.018-0.171,0.022-0.258c0.006-0.124,0.027-0.232,0.049-0.352
			c0.021-0.119-0.033-0.24-0.148-0.292c-0.027-0.014-0.092-0.03-0.119-0.002c-0.015,0.015-0.016,0.052-0.031,0.072
			c-0.036,0.054-0.095,0.086-0.13,0.137c-0.022,0.035-0.035,0.081-0.068,0.106c-0.034,0.026-0.076,0.028-0.116,0.037
			c-0.087,0.019-0.167,0.024-0.256,0.024c-0.053,0-0.118,0-0.168-0.024c-0.04-0.02-0.094-0.086-0.095-0.132
			c-0.002-0.068,0.011-0.151,0.024-0.218c0.014-0.058,0.046-0.1,0.025-0.161c-0.042-0.123-0.225-0.08-0.317-0.063
			c-0.125,0.021-0.243,0.033-0.367-0.001c-0.102-0.026-0.237-0.071-0.269-0.184c-0.032-0.111,0.046-0.224,0.051-0.335
			c0.003-0.106-0.039-0.253-0.116-0.331c-0.094-0.094-0.188-0.014-0.211,0.093c-0.011,0.058-0.016,0.116-0.04,0.172
			c-0.03,0.068-0.076,0.127-0.127,0.181c-0.015,0.018-0.068,0.085-0.098,0.07c-0.023-0.012-0.025-0.099-0.033-0.122
			c-0.028-0.103-0.112-0.195-0.096-0.307c0.022-0.13,0.046-0.222-0.002-0.351c-0.043-0.114-0.057-0.22-0.057-0.344
			c0.002-0.122,0.013-0.208,0.125-0.272c0.07-0.039,0.138-0.075,0.201-0.122c0.063-0.047,0.132-0.088,0.078-0.166
			c-0.062-0.088-0.107-0.184-0.153-0.281c-0.023-0.049-0.059-0.098-0.066-0.153c-0.005-0.05,0.007-0.104,0.003-0.153
			c-0.007-0.076-0.039-0.144-0.104-0.187c-0.039-0.023-0.073-0.051-0.109-0.075c-0.043-0.027-0.092-0.023-0.138-0.036
			c-0.058-0.015-0.103-0.052-0.157-0.076c-0.038-0.014-0.068-0.018-0.102-0.044c-0.084-0.064-0.16-0.143-0.219-0.227
			c-0.059-0.088-0.116-0.175-0.173-0.265c-0.047-0.07-0.088-0.148-0.146-0.211c-0.036-0.038-0.061-0.083-0.096-0.121
			c-0.098-0.104-0.204-0.215-0.319-0.304c-0.093-0.069-0.196-0.128-0.305-0.175c-0.229-0.099-0.483-0.116-0.73-0.088
			c-0.055,0.006-0.11,0.01-0.163,0.027c-0.123,0.045-0.196,0.186-0.274,0.283c-0.092,0.115-0.201,0.203-0.259,0.341
			c-0.027,0.06-0.069,0.102-0.116,0.146c-0.051,0.049-0.091,0.092-0.15,0.133c-0.031,0.021-0.055,0.049-0.084,0.075
			c-0.031,0.027-0.06,0.039-0.086,0.075c-0.028,0.037-0.063,0.069-0.096,0.102c-0.075,0.072-0.151,0.146-0.229,0.215
			c-0.064,0.055-0.133,0.107-0.208,0.148c-0.055,0.03-0.114,0.046-0.172,0.065c-0.051,0.021-0.083,0.012-0.135-0.002
			c-0.041-0.011-0.078-0.023-0.114-0.043c-0.109-0.057-0.209-0.117-0.276-0.223c-0.026-0.045-0.049-0.088-0.068-0.133
			c-0.023-0.054-0.046-0.107-0.069-0.16c-0.022-0.05-0.016-0.082-0.021-0.133c-0.008-0.121-0.017-0.235-0.045-0.354
			c-0.014-0.064-0.022-0.132-0.024-0.197c-0.004-0.06-0.014-0.131-0.004-0.188c0.009-0.043,0.028-0.081,0.033-0.127
			c0.008-0.068,0.015-0.138,0.005-0.206c-0.005-0.034-0.026-0.075-0.039-0.109c-0.02-0.05-0.021-0.107-0.043-0.162
			c-0.023-0.059-0.056-0.115-0.087-0.171c-0.045-0.081-0.083-0.166-0.125-0.248c-0.071-0.145-0.121-0.301-0.189-0.449
			c-0.061-0.133-0.149-0.286-0.157-0.436c-0.003-0.065,0.003-0.138,0.021-0.201c0.019-0.065,0.061-0.12,0.095-0.182
			c0.08-0.142,0.156-0.293,0.272-0.41c0.004,0.064,0,0.124-0.016,0.188c-0.015,0.057-0.038,0.12-0.023,0.182
			c0.029,0.114,0.2,0.126,0.294,0.136c0.048,0.007,0.12,0.016,0.144-0.037c0.025-0.052-0.007-0.117,0.006-0.171
			c0.015-0.07,0.083-0.098,0.144-0.119c0.075-0.028,0.148-0.057,0.216-0.102c0.038-0.021,0.035-0.055,0.062-0.086
			c0.022-0.024,0.05-0.047,0.074-0.068c0.039-0.04,0.054-0.089,0.047-0.142c-0.033-0.018-0.077-0.012-0.114-0.012
			c-0.097,0-0.191,0.017-0.288,0.026c-0.099,0.011-0.201,0.02-0.293,0.058c-0.117,0.048-0.18,0.197-0.131,0.317
			c0.053,0.126,0.232,0.103,0.343,0.096c0.146-0.007,0.283-0.034,0.422-0.077c0.122-0.038,0.23-0.107,0.332-0.184
			c0.05-0.039,0.1-0.08,0.149-0.123c0.044-0.039,0.056-0.081,0.091-0.124c0.031-0.038,0.069-0.069,0.097-0.108
			c0.048-0.06,0.098-0.111,0.15-0.166c0.06-0.064,0.116-0.135,0.176-0.2c0.073-0.076,0.135-0.152,0.19-0.242
			c0.025-0.042,0.042-0.07,0.052-0.117c0.019-0.08,0.026-0.166,0.064-0.241c0.038-0.071,0.094-0.135,0.12-0.213
			c0.017-0.062,0.022-0.116,0.033-0.176c0.015-0.082,0.084-0.149,0.082-0.235c0-0.035-0.006-0.056,0.012-0.087
			c0.022-0.039,0.049-0.067,0.056-0.113c0.01-0.067,0.037-0.125,0.037-0.198c0.002-0.173,0.051-0.345,0.044-0.519
			c-0.004-0.117,0.062-0.222,0.062-0.334c0-0.043-0.036-0.087,0-0.129c0-0.048-0.012-0.089,0.006-0.133
			c0.018-0.039,0.025-0.08,0.032-0.12c0.013-0.102,0-0.209,0-0.311c0-0.081-0.034-0.173-0.054-0.253
			c-0.017-0.066-0.022-0.137-0.026-0.205c-0.001-0.054,0.011-0.097-0.001-0.149c-0.042-0.185-0.064-0.365-0.083-0.555
			c-0.01-0.086-0.065-0.154-0.09-0.237c-0.031-0.097-0.058-0.188-0.114-0.275c-0.038-0.056-0.071-0.114-0.106-0.174
			c-0.079-0.129-0.193-0.235-0.277-0.362c-0.06-0.092-0.116-0.184-0.191-0.265c-0.101-0.11-0.22-0.202-0.327-0.307
			c-0.039-0.039-0.086-0.066-0.123-0.104c-0.057-0.06-0.112-0.11-0.175-0.16c-0.054-0.039-0.107-0.084-0.158-0.127
			c-0.054-0.045-0.115-0.082-0.167-0.129c-0.063-0.052-0.122-0.106-0.182-0.163c-0.072-0.064-0.153-0.115-0.224-0.183
			c-0.173-0.153-0.347-0.301-0.555-0.403c-0.27-0.131-0.52-0.288-0.809-0.382c-0.082-0.023-0.165-0.047-0.25-0.065
			c-0.064-0.011-0.127-0.021-0.19-0.043c-0.069-0.024-0.134-0.061-0.205-0.081c-0.138-0.042-0.29,0.014-0.421-0.055
			c-0.067-0.032-0.123-0.087-0.185-0.129c-0.059-0.041-0.124-0.068-0.187-0.103c-0.141-0.076-0.191-0.197-0.166-0.354
			c0.027-0.165,0.018-0.303-0.066-0.454c-0.064-0.113-0.131-0.226-0.189-0.343c-0.035-0.071-0.065-0.142-0.078-0.221
			c-0.013-0.082-0.013-0.166-0.031-0.248c-0.03-0.128-0.125-0.295,0.017-0.39c0.067-0.046,0.149-0.034,0.221-0.057
			c0.037-0.014,0.073-0.033,0.104-0.057c0.037-0.035,0.035-0.071,0.046-0.119c0.017-0.076-0.009-0.147-0.035-0.219
			c-0.054-0.15-0.035-0.304-0.063-0.457c-0.005-0.029-0.023-0.081-0.009-0.108c0.012-0.031,0.073-0.068,0.099-0.089
			c0.047-0.038,0.099-0.072,0.145-0.113c0.037-0.034,0.065-0.075,0.097-0.112c0.021-0.023,0.045-0.043,0.067-0.065
			c0.032-0.034,0.07-0.059,0.102-0.092c0.028-0.028,0.055-0.07,0.067-0.107c0.006-0.018,0-0.048,0.01-0.063
			c0.011-0.013,0.041-0.013,0.055-0.017c0.085-0.021,0.131-0.087,0.19-0.151c0.03-0.03,0.074-0.055,0.098-0.088
			c0.026-0.035,0.029-0.086,0.035-0.128c0.005-0.033,0.012-0.07,0.044-0.094c0.036-0.026,0.079-0.045,0.116-0.072
			c0.041-0.031,0.063-0.066,0.101-0.1c0.034-0.028,0.065-0.058,0.092-0.09c0.05-0.057,0.117-0.092,0.136-0.167
			c0.008-0.035,0.008-0.085,0.033-0.114c0.027-0.03,0.075-0.063,0.108-0.088c0.079-0.061,0.156-0.127,0.231-0.191
			c0.084-0.073,0.158-0.156,0.239-0.229c0.065-0.061,0.098-0.135,0.136-0.215c0.031-0.066,0.093-0.163,0.17-0.183
			c0.037-0.01,0.093-0.01,0.133-0.01c0.045-0.002,0.088-0.001,0.132-0.001c0.038,0,0.098,0.014,0.125-0.017
			c0.025-0.032,0.015-0.086,0.024-0.123c0.01-0.046,0.01-0.098,0.033-0.14c0.019-0.036,0.053-0.066,0.074-0.103
			c0.018-0.024,0.028-0.051,0.039-0.081c0.018-0.046,0.045-0.094,0.071-0.14c0.046-0.078,0.089-0.166,0.146-0.236
			c0.06-0.074,0.105-0.165,0.147-0.252c0.019-0.043,0.015-0.083,0.037-0.125c0.021-0.04,0.053-0.068,0.086-0.107
			c0.056-0.064,0.132-0.086,0.201-0.137c0.033-0.022,0.046-0.066,0.079-0.096c0.03-0.025,0.062-0.049,0.095-0.071
			c0.143-0.098,0.291-0.163,0.382-0.318c0.026-0.042,0.019-0.099,0.024-0.145c0.008-0.046,0.024-0.096,0.048-0.14
			c0.053-0.091,0.138-0.15,0.236-0.189c0.007-0.048,0.001-0.105,0.001-0.154c0-0.025,0.002-0.053-0.005-0.075
			c-0.006-0.026-0.02-0.029,0.005-0.058c0.034-0.04,0.067-0.049,0.085-0.103c0.018-0.049,0.031-0.095,0.04-0.148
			c0.082-0.005,0.163-0.01,0.244,0.008c0.09,0.02,0.054,0.129,0.064,0.194c0.02,0.113,0.133,0.046,0.203,0.085
			c0.02,0.012,0.035,0.034,0.052,0.05c0.03,0.03,0.065,0.052,0.104,0.074c0.062,0.032,0.115,0.082,0.188,0.092
			c0.034,0.004,0.065-0.002,0.099,0.004c0.054,0.01,0.064,0.002,0.098-0.038c0.043-0.055,0.08-0.123,0.146-0.157
			c0.055-0.029,0.15-0.014,0.209,0.001c0.058,0.017,0.11,0.048,0.169,0.065c0.064,0.023,0.128,0.047,0.193,0.071
			c0.037,0.014,0.072,0.025,0.107,0.036c0.032,0.011,0.057,0.033,0.088,0.047c0.035,0.014,0.067,0.013,0.09-0.016
			c0.039-0.046,0.051-0.073,0.054-0.131c0.001-0.049,0.003-0.102,0.026-0.145c0.012-0.025,0.037-0.043,0.049-0.069
			c0.018-0.032,0.003-0.064,0.014-0.101c0.018-0.063,0.133-0.108,0.162-0.162c0.026-0.06,0.082-0.13,0.082-0.193
			c0-0.032,0-0.065,0-0.097c0-0.036-0.065-0.046-0.079-0.073c-0.014-0.028-0.037-0.057-0.031-0.087
			c0.007-0.048-0.012-0.06-0.035-0.103c-0.031-0.055-0.049-0.121,0.001-0.164c0.054-0.047,0.105-0.089,0.159-0.135
			c0.063-0.061,0.115-0.125,0.175-0.189c0.057-0.058,0.102-0.141,0.187-0.157c0.039-0.009,0.078,0,0.118-0.006
			c0.078-0.01,0.156-0.01,0.235-0.017c0.049-0.005,0.088-0.021,0.134-0.032c0.053-0.012,0.106-0.01,0.158-0.005
			c0.063,0.008,0.141,0.008,0.199-0.021c0.124-0.06,0.168-0.181,0.224-0.294c0.061-0.126,0.249-0.112,0.363-0.131
			c0.063-0.01,0.121-0.019,0.182-0.021c0.09-0.006,0.11-0.055,0.157-0.121c0.016-0.021,0.037-0.041,0.057-0.059
			c0.022-0.021,0.053-0.029,0.071-0.053C32.346,30.272,32.301,30.158,32.301,30.065z"/>
	</g>
</g>
</svg>
