<?xml version="1.0" encoding="utf-8"?>
<!-- Generator: Adobe Illustrator 16.0.0, SVG Export Plug-In . SVG Version: 6.00 Build 0)  -->
<!DOCTYPE svg PUBLIC "-//W3C//DTD SVG 1.1//EN" "http://www.w3.org/Graphics/SVG/1.1/DTD/svg11.dtd" [
	<!ENTITY st0 "fill:#ACCFF6;">
	<!ENTITY st1 "fill:#AEDD47;">
	<!ENTITY st2 "fill:#E34D7F;">
	<!ENTITY st3 "fill:#1C75BC;">
	<!ENTITY st4 "fill:#52AA52;">
	<!ENTITY st5 "fill:none;stroke:#FFFFFF;stroke-miterlimit:10;">
	
		<!ENTITY st6 "fill:none;stroke:#C779D3;stroke-width:4.252;stroke-linecap:round;stroke-linejoin:round;stroke-dasharray:0.2467,8.539;">
	<!ENTITY st7 "fill:#27AAE1;">
	<!ENTITY st8 "fill-rule:evenodd;clip-rule:evenodd;fill:none;stroke:#3A63C9;stroke-width:0.4496;stroke-miterlimit:10;">
	<!ENTITY st9 "fill:#C2C2C2;">
	<!ENTITY st10 "opacity:0.5;fill-rule:evenodd;clip-rule:evenodd;fill:#FFFFFF;">
	<!ENTITY st11 "fill:#C779D3;">
	<!ENTITY st12 "fill:#FC6738;">
	<!ENTITY st13 "fill:#999999;">
	<!ENTITY st14 "fill:#FCEFB9;">
	<!ENTITY st15 "fill-rule:evenodd;clip-rule:evenodd;">
	<!ENTITY st16 "fill:#FFC7B6;">
	<!ENTITY st17 "fill:#FFEE4D;">
	<!ENTITY st18 "fill:#FFFFFF;">
	<!ENTITY st19 "fill:#CA2F59;">
	<!ENTITY st20 "fill:#68C1C1;">
	<!ENTITY st21 "fill-rule:evenodd;clip-rule:evenodd;fill:#F7A83B;">
	<!ENTITY st22 "fill-rule:evenodd;clip-rule:evenodd;fill:#92B7EF;">
	<!ENTITY st23 "fill-rule:evenodd;clip-rule:evenodd;fill:#FFFFFF;">
	<!ENTITY st24 "fill:none;stroke:#C779D3;stroke-width:4.252;stroke-linecap:round;stroke-linejoin:round;">
	<!ENTITY st25 "fill:#A7A9AC;">
	<!ENTITY st26 "fill:#DBDBDB;">
	<!ENTITY st27 "fill:#414042;">
	<!ENTITY st28 "fill:#419CE0;">
]>
<svg version="1.1" id="圖層_1" xmlns="http://www.w3.org/2000/svg" xmlns:xlink="http://www.w3.org/1999/xlink" x="0px" y="0px"
	 width="100px" height="100px" viewBox="0 0 100 100" style="enable-background:new 0 0 100 100;" xml:space="preserve">
<g>
	<circle style="&st1;" cx="50" cy="50" r="49.999"/>
	<circle style="&st5;" cx="50" cy="50" r="44.999"/>
	<path style="&st14;" d="M44.818,22.068c-0.003-0.159,0.005-0.236,0.076-0.367c0.055-0.104,0.055-0.168,0.055-0.293
		c0.001-0.276,0.121-0.301,0.294-0.466c0.083-0.081,0.092-0.186,0.188-0.247c0.076-0.049,0.217-0.078,0.197-0.215
		c0.114-0.057,0.311-0.097,0.395-0.183c0.113-0.122,0.083-0.245,0.281-0.27c0.278-0.04,0.406,0.439,0.651,0.184
		c0.222-0.218,0.354-0.415,0.367-0.746c0.006-0.2-0.136-0.228-0.211-0.385c-0.061-0.133-0.014-0.35-0.01-0.495
		c0.269-0.067,0.4-0.153,0.478-0.421c0.065-0.222,0.199-0.36,0.292-0.559c0.088-0.19,0.047-0.468,0.263-0.57
		c0.101-0.048,0.225-0.027,0.332-0.051c0.134-0.029,0.232-0.087,0.334-0.179c0.216-0.187,0.337-0.233,0.621-0.155
		c0.205,0.055,0.465,0.092,0.564,0.313c0.101,0.224,0.061,0.493,0.16,0.714c0.088,0.215,0.244,0.388,0.343,0.595
		c0.115,0.246,0.125,0.512,0.145,0.77c0.024,0.246,0.096,0.401,0.247,0.593c0.194,0.012,0.407,0.137,0.58,0.216
		c0.226,0.108,0.495,0.071,0.61,0.314c0.098,0.213,0.109,0.445,0.3,0.589c0.196,0.148,0.476,0.224,0.718,0.159
		c0.259-0.078,0.387-0.194,0.652-0.044c0.119,0.066,0.525,0.371,0.621,0.31c0.081-0.047,0.03-0.203,0.135-0.262
		c0.09-0.052,0.313-0.042,0.41-0.034c0.138,0.02,0.508,0.115,0.527,0.267c0.016,0.116-0.111,0.258-0.116,0.383
		c-0.011,0.143,0.053,0.248,0.111,0.375c0.106,0.244,0.075,0.604,0.052,0.865c-0.2,0-0.234,0.173-0.248,0.335
		c-0.011,0.123-0.024,0.107-0.086,0.207c-0.048,0.078-0.055,0.142-0.046,0.233c0.015,0.151,0.048,0.301,0.068,0.446
		c0.024,0.211-0.089,0.229-0.215,0.355c-0.122,0.128-0.11,0.271-0.11,0.436c0,0.074-0.016,0.177,0.006,0.246
		c0.021,0.066,0.078,0.099,0.109,0.152c0.04,0.061,0.059,0.133,0.072,0.205c0.029,0.119,0.055,0.101,0.125,0.18
		c0.106,0.122,0.103,0.256,0.178,0.399c0.1,0.184-0.108,0.478-0.201,0.656c-0.115,0.226-0.254,0.434-0.41,0.635
		c-0.173,0.22-0.376,0.383-0.602,0.561c-0.188,0.15-0.237,0.317-0.309,0.544c-0.063,0.209-0.196,0.478-0.051,0.679
		c0.117,0.169,0.385,0.355,0.585,0.415c0.291,0.088,0.64-0.038,0.942-0.015c0.32,0.021,0.5,0.214,0.742,0.412
		c0.152,0.124,0.79,0.436,0.871,0.101c0.17-0.045,0.246,0.054,0.248,0.202c0.004,0.08-0.002,0.151,0.018,0.227
		c0.061,0.229,0.135,0.478,0.211,0.701c0.064,0.186,0.15,0.363,0.162,0.558c0.001,0.201,0.03,0.396,0.028,0.598
		c-0.005,0.23-0.121,0.282-0.237,0.463c-0.082,0.123-0.134,0.259-0.221,0.385c-0.225,0.321,0.242,0.388,0.458,0.533
		c0.073,0.055,0.149,0.115,0.24,0.133c0.103,0.021,0.222-0.035,0.301,0.056c0.189,0.211-0.02,0.546,0.126,0.781
		c0.074,0.122,0.19,0.184,0.258,0.325c0.049,0.111,0.125,0.25,0.135,0.377c0.014,0.157-0.01,0.346,0.027,0.502
		c0.044,0.181,0.246,0.132,0.346,0.278c0.072,0.104,0.053,0.24,0.121,0.341c0.092,0.139,0.25,0.336,0.387,0.424
		c0.1,0.066,0.232,0.063,0.337,0.122c0.11,0.064,0.188,0.181,0.243,0.288c0.057,0.092,0.068,0.118,0.152,0.166
		c0.064,0.027,0.137,0.03,0.206,0.075c0.122,0.081,0.2,0.28,0.334,0.34c0.114,0.05,0.078-0.021,0.138-0.101
		c0.055-0.077,0.111-0.085,0.193-0.122c0.145,0.15,0.033,0.261-0.047,0.387c-0.098,0.146-0.139,0.263-0.139,0.438
		c0.005,0.165-0.031,0.326-0.031,0.497c0,0.186-0.047,0.354-0.025,0.522c0.146,0.022,0.293-0.007,0.422,0.043
		c0.121,0.043,0.257,0.073,0.368,0.134c0.05,0.341-0.37,0.608-0.577,0.838c-0.186,0.209-0.494,0.746-0.672,0.246
		c-0.199-0.042-0.21,0.273-0.251,0.385c-0.051,0.132-0.132,0.288-0.141,0.426c-0.011,0.238-0.09,0.536-0.241,0.733
		c-0.094,0.12-0.23,0.12-0.309,0.265c-0.098,0.18-0.121,0.384-0.207,0.573c-0.107,0.236-0.29,0.423-0.395,0.661
		c-0.049,0.123-0.105,0.227-0.18,0.328c-0.059,0.078-0.156,0.164-0.163,0.266c-0.011,0.171,0.188,0.382,0.24,0.55
		c0.068,0.21,0.153,0.405,0.276,0.592c0.145,0.226,0.323,0.233,0.575,0.241c0.458,0.023,0.847,0.206,1.263,0.373
		c0.234,0.103,0.49,0.105,0.738,0.163c0.191,0.045,0.357,0.12,0.485,0.262c0.141,0.168,0.296,0.3,0.493,0.385
		c0.232,0.096,0.492-0.01,0.73,0.07c0.164,0.062,0.386,0.201,0.482,0.341c0.121,0.167,0.178,0.388,0.334,0.518
		c0.09,0.077,0.215,0.109,0.308,0.184c0.103,0.086,0.182,0.189,0.284,0.271c0.146,0.118,0.258,0.255,0.414,0.354
		c0.08,0.054,0.18,0.087,0.246,0.149c0.088,0.081,0.113,0.234,0.222,0.296c0.196,0.117,0.503-0.014,0.717,0.013
		c0.226,0.032,0.351,0.304,0.19,0.466c-0.188,0.19-0.336,0.286-0.221,0.582c0.043,0.117,0.117,0.186,0.139,0.313
		c0.021,0.112,0.052,0.227,0.074,0.335c0.022,0.122-0.001,0.239,0.064,0.348c0.108,0.168,0.37,0.29,0.429,0.481
		c0.033,0.118-0.024,0.249,0.012,0.37c0.041,0.138,0.128,0.184,0.041,0.335c-0.14,0.233-0.255,0.35-0.134,0.637
		c0.096,0.221-0.132,0.391-0.331,0.45c-0.163,0.043-0.339,0.243-0.442,0.386c-0.084,0.112-0.041,0.218-0.077,0.346
		c-0.031,0.112-0.159,0.161-0.159,0.281c-0.002,0.13,0.141,0.185,0.048,0.296c-0.1,0.122-0.212,0.07-0.21,0.285
		c0.004,0.094,0.043,0.138,0.083,0.222c0.038,0.089,0.027,0.071,0.011,0.163c-0.011,0.075-0.042,0.066-0.021,0.148
		c0.015,0.063,0.069,0.088,0.056,0.168c-0.019,0.001-0.035,0.006-0.053,0.007c-0.003,0.02-0.008,0.039-0.014,0.057
		c-0.015,0.004-0.074,0.024-0.091,0.024c-0.058-0.099-0.078-0.214-0.217-0.214c-0.155,0.001-0.169,0.176-0.253,0.269
		c-0.092,0.096-0.207,0.123-0.169,0.294c0.022,0.117,0.116,0.132,0.171,0.234c0.07,0.131-0.062,0.236-0.047,0.369
		c0.007,0.095,0.15,0.237,0.047,0.331c-0.04,0.038-0.148,0-0.202,0.036c-0.069,0.033-0.136,0.133-0.205,0.187
		c-0.095,0.07-0.189,0.148-0.282,0.224c-0.117,0.106-0.238,0.211-0.351,0.327c-0.039,0.033-0.106,0.081-0.134,0.126
		c-0.032,0.066-0.007,0.126-0.02,0.196c-0.02,0.095-0.096,0.144-0.121,0.225c-0.023,0.068-0.014,0.178-0.006,0.253
		c0.155,0.008,0.303-0.013,0.448,0.044c0.146,0.058,0.254,0.171,0.376,0.269c0.229,0.184,0.414,0.42,0.564,0.676
		c0.142,0.23,0.164,0.516,0.339,0.73c0.102,0.123,0.191,0.235-0.028,0.296c-0.217,0.06-0.422,0.07-0.481,0.325
		c-0.042,0.196,0.038,0.433-0.065,0.609c-0.14,0.239-0.492,0.279-0.709,0.422c-0.109,0.072-0.207,0.145-0.291,0.244
		c-0.119,0.141-0.09,0.245-0.068,0.426c0.016,0.15,0.041,0.294,0.081,0.436c0.041,0.141,0.109,0.211,0.181,0.332
		c0.04,0.068,0.058,0.153,0.103,0.224c0.072,0.133,0.166,0.22,0.223,0.354c0.058,0.141,0.087,0.281,0.149,0.422
		c0.07,0.153,0.173,0.258,0.266,0.395c0.155,0.225,0.258,0.509,0.523,0.629c0.227,0.097,0.566,0.304,0.635,0.568
		c0.164,0.024,0.332,0.013,0.489,0.059c0.116,0.037,0.183,0.133,0.304,0.184c0.145,0.061,0.299,0.055,0.398,0.165
		c0.1,0.112,0.154,0.271,0.154,0.422c0.119,0.039,0.22-0.077,0.326-0.113c0.105-0.039,0.259-0.054,0.371-0.068
		c0.129-0.011,0.263-0.037,0.322,0.074c0.045,0.087-0.021,0.085,0.094,0.142c0.045,0.021,0.123,0.022,0.172,0.037
		c0.471,0.132,0.874,0.516,1.288,0.773c0.21,0.127,0.405,0.274,0.623,0.392c0.102,0.054,0.202,0.098,0.299,0.153
		c0.108,0.057,0.198,0.151,0.308,0.2c0.104,0.045,0.266,0.024,0.354,0.091c0.096,0.078,0.063,0.255,0.191,0.306
		c0.121,0.058,0.244-0.061,0.368-0.005c0.043,0.018,0.058,0.059,0.116,0.071c0.049,0.02,0.132,0.025,0.187,0.037
		c0.143,0.031,0.284,0.083,0.432,0.066c0.135-0.021,0.225-0.146,0.37-0.084c0.142,0.059,0.197,0.078,0.361,0.063
		c0.157-0.015,0.313-0.008,0.463-0.026c0.074-0.007,0.233-0.001,0.302-0.037c0.13-0.067,0.158-0.265,0.296-0.341
		c0.141-0.082,0.294-0.143,0.432-0.223c0.121-0.061,0.262-0.197,0.395-0.213c0.152-0.029,0.296,0.061,0.43,0.118
		c0.119,0.048,0.252,0.089,0.379,0.132c0.158,0.058,0.329,0.009,0.497,0.036c0.007,0.088-0.161,0.154-0.214,0.226
		c-0.076,0.103-0.103,0.197-0.104,0.326c-0.005,0.211,0.125,0.399,0.121,0.613c-0.005,0.182-0.178,0.332-0.215,0.52
		c-0.097,0.43-0.97,0.223-1.246,0.157c-0.26-0.062-0.509-0.048-0.775-0.057c-0.168-0.005-0.297-0.107-0.451-0.169
		c-0.185-0.075-0.268-0.146-0.459-0.073c-0.217,0.083-0.441,0.176-0.676,0.146c-0.09-0.006-0.168-0.043-0.265-0.025
		c-0.006,0.102-0.166,0.23-0.236,0.304c-0.11,0.114-0.302,0.248-0.47,0.273c-0.236,0.038-0.397-0.175-0.54-0.329
		c-0.175-0.191-0.358-0.353-0.617-0.404c-0.343-0.068-0.685-0.024-1.021,0.062c-0.148,0.035-0.343,0.051-0.46,0.137
		c-0.11,0.08-0.182,0.163-0.28-0.005c-0.076-0.122-0.087-0.142-0.24-0.202c-0.223-0.088-0.44-0.441-0.697-0.319
		c-0.106,0.05-0.261,0.138-0.321,0.248c-0.045,0.09-0.031,0.211-0.057,0.313c-0.014,0.054-0.063,0.111-0.072,0.166
		c-0.012,0.037,0.016,0.065,0.008,0.103c-0.008,0.081-0.039,0.152-0.079,0.228c-0.095,0.178-0.231,0.314-0.32,0.492
		c-0.029,0.054-0.061,0.101-0.118,0.127c-0.057,0.028-0.127,0-0.184,0.028c-0.134,0.052-0.201,0.212-0.334,0.273
		c-0.064,0.032-0.136,0.063-0.212,0.098c-0.259,0.116-0.534,0.296-0.837,0.259c-0.188-0.021-0.297-0.259-0.491-0.253
		c-0.095,0-0.21,0.021-0.31,0.038c-0.109,0.013-0.236,0.013-0.341,0.016c-0.146,0.015-0.188-0.086-0.263-0.191
		c-0.05-0.075-0.06-0.184-0.131-0.244c-0.154-0.125-0.429,0.089-0.59,0.118c-0.175,0.03-0.272-0.082-0.418-0.153
		c-0.193-0.09-0.367-0.085-0.547,0.03c-0.19,0.114-0.342,0.106-0.563,0.09c-0.261-0.009-0.527-0.003-0.785,0.004
		c-0.174,0.003-0.293,0.054-0.357,0.222c-0.078,0.182-0.124,0.369-0.187,0.554c-0.018,0.063-0.051,0.113-0.063,0.169
		c-0.023,0.071-0.007,0.156-0.062,0.214c-0.058,0.062-0.185,0.049-0.256,0.065c-0.183,0.043-0.378,0.035-0.563,0.035
		c-0.111,0-0.452-0.056-0.5,0.076c-0.021,0.06,0.008,0.19,0.008,0.258c0,0.303-0.318,0.515-0.383,0.797
		c-0.032,0.146-0.024,0.293-0.028,0.444c-0.001,0.159-0.071,0.278-0.122,0.425c-0.045,0.133-0.033,0.284-0.033,0.424
		c0,0.144,0.018,0.295,0.051,0.432c0.055,0.208,0.174,0.163,0.347,0.157c0.171-0.007,0.23,0.111,0.315,0.234
		c0.08,0.119,0.198,0.201,0.292,0.312c0.094,0.115,0.157,0.239,0.228,0.365c0.137,0.228,0.134,0.537,0.07,0.787
		c-0.039,0.182-0.178,0.317-0.233,0.501c-0.04,0.138-0.059,0.189-0.191,0.268c-0.124,0.069-0.179,0.139-0.179,0.292
		c0,0.081,0.021,0.128,0.047,0.203c0.026,0.062,0.023,0.108,0.035,0.175c0.1,0.039,0.172,0.085,0.189,0.196
		c0.014,0.112-0.037,0.193-0.037,0.299c-0.003,0.114,0.141,0.124,0.224,0.173c0.106,0.053,0.208,0.112,0.317,0.156
		c0.135,0.052,0.085,0.113,0.096,0.242c0.005,0.104,0.076,0.173,0.08,0.283c0.003,0.107,0.023,0.233-0.07,0.314
		c-0.075,0.063-0.196,0.091-0.287,0.134c-0.146,0.069-0.197,0.237-0.16,0.39c0.022,0.099,0.059,0.178,0.059,0.286
		c0,0.104-0.007,0.21,0.011,0.312c0.011,0.049,0.046,0.085,0.059,0.14c0.012,0.048,0.003,0.112,0,0.164
		c0,0.11,0.003,0.21,0.016,0.316c0.011,0.066,0.032,0.098,0.054,0.148c0.017,0.05,0.009,0.104,0.009,0.154
		c0.003,0.108-0.036,0.188-0.106,0.274c-0.051,0.068-0.182,0.153-0.203,0.229c-0.033,0.131,0.063,0.234,0.104,0.346
		c0.017,0.053,0.004,0.113,0.033,0.162c0.036,0.069,0.15,0.135,0.209,0.187c0.187,0.155,0.38,0.075,0.598,0.125
		c0.217,0.049,0.366,0.257,0.546,0.375c0.182,0.121,0.421,0.121,0.63,0.049c0.188-0.063,0.551-0.24,0.643,0.042
		c0.07,0.005,0.148,0,0.211-0.029c0.074-0.03,0.124-0.076,0.195-0.013c0.049,0.042,0.049,0.118,0.09,0.166
		c0.043,0.056,0.106,0.076,0.175,0.096c0.063,0.009,0.118,0.045,0.18,0.065c0.077,0.023,0.164-0.013,0.239,0.035
		c0.067,0.032,0.091,0.115,0.143,0.167c0.056,0.063,0.145,0.081,0.211,0.148c0.053,0.049,0.099,0.117,0.158,0.167
		c0.146,0.131,0.4,0.156,0.59,0.187c0.125,0.024,0.25,0.024,0.33,0.144c0.084,0.119,0.059,0.246,0.017,0.377
		c-0.046,0.143-0.017,0.287-0.052,0.428c-0.036,0.14-0.214,0.187-0.337,0.227c-0.161,0.054-0.165-0.02-0.284-0.106
		c-0.141-0.105-0.283,0.021-0.388,0.125c-0.22,0.207-0.577,0.076-0.8,0.281c-0.075,0.074-0.045,0.146-0.162,0.159
		c-0.073,0.008-0.154-0.015-0.23,0.012c-0.078,0.031-0.152,0.092-0.232,0.137c-0.124,0.072-0.256,0.146-0.321,0.279
		c-0.056,0.104-0.103,0.17-0.224,0.208c-0.223,0.066-0.469-0.042-0.688,0.024c-0.133,0.045-0.272,0.095-0.396,0.156
		c-0.116,0.058-0.306,0.139-0.386,0.248c-0.078,0.117-0.172,0.217-0.332,0.198c-0.065-0.012-0.735-0.178-0.756-0.107
		c-0.107,0.392-0.454,0.063-0.66-0.016c-0.104-0.04-0.22,0.005-0.289-0.108c-0.072-0.115-0.045-0.253-0.115-0.364
		c-0.059-0.092-0.098-0.213-0.176-0.292c-0.084-0.088-0.235-0.036-0.342-0.043c-0.105-0.007-0.16-0.086-0.261-0.107
		c-0.051-0.015-0.128-0.026-0.178-0.002c-0.047,0.021-0.071,0.083-0.112,0.111c-0.223,0.167-0.51,0.094-0.762,0.141
		c-0.112,0.026-0.244,0.068-0.335-0.025c-0.042-0.038-0.042-0.099-0.078-0.141c-0.027-0.034-0.104-0.069-0.146-0.084
		c-0.238-0.096-0.519-0.098-0.771-0.146c-0.121-0.024-0.223-0.041-0.332-0.104c-0.117-0.063-0.195-0.185-0.316-0.245
		c-0.223-0.108-0.444-0.042-0.678-0.083c-0.08-0.018-0.066-0.044-0.121-0.083c-0.041-0.03-0.112-0.041-0.16-0.047
		c-0.096-0.014-0.252-0.021-0.344,0.021c-0.008,0.177-0.016,0.304-0.11,0.463c-0.071,0.127-0.168,0.259-0.3,0.314
		c-0.155,0.063-0.3,0.029-0.453-0.006c-0.089-0.014-0.385-0.133-0.424-0.003c-0.078,0.011-0.18,0.009-0.262,0
		c-0.098-0.011-0.204-0.015-0.309-0.015c-0.172,0-0.393,0.061-0.551,0c-0.091-0.04-0.152-0.062-0.251-0.081
		c-0.089-0.01-0.181-0.026-0.273-0.038c-0.229-0.03-0.502,0.067-0.666-0.149c-0.047-0.063-0.078-0.126-0.131-0.182
		c-0.052-0.047-0.062-0.093-0.091-0.154c-0.031-0.063-0.081-0.112-0.114-0.175c-0.026-0.046-0.05-0.091-0.077-0.13
		c-0.06-0.09-0.127-0.185-0.146-0.295c-0.013-0.099,0.019-0.193-0.016-0.29c-0.036-0.096-0.083-0.188-0.12-0.283
		c-0.038-0.097-0.057-0.194-0.081-0.297c-0.034-0.129-0.004-0.186-0.114-0.271c-0.094-0.062-0.18-0.133-0.27-0.201
		c-0.079-0.065-0.04-0.175-0.071-0.264c-0.034-0.111-0.084-0.224-0.127-0.336c-0.026-0.074-0.02-0.158-0.049-0.231
		c-0.034-0.072-0.072-0.054-0.141-0.098c-0.081-0.045-0.159-0.105-0.219-0.177c-0.065-0.075-0.074-0.163-0.118-0.246
		c-0.069-0.124-0.091-0.307-0.091-0.463c0-0.191,0.038-0.374,0.05-0.563c0.014-0.272,0.059-0.51,0.106-0.771
		c0.047-0.261-0.072-0.526-0.323-0.64c-0.061-0.03-0.203-0.066-0.262-0.005c-0.032,0.031-0.034,0.112-0.067,0.157
		c-0.078,0.119-0.208,0.19-0.285,0.302c-0.048,0.076-0.077,0.177-0.148,0.231c-0.074,0.059-0.166,0.063-0.254,0.084
		c-0.19,0.039-0.366,0.052-0.561,0.052c-0.117,0-0.258,0-0.369-0.052c-0.086-0.044-0.207-0.189-0.208-0.291
		c-0.005-0.149,0.023-0.332,0.054-0.476c0.03-0.126,0.102-0.22,0.056-0.354c-0.092-0.271-0.492-0.176-0.695-0.139
		c-0.275,0.045-0.533,0.074-0.804-0.002c-0.224-0.058-0.52-0.156-0.59-0.401s0.101-0.49,0.111-0.734
		c0.008-0.233-0.084-0.555-0.254-0.728c-0.206-0.203-0.411-0.029-0.463,0.205c-0.025,0.125-0.035,0.255-0.088,0.377
		c-0.066,0.148-0.167,0.278-0.278,0.396c-0.031,0.038-0.15,0.186-0.215,0.154c-0.051-0.027-0.056-0.217-0.071-0.27
		c-0.061-0.225-0.246-0.428-0.212-0.672c0.048-0.283,0.103-0.486-0.004-0.769c-0.096-0.249-0.125-0.481-0.125-0.752
		c0.005-0.267,0.03-0.457,0.273-0.598c0.154-0.088,0.303-0.164,0.442-0.268c0.137-0.102,0.29-0.192,0.171-0.364
		c-0.136-0.192-0.235-0.403-0.336-0.616c-0.051-0.106-0.127-0.215-0.144-0.335c-0.01-0.11,0.017-0.228,0.007-0.336
		c-0.015-0.168-0.086-0.316-0.228-0.41c-0.085-0.05-0.16-0.111-0.24-0.165c-0.096-0.061-0.201-0.051-0.301-0.08
		c-0.128-0.031-0.227-0.112-0.345-0.166c-0.082-0.028-0.148-0.038-0.222-0.096c-0.185-0.141-0.351-0.313-0.479-0.498
		c-0.127-0.193-0.253-0.383-0.379-0.579c-0.103-0.154-0.192-0.324-0.321-0.462c-0.078-0.084-0.134-0.181-0.21-0.267
		c-0.214-0.229-0.447-0.471-0.7-0.664c-0.204-0.153-0.43-0.281-0.668-0.384c-0.5-0.216-1.058-0.254-1.6-0.192
		c-0.12,0.014-0.241,0.021-0.356,0.06c-0.27,0.098-0.43,0.406-0.602,0.62c-0.2,0.252-0.439,0.446-0.568,0.747
		c-0.059,0.131-0.151,0.224-0.254,0.321c-0.111,0.107-0.199,0.201-0.329,0.29c-0.068,0.047-0.121,0.108-0.185,0.167
		c-0.067,0.06-0.131,0.084-0.188,0.164c-0.062,0.081-0.137,0.152-0.21,0.223c-0.165,0.158-0.331,0.319-0.504,0.471
		c-0.14,0.12-0.291,0.234-0.456,0.325c-0.121,0.066-0.249,0.101-0.376,0.145c-0.113,0.047-0.181,0.024-0.297-0.004
		c-0.088-0.024-0.17-0.054-0.25-0.096c-0.239-0.125-0.459-0.257-0.606-0.487c-0.056-0.099-0.106-0.192-0.149-0.291
		c-0.051-0.117-0.101-0.235-0.151-0.352c-0.048-0.11-0.036-0.18-0.044-0.29c-0.018-0.267-0.038-0.516-0.1-0.778
		c-0.031-0.142-0.048-0.289-0.054-0.432c-0.009-0.131-0.03-0.287-0.009-0.414c0.021-0.094,0.063-0.177,0.073-0.277
		c0.018-0.149,0.032-0.303,0.012-0.451c-0.012-0.075-0.057-0.167-0.085-0.242c-0.042-0.106-0.044-0.234-0.094-0.354
		c-0.051-0.128-0.122-0.251-0.189-0.375c-0.099-0.177-0.183-0.362-0.274-0.542c-0.154-0.316-0.265-0.66-0.414-0.985
		c-0.134-0.291-0.327-0.627-0.344-0.954c-0.008-0.144,0.007-0.301,0.046-0.441c0.042-0.143,0.134-0.265,0.209-0.398
		c0.174-0.31,0.342-0.642,0.596-0.898c0.008,0.142,0,0.272-0.036,0.41c-0.032,0.125-0.082,0.265-0.051,0.398
		c0.063,0.251,0.438,0.276,0.645,0.297c0.106,0.015,0.263,0.035,0.316-0.081c0.056-0.112-0.015-0.256,0.015-0.376
		c0.031-0.152,0.18-0.213,0.314-0.259c0.165-0.062,0.325-0.126,0.473-0.223c0.083-0.047,0.077-0.12,0.136-0.189
		c0.048-0.053,0.109-0.103,0.162-0.149c0.085-0.087,0.119-0.193,0.104-0.31c-0.073-0.039-0.169-0.025-0.25-0.025
		c-0.211,0-0.418,0.035-0.63,0.057c-0.217,0.023-0.44,0.043-0.643,0.127c-0.258,0.105-0.396,0.432-0.288,0.696
		c0.116,0.274,0.508,0.224,0.752,0.209c0.319-0.016,0.62-0.074,0.925-0.169c0.266-0.084,0.505-0.236,0.727-0.403
		c0.109-0.085,0.219-0.174,0.326-0.269c0.096-0.086,0.124-0.179,0.2-0.272c0.069-0.083,0.151-0.151,0.213-0.237
		c0.104-0.132,0.215-0.245,0.328-0.363c0.13-0.141,0.254-0.297,0.387-0.44c0.159-0.165,0.296-0.332,0.417-0.53
		c0.054-0.091,0.091-0.154,0.115-0.257c0.041-0.175,0.057-0.364,0.14-0.528c0.083-0.156,0.207-0.296,0.263-0.466
		c0.038-0.137,0.049-0.256,0.071-0.387c0.033-0.179,0.184-0.327,0.18-0.515c0-0.078-0.013-0.122,0.025-0.19
		c0.049-0.087,0.108-0.148,0.123-0.249c0.022-0.147,0.079-0.273,0.079-0.435c0.006-0.379,0.113-0.755,0.098-1.137
		c-0.009-0.257,0.134-0.486,0.134-0.732c0-0.094-0.078-0.189,0-0.281c0-0.105-0.024-0.196,0.014-0.292
		c0.038-0.086,0.055-0.177,0.069-0.264c0.029-0.222,0-0.459,0-0.68c0.001-0.178-0.074-0.379-0.118-0.556
		c-0.037-0.146-0.05-0.299-0.057-0.449c-0.003-0.117,0.024-0.213-0.003-0.326c-0.094-0.405-0.142-0.801-0.184-1.216
		c-0.021-0.19-0.142-0.34-0.196-0.521c-0.069-0.211-0.126-0.414-0.249-0.604c-0.084-0.121-0.156-0.25-0.233-0.38
		c-0.173-0.282-0.423-0.517-0.606-0.795c-0.131-0.201-0.256-0.402-0.419-0.579c-0.22-0.243-0.483-0.443-0.717-0.674
		c-0.084-0.084-0.188-0.145-0.27-0.229c-0.125-0.131-0.246-0.241-0.383-0.351c-0.118-0.086-0.235-0.185-0.347-0.278
		c-0.118-0.099-0.251-0.181-0.367-0.283c-0.136-0.112-0.266-0.234-0.399-0.358c-0.156-0.14-0.333-0.252-0.49-0.399
		c-0.38-0.335-0.76-0.659-1.216-0.885c-0.591-0.286-1.139-0.63-1.773-0.835c-0.178-0.053-0.361-0.104-0.548-0.143
		c-0.141-0.024-0.28-0.049-0.417-0.096c-0.152-0.054-0.294-0.132-0.449-0.177c-0.302-0.094-0.636,0.03-0.924-0.122
		c-0.146-0.069-0.27-0.188-0.406-0.281c-0.128-0.091-0.271-0.148-0.409-0.224c-0.309-0.169-0.419-0.434-0.363-0.775
		c0.061-0.362,0.04-0.663-0.144-0.996c-0.141-0.249-0.287-0.494-0.416-0.751c-0.077-0.156-0.143-0.31-0.171-0.484
		c-0.029-0.179-0.029-0.363-0.068-0.543c-0.066-0.28-0.275-0.647,0.036-0.855c0.147-0.101,0.327-0.072,0.486-0.122
		c0.081-0.03,0.16-0.074,0.227-0.126c0.081-0.076,0.077-0.156,0.102-0.261c0.038-0.167-0.021-0.323-0.077-0.479
		c-0.119-0.329-0.077-0.664-0.139-1.002c-0.012-0.063-0.05-0.177-0.02-0.237c0.025-0.067,0.159-0.15,0.215-0.193
		c0.104-0.086,0.217-0.159,0.317-0.249c0.08-0.075,0.143-0.166,0.213-0.247c0.047-0.053,0.1-0.093,0.148-0.143
		c0.07-0.075,0.154-0.128,0.224-0.202c0.063-0.063,0.12-0.152,0.148-0.235c0.012-0.038,0-0.104,0.021-0.139
		c0.024-0.027,0.089-0.027,0.119-0.037c0.187-0.045,0.288-0.191,0.417-0.33c0.065-0.067,0.162-0.121,0.215-0.192
		c0.057-0.078,0.064-0.19,0.077-0.282c0.011-0.071,0.025-0.154,0.096-0.206c0.08-0.057,0.174-0.098,0.255-0.157
		c0.09-0.068,0.139-0.146,0.22-0.219c0.074-0.061,0.143-0.126,0.202-0.197c0.109-0.123,0.255-0.201,0.297-0.365
		c0.019-0.077,0.019-0.187,0.072-0.25c0.061-0.065,0.165-0.139,0.237-0.192c0.172-0.134,0.342-0.279,0.506-0.419
		c0.184-0.162,0.346-0.345,0.523-0.505c0.144-0.132,0.214-0.294,0.298-0.47c0.068-0.146,0.203-0.358,0.372-0.402
		c0.082-0.02,0.203-0.02,0.291-0.02c0.099-0.005,0.193-0.003,0.291-0.003c0.083,0,0.214,0.029,0.273-0.037
		c0.056-0.07,0.033-0.188,0.052-0.269c0.023-0.101,0.023-0.214,0.072-0.307c0.042-0.078,0.116-0.145,0.163-0.225
		c0.039-0.053,0.063-0.11,0.085-0.177c0.04-0.103,0.1-0.205,0.157-0.308c0.101-0.17,0.195-0.362,0.319-0.518
		c0.131-0.163,0.229-0.362,0.322-0.554c0.042-0.093,0.034-0.18,0.081-0.273c0.046-0.087,0.117-0.148,0.188-0.233
		c0.124-0.142,0.291-0.188,0.44-0.3c0.073-0.05,0.103-0.146,0.172-0.211c0.066-0.055,0.137-0.106,0.207-0.156
		c0.313-0.213,0.639-0.355,0.838-0.697c0.058-0.093,0.04-0.216,0.053-0.317c0.018-0.101,0.053-0.209,0.105-0.306
		c0.117-0.199,0.302-0.329,0.519-0.415c0.016-0.104,0.002-0.231,0.002-0.338c0-0.056,0.003-0.116-0.011-0.164
		c-0.013-0.059-0.043-0.064,0.011-0.128c0.075-0.089,0.147-0.107,0.188-0.225c0.038-0.107,0.068-0.207,0.087-0.324
		c0.181-0.013,0.356-0.021,0.535,0.017c0.198,0.043,0.119,0.281,0.141,0.425c0.044,0.248,0.292,0.103,0.445,0.187
		c0.043,0.027,0.076,0.076,0.115,0.11c0.066,0.066,0.141,0.112,0.227,0.162c0.134,0.071,0.252,0.179,0.413,0.2
		c0.074,0.009,0.144-0.003,0.217,0.009c0.118,0.021,0.14,0.005,0.213-0.082c0.096-0.121,0.177-0.271,0.32-0.346
		c0.121-0.063,0.33-0.03,0.459,0.002c0.125,0.037,0.242,0.105,0.371,0.143c0.141,0.054,0.281,0.104,0.422,0.157
		c0.081,0.029,0.158,0.057,0.235,0.08c0.07,0.021,0.123,0.072,0.193,0.102c0.076,0.03,0.147,0.029,0.197-0.035
		c0.086-0.099,0.112-0.158,0.117-0.285c0.004-0.106,0.008-0.224,0.059-0.317c0.026-0.056,0.081-0.093,0.106-0.151
		c0.04-0.071,0.008-0.142,0.03-0.221c0.039-0.136-0.095-0.237-0.031-0.355C39.266,26.859,39,26.704,39,26.566
		c0-0.071,0-0.145,0-0.213c0-0.08,0.244-0.101,0.214-0.161c-0.03-0.063,0.114-0.122,0.125-0.189
		c0.017-0.104,0.069-0.131,0.021-0.226c-0.07-0.12-0.059-0.264,0.05-0.358c0.118-0.104,0.255-0.194,0.373-0.296
		c0.139-0.132,0.265-0.273,0.396-0.415c0.125-0.128,0.228-0.309,0.414-0.345c0.086-0.021,0.175,0,0.262-0.014
		c0.169-0.021,0.343-0.021,0.516-0.036c0.107-0.01,0.194-0.045,0.295-0.07c0.115-0.025,0.232-0.021,0.346-0.011
		c0.14,0.017,0.311,0.017,0.438-0.045c0.272-0.132,0.37-0.396,0.49-0.645c0.133-0.277,0.546-0.247,0.797-0.287
		c0.138-0.021,0.265-0.041,0.4-0.046c0.197-0.013,0.241-0.121,0.344-0.265c0.036-0.047,0.081-0.092,0.124-0.13
		c0.05-0.046,0.117-0.065,0.157-0.116C44.917,22.521,44.818,22.271,44.818,22.068z"/>
	<g>
		<path style="&st12;" d="M44.347,29.236L44.347,29.236c-0.96,1.418-2.346,2.532-3.979,3.168c-0.116,0.053-0.233,0.123-0.316,0.222
			l-2.806,6.073l-2.805-6.073c-0.098-0.111-0.216-0.196-0.345-0.233c-1.618-0.636-2.993-1.745-3.952-3.156
			c-0.946-1.38-1.503-3.052-1.503-4.853c0-2.385,0.965-4.521,2.521-6.077c1.556-1.554,3.712-2.527,6.084-2.527
			c2.37,0,4.53,0.974,6.084,2.527c1.554,1.556,2.521,3.692,2.521,6.077C45.85,26.185,45.299,27.856,44.347,29.236L44.347,29.236z"/>
		<path style="&st18;" d="M37.245,19.445L37.245,19.445c-1.362,0-2.59,0.555-3.492,1.445c-0.892,0.892-1.446,2.129-1.446,3.493
			c0,1.342,0.54,2.574,1.42,3.461l0.026,0.03c0.902,0.892,2.13,1.448,3.492,1.448c1.358,0,2.601-0.557,3.491-1.448l0,0
			c0.892-0.896,1.447-2.129,1.447-3.491c0-1.364-0.556-2.602-1.447-3.493C39.846,20,38.607,19.445,37.245,19.445L37.245,19.445z"/>
		<path style="&st13;" d="M39.391,26.528L39.391,26.528c-0.547,0.552-1.311,0.894-2.148,0.894c-0.84,0-1.599-0.342-2.146-0.894
			l-0.021-0.015c-0.539-0.551-0.873-1.306-0.873-2.131c0-0.835,0.342-1.598,0.894-2.148c0.547-0.549,1.306-0.896,2.146-0.896
			c0.838,0,1.602,0.348,2.148,0.896c0.551,0.551,0.888,1.313,0.888,2.148C40.278,25.224,39.941,25.986,39.391,26.528L39.391,26.528z
			"/>
	</g>
	<g>
		<path style="&st12;" d="M69.162,54.004L69.162,54.004c-0.959,1.418-2.346,2.532-3.979,3.168c-0.117,0.053-0.234,0.123-0.316,0.222
			l-2.807,6.073l-2.805-6.073c-0.098-0.111-0.215-0.196-0.344-0.233c-1.619-0.636-2.994-1.745-3.953-3.156
			c-0.945-1.38-1.502-3.052-1.502-4.853c0-2.385,0.965-4.521,2.52-6.077c1.557-1.554,3.713-2.527,6.084-2.527
			s4.531,0.974,6.084,2.527c1.555,1.556,2.521,3.692,2.521,6.077C70.666,50.952,70.115,52.624,69.162,54.004L69.162,54.004z"/>
		<path style="&st18;" d="M62.061,44.213L62.061,44.213c-1.361,0-2.59,0.555-3.492,1.445c-0.891,0.892-1.445,2.129-1.445,3.493
			c0,1.342,0.539,2.574,1.42,3.461l0.025,0.03c0.902,0.892,2.131,1.448,3.492,1.448c1.359,0,2.602-0.557,3.492-1.448l0,0
			C66.443,51.747,67,50.514,67,49.151c0-1.364-0.557-2.602-1.447-3.493C64.662,44.768,63.424,44.213,62.061,44.213L62.061,44.213z"
			/>
		<path style="&st13;" d="M64.207,51.296L64.207,51.296c-0.547,0.552-1.311,0.894-2.148,0.894c-0.84,0-1.6-0.342-2.146-0.894
			l-0.02-0.015c-0.539-0.551-0.873-1.306-0.873-2.131c0-0.835,0.342-1.598,0.893-2.148c0.547-0.549,1.307-0.896,2.146-0.896
			c0.838,0,1.602,0.348,2.148,0.896c0.551,0.551,0.887,1.313,0.887,2.148C65.094,49.991,64.758,50.754,64.207,51.296L64.207,51.296z
			"/>
	</g>
	<g>
		<path style="&st12;" d="M51.953,62.286L51.953,62.286c-0.958,1.418-2.345,2.532-3.979,3.168c-0.116,0.053-0.233,0.123-0.316,0.222
			l-2.806,6.073l-2.805-6.073c-0.098-0.111-0.216-0.196-0.345-0.233c-1.618-0.636-2.993-1.745-3.952-3.156
			c-0.946-1.38-1.503-3.052-1.503-4.853c0-2.385,0.965-4.521,2.521-6.077c1.556-1.554,3.712-2.527,6.084-2.527
			c2.37,0,4.53,0.974,6.083,2.527c1.554,1.556,2.521,3.692,2.521,6.077C53.457,59.234,52.906,60.906,51.953,62.286L51.953,62.286z"
			/>
		<path style="&st18;" d="M44.853,52.495L44.853,52.495c-1.362,0-2.59,0.555-3.492,1.445c-0.892,0.892-1.446,2.129-1.446,3.493
			c0,1.342,0.54,2.574,1.42,3.461l0.026,0.03c0.902,0.892,2.13,1.448,3.492,1.448c1.358,0,2.601-0.557,3.491-1.448l0,0
			c0.892-0.896,1.447-2.129,1.447-3.491c0-1.364-0.556-2.602-1.447-3.493C47.453,53.05,46.215,52.495,44.853,52.495L44.853,52.495z"
			/>
		<path style="&st13;" d="M46.998,59.578L46.998,59.578c-0.547,0.552-1.311,0.894-2.148,0.894c-0.84,0-1.599-0.342-2.146-0.894
			l-0.021-0.015c-0.539-0.551-0.873-1.306-0.873-2.131c0-0.835,0.342-1.598,0.894-2.148c0.547-0.549,1.306-0.896,2.146-0.896
			c0.838,0,1.602,0.348,2.148,0.896c0.551,0.551,0.888,1.313,0.888,2.148C47.886,58.273,47.549,59.036,46.998,59.578L46.998,59.578z
			"/>
	</g>
</g>
</svg>
