<svg id="a4a6f50c-438d-4773-96e2-5c21ccdaf57f" data-name="圖層 1" xmlns="http://www.w3.org/2000/svg" viewBox="0 0 100 100"><title>hot-tag</title><circle cx="50" cy="50" r="50" style="fill:#ff9b74"/><circle cx="50" cy="50" r="45" style="fill:none;stroke:#fff;stroke-miterlimit:10"/><rect x="22.2" y="21.3" width="16.5" height="16.55" style="fill:#92b7ef"/><path d="M30.5,27.9a1.9,1.9,0,0,0-2.1-1.7,1.9,1.9,0,0,0-2.1,1.7c0,1.9,4.1,5.2,4.1,5.2s4.1-3.3,4.1-5.2a2.1,2.1,0,0,0-4.1,0Z" style="fill:#fff"/><rect x="42" y="21.3" width="16.5" height="16.55" style="fill:#f7d237"/><path d="M50.2,27.9a2.1,2.1,0,0,0-4.1,0c0,1.9,4.1,5.2,4.1,5.2s4.1-3.3,4.1-5.2a2.1,2.1,0,0,0-4.1,0Z" style="fill:#fff"/><rect x="61.6" y="21.3" width="16.6" height="16.55" style="fill:#aedd47"/><path d="M69.9,27.9a2.1,2.1,0,0,0-4.1,0c0,1.9,4.1,5.2,4.1,5.2S74,29.8,74,27.9a2.1,2.1,0,0,0-4.1,0Z" style="fill:#fff"/><rect x="22.2" y="41.2" width="16.5" height="16.55" style="fill:#e0ace5"/><path d="M30.5,47.8a1.9,1.9,0,0,0-2.1-1.7,1.9,1.9,0,0,0-2.1,1.7c0,1.9,4.1,5.2,4.1,5.2s4.1-3.3,4.1-5.2a2.1,2.1,0,0,0-4.1,0Z" style="fill:#fff"/><rect x="42" y="41.2" width="16.5" height="16.55" style="fill:#43d17d"/><path d="M50.2,47.8a2.1,2.1,0,0,0-4.1,0c0,1.9,4.1,5.2,4.1,5.2s4.1-3.3,4.1-5.2a2.1,2.1,0,0,0-4.1,0Z" style="fill:#fff"/><rect x="61.6" y="41.2" width="16.6" height="16.55" style="fill:#68c1c1"/><path d="M69.9,47.8a2.1,2.1,0,0,0-4.1,0c0,1.9,4.1,5.2,4.1,5.2S74,49.7,74,47.8a2.1,2.1,0,0,0-4.1,0Z" style="fill:#fff"/><rect x="22.2" y="61" width="16.5" height="16.55" style="fill:#fcd6d6"/><path d="M30.5,67.5a1.9,1.9,0,0,0-2.1-1.7,1.9,1.9,0,0,0-2.1,1.7c0,1.9,4.1,5.2,4.1,5.2s4.1-3.3,4.1-5.2a2.1,2.1,0,0,0-4.1,0Z" style="fill:#fff"/><rect x="42" y="61" width="16.5" height="16.55" style="fill:#fee677"/><path d="M50.2,67.5a2.1,2.1,0,0,0-4.1,0c0,1.9,4.1,5.2,4.1,5.2s4.1-3.3,4.1-5.2a2.1,2.1,0,0,0-4.1,0Z" style="fill:#fff"/><rect x="61.6" y="61" width="16.6" height="16.55" style="fill:#d9e9f9"/><path d="M69.9,67.5a2.1,2.1,0,0,0-4.1,0c0,1.9,4.1,5.2,4.1,5.2S74,69.4,74,67.5a2.1,2.1,0,0,0-4.1,0Z" style="fill:#fff"/></svg>