<?xml version="1.0" encoding="utf-8"?>
<!-- Generator: Adobe Illustrator 16.0.0, SVG Export Plug-In . SVG Version: 6.00 Build 0)  -->
<!DOCTYPE svg PUBLIC "-//W3C//DTD SVG 1.1//EN" "http://www.w3.org/Graphics/SVG/1.1/DTD/svg11.dtd">
<svg version="1.1" id="圖層_1" xmlns="http://www.w3.org/2000/svg" xmlns:xlink="http://www.w3.org/1999/xlink" x="0px" y="0px"
	 width="50px" height="50px" viewBox="0 0 50 50" enable-background="new 0 0 50 50" xml:space="preserve">
<g>
	<circle fill="#BBD97E" cx="25" cy="25" r="25"/>
	<g>
		<rect x="11.703" y="14.879" fill="#D8E7F6" width="26.754" height="17.864"/>
		<polygon fill="#58B877" points="30.135,23.771 22.902,31.372 17.796,26.034 11.223,32.954 11.223,34.749 11.223,35.892 
			12.293,35.892 38.16,35.892 39.223,35.892 39.223,34.79 39.223,33.335 		"/>
		<path fill="#F29673" d="M20.021,17.147L20.021,17.147c1.542,0,2.799,1.274,2.799,2.817c0,1.554-1.257,2.809-2.799,2.809
			c-1.553,0-2.809-1.255-2.809-2.809C17.212,18.421,18.468,17.147,20.021,17.147L20.021,17.147z"/>
		<path fill="#D1B699" d="M11.223,14.173v23.168h28V14.173H11.223z M37.223,35.247H13.224V16.171h23.999V35.247z"/>
	</g>
	<circle fill="none" stroke="#FFFFFF" stroke-miterlimit="10" cx="25" cy="25" r="22.5"/>
</g>
</svg>
