<?xml version="1.0" encoding="utf-8"?>
<!-- Generator: Adobe Illustrator 16.0.0, SVG Export Plug-In . SVG Version: 6.00 Build 0)  -->
<!DOCTYPE svg PUBLIC "-//W3C//DTD SVG 1.1//EN" "http://www.w3.org/Graphics/SVG/1.1/DTD/svg11.dtd" [
	<!ENTITY st0 "fill:#48AC8D;">
	<!ENTITY st1 "fill:#ACCFF6;">
	<!ENTITY st2 "fill:none;stroke:#D4B99B;stroke-width:0.2746;stroke-linecap:round;stroke-miterlimit:10;">
	<!ENTITY st3 "fill:#E5E5E5;">
	<!ENTITY st4 "fill:#191919;">
	<!ENTITY st5 "fill:#B2B2B2;">
	<!ENTITY st6 "fill:#EA5C0B;">
	<!ENTITY st7 "fill:#EC6C23;">
	<!ENTITY st8 "fill:none;stroke:#F7D237;stroke-miterlimit:10;">
	<!ENTITY st9 "fill:none;stroke:#FFFFFF;stroke-miterlimit:10;">
	<!ENTITY st10 "fill:#8B5E3C;">
	<!ENTITY st11 "fill:#F7D237;">
	<!ENTITY st12 "fill:#5DB599;">
	<!ENTITY st13 "fill:#C49A6C;">
	<!ENTITY st14 "fill:#603913;">
	<!ENTITY st15 "fill:#FFFFFF;">
	<!ENTITY st16 "fill:#68C1C1;">
	<!ENTITY st17 "fill:#CCCCCC;">
	<!ENTITY st18 "fill:#333333;">
	<!ENTITY st19 "fill:#D4B99B;">
	<!ENTITY st20 "fill:#3A63C9;">
	<!ENTITY st21 "fill:#3C2415;">
	<!ENTITY st22 "fill:#D9E9F9;">
	<!ENTITY st23 "fill:none;stroke:#D4B99B;stroke-width:0.2835;stroke-linecap:round;stroke-miterlimit:10;">
	<!ENTITY st24 "fill:#71BFA6;">
	<!ENTITY st25 "fill:#754C29;">
	<!ENTITY st26 "fill:#A97C50;">
	<!ENTITY st27 "fill:#DDDDDD;">
	<!ENTITY st28 "fill:#419CE0;">
]>
<svg version="1.1" id="圖層_1" xmlns="http://www.w3.org/2000/svg" xmlns:xlink="http://www.w3.org/1999/xlink" x="0px" y="0px"
	 width="100px" height="100px" viewBox="0 0 100 100" style="enable-background:new 0 0 100 100;" xml:space="preserve">
<g>
	<circle style="&st15;" cx="50" cy="50" r="50"/>
	<circle style="&st8;" cx="49.999" cy="50" r="44.999"/>
	<g>
		
			<ellipse transform="matrix(0.7133 0.7008 -0.7008 0.7133 49.3748 -20.7072)" style="&st11;" cx="49.999" cy="50" rx="29.223" ry="31.426"/>
		<g>
			<path style="&st15;" d="M55.802,78.602c-0.258-0.074-0.533-0.152-0.773-0.244c-0.031-0.014-0.061-0.031-0.061-0.031
				s0.014,0,0.014,0.018c-4.945-1.76-4.508-6.738-4.508-6.738c0.029-0.205,0.049-0.34,0.143-0.492
				c-0.16-0.373,0.273-0.691,0.035-0.975c0.109-0.219,0.289-0.393,0.289-0.693c0.033-0.139,0.191-0.264,0.158-0.408
				c-0.125-0.213,0.371-0.404,0.275-0.643c0.176-0.359,0.176-0.76,0.498-0.92c0.016-0.162,0.227-0.283,0.16-0.447
				c0.295-0.148,0.244-0.404,0.307-0.678c0.131-0.082,0.26-0.205,0.211-0.391c0.049-0.098,0.129-0.152,0.242-0.145l-0.049-0.178
				c-0.223,0.053-0.691-0.066-0.645,0.34c-0.143,0-0.066,0.242-0.227,0.242c0.035,0.334-0.385,0.404-0.238,0.756
				c-0.293,0.152,0,0.529-0.326,0.689c-0.111,0.326-0.334,0.545-0.547,0.766c-0.047,0.063,0.033,0.17-0.109,0.17
				c-0.129-0.205,0.014-0.484,0.16-0.645c0.049-0.611,0.436-0.967,0.611-1.545c-0.02-0.309,0.238-0.596,0.4-0.84
				c0.256-0.209,0.256-0.551,0.373-0.889c0.109-0.432,0.324-0.631,0.402-1.064c0.213-0.168,0.176-0.596,0.369-0.73
				c0.16-0.525,0.531-0.889,0.791-1.389c0.193-0.096,0.127-0.34,0.303-0.51c0.07-0.26,0.018-0.502,0.291-0.719
				c0.336-0.084,0.324-0.574,0.645-0.705l-0.029-0.049c0.352-0.359,0.623-0.867,1.188-0.881c0.242,0.043,0.307-0.104,0.486-0.211
				c0.045-0.037,0.189-0.066,0.096-0.193c0.447-0.055,0.463-0.438,0.625-0.775c0.242-0.191,0.227-0.531,0.469-0.723
				c-0.129-0.242,0.225-0.299,0.096-0.523c-0.305-0.08-0.209,0.25-0.305,0.381c-0.127,0.135-0.373,0.174-0.352,0.369
				c-0.086,0.047-0.037,0.291-0.229,0.273c-0.08,0.143-0.256,0.275-0.193,0.48c-0.096-0.045-0.191-0.045-0.293-0.01
				c-0.189-0.248,0.115-0.496,0.086-0.801c0.061-0.146,0.305-0.219,0.174-0.412c-0.227,0-0.193,0.209-0.334,0.32
				c-0.084,0-0.182,0.045-0.227-0.037c0.031-0.152,0.031-0.443,0.273-0.457c0.047-0.188,0.32-0.273,0.225-0.486
				c0.271-0.113,0.209-0.418,0.547-0.418c-0.029-0.043,0-0.143-0.082-0.16c0.031-0.031,0.031-0.105,0.1-0.096l-0.031-0.291
				c0.189-0.227,0.48-0.342,0.736-0.473c-0.096-0.139,0.064-0.252,0.098-0.309c0.014-0.34,0.484-0.375,0.498-0.734
				c0.244,0,0.357-0.178,0.531-0.27c0.033-0.193,0.242-0.334,0.422-0.455c-0.016-0.047,0-0.127,0.033-0.191
				c0.258-0.104,0.385-0.512,0.576-0.703c0.066-0.113,0.273-0.184,0.146-0.359c0.047-0.051,0.063-0.145,0.16-0.137l-0.016-0.107
				c-0.064-0.109,0.063-0.127,0.164-0.152c0.125-0.361,0.676-0.49,0.578-1c-0.129-0.029-0.178,0.188-0.277,0.035
				c0.066-0.182,0.18-0.318,0.246-0.473h0.014c0.033,0.078,0.1,0.145,0.1,0.227c0.123-0.018,0.234-0.018,0.307-0.133
				c0.105-0.037,0.189-0.211,0.383-0.26c0-0.07,0-0.125-0.078-0.16l0.094-0.064c0.322,0.123,0.191-0.205,0.469-0.248
				c0-0.074-0.031-0.135-0.096-0.182c0-0.074,0.111-0.107,0.143-0.189c0.129-0.027,0.195-0.168,0.371-0.168
				c0.033-0.162,0.182-0.199,0.207-0.371c0.242-0.27,0.387-0.627,0.451-0.982c0.227-0.092,0.084-0.383,0.338-0.457
				c-0.031-0.152,0.227-0.086,0.145-0.252c0.049-0.047,0.1-0.125,0.195-0.152c-0.014-0.152,0.111-0.256,0.1-0.404
				c0.078-0.086,0.174-0.189,0.27-0.281c0-0.223,0.178-0.396,0.273-0.563c0.244-0.381,0.389-0.711,0.564-1.104
				c0.262-0.215,0.191-0.537,0.209-0.846c-0.125-0.402-0.096-0.785-0.064-1.189c-0.023-1.012-1.82-0.633-2.332-0.504l-0.031,0.01
				c0.004,0,0.008-0.006,0.008-0.006c-0.076,0.023-0.125,0.035-0.125,0.035c-0.063,0.27-0.465,0.143-0.625,0.322
				c-0.146,0.039-0.311,0.051-0.436,0.133c-0.113,0.172-0.432,0.141-0.646,0.234c-0.127,0.012-0.205,0.162-0.385,0.145
				c-0.162,0.113-0.367,0.127-0.531,0.178c-0.098,0.162-0.404,0.025-0.338,0.273c-0.145,0.02-0.225,0.02-0.354,0.098
				c-0.064,0.176-0.322,0.162-0.498,0.195c-0.162,0.047-0.178,0.227-0.357,0.227c-0.033,0.158-0.24,0.029-0.336,0.107
				c-0.162,0.193-0.545,0.051-0.787,0.125l-0.084,0.104c-0.242-0.09-0.223,0.127-0.338,0.205c-0.271,0-0.453,0.203-0.723,0.178
				c-0.129,0.094-0.311,0.166-0.434,0.244c-0.244-0.027-0.389,0.143-0.588,0.143c-0.123,0.129-0.285-0.018-0.398,0.035v-0.035h-0.1
				c-0.254,0.227-0.607,0.018-0.865,0.186c-0.141,0.201-0.531-0.057-0.596,0.219c-0.129-0.018-0.178,0.121-0.338,0.086
				c-0.1,0.035-0.08,0.139-0.08,0.236c-0.305,0.016-0.646,0.094-0.932,0.215c-0.051,0.152-0.324,0.035-0.371,0.201
				c-0.227,0.059-0.42,0.113-0.648,0.092c0.02,0.057-0.061,0.086-0.061,0.113c-0.273-0.063-0.273,0.168-0.486,0.178
				c-0.016-0.027-0.047-0.027-0.031-0.057c-0.256,0.029-0.369,0.143-0.564,0.32c-0.158-0.047-0.229,0.064-0.34,0.092
				c-0.416-0.125-0.527,0.334-0.961,0.295c-0.133,0.17-0.471,0.055-0.549,0.273c-0.291-0.104-0.518,0.078-0.756,0.152
				c-0.26,0.018-0.439,0.201-0.678,0.152v0.082c-0.258,0-0.305,0.16-0.549,0.135c-0.211,0.234-0.615,0.139-0.822,0.355
				c-0.049,0.189-0.258,0-0.35,0.123c-0.195-0.074-0.264,0.094-0.391,0.16c-0.178,0.256-0.643,0.117-0.902,0.287
				c-0.209-0.031-0.209,0.178-0.432,0.135c-0.182,0.02-0.182,0.125-0.242,0.238c-0.162,0.072-0.324,0.078-0.486,0.113
				c-0.221,0.143-0.467,0.031-0.705,0.096c-0.131,0.154-0.342,0.217-0.342,0.416c-0.107,0.082-0.24,0-0.318-0.043
				c-0.098-0.02-0.223,0-0.242,0.092c-0.209-0.063-0.258,0.146-0.42,0.168l-0.049,0.078c0,0-0.047,0.156-0.111,0.027
				c-0.256-0.027-0.387,0.129-0.484,0.309c-0.129-0.037-0.336-0.16-0.422,0c0,0.217-0.271,0.131-0.398,0.207
				c0.018,0.074-0.018,0.148-0.096,0.178c-0.24-0.082-0.42,0.125-0.645,0.125c-0.143-0.043-0.307-0.107-0.498-0.043v0.223
				c-0.16,0.053-0.082,0.283-0.324,0.223c-0.129,0.246-0.145-0.102-0.293-0.074c-0.207,0.086-0.508,0.01-0.658,0.227
				c-0.174-0.018-0.271,0.139-0.369,0.242c-0.078,0.414-0.613,0.078-0.807,0.361c-0.336-0.361-0.514,0.203-0.771,0.234
				c-0.064,0.16-0.385-0.084-0.469,0.191c-0.303-0.049-0.516,0.154-0.768,0.193c-0.115,0.143-0.408,0.098-0.455,0.287
				c-0.178-0.006-0.258,0.131-0.432,0.078c-0.291,0.068-0.564,0.258-0.824,0.34c-0.254,0.025-0.316,0.295-0.645,0.182
				c-0.189,0.113-0.398,0.225-0.629,0.27c0.084,0.234-0.238,0.064-0.305,0.145c-0.096,0.068-0.258,0.068-0.242,0.193
				c-0.273-0.012-0.432,0.123-0.672,0.17c-0.1,0.156-0.258,0.078-0.342,0.188c-0.094,0.049-0.26,0-0.289,0.133
				c-0.229-0.072-0.273,0.123-0.486,0.1c-0.172,0.219-0.543,0.154-0.787,0.363c-0.16,0-0.289,0.111-0.451,0.127
				c-0.145,0.201-0.434,0.162-0.625,0.24c-0.127,0.102-0.307,0.131-0.465,0.201l-0.018,0.205c0.078-0.016,0.225,0.051,0.285-0.031
				c0.264,0,0.531-0.109,0.773-0.066c-0.014-0.043,0.035-0.107-0.014-0.121l0.258-0.105c0.227,0.209,0.471-0.207,0.756-0.121v0.121
				c-0.029,0.066-0.127,0.035-0.191,0.049c-0.064,0.178,0.113,0.195,0.146,0.34h0.092c0.049-0.014,0.033,0.053,0.033,0.086
				c0.385-0.033,0.838-0.086,1.191-0.15c0.178,0.225,0.471,0.033,0.693,0.076c0.227,0.035,0.273-0.143,0.514-0.107
				c0.066,0.064,0.229,0.082,0.195,0.182c0.02,0.049-0.018,0.074-0.051,0.066v0.168c0.115-0.029,0.291,0.049,0.277-0.121
				c0.047,0.104,0.191,0.027,0.287,0.055v-0.168c-0.049,0-0.096,0.025-0.125-0.004c0-0.029,0.029-0.035,0.029-0.07
				c0.084-0.025,0.197,0,0.143-0.107c-0.031-0.035-0.115,0.016-0.143-0.035c0-0.049,0-0.096,0.096-0.139
				c0,0,0.016,0.021,0.016,0.023c0.211-0.023,0.418,0.115,0.293,0.328h-0.178v0.135h0.131c0.047-0.031,0.047-0.064,0.078-0.131
				c0.16,0.049,0.387-0.057,0.482,0.092h0.646l0.064-0.166c0.061-0.012,0.031,0.074,0.078,0.074c0.113,0,0.26,0.025,0.373-0.004
				c0.061,0.07,0.225-0.029,0.254,0.07h0.244c-0.063-0.232,0.354-0.166,0.322-0.357c-0.051-0.014-0.115,0.025-0.133-0.041
				c-0.014-0.023,0-0.023,0.018-0.037c0.131,0.037,0.32,0,0.455,0.037c0.025,0.066,0.078,0.102,0.127,0.084
				c0.129-0.191,0.402,0.082,0.533-0.16c0.109,0,0.271-0.098,0.367-0.018c0.129-0.029,0.387-0.014,0.289-0.209l0.291,0.025v-0.072
				c-0.063-0.236,0.229-0.025,0.289-0.1v0.074c0.193,0.072,0.098-0.135,0.244-0.156c0.193-0.055,0.256,0.172,0.414,0.156
				c0.02,0.049-0.016,0.076-0.027,0.111c-0.16,0-0.16,0.227-0.277,0.305c-0.049-0.064-0.082-0.064-0.16-0.064
				c-0.131-0.053-0.064,0.107-0.158,0.139c-0.455,0.066-0.713,0.402-1.176,0.309c-0.096,0.049-0.096,0.191-0.133,0.297
				c-0.078,0.016-0.191-0.059-0.205,0.051c-0.035-0.074-0.131-0.1-0.18-0.074c0.049,0.209-0.238,0.254-0.111,0.48h0.129
				c0.078-0.104,0.273-0.064,0.256-0.189c0.018-0.066,0.033-0.143,0.148-0.143c0.096-0.197,0.385-0.191,0.559-0.279
				c0.18,0.049,0.34,0.049,0.438,0.209c-0.064,0.07-0.111,0.146-0.209,0.131v0.305c0.193-0.08,0.16,0.139,0.352,0.08
				c0.178-0.178,0.369,0.088,0.598,0.049v-0.078c0.018-0.018,0.033-0.066,0.063-0.051c0.051,0.018,0.051,0.051,0.051,0.064h0.078
				c0.066,0,0.084-0.047,0.1-0.098c0.125,0.018,0.271-0.016,0.385,0.033v0.018c0.18,0.033,0.324-0.166,0.58-0.098
				c0.033-0.111,0.244-0.018,0.209-0.18c0.229,0,0.404-0.289,0.645-0.215c0.164,0,0.438,0.035,0.498-0.121
				c0.02-0.014,0.035,0,0.049,0.033c0.08,0.006,0.244,0.049,0.289-0.033c0.029,0,0.029,0.039,0.029,0.082l0.232,0.023v-0.072
				c0.061-0.111,0.125-0.148,0.236-0.186c0.068-0.105,0.244,0.074,0.293-0.064c0,0.025,0.029,0.025,0.029,0.047
				c0.197,0.055,0.326-0.088,0.486-0.064c0.082-0.049,0.082-0.135,0.111-0.199c0.016,0.033,0.031,0.051,0.031,0.064
				c0.166-0.014,0.271-0.08,0.387-0.08c0.047-0.168,0.324,0.016,0.324-0.189c0.066,0.064,0.207-0.014,0.258,0.09h0.063
				c0.084,0.018,0.049-0.039,0.098-0.066c0.324,0.066,0.723-0.002,1.061-0.023c0.146-0.053,0.031-0.201,0.193-0.254
				c0.033,0.014,0.02,0.039,0.02,0.088c0.24,0.066,0.451-0.035,0.691-0.035v-0.15c0.191-0.248,0.578-0.074,0.789-0.182
				c0.049-0.197,0.42,0.047,0.336-0.227c0.246-0.123,0.518-0.256,0.807-0.217v0.029h0.111c0.162,0,0.082-0.168,0.193-0.248
				c0.213,0.049,0.244-0.203,0.484-0.137c0.115-0.123,0.326-0.066,0.484-0.137c0.078-0.064,0.227-0.064,0.258-0.195
				c0.111,0.039,0.225,0,0.34-0.018c-0.037,0.213-0.371,0.242-0.406,0.436c-0.082,0.082-0.096,0.27-0.242,0.23
				c-0.107,0-0.24,0.059-0.383,0.068l-0.051,0.334c0.051,0.014,0.098,0.014,0.115,0c-0.018,0.105-0.051,0.221-0.162,0.287
				c-0.045,0.295-0.193,0.5-0.275,0.781c-0.371-0.008,0.109,0.475-0.285,0.475c-0.164,0.555-0.523,0.723-0.742,1.236
				c-0.264,0.434-0.471,0.822-0.627,1.281c-0.197,0.082-0.295,0.301-0.295,0.508c-0.305,0.18-0.176,0.639-0.484,0.85
				c-0.049,0.125-0.191,0.283-0.129,0.434c-0.414,0.502-0.527,1.055-0.869,1.633c0.02,0.207-0.16,0.318-0.16,0.547
				c-0.164,0.031,0,0.338-0.227,0.369c-0.107,0.168-0.031,0.451-0.211,0.582c0.037,0.33-0.334,0.5-0.283,0.832
				c-0.1,0.219-0.211,0.549-0.342,0.771c0.018,0.068,0.018,0.125-0.029,0.182c0.176,0.287-0.113,0.385-0.053,0.629
				c0.07,0.33-0.176,0.404-0.176,0.709c-0.029,0.082-0.029,0.242,0.084,0.273c-0.129,0.178-0.016,0.434-0.016,0.678
				c-0.164,0.111-0.146,0.32-0.377,0.355c0.133,0.205-0.383,0.189-0.105,0.496c0.063-0.016,0.143-0.031,0.188,0.037
				c0.066,0.236-0.143,0.031-0.254,0.129c0.027,0.35,0.01,0.697-0.033,1.039c-0.066,0.15-0.16,0.365-0.275,0.506
				c-0.016,0.303-0.078,0.703-0.145,1.115c0,0.48-0.111,1.072,0,1.516c0,0.578,0.227,1.305,0.354,1.871
				c0.354,1.018,0.711,1.92,1.402,2.646c0.164,0.246,0.387,0.594,0.627,0.707c0.082,0.18,0.307,0.322,0.486,0.418
				c0.082,0.15,0.494,0.066,0.414,0.291c0.355,0.148,0.242,0.473,0.777,0.248c0.242,0.008,0.029,0.348,0.242,0.393
				c0.24-0.168,0.156,0.273,0.385,0.131c0.115,0.115,0.432,0.107,0.563,0.227l0.727,0.244c0,0,1.645,0.391,4.539,0.521
				c2.578-0.354,5.111-0.992,7.563-1.898C57.565,78.832,56.497,78.75,55.802,78.602z"/>
			<path style="&st15;" d="M64.724,27.559l-2.771-1.381c-0.867,0-1.896,0.182-2.59-0.336c-1.904-1.205-2.947,0.857-4.686,0.857
				c-0.869,0.184-1.902,0.859-2.4,1.221c-0.533,1.035,0.678,1.379,1.029,2.064c0.486,1.137,2.186,1.072,2.4,2.322
				c0,0.039,0,0.043,0.016,0.07c0.031,0.377,0.434,2.453,3.977,3.752h0.018c0.146,0.047,0.273,0.113,0.369,0.143
				c1.145,0.461,2.271,0.924,3.434,0.986c1.381-0.168,2.092-1.023,3.123-1.91c1.029-0.494,2.412-1.199,2.412-2.576
				c-1.029-1.037-1.207-2.254-1.738-3.473C66.282,28.955,65.61,27.92,64.724,27.559z"/>
		</g>
	</g>
</g>
</svg>
