<?xml version="1.0" encoding="utf-8"?>
<!-- Generator: Adobe Illustrator 16.0.0, SVG Export Plug-In . SVG Version: 6.00 Build 0)  -->
<!DOCTYPE svg PUBLIC "-//W3C//DTD SVG 1.1//EN" "http://www.w3.org/Graphics/SVG/1.1/DTD/svg11.dtd">
<svg version="1.1" id="圖層_1" xmlns="http://www.w3.org/2000/svg" xmlns:xlink="http://www.w3.org/1999/xlink" x="0px" y="0px"
	 width="100px" height="100px" viewBox="0 0 100 100" enable-background="new 0 0 100 100" xml:space="preserve">
<circle fill="#F96E6E" cx="50.838" cy="50.643" r="50"/>
<circle fill="none" stroke="#FFFFFF" stroke-miterlimit="10" cx="50.838" cy="50.643" r="45"/>
<g>
	<path fill="#FEE677" d="M75.877,69.417c0.004-0.148-0.009-0.345-0.188-0.345h-24.73H27.09c-0.235,0-0.579,0.421-0.579,0.558v8.295
		c0,0.131,0.344,0.168,0.579,0.168h48.599c0.237,0,0.186-0.037,0.186-0.168v-0.046c0.007,0,0-0.015,0-0.073V69.63
		C75.874,69.583,75.877,69.505,75.877,69.417z"/>
	<polygon fill="#EA444E" points="30.61,60.605 27.568,67.016 26.144,69.63 75.874,69.63 74.557,66.546 71.453,60.426 	"/>
	<path fill="#FEE677" d="M71.453,50.566h-0.212H50.958H30.433c-0.2,0-0.361,0.16-0.361,0.355v9.946l20.887-0.101l20.88,0.411V51.095
		C71.838,50.893,71.655,50.566,71.453,50.566z"/>
	<polygon fill="#F9B59E" points="30.071,60.413 28.883,63.854 73.398,63.854 71.698,60.554 	"/>
	<g>
		<g>
			<path fill="#EA444E" d="M48.736,60.387c0,1.188-0.96,2.147-2.149,2.147H35.274c-1.19,0-2.153-0.96-2.153-2.147v-1.24
				c0-1.187,0.963-2.151,2.153-2.151h11.313c1.189,0,2.149,0.965,2.149,2.151V60.387z"/>
			<path fill="#EA444E" d="M68.889,60.145c0,1.188-0.999,2.39-2.186,2.39H55.344c-1.188,0-2.072-1.201-2.072-2.39v-1.227
				c0-1.187,0.884-1.923,2.072-1.923h11.359c1.187,0,2.186,0.736,2.186,1.923V60.145z"/>
		</g>
	</g>
	<g>
		<g>
			<path fill="#C1C1C1" d="M28.055,51.275h45.324c0.196,0,0.354-0.156,0.354-0.355v-1.186c0-0.194-0.158-0.356-0.354-0.356H28.055
				c-0.196,0-0.355,0.162-0.355,0.356v1.186C27.699,51.119,27.858,51.275,28.055,51.275z"/>
			<path fill="#C1C1C1" d="M27.346,66.464h-1.428c-0.195,0-0.354,0.16-0.354,0.356v13.999c0,0.197,0.158,0.357,0.354,0.357h1.428
				c0.195,0,0.354-0.16,0.354-0.357V66.82C27.699,66.624,27.541,66.464,27.346,66.464z"/>
			<path fill="#C1C1C1" d="M76.229,66.226h-1.429c-0.195,0-0.354,0.162-0.354,0.356v14.237c0,0.197,0.158,0.357,0.354,0.357h1.429
				c0.192,0,0.354-0.16,0.354-0.357V66.582C76.583,66.388,76.422,66.226,76.229,66.226z"/>
		</g>
	</g>
</g>
<g>
	<g>
		<circle fill="#FFD629" cx="50.846" cy="30.31" r="14.359"/>
	</g>
	<g>
		<circle fill="#FCEFB9" cx="50.846" cy="30.31" r="11.966"/>
	</g>
	<g>
		<path fill="#F96E6E" d="M50.13,36.798c-1.835-0.158-3.181-0.857-4.122-1.816l1.343-1.887c0.647,0.682,1.59,1.294,2.779,1.502
			v-2.76c-1.801-0.454-3.758-1.118-3.758-3.493c0-1.763,1.398-3.265,3.758-3.511v-1.624h1.66v1.659
			c1.412,0.156,2.6,0.699,3.544,1.554l-1.38,1.817c-0.629-0.576-1.381-0.944-2.164-1.135v2.464c1.796,0.452,3.805,1.15,3.805,3.526
			c0,1.938-1.257,3.424-3.805,3.685v1.591h-1.66V36.798z M50.13,29.131v-2.133c-0.788,0.106-1.224,0.541-1.224,1.137
			C48.906,28.642,49.396,28.921,50.13,29.131z M51.79,32.255v2.342c0.855-0.175,1.291-0.682,1.291-1.221
			C53.081,32.799,52.539,32.501,51.79,32.255z"/>
	</g>
</g>
</svg>
