<?xml version="1.0" encoding="utf-8"?>
<!-- Generator: Adobe Illustrator 16.0.0, SVG Export Plug-In . SVG Version: 6.00 Build 0)  -->
<!DOCTYPE svg PUBLIC "-//W3C//DTD SVG 1.1//EN" "http://www.w3.org/Graphics/SVG/1.1/DTD/svg11.dtd" [
	<!ENTITY st0 "fill:#ACCFF6;">
	<!ENTITY st1 "fill:#7EE2A6;">
	<!ENTITY st2 "fill:#545454;">
	<!ENTITY st3 "fill:none;stroke:#FFFFFF;stroke-miterlimit:10;">
	<!ENTITY st4 "fill:#F7D237;">
	<!ENTITY st5 "fill:#92B7EF;">
	<!ENTITY st6 "fill:#C2C2C2;">
	<!ENTITY st7 "fill:#C2E97E;">
	<!ENTITY st8 "fill:#C779D3;">
	<!ENTITY st9 "fill:#C7E2E2;">
	<!ENTITY st10 "fill:#FBCA61;">
	<!ENTITY st11 "fill:#FC6738;">
	<!ENTITY st12 "fill:#999999;">
	<!ENTITY st13 "fill:#FEE677;">
	<!ENTITY st14 "fill:#FF9B74;">
	<!ENTITY st15 "fill:#FFC7B6;">
	<!ENTITY st16 "fill:#FFFFFF;">
	<!ENTITY st17 "fill:#9C9C9C;">
	<!ENTITY st18 "fill:#68C1C1;">
	<!ENTITY st19 "fill:#DBDBDB;">
	<!ENTITY st20 "fill:#404040;">
	<!ENTITY st21 "fill:#43D17D;">
]>
<svg version="1.1" id="圖層_1" xmlns="http://www.w3.org/2000/svg" xmlns:xlink="http://www.w3.org/1999/xlink" x="0px" y="0px"
	 width="100px" height="100px" viewBox="0 0 100 100" style="enable-background:new 0 0 100 100;" xml:space="preserve">
<g>
	<circle style="&st18;" cx="50" cy="50" r="50"/>
	<circle style="&st3;" cx="49.999" cy="50" r="44.999"/>
	<g>
		<g>
			<g>
				<polygon style="&st16;" points="81.764,32.106 50.707,34.23 52.405,59.079 83.464,56.954 81.764,32.106 				"/>
			</g>
			<g>
				<g>
					<polygon style="&st6;" points="52.365,35.678 53.852,57.418 80.317,33.767 					"/>
				</g>
				<g>
					<polygon style="&st17;" points="53.852,57.418 81.804,55.508 80.317,33.767 					"/>
				</g>
			</g>
		</g>
		<g>
			<g>
				<polygon style="&st16;" points="47.082,43.364 16.039,41.021 14.165,65.854 45.208,68.197 47.082,43.364 				"/>
			</g>
			<g>
				<g>
					<polygon style="&st1;" points="17.476,42.688 15.835,64.42 45.413,44.798 					"/>
				</g>
				<g>
					<polygon style="&st21;" points="15.835,64.42 43.772,66.529 45.413,44.798 					"/>
				</g>
			</g>
		</g>
		<g>
			<g>
				<polygon style="&st16;" points="60.129,62.008 31.517,49.741 21.7,72.63 50.314,84.897 60.129,62.008 				"/>
			</g>
			<g>
				<g>
					<polygon style="&st13;" points="32.333,51.784 23.747,71.813 58.084,62.825 					"/>
				</g>
				<g>
					<polygon style="&st4;" points="23.747,71.813 49.497,82.854 58.084,62.825 					"/>
				</g>
			</g>
		</g>
		<g>
			<g>
				<path style="&st16;" d="M37.185,29.32c-3.401,0-6.155-2.757-6.155-6.156c0,3.399-2.758,6.156-6.157,6.156
					c3.399,0,6.157,2.757,6.157,6.157C31.029,32.077,33.783,29.32,37.185,29.32z"/>
			</g>
		</g>
		<g>
			<g>
				<path style="&st16;" d="M40.264,23.164c-1.7,0-3.079-1.379-3.079-3.079c0,1.7-1.379,3.079-3.08,3.079
					c1.701,0,3.08,1.378,3.08,3.078C37.185,24.542,38.563,23.164,40.264,23.164z"/>
			</g>
		</g>
		<g>
			<g>
				<path style="&st16;" d="M73.208,73.391c-2.181,0-3.952-1.771-3.952-3.956c0,2.185-1.771,3.956-3.96,3.956
					c2.188,0,3.96,1.772,3.96,3.956C69.256,75.163,71.027,73.391,73.208,73.391z"/>
			</g>
		</g>
		<g>
			<g>
				<path style="&st16;" d="M18.128,36.33c-0.851,0-1.538-0.689-1.538-1.538c0,0.849-0.689,1.538-1.539,1.538
					c0.85,0,1.539,0.688,1.539,1.54C16.59,37.019,17.277,36.33,18.128,36.33z"/>
			</g>
		</g>
		<g>
			<g>
				<path style="&st16;" d="M76.177,67.116c-1.092,0-1.978-0.886-1.978-1.979c0,1.094-0.884,1.979-1.978,1.979
					c1.094,0,1.978,0.886,1.978,1.979C74.199,68.002,75.085,67.116,76.177,67.116z"/>
			</g>
		</g>
		<g>
			<g>
				<path style="&st16;" d="M72.987,26.606c-1.242,0-2.25-1.007-2.25-2.249c0,1.242-1.009,2.249-2.252,2.249
					c1.243,0,2.252,1.006,2.252,2.25C70.737,27.612,71.745,26.606,72.987,26.606z"/>
			</g>
		</g>
		<g>
			<g>
				<g>
					<rect x="61.575" y="37.768" style="&st2;" width="6.108" height="1.527"/>
				</g>
				<g>
					<rect x="31.04" y="38.53" style="&st20;" width="39.696" height="24.429"/>
				</g>
				<g>
					<rect x="31.04" y="41.584" style="&st2;" width="39.696" height="18.322"/>
				</g>
				<g>
					<circle style="&st18;" cx="50.888" cy="50.745" r="6.871"/>
				</g>
				<g>
					<g>
						<path style="&st2;" d="M50.889,45.869c2.689,0,4.876,2.188,4.876,4.876c0,2.689-2.187,4.877-4.876,4.877
							s-4.876-2.188-4.876-4.877C46.013,48.057,48.199,45.869,50.889,45.869L50.889,45.869z M50.889,43.111
							c-4.217,0-7.633,3.417-7.633,7.634s3.416,7.634,7.633,7.634c4.216,0,7.634-3.417,7.634-7.634S55.104,43.111,50.889,43.111
							L50.889,43.111z"/>
					</g>
				</g>
				<g>
					<path style="&st20;" d="M50.889,44.949c3.195,0,5.795,2.601,5.795,5.796s-2.6,5.797-5.795,5.797
						c-3.196,0-5.796-2.602-5.796-5.797S47.692,44.949,50.889,44.949L50.889,44.949z M50.889,43.111
						c-4.217,0-7.633,3.417-7.633,7.634s3.416,7.634,7.633,7.634c4.216,0,7.634-3.417,7.634-7.634S55.104,43.111,50.889,43.111
						L50.889,43.111z"/>
				</g>
				<g>
					<polygon style="&st2;" points="55.469,35.478 46.308,35.478 44.781,38.53 56.996,38.53 					"/>
				</g>
				<g>
					<circle style="&st16;" cx="49.517" cy="48.365" r="1.017"/>
				</g>
				<g>
					<circle style="&st16;" cx="47.591" cy="49.837" r="0.413"/>
				</g>
				<g>
					<rect x="61.575" y="44.638" style="&st20;" width="6.108" height="3.054"/>
				</g>
				<g>
					<circle style="&st20;" cx="38.674" cy="46.164" r="1.527"/>
				</g>
				<g>
					<circle style="&st20;" cx="35.62" cy="45.635" r="0.764"/>
				</g>
				<g>
					<circle style="&st2;" cx="38.674" cy="46.164" r="1.145"/>
				</g>
			</g>
			<g>
				<rect x="32.338" y="41.584" style="&st20;" width="0.459" height="18.322"/>
			</g>
			<g>
				<rect x="41.497" y="41.584" style="&st20;" width="0.46" height="18.322"/>
			</g>
			<g>
				<rect x="68.98" y="41.584" style="&st20;" width="0.459" height="18.322"/>
			</g>
			<g>
				<rect x="59.573" y="41.584" style="&st20;" width="0.458" height="18.322"/>
			</g>
		</g>
	</g>
</g>
</svg>
