<?xml version="1.0" encoding="utf-8"?>
<!-- Generator: Adobe Illustrator 16.0.0, SVG Export Plug-In . SVG Version: 6.00 Build 0)  -->
<!DOCTYPE svg PUBLIC "-//W3C//DTD SVG 1.1//EN" "http://www.w3.org/Graphics/SVG/1.1/DTD/svg11.dtd">
<svg version="1.1" id="圖層_1" xmlns="http://www.w3.org/2000/svg" xmlns:xlink="http://www.w3.org/1999/xlink" x="0px" y="0px"
	 width="100px" height="100px" viewBox="0 0 100 100" enable-background="new 0 0 100 100" xml:space="preserve">
<g>
	<g>
		<g>
			<g>
				<path fill="#419CE0" d="M88,11.902v76.195h-5.617H12V11.902h70.382H88 M90,9.902h-7.617H10v80.195h72.382H90V9.902L90,9.902z"/>
			</g>
		</g>
	</g>
	<g>
		<rect x="16.364" y="15.722" fill="#419CE0" width="67.419" height="60.854"/>
	</g>
	<g>
		<rect x="17.498" y="52.116" fill="#FFFFFF" width="65.152" height="23.325"/>
		<path fill="#419CE0" d="M81.516,53.25v21.058H18.631V53.25H81.516 M83.783,50.982H16.364v25.593h67.419V50.982L83.783,50.982z"/>
	</g>
	<rect x="16.364" y="79.968" fill="#C2C2C2" width="67.419" height="3.568"/>
	<g>
		<path fill="#3A63C9" d="M28.542,62.306c0.721-0.332,1.408-0.665,2.063-0.997c0.654-0.334,1.176-0.577,1.564-0.732
			c0.387-0.156,0.697-0.233,0.932-0.233c0.387,0,0.723,0.13,1.006,0.392c0.283,0.261,0.424,0.585,0.424,0.973
			c0,0.222-0.07,0.452-0.207,0.69c-0.139,0.238-0.287,0.391-0.441,0.457c-1.432,0.565-3.006,0.977-4.725,1.23
			c0.311,0.289,0.693,0.672,1.148,1.149c0.455,0.477,0.693,0.73,0.715,0.764c0.166,0.233,0.4,0.521,0.699,0.865
			s0.506,0.613,0.623,0.808s0.174,0.43,0.174,0.706c0,0.356-0.133,0.666-0.398,0.932c-0.266,0.267-0.609,0.399-1.031,0.399
			s-0.896-0.327-1.422-0.981c-0.527-0.653-1.207-1.83-2.037-3.526c-0.844,1.53-1.41,2.539-1.697,3.028
			c-0.289,0.487-0.566,0.856-0.832,1.105c-0.268,0.25-0.57,0.374-0.914,0.374c-0.412,0-0.754-0.141-1.023-0.425
			c-0.271-0.281-0.408-0.584-0.408-0.906c0-0.299,0.055-0.526,0.166-0.682c1.021-1.387,2.086-2.589,3.195-3.61
			c-0.934-0.144-1.764-0.304-2.496-0.481c-0.732-0.177-1.508-0.438-2.328-0.781c-0.133-0.067-0.264-0.219-0.393-0.459
			c-0.127-0.237-0.189-0.457-0.189-0.656c0-0.388,0.141-0.712,0.424-0.973c0.281-0.262,0.607-0.392,0.973-0.392
			c0.266,0,0.598,0.08,0.998,0.241c0.398,0.16,0.906,0.394,1.521,0.699c0.617,0.305,1.316,0.646,2.105,1.022
			c-0.145-0.698-0.264-1.499-0.359-2.403c-0.094-0.903-0.141-1.522-0.141-1.854c0-0.411,0.131-0.763,0.391-1.057
			s0.596-0.441,1.008-0.441c0.398,0,0.729,0.147,0.988,0.441c0.262,0.294,0.393,0.686,0.393,1.173c0,0.133-0.02,0.396-0.061,0.79
			c-0.037,0.394-0.094,0.871-0.166,1.431S28.629,61.585,28.542,62.306z"/>
		<path fill="#3A63C9" d="M43.463,62.306c0.721-0.332,1.408-0.665,2.063-0.997c0.654-0.334,1.176-0.577,1.564-0.732
			c0.387-0.156,0.697-0.233,0.932-0.233c0.387,0,0.723,0.13,1.006,0.392c0.283,0.261,0.424,0.585,0.424,0.973
			c0,0.222-0.07,0.452-0.207,0.69c-0.139,0.238-0.287,0.391-0.441,0.457c-1.432,0.565-3.006,0.977-4.725,1.23
			c0.311,0.289,0.693,0.672,1.148,1.149c0.455,0.477,0.693,0.73,0.715,0.764c0.166,0.233,0.4,0.521,0.699,0.865
			s0.506,0.613,0.623,0.808s0.174,0.43,0.174,0.706c0,0.356-0.133,0.666-0.398,0.932c-0.266,0.267-0.609,0.399-1.031,0.399
			s-0.896-0.327-1.422-0.981c-0.527-0.653-1.207-1.83-2.037-3.526c-0.844,1.53-1.41,2.539-1.697,3.028
			c-0.289,0.487-0.566,0.856-0.832,1.105c-0.268,0.25-0.57,0.374-0.914,0.374c-0.412,0-0.754-0.141-1.023-0.425
			c-0.271-0.281-0.408-0.584-0.408-0.906c0-0.299,0.055-0.526,0.166-0.682c1.021-1.387,2.086-2.589,3.195-3.61
			c-0.934-0.144-1.764-0.304-2.496-0.481c-0.732-0.177-1.508-0.438-2.328-0.781c-0.133-0.067-0.264-0.219-0.393-0.459
			c-0.127-0.237-0.189-0.457-0.189-0.656c0-0.388,0.141-0.712,0.424-0.973c0.281-0.262,0.607-0.392,0.973-0.392
			c0.266,0,0.598,0.08,0.998,0.241c0.398,0.16,0.906,0.394,1.521,0.699c0.617,0.305,1.316,0.646,2.105,1.022
			c-0.145-0.698-0.264-1.499-0.359-2.403c-0.094-0.903-0.141-1.522-0.141-1.854c0-0.411,0.131-0.763,0.391-1.057
			s0.596-0.441,1.008-0.441c0.398,0,0.729,0.147,0.988,0.441c0.262,0.294,0.393,0.686,0.393,1.173c0,0.133-0.021,0.396-0.061,0.79
			c-0.037,0.394-0.094,0.871-0.166,1.431S43.551,61.585,43.463,62.306z"/>
		<path fill="#3A63C9" d="M58.383,62.306c0.721-0.332,1.408-0.665,2.063-0.997c0.654-0.334,1.176-0.577,1.564-0.732
			c0.387-0.156,0.699-0.233,0.932-0.233c0.387,0,0.723,0.13,1.006,0.392c0.283,0.261,0.424,0.585,0.424,0.973
			c0,0.222-0.068,0.452-0.207,0.69s-0.287,0.391-0.441,0.457c-1.432,0.565-3.006,0.977-4.725,1.23
			c0.311,0.289,0.693,0.672,1.148,1.149c0.455,0.477,0.693,0.73,0.717,0.764c0.166,0.233,0.398,0.521,0.697,0.865
			s0.508,0.613,0.623,0.808c0.117,0.194,0.176,0.43,0.176,0.706c0,0.356-0.133,0.666-0.4,0.932
			c-0.266,0.267-0.609,0.399-1.031,0.399s-0.895-0.327-1.422-0.981c-0.527-0.653-1.205-1.83-2.037-3.526
			c-0.844,1.53-1.41,2.539-1.697,3.028c-0.287,0.487-0.566,0.856-0.832,1.105c-0.266,0.25-0.57,0.374-0.914,0.374
			c-0.412,0-0.752-0.141-1.023-0.425c-0.271-0.281-0.408-0.584-0.408-0.906c0-0.299,0.057-0.526,0.166-0.682
			c1.021-1.387,2.086-2.589,3.195-3.61c-0.932-0.144-1.764-0.304-2.496-0.481c-0.73-0.177-1.508-0.438-2.328-0.781
			c-0.132-0.067-0.263-0.219-0.39-0.459c-0.129-0.237-0.191-0.457-0.191-0.656c0-0.388,0.141-0.712,0.424-0.973
			c0.281-0.262,0.607-0.392,0.972-0.392c0.266,0,0.6,0.08,0.998,0.241c0.4,0.16,0.906,0.394,1.521,0.699
			c0.617,0.305,1.318,0.646,2.105,1.022c-0.145-0.698-0.264-1.499-0.357-2.403c-0.094-0.903-0.143-1.522-0.143-1.854
			c0-0.411,0.131-0.763,0.393-1.057c0.26-0.294,0.596-0.441,1.006-0.441c0.398,0,0.729,0.147,0.99,0.441
			c0.26,0.294,0.391,0.686,0.391,1.173c0,0.133-0.02,0.396-0.059,0.79s-0.094,0.871-0.166,1.431
			C58.551,60.944,58.471,61.585,58.383,62.306z"/>
		<path fill="#3A63C9" d="M73.305,62.306c0.721-0.332,1.408-0.665,2.063-0.997c0.654-0.334,1.176-0.577,1.564-0.732
			c0.387-0.156,0.699-0.233,0.932-0.233c0.387,0,0.723,0.13,1.006,0.392c0.283,0.261,0.424,0.585,0.424,0.973
			c0,0.222-0.068,0.452-0.207,0.69s-0.287,0.391-0.441,0.457c-1.432,0.565-3.006,0.977-4.725,1.23
			c0.311,0.289,0.693,0.672,1.148,1.149c0.455,0.477,0.693,0.73,0.717,0.764c0.166,0.233,0.398,0.521,0.697,0.865
			s0.508,0.613,0.623,0.808c0.117,0.194,0.176,0.43,0.176,0.706c0,0.356-0.133,0.666-0.4,0.932
			c-0.266,0.267-0.609,0.399-1.031,0.399s-0.895-0.327-1.422-0.981c-0.527-0.653-1.205-1.83-2.037-3.526
			c-0.844,1.53-1.41,2.539-1.697,3.028c-0.287,0.487-0.566,0.856-0.832,1.105c-0.266,0.25-0.57,0.374-0.914,0.374
			c-0.412,0-0.752-0.141-1.023-0.425c-0.271-0.281-0.408-0.584-0.408-0.906c0-0.299,0.057-0.526,0.166-0.682
			c1.021-1.387,2.086-2.589,3.195-3.61c-0.932-0.144-1.764-0.304-2.496-0.481c-0.73-0.177-1.508-0.438-2.328-0.781
			c-0.133-0.067-0.264-0.219-0.391-0.459c-0.129-0.237-0.191-0.457-0.191-0.656c0-0.388,0.141-0.712,0.424-0.973
			c0.281-0.262,0.607-0.392,0.973-0.392c0.266,0,0.6,0.08,0.998,0.241c0.4,0.16,0.906,0.394,1.521,0.699
			c0.617,0.305,1.318,0.646,2.105,1.022c-0.145-0.698-0.264-1.499-0.357-2.403c-0.094-0.903-0.143-1.522-0.143-1.854
			c0-0.411,0.131-0.763,0.393-1.057c0.26-0.294,0.596-0.441,1.006-0.441c0.398,0,0.729,0.147,0.99,0.441
			c0.26,0.294,0.391,0.686,0.391,1.173c0,0.133-0.02,0.396-0.059,0.79s-0.094,0.871-0.166,1.431
			C73.473,60.944,73.393,61.585,73.305,62.306z"/>
	</g>
	<path fill="#FFFFFF" d="M57.346,31.161V26.32c0-3.702-3.012-6.718-6.718-6.718h-1.109c-3.705,0-6.717,3.016-6.717,6.718v4.841H37
		V47.31h26.144V31.161H57.346z M51.145,41.262v2.075c0,0.592-0.48,1.071-1.07,1.071c-0.592,0-1.07-0.479-1.07-1.071v-2.072
		c-0.801-0.396-1.355-1.214-1.355-2.167c0-1.339,1.084-2.424,2.424-2.424c1.339,0,2.425,1.085,2.425,2.424
		C52.498,40.05,51.943,40.865,51.145,41.262z M54.379,31.161h-8.611V26.32c0-2.067,1.682-3.751,3.75-3.751h1.109
		c2.07,0,3.751,1.684,3.751,3.751V31.161z"/>
</g>
</svg>
