<?xml version="1.0" encoding="utf-8"?>
<!-- Generator: Adobe Illustrator 16.0.0, SVG Export Plug-In . SVG Version: 6.00 Build 0)  -->
<!DOCTYPE svg PUBLIC "-//W3C//DTD SVG 1.1//EN" "http://www.w3.org/Graphics/SVG/1.1/DTD/svg11.dtd">
<svg version="1.1" id="圖層_1" xmlns="http://www.w3.org/2000/svg" xmlns:xlink="http://www.w3.org/1999/xlink" x="0px" y="0px"
	 width="100px" height="100px" viewBox="0 0 100 100" enable-background="new 0 0 100 100" xml:space="preserve">
<g>
	<g>
		<g>
			<g>
				<path fill="#FFA3A3" d="M88,11.902v76.195h-5.617H12V11.902h70.383H88 M90,9.902h-7.617H10v80.195h72.383H90V9.902L90,9.902z"/>
			</g>
		</g>
	</g>
	<rect x="16.362" y="17.138" fill="#FFA3A3" width="67.421" height="59.438"/>
	<rect x="16.362" y="79.968" fill="#C2C2C2" width="67.421" height="3.568"/>
	<path fill="#FEE677" d="M20.366,39.812l8.596-14.403c0.428-0.704,1.183-1.114,1.968-1.131h38.154c0.918,0,1.707,0.508,2.07,1.295
		l8.594,14.387c0.557,0.918,0.361,2.067-0.363,2.819h0.035L51.648,70.551c-0.902,0.871-2.362,0.871-3.264,0l-0.035-0.067
		L20.628,42.778C19.809,41.96,19.727,40.695,20.366,39.812L20.366,39.812z M25.764,39.745L25.764,39.745H37.36l-5.872-9.581
		L25.764,39.745L25.764,39.745z M68.525,30.164L68.525,30.164l-5.854,9.581H74.27L68.525,30.164L68.525,30.164z M73.119,42.5
		L73.119,42.5H61.164l-6.906,18.866L73.119,42.5L73.119,42.5z M45.775,61.366L45.775,61.366L38.837,42.5H26.912L45.775,61.366
		L45.775,61.366z M66.064,28.902L66.064,28.902H53.322l6.807,9.728L66.064,28.902L66.064,28.902z M46.711,28.902L46.711,28.902
		H33.965l5.94,9.728L46.711,28.902L46.711,28.902z M42.479,39.745L42.479,39.745h15.058l-7.511-10.744L42.479,39.745L42.479,39.745z
		 M58.225,42.5L58.225,42.5H41.808l8.219,22.392L58.225,42.5L58.225,42.5z"/>
</g>
</svg>
