<?xml version="1.0" encoding="utf-8"?>
<!-- Generator: Adobe Illustrator 16.0.0, SVG Export Plug-In . SVG Version: 6.00 Build 0)  -->
<!DOCTYPE svg PUBLIC "-//W3C//DTD SVG 1.1//EN" "http://www.w3.org/Graphics/SVG/1.1/DTD/svg11.dtd" [
	<!ENTITY st0 "fill:#ACCFF6;">
	<!ENTITY st1 "fill:#E0ACE5;">
	<!ENTITY st2 "opacity:0.92;">
	<!ENTITY st3 "fill:#EAC95D;">
	<!ENTITY st4 "fill:#880F19;">
	<!ENTITY st5 "fill:#B7EDCC;">
	<!ENTITY st6 "fill:#545454;">
	<!ENTITY st7 "fill:none;stroke:#FFFFFF;stroke-miterlimit:10;">
	<!ENTITY st8 "fill:#BE1E2D;">
	<!ENTITY st9 "fill:#F1F2F2;">
	<!ENTITY st10 "fill:#F8F8F9;">
	<!ENTITY st11 "fill:#F96E6E;">
	<!ENTITY st12 "fill:#C1C1C1;">
	<!ENTITY st13 "fill:#C49669;">
	<!ENTITY st14 "fill:#2A2E32;">
	<!ENTITY st15 "fill:#C68074;">
	<!ENTITY st16 "fill:#FADD7B;">
	<!ENTITY st17 "fill:#2E0000;">
	<!ENTITY st18 "fill:#FCEFB9;">
	<!ENTITY st19 "opacity:0.3;">
	<!ENTITY st20 "fill:#FED37E;">
	<!ENTITY st21 "fill:#FEE677;">
	<!ENTITY st22 "fill:#FF9B74;">
	<!ENTITY st23 "fill:#FFE29A;">
	<!ENTITY st24 "fill:#FFEE4D;">
	<!ENTITY st25 "fill:#FFFFFF;">
	<!ENTITY st26 "fill:#631A19;">
	<!ENTITY st27 "fill:#009444;">
	<!ENTITY st28 "fill:#D09049;">
	<!ENTITY st29 "fill:#D09957;">
	<!ENTITY st30 "fill:#D4B99B;">
	<!ENTITY st31 "fill:#3B372D;">
	<!ENTITY st32 "fill:none;stroke:#FCEFB9;stroke-width:0.9184;stroke-miterlimit:10;">
	<!ENTITY st33 "fill:#D9D1B2;">
	<!ENTITY st34 "fill:#A11824;">
	<!ENTITY st35 "fill:#754C29;">
	<!ENTITY st36 "fill:#756C5E;">
	<!ENTITY st37 "fill:#DDB36A;">
	<!ENTITY st38 "fill:#404040;">
	<!ENTITY st39 "fill:#444036;">
	<!ENTITY st40 "fill:#451613;">
]>
<svg version="1.1" id="圖層_1" xmlns="http://www.w3.org/2000/svg" xmlns:xlink="http://www.w3.org/1999/xlink" x="0px" y="0px"
	 width="100px" height="100px" viewBox="0 0 100 100" style="enable-background:new 0 0 100 100;" xml:space="preserve">
<g>
	<circle style="&st0;" cx="50" cy="50" r="49.999"/>
	<circle style="&st7;" cx="50" cy="50" r="44.999"/>
	<g>
		<g>
			<g>
				
					<rect x="52.371" y="50.169" transform="matrix(0.7071 -0.7071 0.7071 0.7071 -22.4989 54.4524)" style="&st6;" width="4.219" height="8.431"/>
			</g>
		</g>
		<g>
			<g>
				<path style="&st38;" d="M24.668,24.57c-8.234,8.233-8.234,21.581-0.001,29.814c8.233,8.232,21.581,8.232,29.814-0.001
					c8.234-8.234,8.232-21.58,0-29.813C46.247,16.338,32.902,16.336,24.668,24.57z M51.501,51.402
					c-6.587,6.588-17.267,6.587-23.852,0.001c-6.586-6.586-6.587-17.266,0-23.853c6.586-6.586,17.265-6.583,23.85,0.002
					C58.085,34.139,58.087,44.816,51.501,51.402z"/>
			</g>
		</g>
		<g>
			<g>
				
					<rect x="62.191" y="53.661" transform="matrix(0.7071 -0.7071 0.7071 0.7071 -27.4382 66.3784)" style="&st38;" width="8.431" height="25.298"/>
			</g>
		</g>
		<g>
			<g>
				
					<rect x="62.808" y="55.151" transform="matrix(0.7071 -0.7071 0.7071 0.7071 -28.9284 65.7611)" style="&st6;" width="4.216" height="25.298"/>
			</g>
		</g>
		<g>
			<g>
				
					<rect x="53.247" y="56.768" transform="matrix(0.707 -0.7072 0.7072 0.707 -23.7332 57.4411)" style="&st25;" width="8.432" height="1.195"/>
			</g>
		</g>
		<g>
			<g>
				
					<rect x="71.136" y="74.658" transform="matrix(0.7071 -0.7071 0.7071 0.7071 -31.1433 75.3232)" style="&st25;" width="8.431" height="1.195"/>
			</g>
		</g>
		<g style="&st19;">
			<circle style="&st25;" cx="39.575" cy="39.477" r="16.866"/>
		</g>
	</g>
	<g>
		<g>
			<path style="&st25;" d="M44.993,31.948h-0.342c0-4.429-2.375-8.03-5.296-8.03c-2.919,0-5.295,3.602-5.295,8.03h-0.342
				c0-4.617,2.528-8.372,5.637-8.372C42.465,23.576,44.993,27.331,44.993,31.948z"/>
		</g>
		<g>
			<rect x="30.473" y="31.264" style="&st16;" width="17.768" height="21.16"/>
		</g>
		<g>
			<rect x="29.789" y="33.313" style="&st11;" width="19.134" height="19.134"/>
		</g>
		<g>
			<polygon style="&st3;" points="31.155,31.948 47.557,31.948 48.24,31.264 30.473,31.264 			"/>
		</g>
		<g>
			<polygon style="&st3;" points="48.923,33.313 29.789,33.313 31.155,31.948 47.557,31.948 			"/>
		</g>
		<g style="&st19;">
			<polygon style="&st38;" points="48.923,33.313 29.789,33.313 31.155,31.948 47.557,31.948 			"/>
		</g>
		<g>
			<rect x="31.155" y="31.948" style="&st3;" width="16.401" height="1.365"/>
		</g>
		<g>
			<path style="&st25;" d="M44.993,34.282h-0.342c0-4.428-2.375-8.029-5.296-8.029c-2.919,0-5.295,3.602-5.295,8.029h-0.342
				c0-4.616,2.528-8.37,5.637-8.37C42.465,25.912,44.993,29.666,44.993,34.282z"/>
		</g>
		<g>
			<circle style="&st38;" cx="44.823" cy="34.282" r="0.342"/>
		</g>
		<g>
			<circle style="&st38;" cx="33.889" cy="34.282" r="0.342"/>
		</g>
	</g>
</g>
</svg>
