<?xml version="1.0" encoding="utf-8"?>
<!-- Generator: Adobe Illustrator 16.0.0, SVG Export Plug-In . SVG Version: 6.00 Build 0)  -->
<!DOCTYPE svg PUBLIC "-//W3C//DTD SVG 1.1//EN" "http://www.w3.org/Graphics/SVG/1.1/DTD/svg11.dtd" [
	<!ENTITY st0 "fill:#ACCFF6;">
	<!ENTITY st1 "fill:#E0ACE5;">
	<!ENTITY st2 "opacity:0.92;">
	<!ENTITY st3 "fill:#EAC95D;">
	<!ENTITY st4 "fill:#880F19;">
	<!ENTITY st5 "fill:#B7EDCC;">
	<!ENTITY st6 "fill:#545454;">
	<!ENTITY st7 "fill:none;stroke:#FFFFFF;stroke-miterlimit:10;">
	<!ENTITY st8 "fill:#BE1E2D;">
	<!ENTITY st9 "fill:#F1F2F2;">
	<!ENTITY st10 "fill:#F8F8F9;">
	<!ENTITY st11 "fill:#F96E6E;">
	<!ENTITY st12 "fill:#C1C1C1;">
	<!ENTITY st13 "fill:#C49669;">
	<!ENTITY st14 "fill:#2A2E32;">
	<!ENTITY st15 "fill:#C68074;">
	<!ENTITY st16 "fill:#FADD7B;">
	<!ENTITY st17 "fill:#2E0000;">
	<!ENTITY st18 "fill:#FCEFB9;">
	<!ENTITY st19 "opacity:0.3;">
	<!ENTITY st20 "fill:#FED37E;">
	<!ENTITY st21 "fill:#FEE677;">
	<!ENTITY st22 "fill:#FF9B74;">
	<!ENTITY st23 "fill:#FFE29A;">
	<!ENTITY st24 "fill:#FFEE4D;">
	<!ENTITY st25 "fill:#FFFFFF;">
	<!ENTITY st26 "fill:#631A19;">
	<!ENTITY st27 "fill:#009444;">
	<!ENTITY st28 "fill:#D09049;">
	<!ENTITY st29 "fill:#D09957;">
	<!ENTITY st30 "fill:#D4B99B;">
	<!ENTITY st31 "fill:#3B372D;">
	<!ENTITY st32 "fill:none;stroke:#FCEFB9;stroke-width:0.9184;stroke-miterlimit:10;">
	<!ENTITY st33 "fill:#D9D1B2;">
	<!ENTITY st34 "fill:#A11824;">
	<!ENTITY st35 "fill:#754C29;">
	<!ENTITY st36 "fill:#756C5E;">
	<!ENTITY st37 "fill:#DDB36A;">
	<!ENTITY st38 "fill:#404040;">
	<!ENTITY st39 "fill:#444036;">
	<!ENTITY st40 "fill:#451613;">
]>
<svg version="1.1" id="圖層_1" xmlns="http://www.w3.org/2000/svg" xmlns:xlink="http://www.w3.org/1999/xlink" x="0px" y="0px"
	 width="100px" height="100px" viewBox="0 0 100 100" style="enable-background:new 0 0 100 100;" xml:space="preserve">
<g>
	<circle style="&st5;" cx="50" cy="50" r="49.998"/>
	<circle style="&st7;" cx="50" cy="50" r="44.998"/>
	<g>
		<path style="&st28;" d="M85.102,50.14c0,2.676-0.715,5.268-1.285,7.771c-0.588,2.584-1.969,4.801-3.095,7.131
			c-1.142,2.37-2.392,4.534-4.018,6.569c-1.633,2.045-3.393,3.839-5.438,5.472c-2.037,1.625-3.684,3.955-6.053,5.098
			c-2.331,1.126-5.021,1.65-7.606,2.237c-2.503,0.57-5.149,0.229-7.824,0.229c-2.674,0-5.343,0.434-7.845-0.136
			c-2.584-0.588-5.084-1.558-7.417-2.683c-2.367-1.145-4.39-2.867-6.426-4.491c-2.045-1.633-4.378-3.063-6.01-5.108
			c-1.625-2.035-2.996-4.388-4.14-6.757c-1.124-2.33-2.279-4.825-2.866-7.41c-0.569-2.503,0.399-5.246,0.399-7.922
			c0-2.675-0.308-5.27,0.261-7.772c0.587-2.584,1.672-4.944,2.795-7.275c1.145-2.369,1.909-5.021,3.533-7.056
			c1.634-2.045,3.461-4.115,5.507-5.747c2.034-1.626,4.859-2.117,7.229-3.26c2.331-1.124,4.722-1.932,7.304-2.519
			c2.502-0.568,5.002-1.046,7.676-1.046c2.675,0,5.417-0.59,7.921-0.021c2.583,0.586,4.901,2.109,7.231,3.234
			c2.37,1.144,5.011,2.004,7.045,3.629c2.045,1.635,3.485,4.006,5.119,6.051c1.624,2.035,2.818,4.352,3.96,6.721
			c1.125,2.331,1.603,4.838,2.188,7.423C83.817,45.002,85.102,47.465,85.102,50.14z"/>
		<path style="&st29;" d="M44.981,83.348c-1.084,0-1.949-0.082-2.721-0.258c-2.225-0.505-4.614-1.371-7.105-2.575
			c-1.955-0.94-3.74-2.377-5.464-3.763l-0.689-0.554c-0.563-0.449-1.146-0.883-1.73-1.318c-1.53-1.138-2.975-2.211-4.052-3.561
			c-1.405-1.759-2.738-3.939-3.963-6.479c-1.096-2.271-2.211-4.69-2.759-7.102c-0.289-1.268-0.085-2.722,0.129-4.259
			c0.149-1.079,0.308-2.197,0.308-3.34c0-0.714-0.023-1.425-0.043-2.13c-0.057-1.879-0.111-3.653,0.268-5.318
			c0.553-2.436,1.588-4.687,2.687-6.968c0.364-0.753,0.69-1.533,1.017-2.313c0.691-1.656,1.344-3.217,2.342-4.466
			c1.236-1.548,3.129-3.804,5.276-5.519c1.102-0.88,2.553-1.397,4.092-1.945c0.946-0.339,1.925-0.688,2.862-1.139
			c2.161-1.043,4.448-1.832,6.992-2.41c2.663-0.605,4.933-1.01,7.355-1.01c0.96,0,1.917-0.07,2.842-0.139
			c0.896-0.067,1.746-0.13,2.573-0.13c0.845,0,1.56,0.069,2.184,0.212c1.688,0.383,3.274,1.225,4.954,2.115
			c0.657,0.349,1.311,0.694,1.966,1.012c0.684,0.328,1.387,0.636,2.092,0.942c1.731,0.752,3.365,1.464,4.677,2.511
			c1.335,1.067,2.408,2.516,3.542,4.046c0.446,0.604,0.89,1.202,1.348,1.776c1.584,1.982,2.74,4.271,3.788,6.443
			c0.918,1.904,1.381,3.986,1.873,6.19l0.208,0.922c0.213,0.943,0.517,1.865,0.811,2.757c0.518,1.57,1.008,3.056,1.008,4.56
			c0,2.115-0.505,4.26-0.992,6.333l-0.258,1.115c-0.403,1.773-1.234,3.387-2.116,5.096c-0.295,0.572-0.59,1.146-0.87,1.725
			c-1.23,2.549-2.452,4.548-3.845,6.293c-1.606,2.009-3.309,3.725-5.209,5.241c-0.803,0.642-1.533,1.368-2.238,2.069
			c-1.158,1.151-2.25,2.237-3.54,2.856c-1.918,0.927-4.208,1.438-6.423,1.933l-0.871,0.196c-0.891,0.204-1.872,0.294-3.174,0.294
			c-0.69,0-1.386-0.024-2.085-0.05c-0.746-0.026-1.493-0.052-2.243-0.052c-0.836,0-1.672,0.04-2.5,0.08
			C46.507,83.309,45.741,83.348,44.981,83.348z"/>
		<path style="&st8;" d="M44.981,77.52c-0.629,0-1.096-0.034-1.428-0.11c-1.796-0.408-3.769-1.128-5.868-2.141
			c-1.352-0.653-2.801-1.818-4.338-3.053l-0.701-0.563c-0.623-0.498-1.259-0.972-1.899-1.449c-1.275-0.947-2.37-1.764-2.975-2.52
			c-1.133-1.421-2.233-3.228-3.268-5.375c-0.95-1.97-1.913-4.043-2.326-5.862c-0.04-0.316,0.116-1.428,0.218-2.162
			c0.169-1.217,0.363-2.597,0.363-4.146c0-0.773-0.023-1.544-0.045-2.307c-0.049-1.563-0.089-2.911,0.125-3.851
			c0.419-1.842,1.306-3.761,2.253-5.727c0.41-0.847,0.777-1.722,1.146-2.599c0.53-1.269,1.029-2.464,1.517-3.077
			c1.061-1.328,2.67-3.252,4.36-4.601c0.342-0.273,1.538-0.7,2.412-1.01c1.037-0.371,2.214-0.79,3.435-1.378
			c1.762-0.852,3.646-1.499,5.759-1.98c2.276-0.518,4.182-0.862,6.06-0.862c1.169,0,2.275-0.081,3.252-0.154
			c0.772-0.057,1.476-0.115,2.163-0.115c0.543,0,0.803,0.046,0.89,0.065c0.932,0.213,2.13,0.847,3.514,1.581
			c0.728,0.385,1.45,0.766,2.17,1.114c0.747,0.36,1.521,0.698,2.298,1.037c1.367,0.595,2.658,1.154,3.368,1.723
			c0.739,0.591,1.591,1.739,2.494,2.958c0.486,0.659,0.972,1.313,1.472,1.941c1.21,1.514,2.193,3.471,3.097,5.345
			c0.626,1.294,0.999,2.974,1.433,4.916l0.21,0.938c0.279,1.229,0.644,2.331,0.962,3.304c0.352,1.065,0.714,2.167,0.714,2.737
			c0,1.44-0.404,3.167-0.834,4.997l-0.263,1.135c-0.245,1.079-0.883,2.313-1.619,3.741c-0.319,0.616-0.636,1.234-0.938,1.859
			c-1.04,2.15-2.04,3.8-3.153,5.194c-1.333,1.667-2.736,3.081-4.291,4.322c-1.054,0.843-1.936,1.719-2.712,2.492
			c-0.657,0.651-1.556,1.544-1.958,1.739c-1.319,0.637-3.275,1.073-5.165,1.494l-0.88,0.198c-0.294,0.067-0.793,0.151-1.896,0.151
			c-0.621,0-1.248-0.022-1.879-0.045c-0.813-0.029-1.629-0.057-2.449-0.057c-0.932,0-1.862,0.044-2.787,0.088
			C46.305,77.485,45.639,77.52,44.981,77.52z"/>
		<path style="&st23;" d="M38.157,74.273c-0.584-0.164-1.009-0.32-1.3-0.477c-1.561-0.846-3.208-2.03-4.894-3.519
			c-1.086-0.959-2.131-2.421-3.236-3.97l-0.507-0.706c-0.447-0.624-0.916-1.231-1.386-1.842c-0.938-1.213-1.742-2.256-2.108-3.118
			c-0.684-1.613-1.233-3.584-1.635-5.85c-0.371-2.077-0.725-4.255-0.635-6.056c0.047-0.303,0.48-1.296,0.767-1.952
			c0.477-1.086,1.015-2.318,1.418-3.758c0.202-0.72,0.382-1.44,0.558-2.155c0.367-1.468,0.68-2.731,1.122-3.548
			c0.87-1.604,2.196-3.154,3.589-4.736c0.601-0.68,1.173-1.397,1.743-2.116c0.822-1.041,1.599-2.023,2.213-2.465
			c1.333-0.957,3.329-2.325,5.253-3.14c0.389-0.164,1.61-0.248,2.503-0.31c1.063-0.074,2.265-0.156,3.555-0.386
			c1.86-0.332,3.778-0.441,5.867-0.336c2.253,0.11,4.114,0.289,5.861,0.777c1.086,0.306,2.137,0.518,3.062,0.705
			c0.732,0.148,1.403,0.277,2.041,0.457c0.502,0.142,0.734,0.252,0.81,0.293c0.813,0.44,1.759,1.341,2.853,2.386
			c0.577,0.548,1.148,1.089,1.728,1.601c0.601,0.531,1.231,1.048,1.866,1.565c1.117,0.908,2.169,1.767,2.681,2.478
			c0.534,0.742,1.023,2.033,1.544,3.4c0.282,0.739,0.563,1.475,0.865,2.188c0.729,1.723,1.133,3.798,1.484,5.776
			c0.244,1.366,0.154,3.024,0.05,4.943l-0.049,0.928c-0.062,1.216-0.012,2.334,0.034,3.321c0.048,1.082,0.097,2.201-0.052,2.731
			c-0.374,1.337-1.203,2.838-2.079,4.426l-0.541,0.986c-0.509,0.94-1.423,1.92-2.48,3.057c-0.454,0.49-0.912,0.981-1.355,1.484
			c-1.526,1.726-2.887,3-4.285,4.006c-1.675,1.201-3.348,2.15-5.117,2.897c-1.2,0.51-2.248,1.095-3.17,1.609
			c-0.779,0.435-1.849,1.031-2.275,1.106c-1.392,0.247-3.323,0.145-5.189,0.042l-0.87-0.045c-0.291-0.015-0.777-0.066-1.801-0.353
			c-0.58-0.163-1.155-0.349-1.736-0.534c-0.748-0.236-1.5-0.476-2.261-0.688c-0.866-0.244-1.743-0.447-2.613-0.646
			C39.398,74.586,38.769,74.446,38.157,74.273z"/>
		<g>
			<path style="&st20;" d="M74.949,54.837c-0.363,1.291-1.163,2.739-2.009,4.276l-0.522,0.951c-0.494,0.908-1.377,1.856-2.397,2.954
				c-0.44,0.473-0.881,0.947-1.311,1.435c-1.474,1.668-2.789,2.896-4.139,3.868c-1.618,1.162-3.233,2.079-4.943,2.802
				c-1.16,0.491-2.171,1.056-3.064,1.554c-0.753,0.421-1.786,0.996-2.2,1.07c-1.343,0.238-3.208,0.137-5.013,0.04l-0.84-0.043
				c-0.282-0.016-0.75-0.065-1.74-0.342c-0.558-0.157-1.115-0.335-1.676-0.517c-0.724-0.229-1.448-0.459-2.186-0.665
				c-0.836-0.235-1.682-0.432-2.526-0.624c-0.627-0.143-1.234-0.278-1.825-0.444c-0.566-0.158-0.976-0.31-1.256-0.461
				c-1.508-0.819-3.098-1.962-4.729-3.399c-1.05-0.927-2.06-2.341-3.127-3.837l-0.487-0.682c-0.433-0.604-0.886-1.19-1.341-1.778
				c-0.906-1.173-1.683-2.181-2.037-3.014c-0.659-1.559-1.19-3.46-1.58-5.651c-0.226-1.268-0.433-2.564-0.542-3.793
				c-0.028,0.094-0.061,0.189-0.07,0.243c-0.088,1.739,0.255,3.843,0.613,5.852c0.39,2.188,0.921,4.092,1.58,5.651
				c0.354,0.832,1.13,1.841,2.037,3.013c0.455,0.588,0.908,1.175,1.341,1.779l0.487,0.683c1.067,1.495,2.077,2.906,3.127,3.834
				c1.631,1.438,3.22,2.582,4.729,3.399c0.281,0.151,0.69,0.303,1.256,0.462c0.59,0.165,1.198,0.302,1.825,0.445
				c0.844,0.191,1.69,0.387,2.526,0.623c0.738,0.206,1.462,0.436,2.186,0.667c0.561,0.179,1.119,0.356,1.676,0.515
				c0.99,0.276,1.458,0.326,1.74,0.342l0.84,0.043c1.805,0.098,3.669,0.197,5.013-0.041c0.414-0.074,1.446-0.649,2.2-1.068
				c0.893-0.5,1.904-1.064,3.064-1.556c1.71-0.723,3.325-1.637,4.943-2.802c1.351-0.97,2.666-2.2,4.139-3.867
				c0.43-0.487,0.87-0.962,1.311-1.436c1.02-1.098,1.903-2.046,2.397-2.953l0.522-0.952c0.846-1.534,1.646-2.985,2.009-4.276
				c0.141-0.511,0.096-1.582,0.05-2.621C74.984,54.629,74.971,54.751,74.949,54.837z"/>
		</g>
		<path style="&st37;" d="M17.779,55.201c0.145-1.053,0.296-2.143,0.296-3.256c0-0.699-0.02-1.391-0.041-2.078
			c-0.057-1.832-0.108-3.564,0.26-5.188c0.542-2.376,1.551-4.569,2.624-6.796c0.354-0.734,0.672-1.495,0.99-2.256
			c0.675-1.613,1.312-3.137,2.286-4.355c1.206-1.51,3.052-3.711,5.145-5.383c1.074-0.857,2.491-1.362,3.991-1.898
			c0.923-0.329,1.879-0.671,2.792-1.109c2.108-1.019,4.341-1.787,6.822-2.351c2.597-0.592,4.811-0.985,7.172-0.985
			c0.938,0,1.871-0.069,2.771-0.136c0.876-0.066,1.704-0.127,2.512-0.127c0.824,0,1.52,0.067,2.13,0.206
			c1.645,0.375,3.192,1.194,4.832,2.063c0.641,0.342,1.279,0.679,1.918,0.986c0.664,0.322,1.351,0.621,2.041,0.921
			c1.687,0.732,3.281,1.426,4.562,2.449c1.302,1.04,2.347,2.452,3.453,3.946c0.435,0.588,0.868,1.172,1.315,1.732
			c1.545,1.934,2.672,4.166,3.694,6.285c0.896,1.857,1.348,3.888,1.828,6.036l0.202,0.901c0.208,0.919,0.503,1.815,0.791,2.687
			c0.222,0.672,0.431,1.326,0.602,1.975c-0.113-1.242-0.502-2.482-0.931-3.782c-0.286-0.869-0.582-1.769-0.792-2.688l-0.202-0.898
			c-0.479-2.151-0.931-4.181-1.827-6.036c-1.022-2.121-2.15-4.353-3.694-6.287c-0.446-0.561-0.88-1.145-1.315-1.73
			c-1.106-1.496-2.151-2.906-3.454-3.948c-1.279-1.021-2.873-1.714-4.562-2.45c-0.69-0.298-1.376-0.598-2.04-0.919
			c-0.638-0.307-1.277-0.646-1.918-0.986c-1.64-0.867-3.187-1.689-4.833-2.064c-0.609-0.139-1.305-0.204-2.128-0.204
			c-0.807,0-1.634,0.061-2.511,0.126c-0.902,0.067-1.833,0.137-2.771,0.137c-2.362,0-4.575,0.393-7.174,0.983
			c-2.48,0.563-4.712,1.332-6.82,2.351c-0.913,0.44-1.868,0.782-2.793,1.111c-1.498,0.534-2.914,1.039-3.991,1.897
			c-2.092,1.671-3.938,3.872-5.145,5.382c-0.973,1.219-1.609,2.742-2.285,4.355c-0.317,0.762-0.635,1.523-0.99,2.258
			c-1.074,2.225-2.083,4.42-2.623,6.795c-0.369,1.623-0.318,3.355-0.261,5.188c0.021,0.688,0.042,1.381,0.042,2.078
			c0,1.113-0.153,2.203-0.298,3.256c-0.209,1.501-0.41,2.919-0.127,4.154c0.055,0.239,0.137,0.478,0.201,0.717
			C17.489,57.31,17.628,56.277,17.779,55.201z"/>
		<g>
			<ellipse style="&st4;" cx="41.272" cy="35.633" rx="6.081" ry="5.701"/>
			<ellipse style="&st34;" cx="41.272" cy="35.633" rx="5.321" ry="4.987"/>
			<ellipse style="&st15;" cx="42.365" cy="33.388" rx="1.253" ry="1.143"/>
			<ellipse style="&st15;" cx="39.042" cy="33.985" rx="1.253" ry="1.145"/>
			<path style="&st15;" d="M40.077,37.254c0,0.633-0.56,1.146-1.254,1.146c-0.689,0-1.25-0.513-1.25-1.146
				c0-0.631,0.561-1.145,1.25-1.145C39.517,36.109,40.077,36.623,40.077,37.254z"/>
			<ellipse style="&st15;" cx="44.926" cy="35.837" rx="1.253" ry="1.146"/>
			<ellipse style="&st15;" cx="42.42" cy="38.127" rx="1.253" ry="1.145"/>
			<path style="&st15;" d="M40.585,32.805L40.585,32.805c-0.076,0.057-0.183,0.038-0.237-0.038l-0.399-0.549
				c-0.056-0.076-0.039-0.183,0.038-0.237l0,0c0.075-0.055,0.182-0.038,0.236,0.036l0.399,0.551
				C40.677,32.643,40.661,32.749,40.585,32.805z"/>
			<path style="&st15;" d="M45.001,34.124L45.001,34.124c-0.075,0.056-0.181,0.039-0.238-0.037l-0.398-0.55
				c-0.057-0.075-0.039-0.182,0.035-0.236l0,0c0.078-0.056,0.184-0.039,0.239,0.037l0.4,0.55
				C45.094,33.964,45.077,34.07,45.001,34.124z"/>
			<path style="&st15;" d="M41.374,35.508L41.374,35.508c0.051,0.076,0.029,0.183-0.05,0.232l-0.57,0.371
				c-0.08,0.051-0.183,0.027-0.234-0.05l0,0c-0.052-0.079-0.03-0.185,0.048-0.235l0.571-0.371
				C41.216,35.405,41.323,35.428,41.374,35.508z"/>
			<path style="&st15;" d="M44.721,37.62L44.721,37.62c0.094,0.009,0.163,0.091,0.155,0.185l-0.056,0.677
				c-0.01,0.094-0.09,0.163-0.184,0.154l0,0c-0.093-0.008-0.165-0.09-0.155-0.184l0.058-0.677
				C44.545,37.682,44.627,37.612,44.721,37.62z"/>
			<path style="&st15;" d="M40.819,39.634L40.819,39.634c-0.039,0.086-0.139,0.124-0.224,0.086l-0.621-0.278
				c-0.087-0.039-0.124-0.139-0.087-0.225l0,0c0.039-0.084,0.139-0.123,0.225-0.087l0.621,0.278
				C40.819,39.447,40.858,39.547,40.819,39.634z"/>
			<path style="&st15;" d="M37.391,34.682L37.391,34.682c0.096,0,0.171,0.074,0.172,0.17l0.007,0.679
				c0,0.093-0.076,0.17-0.169,0.171l0,0c-0.094,0-0.17-0.074-0.172-0.169l-0.007-0.678C37.221,34.761,37.297,34.684,37.391,34.682z"
				/>
		</g>
		<g>
			
				<ellipse transform="matrix(0.4926 0.8702 -0.8702 0.4926 62.5966 -1.5618)" style="&st4;" cx="32.638" cy="52.901" rx="6.08" ry="5.702"/>
			
				<ellipse transform="matrix(0.4927 0.8702 -0.8702 0.4927 62.5957 -1.5631)" style="&st34;" cx="32.638" cy="52.902" rx="5.321" ry="4.987"/>
			
				<ellipse transform="matrix(0.4926 0.8703 -0.8703 0.4926 63.7294 -3.8084)" style="&st15;" cx="35.131" cy="52.747" rx="1.253" ry="1.145"/>
			
				<ellipse transform="matrix(0.4928 0.8702 -0.8702 0.4928 60.3642 -3.252)" style="&st15;" cx="32.971" cy="50.151" rx="1.253" ry="1.143"/>
			
				<ellipse transform="matrix(0.4931 0.87 -0.87 0.4931 60.0835 0.0239)" style="&st15;" cx="30.021" cy="51.571" rx="1.252" ry="1.144"/>
			
				<ellipse transform="matrix(0.4928 0.8702 -0.8702 0.4928 66.2641 -1.3127)" style="&st15;" cx="34.258" cy="56.181" rx="1.253" ry="1.144"/>
			
				<ellipse transform="matrix(0.4928 0.8702 -0.8702 0.4928 63.7124 0.9592)" style="&st15;" cx="31.033" cy="55.128" rx="1.253" ry="1.145"/>
			<path style="&st15;" d="M34.761,50.91L34.761,50.91c-0.086-0.039-0.124-0.139-0.085-0.225l0.282-0.618
				c0.039-0.086,0.139-0.123,0.224-0.084l0,0c0.087,0.038,0.124,0.138,0.084,0.224l-0.282,0.619
				C34.945,50.911,34.845,50.949,34.761,50.91z"/>
			<path style="&st15;" d="M35.787,55.404L35.787,55.404c-0.086-0.04-0.123-0.14-0.085-0.226l0.281-0.62
				c0.038-0.084,0.14-0.122,0.226-0.083l0,0c0.086,0.039,0.123,0.14,0.083,0.226l-0.28,0.617
				C35.974,55.404,35.872,55.442,35.787,55.404z"/>
			<path style="&st15;" d="M32.799,52.926L32.799,52.926c-0.045,0.085-0.147,0.116-0.231,0.073l-0.601-0.313
				c-0.083-0.044-0.116-0.146-0.075-0.23l0,0c0.046-0.082,0.148-0.114,0.231-0.071l0.601,0.313
				C32.808,52.74,32.84,52.845,32.799,52.926z"/>
			<path style="&st15;" d="M32.608,56.882L32.608,56.882c0.039,0.086,0,0.187-0.083,0.226l-0.62,0.283
				c-0.083,0.039-0.183,0.003-0.224-0.083l0,0c-0.039-0.086-0.002-0.186,0.085-0.226l0.616-0.283
				C32.467,56.76,32.568,56.797,32.608,56.882z"/>
			<path style="&st15;" d="M28.933,54.479L28.933,54.479c-0.093,0.008-0.176-0.06-0.184-0.152l-0.066-0.678
				c-0.008-0.093,0.06-0.176,0.153-0.186l0,0c0.093-0.007,0.178,0.061,0.186,0.153l0.064,0.677
				C29.095,54.387,29.027,54.469,28.933,54.479z"/>
			<path style="&st15;" d="M31.552,49.056L31.552,49.056c0.046,0.082,0.02,0.185-0.062,0.232l-0.588,0.341
				c-0.082,0.047-0.187,0.02-0.232-0.063l0,0c-0.047-0.081-0.018-0.186,0.062-0.232l0.589-0.34
				C31.401,48.947,31.505,48.975,31.552,49.056z"/>
		</g>
		<g>
			
				<ellipse transform="matrix(-0.3916 0.9201 -0.9201 -0.3916 126.9911 45.8185)" style="&st4;" cx="48.347" cy="64.894" rx="6.081" ry="5.7"/>
			
				<ellipse transform="matrix(-0.3913 0.9203 -0.9203 -0.3913 126.9848 45.791)" style="&st34;" cx="48.348" cy="64.894" rx="5.32" ry="4.988"/>
			<path style="&st15;" d="M49.497,67.932c-0.583-0.247-0.835-0.965-0.564-1.602c0.271-0.636,0.962-0.951,1.545-0.704
				c0.579,0.247,0.831,0.965,0.56,1.601C50.768,67.863,50.078,68.18,49.497,67.932z"/>
			
				<ellipse transform="matrix(-0.3907 0.9205 -0.9205 -0.3907 128.9975 41.5874)" style="&st15;" cx="50.735" cy="63.486" rx="1.253" ry="1.144"/>
			
				<ellipse transform="matrix(-0.3915 0.9202 -0.9202 -0.3915 123.5898 42.2861)" style="&st15;" cx="47.813" cy="62.007" rx="1.253" ry="1.144"/>
			
				<ellipse transform="matrix(-0.3914 0.9202 -0.9202 -0.3914 127.7537 51.8555)" style="&st15;" cx="46.728" cy="68.176" rx="1.253" ry="1.144"/>
			<path style="&st15;" d="M45.114,66.127c-0.582-0.247-0.833-0.963-0.562-1.6c0.271-0.639,0.961-0.953,1.541-0.707
				c0.584,0.248,0.835,0.965,0.564,1.602C46.386,66.058,45.695,66.375,45.114,66.127z"/>
			<path style="&st15;" d="M51.218,65.368L51.218,65.368c-0.02-0.092,0.037-0.182,0.128-0.203l0.662-0.153
				c0.091-0.021,0.182,0.036,0.204,0.129l0,0c0.021,0.091-0.036,0.182-0.128,0.202l-0.662,0.153
				C51.331,65.517,51.24,65.46,51.218,65.368z"/>
			<path style="&st15;" d="M48.275,68.915L48.275,68.915c-0.02-0.091,0.037-0.183,0.129-0.203l0.661-0.154
				c0.091-0.021,0.184,0.038,0.203,0.128l0,0c0.023,0.092-0.036,0.184-0.125,0.204l-0.664,0.152
				C48.388,69.063,48.298,69.007,48.275,68.915z"/>
			<path style="&st15;" d="M48.423,65.036L48.423,65.036c-0.091,0.017-0.18-0.045-0.195-0.138l-0.117-0.67
				c-0.015-0.091,0.046-0.18,0.138-0.196l0,0c0.092-0.017,0.18,0.046,0.197,0.139l0.117,0.669
				C48.579,64.932,48.518,65.021,48.423,65.036z"/>
			<path style="&st15;" d="M45.168,67.289L45.168,67.289c-0.042,0.085-0.146,0.115-0.229,0.072l-0.6-0.318
				c-0.083-0.043-0.115-0.146-0.07-0.229l0,0c0.043-0.083,0.146-0.115,0.229-0.069l0.601,0.316
				C45.181,67.104,45.213,67.208,45.168,67.289z"/>
			<path style="&st15;" d="M44.845,62.911L44.845,62.911c-0.063-0.068-0.061-0.177,0.006-0.239l0.499-0.463
				c0.069-0.064,0.176-0.06,0.24,0.008l0,0c0.064,0.069,0.06,0.178-0.01,0.241l-0.497,0.462
				C45.014,62.984,44.906,62.979,44.845,62.911z"/>
			<path style="&st15;" d="M50.742,61.693L50.742,61.693c-0.036,0.088-0.136,0.128-0.223,0.092l-0.629-0.26
				c-0.084-0.035-0.125-0.135-0.089-0.222l0,0c0.035-0.087,0.135-0.128,0.22-0.093l0.627,0.26
				C50.735,61.509,50.777,61.606,50.742,61.693z"/>
		</g>
		<g>
			
				<ellipse transform="matrix(0.1193 0.9929 -0.9929 0.1193 91.1471 -27.6697)" style="&st4;" cx="61.17" cy="37.542" rx="6.081" ry="5.7"/>
			<path style="&st34;" d="M61.806,42.824c-2.737,0.329-5.239-1.77-5.588-4.687c-0.351-2.918,1.582-5.55,4.318-5.879
				c2.734-0.326,5.236,1.772,5.585,4.689C66.473,39.866,64.54,42.496,61.806,42.824z"/>
			
				<ellipse transform="matrix(0.1186 0.9929 -0.9929 0.1186 94.083 -29.2712)" style="&st15;" cx="63.53" cy="38.36" rx="1.253" ry="1.144"/>
			
				<ellipse transform="matrix(0.1194 0.9928 -0.9928 0.1194 89.9512 -31.1543)" style="&st15;" cx="62.539" cy="35.133" rx="1.253" ry="1.145"/>
			
				<ellipse transform="matrix(0.1194 0.9928 -0.9928 0.1194 87.2412 -27.753)" style="&st15;" cx="59.266" cy="35.306" rx="1.253" ry="1.144"/>
			<path style="&st15;" d="M61.552,42.438c-0.627,0.075-1.204-0.421-1.287-1.107c-0.08-0.688,0.36-1.306,0.986-1.381
				c0.628-0.074,1.202,0.421,1.286,1.108C62.619,41.745,62.178,42.363,61.552,42.438z"/>
			
				<ellipse transform="matrix(0.119 0.9929 -0.9929 0.119 90.5296 -24.0733)" style="&st15;" cx="58.831" cy="38.979" rx="1.253" ry="1.144"/>
			<path style="&st15;" d="M63.896,36.523L63.896,36.523c-0.064-0.068-0.06-0.176,0.007-0.239l0.498-0.463
				c0.069-0.064,0.176-0.059,0.24,0.009l0,0c0.065,0.069,0.061,0.177-0.009,0.239l-0.497,0.464
				C64.066,36.597,63.958,36.592,63.896,36.523z"/>
			<path style="&st15;" d="M63.112,41.064L63.112,41.064c-0.063-0.069-0.061-0.176,0.009-0.239l0.497-0.464
				c0.071-0.063,0.177-0.06,0.241,0.01l0,0c0.063,0.068,0.059,0.176-0.009,0.241l-0.499,0.46
				C63.282,41.138,63.175,41.135,63.112,41.064z"/>
			<path style="&st15;" d="M61.308,37.629L61.308,37.629c-0.073,0.06-0.179,0.05-0.24-0.023l-0.436-0.521
				c-0.059-0.072-0.048-0.18,0.024-0.239l0,0c0.069-0.061,0.178-0.051,0.238,0.022l0.435,0.52
				C61.389,37.461,61.38,37.566,61.308,37.629z"/>
			<path style="&st15;" d="M59.607,41.204L59.607,41.204c0.002,0.094-0.07,0.172-0.163,0.176l-0.679,0.023
				c-0.093,0.003-0.172-0.069-0.177-0.164l0,0c-0.003-0.094,0.07-0.173,0.164-0.176l0.68-0.022
				C59.527,41.038,59.603,41.11,59.607,41.204z"/>
			<path style="&st15;" d="M57.144,37.57L57.144,37.57c-0.091-0.028-0.139-0.123-0.113-0.213l0.203-0.648
				c0.025-0.09,0.123-0.14,0.211-0.112l0,0c0.088,0.027,0.139,0.123,0.111,0.213l-0.2,0.647
				C57.328,37.549,57.234,37.599,57.144,37.57z"/>
			<path style="&st15;" d="M61.651,33.576L61.651,33.576c0.011,0.092-0.055,0.177-0.15,0.189l-0.671,0.087
				c-0.093,0.013-0.179-0.054-0.19-0.146l0,0c-0.013-0.093,0.053-0.179,0.146-0.189l0.674-0.089
				C61.554,33.417,61.638,33.482,61.651,33.576z"/>
		</g>
		<g>
			
				<ellipse transform="matrix(-0.3912 0.9203 -0.9203 -0.3912 143.6872 19.8139)" style="&st4;" cx="65.29" cy="57.432" rx="6.081" ry="5.699"/>
			
				<ellipse transform="matrix(-0.3914 0.9202 -0.9202 -0.3914 143.6921 19.8255)" style="&st34;" cx="65.29" cy="57.432" rx="5.322" ry="4.988"/>
			
				<ellipse transform="matrix(-0.3912 0.9203 -0.9203 -0.3912 147.7019 20.9279)" style="&st15;" cx="66.929" cy="59.317" rx="1.254" ry="1.143"/>
			
				<ellipse transform="matrix(-0.3915 0.9202 -0.9202 -0.3915 145.7279 15.6853)" style="&st15;" cx="67.678" cy="56.024" rx="1.254" ry="1.144"/>
			
				<ellipse transform="matrix(-0.391 0.9204 -0.9204 -0.391 140.2772 16.2727)" style="&st15;" cx="64.755" cy="54.544" rx="1.253" ry="1.144"/>
			<path style="&st15;" d="M63.181,61.865c-0.583-0.246-0.834-0.963-0.564-1.6c0.271-0.638,0.963-0.953,1.545-0.705
				c0.579,0.247,0.831,0.964,0.561,1.601C64.453,61.798,63.763,62.114,63.181,61.865z"/>
			
				<ellipse transform="matrix(-0.391 0.9204 -0.9204 -0.391 139.9373 22.4331)" style="&st15;" cx="62.547" cy="57.512" rx="1.253" ry="1.145"/>
			<path style="&st15;" d="M68.163,57.907L68.163,57.907c-0.023-0.092,0.036-0.185,0.126-0.205l0.663-0.15
				c0.091-0.022,0.183,0.034,0.204,0.127l0,0c0.02,0.09-0.037,0.182-0.128,0.202l-0.662,0.153
				C68.274,58.055,68.182,57.997,68.163,57.907z"/>
			<path style="&st15;" d="M65.219,61.453L65.219,61.453c-0.021-0.092,0.036-0.182,0.128-0.203l0.662-0.152
				c0.091-0.021,0.181,0.034,0.204,0.127l0,0c0.021,0.09-0.036,0.182-0.128,0.203l-0.662,0.152
				C65.332,61.602,65.241,61.545,65.219,61.453z"/>
			<path style="&st15;" d="M65.368,57.573L65.368,57.573c-0.093,0.017-0.181-0.044-0.197-0.137l-0.117-0.668
				c-0.017-0.095,0.045-0.182,0.137-0.198l0,0c0.094-0.016,0.18,0.046,0.197,0.137l0.118,0.67
				C65.522,57.471,65.46,57.559,65.368,57.573z"/>
			<path style="&st15;" d="M62.111,59.829L62.111,59.829c-0.045,0.081-0.146,0.114-0.228,0.07l-0.603-0.319
				c-0.081-0.043-0.114-0.146-0.07-0.229l0,0c0.043-0.082,0.146-0.115,0.23-0.07l0.6,0.316
				C62.125,59.644,62.155,59.744,62.111,59.829z"/>
			<path style="&st15;" d="M61.786,55.449L61.786,55.449c-0.065-0.067-0.06-0.176,0.01-0.24l0.496-0.462
				c0.069-0.063,0.178-0.06,0.243,0.01l0,0c0.063,0.068,0.058,0.175-0.011,0.239l-0.497,0.463
				C61.958,55.521,61.851,55.519,61.786,55.449z"/>
			<path style="&st15;" d="M67.684,54.232L67.684,54.232c-0.037,0.085-0.136,0.127-0.223,0.091l-0.627-0.26
				c-0.087-0.036-0.129-0.136-0.092-0.222l0,0c0.036-0.087,0.135-0.129,0.221-0.092l0.628,0.26
				C67.68,54.045,67.719,54.145,67.684,54.232z"/>
		</g>
		<g>
			<ellipse style="&st14;" cx="51.313" cy="31.192" rx="3.177" ry="2.374"/>
			<path style="&st33;" d="M51.313,32.754c-1.282,0-2.364-0.715-2.364-1.562c0-0.849,1.083-1.563,2.364-1.563
				c1.283,0,2.366,0.715,2.366,1.563C53.679,32.039,52.596,32.754,51.313,32.754z"/>
		</g>
		<g>
			<path style="&st14;" d="M35.601,44.933c-0.981,0.872-2.722,0.515-3.889-0.797c-1.166-1.313-1.315-3.082-0.334-3.954
				c0.979-0.87,2.72-0.515,3.885,0.798C36.428,42.292,36.579,44.062,35.601,44.933z"/>
			<path style="&st33;" d="M32.319,43.595c-0.851-0.957-1.036-2.242-0.402-2.806c0.633-0.563,1.887-0.229,2.738,0.73
				c0.853,0.959,1.039,2.244,0.405,2.806C34.426,44.889,33.172,44.555,32.319,43.595z"/>
		</g>
		<g>
			
				<ellipse transform="matrix(-0.2528 0.9675 -0.9675 -0.2528 108.7678 40.4483)" style="&st14;" cx="38.765" cy="62.225" rx="3.178" ry="2.376"/>
			<path style="&st33;" d="M37.254,61.831c0.322-1.241,1.289-2.108,2.108-1.895c0.82,0.215,1.238,1.442,0.915,2.685
				c-0.326,1.238-1.292,2.105-2.111,1.893C37.347,64.301,36.928,63.07,37.254,61.831z"/>
		</g>
		<g>
			
				<ellipse transform="matrix(-0.253 0.9675 -0.9675 -0.253 134.6363 24.5676)" style="&st14;" cx="57.833" cy="64.263" rx="3.178" ry="2.375"/>
			<path style="&st33;" d="M56.32,63.868c0.324-1.24,1.291-2.106,2.11-1.894c0.819,0.215,1.238,1.443,0.915,2.683
				c-0.325,1.241-1.291,2.108-2.11,1.895C56.415,66.339,55.996,65.108,56.32,63.868z"/>
		</g>
		<g>
			
				<ellipse transform="matrix(-0.2529 0.9675 -0.9675 -0.2529 129.3581 -10.2227)" style="&st14;" cx="68.626" cy="44.836" rx="3.177" ry="2.376"/>
			<path style="&st33;" d="M67.113,44.441c0.323-1.241,1.291-2.108,2.109-1.894c0.82,0.213,1.239,1.442,0.915,2.684
				c-0.324,1.24-1.29,2.106-2.11,1.892C67.209,46.911,66.79,45.682,67.113,44.441z"/>
		</g>
		<g style="&st2;">
			<path style="&st20;" d="M50.361,41.709c-0.096,0.259-0.24,0.488-0.38,0.72c-0.155,0.258-0.31,0.518-0.432,0.798
				c-0.162,0.368,0.006,0.797,0.375,0.959c0.095,0.042,0.195,0.062,0.291,0.062c0.281,0,0.549-0.163,0.668-0.437
				c0.097-0.221,0.221-0.426,0.345-0.629c0.183-0.307,0.364-0.613,0.495-0.952c0.143-0.376-0.043-0.797-0.421-0.94
				C50.929,41.15,50.506,41.333,50.361,41.709z"/>
			<path style="&st20;" d="M51.631,50.375c-0.332-0.384-0.704-0.799-1.203-1.068c0.02-0.039,0.059-0.062,0.071-0.105
				c0.081-0.266,0.155-0.545,0.229-0.826c0.071-0.27,0.146-0.541,0.225-0.807c0.278-0.141,0.453-0.445,0.395-0.771
				c-0.012-0.057-0.041-0.103-0.062-0.154c0.1-0.228,0.213-0.444,0.349-0.636c0.235-0.326,0.158-0.783-0.167-1.016
				c-0.325-0.232-0.783-0.157-1.015,0.17c-0.265,0.367-0.458,0.776-0.621,1.194c-0.969,0.229-1.947,0.555-2.656,0.817
				c-0.089,0.033-0.167,0.084-0.234,0.145l-0.028-0.352c-0.037-0.401-0.375-0.69-0.789-0.661c-0.402,0.034-0.698,0.39-0.663,0.79
				l0.06,0.732c0.006,0.075,0.014,0.153,0.021,0.23c-0.264-0.246-0.67-0.274-0.955-0.039c-0.234,0.195-0.542,0.435-0.855,0.678
				c-0.56,0.434-1.086,0.845-1.365,1.127c-0.285,0.285-0.284,0.746,0.002,1.029c0.143,0.141,0.327,0.212,0.514,0.212
				c0.187,0,0.374-0.071,0.514-0.215c0.215-0.216,0.753-0.634,1.229-1.003c0.327-0.255,0.649-0.504,0.892-0.707
				c0.046-0.037,0.073-0.087,0.105-0.133c0.042,0.385,0.09,0.768,0.157,1.148c0.065,0.353,0.371,0.599,0.716,0.599
				c0.043,0,0.087-0.004,0.13-0.011c0.397-0.072,0.66-0.451,0.588-0.846c-0.083-0.465-0.135-0.949-0.177-1.434
				c0.116,0.074,0.25,0.121,0.389,0.121c0.085,0,0.168-0.015,0.252-0.045c0.458-0.17,1.038-0.368,1.641-0.544
				c0,0.002,0,0.005,0,0.009c-0.07,0.266-0.138,0.528-0.214,0.78c-0.066,0.222-0.013,0.443,0.112,0.62
				c-0.046,0.061-0.087,0.124-0.111,0.202c-0.119,0.383,0.099,0.791,0.484,0.908c0.323,0.1,0.623,0.444,0.938,0.812
				c0.177,0.203,0.352,0.401,0.532,0.571c0.14,0.133,0.32,0.199,0.5,0.199c0.193,0,0.387-0.078,0.529-0.231
				c0.275-0.293,0.261-0.754-0.033-1.027C51.912,50.701,51.773,50.538,51.631,50.375z"/>
			<path style="&st20;" d="M45.652,50.987c-0.382,0.126-0.59,0.537-0.464,0.919c0.234,0.726,0.177,1.995-0.018,2.806
				c-0.094,0.391,0.146,0.783,0.539,0.879c0.056,0.013,0.114,0.02,0.17,0.02c0.329,0,0.627-0.225,0.708-0.558
				c0.238-0.986,0.332-2.533-0.016-3.599C46.446,51.072,46.035,50.86,45.652,50.987z"/>
			<path style="&st20;" d="M42.772,45.207c0.436,0.21,0.861,0.485,1.306,0.842c0.134,0.107,0.296,0.161,0.454,0.161
				c0.215,0,0.425-0.093,0.571-0.272c0.251-0.314,0.199-0.773-0.113-1.025c-0.532-0.425-1.05-0.76-1.586-1.017
				c-0.357-0.171-0.795-0.021-0.97,0.34C42.257,44.597,42.408,45.031,42.772,45.207z"/>
			<path style="&st20;" d="M47.553,42.974c-0.306-0.616-0.432-0.87-0.701-1.021c-0.353-0.197-0.794-0.071-0.992,0.28
				c-0.161,0.291-0.102,0.644,0.119,0.867c0.072,0.112,0.168,0.319,0.268,0.521c0.082,0.162,0.162,0.321,0.229,0.448
				c0.132,0.245,0.382,0.384,0.642,0.384c0.115,0,0.234-0.028,0.345-0.087c0.354-0.19,0.486-0.632,0.295-0.987
				C47.698,43.266,47.626,43.12,47.553,42.974z"/>
			<path style="&st20;" d="M53.205,45.665c1.225-0.351,2.366-0.385,3.612-0.385c0.039-0.002,0.074-0.026,0.115,0
				c0.402,0,0.728-0.325,0.728-0.728c0-0.403-0.326-0.729-0.727-0.729c-1.37-0.007-2.683,0.03-4.126,0.441
				c-0.386,0.109-0.611,0.512-0.501,0.899c0.091,0.32,0.384,0.528,0.699,0.528C53.072,45.692,53.138,45.685,53.205,45.665z"/>
			<path style="&st20;" d="M57.055,48.455c-1.434-0.664-2.789-1.206-3.587-0.536c-0.308,0.257-0.383,0.736-0.126,1.046
				c0.258,0.309,0.686,0.369,0.994,0.109c0.245-0.068,0.957,0.171,2.108,0.703l0.184,0.085c0.099,0.046,0.202,0.065,0.304,0.065
				c0.275,0,0.54-0.156,0.662-0.425c0.166-0.365,0.004-0.798-0.359-0.966L57.055,48.455z"/>
			<path style="&st20;" d="M41.229,48.172c0.235,0,0.47-0.114,0.608-0.328c0.219-0.335,0.128-0.786-0.208-1.009
				c-0.819-0.538-2.023-0.754-3.085-0.944c-0.352-0.063-0.684-0.121-0.97-0.188c-0.393-0.093-0.783,0.152-0.875,0.544
				s0.152,0.783,0.543,0.874c0.31,0.073,0.667,0.138,1.046,0.205c0.923,0.164,1.973,0.353,2.542,0.728
				C40.952,48.135,41.09,48.172,41.229,48.172z"/>
			<path style="&st20;" d="M43.183,55.423c0.026-0.012,0.054-0.008,0.08-0.021c0.342-0.21,0.451-0.66,0.242-1.002
				c-0.158-0.257-0.328-0.518-0.497-0.78c-0.37-0.568-0.751-1.156-1.012-1.727c-0.169-0.367-0.599-0.524-0.967-0.358
				c-0.365,0.167-0.526,0.599-0.358,0.966c0.305,0.665,0.715,1.3,1.116,1.912c0.162,0.252,0.324,0.501,0.474,0.747
				c0.067,0.11,0.163,0.198,0.271,0.258c-0.087,0.004-0.168,0.005-0.265,0.008c-1.593,0.052-2.276,0.113-2.63,0.544
				c-0.258,0.309-0.213,0.768,0.095,1.025c0.137,0.112,0.301,0.165,0.463,0.165c0.156,0,0.313-0.05,0.444-0.147
				c0.293-0.087,1.217-0.116,1.673-0.131c0.307-0.01,0.573-0.019,0.741-0.034c0.399-0.037,0.694-0.392,0.658-0.791
				C43.682,55.746,43.465,55.501,43.183,55.423z"/>
			<path style="&st20;" d="M49.769,53.686c-0.64,0.421-1.365,0.897-1.886,1.58c-0.246,0.321-0.185,0.776,0.134,1.021
				c0.132,0.102,0.288,0.15,0.443,0.15c0.219,0,0.436-0.1,0.579-0.288c0.371-0.484,0.961-0.873,1.577-1.279
				c0.338-0.222,0.407-0.657,0.184-0.992C50.58,53.54,50.104,53.463,49.769,53.686z"/>
			<path style="&st20;" d="M53.55,56.849c0.219,0.18,0.47,0.385,0.78,0.541c0.104,0.056,0.217,0.081,0.329,0.081
				c0.266,0,0.521-0.146,0.65-0.399c0.182-0.358,0.04-0.797-0.319-0.979c-0.169-0.085-0.337-0.225-0.519-0.371
				c-0.241-0.197-0.515-0.423-0.859-0.574c-0.364-0.163-0.801,0.003-0.961,0.371c-0.165,0.366,0.003,0.797,0.371,0.96
				C53.185,56.55,53.362,56.695,53.55,56.849z"/>
			<path style="&st20;" d="M57.54,50.453c-0.22-0.336-0.671-0.432-1.009-0.209c-0.851,0.558-1.518,1.293-1.928,1.811
				c-0.247,0.316-0.196,0.773,0.12,1.022c0.135,0.106,0.293,0.157,0.451,0.157c0.217,0,0.43-0.095,0.573-0.276
				c0.492-0.621,1.038-1.139,1.584-1.497C57.666,51.242,57.759,50.791,57.54,50.453z"/>
			<path style="&st20;" d="M60.81,48.39c0.113,0.062,0.235,0.094,0.355,0.094c0.255,0,0.501-0.135,0.637-0.374
				c0.196-0.35,0.651-0.658,1.091-0.957c0.292-0.198,0.575-0.395,0.819-0.605c0.297-0.264,0.33-0.715,0.075-1.018
				c0.139-0.05,0.271-0.127,0.358-0.261c0.238-0.354,0.53-0.62,0.866-0.794c0.357-0.181,0.5-0.62,0.315-0.979
				c-0.182-0.356-0.623-0.501-0.98-0.315c-0.556,0.285-1.029,0.714-1.409,1.274c-0.183,0.272-0.147,0.62,0.049,0.86
				c-0.083,0.032-0.163,0.073-0.233,0.135c-0.2,0.176-0.438,0.336-0.677,0.498c-0.556,0.375-1.181,0.8-1.545,1.451
				C60.335,47.747,60.458,48.192,60.81,48.39z"/>
			<path style="&st20;" d="M53.42,40.734c0.129,0,0.258-0.034,0.377-0.106c0.296-0.181,0.426-0.498,0.71-1.266
				c0.071-0.196,0.138-0.383,0.191-0.495c0.169-0.364,0.011-0.797-0.354-0.966c-0.363-0.17-0.795-0.013-0.965,0.352
				c-0.065,0.137-0.15,0.362-0.239,0.604c-0.092,0.247-0.185,0.516-0.262,0.659c-0.211,0.234-0.255,0.587-0.083,0.869
				C52.935,40.61,53.173,40.734,53.42,40.734z"/>
			<path style="&st20;" d="M49.469,39.209c0.13,0.247,0.383,0.389,0.645,0.389c0.115,0,0.232-0.027,0.339-0.083
				c0.358-0.187,0.492-0.628,0.306-0.983c-0.242-0.46-0.512-0.991-0.67-1.523c-0.115-0.385-0.519-0.604-0.906-0.488
				c-0.385,0.114-0.604,0.521-0.489,0.906C48.887,38.083,49.195,38.691,49.469,39.209z"/>
			<path style="&st20;" d="M54.21,35.219c0.08,0.027,0.161,0.04,0.242,0.04c0.3,0,0.581-0.187,0.687-0.487
				c0.256-0.728,0.759-1.497,1.161-2.114c0.221-0.337,0.125-0.788-0.21-1.007c-0.336-0.22-0.788-0.126-1.009,0.21
				c-0.445,0.684-1,1.533-1.315,2.429C53.63,34.669,53.831,35.085,54.21,35.219z"/>
			<path style="&st20;" d="M46.599,34.146c-0.04,0.402,0.251,0.76,0.651,0.8c0.026,0.001,0.051,0.003,0.075,0.003
				c0.369,0,0.686-0.278,0.725-0.653c0.089-0.882-0.316-1.862-1.199-2.918c-0.258-0.308-0.716-0.347-1.028-0.09
				c-0.306,0.259-0.348,0.718-0.09,1.026C46.337,33.035,46.646,33.688,46.599,34.146z"/>
			<path style="&st20;" d="M39.545,43.896c0.078,0.027,0.158,0.04,0.236,0.04c0.302,0,0.586-0.188,0.689-0.489
				c0.131-0.381-0.07-0.795-0.45-0.928c-0.553-0.19-1.104-0.794-1.547-1.697c-0.176-0.36-0.614-0.512-0.975-0.332
				c-0.362,0.176-0.51,0.611-0.332,0.973C37.599,42.349,38.365,43.488,39.545,43.896z"/>
			<path style="&st20;" d="M35.878,44.996c-1.185-0.387-2.289,0.592-2.6,0.899c-0.286,0.284-0.286,0.745-0.002,1.03
				c0.141,0.142,0.328,0.214,0.514,0.214c0.188,0,0.373-0.07,0.513-0.213c0.396-0.392,0.874-0.628,1.119-0.547
				c0.38,0.126,0.794-0.083,0.92-0.463C36.466,45.533,36.26,45.122,35.878,44.996z"/>
			<path style="&st20;" d="M55.397,61.4c-0.28-0.86-0.597-1.835-1.191-2.619c-0.244-0.319-0.701-0.386-1.021-0.141
				c-0.319,0.243-0.383,0.699-0.14,1.021c0.447,0.588,0.711,1.402,0.966,2.189l0.059,0.18c0.101,0.306,0.386,0.501,0.692,0.501
				c0.074,0,0.152-0.011,0.226-0.035c0.384-0.126,0.591-0.537,0.468-0.919L55.397,61.4z"/>
			<path style="&st20;" d="M57.811,54.24l-0.364,0.641l-0.144,0.723c0.67,0.252,1.248,0.468,1.753,0.877
				c0.134,0.109,0.296,0.163,0.458,0.163c0.211,0,0.421-0.094,0.565-0.27c0.253-0.313,0.205-0.772-0.107-1.025
				C59.283,54.79,58.535,54.512,57.811,54.24z"/>
			<path style="&st20;" d="M62.953,51.094c-0.168-0.058-0.338-0.127-0.511-0.197c-0.531-0.219-1.161-0.458-1.793-0.462
				c-0.404,0.001-0.729,0.329-0.726,0.73c0,0.402,0.326,0.728,0.727,0.728c0.001,0,0.001,0,0.001,0
				c0.348,0.047,0.793,0.169,1.241,0.353c0.198,0.079,0.393,0.159,0.587,0.226c0.077,0.027,0.158,0.04,0.238,0.04
				c0.301,0,0.584-0.188,0.688-0.49C63.537,51.641,63.333,51.226,62.953,51.094z"/>
			<path style="&st20;" d="M67.161,47.274c-0.208-0.344-0.655-0.456-1-0.245c-0.358,0.216-0.738,0.392-1.119,0.567
				c-0.495,0.229-1.006,0.469-1.49,0.791c-0.334,0.223-0.425,0.675-0.203,1.011c0.14,0.21,0.371,0.324,0.606,0.324
				c0.139,0,0.28-0.041,0.403-0.123c0.393-0.26,0.831-0.466,1.297-0.682c0.426-0.2,0.856-0.4,1.26-0.644
				C67.26,48.066,67.369,47.618,67.161,47.274z"/>
			<path style="&st20;" d="M55.89,41.735c0.128,0.093,0.273,0.136,0.421,0.136c0.227,0,0.452-0.106,0.595-0.306
				c0.25-0.351,0.561-0.674,0.887-1.019c0.25-0.26,0.501-0.521,0.732-0.799c0.256-0.31,0.214-0.769-0.095-1.025
				c-0.31-0.26-0.77-0.214-1.025,0.095c-0.209,0.25-0.434,0.487-0.662,0.723c-0.349,0.364-0.713,0.742-1.024,1.18
				C55.485,41.048,55.561,41.503,55.89,41.735z"/>
			<path style="&st20;" d="M32.723,38.247c-0.318-0.193-0.633-0.369-0.979-0.545c-0.361-0.18-0.796-0.036-0.979,0.321
				c-0.181,0.359-0.036,0.798,0.322,0.979c0.31,0.157,0.592,0.315,0.88,0.488c0.119,0.073,0.249,0.106,0.376,0.106
				c0.247,0,0.488-0.123,0.625-0.352C33.175,38.903,33.066,38.455,32.723,38.247z"/>
			<path style="&st20;" d="M29.536,43.592c-0.559,0.284-1.061,0.648-1.548,1c-0.232,0.168-0.462,0.335-0.694,0.49
				c-0.336,0.222-0.427,0.674-0.204,1.009c0.14,0.212,0.371,0.325,0.608,0.325c0.137,0,0.278-0.038,0.401-0.12
				c0.25-0.166,0.496-0.345,0.744-0.523c0.461-0.335,0.898-0.65,1.352-0.881c0.36-0.183,0.501-0.623,0.321-0.98
				C30.332,43.552,29.893,43.409,29.536,43.592z"/>
			<path style="&st20;" d="M35.045,59.622c-0.675,0.642-1.206,1.92-1.531,2.877c-0.129,0.381,0.076,0.796,0.458,0.925
				c0.077,0.024,0.155,0.038,0.232,0.038c0.305,0,0.587-0.19,0.69-0.495c0.375-1.102,0.806-1.956,1.153-2.287
				c0.294-0.276,0.306-0.738,0.029-1.029C35.801,59.358,35.339,59.345,35.045,59.622z"/>
			<path style="&st20;" d="M41.229,65.311c-0.833,0-1.34,0.67-1.677,1.114c-0.074,0.097-0.145,0.189-0.215,0.271
				c-0.264,0.303-0.233,0.764,0.07,1.028c0.139,0.12,0.31,0.179,0.479,0.179c0.203,0,0.403-0.083,0.549-0.248
				c0.091-0.105,0.182-0.224,0.278-0.35c0.111-0.146,0.406-0.537,0.516-0.537l0,0c0.402,0,0.728-0.325,0.728-0.729
				C41.957,65.636,41.623,65.34,41.229,65.311z"/>
		</g>
		<path style="&st27;" d="M53.562,46.522c-0.098,0.03-0.193,0.024-0.302,0.047c0.489-0.488,1.569-2.51,0.702-2.929
			c-0.845-0.408-2.907,0.8-3.625,0.992c-0.066-0.052-0.108-0.1-0.179-0.143c-0.162,0.17-0.357,0.315-0.418,0.556
			c-0.053-0.061-0.168-0.142-0.207-0.185c-0.139,0.226-0.246,0.456-0.322,0.682c-0.055-0.076-0.13-0.144-0.184-0.235
			c-0.206,0.302-0.267,0.795-0.202,1.301c-0.032,0.077-0.043,0.149-0.063,0.226c-1.625-1.853-2.661,1.093-3.88,1.425
			c0.477,1.37,3.585,1.34,4.125-0.346c0.982,1.208,4.115,1.417,4.537-0.694c-0.14,0.011-0.333-0.047-0.468-0.025
			C53.331,47.07,53.546,46.816,53.562,46.522z"/>
		<path style="&st27;" d="M49.213,48.825c-1.309,0.041,0.254,2.716,0.781,3.075C50.687,50.959,51.068,48.766,49.213,48.825z"/>
	</g>
</g>
</svg>
