<?xml version="1.0" encoding="utf-8"?>
<!-- Generator: Adobe Illustrator 16.0.0, SVG Export Plug-In . SVG Version: 6.00 Build 0)  -->
<!DOCTYPE svg PUBLIC "-//W3C//DTD SVG 1.1//EN" "http://www.w3.org/Graphics/SVG/1.1/DTD/svg11.dtd" [
	<!ENTITY st0 "fill:#ACCFF6;">
	<!ENTITY st1 "fill:#E0ACE5;">
	<!ENTITY st2 "opacity:0.92;">
	<!ENTITY st3 "fill:#EAC95D;">
	<!ENTITY st4 "fill:#880F19;">
	<!ENTITY st5 "fill:#B7EDCC;">
	<!ENTITY st6 "fill:#545454;">
	<!ENTITY st7 "fill:none;stroke:#FFFFFF;stroke-miterlimit:10;">
	<!ENTITY st8 "fill:#BE1E2D;">
	<!ENTITY st9 "fill:#F1F2F2;">
	<!ENTITY st10 "fill:#F8F8F9;">
	<!ENTITY st11 "fill:#F96E6E;">
	<!ENTITY st12 "fill:#C1C1C1;">
	<!ENTITY st13 "fill:#C49669;">
	<!ENTITY st14 "fill:#2A2E32;">
	<!ENTITY st15 "fill:#C68074;">
	<!ENTITY st16 "fill:#FADD7B;">
	<!ENTITY st17 "fill:#2E0000;">
	<!ENTITY st18 "fill:#FCEFB9;">
	<!ENTITY st19 "opacity:0.3;">
	<!ENTITY st20 "fill:#FED37E;">
	<!ENTITY st21 "fill:#FEE677;">
	<!ENTITY st22 "fill:#FF9B74;">
	<!ENTITY st23 "fill:#FFE29A;">
	<!ENTITY st24 "fill:#FFEE4D;">
	<!ENTITY st25 "fill:#FFFFFF;">
	<!ENTITY st26 "fill:#631A19;">
	<!ENTITY st27 "fill:#009444;">
	<!ENTITY st28 "fill:#D09049;">
	<!ENTITY st29 "fill:#D09957;">
	<!ENTITY st30 "fill:#D4B99B;">
	<!ENTITY st31 "fill:#3B372D;">
	<!ENTITY st32 "fill:none;stroke:#FCEFB9;stroke-width:0.9184;stroke-miterlimit:10;">
	<!ENTITY st33 "fill:#D9D1B2;">
	<!ENTITY st34 "fill:#A11824;">
	<!ENTITY st35 "fill:#754C29;">
	<!ENTITY st36 "fill:#756C5E;">
	<!ENTITY st37 "fill:#DDB36A;">
	<!ENTITY st38 "fill:#404040;">
	<!ENTITY st39 "fill:#444036;">
	<!ENTITY st40 "fill:#451613;">
]>
<svg version="1.1" id="圖層_1" xmlns="http://www.w3.org/2000/svg" xmlns:xlink="http://www.w3.org/1999/xlink" x="0px" y="0px"
	 width="100px" height="100px" viewBox="0 0 100 100" style="enable-background:new 0 0 100 100;" xml:space="preserve">
<g>
	<circle style="&st21;" cx="50" cy="50" r="50"/>
	<circle style="&st7;" cx="49.999" cy="50" r="44.999"/>
	<g>
		<g>
			<g>
				
					<rect x="51.448" y="48.871" transform="matrix(0.7071 -0.7071 0.7071 0.7071 -21.8515 53.4198)" style="&st6;" width="4.219" height="8.431"/>
			</g>
		</g>
		<g>
			<g>
				<path style="&st38;" d="M23.745,23.272c-8.234,8.233-8.234,21.581,0,29.814c8.232,8.232,21.581,8.232,29.814-0.001
					c8.234-8.234,8.232-21.58,0-29.813C45.324,15.04,31.979,15.038,23.745,23.272z M50.578,50.104
					c-6.587,6.587-17.266,6.587-23.852,0.001c-6.585-6.586-6.587-17.266,0-23.853c6.586-6.586,17.265-6.583,23.85,0.002
					C57.162,32.841,57.164,43.519,50.578,50.104z"/>
			</g>
		</g>
		<g>
			<g>
				
					<rect x="61.268" y="52.363" transform="matrix(0.7071 -0.7071 0.7071 0.7071 -26.7908 65.3457)" style="&st38;" width="8.431" height="25.298"/>
			</g>
		</g>
		<g>
			<g>
				
					<rect x="61.885" y="53.853" transform="matrix(0.7071 -0.7071 0.7071 0.7071 -28.281 64.7285)" style="&st6;" width="4.216" height="25.298"/>
			</g>
		</g>
		<g>
			<g>
				
					<rect x="52.324" y="55.471" transform="matrix(0.707 -0.7072 0.7072 0.707 -23.0858 56.4083)" style="&st25;" width="8.432" height="1.195"/>
			</g>
		</g>
		<g>
			<g>
				
					<rect x="70.213" y="73.36" transform="matrix(0.7071 -0.7071 0.7071 0.7071 -30.4958 74.2906)" style="&st25;" width="8.431" height="1.195"/>
			</g>
		</g>
		<g style="&st19;">
			<circle style="&st25;" cx="38.652" cy="38.179" r="16.866"/>
		</g>
	</g>
	<g>
		<path style="&st12;" d="M44.321,40.232L44.321,40.232c0,0-0.051-14.272-0.051-15.499c-0.008-0.848-0.932,0.032-1.322,0.839
			c-0.391,0.805-1.977,4.421-1.977,8.155c0,1.402-0.029,3.271-0.029,4.166c0,1.424,1.334,1.006,1.629,2.505h1.758L44.321,40.232z"/>
		<path style="&st40;" d="M33.137,51.543h0.003c-0.001,0.006-0.003,0.014-0.003,0.022c0,0.606,0.667,1.1,1.488,1.1
			c0.041,0,0.525,0,0.566,0c0.821,0,1.487-0.493,1.487-1.1c0-0.009-0.001-0.017-0.003-0.022h0.003l-0.637-9.062h-2.274
			L33.137,51.543z"/>
		<path style="&st12;" d="M37.727,24.186h-0.622v8.761H36.3v-8.761h-0.912v8.761h-0.805v-8.761h-0.878v8.761h-0.804v-8.761h-0.813
			c0,0-1.246,9.337-0.54,10.391c0.568,0.848,1.476,1.527,2.537,1.761l-0.318,6.145h2.274l-0.32-6.138c0,0,0.014-0.006,0.034-0.013
			c1.05-0.239,1.948-0.913,2.511-1.755C38.973,33.522,37.727,24.186,37.727,24.186z"/>
		<path style="&st40;" d="M44.327,40.346h-1.756c0.037,0.136,0.061,0.289,0.061,0.472l-0.773,10.884h0.004
			c-0.002,0.005-0.004,0.012-0.004,0.019c0,0.522,0.583,0.945,1.3,0.945c0.037,0,0.459,0,0.496,0c0.717,0,1.301-0.423,1.301-0.945
			c0-0.007-0.002-0.014-0.004-0.019h0.004L44.327,40.346z"/>
	</g>
</g>
</svg>
