<svg xmlns="http://www.w3.org/2000/svg" xmlns:xlink="http://www.w3.org/1999/xlink" viewBox="0 0 50 2000" enable-background="new 0 0 50 50" width="50" height="2000"><use xlink:href="#a"/><use y="50" xlink:href="#b"/><use y="100" xlink:href="#c"/><defs><g id="c"><g fill="#ECDA24"><path d="M14.598 28.857c-.131-.03-.068.216-.081.313h.157l-.076-.313zM14.598 28.382v-.077c-.081 0-.174.238-.161.319h.08v.156l.157-.08v-.24l-.076-.078zM14.361 27.675s.143.293.075.316c.237.05.2-.21.08-.156v-.237c-.113-.089-.07.071-.08.077h-.075zM14.361 24.292h-.082v.156h.157c-.019-.142.069-.281-.075-.315-.142-.036-.101.077 0 .077v.082zM14.517 20.352v-.239c-.124-.06-.07.168-.08.239h.08zM14.517 19.482c-.134-.025-.064.139-.08.237h.161l-.081-.237zM14.517 17.516h.157l-.076-.16c.15-.074.125-.212.096-.243l-.096.088c-.169.128-.02.101-.081.315zM14.674 17.123l.02-.015-.02.015zM21.132 12.475c0-.476.048-.95 0-1.421h-.078v-.547h-.075v-.16h.075c.021-.12-.075-.154-.075-.154v-.635h-.079l-.083-.393-.155-.078v-.159h-.083c-.046-.16.027-.384 0-.549h-.074l-.079-.712h-.081v-.313h-.077v-.235h-.081c-.017-.1.044-.232 0-.313l-.316-.24-.075-.154h-.157v.078l-.237.076c-.036-.134.052-.336 0-.47-.025-.06-.18-.045-.237-.081v-.072l-.236-.163-.312.079.074.237h.082v.156h.083l.072.159h.162l.074.154h.081v.16h-.155l-.082-.16c-.152-.054-.38.006-.47-.076 0 0-.045-.283-.083-.315h-.156v.078l-.237.158v.154h-.237v.16h-.079v.08l-.394.313v.077h-.08v.158h-.156v.079l-.157.076v.082c.041-.12.078.078.078.078l-.159.078v.241c.247.011.286-.045.474-.079l-.08.628h-.076v.317h-.08c-.032.096-.005.175-.078.234l-.239.078v.159c-.111.075-.172.035-.313.075v.083h-.16l-.072.312-.164.077v.16h-.072v.161h-.086v.231h-.079v.159l-.053.022-.02.056h-.08v.393h-.077v.159h-.082v.238l-.158.077v.393h-.079v.155h-.08c-.06.261.02.42-.076.635l-.157.077-.079.155h-.074c-.052.133.074.162.074.162.008.053-.049.274-.074.392h-.084v.08c.132.063.038.068.084.235h.074c.023.113.008.276 0 .396h-.074v.234h-.084c-.039.185 0 .44 0 .63h-.077c-.02.164.077.315.077.315h-.077c0 .348.063.766 0 1.103h-.076v.236c.063.025.219.032.237.074.033.134-.013.048-.084.085l.016.056.068.022-.084.159.158.077-.074.155h-.084c-.058.172.016.457 0 .63-.224-.015-.138-.089-.314 0l.008.063.072.019c0 .149-.017.314 0 .471.084-.034.112-.136.234-.081v.165h.084v.153l-.161.082c-.037.123.012.117.077.154l-.077.238h-.076c-.063.029.15.147.153.156-.033.017-.058.524 0 .551-.422-.026-.174.249-.077.235l-.076.081.004.057.072.021v.23c-.013.012-.313.05-.157.166h.081v.157h.07700000000000001l.077.156-.077.155h-.237v.236h.161v.16h-.081c-.104.08-.107.103-.08.109v.125h.161l.076.318-.076.153c-.075 0-.178-.032-.236 0v.158c.139-.023.153-.08.39-.08-.065.142-.039.221-.077.396h-.157v.234h-.08v-.234c-.017.012-.324.215-.075.234l.025.096.13.063c0 .116-.037.287 0 .393h.157v.161h-.157v.153c-.147.022-.002-.192-.237-.153v.153l.05.028.032.133.155-.079v.234l.157.082v.078l-.076.078h-.081c.019.087.116.273.081.392h-.081v.161c-.053-.035-.093-.105-.155-.081-.051.229-.013.296-.082.549.087.057.082-.143.237-.08l.081.243h.076c.126.046-.157.152-.157.152.031.111.12.077.081.236h-.081v.316s-.099-.03-.08-.159c-.141 0-.098.432 0 .394 0 0 .038-.271.08-.155l.016.054.065.023-.014.33-.024-.021c-.105 0-.045.144-.06.225h.109l.011-.141h.054v.475h-.076v.082l.153.548v.074l-.077.161h-.076c.012.068.153.155.153.155.046.128 0 .337 0 .476l.079.01.005.066h-.084l.084.161-.084.075h.084c.048.213 0 .357.074.557h.079v.154h.088c.032.126-.023.044-.088.076l.088.084v.155h.069v.315l.235.079.08.235.16.078c.031.098-.098.347 0 .394l.077.081c.006-.035.193 0 .231 0v-.157h-.079l.079-.081v-.314h-.079v-.147h-.072v-.318l.31.082.083.236.153.079v-.237h-.072v-.16l-.064-.017-.017-.06c.043-.024.129.029.081-.079l-.236-.155v-.16l-.165-.08v-.152h.474c.026.005.077.2.318.152v-.074l.155-.078v-.16c.128.006.277-.027.397 0 0 0 .033.121.156.077l.079-.077v.077h.16l.077.161h.077v.154h.241l.075.16h.235l.083-.314h.073c.047-.117-.122-.067-.073-.238l.156-.08c0-.158-.059-.407 0-.551l.234-.157c.035-.107 0-.274 0-.396l.071-.01.012-.068-.083-.075h.083s-.058-.129-.083-.086l.083-.074v-.156l.322-.06.067.06c.103-.073 0-.348 0-.474h.156l.072-.154h.165c.031-.082 0-.306 0-.398l.072-.013.008-.063h-.08v-.082h.08l.077-.474h.075c.023-.133.01-.195-.075-.235v-.081h.075c.013-.149-.035-.325 0-.473h.079v-.15h-.079v-.475h.079v-.947h.082c.015-.273-.082-.299-.082-.472h.082l.073-1.971h.082c.033-.365-.025-.732 0-1.101h.081v-.161c-.012.146-.081-.077-.081-.077h.081v-.943h.077c.011-.009-.089-.155-.077-.234h.077c.06-.41.033-.606.081-1.029h.079v-.551h-.079c.067-.055.028-.149.153-.154 0-.328-.046-.693 0-1.027h.083l.078-.63h.077c.083-.576.023-.985.083-1.574h.079v-.631h.075v-.786l.08-.001zM15.798 10.605c.034-.108-.104.035 0 0zM14.602 20.33zM14.532 26.47zM14.767 16.941zM18.842 28.295zM14.387 23.123c-.167-.047.033.196 0 0zM19.709 26.796zM14.444 18.049z"/></g><g fill="#D01125"><path d="M7.384 16.646v.057h.102c-.007-.09.054-.217-.051-.221-.129-.014-.137.237-.051.164zM7.212 16.923v.056c.156.02.191-.155 0-.168-.062-.01-.109.112 0 .112zM7.115 17.471v-.056c.035-.031.187-.074.057-.113l-.057-.111h-.331c-.097.013-.043.133-.057.225l.388.055zM7.05 22.502c-.107 0-.047.084-.061.161h.111c-.01-.077.05-.161-.05-.161zM8.139 15.938l-.082-.155c-.122-.026-.061.086-.075.155h.157zM14.437 21.216v-.233l-.157-.078c0-.117.054-.377 0-.476h-.157v-.077l-.231-.159v-.157l-.242-.078v-.237l-.316-.237v-.076h-.151v-.077h-.163v-.079l-.235-.158c-.053-.085.023-.222 0-.316h-.08l-.079-.318h-.075v-.236h-.083v-.153h-.076v-.239h-.08c-.047-.188-.005-.236-.079-.391l-.233-.16v-.238h-.083v-.075l-.239-.078-.073-.159h-.158v-.076h-.158l-.081-.16h-.154l-.079-.159-.316-.075-.08-.16h-.236v-.078l-.233-.08v-.076h-.233l-.083-.236h-.239l-.233-.316h-.233v-.075c-.137 0-.263.024-.394 0l-.157.075v.079c.2-.14 0 .237 0 .237-.08-.04-.114.057-.082-.083h-.161c-.053.08 0 .309 0 .396l-.156.08v.078c-.24.043-.233.013-.395.081l.154.313h.24v-.08c.092-.005.074.08.312.08v-.234s-.169-.089-.08-.16l.394-.078v.078h.161v.081c.12.063.18.199.311.233v.159c-.146 0-.324-.022-.472 0l.079-.393h-.154c-.035.109-.029.414-.084.55h-.155v.159h-.237c.029.167 0 .376 0 .552.107.059.192-.049.157.154l-.231.079v.236l-.055.021-.027.057h-.159c-.079.127.136.196.083.235h-.162l-.004.063-.071.017c0 .082.03.245 0 .322-.23-.017-.261-.036-.473-.084v.084h-.156v.153s.269 0-.083.082v.073h-.233v.081l-.63.08v.075h-.236l-.083.239h.159l.078.158c.165-.137.137.146.161.155l-.161.156-.237.081v.316l.237.078v.159l.161.071v.239l.227.083v.156h.085v.075l.154.08.085.236h.08v.24h.153s.112.444 0 .233v.078h.239v.08h.075v.158l.159.076c.058.141-.055.168.08.239v.08h.313v.074h.158v.161l.476.075.157.238h.235l.077.158c.162.041.389-.063.548 0v.158h.239v.076h.083v.082h.153l.08.155h.233s.057.175.157.159c0 0-.065-.225.159-.159v.077l.316.082.079.157h.235v.077h.236v.082l.099.015c-.055-.015-.155-.046-.019-.097h.232v.082c.089 0 .226-.038.319-.082 0 0 .167-.2.236-.234v-.082h.159v-.077c.15-.027.15.074.154.077h.155v.082c.22.028.214-.097.396-.082l.077-.391h.084v-.158h.075v-.158c.04-.058.178-.045.239-.077v-.082l.16-.079v-.155l.231-.081v-.235h.077v-.158l.162-.076c.059-.133.113-.54.075-.55h.161v-.24h.153v-.157c-.07-.065-.257-.039-.307-.078z"/></g><g fill="#34AA37"><path d="M24.717 19.24h.11c-.014-.079.044-.165-.06-.165-.1 0-.037.086-.05.165zM24.827 24.265l.055-.111h.056c-.022-.077.055-.302-.11-.217h-.06v.217c-.085-.034-.085.18.059.111zM24.656 24.651c.011.003-.02.126.061.056.014-.014.248-.548.051-.385h-.051v.222l-.111.053c-.001 0 .018.153.05.054zM25.648 24.544v-.057c.068.028.102-.057 0-.057v-.055c-.083.007-.083.16 0 .169zM25.987 24.376c-.103 0-.162.182-.056.111v.057h.168c-.099-.085.1-.168-.112-.168zM24.717 24.984v-.056c.064 0 .097-.08 0-.056-.061.016-.107.133 0 .112zM25.262 25.869l.063-.112s-.201-.002-.063-.057l-.046.109c-.112-.019-.052.097.046.06zM25.543 25.81v.06h.055v-.169c-.098-.004-.16.186-.055.109zM24.163 28.017h.108c-.006-.088.05-.275-.051-.273-.109.005-.035.032-.058.108-.078-.058-.036.154.001.165zM24.221 28.295v.11l.103.055v.11h.226v-.554l-.057-.055-.111.055v.22l-.161.059zM22.95 30.67s.136-.071.056-.108c-.094-.05-.049.067-.056.108zM23.847 30.836zM23.833 30.836c-.158 0 .003.046.054.054l-.04-.054h-.014zM25.152 31.002l.049.011c.143-.069-.495.067-.049-.011zM24.992 31.222l.111.059.112-.059-.015-.209-.098.04c-.092.032-.281.044-.11.169zM22.95 31.497c-.01-.082.041-.217-.056-.217-.1 0-.051.135-.051.217h.107zM23.833 31.777c-.026-.109.028-.122-.058-.17v-.056l-.051.056h-.061c.011.076.016.334.061.17v.054l.109-.054zM23.614 31.991v.113c.201 0 .188-.146 0-.168-.087-.008-.087.055 0 .055zM24.648 33.335zM24.439 33.43l.217-.057-.008-.038-.043-.016v-.222h-.057v-.056c-.04.015-.09.104-.168.056l.059-.497c-.088-.022-.099.055-.116-.057h.169v-.107l-.221.054v-.054c-.019-.102-.108.107-.108.107l.058.057c.027-.1.082.083.051.167h-.108c0 .18-.034.428 0 .605h.058v.167h-.058l-.052.219h.27l.059-.162h-.059v-.111l.057-.055zM22.672 34.699h.112v.057h.06v.552h.051v.166l-.11-.054v.054l-.112.057v.166h.061v.221h-.061c-.002.099.061.107.061.107v.165h-.061v.168h-.052v.163l.224.057.051.108h.165v-.216c-.021.095-.054-.058-.054-.058-.034.101-.056-.055-.056-.055l.109-.057v-.218h.169c-.015.135-.071.214 0 .274h.159l.058-.168h-.058v-.106h-.051l-.061-.221-.159-.056c-.034-.07 0-.203 0-.276h-.058l.058-.393.111-.049h.159l.058.441.145.088-.033.299.058.107h.11v-.218l.051-.059c.084.068.05-.141.058-.162l-.169-.056v-.11l.111-.059v-.11l-.051-.054h-.061v-.108c.253 0 .169-.112.169-.112h-.169s-.037.09-.166.054l-.11-.167.169-.054v-.054h-.22v.107c-.032.016-.186.016-.22 0v-.054l.056-.054v-.165h-.056v-.167l.111-.054c.042-.113-.018-.268 0-.387h.048v-.271l-.217-.061v-.055h.217v-.277h.061l-.061-.057v-.165h.061c.025-.135-.046-.31 0-.442h.051l.058-.111h-.171c.063-.003.1.008-.046.057h-.223v.333h-.056v.108l.056.056h-.056v.113h-.056v.219h.111v.056h-.111v.227h.165v.047l-.216.111v.665h-.111v-.111h-.061l-.052-.11h-.113v.11l.113.057.053.221zM23.274 32.544zM23.833 33.319c-.108 0-.037.034-.058.11 0 .001.508-.11.058-.11zM24.549 33.54c-.059.013-.109.187 0 .172 0 0 .149-.21 0-.172zM22.62 33.759s.445-.107.052-.107c-.109-.001-.036.032-.052.107zM23.498 34.037v.056c.153.025.195-.149 0-.167-.06-.004-.11.111 0 .111zM23.775 33.926c-.101-.004-.148.181-.051.111v.056h.108c-.017-.089.055-.16-.057-.167zM23.664 34.424h-.107l-.059-.271h-.053c-.159.116-.063.199-.058.438.188-.012.11-.088.276 0 .118.055-.05.055-.05.055v.11h.219c0-.149-.02-.295 0-.442-.193.023-.107.079-.168.11zM24.055 34.923c-.014-.083.042-.224-.059-.224-.095 0-.042.141-.055.224h.114zM22.62 35.089v-.059h.052s-.091-.195-.052-.221c-.113.035-.178.388 0 .28zM24.221 34.81c-.109 0-.035.034-.058.113 0 0 .535-.113.058-.113zM24.717 34.863c-.111 0-.034.034-.061.113 0 .001.41-.113.061-.113zM24.163 35.03c-.178.076-.131.167-.222.331l.055.059h.115v-.059h.052c.008-.066.112-.384 0-.331zM24.055 35.53c-.129-.029-.153.218 0 .218v.059c.116.009.166-.251 0-.277zM23.388 35.807c-.083-.048-.042.065-.051.11 0 0 .134-.072.051-.11zM23.725 36.577l.051-.107h-.051l-.061-.058v-.223l-.037-.013-.013-.039h-.058v.163h-.059l.059.276.169.001zM23.388 36.521c.097.057.053-.125-.111-.108-.104.009-.035.081-.048.165h.159v-.057zM24.163 36.85v-.11h-.222l-.108-.163-.058.054c-.085-.077-.036.048-.051.055h.051v.109h.166c-.021.087.067.359-.108.277 0 0 .026.209.054.11l.055.111.113-.056v-.329l.108-.058zM23.557 36.631c-.089-.044-.044.078-.059.109 0 0 .141-.065.059-.109zM23.664 37.072c-.096-.025-.07.055 0 .055v.056c.101.024.061-.095 0-.111zM23.557 37.238v-.111c-.078.018-.184.154 0 .111zM24.221 37.685h-.166v-.059c-.162-.082.131-.185-.168-.164-.104.003-.04.081-.054.164h.108v.059h-.108l-.058.22c.142.004.086-.053.111-.059l.334.059.001-.22zM23.664 37.685l-.219-.059h-.058v.112h.058l.111.166c.169.062.083-.132.108-.219zM26.706 38.011c-.114.009-.038.028-.059.11h.168c-.086-.042.142-.119-.109-.11zM23.388 38.178c.041.032.051.249 0 .276h.169l.058-.056v-.277l-.058-.051-.169.108zM23.887 38.07h-.054l-.058.107h-.111v.166h.061v.055l.108-.055v.11h.108l.113.167.108-.057v-.333h-.167v-.161h-.108zM23.498 38.785v-.055c-.084-.02-.155.182-.053.111v.054c.219-.043.118-.136.053-.11zM23.498 38.951l-.053.108h-.058l.058.115h.111v-.06c.043.027.134-.191-.058-.163zM23.833 39.5c-.105 0-.04.086-.058.17h.111c-.013-.084.048-.17-.053-.17zM23.833 39.835l-.058.057h-.111c.099.023-.18.104.223.11-.014-.075.047-.178-.054-.167zM23.996 39.947c-.109 0-.035.032-.055.11 0 .001.493-.11.055-.11zM22.672 45.467h.061l.052.166h.11v-.166l-.051-.013v-.043h-.06v-.054l.06-.054h.051v-.059l-.162-.053c-.028-.134-.063.245-.061.276zM22.844 45.685l-.06.058c-.127-.105 0 .217 0 .217h.11c-.004-.043.032-.334-.05-.275zM23.337 46.185v-.226c-.149.065-.26.332 0 .226zM22.95 46.845h-.279l.061.112h.162v-.054c.192.029-.066.002.056-.058zM22.572 43.872c-.122-.059-.069.108-.082.156 0 0 .192-.096.082-.156zM22.49 43.4c-.123-.06-.069.105-.081.156 0 .001.197-.1.081-.156zM25.405 40.881c-.137.027-.218.232 0 .154 0 0 .234-.208 0-.154zM25.717 40.483v.244h-.078s.025.521.078.229l.086.078c0-.175-.029-.375 0-.552l-.086.001zM25.405 40.171c-.051-.041-.177.158 0 .158v.154c.195.143 0-.312 0-.312zM23.827 39.146c-.064-.022-.314.238 0 .156v.161c.272.075.156-.27 0-.317zM22.334 37.886v-.316c-.132.063-.18.462 0 .316zM22.741 37.672c.023-.079-.069.016 0 0zM23.594 40.329h-.081v.076h-.154l-.082.161h-.157v-1.499h.08v-.473h-.08c-.028-.237.009-.463 0-.709h.08l-.08-.789-.155.08v.16h-.16c-.035.067 0 .227 0 .316l-.063.019-.011.061c-.042-.033-.187-.174-.24-.163v-.156l-.156.079c.014.066.156.161.156.161.067.19 0 .5 0 .704h-.081v.158h.081c.03.138 0 .328 0 .475h-.081c-.042.375.121.901 0 1.26-.005.022-.125.034-.158.155h.158l-.075.63h.075v.475h-.075v.077c.085.046.077.035.075.158l-.075.082h.075c.024.147 0 .318 0 .468l.07.019.011.063.082-.082c.279-.058-.107.019.072.082h.239v.155h-.08v.157h-.073v.083h-.086v-.24h-.155c-.025.078.067.194-.081.157.026.177 0 .373 0 .557h.081c-.048.223.191-.072.082-.162.017.002.34.028.231.081l.16.081v.074h.075c-.019.012-.061.205-.235.159v.238h.08v.311l.155.08c.026.131 0 .26 0 .393h-.075v.161h.075c.029.121 0 .265 0 .392h-.075v.079c.147.076.059.334.075.552h.08c.104.051-.089.022-.08.237.08 0 .252.032.319 0 .038-.027-.059-.248.072-.316v-.079h-.072v-1.025h.072v-.077c-.068.059-.169-.47 0-.47-.006-.101-.189-.301 0-.397v-.236h-.154v-.074l.154-.081v-1.025h.082v-.076c-.074.061-.158-.477 0-.477-.005-.091-.186-.3 0-.395l-.082-.465h.082v-.161h.081l.002-.239zM22.804 37.097c-.095.022-.134.266 0 .24 0 0 .217-.299 0-.24zM22.572 37.257h.072v-.236l-.154.076c-.034.083 0 .225 0 .316h.082v-.156zM24.855 32.608c-.125-.057-.073.11-.086.156.001.001.196-.099.086-.156zM23.513 32.847h.081v-.082l.314-.076c-.007-.054.032-.32-.081-.237v-.078l-.158.078v.157h-.156v.238zM24.41 32.284l.082.042.057-.165c.107.041.106-.154-.109-.114-.088.021-.059.092-.059.172v-.006c-.119-.057-.072.11-.078.16l.107-.089zM23.908 31.981c-.115-.062-.072.303-.081.392l.158-.081c-.002-.011-.144-.29-.077-.311zM24.303 31.744v.152h.078l.078-.232h-.078v-.237h-.237c-.009.042-.147.049-.235.078.032.103 0 .208 0 .313.07-.004.218.182.156-.073l.238-.001zM23.669 31.427h.239c-.106-.06.176-.17-.158-.156-.146.002-.054.059-.081.156zM24.381 31.271h.149c-.025-.174.066-.248-.071-.316v-.079c-.134-.066-.049.066-.078.079-.16-.134 0 .316 0 .316zM25.717 29.773v-.078l-.312-.079c-.091-.017-.144.079 0 .079v.078c.095.032.206 0 .312 0zM22.964 31.271v.079h.075v.234l.08.08-.155.08c-.012.247 0 .458 0 .707l-.08.006v.07c.08-.051.296 0 .393 0 .015-.213 0-.408 0-.631h.082c.004-.143.023-.323 0-.47h-.082v-.235h.082v-.316h.072c.037-.208-.076-.63.082-.707v-.076c-.088-.048-.099-.021-.082-.16h.082v-.158h-.082v-.078h.082l.081-.396h-.081v.083h-.313l.077.078v.313h-.077v.233h-.08v.238h.08c.019.124.023.348 0 .474h-.08v.235h-.08c-.041.148.088.28-.076.317zM24.602 30.512l.013.042-.013-.042zM24.77 29.22c-.071-.037-.103-.032-.071-.156h.071c.026-.295.21-.466-.071-.63h-.082c-.031.127-.031.249-.086.394h-.149c-.027-.008.033-.181-.078-.081v.241l.156.076v.156c-.202.036-.261.021-.395.08l.007.061.072.022v.233h.077c.015.207-.104.11-.077.235h-.158v.155h-.077c.053-.167-.133-.003-.158 0l.077.085-.002.063-.075.014v.394c.246-.031.097-.091.235-.078v.078h.158v-.078c.109 0 .29-.038.387 0l.071.028.015-.267h.082v-.077l-.317-.076c.029-.057.033-.311.149-.24v-.235h.168l-.082-.233c-.001-.001.267-.109.153-.164zM24.616 30.562l-.002-.008-.023.009.025-.001zM24.071 29.36zM24.591 30.563zM25.405 28.514v-.08c.138.026.063-.106-.078-.078l-.023.003-.058.075c-.172.132-.003.068.159.08zM25.304 28.358c-.03-.031-.209.035 0 0zM24.77 28.201c-.113-.063-.063.104-.071.154-.001 0 .185-.101.071-.154zM24.855 27.962c-.074.015-.165.189 0 .155v-.076h.071l-.071-.079zM25.954 27.726c-.069.018-.163.187 0 .159v-.081h.079l-.079-.078zM26.033 27.254c-.099-.032-.145.393 0 .393l.076-.393h-.076zM26.109 26.543c-.083.022-.133.264 0 .24 0 0 .215-.296 0-.24zM24.381 26.939h-.078v.073h.228v.159h-.149c-.015.189.041.448 0 .632-.006.004-.072.031-.078.158l.156-.077v-.238h.071v-.081l.168-.078s.115.231.229.159l-.068-.356c-.222.038-.387.043.068-.118h.239v-.078c.09-.004.084.095.317.078v-.232h.082v-.156h.073c.078-.195.025-.189.164-.318.051-.056-.137-.109-.086-.236h.086l.151-.233-.471.075v.158h-.156l-.081.236h-.08l-.156.236c-.099-.037-.211 0-.312 0v-.236l.229-.158v-.078h.239c-.063-.09-.051-.104-.156-.158v-.075l-.24.075v.077h-.153l-.086.396h-.149c.02.008-.001.347-.001.394zM24.855 27.254l.003.036c.272-.048.624-.14-.003-.036zM25.803 25.833v-.076c.063-.034.158 0 .23 0v-.234h-.079v.078c-.063.008-.138-.064-.08-.078-.144.013-.251.346-.071.31zM26.109 25.127c-.12-.062-.063.111-.076.155 0 0 .192-.101.076-.155zM23.276 28.91c.178-.089-.022.137 0 .153h.082l.072.156h.163c.033-.26 0-.71.156-.786l-.081-.157h.081c.011-.138-.054-.053-.156-.075v-.16h.075v-.079h.158v-.396l-.077-.01v-.068l.077-.078h-.077s.061-.221.077-.076v-.239l.158-.081v-.073h-.077l.077-.633s-.21.003-.077-.078l.235-.081c-.063-.425-.063-.655 0-1.099l-.316.156c-.074.209.12.216.081.396h-.081l-.077.156h-.081v.159h.081l-.081.627h-.075l.075.158h-.075v.155l-.235.083c-.031.107 0 .2 0 .314h.154l-.082.155h.163l.023.069-.172-.011c-.108 0-.033.036-.058.112l.191-.056-.066.041c-.094.166-.054.369-.082.636l.082.075h-.082l-.072.394h-.159c-.047.162.114.134.078.241zM25.874 25.049h.08v.078c.141.062.06-.1.079-.161l-.159-.078c-.194-.087 0 .161 0 .161zM24.459 25.282v.24h.071v-.164h.168c0 .144-.031.339 0 .475l.157-.076v-.156c.049-.031.18-.013.268-.005-.042.237-.049.422.123-.073l.081-.396c-.161-.094-.127.078-.161-.161l-.239-.078-.229.161v.233h-.239zM24.235 24.899l.067-.012-.031-.143.109-.171h-.078v-.313l-.067-.021-.015-.06h.082c.004-.007-.041-.168.078-.075-.015-.007-.027-.339-.078-.08h-.159v-.082h-.079c-.018.189.073.321-.079.399-.099.047.086.003.079.231h-.156c-.075.052.061.222.077.156v.082h.235c.114.042.063.071.015.089l-.015-.012c-.122-.06-.063.113-.077.161.001.001.164-.092.092-.149zM26.266 24.654c-.111-.058-.062.109-.07.158-.001.001.185-.098.07-.158zM25.246 21.501c.074.06-.094.337.159.24l.078-.316-.237.076zM25.483 21.029c-.117-.031-.117.079 0 .079v.08c.156.031.068-.14 0-.159zM30.538.257zM26.113 28.065l-.297.056.058-.004.011.021.225-.021.003-.052zM25.051 37.257zM33.438 5.354c.008-.155.083-.155.083-.155.021-.127.006-.27-.083-.316l.083-.158h-.083c.034-.146.103-.205.083-.394h-.083v-.236h-.074v-.315c-.023-.037-.215-.012-.242-.079-.068-.169.018-.412-.077-.551l-.158-.079c-.034-.113.01-.119.078-.158v-.075c-.134-.069-.057-.141-.078-.316h-.078v-.315l.078-.079c-.135-.06-.044-.075-.078-.233h-.16v.081l-.083.005c.061-.013.15-.038.01-.086h-.157v-.076h.23v-.165l-.23-.158-.082-.314h-.155l-.079-.158-.235-.077.081-.16h-.164v-.078h-.152l-.082-.158c.136-.071.114-.17.156-.314-.153-.06-.244.107-.31.078l-.085-.313h-.312v.076c-.111 0-.308-.039-.396 0v.159l-.064.021-.01.057h-.079v.16c.114 0 .192-.028.313 0 .029.138 0 .327 0 .473l.153.077c.033.13-.077.059-.153.076l.076.159h.237v.084l.162.074v.237l-.162.074v.087c-.1.029-.233-.06-.313 0v.157h-.082l-.077.152h-.153v.155h-.157v.16h-.083v.158h-.081l-.155.237c-.114.069-.232.038-.391.075v.081h-.319l-.078.156h-.152v.155l-.395.084-.164.237h-.239v.074c-.172.089-.049.289-.153.395h-.078v.078h-.156c-.043.082.017.218 0 .315h-.08l-.076.474h-.084v.315h-.08v.238h-.073c-.037.144.018.32 0 .472h-.08v.394h-.082l-.075.629h-.077v.553h-.084v.153h-.072c-.084.286-.015.494-.084.79h-.072v.237h-.083v.393h-.082l-.074.552h-.08c-.075.277-.023.352-.075.632h-.166c-.023.105.098.071.085.235h-.085c-.041.41-.016.549-.07.944h-.086c-.015.122.047.286 0 .396l-.155.078c-.023.137-.003.193.079.237v.078c-.153.07-.046.36-.079.552h-.08v.237h-.071c-.037.173.014.371 0 .547h-.086l-.078.868h-.073v.475h-.082v.234h-.078c-.02.122 0 .266 0 .396h.078c.017.17-.035.107-.078.235 0 0 .201.015.078.075h-.078v.085c.071.028.107-.057.078.077l-.156.074c-.084.211-.023.309-.081.554h-.08v.314h-.073c-.072.341.012.664-.083 1.023h-.083v.161h-.071v.234h.154c.041.131.017.418 0 .551h-.083l-.071.396h-.086l.086.08c-.042.303-.051.474-.086.866h-.071l.071.231h-.071l-.011.062-.071.019c-.131.063.082.082.082.082l-.016.057-.066.02c0 .078.032.164 0 .236h-.086v.159h-.071l.071.08c-.011.161.047.175-.071.232v.081c.003 0 .187.102.071.159h-.071v.079c.069.034.105.034.071.156h-.149c-.04.192-.018.31-.078.477h.038l.04.076.149.077v.076h-.228c-.041.134.004.044.078.077v.163l-.16.076v.161h-.077v.076h-.158l.079.315c.093-.025.158-.139.316-.078v.157l.149-.079c.075-.189.019-.719.168-.792.008-.005-.097-.148-.082-.23h.082v-.313h.071c.026-.124 0-.124-.071-.161v-.078h.071c0-.174-.029-.383 0-.552h.086l.071-.473h.083s-.043-.215-.083-.081v-.154l.166-.082v-.233h-.083v-.078h-.083c.127.058-.071.078-.071.078v-.157l.311-.076v-.238c.211-.083.211.122.399.079v.396h-.082v.153h-.156v.238c.019.006.385.094.39.078l.086.081v.156h-.086v.16h-.078l-.073.473h-.16c-.039.097.115.068.078.235l-.156.078c0 .077.033.339 0 .398h-.234l-.083.229h-.083v.162c.049 0 .213-.028.239 0v.154c.072-.022.103.048.161.077.044-.04.039-.184.156-.153v.237c-.028.076-.209.049-.317.076.247.035-.071.132-.073.162v.153h.153l.078-.027.003.182h-.081l-.08.237c-.131-.005-.232.385.08.237v.08c-.104.031-.211 0-.319 0 .023.071-.048.198.083.159l.083.393h.073v-.319h.08l.081-.313h.238c.099-.208 0-.718.073-.944h.164v-.237h.071l-.071-.076v-.24c.101 0 .297.042.393 0-.024.194.043.437 0 .633h-.086l-.076.315h-.079l.079.158c-.072.033-.117-.054-.079.078h.079v.158l.162.155h.155v-.075c-.18.068.014-.399 0-.475 0 0-.101-.041-.085-.157h.085v-.158h.081l.075-.556c.167 0 .385.039.548 0-.045.336.014.564-.072.871h-.084v.158h-.155v.154h.155l-.072.317h-.083l.083.232h-.165v.081c.17.083.023.439.082.475h-.082v.233h-.074l.074.24h-.074v.394h-.08c-.027.184 0 .438 0 .627h-.075c-.025.163.04.391 0 .551h-.166v.315h-.07v.156h-.086l.086.238h-.086l.004.262c.179-.016.293 0-.08.136-.082.022-.13-.034-.148-.063l-.082-.003-.086.066v.154c.103.025.149.137.316.078l.076-.028v.422h-.076v.789h-.079v.079h-.151c-.025.095.101.112.151.156v.24h-.08v.153h-.071c-.065.211.002.486 0 .709h-.086s.073.225.086.08c-.035.102.061.162-.086.157v.079c0 .234.108.292.086.547h-.086v.317h-.151c-.014.061.127.379.151.393h-.078l-.073.554h-.082c-.021.127 0 .269 0 .396l.082.076h-.082v.235h-.078v.398h-.078c-.037.26 0 .521 0 .784l.078.078-.159-.078v.315h-.08l.08.317h-.08v.468h-.073v.477h-.083l.083.316-.166.075s.063.231.083.081c.025.076.028.224.083.236h-.042c.042.008.054.031-.041.08-.017-.148-.083.076-.083.076h.083c0 .167.033.384 0 .553h-.154v.392h.154v.158c-.043-.127-.083.079-.083.079h.083v.158h.083v.156h-.083v.313h.083c.005.142.012.192-.083.241v.074l.156.083v.078c-.216 0 0 .076 0 .076l.08.159v.08l.065.043.016.03h.156v-.153h.082v-.471h.073v-.161h.235v.082h.08v-.162h-.237l.086-.232c.014-.02.245-.021.307-.081v-.234h.086v-.159h-.086v-.237h.086v-.157h.07v-.235h.085l-.085-.079v-.394h.166c.016-.187-.045-.366 0-.549h.075v-.238h.08c.025-.245-.127-.234-.08-.394h.154c.073-.217 0-.289.165-.394.06-.052-.165-.314-.165-.314l.165-.078v-.236h.156c.04-.223-.025-.33-.156-.393v-.084h.072v-.31h.084l.02-.061.053-.021v-.155h.084c.028-.125 0-.119-.084-.159v-.081c.192-.093.012-.15.084-.312h.152v-.24h.082c.031-.115-.108-.054-.082-.237h.082l.08-.232c-.08-.043-.105-.032-.08-.16h.08v-.237h.073v-.314h-.073v-.16h.073c.018-.083-.135-.458-.153-.548h.233c.037-.115.151-.138.16-.155.037-.105 0-.284 0-.396h.156l.08.08s.108-.145.164-.159c-.013-.156.019-.183-.086-.235v-.078c.073-.037.121-.116.086-.235-.064-.176-.152.186-.086-.081l.238-.153s-.177-.252 0-.16v-.08l-.071-.012-.014-.066h.085v-.157c-.113-.062-.196.043-.152-.155h.152l.078-.474h.076v-.241h.083c.029-.122 0-.254 0-.391l.074-.012.007-.067-.081-.075h.081c.006-.155-.044-.332 0-.476h.075l.023-.057.057-.022v-.159h.076v-.475h.079l.084-.393h.079v-.155h.073l.078-.708h.08v-.156h.077l-.077-.078c0-.307-.041-.645 0-.948h.077l.082-.154-.082-.239h.082v-.313h.08c.025-.149-.049-.327 0-.469h.151c.031-.128-.123-.063-.078-.238l.161-.084c.042-.104 0-.271 0-.394h.074c.023-.229-.017-.475-.074-.628h-.083c-.037-.164-.138-.096-.151-.158-.034-.079-.022-.385 0-.472h.073v-.077l.473-.396v-.081h.164c.059-.129-.028-.402 0-.548h.073l.084-.711h.079v-.473h.074v-.313h.077v-.396h.082v-.234h.076l-.076-.237h.076v-.156h.077c.033-.136-.005-.046-.077-.081l.007-.066.07-.014v-.391l.239-.079v-.027c.12.069.195.079-.079-.133h-.077v-.155h.077c.049-.297.018-.524.079-.787h.083v-.237h.073c.085-.39.039-.625.085-1.021h.073c.046-.169-.063-.169.08-.239.025-.015-.108-.14-.08-.233h.08v-.16h.082v-.238h.152c.027-.126-.152-.145-.152-.155v-.081h.074c0-.137-.039-.335 0-.471h.078l.083-.313h.081v-.473h.071c.061-.286.038-.354.083-.632h.079c.027-.203-.042-.433 0-.63h.072v-.319h.083v-.231h.082c.059-.244-.008-.342.073-.553h.084v-.156h.073l-.073-.318h.073v-.47h.08c.06-.285.036-.345.08-.63h.078v-.315l.158-.075-.08-.159h.08c.043-.406.023-.576.077-.946h.08l-.08-.311h.08l.076-.475h.086v-.471h.074v-.319h.083l-.086-.08zm-6.612 16.701c-.205.099-.12.287-.165.313h-.229c.028-.163-.054-.247.075-.313v-.078h.319v.078zm-.165-.947l-.074-.079.074-.236h.082v-.076c-.276 0 0-.162 0-.162l-.082-.153c.096-.058.17-.078.165-.237h-.083v-.238s.143-.06.155-.155l.317.076v.237h-.161s-.006.623.084.317v.153h-.156c.022.116.112.262.072.397 0 0-.142.057-.156.156h-.237zm.63.788l-.048.003c.041.005.075.026-.027.077-.011-.086-.084.118-.077.155h.077c0 .043.029.29 0 .321h-.077v.076c-.03.005-.351-.006-.24-.076-.142.106 0-.321 0-.321h.084v-.312h.072l.084-.319h.152v.081c.082-.199.021.203 0 .315zm.235-3.938l-.153.237c-.377.155-.192-.24 0-.315v-.078h.153v-.081c.251-.09.089.176.164.237h-.164zM25.803 28.135l.014-.014-.014.014zM29.733 1.417s.196-.514-.078-.317c-.131-.079-.209.366.078.317zM29.816 1.023h.156c-.021-.12.059-.237-.082-.237-.137 0-.055.117-.074.237zM30.209.786c.02-.081.131-.28 0-.236-.153.048-.252.306 0 .236z"/></g><g fill="#2B4891"><path d="M35.428 17.917l-.052-.11c-.088-.005-.068.073-.113.11h.165zM39.453 16.599v.042-.042zM40.71 16.727v-.051.051zM36.073 17.487zM44.492 23.53h-.079v-.315h-.081c-.017-.159-.033-.394 0-.555h.081v-.238h-.081v-.152h-.082l-.076-.237c.068.115.076-.078.076-.078h-.076v-.159h-.076l-.156-.234h-.079v-.158h-.083c-.03-.182.111-.124.083-.237h-.156v-.156c-.203-.134.05-.093.073-.077.186-.095-.211-.078.083-.078 0-.088-.041-.25 0-.32h-.156v-.075c-.315-.158.205.069-.083-.158h-.156v-.156l-.158-.079c-.061-.128.016-.538-.155-.475-.043.01.081-.236.081-.236h.074l.075-.154h.083c-.056-.175-.092-.082-.232-.161l.074-.313c.095-.025.172.07.158-.079h-.083v-.157l-.149-.077v-.157h-.081v-.318l.155.083.158-.237-.232-.083v-.078l-.396-.313v-.079h-.239v-.077h-.161v-.081h-.392l-.075-.158c-.106-.041-.287.022-.4 0v-.079h-.229v-.078c-.19-.036-.444 0-.635 0v-.028l-.076.028h-.239l-.078.045v-.045h-.241v-.079c-.184-.04-.438 0-.622 0v-.035l-.086.035c-.248.088-.668 0-.941 0v.079c-.284.02-.577 0-.866 0v.078h-.238c-.055.022-.044.132-.077.237h-.234v.237c-.222.067-.405-.058-.559-.079v-.077h-.156v.077l-.151.079v.158l-.07.021-.016.057c.053.02.137-.033.086.076l-.237.078v.237l-.157.083c-.033.065 0 .154 0 .235l-.063.024-.016.049h-.239v-.073h-.16v-.081h-.231l-.076-.154c-.191-.058-.371.03-.555 0v-.083c-.175-.049-.295-.044-.477-.077v-.077c-.165-.038-.377.021-.547 0v-.083h-.394v-.078h-.24v-.076h-.234v-.078c-.123-.032-.337.012-.477 0v-.082c-.134 0-.25.02-.392 0l-.15.236h-.08v.161h.155c.051.132-.048.144-.075.237l.309.235-.073.549h-.085v.396l.158.08v.154h-.073l-.085.156h-.23l-.085.554h-.156l-.081.156h-.159l-.081.39c-.094.088-.27.031-.391.082l-.076.16-.317-.078v.078c-.161.074-.201.199-.314.313l-.236.157c-.023.086-.025.39 0 .477l.236.153v.156h.08c.025.141 0 .328 0 .472h-.08v.396l.396.079v.08h-.243v.153h.318v-.077h.236v.077h.236v.084h.235v.155h.239v.079h.239v.08h.155v.078h.16l.073.235.319.239v.156h.153l.081.238h.156l.08.155h.154l.164.232h.152v.087h.081l.073.153h.163l.155.239h.158l.158.23c.125.032.262 0 .398 0v-.08l.626.08v-.08c.147 0 .329-.023.473 0l.077.241h.626v.078c.104.016.228-.045.323 0l.15.234c.207.016.351-.17.479-.234v-.078c.129-.034.561.033.625.078l.082.156.628.078.081.161c.094.034.28 0 .396 0v.075c.187.009.242-.044.394-.075v-.083h.312l.079-.078v-.234h.081v.081c.133.035.041.029.075.153.116 0 .295-.042.399 0v-.063l.075-.015c0-.151-.017-.32 0-.476.081.015.157.164.157.164.013 0 .506-.064.549-.084l.162-.23c.104-.034.271 0 .391 0v.077l.237-.077v-.239c.15-.06.395.013.552 0v-.076h.785l.025-.061.058-.017c0-.078-.043-.267 0-.319h.23l.02-.057.063-.023v-.157l.396.082s.058-.146.153-.161l.082-.473h.076v-.158l.318-.077.007-.314z"/></g><path d="M8.968 42.815h-2.779v-8.074h-3.252v-2.069h9.279v2.069h-3.248v8.074zM43.096 34.741h-4.757v1.872h4.448v2.045h-4.437v2.072h4.797v2.085h-7.494v-10.143h7.443v2.069zM46.912 32.672v10.144h-2.788v-10.144h2.788zM24.95 32.672v10.144h-2.79v-10.144h2.79zM29.146 42.815h-2.699v-10.143h4.509c1.521 0 2.267.166 2.922.669.683.52 1.077 1.448 1.077 2.514 0 1.325-.534 2.377-1.419 2.818-.693.333-1.394.455-2.857.455h-1.532v3.687zm.761-5.577c1.556 0 2.097-.336 2.097-1.321 0-.901-.518-1.264-1.814-1.264h-1.043v2.585h.76zM13.236 40.836l-.773 1.979h-2.765l4.424-10.144h3.26l4.539 10.144h-3.083l-.834-1.979h-4.768zm2.356-6.001l-1.597 4.021h3.21l-1.613-4.021z"/><g fill="#ECDA24"><path d="M14.598 28.857c-.131-.03-.068.216-.081.313h.157l-.076-.313zM14.598 28.382v-.077c-.081 0-.174.238-.161.319h.08v.156l.157-.08v-.24l-.076-.078zM14.361 27.675s.143.293.075.316c.237.05.2-.21.08-.156v-.237c-.113-.089-.07.071-.08.077h-.075zM14.361 24.292h-.082v.156h.157c-.019-.142.069-.281-.075-.315-.142-.036-.101.077 0 .077v.082zM14.517 20.352v-.239c-.124-.06-.07.168-.08.239h.08zM14.517 19.482c-.134-.025-.064.139-.08.237h.161l-.081-.237zM14.517 17.516h.157l-.076-.16c.15-.074.125-.212.096-.243l-.096.088c-.169.128-.02.101-.081.315zM14.674 17.123l.02-.015-.02.015zM21.132 12.475c0-.476.048-.95 0-1.421h-.078v-.547h-.075v-.16h.075c.021-.12-.075-.154-.075-.154v-.635h-.079l-.083-.393-.155-.078v-.159h-.083c-.046-.16.027-.384 0-.549h-.074l-.079-.712h-.081v-.313h-.077v-.235h-.081c-.017-.1.044-.232 0-.313l-.316-.24-.075-.154h-.157v.078l-.237.076c-.036-.134.052-.336 0-.47-.025-.06-.18-.045-.237-.081v-.072l-.236-.163-.312.079.074.237h.082v.156h.083l.072.159h.162l.074.154h.081v.16h-.155l-.082-.16c-.152-.054-.38.006-.47-.076 0 0-.045-.283-.083-.315h-.156v.078l-.237.158v.154h-.237v.16h-.079v.08l-.394.313v.077h-.08v.158h-.156v.079l-.157.076v.082c.041-.12.078.078.078.078l-.159.078v.241c.247.011.286-.045.474-.079l-.08.628h-.076v.317h-.08c-.032.096-.005.175-.078.234l-.239.078v.159c-.111.075-.172.035-.313.075v.083h-.16l-.072.312-.164.077v.16h-.072v.161h-.086v.231h-.079v.159l-.053.022-.02.056h-.08v.393h-.077v.159h-.082v.238l-.158.077v.393h-.079v.155h-.08c-.06.261.02.42-.076.635l-.157.077-.079.155h-.074c-.052.133.074.162.074.162.008.053-.049.274-.074.392h-.084v.08c.132.063.038.068.084.235h.074c.023.113.008.276 0 .396h-.074v.234h-.084c-.039.185 0 .44 0 .63h-.077c-.02.164.077.315.077.315h-.077c0 .348.063.766 0 1.103h-.076v.236c.063.025.219.032.237.074.033.134-.013.048-.084.085l.016.056.068.022-.084.159.158.077-.074.155h-.084c-.058.172.016.457 0 .63-.224-.015-.138-.089-.314 0l.008.063.072.019c0 .149-.017.314 0 .471.084-.034.112-.136.234-.081v.165h.084v.153l-.161.082c-.037.123.012.117.077.154l-.077.238h-.076c-.063.029.15.147.153.156-.033.017-.058.524 0 .551-.422-.026-.174.249-.077.235l-.076.081.004.057.072.021v.23c-.013.012-.313.05-.157.166h.081v.157h.07700000000000001l.077.156-.077.155h-.237v.236h.161v.16h-.081c-.104.08-.107.103-.08.109v.125h.161l.076.318-.076.153c-.075 0-.178-.032-.236 0v.158c.139-.023.153-.08.39-.08-.065.142-.039.221-.077.396h-.157v.234h-.08v-.234c-.017.012-.324.215-.075.234l.025.096.13.063c0 .116-.037.287 0 .393h.157v.161h-.157v.153c-.147.022-.002-.192-.237-.153v.153l.05.028.032.133.155-.079v.234l.157.082v.078l-.076.078h-.081c.019.087.116.273.081.392h-.081v.161c-.053-.035-.093-.105-.155-.081-.051.229-.013.296-.082.549.087.057.082-.143.237-.08l.081.243h.076c.126.046-.157.152-.157.152.031.111.12.077.081.236h-.081v.316s-.099-.03-.08-.159c-.141 0-.098.432 0 .394 0 0 .038-.271.08-.155l.016.054.065.023-.014.33-.024-.021c-.105 0-.045.144-.06.225h.109l.011-.141h.054v.475h-.076v.082l.153.548v.074l-.077.161h-.076c.012.068.153.155.153.155.046.128 0 .337 0 .476l.079.01.005.066h-.084l.084.161-.084.075h.084c.048.213 0 .357.074.557h.079v.154h.088c.032.126-.023.044-.088.076l.088.084v.155h.069v.315l.235.079.08.235.16.078c.031.098-.098.347 0 .394l.077.081c.006-.035.193 0 .231 0v-.157h-.079l.079-.081v-.314h-.079v-.147h-.072v-.318l.31.082.083.236.153.079v-.237h-.072v-.16l-.064-.017-.017-.06c.043-.024.129.029.081-.079l-.236-.155v-.16l-.165-.08v-.152h.474c.026.005.077.2.318.152v-.074l.155-.078v-.16c.128.006.277-.027.397 0 0 0 .033.121.156.077l.079-.077v.077h.16l.077.161h.077v.154h.241l.075.16h.235l.083-.314h.073c.047-.117-.122-.067-.073-.238l.156-.08c0-.158-.059-.407 0-.551l.234-.157c.035-.107 0-.274 0-.396l.071-.01.012-.068-.083-.075h.083s-.058-.129-.083-.086l.083-.074v-.156l.322-.06.067.06c.103-.073 0-.348 0-.474h.156l.072-.154h.165c.031-.082 0-.306 0-.398l.072-.013.008-.063h-.08v-.082h.08l.077-.474h.075c.023-.133.01-.195-.075-.235v-.081h.075c.013-.149-.035-.325 0-.473h.079v-.15h-.079v-.475h.079v-.947h.082c.015-.273-.082-.299-.082-.472h.082l.073-1.971h.082c.033-.365-.025-.732 0-1.101h.081v-.161c-.012.146-.081-.077-.081-.077h.081v-.943h.077c.011-.009-.089-.155-.077-.234h.077c.06-.41.033-.606.081-1.029h.079v-.551h-.079c.067-.055.028-.149.153-.154 0-.328-.046-.693 0-1.027h.083l.078-.63h.077c.083-.576.023-.985.083-1.574h.079v-.631h.075v-.786l.08-.001zM15.798 10.605c.034-.108-.104.035 0 0zM14.602 20.33zM14.532 26.47zM14.767 16.941zM18.842 28.295zM14.387 23.123c-.167-.047.033.196 0 0zM19.709 26.796zM14.444 18.049z"/></g><g fill="#D01125"><path d="M7.384 16.646v.057h.102c-.007-.09.054-.217-.051-.221-.129-.014-.137.237-.051.164zM7.212 16.923v.056c.156.02.191-.155 0-.168-.062-.01-.109.112 0 .112zM7.115 17.471v-.056c.035-.031.187-.074.057-.113l-.057-.111h-.331c-.097.013-.043.133-.057.225l.388.055zM7.05 22.502c-.107 0-.047.084-.061.161h.111c-.01-.077.05-.161-.05-.161zM8.139 15.938l-.082-.155c-.122-.026-.061.086-.075.155h.157zM14.437 21.216v-.233l-.157-.078c0-.117.054-.377 0-.476h-.157v-.077l-.231-.159v-.157l-.242-.078v-.237l-.316-.237v-.076h-.151v-.077h-.163v-.079l-.235-.158c-.053-.085.023-.222 0-.316h-.08l-.079-.318h-.075v-.236h-.083v-.153h-.076v-.239h-.08c-.047-.188-.005-.236-.079-.391l-.233-.16v-.238h-.083v-.075l-.239-.078-.073-.159h-.158v-.076h-.158l-.081-.16h-.154l-.079-.159-.316-.075-.08-.16h-.236v-.078l-.233-.08v-.076h-.233l-.083-.236h-.239l-.233-.316h-.233v-.075c-.137 0-.263.024-.394 0l-.157.075v.079c.2-.14 0 .237 0 .237-.08-.04-.114.057-.082-.083h-.161c-.053.08 0 .309 0 .396l-.156.08v.078c-.24.043-.233.013-.395.081l.154.313h.24v-.08c.092-.005.074.08.312.08v-.234s-.169-.089-.08-.16l.394-.078v.078h.161v.081c.12.063.18.199.311.233v.159c-.146 0-.324-.022-.472 0l.079-.393h-.154c-.035.109-.029.414-.084.55h-.155v.159h-.237c.029.167 0 .376 0 .552.107.059.192-.049.157.154l-.231.079v.236l-.055.021-.027.057h-.159c-.079.127.136.196.083.235h-.162l-.004.063-.071.017c0 .082.03.245 0 .322-.23-.017-.261-.036-.473-.084v.084h-.156v.153s.269 0-.083.082v.073h-.233v.081l-.63.08v.075h-.236l-.083.239h.159l.078.158c.165-.137.137.146.161.155l-.161.156-.237.081v.316l.237.078v.159l.161.071v.239l.227.083v.156h.085v.075l.154.08.085.236h.08v.24h.153s.112.444 0 .233v.078h.239v.08h.075v.158l.159.076c.058.141-.055.168.08.239v.08h.313v.074h.158v.161l.476.075.157.238h.235l.077.158c.162.041.389-.063.548 0v.158h.239v.076h.083v.082h.153l.08.155h.233s.057.175.157.159c0 0-.065-.225.159-.159v.077l.316.082.079.157h.235v.077h.236v.082l.099.015c-.055-.015-.155-.046-.019-.097h.232v.082c.089 0 .226-.038.319-.082 0 0 .167-.2.236-.234v-.082h.159v-.077c.15-.027.15.074.154.077h.155v.082c.22.028.214-.097.396-.082l.077-.391h.084v-.158h.075v-.158c.04-.058.178-.045.239-.077v-.082l.16-.079v-.155l.231-.081v-.235h.077v-.158l.162-.076c.059-.133.113-.54.075-.55h.161v-.24h.153v-.157c-.07-.065-.257-.039-.307-.078z"/></g><g fill="#34AA37"><path d="M24.717 19.24h.11c-.014-.079.044-.165-.06-.165-.1 0-.037.086-.05.165zM24.827 24.265l.055-.111h.056c-.022-.077.055-.302-.11-.217h-.06v.217c-.085-.034-.085.18.059.111zM24.656 24.651c.011.003-.02.126.061.056.014-.014.248-.548.051-.385h-.051v.222l-.111.053c-.001 0 .018.153.05.054zM25.648 24.544v-.057c.068.028.102-.057 0-.057v-.055c-.083.007-.083.16 0 .169zM25.987 24.376c-.103 0-.162.182-.056.111v.057h.168c-.099-.085.1-.168-.112-.168zM24.717 24.984v-.056c.064 0 .097-.08 0-.056-.061.016-.107.133 0 .112zM25.262 25.869l.063-.112s-.201-.002-.063-.057l-.046.109c-.112-.019-.052.097.046.06zM25.543 25.81v.06h.055v-.169c-.098-.004-.16.186-.055.109zM24.163 28.017h.108c-.006-.088.05-.275-.051-.273-.109.005-.035.032-.058.108-.078-.058-.036.154.001.165zM24.221 28.295v.11l.103.055v.11h.226v-.554l-.057-.055-.111.055v.22l-.161.059zM22.95 30.67s.136-.071.056-.108c-.094-.05-.049.067-.056.108zM23.847 30.836zM23.833 30.836c-.158 0 .003.046.054.054l-.04-.054h-.014zM25.152 31.002l.049.011c.143-.069-.495.067-.049-.011zM24.992 31.222l.111.059.112-.059-.015-.209-.098.04c-.092.032-.281.044-.11.169zM22.95 31.497c-.01-.082.041-.217-.056-.217-.1 0-.051.135-.051.217h.107zM23.833 31.777c-.026-.109.028-.122-.058-.17v-.056l-.051.056h-.061c.011.076.016.334.061.17v.054l.109-.054zM23.614 31.991v.113c.201 0 .188-.146 0-.168-.087-.008-.087.055 0 .055zM24.648 33.335zM24.439 33.43l.217-.057-.008-.038-.043-.016v-.222h-.057v-.056c-.04.015-.09.104-.168.056l.059-.497c-.088-.022-.099.055-.116-.057h.169v-.107l-.221.054v-.054c-.019-.102-.108.107-.108.107l.058.057c.027-.1.082.083.051.167h-.108c0 .18-.034.428 0 .605h.058v.167h-.058l-.052.219h.27l.059-.162h-.059v-.111l.057-.055zM22.672 34.699h.112v.057h.06v.552h.051v.166l-.11-.054v.054l-.112.057v.166h.061v.221h-.061c-.002.099.061.107.061.107v.165h-.061v.168h-.052v.163l.224.057.051.108h.165v-.216c-.021.095-.054-.058-.054-.058-.034.101-.056-.055-.056-.055l.109-.057v-.218h.169c-.015.135-.071.214 0 .274h.159l.058-.168h-.058v-.106h-.051l-.061-.221-.159-.056c-.034-.07 0-.203 0-.276h-.058l.058-.393.111-.049h.159l.058.441.145.088-.033.299.058.107h.11v-.218l.051-.059c.084.068.05-.141.058-.162l-.169-.056v-.11l.111-.059v-.11l-.051-.054h-.061v-.108c.253 0 .169-.112.169-.112h-.169s-.037.09-.166.054l-.11-.167.169-.054v-.054h-.22v.107c-.032.016-.186.016-.22 0v-.054l.056-.054v-.165h-.056v-.167l.111-.054c.042-.113-.018-.268 0-.387h.048v-.271l-.217-.061v-.055h.217v-.277h.061l-.061-.057v-.165h.061c.025-.135-.046-.31 0-.442h.051l.058-.111h-.171c.063-.003.1.008-.046.057h-.223v.333h-.056v.108l.056.056h-.056v.113h-.056v.219h.111v.056h-.111v.227h.165v.047l-.216.111v.665h-.111v-.111h-.061l-.052-.11h-.113v.11l.113.057.053.221zM23.274 32.544zM23.833 33.319c-.108 0-.037.034-.058.11 0 .001.508-.11.058-.11zM24.549 33.54c-.059.013-.109.187 0 .172 0 0 .149-.21 0-.172zM22.62 33.759s.445-.107.052-.107c-.109-.001-.036.032-.052.107zM23.498 34.037v.056c.153.025.195-.149 0-.167-.06-.004-.11.111 0 .111zM23.775 33.926c-.101-.004-.148.181-.051.111v.056h.108c-.017-.089.055-.16-.057-.167zM23.664 34.424h-.107l-.059-.271h-.053c-.159.116-.063.199-.058.438.188-.012.11-.088.276 0 .118.055-.05.055-.05.055v.11h.219c0-.149-.02-.295 0-.442-.193.023-.107.079-.168.11zM24.055 34.923c-.014-.083.042-.224-.059-.224-.095 0-.042.141-.055.224h.114zM22.62 35.089v-.059h.052s-.091-.195-.052-.221c-.113.035-.178.388 0 .28zM24.221 34.81c-.109 0-.035.034-.058.113 0 0 .535-.113.058-.113zM24.717 34.863c-.111 0-.034.034-.061.113 0 .001.41-.113.061-.113zM24.163 35.03c-.178.076-.131.167-.222.331l.055.059h.115v-.059h.052c.008-.066.112-.384 0-.331zM24.055 35.53c-.129-.029-.153.218 0 .218v.059c.116.009.166-.251 0-.277zM23.388 35.807c-.083-.048-.042.065-.051.11 0 0 .134-.072.051-.11zM23.725 36.577l.051-.107h-.051l-.061-.058v-.223l-.037-.013-.013-.039h-.058v.163h-.059l.059.276.169.001zM23.388 36.521c.097.057.053-.125-.111-.108-.104.009-.035.081-.048.165h.159v-.057zM24.163 36.85v-.11h-.222l-.108-.163-.058.054c-.085-.077-.036.048-.051.055h.051v.109h.166c-.021.087.067.359-.108.277 0 0 .026.209.054.11l.055.111.113-.056v-.329l.108-.058zM23.557 36.631c-.089-.044-.044.078-.059.109 0 0 .141-.065.059-.109zM23.664 37.072c-.096-.025-.07.055 0 .055v.056c.101.024.061-.095 0-.111zM23.557 37.238v-.111c-.078.018-.184.154 0 .111zM24.221 37.685h-.166v-.059c-.162-.082.131-.185-.168-.164-.104.003-.04.081-.054.164h.108v.059h-.108l-.058.22c.142.004.086-.053.111-.059l.334.059.001-.22zM23.664 37.685l-.219-.059h-.058v.112h.058l.111.166c.169.062.083-.132.108-.219zM26.706 38.011c-.114.009-.038.028-.059.11h.168c-.086-.042.142-.119-.109-.11zM23.388 38.178c.041.032.051.249 0 .276h.169l.058-.056v-.277l-.058-.051-.169.108zM23.887 38.07h-.054l-.058.107h-.111v.166h.061v.055l.108-.055v.11h.108l.113.167.108-.057v-.333h-.167v-.161h-.108zM23.498 38.785v-.055c-.084-.02-.155.182-.053.111v.054c.219-.043.118-.136.053-.11zM23.498 38.951l-.053.108h-.058l.058.115h.111v-.06c.043.027.134-.191-.058-.163zM23.833 39.5c-.105 0-.04.086-.058.17h.111c-.013-.084.048-.17-.053-.17zM23.833 39.835l-.058.057h-.111c.099.023-.18.104.223.11-.014-.075.047-.178-.054-.167zM23.996 39.947c-.109 0-.035.032-.055.11 0 .001.493-.11.055-.11zM22.672 45.467h.061l.052.166h.11v-.166l-.051-.013v-.043h-.06v-.054l.06-.054h.051v-.059l-.162-.053c-.028-.134-.063.245-.061.276zM22.844 45.685l-.06.058c-.127-.105 0 .217 0 .217h.11c-.004-.043.032-.334-.05-.275zM23.337 46.185v-.226c-.149.065-.26.332 0 .226zM22.95 46.845h-.279l.061.112h.162v-.054c.192.029-.066.002.056-.058zM22.572 43.872c-.122-.059-.069.108-.082.156 0 0 .192-.096.082-.156zM22.49 43.4c-.123-.06-.069.105-.081.156 0 .001.197-.1.081-.156zM25.405 40.881c-.137.027-.218.232 0 .154 0 0 .234-.208 0-.154zM25.717 40.483v.244h-.078s.025.521.078.229l.086.078c0-.175-.029-.375 0-.552l-.086.001zM25.405 40.171c-.051-.041-.177.158 0 .158v.154c.195.143 0-.312 0-.312zM23.827 39.146c-.064-.022-.314.238 0 .156v.161c.272.075.156-.27 0-.317zM22.334 37.886v-.316c-.132.063-.18.462 0 .316zM22.741 37.672c.023-.079-.069.016 0 0zM23.594 40.329h-.081v.076h-.154l-.082.161h-.157v-1.499h.08v-.473h-.08c-.028-.237.009-.463 0-.709h.08l-.08-.789-.155.08v.16h-.16c-.035.067 0 .227 0 .316l-.063.019-.011.061c-.042-.033-.187-.174-.24-.163v-.156l-.156.079c.014.066.156.161.156.161.067.19 0 .5 0 .704h-.081v.158h.081c.03.138 0 .328 0 .475h-.081c-.042.375.121.901 0 1.26-.005.022-.125.034-.158.155h.158l-.075.63h.075v.475h-.075v.077c.085.046.077.035.075.158l-.075.082h.075c.024.147 0 .318 0 .468l.07.019.011.063.082-.082c.279-.058-.107.019.072.082h.239v.155h-.08v.157h-.073v.083h-.086v-.24h-.155c-.025.078.067.194-.081.157.026.177 0 .373 0 .557h.081c-.048.223.191-.072.082-.162.017.002.34.028.231.081l.16.081v.074h.075c-.019.012-.061.205-.235.159v.238h.08v.311l.155.08c.026.131 0 .26 0 .393h-.075v.161h.075c.029.121 0 .265 0 .392h-.075v.079c.147.076.059.334.075.552h.08c.104.051-.089.022-.08.237.08 0 .252.032.319 0 .038-.027-.059-.248.072-.316v-.079h-.072v-1.025h.072v-.077c-.068.059-.169-.47 0-.47-.006-.101-.189-.301 0-.397v-.236h-.154v-.074l.154-.081v-1.025h.082v-.076c-.074.061-.158-.477 0-.477-.005-.091-.186-.3 0-.395l-.082-.465h.082v-.161h.081l.002-.239zM22.804 37.097c-.095.022-.134.266 0 .24 0 0 .217-.299 0-.24zM22.572 37.257h.072v-.236l-.154.076c-.034.083 0 .225 0 .316h.082v-.156zM24.855 32.608c-.125-.057-.073.11-.086.156.001.001.196-.099.086-.156zM23.513 32.847h.081v-.082l.314-.076c-.007-.054.032-.32-.081-.237v-.078l-.158.078v.157h-.156v.238zM24.41 32.284l.082.042.057-.165c.107.041.106-.154-.109-.114-.088.021-.059.092-.059.172v-.006c-.119-.057-.072.11-.078.16l.107-.089zM23.908 31.981c-.115-.062-.072.303-.081.392l.158-.081c-.002-.011-.144-.29-.077-.311zM24.303 31.744v.152h.078l.078-.232h-.078v-.237h-.237c-.009.042-.147.049-.235.078.032.103 0 .208 0 .313.07-.004.218.182.156-.073l.238-.001zM23.669 31.427h.239c-.106-.06.176-.17-.158-.156-.146.002-.054.059-.081.156zM24.381 31.271h.149c-.025-.174.066-.248-.071-.316v-.079c-.134-.066-.049.066-.078.079-.16-.134 0 .316 0 .316zM25.717 29.773v-.078l-.312-.079c-.091-.017-.144.079 0 .079v.078c.095.032.206 0 .312 0zM22.964 31.271v.079h.075v.234l.08.08-.155.08c-.012.247 0 .458 0 .707l-.08.006v.07c.08-.051.296 0 .393 0 .015-.213 0-.408 0-.631h.082c.004-.143.023-.323 0-.47h-.082v-.235h.082v-.316h.072c.037-.208-.076-.63.082-.707v-.076c-.088-.048-.099-.021-.082-.16h.082v-.158h-.082v-.078h.082l.081-.396h-.081v.083h-.313l.077.078v.313h-.077v.233h-.08v.238h.08c.019.124.023.348 0 .474h-.08v.235h-.08c-.041.148.088.28-.076.317zM24.602 30.512l.013.042-.013-.042zM24.77 29.22c-.071-.037-.103-.032-.071-.156h.071c.026-.295.21-.466-.071-.63h-.082c-.031.127-.031.249-.086.394h-.149c-.027-.008.033-.181-.078-.081v.241l.156.076v.156c-.202.036-.261.021-.395.08l.007.061.072.022v.233h.077c.015.207-.104.11-.077.235h-.158v.155h-.077c.053-.167-.133-.003-.158 0l.077.085-.002.063-.075.014v.394c.246-.031.097-.091.235-.078v.078h.158v-.078c.109 0 .29-.038.387 0l.071.028.015-.267h.082v-.077l-.317-.076c.029-.057.033-.311.149-.24v-.235h.168l-.082-.233c-.001-.001.267-.109.153-.164zM24.616 30.562l-.002-.008-.023.009.025-.001zM24.071 29.36zM24.591 30.563zM25.405 28.514v-.08c.138.026.063-.106-.078-.078l-.023.003-.058.075c-.172.132-.003.068.159.08zM25.304 28.358c-.03-.031-.209.035 0 0zM24.77 28.201c-.113-.063-.063.104-.071.154-.001 0 .185-.101.071-.154zM24.855 27.962c-.074.015-.165.189 0 .155v-.076h.071l-.071-.079zM25.954 27.726c-.069.018-.163.187 0 .159v-.081h.079l-.079-.078zM26.033 27.254c-.099-.032-.145.393 0 .393l.076-.393h-.076zM26.109 26.543c-.083.022-.133.264 0 .24 0 0 .215-.296 0-.24zM24.381 26.939h-.078v.073h.228v.159h-.149c-.015.189.041.448 0 .632-.006.004-.072.031-.078.158l.156-.077v-.238h.071v-.081l.168-.078s.115.231.229.159l-.068-.356c-.222.038-.387.043.068-.118h.239v-.078c.09-.004.084.095.317.078v-.232h.082v-.156h.073c.078-.195.025-.189.164-.318.051-.056-.137-.109-.086-.236h.086l.151-.233-.471.075v.158h-.156l-.081.236h-.08l-.156.236c-.099-.037-.211 0-.312 0v-.236l.229-.158v-.078h.239c-.063-.09-.051-.104-.156-.158v-.075l-.24.075v.077h-.153l-.086.396h-.149c.02.008-.001.347-.001.394zM24.855 27.254l.003.036c.272-.048.624-.14-.003-.036zM25.803 25.833v-.076c.063-.034.158 0 .23 0v-.234h-.079v.078c-.063.008-.138-.064-.08-.078-.144.013-.251.346-.071.31zM26.109 25.127c-.12-.062-.063.111-.076.155 0 0 .192-.101.076-.155zM23.276 28.91c.178-.089-.022.137 0 .153h.082l.072.156h.163c.033-.26 0-.71.156-.786l-.081-.157h.081c.011-.138-.054-.053-.156-.075v-.16h.075v-.079h.158v-.396l-.077-.01v-.068l.077-.078h-.077s.061-.221.077-.076v-.239l.158-.081v-.073h-.077l.077-.633s-.21.003-.077-.078l.235-.081c-.063-.425-.063-.655 0-1.099l-.316.156c-.074.209.12.216.081.396h-.081l-.077.156h-.081v.159h.081l-.081.627h-.075l.075.158h-.075v.155l-.235.083c-.031.107 0 .2 0 .314h.154l-.082.155h.163l.023.069-.172-.011c-.108 0-.033.036-.058.112l.191-.056-.066.041c-.094.166-.054.369-.082.636l.082.075h-.082l-.072.394h-.159c-.047.162.114.134.078.241zM25.874 25.049h.08v.078c.141.062.06-.1.079-.161l-.159-.078c-.194-.087 0 .161 0 .161zM24.459 25.282v.24h.071v-.164h.168c0 .144-.031.339 0 .475l.157-.076v-.156c.049-.031.18-.013.268-.005-.042.237-.049.422.123-.073l.081-.396c-.161-.094-.127.078-.161-.161l-.239-.078-.229.161v.233h-.239zM24.235 24.899l.067-.012-.031-.143.109-.171h-.078v-.313l-.067-.021-.015-.06h.082c.004-.007-.041-.168.078-.075-.015-.007-.027-.339-.078-.08h-.159v-.082h-.079c-.018.189.073.321-.079.399-.099.047.086.003.079.231h-.156c-.075.052.061.222.077.156v.082h.235c.114.042.063.071.015.089l-.015-.012c-.122-.06-.063.113-.077.161.001.001.164-.092.092-.149zM26.266 24.654c-.111-.058-.062.109-.07.158-.001.001.185-.098.07-.158zM25.246 21.501c.074.06-.094.337.159.24l.078-.316-.237.076zM25.483 21.029c-.117-.031-.117.079 0 .079v.08c.156.031.068-.14 0-.159zM30.538.257zM26.113 28.065l-.297.056.058-.004.011.021.225-.021.003-.052zM25.051 37.257zM33.438 5.354c.008-.155.083-.155.083-.155.021-.127.006-.27-.083-.316l.083-.158h-.083c.034-.146.103-.205.083-.394h-.083v-.236h-.074v-.315c-.023-.037-.215-.012-.242-.079-.068-.169.018-.412-.077-.551l-.158-.079c-.034-.113.01-.119.078-.158v-.075c-.134-.069-.057-.141-.078-.316h-.078v-.315l.078-.079c-.135-.06-.044-.075-.078-.233h-.16v.081l-.083.005c.061-.013.15-.038.01-.086h-.157v-.076h.23v-.165l-.23-.158-.082-.314h-.155l-.079-.158-.235-.077.081-.16h-.164v-.078h-.152l-.082-.158c.136-.071.114-.17.156-.314-.153-.06-.244.107-.31.078l-.085-.313h-.312v.076c-.111 0-.308-.039-.396 0v.159l-.064.021-.01.057h-.079v.16c.114 0 .192-.028.313 0 .029.138 0 .327 0 .473l.153.077c.033.13-.077.059-.153.076l.076.159h.237v.084l.162.074v.237l-.162.074v.087c-.1.029-.233-.06-.313 0v.157h-.082l-.077.152h-.153v.155h-.157v.16h-.083v.158h-.081l-.155.237c-.114.069-.232.038-.391.075v.081h-.319l-.078.156h-.152v.155l-.395.084-.164.237h-.239v.074c-.172.089-.049.289-.153.395h-.078v.078h-.156c-.043.082.017.218 0 .315h-.08l-.076.474h-.084v.315h-.08v.238h-.073c-.037.144.018.32 0 .472h-.08v.394h-.082l-.075.629h-.077v.553h-.084v.153h-.072c-.084.286-.015.494-.084.79h-.072v.237h-.083v.393h-.082l-.074.552h-.08c-.075.277-.023.352-.075.632h-.166c-.023.105.098.071.085.235h-.085c-.041.41-.016.549-.07.944h-.086c-.015.122.047.286 0 .396l-.155.078c-.023.137-.003.193.079.237v.078c-.153.07-.046.36-.079.552h-.08v.237h-.071c-.037.173.014.371 0 .547h-.086l-.078.868h-.073v.475h-.082v.234h-.078c-.02.122 0 .266 0 .396h.078c.017.17-.035.107-.078.235 0 0 .201.015.078.075h-.078v.085c.071.028.107-.057.078.077l-.156.074c-.084.211-.023.309-.081.554h-.08v.314h-.073c-.072.341.012.664-.083 1.023h-.083v.161h-.071v.234h.154c.041.131.017.418 0 .551h-.083l-.071.396h-.086l.086.08c-.042.303-.051.474-.086.866h-.071l.071.231h-.071l-.011.062-.071.019c-.131.063.082.082.082.082l-.016.057-.066.02c0 .078.032.164 0 .236h-.086v.159h-.071l.071.08c-.011.161.047.175-.071.232v.081c.003 0 .187.102.071.159h-.071v.079c.069.034.105.034.071.156h-.149c-.04.192-.018.31-.078.477h.038l.04.076.149.077v.076h-.228c-.041.134.004.044.078.077v.163l-.16.076v.161h-.077v.076h-.158l.079.315c.093-.025.158-.139.316-.078v.157l.149-.079c.075-.189.019-.719.168-.792.008-.005-.097-.148-.082-.23h.082v-.313h.071c.026-.124 0-.124-.071-.161v-.078h.071c0-.174-.029-.383 0-.552h.086l.071-.473h.083s-.043-.215-.083-.081v-.154l.166-.082v-.233h-.083v-.078h-.083c.127.058-.071.078-.071.078v-.157l.311-.076v-.238c.211-.083.211.122.399.079v.396h-.082v.153h-.156v.238c.019.006.385.094.39.078l.086.081v.156h-.086v.16h-.078l-.073.473h-.16c-.039.097.115.068.078.235l-.156.078c0 .077.033.339 0 .398h-.234l-.083.229h-.083v.162c.049 0 .213-.028.239 0v.154c.072-.022.103.048.161.077.044-.04.039-.184.156-.153v.237c-.028.076-.209.049-.317.076.247.035-.071.132-.073.162v.153h.153l.078-.027.003.182h-.081l-.08.237c-.131-.005-.232.385.08.237v.08c-.104.031-.211 0-.319 0 .023.071-.048.198.083.159l.083.393h.073v-.319h.08l.081-.313h.238c.099-.208 0-.718.073-.944h.164v-.237h.071l-.071-.076v-.24c.101 0 .297.042.393 0-.024.194.043.437 0 .633h-.086l-.076.315h-.079l.079.158c-.072.033-.117-.054-.079.078h.079v.158l.162.155h.155v-.075c-.18.068.014-.399 0-.475 0 0-.101-.041-.085-.157h.085v-.158h.081l.075-.556c.167 0 .385.039.548 0-.045.336.014.564-.072.871h-.084v.158h-.155v.154h.155l-.072.317h-.083l.083.232h-.165v.081c.17.083.023.439.082.475h-.082v.233h-.074l.074.24h-.074v.394h-.08c-.027.184 0 .438 0 .627h-.075c-.025.163.04.391 0 .551h-.166v.315h-.07v.156h-.086l.086.238h-.086l.004.262c.179-.016.293 0-.08.136-.082.022-.13-.034-.148-.063l-.082-.003-.086.066v.154c.103.025.149.137.316.078l.076-.028v.422h-.076v.789h-.079v.079h-.151c-.025.095.101.112.151.156v.24h-.08v.153h-.071c-.065.211.002.486 0 .709h-.086s.073.225.086.08c-.035.102.061.162-.086.157v.079c0 .234.108.292.086.547h-.086v.317h-.151c-.014.061.127.379.151.393h-.078l-.073.554h-.082c-.021.127 0 .269 0 .396l.082.076h-.082v.235h-.078v.398h-.078c-.037.26 0 .521 0 .784l.078.078-.159-.078v.315h-.08l.08.317h-.08v.468h-.073v.477h-.083l.083.316-.166.075s.063.231.083.081c.025.076.028.224.083.236h-.042c.042.008.054.031-.041.08-.017-.148-.083.076-.083.076h.083c0 .167.033.384 0 .553h-.154v.392h.154v.158c-.043-.127-.083.079-.083.079h.083v.158h.083v.156h-.083v.313h.083c.005.142.012.192-.083.241v.074l.156.083v.078c-.216 0 0 .076 0 .076l.08.159v.08l.065.043.016.03h.156v-.153h.082v-.471h.073v-.161h.235v.082h.08v-.162h-.237l.086-.232c.014-.02.245-.021.307-.081v-.234h.086v-.159h-.086v-.237h.086v-.157h.07v-.235h.085l-.085-.079v-.394h.166c.016-.187-.045-.366 0-.549h.075v-.238h.08c.025-.245-.127-.234-.08-.394h.154c.073-.217 0-.289.165-.394.06-.052-.165-.314-.165-.314l.165-.078v-.236h.156c.04-.223-.025-.33-.156-.393v-.084h.072v-.31h.084l.02-.061.053-.021v-.155h.084c.028-.125 0-.119-.084-.159v-.081c.192-.093.012-.15.084-.312h.152v-.24h.082c.031-.115-.108-.054-.082-.237h.082l.08-.232c-.08-.043-.105-.032-.08-.16h.08v-.237h.073v-.314h-.073v-.16h.073c.018-.083-.135-.458-.153-.548h.233c.037-.115.151-.138.16-.155.037-.105 0-.284 0-.396h.156l.08.08s.108-.145.164-.159c-.013-.156.019-.183-.086-.235v-.078c.073-.037.121-.116.086-.235-.064-.176-.152.186-.086-.081l.238-.153s-.177-.252 0-.16v-.08l-.071-.012-.014-.066h.085v-.157c-.113-.062-.196.043-.152-.155h.152l.078-.474h.076v-.241h.083c.029-.122 0-.254 0-.391l.074-.012.007-.067-.081-.075h.081c.006-.155-.044-.332 0-.476h.075l.023-.057.057-.022v-.159h.076v-.475h.079l.084-.393h.079v-.155h.073l.078-.708h.08v-.156h.077l-.077-.078c0-.307-.041-.645 0-.948h.077l.082-.154-.082-.239h.082v-.313h.08c.025-.149-.049-.327 0-.469h.151c.031-.128-.123-.063-.078-.238l.161-.084c.042-.104 0-.271 0-.394h.074c.023-.229-.017-.475-.074-.628h-.083c-.037-.164-.138-.096-.151-.158-.034-.079-.022-.385 0-.472h.073v-.077l.473-.396v-.081h.164c.059-.129-.028-.402 0-.548h.073l.084-.711h.079v-.473h.074v-.313h.077v-.396h.082v-.234h.076l-.076-.237h.076v-.156h.077c.033-.136-.005-.046-.077-.081l.007-.066.07-.014v-.391l.239-.079v-.027c.12.069.195.079-.079-.133h-.077v-.155h.077c.049-.297.018-.524.079-.787h.083v-.237h.073c.085-.39.039-.625.085-1.021h.073c.046-.169-.063-.169.08-.239.025-.015-.108-.14-.08-.233h.08v-.16h.082v-.238h.152c.027-.126-.152-.145-.152-.155v-.081h.074c0-.137-.039-.335 0-.471h.078l.083-.313h.081v-.473h.071c.061-.286.038-.354.083-.632h.079c.027-.203-.042-.433 0-.63h.072v-.319h.083v-.231h.082c.059-.244-.008-.342.073-.553h.084v-.156h.073l-.073-.318h.073v-.47h.08c.06-.285.036-.345.08-.63h.078v-.315l.158-.075-.08-.159h.08c.043-.406.023-.576.077-.946h.08l-.08-.311h.08l.076-.475h.086v-.471h.074v-.319h.083l-.086-.08zm-6.612 16.701c-.205.099-.12.287-.165.313h-.229c.028-.163-.054-.247.075-.313v-.078h.319v.078zm-.165-.947l-.074-.079.074-.236h.082v-.076c-.276 0 0-.162 0-.162l-.082-.153c.096-.058.17-.078.165-.237h-.083v-.238s.143-.06.155-.155l.317.076v.237h-.161s-.006.623.084.317v.153h-.156c.022.116.112.262.072.397 0 0-.142.057-.156.156h-.237zm.63.788l-.048.003c.041.005.075.026-.027.077-.011-.086-.084.118-.077.155h.077c0 .043.029.29 0 .321h-.077v.076c-.03.005-.351-.006-.24-.076-.142.106 0-.321 0-.321h.084v-.312h.072l.084-.319h.152v.081c.082-.199.021.203 0 .315zm.235-3.938l-.153.237c-.377.155-.192-.24 0-.315v-.078h.153v-.081c.251-.09.089.176.164.237h-.164zM25.803 28.135l.014-.014-.014.014zM29.733 1.417s.196-.514-.078-.317c-.131-.079-.209.366.078.317zM29.816 1.023h.156c-.021-.12.059-.237-.082-.237-.137 0-.055.117-.074.237zM30.209.786c.02-.081.131-.28 0-.236-.153.048-.252.306 0 .236z"/></g><g fill="#2B4891"><path d="M35.428 17.917l-.052-.11c-.088-.005-.068.073-.113.11h.165zM39.453 16.599v.042-.042zM40.71 16.727v-.051.051zM36.073 17.487zM44.492 23.53h-.079v-.315h-.081c-.017-.159-.033-.394 0-.555h.081v-.238h-.081v-.152h-.082l-.076-.237c.068.115.076-.078.076-.078h-.076v-.159h-.076l-.156-.234h-.079v-.158h-.083c-.03-.182.111-.124.083-.237h-.156v-.156c-.203-.134.05-.093.073-.077.186-.095-.211-.078.083-.078 0-.088-.041-.25 0-.32h-.156v-.075c-.315-.158.205.069-.083-.158h-.156v-.156l-.158-.079c-.061-.128.016-.538-.155-.475-.043.01.081-.236.081-.236h.074l.075-.154h.083c-.056-.175-.092-.082-.232-.161l.074-.313c.095-.025.172.07.158-.079h-.083v-.157l-.149-.077v-.157h-.081v-.318l.155.083.158-.237-.232-.083v-.078l-.396-.313v-.079h-.239v-.077h-.161v-.081h-.392l-.075-.158c-.106-.041-.287.022-.4 0v-.079h-.229v-.078c-.19-.036-.444 0-.635 0v-.028l-.076.028h-.239l-.078.045v-.045h-.241v-.079c-.184-.04-.438 0-.622 0v-.035l-.086.035c-.248.088-.668 0-.941 0v.079c-.284.02-.577 0-.866 0v.078h-.238c-.055.022-.044.132-.077.237h-.234v.237c-.222.067-.405-.058-.559-.079v-.077h-.156v.077l-.151.079v.158l-.07.021-.016.057c.053.02.137-.033.086.076l-.237.078v.237l-.157.083c-.033.065 0 .154 0 .235l-.063.024-.016.049h-.239v-.073h-.16v-.081h-.231l-.076-.154c-.191-.058-.371.03-.555 0v-.083c-.175-.049-.295-.044-.477-.077v-.077c-.165-.038-.377.021-.547 0v-.083h-.394v-.078h-.24v-.076h-.234v-.078c-.123-.032-.337.012-.477 0v-.082c-.134 0-.25.02-.392 0l-.15.236h-.08v.161h.155c.051.132-.048.144-.075.237l.309.235-.073.549h-.085v.396l.158.08v.154h-.073l-.085.156h-.23l-.085.554h-.156l-.081.156h-.159l-.081.39c-.094.088-.27.031-.391.082l-.076.16-.317-.078v.078c-.161.074-.201.199-.314.313l-.236.157c-.023.086-.025.39 0 .477l.236.153v.156h.08c.025.141 0 .328 0 .472h-.08v.396l.396.079v.08h-.243v.153h.318v-.077h.236v.077h.236v.084h.235v.155h.239v.079h.239v.08h.155v.078h.16l.073.235.319.239v.156h.153l.081.238h.156l.08.155h.154l.164.232h.152v.087h.081l.073.153h.163l.155.239h.158l.158.23c.125.032.262 0 .398 0v-.08l.626.08v-.08c.147 0 .329-.023.473 0l.077.241h.626v.078c.104.016.228-.045.323 0l.15.234c.207.016.351-.17.479-.234v-.078c.129-.034.561.033.625.078l.082.156.628.078.081.161c.094.034.28 0 .396 0v.075c.187.009.242-.044.394-.075v-.083h.312l.079-.078v-.234h.081v.081c.133.035.041.029.075.153.116 0 .295-.042.399 0v-.063l.075-.015c0-.151-.017-.32 0-.476.081.015.157.164.157.164.013 0 .506-.064.549-.084l.162-.23c.104-.034.271 0 .391 0v.077l.237-.077v-.239c.15-.06.395.013.552 0v-.076h.785l.025-.061.058-.017c0-.078-.043-.267 0-.319h.23l.02-.057.063-.023v-.157l.396.082s.058-.146.153-.161l.082-.473h.076v-.158l.318-.077.007-.314z"/></g><path d="M8.968 42.815h-2.779v-8.074h-3.252v-2.069h9.279v2.069h-3.248v8.074zM43.096 34.741h-4.757v1.872h4.448v2.045h-4.437v2.072h4.797v2.085h-7.494v-10.143h7.443v2.069zM46.912 32.672v10.144h-2.788v-10.144h2.788zM24.95 32.672v10.144h-2.79v-10.144h2.79zM29.146 42.815h-2.699v-10.143h4.509c1.521 0 2.267.166 2.922.669.683.52 1.077 1.448 1.077 2.514 0 1.325-.534 2.377-1.419 2.818-.693.333-1.394.455-2.857.455h-1.532v3.687zm.761-5.577c1.556 0 2.097-.336 2.097-1.321 0-.901-.518-1.264-1.814-1.264h-1.043v2.585h.76zM13.236 40.836l-.773 1.979h-2.765l4.424-10.144h3.26l4.539 10.144h-3.083l-.834-1.979h-4.768zm2.356-6.001l-1.597 4.021h3.21l-1.613-4.021zM38.456 49.256h-1.896v-.245h1.896v-.305l-1.995.105-.07-.315 1.064-.047.451-.475h-1.142v-.245h3.757v.245h-.819c.485.293.878.557 1.171.784l-.211.264c-.164-.135-.346-.27-.562-.41l-1.306.076v.322h1.838v.245h-1.838v.346h2.411v.246h-5.195v-.246h2.445v-.345zm-2.352-2.019l.059-.058h5.067l.047.081c-.023.334-.088.667-.188 1.007l-.31-.129.204-.679-.035-.035h-4.481l-.029.029v.772h-.334v-.988zm2.375-2.053h-2.241v-.245h2.241v-.293h.34v.293h2.205v.245h-2.205v.352h1.884v.246h-4.166v-.246h1.942v-.352zm-1.743 1.697l-.041-.047v-.731l.041-.041h3.797l.047.041v.731l-.053.047h-3.791zm.31-.573l-.012.012v.304l.012.012h3.171l.023-.023v-.292l-.023-.012h-3.171zm2.376 1.667h-1.077l-.392.451 1.714-.082-.345-.211.1-.158zM43.506 46.237h-1.667v-.334h1.667v-1.234h.34v5.331h-.34v-1.399c-.526.363-1.029.667-1.498.896l-.198-.28c.573-.287 1.146-.633 1.696-1.024v-1.956zm3.148-.866l.222.258c-.433.427-.988.866-1.679 1.328v2.363l.053.135.134.059h1.142l.105-.041c.041-.029.053-.082.059-.152l.035-.994.339.035c-.018.802-.07 1.258-.146 1.352-.07.094-.152.135-.239.135h-1.48c-.088-.006-.17-.041-.24-.117-.064-.07-.1-.146-.1-.223v-4.821h.34v1.855c.618-.435 1.104-.826 1.455-1.172z"/></g><g id="b"><circle fill="#fff" cx="25" cy="25" r="25"/><g fill-rule="evenodd" clip-rule="evenodd"><path fill="#B91E22" d="M21.32 39.375c-2.633-.012-5.18-.464-7.615-1.457-2.387-.973-4.546-2.286-6.117-4.396-1.522-2.051-1.905-4.319-1.167-6.755.188-.614.526-1.191.837-1.763 2.017-3.71 4.727-6.823 8.147-9.303.678-.491 1.399-.934 2.127-1.347.917-.52 1.957-.682 2.981-.83.685-.1 1.389-.102 2.08-.091 1.425.023 2.078 1.055 2.244 2.114.109.713.038 1.407-.232 2.083-.094.232-.145.489-.16.739-.018.323.153.478.474.441.227-.026.449-.109.673-.168 1.228-.326 2.446-.693 3.684-.966.97-.213 1.965-.225 2.914.139 1.23.47 1.981 1.355 2.114 2.678.035.353-.097.74-.219 1.088-.13.373-.354.712-.509 1.078-.205.477-.087.796.396.986.431.17.887.269 1.324.423 1.403.494 2.587 1.257 3.174 2.706.505 1.247.377 2.501-.061 3.729-.737 2.07-2.047 3.728-3.798 5.035-2.398 1.793-5.149 2.746-8.056 3.309-.736.142-1.482.259-2.229.329-.997.097-2.002.137-3.006.199zm.868-17.271c-2.511.011-5.055.579-7.42 1.854-1.57.847-2.921 1.951-3.87 3.489-1.272 2.057-1.153 4.279.334 6.179.949 1.211 2.216 1.983 3.63 2.53 2.055.796 4.19 1.031 6.38.87 2.202-.164 4.292-.712 6.246-1.746 1.546-.817 2.894-1.877 3.863-3.356.929-1.418 1.295-2.953.757-4.609-.514-1.586-1.623-2.69-3.021-3.521-2.072-1.235-4.348-1.683-6.899-1.69z"/><path fill="#DC8121" d="M43.542 19.226c-.132.792-.265 1.741-.452 2.68-.137.686-.751 1.074-1.466 1.001-.61-.061-1.143-.605-1.147-1.26-.001-.494.067-.991.142-1.482.423-2.844-.668-5.08-2.797-6.873-1.124-.945-2.437-1.473-3.916-1.5-.673-.014-1.346.077-2.019.093-.694.017-1.184-.327-1.34-.9-.174-.631.064-1.335.648-1.628.406-.202.874-.369 1.319-.389 2.61-.112 5.057.413 7.193 2.011 2.018 1.508 3.11 3.574 3.563 6.006.127.682.171 1.379.272 2.241zM38.499 18.809c-.065.458-.097.924-.205 1.371-.131.531-.502.873-1.03 1.024-.451.129-.872-.046-1.101-.457-.269-.483-.308-1.007-.23-1.544.173-1.186-.405-2.159-1.499-2.476-.305-.089-.635-.07-.948-.133-.375-.077-.763-.143-1.11-.292-.401-.172-.645-.5-.599-.974.044-.463.226-.843.694-.994 1.015-.327 2.032-.3 3.024.074 1.885.708 2.965 2.33 3.004 4.401z"/><path fill="#fff" d="M22.188 22.104c2.552.007 4.827.454 6.898 1.69 1.398.831 2.508 1.935 3.021 3.521.538 1.656.172 3.191-.757 4.609-.97 1.479-2.317 2.539-3.863 3.356-1.954 1.034-4.044 1.582-6.246 1.746-2.19.161-4.326-.074-6.38-.87-1.414-.547-2.681-1.319-3.63-2.53-1.487-1.899-1.606-4.122-.334-6.179.949-1.538 2.3-2.642 3.87-3.489 2.366-1.274 4.91-1.843 7.421-1.854zm-1.959 13.729c.383-.081 1.096-.156 1.757-.384 1.966-.68 3.414-1.942 4.067-3.963.719-2.21-.123-4.285-2.121-5.364-.912-.493-1.902-.701-2.929-.763-2.202-.131-4.049.593-5.439 2.323-1.453 1.811-1.547 4.146-.249 5.903 1.135 1.535 2.716 2.203 4.914 2.248z"/><path d="M20.229 35.833c-2.198-.045-3.779-.713-4.913-2.248-1.298-1.757-1.205-4.093.249-5.903 1.39-1.729 3.238-2.454 5.439-2.323 1.026.062 2.017.27 2.929.763 1.998 1.079 2.839 3.154 2.121 5.364-.653 2.021-2.101 3.283-4.067 3.963-.662.228-1.374.303-1.758.384zm-1.771-6.328c-.257.061-.578.102-.872.214-.903.348-1.428 1.292-1.236 2.17.178.823 1.025 1.43 1.971 1.403.635-.018 1.178-.266 1.634-.705.507-.49.719-1.095.555-1.779-.157-.654-.634-1.015-1.269-1.173-.236-.058-.478-.08-.783-.13zm3.147-.88c-.489-.009-.92.361-.93.803-.01.408.355.757.796.764.502.008.964-.4.969-.854.004-.407-.341-.702-.835-.713z"/><path fill="#fff" d="M18.458 29.505c.306.05.548.072.783.13.635.158 1.112.519 1.269 1.173.165.685-.048 1.289-.555 1.779-.456.439-.999.688-1.634.705-.946.026-1.793-.58-1.971-1.403-.192-.878.333-1.822 1.236-2.17.294-.113.615-.154.872-.214zM21.605 28.625c.494.011.839.306.836.712-.005.454-.467.862-.969.854-.441-.007-.806-.355-.796-.764.009-.441.44-.811.929-.802z"/></g></g><g id="a"><path fill="#1C95CE" d="M6.585 31.949l-.089-.097-.057.018c-.083.048-.479.239-.633.305-.008.004-.796.358-1.869.358-.496 0-.979-.075-1.434-.224-.634-.207-1.119-.659-1.401-1.309-.369-.849-.299-1.769-.134-2.123l.054-.123.154-.341.004-.028-.064-.047-.043-.023-.119-.084-.195-.169c-.122-.123-.232-.263-.328-.414-.278-.444-.427-1-.431-1.609-.004-.738.188-1.416.556-1.96.304-.45.712-.791 1.151-.961 0 0 .32-.125.749-.187l.125-.04-.037-.145-.018-.034-.093-.227c-.085-.229-.156-.47-.208-.715-.157-.737-.129-1.391.081-1.942.236-.618.585-1.098 1.037-1.424.382-.276.83-.433 1.294-.454l.075-.001c.849 0 1.411.632 1.563.825l.107.1h.002l.005-.002.034-.155.002-.042c.03-.233.087-.45.175-.663.224-.539.631-.972 1.146-1.218 0 0 1.256-.578 2.231-.029.25.14.445.383.593.657.089.165.161.351.215.555l.07.339c.01.075.031.112.065.112l.144-.091.03-.026.266-.193c.283-.178.601-.3.944-.363.174-.032.356-.047.542-.047.27 0 .55.033.834.1.753.175 1.363.619 1.765 1.283.338.559.511 1.258.475 1.918-.001.006-.05.629-.419 1.132-.001.002-.157.225-.168.279l.047.066.104-.007.079-.003c.303 0 1.303.109 1.901.591.335.271.585.574.763.927.19.375.307.819.356 1.358.102 1.098-.535 1.812-1.086 2.218l-.419.237-.036.014-.073.042.053.045c.134.066.635.558.748.952 0 0 .51 1.114-.113 2.183-.264.452-.635.873-1.184 1.161-.512.269-1.112.417-1.69.417l-.327-.017c-1.389-.141-1.881-.951-1.901-.985l-.026-.02-.085.109c-.079.18-.373.756-.679 1.04-.13.12-.343.298-.69.447-.422.182-.934.274-1.518.274-.329 0-.685-.029-1.059-.088-.011-.002-1.139-.197-1.55-.793-.093-.134-.191-.313-.252-.429l-.111-.21z"/><path fill="#fff" d="M13.266 21.373l.172-.04c.244-.125.288-.187.238-.331-.002-.006-.04-.136-.163-.136-.068 0-.149.04-.242.119-.045.038-.181.154-.175.26.007.11.11.127.17.128M11.692 20.515c.118 0 .26-.213.303-.328.035-.092.079-.26-.009-.354l-.102-.051c-.063 0-.132.052-.194.147-.1.151-.167.398-.108.503l.11.083M9.824 20.307c.109 0 .176-.219.19-.325.023-.167.009-.28-.043-.345l-.123-.062h-.017c-.069 0-.115.038-.142.115l-.028.185-.001.029c-.013.176.01.299.069.355l.095.048M7.866 20.275l.053.012c.113 0 .179-.182.182-.353.004-.177-.058-.358-.206-.365h-.007l-.094.039c-.064.067-.071.204-.066.307.006.099.016.303.138.36M5.873 19.729c.069.007.13.093.215.278l.014.03c.037.075.086.178.033.247l-.113.042c-.066-.007-.143-.053-.174-.105-.222-.371-.13-.43-.076-.465l.101-.027M4.301 21.348c.067.087.192.175.318.175l.112-.028.078-.105c.009-.119-.15-.256-.183-.283-.096-.079-.209-.133-.303-.144l-.029-.001-.104.054c-.026.051-.013.137.034.217l.077.115M4.034 23.058l.146.016c.088 0 .167-.018.228-.05l.025-.014c.071-.037.152-.08.138-.169-.01-.064-.068-.093-.115-.107l-.135-.016-.181.014c-.088.011-.21.037-.249.136l-.01.07c.014.08.112.11.153.12M4.525 24.255l-.14.01c-.113.015-.251.042-.319.125l-.036.129c.034.075.183.114.312.114l.082-.006.092-.013c.083-.01.169-.021.232-.063l.062-.104-.055-.126c-.049-.044-.127-.066-.23-.066M13.928 22.925c.096 0 .205-.031.271-.077.085-.059.127-.136.117-.216-.014-.112-.124-.129-.188-.129-.145 0-.317.079-.361.165l-.034.149c.019.098.143.108.195.108M14.155 24.097l-.01.098.026.05c.039.047.104.075.196.084l.155-.001c.203-.021.3-.093.294-.218-.005-.127-.146-.146-.23-.146l-.152.019-.06.013c-.082.017-.182.037-.219.101M6.054 23.515l.298.014c.203 0 .408-.016.608-.031l.161-.012c.292-.021 1.027-.131 1.067-.139l.022-.002c.425-.048.654-.197.771-.313.29-.289.28-.585.232-.838-.019-.099-.058-.217-.193-.255l-.124-.018c-.098 0-.182.034-.243.098l-.143.181-.125.164c-.211.234-.528.34-1.211.404l-.167.008c-.524 0-.644-.27-.731-.466l-.001-.003c-.06-.136-.035-.351-.009-.559l.023-.329c-.009-.15-.033-.304-.144-.411-.063-.061-.145-.098-.216-.098l-.132.057c-.052.056-.072.131-.091.204l-.009.034-.052.169-.056.185-.018.066-.08.32-.104.588-.024.261c-.004.12.037.28.102.397.128.233.391.304.589.324M7.961 25.169c.238-.164.439-.443.354-.697-.153-.453-.595-.724-1.182-.724-.297 0-.597.074-.842.209l-.023.013c-.161.088-.326.179-.447.313-.071.079-.112.16-.123.241l.03.165c.072.146.241.259.335.313.169.097.36.166.526.223.256.088.496.132.715.132.257-.001.478-.064.657-.188m-.837-.453l-.13-.016c-.108-.031-.192-.146-.194-.265l.041-.135c.044-.063.122-.104.231-.121l.16-.015.213.04c.056.024.091.071.101.138.016.103-.031.235-.105.295-.087.071-.181.074-.281.079h-.036M9.667 23.521h-.005c-.241.017-.482.052-.687.084l-.011.002c-.113.018-.21.033-.239.161-.026.116.04.241.147.279.131.046.264.053.377.053l.155-.003.158-.003.21.012.089.05c.032.061-.009.169-.086.323-.047.095-.134.141-.265.141l-.112-.008-.173-.012c-.143 0-.255.026-.327.075-.066.046-.105.114-.111.193-.007.088.028.177.093.237.104.098.272.133.396.134h.008c.217 0 .444-.041.607-.109.478-.201.678-.729.762-1.137.091-.442.068-.843.067-.847 0-.009-.034-.9-.064-1.325-.006-.083-.018-.236-.107-.313l-.135-.045-.105.022c-.085.039-.1.106-.119.192l-.001.007-.037.316-.004.059c-.02.286-.079 1.069-.109 1.261-.025.159-.224.191-.372.201M11.947 25.277l.243.012c.354 0 .66-.08.912-.24l.036-.022c.185-.116.464-.292.474-.525.004-.099-.058-.189-.154-.225l-.141-.021-.23.026-.153.025-.325.058-.006.001c-.14.03-.25.054-.383.054l-.138-.009c-.081-.009-.154-.056-.204-.132-.048-.073-.048-.149-.047-.229v-.056c-.004-.175.1-.292.279-.313l.075-.008c.098-.009.175-.016.264-.077.113-.077.262-.239.211-.37-.053-.136-.179-.138-.301-.14l-.062-.002-.157.004-.027.002-.121.002h-.019c-.054 0-.114-.001-.13-.067l-.012-.35-.001-.122-.005-.185-.007-.339c0-.232-.026-.555-.255-.668l-.169-.048c-.165 0-.201.194-.215.385-.051.704-.067 1.524-.045 2.249.02.66.098 1.259.813 1.33M4.386 26.965c.085.002.189.005.241.038.05.033.073.097.058.162-.013.061-.063.129-.162.143-.203.026-.611.059-.984.087l-.128.009-.18.013-.331.018-.207.01-.184.009h-.024c-.156 0-.266-.033-.334-.103-.059-.06-.087-.145-.086-.26.002-.192.158-.213.225-.213l.022.001 1.779.078.295.008M5.296 26.432l.146.061c.061 0 .142-.027.165-.104l.016-.087c.011-.112-.001-.226-.016-.331-.001-.007-.027-.161-.178-.161l-.048.005c-.208.039-.156.398-.15.439.004.068.028.135.065.178M5.48 27.533l-.112.146-.089.1c-.177.199-.142.324-.142.325 0 .005.026.297.767.614.313.134.633.199.979.199.431 0 .825-.103 1.186-.214.52-.158.911-.546 1.171-.802l.048-.047c.163-.16.241-.308.227-.426-.009-.073-.054-.135-.134-.182l-.127-.036c-.17 0-.319.176-.32.178l-.42.379c-.194.166-.715.481-1.442.61l-.297.027c-.47 0-.713-.228-.83-.337l-.004-.004c-.139-.13-.101-.33-.073-.476l.001-.006.02-.088c.032-.142.076-.335.05-.556-.031-.264-.162-.289-.258-.307l-.003-.001-.13-.009c-.197 0-.424.043-.466.161l-.003.092c.032.073.112.091.188.098l.111.008.046.003.03.001.115.021.032.068-.063.06c-.014.001-.381-.022-.404.167 0 0-.031.178.242.179l.063.001.041.054M6.708 26.34l.038.023.086-.014.167-.019c.087 0 .15.021.189.064l.045.137c-.013.049-.059.092-.12.112-.102.033-.305.045-.307.045h-.001l-.009.012.027.031c.035.021.334.286.365.469.034.202-.102.543-.23.711l-.01.014c-.047.063-.102.135-.168.172l-.083.02-.148-.052c-.045-.041-.071-.101-.068-.16l.04-.137.187-.383.003-.011-.007-.156-.077-.063-.03-.005-.089.071-.159.202c-.052.049-.104.094-.173.094l-.087-.022c-.058-.029-.073-.092-.076-.139-.004-.074.037-.134.077-.19l.004-.007.121-.195.025-.044.085-.138.002-.004.023-.065-.019-.011-.05-.002-.066.001-.071-.001c-.062-.008-.142-.043-.158-.119l.03-.12.113-.05.01-.004.116-.035.097-.064-.032-.124-.001-.003-.042-.16c-.016-.105-.015-.205.098-.227l.044-.004c.131 0 .197.132.232.258l.057.292M7.413 26.896l.047.005c.113 0 .17-.104.213-.182.036-.064.068-.274.071-.295l.09-.051.029.001.018.001.089-.006.033-.003.257-.033c.124-.021.216-.068.26-.132l.024-.121c-.03-.141-.157-.159-.22-.161-.079-.003-.318.028-.4.041l-.019.002-.02-.008.003-.031.026-.071.011-.034c0-.001.034-.091-.005-.162l-.132-.082-.049-.005-.065.01c-.086.027-.118.105-.145.189l-.023.068-.023.067-.108.353-.005.019-.084.314c-.049.217-.024.274.127.307M7.888 27.477l-.072.018-.191-.037-.04-.011-.034-.005-.064.028c-.029.034-.042.096-.032.167.016.127.202.226.281.262l.184.052c.072 0 .144-.03.219-.093.075-.062.121-.132.157-.233l.052-.198.003-.034.004-.035.051-.033h.01l.08.003.171-.009.114-.054.024-.119c0-.193-.101-.219-.188-.219l-.102.003-.065.003-.029-.003-.007-.007.02-.045.01-.015.001-.002.062-.104c.03-.075.024-.123-.024-.188-.072-.099-.225-.103-.359-.105l-.059-.002-.017-.001c-.096 0-.183.031-.232.084l-.044.125c.004.072.057.101.101.112l.072.01.02.002.04.009.013.045-.007.017-.063.063-.014.001-.178.003c-.127 0-.286.049-.329.14-.028.061-.03.127-.003.198.018.047.056.067.129.067l.167-.019.054-.01.143-.018.05.017c.024.045-.016.131-.079.17M11.195 28.73l.027-.125c.022-.243.042-.756.037-.798l.002-.02.002-.002h.004l.025.023.068.075c.086.084.336.352.624.372l.055.002c.303 0 .447-.187.483-.243.059-.092.058-.135-.004-.18l-.137-.049-.043-.01c-.203-.051-.44-.157-.55-.218-.111-.06-.458-.23-.492-.269l-.013-.013-.038-.072.086-.052.029.003.043.01s.375.089.736.016c0 0 .395-.082.408-.318l-.034-.116-.127-.046-.049.004-.183.027-.27.04-.398.032c-.168.004-.217-.061-.231-.104 0 0-.027-.104.085-.11l.126-.005c.186-.007.517-.045.584-.072 0 0 .181-.042.191-.169.017-.222-.196-.251-.196-.251l-.167-.023-.079-.003-.313.021-.154.014h-.008l-.047.003-.094-.029-.031-.114c.007-.14-.008-.329-.121-.436l-.134-.06c-.074 0-.142.057-.177.146-.041.107-.042.192-.042.275l-.001.069v.083l-.021.088-.051.009-.045-.003-.434-.022c-.138 0-.227.011-.264.03-.059.032-.092.08-.096.141l.025.139.121.089.242.052.102.011.018.002.291.025.041.003s.139.002.128.113c-.009.096-.141.082-.141.082l-.669-.032-.022-.002-.085-.005c-.128 0-.199.046-.218.143-.013.064-.001.119.033.164.061.079.189.125.382.138l.064.002.457-.017.038-.002.077-.003.051.055-.041.102c-.056.081-.461.425-.518.472l-.039.028c-.091.066-.306.223-.309.341l.051.15.146.056.188-.046c.276-.123.493-.483.495-.486l.056-.071.012.02-.004.208v.4l.002.034.023.208.061.125.148.041c-.001-.001.177.006.223-.09"/><path fill="#fff" d="M15.93 27.115l-.042-.104-.088-.032-.104-.007-.095.011-.201.036-.012.003-.059.012-.358.058-.124.018-.185.021-.246.008-.023-.004-.038-.017-.025-.052-.011-.095.026-.028.082-.013h.025l.018.001.489-.025.047-.005.14-.017c.123-.022.121-.123.118-.229v-.025l.013-.047.048-.012h.045l.115.002s.239.019.252-.136c.008-.096-.027-.195-.117-.206l-.172-.008-.093.001-.083-.003h-.004l-.026-.004-.02-.025.007-.107c0-.004.044-.242-.125-.345-.152-.093-.251-.095-.347-.096h-.039l-.285.013-.041.005-.051-.03-.006-.176.002-.059-.021-.18c-.027-.05-.09-.083-.157-.083l-.094.026c-.067.047-.088.128-.102.21l-.002.079c.001.094.004.224-.083.233l-.049.004-.057.006-.198.022-.057.006-.106.015-.173.055c-.053.026-.117.074-.119.146l.029.146.178.033.279-.019.204-.018s.121-.028.151.02c.016.026.011.112-.023.136l-.112.011-.305-.011-.096-.004h-.082l-.138-.001c-.054.001-.127.003-.166.049l-.036.095.049.123c.068.043.146.063.254.063l.133-.006.048-.004.25-.015h.026l.062-.001.04-.001.071.061-.01.041-.063.017-.12.001-.246.006-.076.002h-.111l-.163.043-.04.072.038.102.174.056.071.005.04-.001h.043l.122-.006.122-.005.165.007.074.028.009.116-.038.07-.059.003c-.044 0-.263-.003-.504-.045-.175-.031-.302-.046-.387-.046l-.104.016c-.054.029-.08.06-.074.149.006.092.104.148.194.171l.026.007.029.007.011.003.042.021-.005.041s-.103.272.203.292c0 0 .127.014.176-.11l.014-.179.036-.046.022-.003.019.001.015.001.066.002.04.002.013.015-.009.015c-.037.035-.021.154-.014.217.008.074.081.117.213.116l.09-.013c.059-.019.098-.042.111-.095.006-.028-.027-.159-.058-.212l.021-.042.041-.002.119-.002h.023l.074.045c0 .056.021.278.176.284l.087.001.134-.032.068-.123-.024-.146-.003-.009c-.021-.06.034-.057.076-.059l.015-.001.067-.006.038-.003.049-.007.021-.003.008-.002.059.011.026.089c.02.057.046.137.103.167l.104.023.125-.035.05-.049.032-.064-.01-.161-.001-.007-.001-.014.032-.022.259-.032.111-.06.019-.101zm-1.09-.499l-.098.018-.076.001-.049.001-.041-.001-.059-.001h-.032l-.071-.021-.015-.072.009-.023.062-.015.274-.009.069.004.032.018-.005.1zm-.458-.603l.388-.033.062.075.002.097-.099.042-.313.004-.06-.049-.012-.08.032-.056zM16.338 28.274c-.01-.042-.053-.063-.128-.063-.075 0-.259.073-.313.003l-.042-.134-.083-.138-.128-.099-.222-.034c-.186 0-.417.04-.479.055-.168.038-.656.062-.864.072l-.073.004-.069.001-.285-.005-.346-.006-.141.005c-.185.021-.101.268-.131.383-.036.136-.182.068-.286.068l-.121.006-.087.015-.068.026-.044.077.061.132.17.088s.315.073.94.044c.382-.018 1.457-.058 1.649-.076 0 0 .557-.034.924-.203.211-.098.166-.221.166-.221m-1.271-.16l.215-.055.027-.007.082-.014c.042 0 .061.026.069.104l-.006.081-.07.032-.02.004-.164.036-.135.025c-.049 0-.059-.03-.065-.094l-.001-.018c-.005-.055-.001-.075.068-.094m-.937.105l.024-.019.039-.005.016.001h.019l.078-.003.237-.011.084.021.009.034.001.063v.005l-.017.051-.049.011-.014.002-.066.007-.166.011-.005.001-.045.003-.076.005h-.005l-.058-.04-.01-.065v-.008l-.001-.012.005-.052m-.754.004l.022-.021.047-.002.015.001h.261l.066.019.012.043v.076l-.014.052-.043.011h-.011l-.056.005-.142.005-.037.002-.047.002-.021-.001-.05-.046-.007-.071v-.008l-.001-.013.006-.054M2.983 29.697v.275h-.074v-.045c0-.107-.056-.156-.168-.156v.484l.042.036h.077v.075h-.379v-.075h.077l.042-.036v-.484c-.112 0-.168.049-.168.156v.045h-.075v-.275h.626zm.571.494v.03c0 .113-.045.16-.13.16-.05 0-.094-.021-.102-.075-.037.057-.102.075-.166.075-.079 0-.141-.037-.141-.128 0-.196.303-.102.303-.244 0-.064-.055-.076-.108-.076l-.094.033.067.053-.071.06-.073-.075c0-.103.123-.125.203-.125.136 0 .195.062.195.146v.247l.024.034.027-.077v-.038h.066zm-.236-.074l-.107.049-.061.076.061.064c.069 0 .107-.06.107-.124v-.065zm.262.25v-.067h.032l.041-.04v-.259l-.041-.04h-.046v-.067h.206v.366l.041.04h.049v.067h-.282zm.119-.682l.072.073-.072.072-.073-.072.073-.073m.348.292h.002c.041-.068.092-.098.159-.098.141 0 .2.127.2.251 0 .125-.06.252-.2.252-.08 0-.136-.05-.156-.087h-.004v.175l.041.045h.064v.066h-.32v-.066h.055l.041-.045v-.465l-.041-.044h-.054v-.067h.212v.083zm.003.153c0 .116.05.173.118.173.058 0 .104-.06.104-.173 0-.129-.049-.172-.104-.172-.067 0-.118.057-.118.172m.555.013c-.003.079.021.164.115.164.073 0 .109-.038.123-.107h.083c-.013.115-.083.183-.217.183-.156 0-.239-.088-.239-.252 0-.147.095-.251.234-.251.166 0 .235.148.224.264h-.323zm.188-.068c.001-.063-.019-.126-.091-.126-.069 0-.094.063-.097.126h.188zm.164.292v-.067h.046l.04-.04v-.259l-.04-.04h-.046v-.067h.206v.366l.041.04h.049v.067h-.296zm.133-.682l.073.073-.073.072-.073-.072.073-.073m.235.782c.057-.016.102-.049.1-.113h-.002l-.046.017-.061-.063.075-.074c.059 0 .099.055.099.112 0 .093-.081.149-.165.164v-.043zm.338-.1v-.075l.106-.055.193-.54h.142l.202.54.089.055v.075h-.336v-.075h.08l.031-.016-.003-.023-.034-.102h-.229l-.033.102-.004.021.033.019h.079v.075h-.316zm.441-.29l-.088-.244h-.002l-.081.244h.171zm.321.29v-.067h.018l.041-.04v-.456l-.041-.04h-.049v-.066h.209v.563l.041.04h.047v.067h-.266zm1.061-.406l-.07.042-.124.364h-.128l-.079-.252h-.002l-.081.252h-.127l-.125-.375-.07-.031v-.067h.253v.067h-.026l-.031.023.015.05.064.224h.001l.076-.228.012-.052-.04-.018h-.024v-.067h.249v.067h-.033l-.029.022.015.054.064.221h.001l.074-.226.013-.05-.025-.021h-.034v-.067h.211v.068zm.564.23v.03c0 .113-.045.16-.13.16-.05 0-.094-.021-.102-.075-.038.057-.102.075-.166.075-.079 0-.14-.037-.14-.128 0-.196.303-.102.303-.244 0-.064-.054-.076-.108-.076l-.094.033.066.053-.07.06-.073-.075c0-.103.124-.125.204-.125.136 0 .195.062.195.146v.247l.024.034.027-.077v-.038h.064zm-.236-.074l-.107.049-.061.076.061.064c.069 0 .107-.06.107-.124v-.065zm.212-.223h.292v.067h-.043l-.029.021.009.028.091.215h.002l.084-.205.009-.036-.032-.023h-.044v-.067h.244v.067l-.083.045-.164.389c-.056.133-.108.187-.203.187-.069 0-.134-.042-.134-.122 0-.05.027-.089.078-.089l.07.063-.05.058-.026-.001.05.024c.06 0 .09-.031.109-.074l.033-.073-.17-.368-.092-.039v-.067zm.694.288c.021.089.082.133.171.133l.079-.061c0-.1-.318-.043-.318-.224 0-.101.096-.151.185-.151l.148.05.02-.035h.056v.169h-.065c-.024-.073-.072-.111-.15-.111l-.077.055c0 .079.318.042.318.227 0 .106-.09.149-.185.149-.061 0-.121-.01-.168-.052l-.021.037h-.066v-.186h.073zm.819.076l.046.034h.063v.075h-.317v-.075h.06l.043-.034v-.452l-.039-.034h-.064v-.074h.317l.136.438h.002l.154-.438h.305v.074h-.068l-.04.034v.438l.044.049h.063v.075h-.349v-.075h.067l.044-.034v-.46h-.002l-.194.568h-.084l-.185-.569h-.002v.46zm.989-.379c.151 0 .259.091.259.251 0 .161-.108.252-.259.252-.152 0-.26-.091-.26-.252 0-.16.108-.251.26-.251m0 .436c.082 0 .124-.063.124-.186 0-.121-.042-.185-.124-.185-.082 0-.125.063-.125.185.001.123.043.186.125.186m.491-.344h.002c.041-.061.072-.092.126-.092.064 0 .122.037.122.11 0 .046-.027.086-.077.086l-.072-.065.066-.061-.042-.014c-.083 0-.125.083-.125.155v.169l.041.04h.063v.067h-.319v-.066h.056l.041-.04v-.259l-.041-.04h-.056v-.067h.214v.077zm.415.172c-.002.079.021.164.116.164.073 0 .109-.038.122-.107h.084c-.013.115-.083.183-.217.183-.157 0-.239-.088-.239-.252 0-.147.095-.251.234-.251.166 0 .235.148.224.264h-.324zm.189-.068c0-.063-.02-.126-.091-.126-.068 0-.094.063-.097.126h.188zm.324.217h.064l.044-.034v-.452l-.044-.034h-.064v-.074h.403c.203 0 .337.112.337.334s-.134.336-.337.336h-.403v-.076zm.249 0h.125c.117 0 .208-.062.208-.261s-.091-.26-.198-.26h-.135v.521zm.679-.149c-.003.079.021.164.115.164.073 0 .109-.038.122-.107h.084c-.013.115-.083.183-.217.183-.157 0-.24-.088-.24-.252 0-.147.095-.251.235-.251.166 0 .235.148.224.264h-.323zm.188-.068c.001-.063-.019-.126-.091-.126-.069 0-.094.063-.097.126h.188zm.162.292v-.067h.049l.041-.04v-.456l-.041-.04h-.049v-.066h.209v.563l.041.04h.048v.067h-.298zm.336 0v-.067h.046l.041-.04v-.259l-.041-.04h-.046v-.067h.206v.366l.041.04h.05v.067h-.297zm.133-.682l.073.073-.073.072-.072-.072.072-.073m.571.607c.11 0 .166.047.166.134 0 .066-.037.155-.284.155-.208 0-.26-.053-.26-.112 0-.057.053-.078.101-.083v-.002c-.055-.01-.085-.03-.085-.092 0-.054.041-.093.093-.096v-.002c-.055-.027-.076-.076-.076-.137 0-.123.109-.179.22-.179l.172.05.104-.05c.059 0 .103.041.103.099l-.065.072-.062-.054.046-.059-.034-.016-.068.045.028.091c0 .13-.111.177-.225.177l-.107-.018-.027.039.086.036h.174zm-.168.102c-.07 0-.106.028-.106.068 0 .036.04.063.154.063.11 0 .17-.021.17-.071l-.063-.06h-.155zm.046-.216c.059 0 .088-.04.088-.116 0-.086-.029-.126-.088-.126-.058 0-.087.04-.087.121s.029.121.087.121m.58-.204h.002c.041-.055.097-.095.176-.095.089 0 .144.056.144.142v.239l.04.04h.057v.067h-.295v-.067h.039l.041-.04v-.231c0-.052-.036-.07-.089-.07-.052 0-.113.055-.113.144v.158l.041.04h.04v.067h-.297v-.068h.058l.04-.04v-.456l-.04-.04h-.058v-.066h.217v.276zm.413-.013v-.064c.103-.007.129-.098.139-.19h.063v.188h.133v.067h-.13v.298l.039.033.043-.058v-.09h.066v.085c0 .105-.059.152-.138.152-.076 0-.129-.031-.129-.112v-.309h-.086zm.481.221c.02.089.082.133.171.133l.079-.061c0-.1-.319-.043-.319-.224 0-.101.096-.151.185-.151l.148.05.021-.035h.056v.169h-.066c-.024-.073-.072-.111-.149-.111l-.077.055c0 .079.318.042.318.227 0 .106-.089.149-.185.149-.061 0-.121-.01-.168-.052l-.021.037h-.066v-.186h.073zm.536.002l-.038-.354-.007-.073c0-.046.022-.082.071-.082.057 0 .08.036.08.082l-.007.073-.046.354h-.053zm.031.052l.075.075-.075.075-.076-.075.076-.075"/><g fill="#387A45"><path d="M38.271 27.031l.336.252h.042l1.05-.084.084.126v.126c0 .14-.027.21-.084.21-.728 0-1.092.057-1.092.168l.084 2.27c0 .133-.07.272-.21.42h-.168c-.069 0-.111-.056-.127-.168l-.042-2.479h-.084l-1.134.084h-.084c-.124 0-.222-.069-.295-.21 0-.168.337-.252 1.009-.252.364 0 .546-.098.546-.294l.169-.169zM40.466 27.199c.14 0 .252.182.336.546.226.204.464.638.714 1.303.084 0 .126.168.126.504l.337.925v.042l-.084.084h-.127c-.113 0-.296-.364-.546-1.093h-.042c-.616.049-.924.189-.924.421-.04.504-.109.756-.211.756h-.126c-.063 0-.119-.098-.168-.294.317-1.998.527-3.049.63-3.151h.085v-.043zm.084.967l-.126 1.05.63-.084v-.084c-.188-.588-.329-.882-.42-.882h-.084zM42.476 27.913h.126c.168 0 .294.729.378 2.186l.042.21c-.055.127-.11.197-.168.21h-.084c-.163 0-.303-.841-.421-2.521l.127-.085zM44.964 27.451c.645 0 .966.238.966.715 0 .392-.294.798-.882 1.218l-.63.168.042.883-.127.084h-.084c-.195 0-.294-.813-.294-2.437h-.042l-.336.21-.126-.126h-.042c.066-.346.583-.584 1.555-.715zm-.589.504v.084l.043 1.135c.756-.123 1.134-.445 1.134-.966v-.042c0-.153-.084-.266-.252-.337h-.588c-.208 0-.319.042-.337.126zM47.803 27.889c.14.035.21.077.21.126v.042c0 .103-.406.271-1.219.504v.378l.042.042v.042l.672-.084c.337.021.505.063.505.126 0 .075-.393.215-1.177.421v.042c0 .504.084.756.252.756h.042c.288 0 .694-.126 1.219-.378h.168l.126.126v.042c0 .198-.252.338-.756.42-.243.104-.607.188-1.093.252-.308 0-.462-.798-.462-2.395 0-.209.49-.364 1.471-.462zM49.146 27.913h.126c.168 0 .294.729.378 2.186l.042.21c-.054.127-.11.197-.168.21h-.084c-.162 0-.303-.841-.42-2.521l.126-.085z"/></g><g fill="#B98E27"><path d="M21.865 24.792h-1.716v-.335h1.716v-.166l-1.828.075-.085-.378 1.044-.032.331-.336h-.986v-.335h3.5v.335h-.463c.231.164.469.362.714.597l-.24.24h.096v.335h-1.662v.208h2.195v.399h-4.843v-.399h2.227v-.208zm-2.196-1.966l.075-.075h4.502l.346.17c-.011.273-.075.593-.192.959l-.399-.133c.092-.295.14-.481.144-.56l-.053-.059h-3.963l-.038.038v.634h-.421v-.974zm2.185-1.763h-2.003v-.378h2.003v-.245h.442v.245h1.993v.378h-1.993v.176h1.716v.336h-3.884v-.336h1.726v-.176zm2.04 1.502h-3.644l-.048-.053v-.725l.048-.048h3.643l.054.048v.725l-.053.053zm-3.26-.512l-.01.016v.16l.01.021h2.877l.016-.021v-.16l-.016-.016h-2.877zm2.302 1.567h-1.108l-.277.32 1.54-.048-.234-.176.079-.096zm-.65.837h1.481l-.261-.235-1.22.053v.182zM27.47 22.032h-1.449v-.485h1.449v-1.065h.484v4.971h-.484v-1.327c-.38.259-.812.513-1.295.761l-.277-.399c.544-.284 1.067-.602 1.572-.953v-1.503zm1.614.117c.593-.412 1.057-.78 1.39-1.103l.31.378c-.43.426-.996.865-1.699 1.316v1.896c0 .117.012.193.037.229.05.06.139.09.267.09h.682c.156-.003.263-.048.319-.133.05-.093.075-.399.075-.922l.484.08c.004.703-.044 1.12-.144 1.252-.086.096-.162.154-.229.176-.074.021-.191.032-.352.032h-1.044c-.139-.004-.252-.034-.341-.091-.171-.124-.251-.336-.24-.634v-4.294h.485v1.728zM32.749 25.357l-.469-.075c.341-1.065.506-2.223.495-3.473v-.256h-.415v-.463h.735v-.607h.463v.607h.746v.463h-1.065v.256l-.011.261h.863c.074.004.112.038.112.101.01 1.659-.061 2.664-.214 3.016-.053.124-.117.199-.191.224-.167.067-.434.067-.799 0l.005-.479c.306.054.486.067.544.043l.074-.106c.096-.306.142-1.077.139-2.313l-.054-.021h-.501c-.099 1.333-.251 2.274-.457 2.822zm1.774-3.16l-.378-.282c.185-.203.337-.417.458-.645.092-.185.17-.46.234-.826l.463.064-.09.432h2.077v.463h-2.237c-.084.253-.26.517-.527.794zm1.71 1.018c.319-.195.577-.375.772-.538l.271.384c-.241.206-.543.412-.905.618.245.583.58 1.119 1.007 1.609l-.438.25-.048-.064c-.753-.923-1.155-1.94-1.209-3.052l-.442.043-.042.053v2.322c.291-.081.539-.161.745-.239l.165.432c-.497.206-1.12.369-1.869.49l-.08-.475.575-.106v-2.782c-.007-.075.028-.114.106-.117.668-.032 1.343-.149 2.024-.352l.229.437c-.264.082-.546.149-.848.203l-.106.021c.017.373.048.66.093.863zM39.393 23.354l-.059-.054h-.5v-.463h.905c.078 0 .117.038.117.112v1.295c.021.114.082.231.181.351.1.136.247.24.442.314.192.075.471.105.837.091.909-.015 1.701-.037 2.376-.069l-.123.517c-.842-.007-1.632-.011-2.37-.011-.757 0-1.263-.224-1.519-.671-.043.124-.141.263-.293.415-.156.16-.314.273-.475.342l-.245-.411c.303-.138.501-.273.598-.404.06-.096.103-.21.127-.341v-1.013zm-.352-1.807c.263.125.551.311.863.56l-.271.383c-.33-.256-.609-.437-.837-.543l.245-.4zm.106-1.065c.263.125.551.311.863.559l-.271.384c-.33-.256-.609-.437-.836-.543l.244-.4zm1.701 2.232c-.032.323-.091.63-.176.922-.104.376-.205.646-.304.81l-.442-.102c.395-.764.586-1.609.575-2.536v-.426h-.373v-.421h.64v-.501h.442v.501h.564v.421h-.857v.495h.782c.071.007.107.04.107.096-.032 1.392-.112 2.229-.24 2.509-.057.11-.119.178-.187.202-.152.061-.404.041-.757-.059l.038-.426c.284.078.453.105.506.08l.074-.096c.078-.224.13-.847.155-1.87l-.054-.016h-.451l-.042.417zm1.124-.815l-.352-.245c.273-.313.443-.714.511-1.204l.416.038-.064.389h1.252v.421h-1.39c-.1.23-.225.431-.373.601zm1.304 2.536c-.085.139-.178.234-.276.287-.104.054-.224.078-.362.075-.206-.019-.427-.096-.661-.234l.085-.442c.1.078.21.14.331.187.163.053.289.059.378.016.061-.025.112-.071.154-.138l.048-.166c0-.206-.037-.41-.111-.612h-.9v-.421h.682l-.165-.203-.059-.069.016-.069.512-.554.005-.027-.026-.011h-.714v-.399h1.241l.214.229-.698.751c-.043.046-.037.101.016.165l.117.187h.655v.421h-.469c.133.439.13.782-.013 1.027zM45.158 23.29c-.021-.121-.061-.256-.118-.405l.283-.042c.148-.156.311-.353.484-.591-.252-.263-.508-.476-.768-.639l.219-.362.139.09c.16-.263.311-.554.453-.874l.362.213c-.107.23-.277.533-.512.905l.336.309c.181-.319.313-.628.399-.927l.404.117c-.106.433-.432.991-.975 1.673l.533-.085-.086-.389.389-.064c.114.483.182.843.203 1.081l-.389.038-.038-.24-.293.042v2.354h-.441v-2.285l-.584.081zm.447.319c-.029.615-.082 1.141-.16 1.577l-.389-.075c.103-.554.154-1.07.154-1.55l.395.048zm1.263 1.135l-.373.054-.165-1.162.372-.08.166 1.188zm.575-1.444v2.19h-.442v-4.715c.004-.103.055-.154.154-.154h2.686c.106.003.159.054.159.154v4.182c0 .192-.069.338-.207.438-.171.12-.52.138-1.045.053l-.037-.495c.391.103.634.121.729.053.078-.05.118-.117.118-.202v-1.504h-1.273v.746c0 .075.037.112.111.112h.917v.421h-1.247c-.135 0-.202-.069-.202-.208v-1.071h-.421zm2.116-1.273v-.954l-.038-.032h-2.045l-.032.032v.954h1.166c.175-.398.283-.689.325-.874l.39.16-.166.463-.096.25h.496zm-1.269.852v-.432h-.847v.432h.847zm-.149-1.678c.078.181.141.407.187.676l-.394.091c-.054-.277-.114-.496-.182-.655l.389-.112zm1.418 1.678v-.432h-.848v.432h.848z"/></g><g fill="#D36745"><path d="M21.81 27.031l.336.252h.042l1.051-.084.084.126v.126c0 .14-.028.21-.084.21-.729 0-1.093.057-1.093.168l.084 2.27c0 .133-.07.272-.21.42h-.168c-.069 0-.111-.056-.126-.168l-.042-2.479h-.084l-1.134.084h-.084c-.124 0-.221-.069-.294-.21 0-.168.336-.252 1.009-.252.364 0 .546-.098.546-.294l.167-.169zM24.948 27.877c.209.049.312.23.306.547-.098.236-.303.563-.616.978.407.267.824.45 1.252.552l.075.232c-.025.106-.172.173-.437.198-1.025-.469-1.601-.774-1.726-.919l-.082-.02c-.067.564-.078.921-.033 1.07-.095.151-.169.221-.222.208l-.165-.037c-.144-.033-.123-.805.064-2.313.082-.184.16-.267.232-.249l.081.02.188.302c.366-.362.625-.547.776-.554l.307-.015zm-1.112 1.252l-.008.039c.5-.052.802-.298.905-.736l.047-.204-.163-.04c-.41.161-.671.474-.781.941zM26.949 27.199c.141 0 .253.182.337.546.226.204.464.638.714 1.303.084 0 .126.168.126.504l.337.925v.042l-.085.084h-.126c-.113 0-.296-.364-.546-1.093h-.042c-.616.049-.925.189-.925.421-.039.504-.109.756-.21.756h-.126c-.063 0-.119-.098-.168-.294.317-1.998.527-3.049.63-3.151h.084v-.043zm.085.967l-.127 1.05.631-.084v-.084c-.188-.588-.329-.882-.42-.882h-.084zM29.085 27.367h.042c.12.065.33.527.631 1.387.203.498.357.793.462.883.272-.835.44-1.535.504-2.102l.169-.126c.195.039.294.096.294.168v.084c-.374 1.709-.626 2.647-.757 2.815h-.084v.042c-.224 0-.561-.603-1.009-1.807-.336-.673-.504-1.051-.504-1.135v-.084c.028-.083.112-.125.252-.125zM33.114 27.889c.141.035.211.077.211.126v.042c0 .103-.406.271-1.219.504v.378l.042.042v.042l.672-.084c.336.021.505.063.505.126 0 .075-.393.215-1.177.421v.042c0 .504.084.756.252.756h.042c.287 0 .693-.126 1.219-.378h.168l.126.126v.042c0 .198-.252.338-.757.42-.242.104-.606.188-1.092.252-.309 0-.462-.798-.462-2.395.001-.209.491-.364 1.47-.462zM34.541 27.031c.225 0 .337.35.337 1.051.174 1.288.285 1.933.336 1.933l.252.084.757-.084.126.168v.126c0 .14-.322.21-.967.21-.477 0-.714-.308-.714-.924-.112-1.08-.225-1.864-.337-2.354 0-.112.07-.168.21-.168v-.042z"/></g></g></defs></svg>