<svg id="278270ef-4f9f-4379-9966-be4d3609d789" data-name="圖層 1" xmlns="http://www.w3.org/2000/svg" viewBox="0 0 100 100"><title>traffic-02</title><circle cx="50" cy="50" r="50" style="fill:#419ce0"/><circle cx="50" cy="50" r="45" style="fill:none;stroke:#fff;stroke-miterlimit:10"/><path d="M50.2,33.5a1.3,1.3,0,0,0,1.3,1.3H59a1.3,1.3,0,1,0,0-2.6H51.4A1.3,1.3,0,0,0,50.2,33.5Z" style="fill:#fff"/><path d="M46.8,27.5A1.3,1.3,0,0,0,48,28.8h7.6a1.3,1.3,0,1,0,0-2.6H48A1.3,1.3,0,0,0,46.8,27.5Z" style="fill:#fff"/><polygon points="64.2 48.9 48.5 18.2 44.2 18.2 52.3 48.9 64.2 48.9" style="fill:#dbdbdb"/><rect x="48.9" y="33.5" width="5.1" height="15.32" style="fill:#dbdbdb"/><path d="M50.2,62.6a1.3,1.3,0,0,1,1.3-1.3H59a1.3,1.3,0,1,1,0,2.6H51.4A1.3,1.3,0,0,1,50.2,62.6Z" style="fill:#fff"/><path d="M46.8,68.6A1.3,1.3,0,0,1,48,67.3h7.6a1.3,1.3,0,1,1,0,2.6H48A1.3,1.3,0,0,1,46.8,68.6Z" style="fill:#fff"/><polygon points="64.2 47.3 48.5 77.9 44.2 77.9 52.3 47.3 64.2 47.3" style="fill:#dbdbdb"/><rect x="48.9" y="47.3" width="5.1" height="15.32" style="fill:#dbdbdb"/><polygon points="21.6 61 30.6 48.1 23.1 48.1 19.7 61 21.6 61" style="fill:#dbdbdb"/><polygon points="21.6 35.1 30.6 48.1 23.1 48.1 19.7 35.1 21.6 35.1" style="fill:#dbdbdb"/><path d="M71.6,43,36.8,44h0c-6.1,0-16.3,2.3-16.3,4.1s10.1,4.1,16.3,4.1l34.8,1c8.5,0,15.3-2.3,15.3-5.1S80.1,43,71.6,43Z" style="fill:#fff"/><path d="M77.9,51.5c1.7-.9,2.7-2.1,2.7-3.5s-1-2.6-2.7-3.5a6,6,0,0,1,0,6.9Z" style="fill:#94d8e8"/><path d="M77.9,44.6c1.7.9,2.7,2.1,2.7,3.5s-1,2.5-2.7,3.5a6,6,0,0,0,0-6.9Z" style="fill:#545454"/></svg>