<svg id="b9e6d986-8786-4cca-b79f-51886a3f5812" data-name="圖層 1" xmlns="http://www.w3.org/2000/svg" viewBox="0 0 100 100"><title>traffic-04</title><path d="M100,50A50,50,0,1,1,50,0,50,50,0,0,1,100,50Z" style="fill:#fff"/><circle cx="50" cy="50" r="45" style="fill:none;stroke:#f7d237;stroke-miterlimit:10"/><path d="M13.8,58.6a23.2,23.2,0,0,1,7.1-6.1c4.7-2.7,6.5-3.1,8.9-3.6s3.1-.5,3.1.5-1.5,2.1-3.9,2.7-5.6.9-8.3,2.3A67.8,67.8,0,0,0,13.8,58.6Z" style="fill:#fc531a"/><path d="M11.6,64a23.3,23.3,0,0,1,7.3-5.8c4.8-2.5,6.7-2.8,9-3.2s3.1-.3,3.1.6-1.5,2-4,2.5-5.6.7-8.4,2A67.7,67.7,0,0,0,11.6,64Z" style="fill:#fc531a"/><path d="M15.1,53.4a30.8,30.8,0,0,1,7.4-6.6c4.4-2.8,6.5-3.5,8.9-3.9s3-.6,3,.4-2,2.4-4.3,3-4.6.9-7.3,2.3A80,80,0,0,0,15.1,53.4Z" style="fill:#fc531a"/><path d="M28.6,37.4S35.2,32,41.7,30s14.5-1.9,20.2-.5c4,.9,12.4,4.1,11.7,4.8s-9.3-2.3-18.2-2.5c-11-.2-15.5,1.3-18.5,2.2A79.7,79.7,0,0,0,28.6,37.4Z" style="fill:#fc531a"/><path d="M17.5,47.4a26.3,26.3,0,0,1,3.4-4.3,22.5,22.5,0,0,1,4.3-3.7c1-.7,1.8-1,1.9-.5a4.2,4.2,0,0,1-2,3.2l-3.7,2.2A33.2,33.2,0,0,0,17.5,47.4Z" style="fill:#fc531a"/><path d="M59.1,41a26.4,26.4,0,0,1,5.5-.2A55.8,55.8,0,0,1,79.3,43c5.3,1.7,10.8,1.4,9.3,2-7.4,2.8-15.5-.3-17.2-.8s-4.4-1.6-6.3-2.1Z" style="fill:#979487"/><path d="M47.9,46.6a55.8,55.8,0,0,1,7.7-.4,95.1,95.1,0,0,1,15.2,2.3c8.7,2.6,15.4,3.9,13.7,4.4-7.2,2.2-17.2-1.8-19.3-2.5s-6.6-1.6-9.1-2.3S49.2,46.9,47.9,46.6Z" style="fill:#979487"/><path d="M45.4,52.5a55.7,55.7,0,0,1,7.7.1,95.2,95.2,0,0,1,15,3.3c8.5,3.2,15.1,4.9,13.3,5.3-7.4,1.7-17-3-19.1-3.8s-6.5-2.1-8.9-2.9S46.6,52.9,45.4,52.5Z" style="fill:#979487"/><path d="M43.1,58.5a53.1,53.1,0,0,1,7.5.5,88.7,88.7,0,0,1,14.3,4c7.9,3.5,14.2,5.6,12.4,5.9-7.3,1.2-16.2-3.8-18.1-4.7s-6.1-2.4-8.3-3.3S44.3,58.9,43.1,58.5Z" style="fill:#979487"/></svg>