<svg id="fe8d7d5b-1a35-43b9-a14d-78f3b4de8483" data-name="圖層 1" xmlns="http://www.w3.org/2000/svg" viewBox="0 0 100 100"><title>traffic-03</title><circle cx="50" cy="50" r="50" style="fill:#fff"/><circle cx="50" cy="50" r="45" style="fill:none;stroke:#f7d237;stroke-miterlimit:10"/><path d="M52.5,19.2h1l4.7,1.1C69.9,23.4,79.3,34,80.6,45.6h-28v4.6H81.1v2.7c-.1.4-.3.8-.4,1.3C78.3,67,71,75.5,58.5,79.5c-1.9.6-4,.9-6,1.3h-5l-1.1-.3c-12.9-1.9-21.5-9-25.8-21.2-.7-2.1-1.1-4.3-1.7-6.4V50.2H47.4V45.5H19.2c2.6-12.5,9.5-20.8,21.4-24.9,1.9-.6,3.9-1,5.8-1.4h1v5.5c-9.9,1.5-16.9,6.7-21.1,15.9h21c.2-2.6-.5-4.1-3.2-5.2s-3.2-2.5-2.8-4.9c0-.3-.1-.6,0-.8s.6-1.2,1-1.4a21.8,21.8,0,0,1,14.9,0,2,2,0,0,1,1,1.4c.4,2.7.1,4.8-3,6s-3.2,2.6-2.8,5H73.6c-4.2-9.3-11.3-14.4-21.1-15.9C52.5,22.8,52.5,21,52.5,19.2ZM74.7,54.9h-22c-.5,4.9-.4,5.3,3.8,6.6l10.7,3.3v2.7H32.8V64.8l1.6-.5c3.5-1.1,7.1-2.1,10.5-3.3a4.4,4.4,0,0,0,2.5-2.1c.4-1.2.1-2.6.1-4H25.3c.2,9.4,12.4,19.8,23.1,20.2C64.1,75.8,73.5,63.7,74.7,54.9Z" transform="translate(0 0)" style="fill:#0a51a0"/></svg>