<svg id="c790395b-a8c4-4392-a64c-a667b1612caf" data-name="圖層 1" xmlns="http://www.w3.org/2000/svg" xmlns:xlink="http://www.w3.org/1999/xlink" viewBox="0 0 100 100"><defs><clipPath id="95260f1c-3634-4ca2-9bf9-ebaaca5835db" transform="translate(0 0)"><rect x="56.7" y="61.1" width="15.6" height="3.21" style="fill:none"/></clipPath><clipPath id="41753208-299c-4e93-b5a1-4536799f2a7c" transform="translate(0 0)"><rect x="59.9" y="61.1" width="9.7" height="0.64" style="fill:none"/></clipPath><clipPath id="bf07f820-42bf-4a26-af71-54e46e919490" transform="translate(0 0)"><rect x="17.4" y="61.1" width="17.3" height="3.21" style="fill:none"/></clipPath><clipPath id="fda7defd-516f-4fa5-a015-8a343e367b16" transform="translate(0 0)"><rect x="20.5" y="61.1" width="9.7" height="0.64" style="fill:none"/></clipPath><clipPath id="d3f62146-5881-4313-a8a8-0734b530e79c" transform="translate(0 0)"><rect x="83.9" y="38" width="0.5" height="1.92" style="fill:none"/></clipPath></defs><title>traffic-05</title><circle cx="50" cy="50" r="50" style="fill:#aedd47"/><circle cx="50" cy="50" r="45" style="fill:none;stroke:#fff;stroke-miterlimit:10"/><rect x="56.7" y="61.1" width="15.2" height="3.21" style="fill:#404040"/><rect id="47888f58-d7d7-467d-8b4e-e35515bebd6e" data-name="SVGID" x="56.7" y="61.1" width="15.6" height="3.21" style="fill:#404040"/><g style="clip-path:url(#95260f1c-3634-4ca2-9bf9-ebaaca5835db)"><rect x="56.7" y="61.1" width="27.1" height="3.21" style="fill:#404040"/></g><path d="M58.3,65.9a6.4,6.4,0,1,0,6.4-6.4,6.4,6.4,0,0,0-6.4,6.4" transform="translate(0 0)" style="fill:#545454"/><path d="M64.8,69.7a3.8,3.8,0,1,0-3.8-3.8,3.9,3.9,0,0,0,3.8,3.8" transform="translate(0 0)" style="fill:#c7e2e2"/><g style="opacity:0.20000000298023224"><g style="clip-path:url(#41753208-299c-4e93-b5a1-4536799f2a7c)"><path d="M60.5,61.1H69l.6.6H59.9l.6-.6" transform="translate(0 0)"/></g></g><rect x="17.4" y="61.1" width="17.3" height="3.21" style="fill:#404040"/><rect id="d48bb3ee-f1c2-4a58-9d02-3569dd648499" data-name="SVGID" x="17.4" y="61.1" width="17.3" height="3.21" style="fill:#404040"/><g style="clip-path:url(#bf07f820-42bf-4a26-af71-54e46e919490)"><rect x="17.4" y="61.1" width="17.3" height="3.21" style="fill:#404040"/></g><path d="M19,65.9a6.4,6.4,0,1,0,6.4-6.4A6.4,6.4,0,0,0,19,65.9" transform="translate(0 0)" style="fill:#545454"/><path d="M25.4,69.7a3.8,3.8,0,1,0-3.8-3.8,3.9,3.9,0,0,0,3.8,3.8" transform="translate(0 0)" style="fill:#c7e2e2"/><g style="opacity:0.20000000298023224"><g style="clip-path:url(#fda7defd-516f-4fa5-a015-8a343e367b16)"><path d="M21.1,61.1h8.5l.6.6H20.5l.6-.6" transform="translate(0 0)"/></g></g><path d="M80.9,30.8H14.6a2.4,2.4,0,0,0-2.4,2.4V57.8H86.7V56.2c0-.7-1.4-18.5-3.5-23.9a2.4,2.4,0,0,0-2.2-1.5" transform="translate(0 0)" style="fill:#fff"/><path d="M12.2,55V65.9h5.9l1.2-3.4a2,2,0,0,1,1.9-1.4h8.5a2,2,0,0,1,1.9,1.4l1.1,3.4H57.5l1.1-3.4a2,2,0,0,1,1.9-1.4H69a2,2,0,0,1,1.9,1.4l1.2,3.4H86.7v-8L72,55Z" transform="translate(0 0)" style="fill:#c779d3"/><polygon points="86.7 57.4 86.7 57.8 82.6 54.9 72 54.3 12.2 54.3 12.2 53.2 72 53.2 82.4 53.6 86.7 57.4"/><polygon points="86.7 57 82.9 52.2 71.8 51.9 12.2 51.9 12.2 49.4 71.7 49.4 82.4 50.2 86.7 56.5 86.7 57" style="fill:#c779d3"/><path d="M13.1,31.2H82.4a2.5,2.5,0,0,0-1.4-.5H14.4a2.4,2.4,0,0,0-1.3.5" transform="translate(0 0)" style="fill:#c779d3"/><path d="M83.6,65.9H87a1.3,1.3,0,0,0,1.3-1.3v-.7A1.3,1.3,0,0,0,87,62.7H83.6a1.3,1.3,0,0,0-1.3,1.3v.7a1.3,1.3,0,0,0,1.3,1.3" transform="translate(0 0)" style="fill:#404040"/><path d="M22.2,33.8H12.2V47.1H22.2a1.2,1.2,0,0,0,1.3-1.2V35a1.2,1.2,0,0,0-1.3-1.2" transform="translate(0 0)" style="fill:#419ce0;stroke:#535353;stroke-miterlimit:10;stroke-width:0.4438000023365021px"/><path d="M32.9,33.8H26.6A1.2,1.2,0,0,0,25.4,35V45.9a1.2,1.2,0,0,0,1.2,1.2h6.3a1.2,1.2,0,0,0,1.2-1.2V35a1.2,1.2,0,0,0-1.2-1.2" transform="translate(0 0)" style="fill:#419ce0;stroke:#535353;stroke-miterlimit:10;stroke-width:0.4438000023365021px"/><path d="M57.3,33.8h-10A1.3,1.3,0,0,0,46,35V45.9a1.3,1.3,0,0,0,1.3,1.2h10a1.3,1.3,0,0,0,1.3-1.2V35a1.3,1.3,0,0,0-1.3-1.2" transform="translate(0 0)" style="fill:#419ce0;stroke:#535353;stroke-miterlimit:10;stroke-width:0.4438000023365021px"/><path d="M70.3,33.8H61.9A1.3,1.3,0,0,0,60.6,35V45.9a1.3,1.3,0,0,0,1.3,1.2h8.4a1.3,1.3,0,0,0,1.3-1.2V35a1.3,1.3,0,0,0-1.3-1.2" transform="translate(0 0)" style="fill:#419ce0;stroke:#535353;stroke-miterlimit:10;stroke-width:0.4438000023365021px"/><path d="M83.5,33.8c-.2-.4-.6.5-.6,1.2V45.9a1.3,1.3,0,0,0,1.3,1.2h.2c.7,0,1.2-.1,1.2-.8S84.3,35.5,83.5,33.8Z" transform="translate(0 0)" style="fill:#419ce0;stroke:#535353;stroke-miterlimit:10;stroke-width:0.4438000023365021px"/><path d="M85.7,38H84.3v6.4h1.3a1.9,1.9,0,0,0,1.9-1.9V39.9A1.9,1.9,0,0,0,85.7,38" transform="translate(0 0)" style="fill:#68c1c1"/><polygon points="84.3 39.9 82.5 39.9 82.2 38 84.3 38 84.3 39.9" style="fill:#68c1c1"/><g style="opacity:0.20000000298023224"><g style="clip-path:url(#d3f62146-5881-4313-a8a8-0734b530e79c)"><rect x="83.9" y="38" width="0.5" height="1.92"/></g></g><path d="M81.1,36.3H73.4c-.4,0-.8.6-.8,1.3V65.4h9.3V37.6c0-.7-.4-1.3-.8-1.3" transform="translate(0 0)" style="fill:#fff;stroke:#535353;stroke-miterlimit:10;stroke-width:0.45890000462532043px"/><line x1="77.3" y1="36.3" x2="77.3" y2="65.4" style="fill:none;stroke:#535353;stroke-miterlimit:10;stroke-width:0.45890000462532043px"/><path d="M75.9,37.6H74c-.2,0-.4.4-.4,1v9c0,.5.2,1,.4,1h2c.2,0,.4-.4.4-1v-9c0-.5-.2-1-.4-1" transform="translate(0 0)" style="fill:#419ce0;stroke:#535353;stroke-miterlimit:10;stroke-width:0.26750001311302185px"/><path d="M80.5,37.6h-2c-.2,0-.4.4-.4,1v9c0,.5.2,1,.4,1h2c.2,0,.4-.4.4-1v-9c0-.5-.2-1-.4-1" transform="translate(0 0)" style="fill:#419ce0;stroke:#535353;stroke-miterlimit:10;stroke-width:0.26750001311302185px"/><path d="M75.9,53H74c-.2,0-.4.4-.4,1v9c0,.5.2,1,.4,1h2c.2,0,.4-.4.4-1V54c0-.5-.2-1-.4-1" transform="translate(0 0)" style="fill:#419ce0;stroke:#535353;stroke-miterlimit:10;stroke-width:0.26750001311302185px"/><path d="M80.5,53h-2c-.2,0-.4.4-.4,1v9c0,.5.2,1,.4,1h2c.2,0,.4-.4.4-1V54c0-.5-.2-1-.4-1" transform="translate(0 0)" style="fill:#419ce0;stroke:#535353;stroke-miterlimit:10;stroke-width:0.26750001311302185px"/><path d="M43.8,36.3H36.2c-.4,0-.8.6-.8,1.3V65.4h9.3V37.6c0-.7-.4-1.3-.8-1.3" transform="translate(0 0)" style="fill:#fff;stroke:#535353;stroke-miterlimit:10;stroke-width:0.45890000462532043px"/><line x1="40" y1="36.3" x2="40" y2="65.4" style="fill:none;stroke:#535353;stroke-miterlimit:10;stroke-width:0.45890000462532043px"/><path d="M38.6,37.6h-2c-.2,0-.4.4-.4,1v9c0,.5.2,1,.4,1h2c.2,0,.4-.4.4-1v-9c0-.5-.2-1-.4-1" transform="translate(0 0)" style="fill:#419ce0;stroke:#535353;stroke-miterlimit:10;stroke-width:0.26750001311302185px"/><path d="M43.2,37.6h-2c-.2,0-.4.4-.4,1v9c0,.5.2,1,.4,1h2c.2,0,.4-.4.4-1v-9c0-.5-.2-1-.4-1" transform="translate(0 0)" style="fill:#419ce0;stroke:#535353;stroke-miterlimit:10;stroke-width:0.26750001311302185px"/><path d="M38.6,53h-2c-.2,0-.4.4-.4,1v9c0,.5.2,1,.4,1h2c.2,0,.4-.4.4-1V54c0-.5-.2-1-.4-1" transform="translate(0 0)" style="fill:#419ce0;stroke:#535353;stroke-miterlimit:10;stroke-width:0.26750001311302185px"/><path d="M43.2,53h-2c-.2,0-.4.4-.4,1v9c0,.5.2,1,.4,1h2c.2,0,.4-.4.4-1V54c0-.5-.2-1-.4-1" transform="translate(0 0)" style="fill:#419ce0;stroke:#535353;stroke-miterlimit:10;stroke-width:0.26750001311302185px"/></svg>