<svg xmlns="http://www.w3.org/2000/svg" viewBox="0 0 100 100"><title>daytour-02</title><g style="isolation:isolate"><g id="3ed740d8-a7df-407a-bfd3-7745ce156511" data-name="圖層 1"><circle cx="50" cy="50" r="39.8" style="fill:#f5f8f6"/><path d="M35.5,8.4a.9.9,0,0,1-.9-.9V3.8a.9.9,0,1,1,1.8,0V7.4A.9.9,0,0,1,35.5,8.4Z" style="fill:#ffb93e"/><path d="M35.5,30.1a.9.9,0,0,1-.9-.9V25.6a.9.9,0,1,1,1.8,0v3.6A.9.9,0,0,1,35.5,30.1Z" style="fill:#ffb93e"/><path d="M26.5,17.4H22.9a.9.9,0,1,1,0-1.8h3.6a.9.9,0,1,1,0,1.8Z" style="fill:#ffb93e"/><path d="M48.2,17.4H44.6a.9.9,0,1,1,0-1.8h3.6a.9.9,0,0,1,0,1.8Z" style="fill:#ffb93e"/><path d="M35.5,8.4a.9.9,0,0,1-.9-.9V3.8a.9.9,0,1,1,1.8,0V7.4A.9.9,0,0,1,35.5,8.4Z" style="fill:#ffb93e"/><path d="M35.5,30.1a.9.9,0,0,1-.9-.9V25.6a.9.9,0,1,1,1.8,0v3.6A.9.9,0,0,1,35.5,30.1Z" style="fill:#ffb93e"/><path d="M26.5,17.4H22.9a.9.9,0,1,1,0-1.8h3.6a.9.9,0,1,1,0,1.8Z" style="fill:#ffb93e"/><path d="M48.2,17.4H44.6a.9.9,0,1,1,0-1.8h3.6a.9.9,0,0,1,0,1.8Z" style="fill:#ffb93e"/><path d="M31,9.6a.9.9,0,0,1-.8-.5L28.4,6A.9.9,0,1,1,30,5.1l1.8,3.1a.9.9,0,0,1-.3,1.2Z" style="fill:#ffb93e"/><path d="M41.9,28.4a.9.9,0,0,1-.8-.5l-1.8-3.1a.9.9,0,1,1,1.6-.9L42.7,27a.9.9,0,0,1-.3,1.2Z" style="fill:#ffb93e"/><path d="M24.6,23.8a.9.9,0,0,1-.5-1.7l3.1-1.8a.9.9,0,0,1,.9,1.6L25,23.6Z" style="fill:#ffb93e"/><path d="M43.4,12.9a.9.9,0,0,1-.5-1.7l3.1-1.8A.9.9,0,1,1,47,11l-3.1,1.8Z" style="fill:#ffb93e"/><path d="M27.7,12.9h-.5L24.1,11A.9.9,0,1,1,25,9.4l3.1,1.8a.9.9,0,0,1-.5,1.7Z" style="fill:#ffb93e"/><path d="M46.5,23.8h-.5l-3.1-1.8a.9.9,0,0,1,.9-1.6L47,22.1a.9.9,0,0,1-.5,1.7Z" style="fill:#ffb93e"/><path d="M29.2,28.4h-.5a.9.9,0,0,1-.3-1.2l1.8-3.1a.9.9,0,0,1,1.6.9L30,28A.9.9,0,0,1,29.2,28.4Z" style="fill:#ffb93e"/><path d="M40.1,9.6h-.5a.9.9,0,0,1-.3-1.2l1.8-3.1a.9.9,0,1,1,1.6.9L40.9,9.1A.9.9,0,0,1,40.1,9.6Z" style="fill:#ffb93e"/><circle cx="35.5" cy="16.5" r="6.6" style="fill:#ffb93e"/><path d="M70.5,18.5a4,4,0,0,1,7.1-2.8l1.2-.3a3,3,0,0,1,3,3h0a3,3,0,0,1-.7,5.9H71.1a3,3,0,0,1-.6-5.9Z" style="fill:#d2f6f9"/><path d="M15.7,32.9a4,4,0,0,1,7.1-2.8l1.2-.3a3,3,0,0,1,3,3h0a3,3,0,0,1-.7,5.9H16.3a3,3,0,0,1-.6-5.9Z" style="fill:#d2f6f9"/><polygon points="79.6 88.8 97.1 94.5 4.2 94.5 24.7 88.8 79.6 88.8" style="fill:#5ca06a"/><path d="M72.6,70.8a11.4,11.4,0,0,0-10.5,6.9,7.7,7.7,0,0,0-3.2-.7,7.8,7.8,0,0,0-5,1.8,8.9,8.9,0,0,0-14.9,0,7.8,7.8,0,0,0-5.1-1.9H32.6a11.3,11.3,0,1,0-3.3,14.1,7.7,7.7,0,0,0,4.5,1.4,7.8,7.8,0,0,0,6-2.8,8.9,8.9,0,0,0,13,0,7.8,7.8,0,0,0,11.6.4,11.4,11.4,0,1,0,8.1-19.5Z" style="fill:#78c348"/><path d="M22.5,93.4a11.2,11.2,0,0,0,6.8-2.2,7.7,7.7,0,0,0,4.5,1.4,7.8,7.8,0,0,0,6-2.8,8.9,8.9,0,0,0,13,0,7.8,7.8,0,0,0,11.6.4h.1a11.3,11.3,0,0,0,14.6,1.2h.2a11.4,11.4,0,0,0,4.6-8.1,8.8,8.8,0,0,1-8-.6,11.3,11.3,0,0,1-14.6-1.2,7.8,7.8,0,0,1-11.7-.3,8.9,8.9,0,0,1-13,0,7.8,7.8,0,0,1-6,2.8A7.7,7.7,0,0,1,26,82.6a11.3,11.3,0,0,1-14.8-1.1c0,.2,0,.4,0,.6h0A11.3,11.3,0,0,0,22.5,93.4Z" style="fill:#666;opacity:0.15;mix-blend-mode:multiply"/><line x1="4" y1="95.5" x2="96.5" y2="95.5" style="fill:none;stroke:#c6e288;stroke-linecap:round;stroke-miterlimit:10;stroke-width:2px"/><path d="M51.3,65.8a1.1,1.1,0,0,1-.1-2.2l9-1.1a1.1,1.1,0,1,1,.3,2.2l-9,1.1Z" style="fill:#fdd09c"/><path d="M67.3,92.1a.4.4,0,0,0,.7.1l4.5-3.9a.4.4,0,0,0,0-.6L70.1,85l-2.7,2.3.9,1.1-.9,1.2a2.2,2.2,0,0,0-.2,2.3Z" style="fill:#a97c50"/><path d="M67.3,92.1a.4.4,0,0,0,.7.1l4.5-3.9a.4.4,0,0,0,0-.6l-.2-.2L67.2,92Z" style="fill:#603913"/><path d="M53.5,94.3a.4.4,0,0,0,.4.5h5.9a.4.4,0,0,0,.4-.4V90.8H56.7v1.4l-1.5.3a2.2,2.2,0,0,0-1.7,1.6Z" style="fill:#a97c50"/><path d="M53.5,94.3a.4.4,0,0,0,.4.5h5.9a.4.4,0,0,0,.4-.4v-.2H53.6Z" style="fill:#603913"/><path d="M67.3,87.6l-4.2-5a9.3,9.3,0,0,1-2-4.3l-1.3-7.2,4-.7,1.3,7.2A5.3,5.3,0,0,0,66.2,80l4.2,5Z" style="fill:#eacad2"/><path d="M56.5,91.3,56,82.4a10.1,10.1,0,0,1,.2-2.7l2.4-11.2,4,.8L60.1,80.5a6.1,6.1,0,0,0-.1,1.6l.6,8.9Z" style="fill:#eacad2"/><path d="M57.6,69l-.7,5.4c0,.2.9.1,1.1.1h4.9a2.6,2.6,0,0,0,2.4-1.6,5.7,5.7,0,0,0-.2-3.8l-.2-.4c0-.2,0-.7-.2-.7H57.9C57.7,68,57.6,68.8,57.6,69Z" style="fill:#eacad2"/><path d="M62.5,42.6l2.5.8a4.3,4.3,0,0,1,2.9,5.4l-.2.6A6.1,6.1,0,0,1,64,53.3l-1.1.4Z" style="fill:#67443e"/><path d="M58.2,44.9h3.2a3,3,0,0,1,3,3v4.6a0,0,0,0,1,0,0H58.2a0,0,0,0,1,0,0V44.9a0,0,0,0,1,0,0Z" transform="translate(105.5 113.3) rotate(-162.9)" style="fill:#fdd09c"/><rect x="60.9" y="50.6" width="2.3" height="4.52" transform="translate(123.3 106.6) rotate(-179.2)" style="fill:#fdd09c"/><path d="M57.6,68.6h7.4v-11c0-1.1-.7-3.3-1.7-3.3H60.1c-2.3,2.8-3.2,3.5-3.7,4.8s.8,3,.8,3.2Z" style="fill:#f991a5"/><polygon points="63.3 53.1 63.8 54.5 59.1 55 60.1 53.4 63.3 53.1" style="fill:#ffffe3"/><path d="M64.9,66c0-.1-.1-1.8-.1-1.8l-.7-2.8h0l-1.3-5a1.4,1.4,0,1,0-2.6.7l1.2,4.5h.1l.7,2.8,1,9.1a.8.8,0,0,0,.4.7c.6.2,1.7-1.3,1.7-1.9l-.6-3.5Z" style="fill:#d8d8d8;mix-blend-mode:multiply"/><path d="M63,62.1H60.4l-1.1-5.3a1.3,1.3,0,0,1,2.5-.5Z" style="fill:#d3a581"/><path d="M64,73.2a1.3,1.3,0,0,1-1.2,1.4h-.1a1.3,1.3,0,0,1-1.3-1.2l-.6-9.1-.4-2.1H63l.3,1.7V64Z" style="fill:#fdd09c"/><path d="M59.8,61.7l-1-4.8a1.7,1.7,0,0,1,1.3-2h.4a1.7,1.7,0,0,1,1.7,1.4l1.2,5.5Z" style="fill:#ffffe3"/><path d="M58.7,44.1c-1,2.9,1.9,2.3,1.9,2.3l-.7,2.2L61,47.6l4.3,1.8.4-5.2S60.1,40,58.7,44.1Z" style="fill:#67443e"/><path d="M60.9,47.5l3.9-4.2a4.3,4.3,0,0,1,2.9,5.4l-.2.6c-.5,1.6-2.6,2.7-4,3.4a.9.9,0,0,1-1.1-.2l-.7-2a3.1,3.1,0,0,0,.6-2.8l-1.5.2C60.6,47.9,60.7,47.7,60.9,47.5Z" style="fill:#67443e"/><circle cx="61.6" cy="48.7" r="1.2" transform="translate(-3.1 93.3) rotate(-72.9)" style="fill:#fdd09c"/><path d="M51.3,62.5l1.1.9-.4.6-.8-.7S50.5,62.6,51.3,62.5Z" style="fill:#fdd09c"/><ellipse cx="66.3" cy="45.7" rx="1.7" ry="1.5" transform="translate(8.6 101.8) rotate(-78.8)" style="fill:#ff8500"/><path d="M65.4,48.5v-.2c0-5.2,3.7-5.2,3.2-2.1V47l-.2,1.3a13.3,13.3,0,0,0,.7,4c.2,2.7-.8,3.7-1.2,5.9-.1.6.7,1.2.7,1.2s-1.8-.2-1.9-1.5-.1-1.9-.2-3a9,9,0,0,0-.2-1.3l-.2-.5A15.6,15.6,0,0,1,65.4,48.5Z" style="fill:#67443e"/><path d="M47.3,94.2a1.7,1.7,0,0,1-1.7-1.3l-2.1-8.9v-.3l-.8-9.2a1.7,1.7,0,1,1,3.5-.3l.8,9.1L49,92.1a1.7,1.7,0,0,1-1.3,2.1Z" style="fill:#fdd09c"/><path d="M42.4,95.2a.4.4,0,0,0,.5.4L49,94.4a.4.4,0,0,0,.4-.5l-.7-3.7L45,91l.3,1.5-1.4.6a2.3,2.3,0,0,0-1.4,2Z" style="fill:#4c3622"/><path d="M42.4,95.2a.4.4,0,0,0,.5.4L49,94.4a.4.4,0,0,0,.4-.5v-.2L42.4,95Z" style="fill:#3f3222"/><path d="M40.8,95.3a1.7,1.7,0,0,1-1.7-1.7l-.3-11.6a1.7,1.7,0,0,1,0-.2l.7-8.5a1.7,1.7,0,1,1,3.5.3l-.7,8.4.3,11.6a1.7,1.7,0,0,1-1.7,1.8Z" style="fill:#fdd09c"/><path d="M46.9,83.2v-.3H43.4v1l.5,1.9h3.6Z" style="fill:#d3a581"/><polygon points="38.8 83 38.9 85.8 42.4 85.8 42.3 83 38.8 83" style="fill:#d3a581"/><path d="M43.4,58.3h-.3l-6.2-1.5A1.3,1.3,0,0,1,36,56l-3.5-7.9A1.3,1.3,0,0,1,35,47l3.2,7.3,5.5,1.4a1.3,1.3,0,0,1-.3,2.7Z" style="fill:#fdd09c"/><path d="M39.9,69.1S38.8,71,39,75.5h7.5V68.7Z" style="fill:#f4e482"/><path d="M44.5,42.7s3.5-.4,5,1.1,1,5.2,1,5.2l-.2.6c-.6,1.9-2.2,5.2-4.1,5.9L41,57.3c1-1.6,3.3-9.5,3.6-14.6" style="fill:#3c2415"/><path d="M35.6,95.7a.4.4,0,0,0,.4.5h6.2a.4.4,0,0,0,.4-.4V92.1H38.9v1.5l-1.5.3a2.3,2.3,0,0,0-1.8,1.7Z" style="fill:#6d4f33"/><path d="M35.6,95.7a.4.4,0,0,0,.4.5h6.2a.4.4,0,0,0,.4-.4v-.3h-7Z" style="fill:#3f3222"/><path d="M40.3,44.9h3.3a3.1,3.1,0,0,1,3.1,3.1v4.8a0,0,0,0,1,0,0H40.3a0,0,0,0,1,0,0v-8A0,0,0,0,1,40.3,44.9Z" transform="translate(70.7 108.4) rotate(-162.9)" style="fill:#fdd09c"/><rect x="43.1" y="50.9" width="2.4" height="4.74" transform="translate(87.9 107.1) rotate(-179.2)" style="fill:#fdd09c"/><path d="M39.4,69.6h7.7l-.6-3.9.6-9.6a2,2,0,0,0-2-2H42.8l-3.3,3.7c-1.3,1.2-.6,2.8.5,3.8l.4,4.1Z" style="fill:#9b7ce0"/><path d="M44.5,42.7s3.5-.4,5,1.1,1,5.2,1,5.2l-.2.6c-.6,1.9-1.8,11.2-.5,12.7l-2.1-1.9c-4.8-3.6,5.7-11-3.1-17.7" style="fill:#3c2415"/><circle cx="47" cy="49.8" r="1.3" transform="translate(-14.5 80) rotate(-72.9)" style="fill:#fdd09c"/><path d="M40.8,45.3c0,.9,1.6,1.6,5,2.1L45,49.9l2.3-1.3,1-3.3-3-2.6S42,42.4,40.8,45.3Z" style="fill:#3c2415"/><polygon points="45.6 53.6 42.6 54 41.8 56.2 46.2 54.5 45.6 53.6" style="fill:#f4e482"/><rect x="40.3" y="65" width="2.6" height="1.27" style="fill:#f4e482"/><rect x="43.6" y="65" width="2.4" height="1.27" style="fill:#f4e482"/><path d="M45.1,74h-.2a1.3,1.3,0,0,1-1-1.6l1.7-7.5h0l-2.3-6.5a1.3,1.3,0,1,1,2.5-.9l2.3,6.5a2.9,2.9,0,0,1,.1,1.6l-1.7,7.5A1.3,1.3,0,0,1,45.1,74Z" style="fill:#b2d5e7;mix-blend-mode:multiply"/><path d="M43.9,71.7h3.8a.5.5,0,0,1,.5.5v1.6a.5.5,0,1,1-.9,0V72.7H44.3v1.2a.5.5,0,1,1-.9,0V72.2A.5.5,0,0,1,43.9,71.7Z" style="fill:#6b4a26"/><path d="M54.2,82.4h.4V75.7h-.4a1.5,1.5,0,0,1-1.5-1.9H38.9a1.5,1.5,0,0,1-1.5,1.9H37v6.8h.4a1.5,1.5,0,0,1,1.5,2H52.7a1.5,1.5,0,0,1,1.5-2Z" style="fill:#996a56"/><path d="M54.6,83.1v-.6h-.4a1.5,1.5,0,0,0-1.5,2h.5A1.4,1.4,0,0,0,54.6,83.1Z" style="fill:#f2f2f2"/><path d="M37.4,82.4H37v.6a1.4,1.4,0,0,0,1.4,1.4h.5a1.5,1.5,0,0,0-1.5-2Z" style="fill:#f2f2f2"/><path d="M54.2,75.8h.4v-.5a1.4,1.4,0,0,0-1.4-1.4h-.5a1.5,1.5,0,0,0,1.5,1.9Z" style="fill:#f2f2f2"/><path d="M38.9,74.2a1.5,1.5,0,0,0-.1-.4h-.5A1.4,1.4,0,0,0,37,75.2v.5h.4A1.5,1.5,0,0,0,38.9,74.2Z" style="fill:#f2f2f2"/><path d="M45.9,73.6h-.2a1.3,1.3,0,0,1-1.1-1.6l1.3-7.6h0L43.2,58a1.3,1.3,0,1,1,2.5-1l2.6,6.4a2.9,2.9,0,0,1,.2,1.6l-1.3,7.6A1.3,1.3,0,0,1,45.9,73.6Z" style="fill:#fdd09c"/><path d="M79.1,93.4a1.3,1.3,0,1,0,1.3,1.3A1.3,1.3,0,0,0,79.1,93.4Zm0,2a.7.7,0,1,1,.7-.7A.7.7,0,0,1,79.1,95.4Z" style="fill:#58595b"/><path d="M79.1,94.7h0a.4.4,0,0,1-.5-.1l-1.4-2.3.6-.4,1.4,2.3A.4.4,0,0,1,79.1,94.7Z" style="fill:#58595b"/><circle cx="63.8" cy="73" r="0.8" style="fill:#ff8500"/><path d="M71.9,74.8h5.5A2.6,2.6,0,0,1,80,77.4V90.3a2.6,2.6,0,0,1-2.6,2.6H71.9a0,0,0,0,1,0,0v-18A0,0,0,0,1,71.9,74.8Z" transform="translate(-33.8 56.6) rotate(-33.9)" style="fill:#efa91d"/><polygon points="74 83.3 73.7 82.8 73.1 83.2 72.8 83.4 72.6 83.6 74.3 86.2 74.5 86 74.8 85.9 75.4 85.4 75.1 84.9 74.4 85.4 73.4 83.7 74 83.3" style="fill:#ff8500"/><path d="M80.5,91.2h-.2L71,77a.2.2,0,0,1,.1-.3h.3l9.3,14.2a.2.2,0,0,1-.1.3Z" style="fill:#9b680d"/><rect x="70.4" y="70.9" width="0.8" height="24.77" transform="translate(-34.7 54.7) rotate(-34.5)" style="fill:#58595b"/><circle cx="63.8" cy="73" r="0.5" style="fill:#58595b"/></g></g></svg>