<?xml version="1.0" encoding="utf-8"?>
<!-- Generator: Adobe Illustrator 16.0.0, SVG Export Plug-In . SVG Version: 6.00 Build 0)  -->
<!DOCTYPE svg PUBLIC "-//W3C//DTD SVG 1.1//EN" "http://www.w3.org/Graphics/SVG/1.1/DTD/svg11.dtd">
<svg version="1.1" id="圖層_1" xmlns="http://www.w3.org/2000/svg" xmlns:xlink="http://www.w3.org/1999/xlink" x="0px" y="0px"
	 width="50px" height="50px" viewBox="0 0 50 50" enable-background="new 0 0 50 50" xml:space="preserve">
<g>
	<circle fill="#D2AACE" cx="25" cy="25" r="25"/>
	<g>
		<path fill="#BF9468" d="M39.584,27.435c0.002-0.09-0.003-0.202-0.108-0.202H24.932H10.899c-0.139,0-0.341,0.247-0.341,0.327v4.875
			c0,0.08,0.202,0.101,0.341,0.101h28.576c0.138,0,0.106-0.021,0.106-0.101v-0.025c0.006,0,0-0.008,0-0.044V27.56
			C39.582,27.532,39.586,27.483,39.584,27.435z"/>
		<polygon fill="#F29673" points="12.652,22.137 11.18,26.024 10.343,27.56 39.582,27.56 38.809,25.745 36.986,22.147 		"/>
		<path fill="#BF9468" d="M36.986,16.349h-0.127H24.932H12.864c-0.118,0-0.211,0.094-0.211,0.21v5.847l12.279-0.058l12.278,0.241
			v-5.931C37.21,16.542,37.103,16.349,36.986,16.349z"/>
		<polygon fill="#F7F7F7" points="12.652,22.137 11.885,24.163 38.128,24.163 37.13,22.221 		"/>
		<g>
			<path fill="#F29673" d="M23.628,22.124c0,0.698-0.567,1.264-1.265,1.264h-6.655c-0.698,0-1.264-0.566-1.264-1.264v-0.73
				c0-0.698,0.566-1.264,1.264-1.264h6.655c0.698,0,1.265,0.565,1.265,1.264V22.124z"/>
			<path fill="#F29673" d="M35.476,21.982c0,0.699-0.587,1.406-1.285,1.406h-6.678c-0.7,0-1.219-0.708-1.219-1.406v-0.721
				c0-0.698,0.519-1.131,1.219-1.131h6.678c0.698,0,1.285,0.433,1.285,1.131V21.982z"/>
		</g>
		<g>
			<path fill="#E3D4C5" d="M11.466,16.767h26.651c0.116,0,0.208-0.093,0.208-0.209V15.86c0-0.115-0.092-0.209-0.208-0.209H11.466
				c-0.113,0-0.21,0.094-0.21,0.209v0.697C11.255,16.674,11.353,16.767,11.466,16.767z"/>
			<path fill="#E3D4C5" d="M11.047,25.697H10.21c-0.115,0-0.209,0.094-0.209,0.21v8.232c0,0.115,0.094,0.209,0.209,0.209h0.837
				c0.116,0,0.208-0.094,0.208-0.209v-8.232C11.255,25.791,11.163,25.697,11.047,25.697z"/>
			<path fill="#E3D4C5" d="M39.791,25.557h-0.836c-0.117,0-0.211,0.095-0.211,0.21v8.372c0,0.115,0.094,0.209,0.211,0.209h0.836
				c0.114,0,0.21-0.094,0.21-0.209v-8.372C40.001,25.652,39.905,25.557,39.791,25.557z"/>
		</g>
	</g>
	<circle fill="none" stroke="#FFFFFF" stroke-miterlimit="10" cx="25" cy="25" r="22.5"/>
</g>
</svg>
