<?xml version="1.0" encoding="utf-8"?>
<!-- Generator: Adobe Illustrator 16.0.0, SVG Export Plug-In . SVG Version: 6.00 Build 0)  -->
<!DOCTYPE svg PUBLIC "-//W3C//DTD SVG 1.1//EN" "http://www.w3.org/Graphics/SVG/1.1/DTD/svg11.dtd">
<svg version="1.1" id="圖層_1" xmlns="http://www.w3.org/2000/svg" xmlns:xlink="http://www.w3.org/1999/xlink" x="0px" y="0px"
	 width="50px" height="50px" viewBox="0 0 50 50" enable-background="new 0 0 50 50" xml:space="preserve">
<g>
	<circle fill="#85C89B" cx="25" cy="25" r="25"/>
	<g id="icon_5_">
		<path fill="#F29673" d="M30.426,15.514c0.012,0.085,0.025,0.175,0.035,0.255c0.428,0.297,0.693,0.789,0.693,1.321
			c0,0.89-0.725,1.614-1.614,1.614s-1.613-0.724-1.613-1.614c0-0.424,0.17-0.826,0.459-1.123c-0.021-0.151-0.044-0.303-0.068-0.454
			h-6.156c-0.018,0.141-0.035,0.274-0.048,0.394c0.328,0.3,0.52,0.723,0.52,1.183c0,0.89-0.725,1.614-1.614,1.614
			c-0.89,0-1.614-0.724-1.614-1.614c0-0.501,0.233-0.966,0.616-1.268c0.01-0.097,0.023-0.205,0.035-0.309h-6.216v21.987H36.16
			V15.514H30.426z"/>
		<path fill="#F6E079" d="M20.042,17.091c0-0.4,0.241-0.742,0.584-0.893c0.018-0.2,0.042-0.434,0.071-0.684
			c0.294-2.464,1.28-7.013,4.566-7.013c3.049,0,4.147,4.556,4.516,7.013c0.036,0.241,0.069,0.467,0.092,0.661
			c0.375,0.136,0.646,0.493,0.646,0.916c0,0.538-0.438,0.976-0.977,0.976s-0.977-0.438-0.977-0.976c0-0.366,0.205-0.681,0.502-0.848
			c-0.028-0.229-0.063-0.475-0.103-0.729c-0.404-2.549-1.469-6.202-3.7-6.202c-2.596,0-3.459,3.937-3.745,6.202
			c-0.033,0.255-0.058,0.497-0.078,0.701c0.327,0.158,0.553,0.489,0.553,0.876c0,0.538-0.436,0.976-0.975,0.976
			C20.478,18.066,20.042,17.629,20.042,17.091z"/>
	</g>
	<circle fill="none" stroke="#FFFFFF" stroke-miterlimit="10" cx="25" cy="25" r="22.5"/>
</g>
</svg>
