<?xml version="1.0" encoding="utf-8"?>
<!-- Generator: Adobe Illustrator 16.0.0, SVG Export Plug-In . SVG Version: 6.00 Build 0)  -->
<!DOCTYPE svg PUBLIC "-//W3C//DTD SVG 1.1//EN" "http://www.w3.org/Graphics/SVG/1.1/DTD/svg11.dtd">
<svg version="1.1" id="圖層_1" xmlns="http://www.w3.org/2000/svg" xmlns:xlink="http://www.w3.org/1999/xlink" x="0px" y="0px"
	 width="50px" height="50px" viewBox="0 0 50 50" enable-background="new 0 0 50 50" xml:space="preserve">
<g>
	<circle fill="#F29673" cx="25" cy="25" r="25"/>
	<g>
		<path fill="#DDEBB7" d="M35.797,20.252L35.797,20.252v8.879c0.668-0.232,1.266-0.609,1.766-1.072v-0.004
			c0.899-0.864,1.465-2.051,1.465-3.364c0-1.308-0.565-2.501-1.465-3.362l-0.055-0.043C37.029,20.839,36.447,20.49,35.797,20.252
			L35.797,20.252z"/>
		<path fill="#DDEBB7" d="M21.9,28.245l0.912,7.854c0.063,0.54-0.326,1.021-0.86,1.083l-1.927,0.212L18.1,37.614
			c-0.53,0.057-1.016-0.328-1.073-0.864l-0.884-7.813C17.24,27.956,21.9,28.245,21.9,28.245z"/>
		<path fill="#85C89B" d="M27.884,29.968H16.822c-2.925,0-5.295-2.37-5.295-5.295l0,0c0-2.924,2.371-5.295,5.295-5.295h11.062
			C30.809,19.378,30.809,29.968,27.884,29.968z"/>
		<path fill="#85C89B" d="M33.995,37.185l-9.104-6.07c-0.315-0.211-0.485-0.555-0.485-0.904h-0.005v-0.012V19.184v-0.011
			c0-0.399,0.225-0.756,0.547-0.941l9.115-6.075c0.501-0.331,1.177-0.191,1.509,0.309c0.125,0.187,0.181,0.39,0.181,0.593v23.262
			c0,0.605-0.484,1.086-1.091,1.086C34.415,37.407,34.183,37.327,33.995,37.185L33.995,37.185z"/>
		<polygon fill="#F8ECB8" points="25.576,31.571 33.983,37.06 33.983,12.101 25.576,17.813 		"/>
	</g>
	<circle fill="none" stroke="#FFFFFF" stroke-miterlimit="10" cx="25" cy="25" r="22.5"/>
</g>
</svg>
