<svg id="11c8255b-0977-4c33-bff8-f11256612242" data-name="圖層 1" xmlns="http://www.w3.org/2000/svg" viewBox="0 0 100 100"><title>accommodation-information-01</title><circle cx="50" cy="50" r="50" style="fill:#ff9b74"/><circle cx="50" cy="50" r="45" style="fill:none;stroke:#fff;stroke-miterlimit:10"/><path d="M60.8,38.6H39.1V82h8.1V72.7h6.4V82h7.4V38.8ZM45.5,67.6H41.8V63.5h3.7Zm0-7.2H41.8V56.3h3.7Zm0-7.2H41.8V49.2h3.7Zm0-7.2H41.8V42h3.7Zm5.8,20.9H48.7V64.1h2.6Zm0-7.2H48.7V57h2.6Zm0-7.2H48.7V49.8h2.6Zm0-7.2H48.7V42.7h2.6Zm6.9,22.1H54.5V63.5h3.7Zm0-7.2H54.5V56.3h3.7Zm0-7.2H54.5V49.2h3.7Zm0-7.2H54.5V42h3.7Z" style="fill:#fee677"/><path d="M21.9,48V82h6.4V74.7h5V82h5.8V48Zm5.4,22.7H24.4V67.5h2.9Zm0-5.6H24.4V61.9h2.9Zm0-5.6H24.4V56.2h2.9Zm0-5.6H24.4V50.6h2.9Zm4.5,16.4h-2V68h2Zm0-5.6h-2V62.4h2Zm0-5.6h-2V56.7h2Zm0-5.6h-2V51.1h2Zm5.4,17.4H34.3V67.5h2.9Zm0-5.6H34.3V61.9h2.9Zm0-5.6H34.3V56.2h2.9Zm0-5.6H34.3V50.6h2.9Z" style="fill:#fcefb9"/><path d="M77.9,48h-17V82h6.4V74.7h5V82h5.8V48.1ZM66,70.7H63V67.5H66Zm0-5.6H63V61.9H66Zm0-5.6H63V56.2H66Zm0-5.6H63V50.6H66Zm4.5,16.4h-2V68h2Zm0-5.6h-2V62.4h2Zm0-5.6h-2V56.7h2Zm0-5.6h-2V51.1h2Zm5.4,17.4H73V67.5h2.9Zm0-5.6H73V61.9h2.9Zm0-5.6H73V56.2h2.9Zm0-5.6H73V50.6h2.9Z" style="fill:#fcefb9"/><path d="M36.9,30V40.3H63.1V30Z" style="fill:#fee677"/><path d="M51.3,60.7A22.1,22.1,0,1,1,73.4,38.6,22.1,22.1,0,0,1,51.3,60.7Z" style="fill:#f96e6e"/><path d="M51.3,17.7A20.9,20.9,0,1,1,30.4,38.6,20.9,20.9,0,0,1,51.3,17.7m0-2.3A23.2,23.2,0,1,0,74.5,38.6,23.2,23.2,0,0,0,51.3,15.5Z" style="fill:#ff9b74"/><path d="M65.4,36.9h0a3.2,3.2,0,0,0-.9-2.2,3.2,3.2,0,0,0-2.3-.9H56.9c.9-3.2,1.5-5.6-.5-9.1h0A3.2,3.2,0,0,0,54,23.2a3.4,3.4,0,0,0-1.5.1h0a2.9,2.9,0,0,0-1.3.9,3.2,3.2,0,0,0-.6,2.6,6.2,6.2,0,0,1-.7,3.8h0a14.9,14.9,0,0,1-2.5,3.4H41.5a1.2,1.2,0,0,0-1.2,1.2V50a1.2,1.2,0,0,0,1.2,1.2h5.6a1.2,1.2,0,0,0,1.1-.8l2,.8H59a3.2,3.2,0,0,0,2.2-.9h0a3.1,3.1,0,0,0,.9-2.2,2.8,2.8,0,0,0-.3-1.2l.3-.3h.1a3.2,3.2,0,0,0,.8-1.4h0a3.5,3.5,0,0,0,0-1.6h0v-.3l.4-.3a3.3,3.3,0,0,0,.8-1.4,3.2,3.2,0,0,0,0-1.6h0v-.3l.3-.3a3.1,3.1,0,0,0,1-2.3Z" style="fill:#fee677"/><path d="M62.8,37.5h0a1.2,1.2,0,0,1-.8.3,1.2,1.2,0,0,0-1.2,1.2,1.1,1.1,0,0,0,.7,1.1.7.7,0,0,1,.4.4h0a1,1,0,0,1,0,.4.7.7,0,0,1-.2.4.9.9,0,0,1-.7.3,1.2,1.2,0,0,0-1.2,1.2,1.2,1.2,0,0,0,.7,1.1.7.7,0,0,1,.3.4h0a1.7,1.7,0,0,1,0,.4h0a.8.8,0,0,1-.2.4h0a1,1,0,0,1-.7.3,1.2,1.2,0,0,0-.5,2.2l.3.3h0a.9.9,0,0,1,.1.4.9.9,0,0,1-.2.6h0L59,49H50.9l-3.4-1.4a1.2,1.2,0,0,0-1.5.6,1.2,1.2,0,0,0-.1.4v.2H42.7V36.4h3.3a1.2,1.2,0,0,0,1.1.9,1.2,1.2,0,0,0,.8-.4,17.5,17.5,0,0,0,4-5.1h0a8.5,8.5,0,0,0,.9-5.3,1,1,0,0,1,.1-.7l.2-.2h.4a.9.9,0,0,1,.6.4h0c1.6,2.7,1,4.8.2,7.5h0l-.3,1.2a1.1,1.1,0,0,0,.8,1.4h7.2l.6.2h0a.9.9,0,0,1,0,1.1Z" style="fill:#f96e6e"/></svg>