<svg id="0a2a6c53-397d-476b-9506-1033f254f320" data-name="圖層 1" xmlns="http://www.w3.org/2000/svg" viewBox="0 0 100 100"><title>accommodation-information-02</title><circle cx="50" cy="50" r="50" style="fill:#accff6"/><circle cx="50" cy="50" r="45" style="fill:none;stroke:#fff;stroke-miterlimit:10"/><path d="M74.8,69.5c0-.1,0-.3-.2-.3H25.8c-.2,0-.6.4-.6.6V78c0,.1.3.2.6.2H74.6c.2,0,.2,0,.2-.2h0s0,0,0-.1V69.5Z" style="fill:#fee677"/><polygon points="29.4 60.6 26.3 67.1 24.9 69.7 74.8 69.7 73.4 66.6 70.3 60.5 29.4 60.6" style="fill:#ea444e"/><path d="M70.3,50.6H29.2a.4.4,0,0,0-.4.4v10H49.8l20.9.4V51.1C70.7,50.9,70.5,50.6,70.3,50.6Z" style="fill:#fee677"/><polygon points="28.8 60.4 27.6 63.9 72.3 63.9 70.6 60.6 28.8 60.4" style="fill:#f9b59e"/><path d="M47.5,60.4a2.2,2.2,0,0,1-2.2,2.2H34a2.2,2.2,0,0,1-2.2-2.2V59.2A2.2,2.2,0,0,1,34,57H45.4a2.2,2.2,0,0,1,2.2,2.2Z" style="fill:#ea444e"/><path d="M67.7,60.2a2.4,2.4,0,0,1-2.2,2.4H54.2a2.3,2.3,0,0,1-2.1-2.4V58.9A1.9,1.9,0,0,1,54.2,57H65.6a2,2,0,0,1,2.2,1.9Z" style="fill:#ea444e"/><path d="M26.8,51.3H72.3a.4.4,0,0,0,.4-.4V49.7a.4.4,0,0,0-.4-.4H26.8a.4.4,0,0,0-.4.4v1.2A.4.4,0,0,0,26.8,51.3Z" style="fill:#c1c1c1"/><path d="M26.1,66.5H24.6a.4.4,0,0,0-.4.4v14a.4.4,0,0,0,.4.4h1.4a.4.4,0,0,0,.4-.4v-14A.4.4,0,0,0,26.1,66.5Z" style="fill:#c1c1c1"/><path d="M75.1,66.3H73.7a.4.4,0,0,0-.4.4V80.9a.4.4,0,0,0,.4.4h1.4a.4.4,0,0,0,.4-.4V66.6A.4.4,0,0,0,75.1,66.3Z" style="fill:#c1c1c1"/><path d="M40.3,37.4h0a22.9,22.9,0,0,0,9.6,8.8,22.9,22.9,0,0,0,9.6-8.8,26,26,0,0,0,3.8-13.7,28.6,28.6,0,0,0-.2-3.4c-.1-.8-.2-1.6-.4-2.4H37.1c-.2.8-.3,1.6-.4,2.4a28.6,28.6,0,0,0-.2,3.4,26.1,26.1,0,0,0,3.8,13.7Z" style="fill:#43d17d"/><path d="M49.3,48.9A25.6,25.6,0,0,1,38,38.8a28.8,28.8,0,0,1-4.2-15.1,30.1,30.1,0,0,1,.2-3.8,29.1,29.1,0,0,1,.7-3.7,1.3,1.3,0,0,1,1.3-1H63.7A1.3,1.3,0,0,1,65,16.3a30.6,30.6,0,0,1,.9,7.4,28.7,28.7,0,0,1-4.2,15.1A25.6,25.6,0,0,1,50.4,48.9a1.3,1.3,0,0,1-1.1,0Zm-9-11.5h0a22.9,22.9,0,0,0,9.6,8.8,22.9,22.9,0,0,0,9.6-8.8,26,26,0,0,0,3.8-13.7,28.6,28.6,0,0,0-.2-3.4c-.1-.8-.2-1.6-.4-2.4H37.1c-.2.8-.3,1.6-.4,2.4a28.6,28.6,0,0,0-.2,3.4,26.1,26.1,0,0,0,3.8,13.7Z" style="fill:#fee677"/><path d="M58.8,25.8h0l-2.5-2.4a.6.6,0,0,0-.9,0l-6.6,6.6-3.4-3.4h0a.6.6,0,0,0-.9,0l-2.4,2.4h0a.6.6,0,0,0,0,.9l6.3,6.3a.6.6,0,0,0,.9,0l9.5-9.5a.7.7,0,0,0,0-.9Z" style="fill:#fee677"/></svg>