<svg id="d2c73c00-d9a9-4824-ada6-4a0935feb87f" data-name="圖層 1" xmlns="http://www.w3.org/2000/svg" viewBox="0 0 100 100"><title>accommodation-information-03</title><circle cx="50" cy="50" r="50" style="fill:#c2e97e"/><circle cx="50" cy="50" r="45" style="fill:none;stroke:#fff;stroke-miterlimit:10"/><rect x="22.3" y="29.9" width="55.5" height="46.82" style="fill:#b9a064"/><rect x="31.5" y="21.2" width="37.1" height="50.54" style="fill:#4e251a"/><rect x="32.8" y="25" width="34.3" height="45.24" style="fill:#653326"/><rect x="43.3" y="25" width="1.1" height="38.11" style="fill:#4e251a"/><rect x="45.8" y="25" width="1.1" height="38.11" style="fill:#4e251a"/><rect x="48.2" y="25" width="1.1" height="38.11" style="fill:#4e251a"/><rect x="50.7" y="25" width="1.1" height="38.11" style="fill:#4e251a"/><rect x="53.1" y="25" width="1.1" height="38.11" style="fill:#4e251a"/><rect x="55.6" y="25" width="1.1" height="38.11" style="fill:#4e251a"/><polygon points="36.9 40.8 37.7 42.5 39.6 42.8 38.2 44.1 38.6 45.9 36.9 45.1 35.2 45.9 35.5 44.1 34.2 42.8 36 42.5 36.9 40.8" style="fill:#f7e12b"/><polygon points="43.4 40.8 44.3 42.5 46.1 42.8 44.8 44.1 45.1 45.9 43.4 45.1 41.8 45.9 42.1 44.1 40.7 42.8 42.6 42.5 43.4 40.8" style="fill:#f7e12b"/><polygon points="50 40.8 50.8 42.5 52.7 42.8 51.4 44.1 51.7 45.9 50 45.1 48.3 45.9 48.6 44.1 47.3 42.8 49.2 42.5 50 40.8" style="fill:#f7e12b"/><polygon points="56.6 40.8 57.4 42.5 59.3 42.8 57.9 44.1 58.2 45.9 56.6 45.1 54.9 45.9 55.2 44.1 53.9 42.8 55.7 42.5 56.6 40.8" style="fill:#f7e12b"/><polygon points="63.1 40.8 64 42.5 65.8 42.8 64.5 44.1 64.8 45.9 63.1 45.1 61.4 45.9 61.8 44.1 60.4 42.8 62.3 42.5 63.1 40.8" style="fill:#f7e12b"/></svg>