<svg id="3cf371e6-c9bf-4694-8211-3a626d5d0dd5" data-name="圖層 1" xmlns="http://www.w3.org/2000/svg" viewBox="0 0 100 100"><title>accommodation-information-04</title><circle cx="50" cy="50" r="50" style="fill:#f96e6e"/><circle cx="50" cy="50" r="45" style="fill:none;stroke:#fff;stroke-miterlimit:10"/><path d="M54,13.4H40.2A15.1,15.1,0,0,0,25.1,28.5h0a15.1,15.1,0,0,0,7.5,13l-2.8,7.7c-.4,1.4.6,2.1,1.7,1.2l6.1-7.1,2.6.2H54A15.1,15.1,0,0,0,69.1,28.5h0A15.1,15.1,0,0,0,54,13.4Z" style="fill:#fff"/><path d="M44.6,49.7H58.4A15.1,15.1,0,0,1,73.5,64.8h0a15,15,0,0,1-7.5,13l2.8,7.7c.4,1.4-.6,2.1-1.7,1.2L61,79.6l-2.6.2H44.6A15.1,15.1,0,0,1,29.5,64.8h0A15.1,15.1,0,0,1,44.6,49.7Z" style="fill:#fff"/><path d="M43.9,25.4l1,.6-.2.2a9.6,9.6,0,0,1-2.6,2.6A20.1,20.1,0,0,0,47.5,30a6.6,6.6,0,0,0-.9,1.3l-1.7-.3V35H43.5v-.4H38.1v.5H36.8v-4l-2.1.5a5.1,5.1,0,0,0-.7-1.2,20.8,20.8,0,0,0,5.4-1.7,10.2,10.2,0,0,1-1.7-1.4l-2,1.2a4,4,0,0,0-.9-1A8.9,8.9,0,0,0,39,24.4H36.1v1.6H34.8V23.2h5.3V21.8h1.7c0,.1-.1.2-.3.2v1.1h5.4v2.9H45.4V24.4H39.2l1.4.3c0,.1-.1.2-.3.2l-.4.5h4Zm-.2,5.3a16.8,16.8,0,0,1-3-1.2l-2.7,1.2Zm-5.6,2.8h5.4V31.8H38.1Zm.8-7h-.1a8.3,8.3,0,0,0,2,1.5,8.6,8.6,0,0,0,1.9-1.6H38.9Z" style="fill:#ff9b74"/><path d="M61.4,30H55.3l-.2,1H60v.4c-.3,3.6-.6,3.7-2.5,3.7H56.3a2.9,2.9,0,0,0-.4-1.1h2.1c.2-.2.3-.7.4-1.9H54.8A5.3,5.3,0,0,1,51,35.1a3.6,3.6,0,0,0-.7-1c2.8-.7,3.4-2.2,3.7-4.1H51.2a9.2,9.2,0,0,1-1.8,4.9l-1.1-.8c1.6-1.8,1.8-4.4,1.8-6.4V24.6H60.2v3.2H56.5l-.3.2v.9h5.2V30Zm-.1-7.4v1.2H48.6V22.5Zm-6.4,5.3H51.3c0,.3,0,.7,0,1.1h3.6Zm4-2.2H51.3v1.2h7.6Z" style="fill:#ff9b74"/><path d="M39.5,65.1A2.7,2.7,0,0,1,41,67.3a18.6,18.6,0,0,0,.8,2.9H40.1a14.9,14.9,0,0,1-.7-2.6c-.3-1.4-.8-2-2-2h-1v4.6H34.8V59.6l2.6-.2a4.5,4.5,0,0,1,3.1.9,2.7,2.7,0,0,1,.9,2.1,2.9,2.9,0,0,1-1.9,2.8h0Zm-1.9-.7a2,2,0,0,0,2.2-1.9c0-1.4-1-1.9-2.2-1.9H36.5v3.7h1.1Z" style="fill:#68c1c1"/><path d="M49.9,66.3c0,2.9-1.9,4.1-3.7,4.1s-3.6-1.5-3.6-4,1.6-4.1,3.7-4.1S49.9,63.9,49.9,66.3Zm-3.6-2.8c-1.4,0-1.9,1.5-1.9,2.9s.7,2.8,1.9,2.8,1.9-1.3,1.9-2.8S47.7,63.5,46.3,63.5Z" style="fill:#68c1c1"/><path d="M58.3,66.3c0,2.9-1.9,4.1-3.7,4.1s-3.6-1.5-3.6-4,1.6-4.1,3.7-4.1S58.3,63.9,58.3,66.3Zm-3.6-2.8c-1.4,0-1.9,1.5-1.9,2.9s.7,2.8,1.9,2.8,1.9-1.3,1.9-2.8S56.1,63.5,54.7,63.5Z" style="fill:#68c1c1"/><path d="M70.6,70.3H69V65.8c0-1.3-.4-2.2-1.4-2.2a1.7,1.7,0,0,0-1.5,1.8v4.8H64.5V65.6c0-1.1-.4-1.9-1.4-1.9a1.7,1.7,0,0,0-1.6,1.9v4.7H59.9V64.7c0-.9,0-1.5-.1-2.2h1.4v1.1h0a2.5,2.5,0,0,1,2.3-1.3,2.1,2.1,0,0,1,2.1,1.4h0a2.7,2.7,0,0,1,2.4-1.4c1.2,0,2.4.8,2.4,3.3v4.7Z" style="fill:#68c1c1"/></svg>