<svg id="df1f089b-58e6-4d26-825a-cd0f2b6ecb0a" data-name="圖層 1" xmlns="http://www.w3.org/2000/svg" viewBox="0 0 100 100"><title>accommodation-information-05</title><circle cx="50" cy="50" r="50" style="fill:#68c1c1"/><circle cx="50" cy="50" r="45" style="fill:none;stroke:#fff;stroke-miterlimit:10"/><path d="M61.7,34.7H40V78.1h8.1V68.7h6.4v9.3h7.4V34.8ZM46.5,63.6H42.7V59.6h3.7Zm0-7.2H42.7V52.4h3.7Zm0-7.2H42.7V45.2h3.7Zm0-7.2H42.7V38.1h3.7ZM52.2,63H49.7V60.2h2.6Zm0-7.2H49.7V53h2.6Zm0-7.2H49.7V45.9h2.6Zm0-7.2H49.7V38.7h2.6Zm6.9,22.1H55.4V59.6h3.7Zm0-7.2H55.4V52.4h3.7Zm0-7.2H55.4V45.2h3.7Zm0-7.2H55.4V38.1h3.7Z" style="fill:#e0ace5"/><path d="M22.9,44v34h6.4V70.7h5v7.3H40V44Zm5.4,22.7H25.3V63.5h2.9Zm0-5.6H25.3V57.9h2.9Zm0-5.6H25.3V52.3h2.9Zm0-5.6H25.3V46.7h2.9Zm4.5,16.4h-2V64h2Zm0-5.6h-2V58.4h2Zm0-5.6h-2V52.8h2Zm0-5.6h-2V47.2h2Zm5.4,17.4H35.3V63.5h2.9Zm0-5.6H35.3V57.9h2.9Zm0-5.6H35.3V52.3h2.9Zm0-5.6H35.3V46.7h2.9Z" style="fill:#ecd8ef"/><path d="M78.9,44h-17v34h6.4V70.7h5v7.3H79V44.1Zm-12,22.7H64V63.5h2.9Zm0-5.6H64V57.9h2.9Zm0-5.6H64V52.3h2.9Zm0-5.6H64V46.7h2.9Zm4.5,16.4h-2V64h2Zm0-5.6h-2V58.4h2Zm0-5.6h-2V52.8h2Zm0-5.6h-2V47.2h2Zm5.4,17.4H74V63.5h2.9Zm0-5.6H74V57.9h2.9Zm0-5.6H74V52.3h2.9Zm0-5.6H74V46.7h2.9Z" style="fill:#ecd8ef"/><path d="M37.8,26.1V36.3H64.1V26.1Z" style="fill:#e0ace5"/><rect x="48.8" y="50.7" width="4.2" height="8.43" transform="translate(-23.9 52.1) rotate(-45)" style="fill:#545454"/><path d="M21.1,25.1a21.1,21.1,0,1,0,29.8,0A21.1,21.1,0,0,0,21.1,25.1ZM48,52a16.9,16.9,0,1,1,0-23.9A16.9,16.9,0,0,1,48,52Z" style="fill:#404040"/><rect x="58.7" y="54.2" width="8.4" height="25.3" transform="translate(-28.9 64) rotate(-45)" style="fill:#404040"/><rect x="59.3" y="55.7" width="4.2" height="25.3" transform="translate(-30.4 63.4) rotate(-45)" style="fill:#545454"/><rect x="49.7" y="57.3" width="8.4" height="1.19" transform="translate(-25.2 55.1) rotate(-45)" style="fill:#fff"/><rect x="67.6" y="75.2" width="8.4" height="1.19" transform="translate(-32.6 73) rotate(-45)" style="fill:#fff"/><g style="opacity:0.30000001192092896"><circle cx="36" cy="40" r="16.9" style="fill:#fff"/></g><path d="M28.9,44h0a15.9,15.9,0,0,0,6.7,6.1A16,16,0,0,0,42.2,44a18.1,18.1,0,0,0,2.6-9.5,19.8,19.8,0,0,0-.1-2.4c-.1-.6-.2-1.1-.3-1.7H26.7c-.1.6-.2,1.1-.3,1.7a20,20,0,0,0-.1,2.4A18.2,18.2,0,0,0,28.9,44Z" style="fill:#43d17d"/><path d="M35.2,52a17.8,17.8,0,0,1-7.9-7,20.1,20.1,0,0,1-2.9-10.5,21.1,21.1,0,0,1,.2-2.6,20.2,20.2,0,0,1,.5-2.6.9.9,0,0,1,.9-.7H45.1a.9.9,0,0,1,.9.8,21.4,21.4,0,0,1,.7,5.2A20,20,0,0,1,43.8,45a17.8,17.8,0,0,1-7.9,7,.9.9,0,0,1-.8,0Zm-6.3-8h0a15.9,15.9,0,0,0,6.7,6.1A16,16,0,0,0,42.2,44a18.1,18.1,0,0,0,2.6-9.5,19.8,19.8,0,0,0-.1-2.4c-.1-.6-.2-1.1-.3-1.7H26.7c-.1.6-.2,1.1-.3,1.7a20,20,0,0,0-.1,2.4A18.2,18.2,0,0,0,28.9,44Z" style="fill:#fee677"/><path d="M41.8,35.9h0l-1.7-1.7a.4.4,0,0,0-.6,0l-4.6,4.6-2.4-2.4h0a.4.4,0,0,0-.6,0l-1.7,1.7h0a.4.4,0,0,0,0,.6l4.4,4.4a.4.4,0,0,0,.6,0l6.6-6.6a.5.5,0,0,0,0-.6Z" style="fill:#fee677"/></svg>