<svg id="26d47a5c-6442-441a-9fdf-6ff3ff8aef89" data-name="圖層 1" xmlns="http://www.w3.org/2000/svg" viewBox="0 0 100 100"><title>accommodation-information-06</title><circle cx="50" cy="50" r="50" style="fill:#7ee2a6"/><circle cx="50" cy="50" r="45" style="fill:none;stroke:#fff;stroke-miterlimit:10"/><rect x="22" y="22.3" width="56.1" height="50.41" style="fill:#d4b99b"/><rect x="47.1" y="66.1" width="5.8" height="17.8" style="fill:#d4b99b"/><path d="M56.1,36.2H43.8V60.7h4.6V55.4H52v5.3h4.2V36.3ZM47.5,52.6H45.4V50.3h2.1Zm0-4H45.4V46.2h2.1Zm0-4H45.4V42.2h2.1Zm0-4.1H45.4V38.1h2.1Zm3.3,11.8H49.3V50.6h1.5Zm0-4.1H49.3V46.6h1.5Zm0-4H49.3V42.5h1.5Zm0-4H49.3V38.5h1.5Zm3.9,12.5H52.5V50.3h2.1Zm0-4H52.5V46.2h2.1Zm0-4H52.5V42.2h2.1Zm0-4.1H52.5V38.1h2.1Z" style="fill:#fee677"/><path d="M34.1,41.5V60.7h3.6V56.6h2.8v4.1h3.3V41.5Zm3,12.8H35.5V52.5h1.7Zm0-3.2H35.5V49.3h1.7Zm0-3.2H35.5V46.2h1.7Zm0-3.2H35.5V43h1.7ZM39.7,54H38.6V52.8h1.1Zm0-3.2H38.6V49.6h1.1Zm0-3.2H38.6V46.4h1.1Zm0-3.2H38.6V43.3h1.1Zm3.1,9.8H41.2V52.5h1.7Zm0-3.2H41.2V49.3h1.7Zm0-3.2H41.2V46.2h1.7Zm0-3.2H41.2V43h1.7Z" style="fill:#fcefb9"/><path d="M65.8,41.5H56.2V60.7h3.6V56.6h2.8v4.1h3.3V41.5ZM59,54.3H57.4V52.5H59Zm0-3.2H57.4V49.3H59ZM59,48H57.4V46.2H59Zm0-3.2H57.4V43H59ZM61.6,54H60.5V52.8h1.1Zm0-3.2H60.5V49.6h1.1Zm0-3.2H60.5V46.4h1.1Zm0-3.2H60.5V43.3h1.1Zm3.1,9.8H63V52.5h1.7Zm0-3.2H63V49.3h1.7Zm0-3.2H63V46.2h1.7Zm0-3.2H63V43h1.7Z" style="fill:#fcefb9"/><path d="M42.6,31.3v5.8H57.4V31.3Z" style="fill:#fee677"/><circle cx="49.3" cy="47.5" r="18.4" style="fill:none;stroke:#f96e6e;stroke-miterlimit:10;stroke-width:4.251999855041504px"/><rect x="31.3" y="45.2" width="36.4" height="5.06" transform="translate(-19.2 49) rotate(-45)" style="fill:#f96e6e"/></svg>