<svg id="cde3c910-6133-4e23-9a7e-2b5de5b74a8a" data-name="Layer 1" xmlns="http://www.w3.org/2000/svg" viewBox="0 0 100 100"><title>accommodation-information-07</title><circle cx="50" cy="50" r="50" style="fill:#fff"/><circle cx="50" cy="50" r="45" style="fill:none;stroke:#eb6b6b;stroke-miterlimit:10"/><path d="M79.9,34.7V49.1c0,.3,0,.3-.3.3H65.4c-.4,0-.4,0-.4-.4v-.5h0a2.2,2.2,0,0,0,.2-.9,6.8,6.8,0,0,1,.4-2,1.5,1.5,0,0,0,.1-.5v-.2l-.6-1-.3-.2-.6-.3a1.4,1.4,0,0,0-1.2-.2l-.2.2.2.3c.4.2.5.4.4.9s0,.6,0,.9v.9a.6.6,0,0,1-.1.7h0c.1.3-.2.6-.2.9v1.3a.3.3,0,0,1-.3.3H60.9a1.9,1.9,0,0,0-1.3-.4,3.6,3.6,0,0,0-1.4.3l-.7.2H56.5c-.2,0-.3-.1-.3-.2v-.2a.5.5,0,0,1-.1-.4c0-.2,0-.5-.1-.7s0-.6-.1-.9a2.1,2.1,0,0,0-.2-.5h0l-.2-.2-.4.2-.5.7h-.1a.5.5,0,0,0-.2.5.6.6,0,0,1-.1.6,1.5,1.5,0,0,0-.2.7h.2c.1,0,.2-.1.2.1s0,.2-.2.2H50.9c-.3,0-.3,0-.3-.3V26q0-2.9,0-5.7c0-.3,0-.3.3-.3H79.5c.3,0,.4,0,.4.4Q79.9,27.6,79.9,34.7ZM72,39.3h.3c.1,0,.2,0,.1-.1a.9.9,0,0,0-.4-.6c-.1,0-.1-.2-.1-.3h.3a1.4,1.4,0,0,1,.9.1c.1.1.1.2.1.2a1.2,1.2,0,0,0-.4.6v.2h.3v.2l-.2.2c-.1.1-.1.2,0,.3a.3.3,0,0,1,.2.4v.4a.7.7,0,0,0,.4-.9,1.2,1.2,0,0,1,0-1.1.4.4,0,0,0,0-.2,4.9,4.9,0,0,1-.1-.6,1.5,1.5,0,0,1,.4-.8,1.9,1.9,0,0,1,.3,1.2h0a.4.4,0,0,0,0,.5.8.8,0,0,1,0,.8.7.7,0,0,0,.2.9h.1a2.9,2.9,0,0,1,.1-1.2V39c0-.3,0-.5,0-.8a2,2,0,0,1,.2-.7.8.8,0,0,0,.1-.6.7.7,0,0,1,.2-.7,1.5,1.5,0,0,0,.4-.9v-.2a.9.9,0,0,0,.2-.4,1.1,1.1,0,0,0-.1-.8.7.7,0,0,1,.1-.9c.1-.1.1-.3.1-.4s-.4-.3-.5-.5h-.4a.9.9,0,0,1-.6-.4h-.1l-.5-.2a.4.4,0,0,0-.5.3h-.1a.7.7,0,0,1-.5.3l-.3.3-.4.4c-.3.2-.3.4-.4.7v.2h-.1a1.1,1.1,0,0,0-.4.8V35a1.2,1.2,0,0,0-.5.8v.3l-.3.7a.3.3,0,0,0,0,.2l.2.3a.9.9,0,0,1-.1,1.1,2.2,2.2,0,0,1-.8.6l-.2.2a3.3,3.3,0,0,0-.3,1.2.6.6,0,0,1-.2.6h0a1.6,1.6,0,0,0,.3,1l.3.4.3.2v-.3c.1-.6.1-1.1.1-1.7a6.6,6.6,0,0,1,.3-1.6h.2v.5a5.2,5.2,0,0,0-.1.6c0,.8-.1,1.7-.1,2.5a2.4,2.4,0,0,1-.1.6c-.1.4-.1.5.2.8h.2v-.2c0-1,0-1.9,0-2.9s0-1.2.1-1.8a2.6,2.6,0,0,1,.1-.6,1.3,1.3,0,0,0,0-1.2H70a.3.3,0,0,1,0-.5l.3-.2.2.3c0,.2,0,.5,0,.7v.2l.2-.2a4.9,4.9,0,0,0,.1-1,1.5,1.5,0,0,1,0-.9H71a7.8,7.8,0,0,1,.1,1.2,2.7,2.7,0,0,1-.3.9l-.5.6v.3c0,.8-.1,1.7-.1,2.5s0,1.8-.1,2.7.1.5.4.6l.2.2c.1.4.4.5.6.8h.1l.3-.5v-.2a1.6,1.6,0,0,0,.3-.8c0-.2,0-.3-.2-.2a.3.3,0,0,1-.3-.2.6.6,0,0,1,.3-.7l.6-.4.2-.3h-.3l-.6.2h-.2v-.2l.5-.3c.2-.1.5-.2.5-.5v-.2h-.2a.4.4,0,0,1-.5-.4,3.1,3.1,0,0,1,0-.6l.2-.2h.1c.1-.1.1-.2-.1-.3S71.9,39.6,72,39.3Zm-14.3.9v.3a.4.4,0,0,1-.7.2h-.1c-.1,0-.2.3-.2.4h.4v.2h-.1c-.2.3-.2.3-.4,0h-.1l-.3.7v.6c0,.3,0,.7,0,1s0,.5,0,.8-.1.2.1.2h.3a.3.3,0,0,0,.1-.2c0-.2.1-.2.2-.2h.2c.1-.2.4-.2.6-.3l.6-.3h.8a.6.6,0,0,0,.5-.3l.3-.2.3-.3.3-.3a.7.7,0,0,0,.4-.6c0-.3,0-.5,0-.8a.7.7,0,0,0-.1-.3l-.5-.7-.9-.8c-.1-.1-.2-.2-.4,0h-.1a.5.5,0,0,0-.5.2l-.5.7v.2h.3Zm14.6,6.7h.3l.4-.2c.2,0,.2-.1.2-.3v-.7a4.6,4.6,0,0,0-.2-.9,1.6,1.6,0,0,1,.1-1,2.5,2.5,0,0,0,.1-.5.6.6,0,0,1,.2-.5.6.6,0,0,0,.3-.6c0-.1,0-.2.1-.3a.5.5,0,0,0,.2-.5v-.4h-.3l-.5-.2h-.2a.2.2,0,0,0,0,.3v.2a3.3,3.3,0,0,1,0,.5,1.4,1.4,0,0,1-.1.4,1.2,1.2,0,0,1-.6.6l-.3.2s0,.2,0,.2h.2l.4-.3h.2v.2l-.3,1a9.3,9.3,0,0,1-.3,1l-.4.6c-.1.1-.1.1-.1.3l.3.5C71.9,46.8,72,47,72.3,46.9Zm-14.4-.6h.6a1.3,1.3,0,0,0,1.1-.2l.7-.4.3-.3h.1l.6-.6.2-.4a2.5,2.5,0,0,0,.1-.5v-.2h-.3l-.4.2-1.5.8-1.1.8-.4.3a.5.5,0,0,0-.1.4Zm10.9-7.7c.3,0,.4-.2.6-.3a.7.7,0,0,0,.2-.8h-.3l-.4.8Zm3.4,2h0c0,.1,0,.3.2.3s.2,0,.2-.2-.1-.4-.3-.3Zm-51.7,24V50.3c0-.2,0-.3.3-.3H49.7c.2,0,.3,0,.3.3V79.1c0,.2-.1.3-.2.3H20.8c-.1,0-.2-.1-.2-.2v-.8Q20.6,71.5,20.6,64.7Zm12.5,7.5h.2a1.9,1.9,0,0,0,.7-1.1h.1l.4-.8a4.6,4.6,0,0,0,.3-1,2.7,2.7,0,0,0-.1-.7V66.9a2.8,2.8,0,0,1-.1-.4,1.5,1.5,0,0,0-.2-.7h-.1a9.2,9.2,0,0,0-.4-1,2.4,2.4,0,0,1-.3-.9v-.2a5.5,5.5,0,0,1-.2-.9,10.2,10.2,0,0,1,0-1.4c0-.4.1-.9.2-1.3h0l.2-.7a3.8,3.8,0,0,1,.6-1.4,2.6,2.6,0,0,0,.3-.6.2.2,0,0,0,0-.2.4.4,0,0,1,0-.4v-.2h-.2l-.6.5a2.4,2.4,0,0,0-.8.6l-.3.3-.4.6a9.1,9.1,0,0,0-.5,1.3,6.6,6.6,0,0,0-.3,1.4,8.3,8.3,0,0,0,.1,2.3c0,.2,0,.3.2.4h.1l.6,1.2.5,1.2c.1.2,0,.2-.2.2H31.1l-1,.4a2.3,2.3,0,0,0-1.3,1.1l-.2.5a4.6,4.6,0,0,0-.2.9,2.9,2.9,0,0,0,.5,1.8l.6.7,1.6,1a4.9,4.9,0,0,0,2.1.7h4l1.3-.2,1.3-.2,1-.2.9-.4,1-.7.4-.4a1.3,1.3,0,0,0,.6-1.1v-.8a2.3,2.3,0,0,0-.5-1.4l-.3-.4a1.8,1.8,0,0,0-1.5-.6c-.2,0-.3,0-.3-.2a2.1,2.1,0,0,0-.2-1V66a7.2,7.2,0,0,0-.4-1.5h-.1v-.3l-.2-.8v-.9a3.5,3.5,0,0,1-.1-1.2,2,2,0,0,0,0-.4,6.4,6.4,0,0,1,0-.9c0-.2.2-.5.2-.7a5.5,5.5,0,0,1,.4-1.1c.1-.3.3-.5.3-.8h0l.5-.6c0-.1,0-.2,0-.3h-.2l-1.2.6-.7.5-.5.6a7.7,7.7,0,0,0-.6,1.3v.3c0,.7,0,1.4,0,2.1a2,2,0,0,0,.1.5v.4l.3.9.4.7a6.2,6.2,0,0,1,.4.9c.2.5.3,1.1.4,1.6a7.5,7.5,0,0,1,.1,2.3,3.5,3.5,0,0,1-.3,1.1,3.3,3.3,0,0,1-.6.8l-.7.7h.4a1.4,1.4,0,0,0,.9-.1l.3-.2a1.8,1.8,0,0,0,.8-.8l.3-.9a2,2,0,0,0,.2-.8c0-.4,0-.7.1-1.1h.3a1.6,1.6,0,0,1,1,.9,2.8,2.8,0,0,1,.1,1.4v.2l-.6.8-.3.2-.5.3-.7.4h-.2l-1.1.4h.2c.1,0,.1-.1.1-.2h-.2l-.7.2h-.7l-1.3.2h-.3a.6.6,0,0,0,.3-.4l.2-.2.2-.2.3-.6.4-1.2a6.1,6.1,0,0,0,.2-.9,3.9,3.9,0,0,0,0-.6v-.2a2.1,2.1,0,0,0,.1-.5c0-.6,0-1.1-.1-1.7V65c-.1-.4-.1-.7-.1-1.1l-.4-1.3a12.4,12.4,0,0,1-.6-2.2h0a3.1,3.1,0,0,1-.2-1.7,5.2,5.2,0,0,0,.2-1.6h.1a3.5,3.5,0,0,1,.6-.8,1,1,0,0,0,.3-.5,2.7,2.7,0,0,0,0-.7h-.1l-.3.3-.2.3-.3.2a3.1,3.1,0,0,0-.9.9L35,57.9a8.5,8.5,0,0,0-.3.9,2.6,2.6,0,0,0-.1,1.5v.2a7,7,0,0,0,0,.9l.2,1a4.9,4.9,0,0,0,.4,1.3l.4.8.2.5.4,1.2.3,1.1a5.2,5.2,0,0,1,.2,1.2,5.1,5.1,0,0,1-.4,1.8l-.2.7v.2c.1.1.1.2,0,.3l-.2.3h.3l-.2.5c-.3.4-.7.3-1.1.3H33.1Zm2.7-.9a.5.5,0,0,0-.1.5C35.9,71.6,35.9,71.5,35.8,71.2ZM69.2,67c-.1-.5-.5-.5-.8-.6h-.5l-.2-.2c-.1,0-.1.1-.1.2h-.5c-.1,0-.2-.1-.3,0s-.1,0-.1-.1v-.2h-.7v-.2l-.2-.5v-.3a6.1,6.1,0,0,1-.1-.7,5.3,5.3,0,0,1,0-.6v-.2a2.6,2.6,0,0,1,0-1.4,1.7,1.7,0,0,0,0-.9c0-.1,0-.2,0-.3v-.2l-.2-1.2a.7.7,0,0,0-.4-.5h-.1l-.3-.3-.5-.4-.4-.2a2.4,2.4,0,0,0-1.5.3l-1,.6a.3.3,0,0,1-.4,0c-.1-.1-.3-.2-.3-.5l-.2-.2a.4.4,0,0,1-.1-.7h.1c-.1-.3.2-.4.3-.6v-.3a6.8,6.8,0,0,1,.5-1.7.5.5,0,0,1,.8-.3l.6.3h.3l.7-.2a1,1,0,0,0,.9-.7l.3-1.1V51.2l.2-1.1H79.6c.2,0,.3.1.3.3v1.2q0,13.4,0,26.9v.8c0,.2-.1.2-.2.2H50.8c-.1,0-.2-.1-.2-.2v-.8q0-5,0-10.1v-18c0-.3,0-.3.3-.3H54c.2,0,.3.1.2.3a.7.7,0,0,0-.1.6l.4,1.4v.2a1,1,0,0,0,.3.6v.2a.8.8,0,0,0,.4.6v.3l.6.5c.5.4,1.1.3,1.6.3h.1a3,3,0,0,0,.2-.6c0-.1-.1-.2-.1-.3a2.8,2.8,0,0,1-.3-.6c0-.2,0-.4-.2-.5h-.1a11,11,0,0,1-.6-1.7v-.2c-.2-.2-.2-.4-.1-.6h0c0-.1.4-.2.6-.1s.1.2.1.3a2.2,2.2,0,0,1-.1.5,1.3,1.3,0,0,0,.2,1.2,1.9,1.9,0,0,0,.9.8l.6.3H59c.2,0,.2.2.1.3a4,4,0,0,0-.7,1.1l-.4.5-.2.4-.2.3-.6.7-.2.2a1.3,1.3,0,0,0-.4.9V58a1.1,1.1,0,0,0,.1.6,8.1,8.1,0,0,1,.2.8l.2.2a.4.4,0,0,1,.3.3l.2.2h.1l.3.2.5-.2a1.1,1.1,0,0,0,.6-.7l.3-.5h.3a1.3,1.3,0,0,1,.1.9l-.3.3a.2.2,0,0,0-.1.2c0,.1.1.1.2.1h.2c.1.1,0,.1-.1.2h-.6l-.7.7-.5.7h0c0,.2,0,.3-.2.3h-.1l-.5.5c-.2.2-.1.3.1.4h-.1v.2h-.1v-.4h-.2c-.1.3-.4.5-.6.7v.2h0l-.7.7-.6.8-.5.6-.8.8-.3.4-.3.3a1.4,1.4,0,0,0-.1.5v.2a2.6,2.6,0,0,1,.9.4l.7.3.5.2.5.3.5.2.6.2.9.3,1,.4a2.2,2.2,0,0,1,.9.9,1,1,0,0,0,.6.5l.2.2H60l.8-.2h.1a.6.6,0,0,1,.2-.4v-.2a6.5,6.5,0,0,0,.1-1.6V68.8a7.3,7.3,0,0,0,0-.8,6.4,6.4,0,0,1,0-1.1c0-.7,0-1.4,0-2.1h0a16.4,16.4,0,0,1-.1-2.3.9.9,0,0,1,.2-.5L63,60.1l.6-.4c.1-.1.2,0,.2.1v.3c0,.4,0,.9-.1,1.3s-.1.8-.2,1.2a8.5,8.5,0,0,0-.1.9c0,.5,0,1.1,0,1.6a5.2,5.2,0,0,0,.2.7v.3l.2.4a1.7,1.7,0,0,1,.3.6l.2.2h.3a.2.2,0,0,1,.1.2c0,.2.1.2.2.3a.4.4,0,0,1,.3.2h1.3l.2.2a2.3,2.3,0,0,1-.1,1.4.5.5,0,0,0,0,.4,1.5,1.5,0,0,1,.1.7h-.1c-.2,0-.2.2-.2.3v.4a.3.3,0,0,1-.2.3l-.3.2-.2.3h-.1c-.1.1-.3.2-.2.3h.5a1.1,1.1,0,0,1,.6-.7h.3v.2a.4.4,0,0,1-.2.3l-.2.2a.8.8,0,0,1-.4.4h-.6v.2c.2.1.2.1,0,.3l-.2.2-.4.4-.2.2c-.1.2,0,.3.2.3h.2l-.4.2c-.2.1-.3-.1-.4-.3l-.5.5-.7.5c-.2.1-.4.2-.5.4s-.4.2-.6.2a1.1,1.1,0,0,0-.7-.1.5.5,0,0,1-.5-.1h-.3v-.2h-.2v.2a.7.7,0,0,0,0,.4l.5.6.3.2h.1l.7.3h.1a2.4,2.4,0,0,0,1-.3c.2-.1.4-.3.6-.1h-.1v.2h.3l.9-.5L65,77l.6-.4,1-.6.8-.4.5-.4h0c-.1-.3.2-.2.3-.3l1.3-1h.1a1.2,1.2,0,0,0,.7-.4l.5-.4.3-.3.4-.5v-.3l.3-1.3v-.2c0-.2-.1-.5-.1-.7a.7.7,0,0,0-.3-.6l-.2-.3-.4-.3h-.1v-.4c0-.1,0-.3-.2-.3v-.2h-.2v-.3h-.3c-.2.1-.3.1-.4-.2s-.1-.1-.2,0h-.1ZM41.3,47.8l.2.2c.3-.4.6-.3,1-.3h.9a.3.3,0,0,0,0,.2h.2l.8-.3a3.6,3.6,0,0,1,1.8-.3.5.5,0,0,0,.5-.2l.5-.3a.4.4,0,0,0,.2-.5c-.1-.2-.1-.5-.1-.7s0-.4-.1-.6L47,45l-.6-.4a2.6,2.6,0,0,0-1.7-.4H43.4l-.5.2h-.2l-1.1.2-.4.2h-.5l.2-.4.3-.3a.7.7,0,0,1,.2-.4l.3-.3H42a1.5,1.5,0,0,0,1.2,0h.2l1.1-.2.5-.2.8-.4.5-.2.5-.4a1.9,1.9,0,0,1,.9-.7h.1a4.9,4.9,0,0,1,1.3-.9,1.6,1.6,0,0,0,.8-.8h.1v.3q0,4.7,0,9.4c0,.3,0,.3-.3.3H20.8c-.2,0-.2-.1-.2-.2h0q0-14.3,0-28.5c0-.4-.1-.5.4-.5H49.7c.2,0,.3.1.3.3V37l-.4-.2a.3.3,0,0,1-.1-.2.4.4,0,0,0-.1-.4,4.1,4.1,0,0,0-1.7-.9H46.5a9.5,9.5,0,0,0-2.3.2h-.3l-.8.2-1.5.5-1.2.4-.8.4-.8.4h-.1v-.4a.3.3,0,0,0-.1-.3.1.1,0,0,1,.1-.3c.1,0,.3,0,.3-.2h0c.3-.1.3-.3.3-.5l.2-.7a1.3,1.3,0,0,1,.3-.6l.2-.4a1.4,1.4,0,0,1,.6-.7.4.4,0,0,1,.5.2,1.4,1.4,0,0,0,1,.7l1.1.3h.4l.3-.2a3.1,3.1,0,0,0,.3-1.2V31.1l.2-.6v-.3l.2-.5.2-.6.3-1.4V26.3l.2-1.1h.1a.6.6,0,0,0,.2-.7v-.2a1.5,1.5,0,0,0-.4-1h0c0-.3-.2-.4-.4-.5l-.9-.3h-.4a1.8,1.8,0,0,0-1.3.2,4.2,4.2,0,0,1-1.2.6l-.4.3-1.4,1a2,2,0,0,0-.6.6l-.4.4-.6.5a.7.7,0,0,0-.3.8v.3h.5l1-.5a4.4,4.4,0,0,0,1.1-.9,4.4,4.4,0,0,1,1.4-1l.9-.4c.3-.1.5,0,.5.4s0,.5-.1.8L43,26.6v.5l-.6,2.1-.2.7h0l-.5.7h-.2v-.2c0-.5.1-.9.1-1.4a3.9,3.9,0,0,0-.2-1l-.3-.2a3.3,3.3,0,0,0-1.2,0,1.6,1.6,0,0,0-1.1,1h-.3l-.2-.7v-.3l-.2-.8L37.5,26c-.1-.3-.1-.6-.1-.8V25l-.8-.2a.4.4,0,0,0-.4.3,7.9,7.9,0,0,0-.6,2.5v1.1a.7.7,0,0,0,0,.3,2.7,2.7,0,0,1,.1.9,2.4,2.4,0,0,0,.1.4v.3c.1.4.1.8.2,1.1a1.8,1.8,0,0,0,.9,1.2h.1c.4,0,.6.3.9.4h.8v.2l-.9,1.3h-.1a2.7,2.7,0,0,1-.8,1.3c-.2.2-.4.3-.4.6h-.1a6.3,6.3,0,0,0-1,1.5l-.6,1a1.4,1.4,0,0,0,.5,2h.2a.8.8,0,0,0,1.1,0,1.3,1.3,0,0,0,.5-.8l.3-.3,1.3-.6,1.7-.8.4-.2.8-.5h.8l1-.4h.2l.5-.2h.3l1.3-.2c.2,0,.3.2.5.4h0c-.1.2-.1.5-.3.7s-.2.4-.3.5l-.4.5-.2.2-1.9,2.1-.6.5c-.2.1-.3.1-.3-.1a.8.8,0,0,0-.5-.8l-.7-.4-.8-.2h-.6a.6.6,0,0,0-.5.3,1,1,0,0,0-.4.9h0a4.8,4.8,0,0,1,.4.8l.4.3v.2l-.4.6v.2a3.5,3.5,0,0,1-.8,1.1l-.4.4-.7.6a.7.7,0,0,0-.3.5v.3a.7.7,0,0,0,0,.3l.4,1.2a.5.5,0,0,0,.3.4l.7.2H40c0-.2.2-.2.3-.2a.4.4,0,0,0,.4-.2,2.4,2.4,0,0,1,.6-.5ZM24.6,36.5c-.3,0-.4.1-.5.4a6.7,6.7,0,0,0-.1.7,6.8,6.8,0,0,0,0,.9V42c0,.3,0,.6,0,.8v.2a.5.5,0,0,1,.1.5.9.9,0,0,0,.1.7.3.3,0,0,1,0,.4h0l.2,1.1a7.1,7.1,0,0,0,.2,1,1.8,1.8,0,0,0,1,1l1,.4h.6a1.2,1.2,0,0,0,.8-.7l.2-.5v-.3a6.6,6.6,0,0,1,.1-.7,7.9,7.9,0,0,0,.5-1.9,1.7,1.7,0,0,1,.1-.6,1.5,1.5,0,0,0,.1-1,.3.3,0,0,1,.1-.3.2.2,0,0,0,0-.2c-.1-.1-.1-.2-.1-.4a6.5,6.5,0,0,1,.2-1.2c.1-.4.2-.8.2-1.2v-.4h-.2a8,8,0,0,1-.4,1.1,3.9,3.9,0,0,0-.3.9,1.6,1.6,0,0,1-.2.5,1.3,1.3,0,0,0-.3.7h-.1l-.2.4-.3.5v.2l-.6,1.3-.2.2v-.2h0c-.2-.3,0-.6.1-.9h.1c.1,0,.2-.1.2-.2v-.5a.3.3,0,0,0-.2-.3h-.2c.3-.1.3-.2.2-.5a1.2,1.2,0,0,1,0-.3c.1-.3.2-.6.2-.8a1.7,1.7,0,0,1,.3-1,.3.3,0,0,0-.1-.4l-.5-.4-1.1-.9-1.2-1C25,36.7,24.9,36.5,24.6,36.5Zm1.4-5.7V31c0,.1,0,.3.1.3h.3l.3-.2.2-.2a.4.4,0,0,1,.4-.3h.7a3.1,3.1,0,0,0,1.3-.7,1.2,1.2,0,0,0,.6-.9c0-.2.1-.5.1-.7V28a1,1,0,0,0-.6-.5h-.6l-1-.5-.6-.2-.8-.4a.9.9,0,0,0-1.3.4,1.2,1.2,0,0,0,0,1.3v.2l.4,1.3A4.5,4.5,0,0,1,25.9,30.8ZM58.2,70.4,57,70.2a3.3,3.3,0,0,1-1.2-.5l-.6-.3a.3.3,0,0,1-.2-.3c0-.2.2-.2.3-.3s.2-.1.2-.3a.2.2,0,0,1,0-.2H56L57.2,67h0c.1-.4.5-.6.7-.8V66c0-.3.3-.4.4-.5l.4-.5.2-.3.2-.3h.2v.2h0v1.3a2.7,2.7,0,0,1-.1.6V69c0,.3,0,.5-.1.8V70c-.1,0-.2.1-.1.2s0,.2-.1.2h-.4Zm1.9-19.7-.2,1a.3.3,0,0,1-.4.2l-.5-.2h-.2a.5.5,0,0,1-.3-.7,1.1,1.1,0,0,1,.5-.7l.7-.3c.1-.1.4.1.4.3v.4Zm1.6-.7h.6c.1,0,.2,0,.2.2v.6l-.2.7-.2.2-.3.2h-.3s0-.1,0-.2a4.8,4.8,0,0,0,0-1.4C61.4,50,61.4,50,61.7,50ZM39.4,30.4a1.4,1.4,0,0,1,.4-1.1h.3a.4.4,0,0,1,.2.3,10.8,10.8,0,0,1-.1,1.3,1.3,1.3,0,0,1-.2.5h-.2l-.2-.2C39.4,30.9,39.4,30.6,39.4,30.4ZM65.9,74.5c0-.2.2-.5.4-.5h0ZM58.7,62.4h0ZM55.2,66l.3-.3h.1c0,.2-.2.2-.3.3ZM71.9,34h2.7a1,1,0,0,1-.1.8l-.4.2H71.6a.3.3,0,0,1-.4-.3,1.9,1.9,0,0,1,.2-1.1.8.8,0,0,1,.5-.4,3.4,3.4,0,0,1,1.8,0h.4v-.2l-.5-.2H73c-.2,0-.4-.3-.3-.4h.2l1.2.2c.4.1.5.5.2.9a.6.6,0,0,1-.7.3H73a1.7,1.7,0,0,0-1.1.3Zm.7.5H72l-.2.2H72a8.4,8.4,0,0,1,2,.1c.1,0,.2,0,.2-.1H72.6Zm-1.1,2.8h.1c.1.5.3.9,0,1.4h0a.9.9,0,0,1,0,1.1.4.4,0,0,0,.1.6h.1v.2h-.1c-.2-.1-.2,0-.2.2h-.2v-.2c0-.1-.1-.2-.2-.1h-.1c-.2,0-.2.1-.2.2V43c0,.2.1.5.1.7a1.3,1.3,0,0,1-.1.3h-.1v-.2a13,13,0,0,1-.3-3.7c0-.4.1-.8.1-1.2v1.9h.1l.4-.5a.4.4,0,0,0,0-.3,1.1,1.1,0,0,1,0-.9.5.5,0,0,0,0-.3,1.1,1.1,0,0,1,0-.9l.3-.6Zm-.1,2.1a.3.3,0,0,0,0,.4C71.4,39.7,71.5,39.6,71.3,39.5ZM73,36.9H72a.3.3,0,0,1-.3-.2,1.5,1.5,0,0,1,0-1.2c0-.1.2-.1.2,0s.4.3.7.3h1a.3.3,0,0,0,.3-.2l.2-.2v.2a1.6,1.6,0,0,1,0,.9c-.1.2-.2.3-.4.3H73Zm-.2-.7h0Zm-.2,1.8h-.3c-.1,0-.2,0-.2-.2s0-.2.2-.2h.6c.1,0,.2.1.2.2s-.1.1-.2.1ZM33.2,68.6v1.1a4.9,4.9,0,0,1-.1.7,1.3,1.3,0,0,1-.3.7.7.7,0,0,0-.1.3c-.1.4-.3.5-.7.3l-1-.6-.7-.7a.3.3,0,0,1,0-.3,3.1,3.1,0,0,1,1.2-1l.8-.5.6-.7H33v.9Z" style="fill:#e3241e"/></svg>