<svg id="162c7e11-282b-4af5-9f4d-35bdcd69e9bc" data-name="圖層 1" xmlns="http://www.w3.org/2000/svg" viewBox="0 0 100 100"><title>20</title><circle cx="50" cy="50" r="50" style="fill:#b7edcc"/><circle cx="50" cy="50" r="45" style="fill:none;stroke:#fff;stroke-miterlimit:10"/><rect x="41.6" y="65.1" width="1.4" height="6.61" style="fill:#c49669"/><circle cx="42.3" cy="62.5" r="4.4" style="fill:#43d17d"/><rect x="52.2" y="65.1" width="1.4" height="6.61" style="fill:#c49669"/><circle cx="52.9" cy="62.5" r="4.4" style="fill:#43d17d"/><rect x="69.7" y="65.1" width="1.4" height="6.61" style="fill:#c49669"/><circle cx="70.3" cy="62.5" r="4.4" style="fill:#43d17d"/><rect x="78.4" y="65.1" width="1.4" height="6.61" style="fill:#c49669"/><circle cx="79.1" cy="62.5" r="4.4" style="fill:#43d17d"/><rect x="20.6" y="65.1" width="1.4" height="6.61" style="fill:#c49669"/><circle cx="21.3" cy="62.5" r="4.4" style="fill:#43d17d"/><rect x="30.4" y="56" width="3.2" height="15.53" style="fill:#c49669"/><path d="M21.7,49.8A10.3,10.3,0,1,0,32,39.5,10.3,10.3,0,0,0,21.7,49.8Z" transform="translate(0 0)" style="fill:#43d17d"/><polygon points="81.4 31.9 76 27.2 63.7 27.2 63.7 36.6 76 36.6 81.4 31.9" style="fill:#fee677"/><polygon points="40.1 34.7 45.5 39 59.9 39 59.9 30.3 45.5 30.3 40.1 34.7" style="fill:#c49669"/><rect x="59.3" y="26" width="5.1" height="48.42" style="fill:#fee677"/><rect x="59.3" y="26" width="2.4" height="48.42" style="fill:#c49669"/></svg>