<svg id="927beb86-844b-4117-aee1-10037b8ac63d" data-name="圖層 1" xmlns="http://www.w3.org/2000/svg" viewBox="0 0 100.4 100"><title>17</title><circle cx="50" cy="50" r="50" style="fill:#accff6"/><path d="M94.3,72.4a49.9,49.9,0,0,0,6.1-24,50.4,50.4,0,0,0-.5-7.3C69.8,60.2,39.4,16.6.4,45.5c-.1,1-.1,1.9-.1,2.9A50,50,0,0,0,3.2,65.1C36.8,33.9,58.8,67.6,85.3,59,56.4,75.9,37.3,43.2,6.7,72.8a50,50,0,0,0,80.2,9.9c-19.8,1.5-36.2-13.4-54.8-7.4C55.5,61.6,72.5,80.4,94.3,72.4Z" transform="translate(-0.1 0)" style="fill:#3a63c9"/><path d="M55.8,30.7a1.5,1.5,0,0,1-1.5,1.5H45.5a1.5,1.5,0,0,1-1.5-1.5V16a1.5,1.5,0,0,1,1.5-1.5h8.8A1.5,1.5,0,0,1,55.8,16Z" transform="translate(-0.1 0)" style="fill:#fff"/><path d="M67.6,60.2a1.5,1.5,0,0,1-1.5,1.5H33.7a1.5,1.5,0,0,1-1.5-1.5V27.8a1.5,1.5,0,0,1,1.5-1.5H66.1a1.5,1.5,0,0,1,1.5,1.5Z" transform="translate(-0.1 0)" style="fill:#fff"/><polygon points="26.2 44 33.6 79.3 49.8 79.3 49.8 38.1 26.2 44" style="fill:#6dbec4"/><polygon points="73.3 44 49.8 38.1 49.8 79.3 66 79.3 73.3 44" style="fill:#5d9ea6"/><rect x="35.1" y="31.4" width="29.4" height="1.47" style="fill:#242c3c"/><rect x="35.1" y="34.3" width="29.4" height="1.47" style="fill:#242c3c"/><rect x="43.9" y="18.9" width="11.8" height="2.94" style="fill:#e36a5c"/><circle cx="50" cy="50" r="45" style="fill:none;stroke:#fff;stroke-miterlimit:10"/></svg>