<svg id="c7fb270f-6321-4707-bb1a-bac12a0b30e5" data-name="圖層 1" xmlns="http://www.w3.org/2000/svg" viewBox="0 0 100 100"><title>15</title><circle cx="50" cy="50" r="50" style="fill:#d4b99b"/><circle cx="50" cy="50" r="45" style="fill:none;stroke:#fff;stroke-miterlimit:10"/><path d="M65.6,39.1c5.6-1.5,7-4.3,7-4.3a3.4,3.4,0,0,0,.6-2c-1.6,1.3-7.7-.5-7.7-.5s-4.5-2.4-3.3-9c0,0-2.6,2.2-11.8,2.3h-.2c-9.1-.1-11.8-2.3-11.8-2.3,1.2,6.6-3.3,9-3.3,9s-6.1,1.8-7.7.5a3.4,3.4,0,0,0,.6,2s1.3,2.8,7,4.3H65.6Z" transform="translate(0 0)" style="fill:#fee677"/><path d="M65.7,52.3c8.7-1.2,10.7-4.4,10.7-4.4a2.6,2.6,0,0,0,.7-1.8c-2.8,1.8-11.5-.8-11.5-.8H35.1s-8.7,2.6-11.5.8a2.6,2.6,0,0,0,.7,1.8s1.9,3.1,10.4,4.3H65.7Z" transform="translate(0 0)" style="fill:#fee677"/><polygon points="72.5 64.5 67.3 64.5 67.3 63.1 65.7 63.1 65.7 63 34.8 63 34.8 63.1 33 63.1 33 64.5 27.9 64.5 27.9 67.3 23.4 67.3 23.4 73.3 77 73.3 77 67.3 72.5 67.3 72.5 64.5" style="fill:#fee677"/><rect x="35.1" y="39.2" width="30.5" height="6.07" style="fill:#fcefb9"/><rect x="34.8" y="52.4" width="30.9" height="10.62" style="fill:#fcefb9"/><path d="M27.6,33.1C29.5,36.9,37.8,37,37.8,37H62.9s8.2,0,10.2-3.8c0,0-.5,5.5-12.2,5.5H39.8C28.1,38.6,27.6,33.1,27.6,33.1Z" transform="translate(0 0)" style="fill:#ff9b74"/><path d="M51.2,51.8H38c-13.7,0-14.3-5.5-14.3-5.5,2.3,3.8,11.9,3.8,11.9,3.8H65.1s9.7,0,11.9-3.8c0,0-.6,5.5-14.3,5.5Z" transform="translate(0 0)" style="fill:#ff9b74"/><rect x="38.4" y="56.9" width="2.1" height="2.85" style="fill:#f96e6e"/><rect x="45" y="56.3" width="10.4" height="6.72" style="fill:#f96e6e"/><rect x="60.6" y="56.9" width="2.1" height="2.85" style="fill:#f96e6e"/><rect x="60.6" y="40.7" width="2.1" height="2.85" style="fill:#f96e6e"/><rect x="55.1" y="40.7" width="2.1" height="2.85" style="fill:#f96e6e"/><rect x="49.5" y="40.7" width="2.1" height="2.85" style="fill:#f96e6e"/><rect x="44" y="40.7" width="2.1" height="2.85" style="fill:#f96e6e"/><rect x="38.5" y="40.7" width="2.1" height="2.85" style="fill:#f96e6e"/></svg>