<svg id="55927f6b-fa82-4a5f-a99e-7b89908be6a2" data-name="圖層 1" xmlns="http://www.w3.org/2000/svg" xmlns:xlink="http://www.w3.org/1999/xlink" viewBox="0 0 100 100"><defs><clipPath id="d202112a-300d-4935-a471-af55b685650f"><circle cx="50" cy="50" r="45" style="fill:none"/></clipPath></defs><title>19</title><circle cx="50" cy="50" r="50" style="fill:#92b7ef"/><g style="clip-path:url(#d202112a-300d-4935-a471-af55b685650f)"><polygon points="39.3 46.9 26.4 60.3 17.4 50.9 5.8 63.1 5.8 66.3 5.8 68.3 7.7 68.3 53.5 68.3 55.4 68.3 55.4 66.4 55.4 63.8 39.3 46.9" style="fill:#aedd47"/></g><g style="clip-path:url(#d202112a-300d-4935-a471-af55b685650f)"><polygon points="82.4 46.9 69.6 60.3 60.6 50.9 49 63.1 49 66.3 49 68.3 50.9 68.3 96.7 68.3 98.5 68.3 98.5 66.4 98.5 63.8 82.4 46.9" style="fill:#aedd47"/></g><circle cx="50" cy="50" r="45" style="fill:none;stroke:#fff;stroke-miterlimit:10"/><path d="M72.7,49.7c0-4.1-1.7-6.4-5.7-7V41H63v1.6c-4,.6-5.1,2.9-5.1,7L55.6,61l2.8.7,2.5-12.5c0-3.2,1.2-2.9,4.2-2.9h0c3,0,5-.4,5,2.8l2.7,12.5,2.6-.7Z" style="fill:#fcefb9"/><path d="M65.8,76.8l2.3-.2,1.1-15.4H65.6C65.9,65.9,65.8,75.3,65.8,76.8Z" style="fill:#fcefb9"/><path d="M65,76.6c0-1.5-.1-10.7.2-15.3H61.5l1.1,15.4Z" style="fill:#fcefb9"/><path d="M72.4,35.1a7.2,7.2,0,0,1-6.8,7,7.2,7.2,0,0,1-6.8-7,6.8,6.8,0,1,1,13.6,0Z" style="fill:#fcefb9"/><path d="M57.7,62.3a1.2,1.2,0,0,1-1.4.9h0a1.2,1.2,0,0,1-.9-1.4l.4-1.5a1.2,1.2,0,0,1,1.4-.9h0a1.2,1.2,0,0,1,.9,1.4Z" style="fill:#fcefb9"/><path d="M73.4,62.3a1.2,1.2,0,0,0,1.4.9h0a1.2,1.2,0,0,0,.9-1.4l-.4-1.5a1.2,1.2,0,0,0-1.4-.9h0a1.2,1.2,0,0,0-.9,1.4Z" style="fill:#fcefb9"/><path d="M70.2,51.2h3.3a42.2,42.2,0,0,0-.8-4.6,5.3,5.3,0,0,0-3.9-3.6,3.2,3.2,0,0,1-6.4,0,5.3,5.3,0,0,0-3.9,3.6,42.2,42.2,0,0,0-.8,4.6H61v4.3a41.7,41.7,0,0,0-3.2,9.1s.2,1.6,7.8,1.6,7.8-1.6,7.8-1.6a41.5,41.5,0,0,0-3.2-9.2Z" style="fill:#d78c0f"/><path d="M70.2,51.2h3.3a42.2,42.2,0,0,0-.8-4.6,5.3,5.3,0,0,0-3.9-3.6,3.2,3.2,0,0,1-6.4,0,5.3,5.3,0,0,0-3.9,3.6,42.2,42.2,0,0,0-.8,4.6H61v4.3a41.7,41.7,0,0,0-3.2,9.1s.2,1.6,7.8,1.6,7.8-1.6,7.8-1.6a41.5,41.5,0,0,0-3.2-9.2Z" style="fill:#ff9b74"/><path d="M65.1,76.6v1.5H60.8c-.6,0-.2-.4.5-.7s1.3-.7,1.3-.7Z" style="fill:#c49669"/><path d="M65.6,76.6v1.5h4.5c.6,0,.2-.4-.5-.7l-1.6-.7Z" style="fill:#c49669"/><path d="M71.3,29.8A6.9,6.9,0,0,0,65.7,27h-.3a6.5,6.5,0,0,0-5.5,2.8c-2.1,2.8-1.7,8.8-.5,10.2a4.2,4.2,0,0,0,2.2,1.5,9.9,9.9,0,0,1-.5-8.4h4.5a32.6,32.6,0,0,0,4.5-.1,10.2,10.2,0,0,1-.5,8.4A4.9,4.9,0,0,0,71.8,40C72.9,38.6,73.4,32.6,71.3,29.8Z" style="fill:#c49669"/><path d="M42.8,32.6a7.5,7.5,0,0,1-7.1,7.3,7.5,7.5,0,0,1-7.1-7.3,7.1,7.1,0,1,1,14.1,0Z" style="fill:#fcefb9"/><rect x="33" y="39" width="4" height="3" style="fill:#fcefb9"/><path d="M35.7,41h-.1c-5.3,0-7.7,2.7-8.2,7.9L25.6,60.6,25,61.9v.6a1.5,1.5,0,0,0,3,0V61h1l.8-6.7.4-6c0-3.5,1.9-3.6,5.4-3.6v.2c3.5,0,5.4-.4,5.4,3.2l1.2,13H42v1.5a1.5,1.5,0,0,0,3,0v-.6l.2-.9L43.5,49C43.5,43.7,41,41,35.7,41Z" style="fill:#fcefb9"/><polygon points="30.8 55 31.5 76.4 33.7 76.4 35.6 60.1 37.7 76.6 39.7 76.4 40.6 55 30.8 55" style="fill:#68c1c1"/><path d="M35.7,43.9,33.1,41c-3.2.5-4.8,2.4-5.4,5.6-.1.7-1.8,13.4-1.8,13.4h3.4l1.4-10.5V58l9.9.2.2-8.5L42.2,60h3.2s-1.8-13.5-2.1-14.4a7,7,0,0,0-5.8-4.7Z" style="fill:#d9e9f9"/><path d="M33.7,76.3V78H28.7c-.7,0-.2-.5.5-.8a11.6,11.6,0,0,1,2.3-.9Z" style="fill:#c49669"/><path d="M37.6,76.4V78h5.3c.7,0,.2-.4-.6-.8a9.6,9.6,0,0,0-2.5-.8Z" style="fill:#c49669"/><path d="M38.4,24.8c-1.8-.5-4.4-1.1-6.5.6a2.6,2.6,0,0,1,.1-1.2,5.2,5.2,0,0,0-.7,1.6L31,26a5.1,5.1,0,0,0-1.7.3,2.6,2.6,0,0,1,1.2.2,6.5,6.5,0,0,0-1.9,5.9s2.8-3.1,3.3-4.5,10.6,4.2,11,5.3S43.8,26.4,38.4,24.8Z" style="fill:#c49669"/><path d="M56.8,44.8a6.8,6.8,0,0,1-6.4,6.5,6.8,6.8,0,0,1-6.4-6.5,6.4,6.4,0,1,1,12.7,0Z" style="fill:#fcefb9"/><rect x="49" y="50" width="2" height="3" style="fill:#fcefb9"/><path d="M50.5,52h-.1c-4.2,0-6.2,2.2-6.6,6.3l-1.4,8.7-.4.5V68c0,.6.9,1,1.5,1s1.5-.5,1.5-1V67h.1l.7-4.6.3-4.7c0-2.8,1.5-2.8,4.3-2.8V55c2.8,0,4.3-.5,4.3,2.3l1,9.6H55v1c0,.6.9,1,1.5,1s1.5-.5,1.5-1v-.5h.1l-1.4-9C56.7,54.1,54.7,52,50.5,52Z" style="fill:#fcefb9"/><polygon points="46.5 63 47.1 76.4 48.8 76.6 50.4 67.3 52 77 53.7 77 54.4 63 46.5 63" style="fill:#c49669"/><path d="M50.5,54.3l-1.3-2.6a5.4,5.4,0,0,0-5.1,4.4c-.1.5-1.5,9.8-1.5,9.8h2.7l1.1-7.5v7l7.9.2.2-7.1L55.7,66h2.6s-1.4-9.9-1.7-10.6a5.6,5.6,0,0,0-4.9-3.7Z" style="fill:#e0ace5"/><path d="M48.9,76.6V78H44.9c-.5,0-.2-.4.4-.7a9.3,9.3,0,0,1,1.8-.7Z" style="fill:#c49669"/><path d="M52,76.7V78h4.2c.6,0,.2-.3-.4-.6a7.8,7.8,0,0,0-2-.7Z" style="fill:#c49669"/><path d="M44.3,46.4s1.3-4,2.2-5,3.9,3.9,5.8,4.5v-.8a3.6,3.6,0,0,0,2.1,1.3l.4-.7,1.3,1.8a5.2,5.2,0,0,0,.4-5.4c-1.4-3.3-6.1-5.8-9.8-3.2l-.7-.5v1S42.7,42.5,44.3,46.4Z" style="fill:#c49669"/></svg>