<svg id="e1281e73-0dd1-42d0-8116-2913b1c84f2e" data-name="圖層 1" xmlns="http://www.w3.org/2000/svg" xmlns:xlink="http://www.w3.org/1999/xlink" viewBox="0 0 100 100"><defs><clipPath id="397281ab-7f76-4fcf-a9fb-f57977dfb285" transform="translate(0 0)"><circle cx="50.3" cy="50" r="45" style="fill:none"/></clipPath></defs><title>16</title><circle cx="50" cy="50" r="50" style="fill:#c7e2e2"/><g style="clip-path:url(#397281ab-7f76-4fcf-a9fb-f57977dfb285)"><polygon points="39.6 46.8 26.8 60.3 17.7 50.9 6.1 63.1 6.1 66.3 6.1 68.3 8 68.3 53.8 68.3 55.7 68.3 55.7 66.4 55.7 63.8 39.6 46.8" style="fill:#43d17d"/></g><g style="clip-path:url(#397281ab-7f76-4fcf-a9fb-f57977dfb285)"><polygon points="82.8 46.8 70 60.3 60.9 50.9 49.3 63.1 49.3 66.3 49.3 68.3 51.2 68.3 97 68.3 98.9 68.3 98.9 66.4 98.9 63.8 82.8 46.8" style="fill:#43d17d"/></g><circle cx="50.3" cy="50" r="45" style="fill:none;stroke:#fff;stroke-miterlimit:10"/><path d="M68.7,53.7c0-4.1-1.7-6.4-5.7-7V45H59v1.6c-4,.6-5.1,2.9-5.1,7l-.8,3.7-4.2-2-1.4,2,6.9,3.5,1.3-1.6,1.1-6.1c0-3.2,1.2-2.9,4.2-2.9h0c3,0,5-.4,5,2.8l2.7,12.5,2.6-.7Z" transform="translate(0 0)" style="fill:#fcefb9"/><path d="M61.8,80.8l2.3-.2,1.1-15.4H61.6C61.9,69.9,61.8,79.3,61.8,80.8Z" transform="translate(0 0)" style="fill:#fcefb9"/><path d="M61,80.6c0-1.5-.1-10.7.2-15.3H57.5l1.1,15.4Z" transform="translate(0 0)" style="fill:#fcefb9"/><path d="M68.4,39.1a7.2,7.2,0,0,1-6.8,7,7.2,7.2,0,0,1-6.8-7,6.8,6.8,0,1,1,13.6,0Z" transform="translate(0 0)" style="fill:#fcefb9"/><path d="M46.6,57.1a1.2,1.2,0,0,1-.7-1.5h0a1.2,1.2,0,0,1,1.5-.7l1.5.6a1.2,1.2,0,0,1,.7,1.5h0a1.2,1.2,0,0,1-1.5.7Z" transform="translate(0 0)" style="fill:#fcefb9"/><path d="M69.4,66.3a1.2,1.2,0,0,0,1.4.9h0a1.2,1.2,0,0,0,.9-1.4l-.4-1.5a1.2,1.2,0,0,0-1.4-.9h0a1.2,1.2,0,0,0-.9,1.4Z" transform="translate(0 0)" style="fill:#fcefb9"/><path d="M66.2,55.2h3.3a42.4,42.4,0,0,0-.8-4.6,5.3,5.3,0,0,0-3.9-3.6,3.2,3.2,0,0,1-6.4,0,5.3,5.3,0,0,0-3.9,3.6,42.7,42.7,0,0,0-.8,4.6H57v4.3a41.8,41.8,0,0,0-3.2,9.1s.2,1.6,7.8,1.6,7.8-1.6,7.8-1.6a41.5,41.5,0,0,0-3.2-9.2Z" transform="translate(0 0)" style="fill:#d78c0f"/><path d="M66.2,55.2h3.3a42.4,42.4,0,0,0-.8-4.6,5.3,5.3,0,0,0-3.9-3.6,3.2,3.2,0,0,1-6.4,0,5.3,5.3,0,0,0-3.9,3.6,42.7,42.7,0,0,0-.8,4.6H57v4.3a41.8,41.8,0,0,0-3.2,9.1s.2,1.6,7.8,1.6,7.8-1.6,7.8-1.6a41.5,41.5,0,0,0-3.2-9.2Z" transform="translate(0 0)" style="fill:#ff9b74"/><path d="M61.1,80.6v1.5H56.8c-.6,0-.2-.4.5-.7s1.3-.7,1.3-.7Z" transform="translate(0 0)" style="fill:#c49669"/><path d="M61.6,80.6v1.5h4.5c.6,0,.2-.4-.5-.7l-1.6-.7Z" transform="translate(0 0)" style="fill:#c49669"/><path d="M55.9,33.8c-2.1,2.8-1.7,8.8-.5,10.2a4.2,4.2,0,0,0,2.2,1.5,10,10,0,0,1-.5-8.4h4.5a32.5,32.5,0,0,0,4.5-.1,10.2,10.2,0,0,1-.5,8.4A4.8,4.8,0,0,0,67.8,44c1.2-1.3,1.6-7.4-.5-10.1l-.3-.3H56.1Z" transform="translate(0 0)" style="fill:#c49669"/><polygon points="61.6 31 66.1 31 66.1 29.8 62.7 25.1 61.3 26.8 59.9 25.1 56.4 29.8 56.4 31 61 31 61.6 31" style="fill:#fee677"/><path d="M66.1,33.9h2.7a1,1,0,0,0,0-1.9H53.5a1,1,0,0,0,0,1.9H66.1Z" transform="translate(0 0)" style="fill:#fee677"/></svg>