<svg id="fa99db1a-8d4e-48bb-bad0-8216a6422385" data-name="圖層 1" xmlns="http://www.w3.org/2000/svg" viewBox="0 0 100 100"><title>11</title><circle cx="50" cy="50" r="50" style="fill:#9dced1"/><circle cx="50" cy="50" r="45" style="fill:none;stroke:#fff;stroke-miterlimit:10"/><path d="M65.1,65.2c0,2.7-7.1,7.4-15.9,7.4S33.2,68,33.2,65.2c0-7.5,12.3-7.5,12.3-10.7s2-2.8,3.7-2.8,3.6.1,3.6,2.8S65.1,57.8,65.1,65.2Z" transform="translate(0 0)" style="fill:#fcefb9"/><path d="M58.5,45.1a9.4,9.4,0,1,1-9.4-9.7A9.5,9.5,0,0,1,58.5,45.1Z" transform="translate(0 0)" style="fill:#fcefb9"/><path d="M44.2,24.4a7.3,7.3,0,0,0-2.9,2.3A14.3,14.3,0,0,0,40,29.3a13.3,13.3,0,0,0-2.9,4.2c-.8,2.2-2,8.1,2.3,11.7,0,0,.4.3.6-.4s.8-5.8,5.6-8.4,10,2,11.2,4.1A8.7,8.7,0,0,1,58,44.3s.4.7,1.2,0,4.3-4.1,2.1-8.2a9,9,0,0,0-1.9-2.8S59.2,28,54.7,26a7.9,7.9,0,0,0-5.2-.7S48,23.1,44.2,24.4Z" transform="translate(0 0)" style="fill:#92b7ef"/><path d="M39.7,44.6a8.3,8.3,0,0,1-2-3.4c-1.7-5.4.9-10.9,6.3-13.5A14.7,14.7,0,0,1,52,26,6.9,6.9,0,0,1,57.2,29a9.1,9.1,0,0,1,1.6,3.8H56.4a23.8,23.8,0,0,0-10.5,2.4c-3.1,1.6-5.3,3.8-6,7.1A17.2,17.2,0,0,0,39.7,44.6Z" transform="translate(0 0)" style="fill:#fff"/><path d="M58.3,44.1A8,8,0,0,0,55.8,38a10.1,10.1,0,0,0-6.4-2.8l1.3-.4a30,30,0,0,1,8.1-.8l.7.3c2.4,2.5,2,7.4-.9,9.6Z" transform="translate(0 0)" style="fill:#fff"/><path d="M48.2,24.6l-6.1,2.3A8.8,8.8,0,0,1,48.2,24.6Z" transform="translate(0 0)" style="fill:#fff"/><path d="M63.9,57.9a48,48,0,0,1,12.2,3c4.8,2,7.7,4.5,7.7,6.6,0,5-15.1,10-33.7,10s-33.7-5-33.7-10c0-1.9,2.3-4.2,6.2-6.1A38.1,38.1,0,0,1,33,58.3" transform="translate(0 0)" style="fill:none;stroke:#419ce0;stroke-linecap:round;stroke-linejoin:round;stroke-width:2.0132999420166016px"/><path d="M69.8,61.6c3.5.9,8.8,2.5,8.2,5.5s-12.6,7.6-28.2,7.6-28-4-28.2-7.6,3.2-3.9,8-5.2" transform="translate(0 0)" style="fill:none;stroke:#419ce0;stroke-linecap:round;stroke-linejoin:round;stroke-width:1.4128999710083008px"/><path d="M34,70.5c-4.1-1.2-6.6-2.7-6.6-4.2s1.9-2,5.1-3" transform="translate(0 0)" style="fill:none;stroke:#419ce0;stroke-linecap:round;stroke-linejoin:round;stroke-width:1.1332000494003296px"/><path d="M66.4,63.1c3.8,1,6.1,1.8,6.1,3.2s-3.2,3.4-8.1,4.6" transform="translate(0 0)" style="fill:none;stroke:#419ce0;stroke-linecap:round;stroke-linejoin:round;stroke-width:1.1332000494003296px"/><path d="M63.6,58.8" transform="translate(0 0)" style="fill:none;stroke:#3a63c9;stroke-miterlimit:10;stroke-width:1.375100016593933px"/><path d="M29.6,35.7s-6.7,4.5-6.1,7.9,4.8,3.6,4.9,6.6-1.3,4.1-1.3,4.1" transform="translate(0 0)" style="fill:none;stroke:#419ce0;stroke-linecap:round;stroke-linejoin:round;stroke-width:1.5709999799728394px"/><path d="M34.3,38.6s-4.9,3.3-4.5,5.8,3.5,2.7,3.6,4.8a3.6,3.6,0,0,1-.9,3" transform="translate(0 0)" style="fill:none;stroke:#419ce0;stroke-linecap:round;stroke-linejoin:round;stroke-width:1.5709999799728394px"/><path d="M68.3,35.7s6.7,4.5,6.1,7.9-4.8,3.6-4.9,6.6,1.3,4.1,1.3,4.1" transform="translate(0 0)" style="fill:none;stroke:#419ce0;stroke-linecap:round;stroke-linejoin:round;stroke-width:1.5709999799728394px"/><path d="M63.6,38.6s4.9,3.3,4.5,5.8-3.5,2.7-3.6,4.8a3.6,3.6,0,0,0,.9,3" transform="translate(0 0)" style="fill:none;stroke:#419ce0;stroke-linecap:round;stroke-linejoin:round;stroke-width:1.5709999799728394px"/></svg>