<svg id="71045aed-076e-498e-9b35-d2f54af90505" data-name="圖層 1" xmlns="http://www.w3.org/2000/svg" viewBox="0 0 100 100"><title>23</title><circle cx="50" cy="50" r="50" style="fill:#419ce0"/><circle cx="50" cy="50" r="45" style="fill:none;stroke:#fff;stroke-miterlimit:10"/><path d="M30.3,12.6a6.3,6.3,0,0,1-7,10.3,6.8,6.8,0,1,0,7-10.3Z" style="fill:#fee677"/><path d="M29.5,57.3H25.4v1.3a2.1,2.1,0,1,0,4.2,0Z" style="fill:#ff9b74"/><path d="M34.2,58.5V57.3H30.1v1.3a2.1,2.1,0,1,0,4.2,0Z" style="fill:#ff9b74"/><path d="M34.8,57.3v1.3a2.1,2.1,0,0,0,1.4,2v7h-.5V62.4H32v5.1h-9V60.6a2.1,2.1,0,0,0,1.8-2.1V57.3H20.6v1.3a2.1,2.1,0,0,0,1.1,1.8V76.6H37.5v-16a2.1,2.1,0,0,0,1.5-2V57.3Zm-2.3,5.8h2.5v1.6H32.6Z" style="fill:#fee677"/><path d="M37.5,54.6H22l-1.4,1.4H38.9Z" style="fill:#ff9b74"/><path d="M39,57.3H34.8v1.3a2.1,2.1,0,1,0,4.2,0Z" style="fill:#ff9b74"/><path d="M24.8,58.5V57.3H20.6v1.3a2.1,2.1,0,1,0,4.2,0Z" style="fill:#ff9b74"/><path d="M48.7,57.3H44.5v1.3a2.1,2.1,0,1,0,4.2,0Z" style="fill:#ff9b74"/><path d="M53.4,58.5V57.3H49.2v1.3a2.1,2.1,0,1,0,4.2,0Z" style="fill:#ff9b74"/><path d="M54,57.3v1.3a2.1,2.1,0,0,0,1.4,2v7h-.5V62.4H51.1v5.1h-9V60.6a2.1,2.1,0,0,0,1.8-2.1V57.3H39.8v1.3a2.1,2.1,0,0,0,1.1,1.8V76.6H56.7v-16a2.1,2.1,0,0,0,1.5-2V57.3Zm-2.3,5.8h2.5v1.6H51.7Z" style="fill:#fee677"/><path d="M56.6,54.6H41.2l-1.4,1.4H58.1Z" style="fill:#ff9b74"/><path d="M58.2,57.3H54v1.3a2.1,2.1,0,1,0,4.2,0Z" style="fill:#ff9b74"/><path d="M43.9,58.5V57.3H39.8v1.3a2.1,2.1,0,1,0,4.2,0Z" style="fill:#ff9b74"/><path d="M68.8,57.3H64.6v1.3a2.1,2.1,0,1,0,4.2,0Z" style="fill:#ff9b74"/><path d="M73.5,58.5V57.3H69.3v1.3a2.1,2.1,0,1,0,4.2,0Z" style="fill:#ff9b74"/><path d="M74.1,57.3v1.3a2.1,2.1,0,0,0,1.4,2v7H75V62.4H71.2v5.1h-9V60.6A2.1,2.1,0,0,0,64,58.5V57.3H59.8v1.3a2.1,2.1,0,0,0,1.1,1.8V76.6H76.7v-16a2.1,2.1,0,0,0,1.5-2V57.3Zm-2.3,5.8h2.5v1.6H71.8Z" style="fill:#fee677"/><path d="M76.7,54.6H61.3l-1.4,1.4H78.2Z" style="fill:#ff9b74"/><path d="M78.2,57.3H74.1v1.3a2.1,2.1,0,1,0,4.2,0Z" style="fill:#ff9b74"/><path d="M64,58.5V57.3H59.9v1.3a2.1,2.1,0,1,0,4.2,0Z" style="fill:#ff9b74"/><path d="M9.3,50a.7.7,0,0,0,1,.1L9.2,49A.7.7,0,0,0,9.3,50Z" style="fill:#c9daf4"/><path d="M8.3,47.8l3.1,3.1a10.8,10.8,0,0,0,2.9-5l-.5-.5C9.8,46.1,8.3,47.8,8.3,47.8Z" style="fill:#c9daf4"/><path d="M24.8,50.1a.7.7,0,0,0,1-.1.7.7,0,0,0,.1-1Z" style="fill:#c9daf4"/><path d="M21.2,45.4l-.5.5a10.8,10.8,0,0,0,2.9,5l3.1-3.1S25.2,46.2,21.2,45.4Z" style="fill:#c9daf4"/><path d="M20.7,45.2a2.1,2.1,0,0,0-1.8.3c-.8.6-1.2,1.8-1.2,3.7V51h-.3V49c.1-1.9-.3-3.1-1.2-3.7a2.2,2.2,0,0,0-1.8-.3.6.6,0,0,0-.6.1l.8.8a.5.5,0,0,0,.1-.5,1.6,1.6,0,0,1,1.2.3c.7.5,1,1.6,1,3.3V69.1h1.3V52.4h.2v-.6h0V51h-.3V49.1c-.1-1.7.3-2.8,1-3.3a1.6,1.6,0,0,1,1.2-.2.5.5,0,0,0,.1.5l.8-.8A.5.5,0,0,0,20.7,45.2Z" style="fill:#c9daf4"/><rect x="16" y="69.3" width="3.1" height="1.08" style="fill:#c9daf4"/><path d="M73.4,50a.7.7,0,0,0,1,.1L73.3,49A.7.7,0,0,0,73.4,50Z" style="fill:#c9daf4"/><path d="M72.5,47.8l3.1,3.1a10.8,10.8,0,0,0,2.9-5l-.5-.5C74,46.1,72.5,47.8,72.5,47.8Z" style="fill:#c9daf4"/><path d="M88.9,50.1a.7.7,0,0,0,1-.1.7.7,0,0,0,.1-1Z" style="fill:#c9daf4"/><path d="M85.4,45.4l-.5.5a10.8,10.8,0,0,0,2.9,5l3.1-3.1S89.3,46.2,85.4,45.4Z" style="fill:#c9daf4"/><path d="M84.8,45.2a2.1,2.1,0,0,0-1.8.3c-.8.6-1.2,1.8-1.2,3.7V51h-.3V49c.1-1.9-.3-3.1-1.2-3.7a2.2,2.2,0,0,0-1.8-.3.6.6,0,0,0-.6.1l.8.8a.5.5,0,0,0,.1-.5,1.6,1.6,0,0,1,1.2.3c.7.5,1,1.6,1,3.3V69.1h1.3V52.4h.2v-.6h0V51h-.3V49.1c-.1-1.7.3-2.8,1-3.3a1.6,1.6,0,0,1,1.2-.2.5.5,0,0,0,.1.5l.8-.8A.5.5,0,0,0,84.8,45.2Z" style="fill:#c9daf4"/><rect x="80.2" y="69.3" width="3.1" height="1.08" style="fill:#c9daf4"/><circle cx="32.6" cy="39.5" r="5" style="fill:#f96e6e"/><circle cx="68.5" cy="39.5" r="5" style="fill:#fee677"/><circle cx="44.3" cy="32.7" r="5" style="fill:#e0ace5"/><circle cx="57.5" cy="32.7" r="5" style="fill:#7ee2a6"/><polygon points="20.8 26.4 18.9 27.7 16.8 27 17.4 29.1 15.9 30.9 18.2 30.9 19.3 32.8 20.2 30.7 22.4 30 20.6 28.7 20.8 26.4" style="fill:#fee677"/><polygon points="70.7 15.3 68.8 16.6 66.7 15.9 67.2 18.1 65.7 19.9 68 19.9 69.2 21.8 70 19.6 72.3 18.9 70.5 17.6 70.7 15.3" style="fill:#fee677"/><polygon points="79.7 23.2 77.7 24.5 75.6 23.7 76.2 25.9 74.7 27.7 77 27.7 78.2 29.6 79 27.4 81.2 26.8 79.5 25.5 79.7 23.2" style="fill:#fee677"/></svg>