<svg id="dea1ca64-18df-4d66-a334-e0e6803b61ea" data-name="圖層 1" xmlns="http://www.w3.org/2000/svg" viewBox="0 0 100 100"><title>18</title><circle cx="50" cy="50" r="50" style="fill:#c779d3"/><polygon points="42.2 53.6 27.6 56.3 20.4 57.6 6.2 60.6 10.1 71.1 15.8 79.5 23.8 86.8 90.2 70.6 95 56.3 85.8 55.3 67.1 53.6 42.2 53.6" style="fill:#d4b99b"/><path d="M81.2,61.1,70,66.2l-10.4,4H45.9a12.8,12.8,0,0,1-13,5.6c-9.1-1.3-17.1,3.8-17.1,3.8s9,8.6,14.4,11.2S45.2,96.1,55,95a47.1,47.1,0,0,0,22-8.7l9-9,4.7-7.9Z" style="fill:#e5d6c7"/><circle cx="50" cy="50" r="45" style="fill:none;stroke:#fff;stroke-miterlimit:10"/><path d="M11.6,59s6.5,4.7,9.3,4.8,5.6-2.8,6.4-3.9,11.8-25.6,23-28.8S62.8,17,66.4,28.7,54.8,62.2,54.8,62.2s9.5.6,12.1-.1c5.4-1.4,5.3-15,5.6-21.5.5-10.8,8.4-22.8-13.7-23.1s-32.8,7.6-34,17,5.3,25.6-3,26.1c-2.8.2-8-7.6-8-7.6Z" style="fill:#f7d237"/><polygon points="33.3 21.2 27.7 24 27.8 70 33.3 70 33.3 21.2" style="fill:#6dbec4"/><path d="M25.4,74.4s2.1-33.8,28.8-27.1C67,50.5,71.4,67.6,65.7,74.1l10.4,5.3,7.6-6.1s14.5-22.7-16-33S19.6,65.4,18.3,69.2C15.9,76.5,25.4,74.4,25.4,74.4Z" style="fill:#f96e6e"/></svg>