<svg id="d2c15fd2-5b52-42e3-a510-c26692ed54a1" data-name="圖層 1" xmlns="http://www.w3.org/2000/svg" viewBox="0 0 100 100"><title>service-03</title><path d="M100,50A50,50,0,1,1,50,0,50,50,0,0,1,100,50Z" style="fill:#f96e6e"/><circle cx="50" cy="50" r="45" style="fill:none;stroke:#fff;stroke-miterlimit:10"/><circle cx="47.6" cy="69.4" r="9.6" style="fill:#fff"/><path d="M53.9,50a3.8,3.8,0,0,1-1.8-7L72.5,31.7a3.8,3.8,0,0,1,3.6,6.6L55.7,49.5A3.7,3.7,0,0,1,53.9,50Z" style="fill:#fff"/><path d="M63.5,68.6a3.8,3.8,0,0,1-3.8,3.8H37.2a3.8,3.8,0,0,1-3.8-3.8V19.8a3.8,3.8,0,0,1,3.8-3.8H59.7a3.8,3.8,0,0,1,3.8,3.8Z" style="fill:#545454"/><rect x="35.4" y="23.6" width="26.3" height="41.27" style="fill:#fbd764"/><rect x="46.6" y="19.3" width="3.8" height="0.94" style="fill:#404040"/><circle cx="48.5" cy="68.6" r="1.9" style="fill:#404040"/><circle cx="63.5" cy="49.7" r="3.8" style="fill:#fff"/><circle cx="63.5" cy="57.2" r="3.8" style="fill:#fff"/><circle cx="63.5" cy="64.7" r="3.8" style="fill:#fff"/><path d="M27.9,57.3v15h15A15,15,0,0,0,27.9,57.3Z" style="fill:#fff"/><circle cx="35.4" cy="72.3" r="7.5" style="fill:#fff"/><polygon points="48.5 95 36.1 92.8 27.9 89.2 27.9 72.9 48.5 72.9 48.5 95" style="fill:#fff"/><path d="M31.6,65.3a3.8,3.8,0,0,1-3.8-3.8v-.2c0-2.4,0-8.7-2.5-12.6a3.8,3.8,0,0,1,6.4-4c3.6,5.8,3.6,13.4,3.6,16.6v.2A3.8,3.8,0,0,1,31.6,65.3Z" style="fill:#fff"/><circle cx="48.5" cy="44.2" r="9.4" style="fill:#fff"/><path d="M50.9,46.5l-.6.8c-.4.4-1,0-2.1-.9L45.8,44c-.5-.6-1-1.3-.6-1.7l.8-.7-3.5-3.5-.6.8c-.5.7-1.4,3.6,3.1,8.2s7.8,4,8.5,3.4l.7-.6Z" style="fill:#f96e6e"/><path d="M46.3,41.4h0a.5.5,0,0,0,0-.8h0l-2.8-2.7a.5.5,0,0,0-.8,0l-.2.3L46,41.6Z" style="fill:#f96e6e"/><path d="M54.6,49.7a.5.5,0,0,0,0-.8h0l-2.8-2.7a.5.5,0,0,0-.8,0l-.2.3,3.4,3.4.3-.3Z" style="fill:#f96e6e"/></svg>