<svg id="8577b20e-508b-471f-b94a-5a49b1f0efbc" data-name="圖層 1" xmlns="http://www.w3.org/2000/svg" viewBox="0 0 100 100"><title>service-06</title><circle cx="50" cy="50" r="50" style="fill:#419ce0"/><circle cx="50" cy="50" r="45" style="fill:none;stroke:#fff;stroke-miterlimit:10"/><path d="M50.3,63.2l-1.9-.2a6.8,6.8,0,0,0-7.1,7.2,6.9,6.9,0,0,0,7.1,7.2l1.9-.2a6.8,6.8,0,0,0,5.2-7C55.4,66.6,53.5,63.9,50.3,63.2Z" transform="translate(0 0)" style="fill:#f7d237"/><path d="M50.3,22h-.8a27.5,27.5,0,0,0-13.3,3.3l2.7,8.7a15,15,0,0,1,7.9-2.4,7.8,7.8,0,0,1,3.5.8,4.2,4.2,0,0,1,2.3,4c0,1.7-.9,3.5-2.3,5.3l-2.3,3C44.4,48.9,43,53,43.3,57v2.1H53.9V57.7c-.1-3.6,1.2-6.7,4.1-9.9s6.8-7.3,6.8-13.4S60.2,22.3,50.3,22Z" transform="translate(0 0)" style="fill:#f7d237"/></svg>