<svg id="caa1c777-69b8-498e-b585-4d19be0640a8" data-name="圖層 1" xmlns="http://www.w3.org/2000/svg" viewBox="0 0 100 100"><title>link-area</title><circle cx="50" cy="50" r="50" style="fill:#419ce0"/><circle cx="50" cy="50" r="45" style="fill:none;stroke:#fff;stroke-miterlimit:10"/><path d="M23,65.9,35.2,78.2a3.5,3.5,0,0,0,4.9,0L53.6,64.7a3.5,3.5,0,0,0,0-4.9L41.4,47.5a3.5,3.5,0,0,0-4.9,0L23,61A3.5,3.5,0,0,0,23,65.9Zm16-11.1,7.4,7.4-8.6,8.6-7.4-7.4Z" style="fill:#fff"/><path d="M46.3,42.6,58.6,54.9a3.5,3.5,0,0,0,4.9,0L77,41.4a3.5,3.5,0,0,0,0-4.9L64.7,24.2a3.5,3.5,0,0,0-4.9,0L46.3,37.7A3.5,3.5,0,0,0,46.3,42.6Zm16-11.1,7.4,7.4L61,47.5l-7.4-7.4Z" style="fill:#fff"/><path d="M54.9,41.4a3.5,3.5,0,0,1,4.9,0h0a3.5,3.5,0,0,1,0,4.9L45.1,61a3.5,3.5,0,0,1-4.9,0h0a3.5,3.5,0,0,1,0-4.9Z" style="fill:#fff"/><g style="opacity:0.10000000149011612"><rect x="44.7" y="58.3" width="6.9" height="1.74" transform="translate(-27.8 51.5) rotate(-45.1)" style="fill:#abdfff"/><rect x="54.5" y="48.5" width="6.9" height="1.73" transform="translate(-17.9 55.4) rotate(-45)" style="fill:#abdfff"/></g><g style="opacity:0.30000001192092896"><path d="M37.7,75.1h0Z" style="fill:#e5e5e5"/><path d="M46.3,62.3l-8.6,8.6V75a1.7,1.7,0,0,0,1.2-.5L50,63.5a1.7,1.7,0,0,0,.5-1.2h0a1.7,1.7,0,0,0-.1-.5h0A1.7,1.7,0,0,0,50,61l-1.2-1.2-1.2-1.2L45.1,61Z" style="fill:#e5e5e5"/><path d="M38.9,50.7v4.2l1.2,1.2,2.5-2.5-1.2-1.2-1.2-1.2A1.7,1.7,0,0,0,38.9,50.7Z" style="fill:#e5e5e5"/><path d="M62.2,31.6l7.4,7.4L61,47.5v4.2a1.7,1.7,0,0,0,1.2-.5l11-11.1a1.7,1.7,0,0,0,.5-1.2h0a1.7,1.7,0,0,0-.5-1.2l-1.2-1.2-7.4-7.4-1.2-1.2a1.7,1.7,0,0,0-1.2-.5v4.2Z" style="fill:#e5e5e5"/><path d="M60.6,51.6h0Z" style="fill:#e5e5e5"/></g><path d="M39.4,50.8h0Z" style="fill:#ccc"/><path d="M37.7,51.2,26.6,62.3a1.7,1.7,0,0,0-.5,1.2h0a1.7,1.7,0,0,0,.5,1.2L27.9,66l7.4,7.4,1.2,1.2a1.7,1.7,0,0,0,1.2.5V70.9l-7.4-7.4,8.6-8.6V50.7A1.7,1.7,0,0,0,37.7,51.2Z" style="fill:#ccc"/><path d="M62.2,27.4h0Z" style="fill:#ccc"/><path d="M50,38.9a1.7,1.7,0,0,0-.5,1.2h0a1.7,1.7,0,0,0,.1.5h0a1.7,1.7,0,0,0,.4.8l1.2,1.2,1.2,1.2,2.5-2.5-1.2-1.2,8.6-8.6V27.4a1.7,1.7,0,0,0-1.2.5Z" style="fill:#ccc"/><path d="M58.6,50l1.2,1.2a1.7,1.7,0,0,0,1.2.5V47.5l-1.2-1.2-2.5,2.5Z" style="fill:#ccc"/><path d="M45.1,61,59.8,46.3a3.5,3.5,0,0,0,0-4.9L40.1,61A3.5,3.5,0,0,0,45.1,61Z" style="fill:#ccc"/></svg>