<svg id="0ec43fbd-0b94-41d7-af3d-c76d8651376d" data-name="圖層 1" xmlns="http://www.w3.org/2000/svg" viewBox="0 0 100 100"><title>service-05</title><circle cx="50" cy="50" r="50" style="fill:#aedd47"/><circle cx="50" cy="50" r="45" style="fill:none;stroke:#fff;stroke-miterlimit:10"/><ellipse cx="50.4" cy="50.2" rx="31.4" ry="29.2" transform="translate(-20.7 50.9) rotate(-45.5)" style="fill:#f7d237"/><path d="M56.2,78.8l-.8-.2h0a6.7,6.7,0,0,1-4.5-6.7,1.1,1.1,0,0,1,.1-.5c-.2-.4.3-.7,0-1a1.4,1.4,0,0,0,.3-.7c0-.1.2-.3.2-.4s.4-.4.3-.6.2-.8.5-.9.2-.3.2-.4.2-.4.3-.7a.4.4,0,0,0,.2-.4h.2v-.2c-.2.1-.7-.1-.6.3s-.1.2-.2.2-.4.4-.2.8,0,.5-.3.7a2.1,2.1,0,0,1-.5.8c0,.1,0,.2-.1.2s0-.5.2-.6.4-1,.6-1.5.2-.6.4-.8.3-.6.4-.9.3-.6.4-1.1.2-.6.4-.7a8.6,8.6,0,0,1,.8-1.4c.2-.1.1-.3.3-.5s0-.5.3-.7.3-.6.6-.7h0c.4-.4.6-.9,1.2-.9s.3-.1.5-.2.2-.1.1-.2.5-.4.6-.8.2-.5.5-.7.2-.3.1-.5-.2.3-.3.4-.4.2-.4.4,0,.3-.2.3-.3.3-.2.5h-.3c-.2-.2.1-.5.1-.8s.3-.2.2-.4-.2.2-.3.3h-.2c0-.2,0-.4.3-.5s.3-.3.2-.5.2-.4.5-.4,0-.1-.1-.2h.1V55a2.2,2.2,0,0,1,.7-.5c-.1-.1.1-.3.1-.3s.5-.4.5-.7.4-.2.5-.3.2-.3.4-.5a.3.3,0,0,1,0-.2c.3-.1.4-.5.6-.7s.3-.2.1-.4h.1c-.1-.1.1-.1.2-.2s.7-.5.6-1-.2.2-.3,0l.2-.5h0v.2H62l.4-.3c0-.1,0-.1-.1-.2h.1c.3.1.2-.2.5-.2v-.4l.4-.2c0-.2.2-.2.2-.4a2,2,0,0,0,.5-1c.2-.1.1-.4.3-.5s.2-.1.1-.3l.2-.2c0-.2.1-.3.1-.4l.3-.3c0-.2.2-.4.3-.6l.6-1.1c.3-.2.2-.5.2-.8a3,3,0,0,1-.1-1.2c0-1-1.8-.6-2.3-.5h-.1c-.1.3-.5.1-.6.3h-.4c-.1.2-.4.1-.6.2h-.4l-.5.2c-.1.2-.4,0-.3.3h-.4c-.1.2-.3.2-.5.2s-.2.2-.4.2-.2,0-.3.1-.5.1-.8.1h-.1c-.2-.1-.2.1-.3.2L57,44l-.4.2H56c-.1.1-.3,0-.4,0h-.1c-.3.2-.6,0-.9.2s-.5-.1-.6.2h-.3c-.1,0-.1.1-.1.2l-.9.2c-.1.2-.3,0-.4.2h-.7c-.3-.1-.3.2-.5.2h0a.9.9,0,0,0-.6.3h-.3c-.4-.1-.5.3-1,.3s-.5.1-.5.3-.5.1-.8.2-.4.2-.7.2h-.5c-.2.2-.6.1-.8.4s-.3,0-.3.1-.3.1-.4.2-.6.1-.9.3-.2.2-.4.1-.2.1-.2.2h-.5c-.2.1-.5,0-.7.1s-.3.2-.3.4h-.6c-.2-.1-.3.1-.4.2h0s0,.2-.1,0a.5.5,0,0,0-.5.3c-.1,0-.3-.2-.4,0s-.3.1-.4.2a.1.1,0,0,1-.1.2c-.2-.1-.4.1-.6.1h-.5v.2c-.2.1-.1.3-.3.2s-.1-.1-.3-.1-.5,0-.7.2-.3.1-.4.2-.6.1-.8.4-.5.2-.8.2-.4-.1-.5.2-.5.2-.8.2-.4.1-.5.3H33l-.8.3c-.3,0-.3.3-.6.2l-.6.3c.1.2-.2.1-.3.1s-.3.1-.2.2l-.7.2c-.1.2-.3.1-.3.2s-.3,0-.3.1-.3.1-.5.1-.5.2-.8.4h-.5c-.1.2-.4.2-.6.2l-.5.2v.2h1.1s0-.1,0-.1h.3c.2.2.5-.2.8-.1h-.2c-.1.2.1.2.1.3h.1s0,.1,0,.1l1.2-.2c.2.2.5,0,.7.1h.5c.1.1.2.1.2.2h-.1v.2c.1,0,.3,0,.3-.1h.3v-.2h-.1c.1,0,.2,0,.1-.1h0c.2,0,.4.1.3.3h0c.2,0,.4-.1.5.1h.6v-.2h.9c-.1-.2.4-.2.3-.4h.5c.1-.2.4.1.5-.2h.4c.1,0,.4,0,.3-.2h.3c-.1-.2.2,0,.3-.1h0c.2.1.1-.1.2-.2s.3.2.4.2,0,.1,0,.1-.2.2-.3.3h-.2c-.1-.1-.1.1-.2.1s-.7.4-1.2.3-.1.2-.1.3-.2-.1-.2.1h-.2c0,.2-.2.3-.1.5h.1c.1-.1.3-.1.3-.2s0-.1.1-.1.4-.2.6-.3.3,0,.4.2h-.2v.3c.2-.1.2.1.4.1s.4.1.6,0h.7c.2,0,.3-.2.6-.1s.2,0,.2-.2.4-.3.6-.2.4,0,.5-.1h.6l.2-.2c.1-.1.2.1.3-.1h.5v-.2h.4c0-.2.3,0,.3-.2h1.5c.1-.1,0-.2.2-.3s0,0,0,.1h.7v-.2c.2-.2.6-.1.8-.2s.4,0,.3-.2a1.4,1.4,0,0,1,.8-.2h.1c.2,0,.1-.2.2-.2s.2-.2.5-.1h.5c.1-.1.2-.1.3-.2h.3c0,.2-.4.2-.4.4s-.1.3-.2.2h-.4v.3h.1a.4.4,0,0,1-.2.3,5.8,5.8,0,0,1-.3.8c-.4,0,.1.5-.3.5s-.5.7-.7,1.2a6.3,6.3,0,0,0-.6,1.3.5.5,0,0,0-.3.5c-.3.2-.2.6-.5.8s-.2.3-.1.4a11.5,11.5,0,0,0-.9,1.6c0,.2-.2.3-.2.5s0,.3-.2.4,0,.5-.2.6-.3.5-.3.8l-.3.8a.2.2,0,0,1,0,.2c.2.3-.1.4-.1.6s-.2.4-.2.7,0,.2.1.3,0,.4,0,.7-.1.3-.4.4-.4.2-.1.5h.2c.1.2-.1,0-.3.1a5.1,5.1,0,0,1,0,1l-.3.5c0,.3-.1.7-.1,1.1a6.9,6.9,0,0,0,0,1.5,9.5,9.5,0,0,0,.4,1.9,7,7,0,0,0,1.4,2.6,2.1,2.1,0,0,0,.6.7,1.1,1.1,0,0,0,.5.4c.1.2.5.1.4.3s.2.5.8.2,0,.3.2.4.2.3.4.1l.6.2.7.2a26.9,26.9,0,0,0,4.5.5,35.9,35.9,0,0,0,7.6-1.9A5.9,5.9,0,0,1,56.2,78.8Z" transform="translate(0 0)" style="fill:#fff"/><path d="M65.1,27.7l-2.8-1.4c-.9,0-1.9.2-2.6-.3s-2.9.9-4.7.9a7.4,7.4,0,0,0-2.4,1.2c-.5,1,.7,1.4,1,2.1s2.2,1.1,2.4,2.3h0c0,.4.4,2.5,4,3.8h.4a11,11,0,0,0,3.4,1c1.4-.2,2.1-1,3.1-1.9s2.4-1.2,2.4-2.6-1.2-2.3-1.7-3.5S66,28.1,65.1,27.7Z" transform="translate(0 0)" style="fill:#fff"/></svg>