<svg xmlns="http://www.w3.org/2000/svg" width="100" height="100" viewBox="0 0 100 100"><circle fill="#ACCFF6" cx="50" cy="50" r="49.998"/><path fill="#43D17D" d="M53.154 94.971v-.093c-.661.046-1.326.076-1.995.093h1.995z"/><path opacity=".15" fill="#666" d="M53.154 94.971v-.093c-.661.046-1.326.076-1.995.093h1.995z"/><path fill="#43D17D" d="M53.159 32.857l-.005.009zM48.841 94.971c.387.009.77.029 1.159.029l1.159-.029h-2.318zM55.45 41.791l-2.296 6.582v46.505c11.717-.813 22.194-6.104 29.736-14.183l-21.691-34.901-5.749-4.003z"/><path opacity=".15" fill="#666" d="M53.154 32.866v-.036l-29.413 53.702.012.009z"/><path fill="#43D17D" d="M52.171 51.192l-2.015-7.499-4.242 2.392 7.24-13.219-29.401 53.675c7.096 5.106 15.735 8.192 25.088 8.43h2.318c.669-.017 1.334-.047 1.995-.093v-46.505l-.983 2.819z"/><path opacity=".15" fill="#666" d="M52.171 51.192l-2.015-7.499-4.242 2.392 7.24-13.219-29.401 53.675c7.096 5.106 15.735 8.192 25.088 8.43h2.318c.669-.017 1.334-.047 1.995-.093v-46.505l-.983 2.819z"/><path fill="#F2F2F2" d="M61.202 45.796l-8.043-12.939 8.04 12.937zM53.154 48.373l2.296-6.582 5.749 4.003-8.04-12.937-.005.009zM45.914 46.085l4.242-2.392 2.015 7.499.983-2.819v-15.507z"/><path opacity=".92" fill="#fff" d="M69.959 29.1c2.805 0 5.071-2.268 5.071-5.067 0-2.804-2.267-5.077-5.071-5.077-.627 0-1.218.117-1.772.321-.905-2.918-3.629-5.032-6.845-5.032-1.183 0-2.311.287-3.298.806-1.585-2.192-4.165-3.616-7.085-3.616-4.785 0-8.683 3.842-8.763 8.604-2.464 0-4.452 1.988-4.452 4.449 0 2.462 1.988 4.46 4.452 4.46l26.896.08c.277.043.572.072.867.072z"/><path opacity=".83" fill="#F2F2F2" d="M32.879 38.406c-.062-3.578-2.987-6.462-6.58-6.462-2.193 0-4.131 1.068-5.322 2.717-.74-.39-1.587-.605-2.476-.605-2.416 0-4.461 1.587-5.14 3.779-.419-.155-.862-.241-1.334-.241-2.105 0-3.808 1.705-3.808 3.812 0 2.104 1.702 3.805 3.808 3.805.223 0 .444-.018.653-.053l20.198-.06c1.851 0 3.343-1.5 3.343-3.349.001-1.85-1.492-3.343-3.342-3.343z"/><circle stroke="#fff" stroke-miterlimit="10" cx="50" cy="50" r="44.998" fill="none"/></svg>