<svg id="bc3c8820-0f29-498a-a1ce-626ff221a1b6" data-name="圖層 1" xmlns="http://www.w3.org/2000/svg" viewBox="0 0 100 100"><title>notice-07</title><circle cx="50" cy="50" r="50" style="fill:#419ce0"/><circle cx="50" cy="50" r="45" style="fill:none;stroke:#fff;stroke-miterlimit:10"/><path d="M52.2,57.2l-6.9-6.9,7.6-7.6,6.9,6.9,1.9-1.9-6.9-6.9,3.4-3.4-6.1-6.1A12.6,12.6,0,0,0,36,29.8l-7.8-7.8-3.3,3.3L32.7,33a12.6,12.6,0,0,0,1.5,16.1l6.1,6.1,3.1-3.1,6.9,6.9Z" style="fill:#f96e6e"/><path d="M74.2,68a12.6,12.6,0,0,0-1.5-16.1l-6.1-6.1L48.8,63.7l6.1,6.1A12.6,12.6,0,0,0,71,71.3l8.4,8.4,3.3-3.3Z" style="fill:#ffee4d"/><path d="M49.1,63.9l5.8,5.8c4.4,4.4,10.7,5,16.1,1.5A13.7,13.7,0,0,0,74.2,68a12.6,12.6,0,0,0,1.8-4Z" style="fill:#37353a;opacity:0.15000000596046448;isolation:isolate"/><path d="M58,37.1H30.9a12.6,12.6,0,0,0,3.3,12l6.1,6.1,3.1-3.1L54.8,40.7l3.4-3.4Z" style="fill:#37353a;opacity:0.15000000596046448;isolation:isolate"/></svg>