<svg id="a3e88ada-9cc4-4447-9271-04cfabc1225a" data-name="圖層 1" xmlns="http://www.w3.org/2000/svg" viewBox="0 0 100 100"><title>notice-09</title><path d="M100,50A50,50,0,1,1,50,0,50,50,0,0,1,100,50Z" style="fill:#ff9b74"/><circle cx="50" cy="50" r="45" style="fill:none;stroke:#fff;stroke-miterlimit:10"/><path d="M64.7,25.2h-30a10,10,0,0,0-10,10v30a10,10,0,0,0,10,10h30a10,10,0,0,0,10-10v-30A10,10,0,0,0,64.7,25.2Zm8.3,40a8.3,8.3,0,0,1-8.3,8.3h-30a8.3,8.3,0,0,1-8.3-8.3v-30a8.3,8.3,0,0,1,8.3-8.3h30A8.3,8.3,0,0,1,73,35.2Z" style="fill:#edd87e"/><g style="opacity:0.10000000149011612"><polygon points="73 40 73 42.4 74.7 40.7 74.7 38.3 73 40"/><polygon points="73 44.7 73 47.1 74.7 45.4 74.7 43.1 73 44.7"/><polygon points="73 58.9 73 61.2 74.7 59.6 74.7 57.2 73 58.9"/><polygon points="73 54.1 73 56.5 74.7 54.8 74.7 52.5 73 54.1"/><polygon points="73 49.4 73 51.8 74.7 50.1 74.7 47.8 73 49.4"/><polygon points="53.1 26.9 55.5 26.9 57.1 25.2 54.8 25.2 53.1 26.9"/><path d="M72.1,31.5a8.3,8.3,0,0,1,.6,1.7l1.3-1.3a10,10,0,0,0-.7-1.6Z"/><polygon points="57.8 26.9 60.2 26.9 61.8 25.2 59.5 25.2 57.8 26.9"/><path d="M66.9,27.2l1.7.7,1.2-1.2-1.6-.8Z"/><path d="M28.3,70.6l-1.2,1.2,1.2,1.2,1.2-1.2Z"/><polygon points="48.4 26.9 50.7 26.9 52.4 25.2 50.1 25.2 48.4 26.9"/><path d="M26.3,65.2V63.1l-1.7,1.7v.5a10.2,10.2,0,0,0,.2,1.7l1.5-1.5Z"/><path d="M34.7,73.6l-1.5,1.5h2.2l1.7-1.7Z"/><path d="M27.2,31.6A8.3,8.3,0,0,1,31,27.8l2.5-2.5a9.9,9.9,0,0,0-3.4,1l-4.3,4.3a9.9,9.9,0,0,0-1,3.4Z"/><path d="M64.7,26.9h.2l1.5-1.5-1.7-.2h-.5l-1.7,1.7Z"/><path d="M73,37.6,74.7,36v-.8a10.3,10.3,0,0,0-.1-1.5L73,35.3Z"/><path d="M73,63.6v1.7c0,.3-.1.5-.1.8l1.7-1.7V61.9Z"/><path d="M71.2,30.1l1.2-1.2-1.2-1.2L70,28.9Z"/><polygon points="41.8 73.6 39.4 73.6 37.8 75.2 40.1 75.2 41.8 73.6"/><polygon points="51.2 73.6 48.9 73.6 47.2 75.2 49.6 75.2 51.2 73.6"/><polygon points="55.9 73.6 53.6 73.6 51.9 75.2 54.3 75.2 55.9 73.6"/><path d="M27.3,69.2a8.3,8.3,0,0,1-.7-1.7l-1.3,1.3a10.1,10.1,0,0,0,.8,1.6Z"/><path d="M32.6,73.3l-1.7-.6-1.2,1.3,1.6.7Z"/><polygon points="46.5 73.6 44.1 73.6 42.5 75.2 44.8 75.2 46.5 73.6"/><polygon points="60.6 73.6 58.3 73.6 56.6 75.2 59 75.2 60.6 73.6"/><path d="M73.2,70.5a9.9,9.9,0,0,0,1.4-3.7l-2.8,2.8a8.3,8.3,0,0,1-2.9,2.9l-2.8,2.8a10,10,0,0,0,3.7-1.4Z"/><path d="M65.4,73.5H63l-1.7,1.7h2.4Z"/><polygon points="26.3 60.7 26.3 58.4 24.7 60.1 24.7 62.4 26.3 60.7"/><polygon points="26.3 41.9 26.3 39.5 24.7 41.2 24.7 43.6 26.3 41.9"/><path d="M26.3,37.2V35.2c0-.2,0-.3,0-.5l-1.7,1.7v2.4Z"/><path d="M34.2,26.9h2.4l1.7-1.7H35.9Z"/><polygon points="43.7 26.9 46 26.9 47.7 25.2 45.3 25.2 43.7 26.9"/><polygon points="39 26.9 41.3 26.9 43 25.2 40.6 25.2 39 26.9"/><polygon points="26.3 56 26.3 53.7 24.7 55.3 24.7 57.7 26.3 56"/><polygon points="26.3 51.3 26.3 49 24.7 50.6 24.7 53 26.3 51.3"/><polygon points="26.3 46.6 26.3 44.2 24.7 45.9 24.7 48.3 26.3 46.6"/></g><path d="M49.7,25.2a25,25,0,1,0,25,25A25,25,0,0,0,49.7,25.2Zm0,38.3A13.3,13.3,0,1,1,63,50.2,13.3,13.3,0,0,1,49.7,63.6Z" style="fill:#ef4d4d"/><path d="M40.2,40.8a13.3,13.3,0,0,1,2.9-2.2l-6.3-9.8a24.2,24.2,0,0,0-8.7,8.7L38,43.7A13.4,13.4,0,0,1,40.2,40.8Z" style="fill:#eaeaea"/><path d="M61.3,43.7l9.8-6.3a24.2,24.2,0,0,0-8.7-8.7l-6.3,9.8a13.1,13.1,0,0,1,5.1,5.1Z" style="fill:#eaeaea"/><path d="M61.3,56.8a13,13,0,0,1-5.1,5.1l6.3,9.8A24.2,24.2,0,0,0,71.1,63Z" style="fill:#eaeaea"/><path d="M38.1,56.8,28.2,63a24.2,24.2,0,0,0,8.7,8.7l6.3-9.8a13,13,0,0,1-5.1-5.1Z" style="fill:#eaeaea"/><g style="opacity:0.15000000596046448"><path d="M74.6,48.6a25,25,0,0,1-49.8,0c0,.6-.1,1.1-.1,1.7a25,25,0,1,0,50,0C74.7,49.7,74.6,49.1,74.6,48.6Z"/><path d="M49.7,36.9A13.3,13.3,0,0,1,62,45.1a12.4,12.4,0,0,0-24.6,0A13.3,13.3,0,0,1,49.7,36.9Z"/></g><path d="M36.3,48.6H24.7a1.7,1.7,0,0,0,0,3.3H36.3a1.7,1.7,0,0,0,0-3.3Z" style="fill:#434854"/><path d="M74.7,48.6H63a1.7,1.7,0,1,0,0,3.3H74.7a1.7,1.7,0,1,0,0-3.3Z" style="fill:#434854"/><path d="M49.7,23.6A1.7,1.7,0,0,0,48,25.2V36.9a1.7,1.7,0,0,0,3.3,0V25.2A1.7,1.7,0,0,0,49.7,23.6Z" style="fill:#434854"/><path d="M49.7,61.9A1.7,1.7,0,0,0,48,63.6V75.2a1.7,1.7,0,0,0,3.3,0V63.6A1.7,1.7,0,0,0,49.7,61.9Z" style="fill:#434854"/></svg>