<svg id="1937bf3c-c67a-4ea5-b859-87c98f50fa79" data-name="Layer 1" xmlns="http://www.w3.org/2000/svg" viewBox="0 0 100 100"><title>accommodation-information-08</title><circle cx="50" cy="50" r="50" style="fill:#68c1c1"/><circle cx="50" cy="50" r="45" style="fill:none;stroke:#fff;stroke-miterlimit:10"/><path d="M22.3,17.9H77.8V82.1H22.3Z" style="fill:#f6e296"/><circle cx="50" cy="50" r="25" style="fill:#f7b703"/><path d="M69.2,42.2l2,.4,1,.4h-.4l-2.6-.4a32.6,32.6,0,0,0-6.6.3l-.3.2,1.1.3,1,.4a1,1,0,0,1,.4,1.7,7.2,7.2,0,0,1-2.7,2.2A26.6,26.6,0,0,1,56,49.9L46.6,52l-2.4.5-4,.5c-.9.1-1.7.3-1.6,1.4h0l-1,3.3h0v.3l-.2.5-.7,2.5-1.2,3.9a2.4,2.4,0,0,0,0,.5h5a.8.8,0,0,0,.9-.7L43,59.2l1.8-6c.2-.7.3-.7,1-.8l2.5-.3,2.4-.3c-1.5,4.6-2.9,9.1-4.3,13.8h5.6c.2,0,.4-.3.4-.5l.7-2.1,1.8-6,1.7-5.5c.1-.3.2-.5.5-.5l5.4-1.1a34.3,34.3,0,0,0,7.7-2.7,10.5,10.5,0,0,0,2.3-1.6,1.4,1.4,0,0,0-.4-2.4l-.4-.3a1.6,1.6,0,0,1,1.2,2.6,6,6,0,0,1-2.1,1.7,25.9,25.9,0,0,1-5.5,2.2l-3.8,1.1a29.3,29.3,0,0,1-3.4.6c-1,.1-1.3.5-1.5,1.4-1,3.4-2,6.8-3.1,10.2l-.9,2.8a.5.5,0,0,1-.5.4H46.1c.1-.4.1-.7.2-1l1.6-5a2.9,2.9,0,0,0,.1-.4l.2-.4,1.6-5.1.4-1.5h-.4l-4.2.5c-.2,0-.4.3-.4.5l-1.3,4.3-1.7,5.6-.7,2.2a.7.7,0,0,1-.8.6h-5c-.6,0-.7-.1-.6-.7l.6-2.2v-.4l.8-2.3,1.4-4.5.7-2.3c.1-.5.5-.6.9-.7l2.6-.4,2.7-.4,4.1-.7,3.7-.9,4.6-1.2,4.3-1.7a7.9,7.9,0,0,0,2.9-2c.7-.8.6-1.3-.4-1.7L62,43.2l-.5-.4.5-.3,5.5-.4h1.8ZM61.5,34c.3.1.3.4.2.6l-1,3.4L59,43.9c-.3.9-.5,1.8-.8,2.6a1.2,1.2,0,0,1-.6.7L51.6,49h-.5l-.3-.2-3.6.6H45.9l4.5-15.1H44.7l-.2.5-.9,3.2L40.1,49.6c-.1.3-.3.4-.6.4H37.7a5.4,5.4,0,0,1-1.6-.5,1.2,1.2,0,0,1-.3-2.1l.5-.5h-.6l-1.7.4a22.7,22.7,0,0,0-5.1,1.8l-1.5,1c-.6.5-.5.7.1,1.1a6.2,6.2,0,0,0,3.1.8,36.9,36.9,0,0,0,8.8-.5l6.5-1.3,1.5-.4h.7l3-.6c1.5-.1-2.2.6-2.6.7l-5.8,1.4-2.5.5c-1.7.2-3.4.5-5.1.6a17.8,17.8,0,0,1-7-.5l-1.1-.6a.5.5,0,0,1,0-.8,5.3,5.3,0,0,1,1.2-1,27.9,27.9,0,0,1,3.5-1.5l4.6-1.2h.7l-.4.5-.4.4a1.1,1.1,0,0,0-.4,1.2,1.2,1.2,0,0,0,1,.8l2.3.4a.7.7,0,0,0,.9-.6l1.9-6.3,1.9-6.3.7-2.4,1-.2H50c.7,0,.8.1.6.8L47.1,46.3l-.9,2.9,1.6-.2,2.9-.4a.8.8,0,0,0,.7-.6L54.3,38l1-3.5a.7.7,0,0,1,.7-.5h5.4ZM54,40.2v.5h0l-.4,1.4-1.8,5.9v.7h.4l4.4-1.3c1.9-.6,1.5-.3,2-2L61,36.1l.4-1.7H56c-.3,0-.4.3-.5.5L54,40.2Z" style="fill:#ecd991"/><path d="M37.6,57.9l1-3.3h0c0-1.1.7-1.3,1.6-1.4l4-.5,2.4-.5L56,49.9a26.5,26.5,0,0,0,6.2-2.3,7.2,7.2,0,0,0,2.7-2.2,1,1,0,0,0-.4-1.7l-1-.4L62.3,43l.3-.2a32.6,32.6,0,0,1,6.6-.3l2.6.4h0l.4.3a1.4,1.4,0,0,1,.4,2.4,10.5,10.5,0,0,1-2.3,1.6,34.4,34.4,0,0,1-7.7,2.7L57,51c-.4.1-.4.3-.5.5L54.8,57l-1.8,6-.7,2.1c-.1.2-.3.5-.4.5H46.3c1.4-4.6,2.8-9.1,4.3-13.8l-2.4.3-2.5.3c-.7.1-.8.1-1,.8l-1.8,6L41.3,65a.8.8,0,0,1-.9.7h-5a2.4,2.4,0,0,1,0-.5l1.2-3.9.7-2.5.2-.5V58Z" style="fill:#238e3e"/><path d="M69.2,42.2h0ZM37.5,58.3l-.2.5Zm.1-.4h0Z" style="fill:#d2ad01"/><path d="M49.8,49.3l1.3-.3Z" style="fill:#ecd991"/><path d="M51.1,49l-.3-.2-3.6.6H45.9l4.5-15.1H44.7l-.2.5-.9,3.2L40.1,49.6c-.1.3-.3.4-.6.4H37.7a5.4,5.4,0,0,1-1.6-.5,1.2,1.2,0,0,1-.3-2.1l.5-.5h-.6l-1.7.4a22.7,22.7,0,0,0-5.1,1.8l-1.5,1c-.6.5-.5.7.1,1.1a6.2,6.2,0,0,0,3.1.8,36.9,36.9,0,0,0,8.8-.5l6.5-1.3,1.5-.4h.7l1.6-.3h.2l1.3-.3Zm2.7-8.3v-.5h0l1.6-5.3c.1-.3.2-.5.5-.5h5.4L61,36.1l-2.7,9.3c-.5,1.7-.1,1.4-2,2l-4.4,1.3h-.4v-.7l1.8-5.9.4-1.4Z" style="fill:#242f72"/><path d="M53.8,40.7h0Zm.1-.5h0Z" style="fill:#d2ad01"/></svg>