<?xml version="1.0" encoding="utf-8"?>
<!-- Generator: Adobe Illustrator 16.0.0, SVG Export Plug-In . SVG Version: 6.00 Build 0)  -->
<!DOCTYPE svg PUBLIC "-//W3C//DTD SVG 1.1//EN" "http://www.w3.org/Graphics/SVG/1.1/DTD/svg11.dtd" [
	<!ENTITY st0 "fill:#48969B;">
	<!ENTITY st1 "fill:#ACCFF6;">
	<!ENTITY st2 "fill:#E5951F;">
	<!ENTITY st3 "fill:#4C9E8C;">
	<!ENTITY st4 "fill:#4EA190;">
	<!ENTITY st5 "fill:#800B0D;">
	<!ENTITY st6 "fill:#EA444E;">
	<!ENTITY st7 "fill:#545454;">
	<!ENTITY st8 "fill:none;stroke:#FFFFFF;stroke-miterlimit:10;">
	<!ENTITY st9 "fill:#8C1113;">
	<!ENTITY st10 "fill:#F2F2F2;">
	<!ENTITY st11 "fill:#F7B858;">
	<!ENTITY st12 "fill:#5DBCA8;">
	<!ENTITY st13 "fill:#F96E6E;">
	<!ENTITY st14 "fill:#F9B59E;">
	<!ENTITY st15 "fill:#C1C1C1;">
	<!ENTITY st16 "fill:#C2C2C2;">
	<!ENTITY st17 "fill:#C49669;">
	<!ENTITY st18 "fill:#C52126;">
	<!ENTITY st19 "opacity:0.49;fill:#808080;">
	<!ENTITY st20 "opacity:0.3;">
	<!ENTITY st21 "fill:#FEE677;">
	<!ENTITY st22 "fill:#FFC7B6;">
	<!ENTITY st23 "fill:#FFEE4D;">
	<!ENTITY st24 "fill:#FFFFFF;">
	<!ENTITY st25 "fill:#68C1C1;">
	<!ENTITY st26 "opacity:0.64;fill:#224F59;">
	<!ENTITY st27 "fill:#398B91;">
	<!ENTITY st28 "fill:#6D6E71;">
	<!ENTITY st29 "opacity:0.63;fill:#808080;">
	<!ENTITY st30 "fill:#D88D1C;">
	<!ENTITY st31 "fill:#DBDBDB;">
	<!ENTITY st32 "fill:#404040;">
	<!ENTITY st33 "fill:#414042;">
	<!ENTITY st34 "fill:#43D17D;">
]>
<svg version="1.1" id="圖層_1" xmlns="http://www.w3.org/2000/svg" xmlns:xlink="http://www.w3.org/1999/xlink" x="0px" y="0px"
	 width="100px" height="100px" viewBox="0 0 100 100" style="enable-background:new 0 0 100 100;" xml:space="preserve">
<g>
	<circle style="&st34;" cx="50" cy="50" r="50"/>
	<circle style="&st8;" cx="49.999" cy="50" r="44.999"/>
	<g>
		<g>
			<g>
				<g>
					<polygon style="&st25;" points="85.992,30.99 85.992,70.58 12.902,70.58 12.902,30.99 85.992,30.99 					"/>
				</g>
			</g>
		</g>
		<g>
			<g>
				<rect x="14.426" y="32.512" style="&st31;" width="70.043" height="36.545"/>
			</g>
			<g>
				<g>
					<polygon style="&st31;" points="55.539,32.512 84.469,32.512 81.424,29.468 55.539,29.468 					"/>
				</g>
				<g>
					<polygon style="&st31;" points="43.357,29.468 17.471,29.468 14.426,32.512 43.357,32.512 					"/>
				</g>
			</g>
			<g>
				<polygon style="&st16;" points="84.469,69.057 14.426,69.057 17.471,66.011 81.424,66.011 				"/>
			</g>
			<g>
				<path style="&st24;" d="M52.492,29.468c-1.682,0-3.045,1.362-3.045,3.044v36.545c0-1.683,1.363-3.046,3.045-3.046h28.932V29.468
					H52.492z"/>
			</g>
			<g>
				<path style="&st24;" d="M46.402,29.468c1.684,0,3.045,1.362,3.045,3.044v36.545c0-1.683-1.361-3.046-3.045-3.046H17.471V29.468
					H46.402z"/>
			</g>
		</g>
		<rect x="20.504" y="31.151" style="&st22;" width="9.608" height="3.609"/>
		<rect x="59.807" y="53.377" style="&st31;" width="8.618" height="8.533"/>
		<rect x="69.554" y="53.377" style="&st31;" width="8.618" height="8.533"/>
		<rect x="59.807" y="38.197" style="&st31;" width="8.618" height="9.85"/>
		<rect x="69.493" y="38.197" style="&st31;" width="8.618" height="9.85"/>
		<rect x="59.807" y="33.859" style="&st31;" width="8.618" height="2.707"/>
		<rect x="69.493" y="33.859" style="&st31;" width="8.618" height="2.707"/>
		<rect x="59.807" y="49.344" style="&st31;" width="8.618" height="2.707"/>
		<rect x="69.554" y="49.344" style="&st31;" width="8.618" height="2.707"/>
		<g>
			<path style="&st17;" d="M55.551,52.836c0.003-0.103-0.005-0.235-0.128-0.235H38.481H22.135c-0.161,0-0.396,0.288-0.396,0.381
				v5.681c0,0.091,0.234,0.115,0.396,0.115h33.288c0.162,0,0.126-0.024,0.126-0.115v-0.03c0.005,0,0-0.011,0-0.051v-5.6
				C55.549,52.95,55.551,52.896,55.551,52.836z"/>
			<polygon style="&st6;" points="24.545,46.801 22.463,51.192 21.487,52.981 55.549,52.981 54.646,50.868 52.523,46.678 			"/>
			<path style="&st17;" d="M52.523,39.924h-0.147H38.481H24.424c-0.137,0-0.247,0.109-0.247,0.244v6.813l14.305-0.069l14.304,0.281
				v-6.907C52.785,40.147,52.659,39.924,52.523,39.924z"/>
			<polygon style="&st14;" points="24.177,46.668 23.363,49.026 53.854,49.026 52.688,46.764 			"/>
			<g>
				<g>
					<path style="&st6;" d="M36.964,46.65c0,0.813-0.66,1.472-1.475,1.472H27.74c-0.814,0-1.476-0.658-1.476-1.472v-0.849
						c0-0.813,0.661-1.474,1.476-1.474h7.749c0.814,0,1.475,0.66,1.475,1.474V46.65z"/>
					<path style="&st6;" d="M50.765,46.485c0,0.813-0.685,1.637-1.497,1.637h-7.78c-0.813,0-1.42-0.823-1.42-1.637v-0.842
						c0-0.812,0.606-1.315,1.42-1.315h7.78c0.813,0,1.497,0.504,1.497,1.315V46.485z"/>
				</g>
			</g>
			<g>
				<g>
					<path style="&st15;" d="M22.797,40.409h31.044c0.133,0,0.243-0.107,0.243-0.243v-0.813c0-0.134-0.11-0.243-0.243-0.243H22.797
						c-0.135,0-0.244,0.109-0.244,0.243v0.813C22.553,40.302,22.662,40.409,22.797,40.409z"/>
					<path style="&st15;" d="M22.31,50.813h-0.977c-0.134,0-0.243,0.109-0.243,0.244v9.59c0,0.135,0.109,0.244,0.243,0.244h0.977
						c0.134,0,0.243-0.109,0.243-0.244v-9.59C22.553,50.922,22.443,50.813,22.31,50.813z"/>
					<path style="&st15;" d="M55.792,50.649h-0.977c-0.134,0-0.244,0.11-0.244,0.244v9.753c0,0.135,0.11,0.244,0.244,0.244h0.977
						c0.133,0,0.243-0.109,0.243-0.244v-9.753C56.035,50.76,55.925,50.649,55.792,50.649z"/>
				</g>
			</g>
		</g>
	</g>
</g>
</svg>
