<?xml version="1.0" encoding="utf-8"?>
<!-- Generator: Adobe Illustrator 16.0.0, SVG Export Plug-In . SVG Version: 6.00 Build 0)  -->
<!DOCTYPE svg PUBLIC "-//W3C//DTD SVG 1.1//EN" "http://www.w3.org/Graphics/SVG/1.1/DTD/svg11.dtd" [
	<!ENTITY st0 "fill:#48969B;">
	<!ENTITY st1 "fill:#ACCFF6;">
	<!ENTITY st2 "fill:#E5951F;">
	<!ENTITY st3 "fill:#4C9E8C;">
	<!ENTITY st4 "fill:#4EA190;">
	<!ENTITY st5 "fill:#800B0D;">
	<!ENTITY st6 "fill:#EA444E;">
	<!ENTITY st7 "fill:#545454;">
	<!ENTITY st8 "fill:none;stroke:#FFFFFF;stroke-miterlimit:10;">
	<!ENTITY st9 "fill:#8C1113;">
	<!ENTITY st10 "fill:#F2F2F2;">
	<!ENTITY st11 "fill:#F7B858;">
	<!ENTITY st12 "fill:#5DBCA8;">
	<!ENTITY st13 "fill:#F96E6E;">
	<!ENTITY st14 "fill:#F9B59E;">
	<!ENTITY st15 "fill:#C1C1C1;">
	<!ENTITY st16 "fill:#C2C2C2;">
	<!ENTITY st17 "fill:#C49669;">
	<!ENTITY st18 "fill:#C52126;">
	<!ENTITY st19 "opacity:0.49;fill:#808080;">
	<!ENTITY st20 "opacity:0.3;">
	<!ENTITY st21 "fill:#FEE677;">
	<!ENTITY st22 "fill:#FFC7B6;">
	<!ENTITY st23 "fill:#FFEE4D;">
	<!ENTITY st24 "fill:#FFFFFF;">
	<!ENTITY st25 "fill:#68C1C1;">
	<!ENTITY st26 "opacity:0.64;fill:#224F59;">
	<!ENTITY st27 "fill:#398B91;">
	<!ENTITY st28 "fill:#6D6E71;">
	<!ENTITY st29 "opacity:0.63;fill:#808080;">
	<!ENTITY st30 "fill:#D88D1C;">
	<!ENTITY st31 "fill:#DBDBDB;">
	<!ENTITY st32 "fill:#404040;">
	<!ENTITY st33 "fill:#414042;">
	<!ENTITY st34 "fill:#43D17D;">
]>
<svg version="1.1" id="圖層_1" xmlns="http://www.w3.org/2000/svg" xmlns:xlink="http://www.w3.org/1999/xlink" x="0px" y="0px"
	 width="100px" height="100px" viewBox="0 0 100 100" style="enable-background:new 0 0 100 100;" xml:space="preserve">
<g>
	<circle style="&st1;" cx="50" cy="50" r="49.998"/>
	<circle style="&st8;" cx="50" cy="50" r="44.998"/>
	<g>
		<g>
			<g>
				
					<rect x="54.579" y="48.872" transform="matrix(0.707 -0.7072 0.7072 0.707 -20.934 55.6463)" style="&st7;" width="4.218" height="8.431"/>
			</g>
		</g>
		<g>
			<g>
				<path style="&st32;" d="M26.877,23.272c-8.234,8.233-8.234,21.581,0,29.814c8.232,8.232,21.58,8.232,29.813-0.001
					c8.234-8.234,8.232-21.58,0-29.813C48.455,15.04,35.111,15.038,26.877,23.272z M53.709,50.104
					c-6.586,6.587-17.266,6.587-23.852,0.001s-6.586-17.266,0-23.853c6.586-6.586,17.266-6.583,23.85,0.002
					C60.293,32.841,60.295,43.519,53.709,50.104z"/>
			</g>
		</g>
		<g>
			<g>
				
					<rect x="64.399" y="52.363" transform="matrix(0.7072 -0.707 0.707 0.7072 -25.8738 67.5522)" style="&st32;" width="8.432" height="25.298"/>
			</g>
		</g>
		<g>
			<g>
				
					<rect x="65.016" y="53.853" transform="matrix(0.7072 -0.707 0.707 0.7072 -27.3639 66.9272)" style="&st7;" width="4.217" height="25.298"/>
			</g>
		</g>
		<g>
			<g>
				
					<rect x="55.455" y="55.47" transform="matrix(0.707 -0.7072 0.7072 0.707 -22.1684 58.629)" style="&st24;" width="8.431" height="1.195"/>
			</g>
		</g>
		<g>
			<g>
				
					<rect x="73.344" y="73.359" transform="matrix(0.707 -0.7072 0.7072 0.707 -29.5786 76.5132)" style="&st24;" width="8.431" height="1.195"/>
			</g>
		</g>
		<g style="&st20;">
			<circle style="&st24;" cx="41.783" cy="38.179" r="16.866"/>
		</g>
	</g>
	<g>
		<path style="&st21;" d="M54.637,39.724c0.004-0.079-0.004-0.182-0.098-0.182H41.494H28.906c-0.123,0-0.305,0.222-0.305,0.294
			v4.375c0,0.068,0.182,0.088,0.305,0.088h25.633c0.125,0,0.098-0.02,0.098-0.088v-0.024c0.004,0,0-0.008,0-0.039v-4.312
			C54.637,39.811,54.637,39.77,54.637,39.724z"/>
		<polygon style="&st6;" points="30.764,35.076 29.16,38.457 28.408,39.836 54.637,39.836 53.941,38.209 52.305,34.981 		"/>
		<path style="&st21;" d="M52.305,29.781h-0.111H41.494H30.67c-0.105,0-0.191,0.084-0.191,0.188v5.246l11.016-0.054l11.014,0.217
			V30.06C52.508,29.953,52.41,29.781,52.305,29.781z"/>
		<polygon style="&st14;" points="30.479,34.975 29.852,36.79 53.33,36.79 52.434,35.048 		"/>
		<g>
			<g>
				<path style="&st6;" d="M40.324,34.961c0,0.626-0.508,1.132-1.135,1.132h-5.967c-0.627,0-1.135-0.506-1.135-1.132v-0.654
					c0-0.626,0.508-1.135,1.135-1.135h5.967c0.627,0,1.135,0.509,1.135,1.135V34.961z"/>
				<path style="&st6;" d="M50.951,34.833c0,0.627-0.525,1.26-1.152,1.26h-5.99c-0.627,0-1.094-0.633-1.094-1.26v-0.647
					c0-0.625,0.467-1.014,1.094-1.014h5.99c0.627,0,1.152,0.389,1.152,1.014V34.833z"/>
			</g>
		</g>
		<g>
			<g>
				<path style="&st15;" d="M29.416,30.155H53.32c0.104,0,0.188-0.083,0.188-0.188v-0.626c0-0.103-0.084-0.188-0.188-0.188H29.416
					c-0.104,0-0.188,0.085-0.188,0.188v0.626C29.229,30.072,29.313,30.155,29.416,30.155z"/>
				<path style="&st15;" d="M29.041,38.166h-0.752c-0.104,0-0.188,0.084-0.188,0.188v7.384c0,0.104,0.084,0.188,0.188,0.188h0.752
					c0.104,0,0.188-0.084,0.188-0.188v-7.384C29.229,38.25,29.145,38.166,29.041,38.166z"/>
				<path style="&st15;" d="M54.824,38.04H54.07c-0.104,0-0.188,0.085-0.188,0.188v7.51c0,0.104,0.084,0.188,0.188,0.188h0.754
					c0.102,0,0.186-0.084,0.186-0.188v-7.51C55.01,38.125,54.926,38.04,54.824,38.04z"/>
			</g>
		</g>
	</g>
</g>
</svg>
