<?xml version="1.0" encoding="utf-8"?>
<!-- Generator: Adobe Illustrator 21.0.0, SVG Export Plug-In . SVG Version: 6.00 Build 0)  -->
<svg version="1.1" id="圖層_1" xmlns="http://www.w3.org/2000/svg" xmlns:xlink="http://www.w3.org/1999/xlink" x="0px" y="0px"
	 viewBox="0 0 100 100" style="enable-background:new 0 0 100 100;" xml:space="preserve">
<style type="text/css">
	.st0{fill:#FFEE4D;}
	.st1{fill:none;stroke:#FFFFFF;stroke-miterlimit:10;}
	.st2{fill:#C2E97E;}
	.st3{fill:#545454;}
	.st4{fill:#404040;}
	.st5{fill:#FFFFFF;}
	.st6{opacity:0.3;}
	.st7{fill:#45A36F;}
	.st8{fill:#92B7EF;}
	.st9{fill:#FC6738;}
	.st10{fill:#999999;}
	.st11{fill:#FEE677;}
	.st12{fill:#E5D6C7;}
	.st13{fill:#C49669;}
	.st14{fill:#FF9B74;}
	.st15{fill:none;stroke:#FFFFFF;stroke-width:0.5913;stroke-miterlimit:10;}
	.st16{fill:#6DBEC4;}
	.st17{fill:#5D9EA6;}
	.st18{fill:#242C3C;}
	.st19{fill:#E36A5C;}
	.st20{fill:#4F9434;}
	.st21{fill:#FEE68F;}
	.st22{fill:#BF152B;}
	.st23{fill:#4E9534;}
	.st24{fill:#040000;}
	.st25{fill:#221E1F;}
</style>
<g>
	<circle class="st20" cx="50" cy="50" r="50"/>
	<circle class="st1" cx="50" cy="50" r="45"/>
	<g>
		<path class="st21" d="M39.9,23.2c5.4,0.1,9.7,4.3,10.1,9.6c0.1-1.2,0.4-2.4,0.9-3.5c1.2-2.5,3.2-4.4,5.8-5.4
			c1.1-0.4,2.2-0.6,3.3-0.6c-3-1.3-6.3-2-10-2C46.3,21.2,42.9,21.9,39.9,23.2z"/>
		<path class="st5" d="M57.5,25.8c-2.1,0.8-3.7,2.3-4.6,4.3c-0.9,2-1,4.2-0.2,6.3v0c0.8,2.1,2.3,3.7,4.3,4.6c2,0.9,4.3,1,6.3,0.2
			c4.3-1.6,6.5-6.3,4.9-10.6C66.5,26.4,61.7,24.2,57.5,25.8z M60.3,38.5c-2.8,0-5.1-2.3-5.1-5.1c0-2.8,2.3-5.1,5.1-5.1
			c2.8,0,5.1,2.3,5.1,5.1C65.4,36.2,63.1,38.5,60.3,38.5z"/>
		<path class="st5" d="M60.3,30.1c-1.9,0-3.4,1.5-3.4,3.3c0,1.8,1.5,3.4,3.4,3.4c1.8,0,3.3-1.5,3.3-3.4
			C63.6,31.6,62.1,30.1,60.3,30.1z M60.3,35.1c-1,0-1.7-0.8-1.7-1.7c0-1,0.8-1.7,1.7-1.7c0.9,0,1.7,0.8,1.7,1.7
			C62,34.4,61.2,35.1,60.3,35.1z"/>
		<path class="st5" d="M39.6,30.1c-1.9,0-3.4,1.5-3.4,3.3c0,1.8,1.5,3.4,3.4,3.4c1.8,0,3.3-1.5,3.3-3.4
			C42.9,31.6,41.4,30.1,39.6,30.1z M39.6,35.1c-1,0-1.7-0.8-1.7-1.7c0-1,0.8-1.7,1.7-1.7c0.9,0,1.7,0.8,1.7,1.7
			C41.3,34.4,40.5,35.1,39.6,35.1z"/>
		<path class="st5" d="M39.7,25.2c-4.6,0-8.3,3.7-8.3,8.3c0,4.6,3.7,8.3,8.3,8.3c4.6,0,8.3-3.7,8.3-8.3
			C47.9,28.9,44.2,25.2,39.7,25.2z M39.6,38.5c-2.8,0-5.1-2.3-5.1-5.1c0-2.8,2.3-5.1,5.1-5.1c2.8,0,5.1,2.3,5.1,5.1
			C44.7,36.2,42.4,38.5,39.6,38.5z"/>
		<circle class="st22" cx="39.6" cy="33.4" r="1.7"/>
		<circle class="st23" cx="60.3" cy="33.4" r="1.7"/>
		<path class="st24" d="M50,19.4c-5.4,0-10.3,1.4-14.1,3.9l-6.5,0c0,0,1.5,2,2,4.1c-1.3,1.7-2,3.8-2,6.1c0,5.7,4.6,10.3,10.4,10.3
			c3.3,0,6.2-1.5,8.1-3.9l2.2,3.3l2.2-3.3c1,1.3,2.3,2.3,3.8,3c2.5,1.2,5.3,1.3,7.9,0.3c5.4-2,8.1-7.9,6.1-13.3
			c-0.3-0.9-0.8-1.8-1.4-2.6c0.5-2.1,2-4.1,2-4.1l-6.9,0C59.9,20.7,55.2,19.4,50,19.4z M63.2,41.3c-2.1,0.8-4.3,0.7-6.3-0.2
			c-2-0.9-3.5-2.6-4.3-4.6v0c-0.8-2.1-0.7-4.3,0.2-6.3c0.9-2,2.6-3.5,4.6-4.3c4.3-1.6,9,0.6,10.6,4.9C69.6,35,67.5,39.7,63.2,41.3z
			 M39.7,41.8c-4.6,0-8.3-3.7-8.3-8.3c0-4.6,3.7-8.3,8.3-8.3c4.6,0,8.3,3.7,8.3,8.3C47.9,38.1,44.2,41.8,39.7,41.8z M56.7,23.8
			c-2.6,1-4.7,2.9-5.8,5.4c-0.5,1.1-0.8,2.3-0.9,3.5c-0.4-5.3-4.7-9.5-10.1-9.6c3-1.3,6.4-2,10.1-2c3.7,0,7.1,0.7,10,2
			C58.9,23.2,57.8,23.4,56.7,23.8z"/>
		<path class="st24" d="M39.6,28.3c-2.8,0-5.1,2.3-5.1,5.1c0,2.8,2.3,5.1,5.1,5.1c2.8,0,5.1-2.3,5.1-5.1
			C44.7,30.6,42.4,28.3,39.6,28.3z M39.6,36.8c-1.9,0-3.4-1.5-3.4-3.4c0-1.8,1.5-3.3,3.4-3.3c1.8,0,3.3,1.5,3.3,3.3
			C42.9,35.3,41.4,36.8,39.6,36.8z"/>
		<path class="st24" d="M60.3,28.3c-2.8,0-5.1,2.3-5.1,5.1c0,2.8,2.3,5.1,5.1,5.1c2.8,0,5.1-2.3,5.1-5.1
			C65.4,30.6,63.1,28.3,60.3,28.3z M60.3,36.8c-1.9,0-3.4-1.5-3.4-3.4c0-1.8,1.5-3.3,3.4-3.3c1.8,0,3.3,1.5,3.3,3.3
			C63.6,35.3,62.1,36.8,60.3,36.8z"/>
	</g>
	<g>
		<path class="st11" d="M35.5,67.4h-2.9v9.7h-2.2v-9.7h-2.9v-1.9h8V67.4z"/>
		<path class="st11" d="M46,71.1c0,4.1-2.1,6.1-5,6.1c-3.1,0-4.8-2.6-4.8-6c0-3.5,1.9-6,5-6C44.4,65.3,46,68,46,71.1z M38.6,71.3
			c0,2.3,0.9,4.2,2.5,4.2c1.7,0,2.5-1.9,2.5-4.2c0-2.1-0.8-4.1-2.5-4.1C39.4,67.1,38.6,69.1,38.6,71.3z"/>
		<path class="st11" d="M47.7,65.6c0.7-0.1,1.7-0.2,3-0.2c1.5,0,2.6,0.3,3.3,0.9c0.7,0.6,1.1,1.5,1.1,2.6c0,3.2-2.7,3.9-4.4,3.9
			c-0.3,0-0.6,0-0.8-0.1v4.4h-2.2V65.6z M50,71c0.2,0,0.5,0.1,0.8,0.1c1.4,0,2.2-0.8,2.2-2c0-1.2-0.8-1.9-2-1.9c-0.5,0-0.8,0-1,0.1
			V71z"/>
		<path class="st11" d="M59.4,77.1v-9.5h0l-2,1L57,67.1l2.8-1.4h1.9v11.5H59.4z"/>
		<path class="st11" d="M64.9,71.4c0-3.5,1.3-5.9,3.9-5.9c2.7,0,3.7,2.7,3.7,5.8c0,3.8-1.4,6-3.8,6C66,77.3,64.9,74.6,64.9,71.4z
			 M68.7,75.5c1,0,1.5-1.5,1.5-4.1c0-2.6-0.5-4.1-1.5-4.1c-1,0-1.6,1.4-1.6,4.1C67.1,74.1,67.7,75.5,68.7,75.5L68.7,75.5z"/>
	</g>
	<g>
		<g>
			<g>
				<path class="st5" d="M61.9,48.3c0,0.5,0.4,0.9,0.9,0.9c0.5,0,0.9-0.4,0.9-0.9c0-0.5-0.4-0.9-0.9-0.9
					C62.3,47.4,61.9,47.8,61.9,48.3z"/>
			</g>
		</g>
		<g>
			<g>
				<g>
					<path class="st25" d="M18.3,48.3l-1.4,0.5c0,0,0,1.7,0,1.8c-0.1,0-1.5,0-1.5,0v1.2c0,0,1.4,0,1.5,0c0,0.2,0,3.9,0,3.9
						c0,1.9,0.6,2.6,2.2,2.6c0.4,0,0.8,0,1.1-0.2l0.1,0l0-1.3l-0.1,0c-0.3,0.1-0.5,0.2-0.7,0.2c-0.7,0-1-0.4-1-1.5c0,0,0-3.6,0-3.8
						c0.1,0,1.8,0,1.8,0v-1.2c0,0-1.6,0-1.8,0c0-0.1,0-2.3,0-2.3L18.3,48.3z"/>
				</g>
			</g>
			<g>
				<g>
					<path class="st25" d="M23.1,51.8c0-0.4,0-1.2,0-1.2h-1.4v7.6h1.5v-3.8c0-1.6,0.7-2.5,1.9-2.5c0.2,0,0.3,0,0.6,0.1l0.1,0
						l0.1-1.5l-0.7,0C24.3,50.4,23.6,50.9,23.1,51.8z"/>
				</g>
			</g>
			<g>
				<g>
					<g>
						<path class="st25" d="M34.1,50.4c-1.1,0-1.9,0.5-2.5,1.4c0-0.4,0-1.2,0-1.2h-1.4v10.7h1.5c0,0,0-3.7,0-4.2
							c0.6,0.8,1.4,1.2,2.4,1.2c2,0,3.2-1.6,3.2-4.1C37.3,51.9,36,50.4,34.1,50.4z M33.7,57c-1.2,0-2-1-2-2.7c0-1.6,0.8-2.7,2-2.7
							c1.2,0,1.9,1,1.9,2.6C35.7,56,34.9,57,33.7,57z"/>
					</g>
				</g>
			</g>
		</g>
		<g>
			<g>
				<g>
					<g>
						<path class="st5" d="M41.8,50.4c-0.9,0-1.8,0.2-2.5,0.5l0,0l0,1.3l0.1-0.1c0.7-0.4,1.4-0.6,2-0.6c1.1,0,1.8,0.6,1.8,1.8
							c0,0,0,0,0,0.1c-0.1,0-0.9,0-0.9,0c-2.5,0-3.9,0.9-3.9,2.6c0,1.3,1,2.3,2.5,2.3c1.1,0,1.9-0.4,2.5-1.2c0,0.3,0,1.1,0,1.1h1.4
							v-4.6C44.7,51.5,43.7,50.4,41.8,50.4z M43.2,55c0,1.3-0.8,2.2-2,2.2c-0.7,0-1.3-0.5-1.3-1.2c0-0.9,0.9-1.4,2.5-1.4
							c0,0,0.7,0,0.8,0C43.2,54.6,43.2,55,43.2,55z"/>
					</g>
				</g>
			</g>
			<g>
				<g>
					<g>
						<path class="st5" d="M51.2,46.9c0,0,0,4.2,0,4.7c-0.6-0.8-1.4-1.2-2.4-1.2c-1.9,0-3.1,1.6-3.1,3.9c0,2.4,1.3,4,3.1,4
							c1.1,0,1.9-0.5,2.5-1.4c0,0.4,0,1.3,0,1.3h1.4V46.9H51.2z M49.2,57c-1.2,0-1.9-1-1.9-2.7c0-1.7,0.7-2.7,1.9-2.7
							c1.3,0,2,1,2,2.7C51.2,56,50.4,57,49.2,57z"/>
					</g>
				</g>
			</g>
			<g>
				<g>
					<path class="st5" d="M59.6,50.6L57.5,55l-2-4.4h-1.7l3.7,7.6l3.8-7.6H59.6z"/>
				</g>
			</g>
			<g>
				<g>
					<path class="st5" d="M63.5,50.6H62v7.6h1.5L63.5,50.6L63.5,50.6z"/>
				</g>
			</g>
			<g>
				<g>
					<path class="st5" d="M65.4,52.5c0,1.1,0.7,1.6,2.1,2.3c0.9,0.4,1.3,0.7,1.3,1.3c0,0.6-0.5,1-1.4,1c-0.6,0-1.3-0.2-1.9-0.5
						l-0.1-0.1l-0.1,1.3l0.1,0c0.6,0.3,1.3,0.4,2,0.4c1.9,0,3.1-0.9,3.1-2.3c0-1.2-0.8-1.7-2.1-2.4c-1-0.5-1.4-0.7-1.4-1.2
						c0-0.5,0.5-0.8,1.2-0.8c0.6,0,1.3,0.1,1.8,0.4l0.1,0.1l0.1-1.3l-0.1,0c-0.6-0.2-1.3-0.3-1.9-0.3C66.5,50.5,65.4,51.3,65.4,52.5
						z"/>
				</g>
			</g>
			<g>
				<g>
					<g>
						<path class="st5" d="M75.3,50.4c-2.3,0-3.8,1.5-3.8,4c0,2.5,1.4,4,3.8,4c2.3,0,3.8-1.5,3.8-4C79,51.9,77.6,50.4,75.3,50.4z
							 M75.3,57.1c-1.3,0-2.1-1.1-2.1-2.7c0-1.6,0.9-2.8,2.1-2.8c1.3,0,2.1,1.1,2.1,2.8C77.4,56,76.6,57.1,75.3,57.1z"/>
					</g>
				</g>
			</g>
			<g>
				<g>
					<path class="st5" d="M81.9,51.8c0-0.4,0-1.2,0-1.2h-1.4v7.6H82v-3.8c0-1.6,0.7-2.5,1.9-2.5c0.2,0,0.3,0,0.6,0.1l0.1,0l0-1.5
						l-0.7,0C83,50.4,82.3,50.9,81.9,51.8z"/>
				</g>
			</g>
		</g>
		<g>
			<g>
				<path class="st25" d="M28.6,50.6h-1.5v7.6h1.5L28.6,50.6L28.6,50.6z"/>
			</g>
		</g>
		<g>
			<g>
				<path class="st25" d="M27,48.3c0,0.5,0.4,0.9,0.9,0.9c0.5,0,0.9-0.4,0.9-0.9c0-0.5-0.4-0.9-0.9-0.9C27.4,47.4,27,47.8,27,48.3z"
					/>
			</g>
		</g>
	</g>
</g>
</svg>
