<?xml version="1.0" encoding="utf-8"?>
<!-- Generator: Adobe Illustrator 16.0.0, SVG Export Plug-In . SVG Version: 6.00 Build 0)  -->
<!DOCTYPE svg PUBLIC "-//W3C//DTD SVG 1.1//EN" "http://www.w3.org/Graphics/SVG/1.1/DTD/svg11.dtd" [
	<!ENTITY st0 "fill:#E36A5C;">
	<!ENTITY st1 "fill:#E5D6C7;">
	<!ENTITY st2 "fill:#545454;">
	<!ENTITY st3 "fill:none;stroke:#FFFFFF;stroke-miterlimit:10;">
	<!ENTITY st4 "fill:#242C3C;">
	<!ENTITY st5 "fill:#5D9EA6;">
	<!ENTITY st6 "fill:#92B7EF;">
	<!ENTITY st7 "fill:#C2E97E;">
	<!ENTITY st8 "fill:#C49669;">
	<!ENTITY st9 "fill:#FC6738;">
	<!ENTITY st10 "fill:#999999;">
	<!ENTITY st11 "opacity:0.3;">
	<!ENTITY st12 "fill:#FEE677;">
	<!ENTITY st13 "fill:#FF9B74;">
	<!ENTITY st14 "fill:#FFEE4D;">
	<!ENTITY st15 "fill:#FFFFFF;">
	<!ENTITY st16 "fill:none;stroke:#FFFFFF;stroke-width:0.5913;stroke-miterlimit:10;">
	<!ENTITY st17 "fill:#6DBEC4;">
	<!ENTITY st18 "fill:#404040;">
	<!ENTITY st19 "fill:#45A36F;">
]>
<svg version="1.1" id="圖層_1" xmlns="http://www.w3.org/2000/svg" xmlns:xlink="http://www.w3.org/1999/xlink" x="0px" y="0px"
	 width="100px" height="100px" viewBox="0 0 100 100" style="enable-background:new 0 0 100 100;" xml:space="preserve">
<g>
	<path style="&st14;" d="M100,50c0,27.613-22.383,50-49.998,50C22.385,100,0,77.613,0,50C0,22.385,22.385,0,50.002,0
		C77.617,0,100,22.385,100,50z"/>
	<circle style="&st3;" cx="50" cy="50" r="45"/>
	<path id="松山區_2_" style="&st7;" d="M76.604,42.15c0.002-0.074-0.01-0.147-0.012-0.222c-0.002-0.06,0.008-0.12-0.016-0.177
		c-0.057-0.141-0.199-0.242-0.242-0.388c-0.09-0.296,0.186-0.481,0.201-0.755c0.006-0.105-0.021-0.221-0.029-0.326
		c-0.014-0.173-0.027-0.353-0.004-0.526c0.012-0.079,0.033-0.173,0.104-0.222c-0.07,0.049-0.371,0.114-0.594,0.16
		c-0.553,0.111-1.191,0.35-1.324,0.353c-1.055,0.017-1.65,0.45-2.229,0.193c-0.625-0.277-1.125-0.836-1.094-1.672
		c0.043-1.109,0-2.074-0.209-3.055c-0.096-0.451-1.137-2.999-1.076-3.456c0.104-0.8,1.387-2.813,1.463-3.425
		c0.051-0.41-0.002-1.816-0.031-1.945c-0.146-0.61-0.377-1.019-0.385-1.228c0,0-0.334-0.319-0.475-0.582
		c-0.074-0.135-0.592-0.754-0.904-0.623c-0.754,0.316-2.734,1.85-3.357,2.168c-0.4,0.205-0.666,0.16-1.057,0.104
		c-0.332-0.048-0.662-0.349-0.926-0.561c-1.479-1.19-4.65-1.571-4.65-1.571s-0.025,1.482-0.047,1.601
		c-0.104,0.102-0.125,0.157-0.289,0.371c-0.148,0.195-0.111,0.828-0.111,0.828c-0.289-0.019-0.613-0.056-0.613-0.056L58.65,27.55
		c0,0-6.996-0.354-6.986-0.205c0.053,0.834-0.158,1.591,0.482,1.573c1.021-0.029,2.922,0.92,2.932,1.544
		c0.016,1.032-0.287,14.204-0.287,14.206c0,0.009-0.25,0.074-0.271,0.08c-0.133,0.036-0.266,0.045-0.4,0.054
		c-0.111,0.007-0.277-0.003-0.354,0.099c-0.07,0.096-0.025,0.25-0.006,0.356c0.092,0.507,4.551,3.529,5.479,3.691
		c2.113,0.366-0.355-3.444,2.941-4.24c2.191-0.528,3.885-2.054,8.115-2.873C71.379,41.625,76.602,42.33,76.604,42.15z"/>
	<path id="信義區_1_" style="&st7;" d="M48.328,66.816c-0.123-0.112-1.373-1.528-1.457-1.59
		c-0.045-0.032-0.105-0.057-0.139-0.102c-0.109-0.153-0.014-0.395-0.014-0.563c0.002-0.105-0.023-0.206-0.041-0.309
		c-0.029-0.156-0.057-0.321-0.055-0.481c0.004-0.183-0.01-0.349-0.043-0.53c-0.018-0.104-0.025-0.219-0.066-0.317
		c-0.029-0.068-0.084-0.102-0.143-0.145c-0.15-0.112-0.234-0.262-0.32-0.423c-0.059-0.11-0.123-0.216-0.197-0.315
		c-0.061-0.087-0.143-0.169-0.189-0.266c-0.041-0.091-0.023-0.191-0.041-0.287c-0.01-0.05-0.018-0.08-0.061-0.1
		c-0.043-0.021-0.1-0.021-0.145-0.034c-0.117-0.03-0.102-0.1-0.102-0.205c0-0.136-0.037-0.256-0.088-0.379
		c-0.031-0.076-0.061-0.135,0-0.202c0.049-0.054,0.109-0.095,0.082-0.178c-0.033-0.1-0.152-0.171-0.24-0.216
		c-0.074-0.038-0.152-0.063-0.238-0.054c-0.088,0.011-0.174,0.035-0.264,0.036c-0.096,0.002-0.203-0.009-0.281-0.068
		c-0.066-0.05-0.102-0.13-0.156-0.189c-0.15-0.158-0.377-0.178-0.561-0.275s-0.371-0.243-0.523-0.385
		c-0.076-0.071-0.145-0.15-0.211-0.231c-0.1-0.124-0.189-0.278-0.33-0.357c-0.111-0.063-0.137-0.22-0.275-0.239
		c-0.098-0.014-0.377,0.061-0.43-0.054c-0.023-0.048,0.004-0.114,0.004-0.164c0.002-0.054-0.01-0.102-0.035-0.149
		c-0.061-0.123-0.16-0.209-0.246-0.313c-0.096-0.116-0.105-0.265-0.109-0.409c-0.004-0.141-0.006-0.292,0.006-0.432
		c0.01-0.079,0.031-0.155,0.051-0.23c0.016-0.065,0.051-0.157,0.039-0.225c-0.012-0.061-0.08-0.133-0.117-0.182
		c-0.045-0.059-0.094-0.113-0.146-0.164c-0.092-0.088-0.125-0.229-0.125-0.354c0-0.179,0.002-0.358,0.006-0.537
		c-0.004,0.179-5.24-0.527-6.326-0.316c-3.492,0.677-5.262,1.833-7.004,2.517c-0.031,0.012-0.094,0.036-0.094,0.036L27.52,68.189
		l-0.596,1.068l-2.33,2.304c0,0,4.41,4.502,4.58,4.67c0.104,0.103,0.039,0.4,0.215,0.693c0.1,0.168,0.768,0.856,0.924,0.997
		c0.17,0.15,0.148,0.442,0.295,0.56c0.063,0.052,0.459,0.384,0.498,0.454c0.035,0.067,0.068,1.093,0.09,1.165
		c0.061,0.204,1.023,0.921,1.066,0.987c0.033,0.052,0.369,1.269,0.402,1.252c0.232-0.117,0.436-0.111,0.668-0.284
		c0.227-0.168,0.791-0.434,1-0.621c0.121-0.11,0.455-0.265,0.5-0.354c0.043-0.087,0.176-0.42,0.27-0.451
		c0.188-0.063,0.5-0.344,0.854-0.525c0.426-0.219,0.328-1.154,0.561-1.402c0.184-0.194,0.086,0.257,0.914,0.219
		c0.158-0.006,0.313-0.015,0.469-0.025c0.186-0.013,0.328-0.015,0.465-0.151c0.066-0.063,0.121-0.138,0.176-0.21
		c0.088-0.116,0.168-0.281,0.313-0.336c0.121-0.045,0.236-0.006,0.338,0.064c0.098,0.066,0.189,0.111,0.305,0.141
		c0.096,0.023,0.189,0.041,0.287,0.045c0.1,0.004,0.188,0.003,0.273,0.059c-0.098-0.062-0.086-0.131-0.055-0.238
		c0.023-0.085,0.045-0.172,0.068-0.258c0.053-0.189,0.176-0.378,0.287-0.539c0.078-0.111,0.168-0.215,0.264-0.311
		c0.135-0.141,0.291-0.317,0.465-0.408c0.105-0.056,0.184-0.151,0.27-0.231c0.148-0.136,0.311-0.258,0.455-0.396
		c0.051-0.049,0.078-0.103,0.115-0.161c0.045-0.068,0.109-0.118,0.18-0.162c0.088-0.057,0.211-0.146,0.316-0.166
		c0.107-0.019,0.199-0.038,0.295-0.102c0.078-0.052,0.139-0.129,0.217-0.179c0.053-0.032,0.115-0.024,0.174-0.037
		c0.127-0.029,0.254-0.103,0.332-0.208c0.174-0.229,0.18-0.575,0.205-0.85c0.016-0.185,0.047-0.366,0.094-0.545
		c0.025-0.098,0.049-0.211,0.104-0.297c0.047-0.078,0.059-0.173,0.088-0.261c0.051-0.151,0.125-0.289,0.156-0.449
		c0.029-0.139,0.021-0.269,0.037-0.408c0.016-0.153,0.078-0.294,0.09-0.448c0.006-0.063,0.025-0.117,0.055-0.175
		c0.039-0.079,0.063-0.163,0.094-0.245c0.039-0.096,0.084-0.188,0.139-0.275c0.105-0.172,0.195-0.351,0.313-0.516
		c0.111-0.152,0.195-0.318,0.299-0.476c0.029-0.048,0.043-0.099,0.066-0.149c0.02-0.04,0.049-0.075,0.072-0.115
		c0.059-0.102,0.121-0.203,0.197-0.292c0.086-0.098,0.188-0.176,0.287-0.257c0.092-0.074,0.176-0.155,0.244-0.255
		c0.055-0.081,0.088-0.173,0.141-0.255c0.082-0.126,0.18-0.036,0.297-0.072c0.135-0.041,0.188-0.216,0.281-0.308
		c0.07-0.065,0.152-0.117,0.225-0.177c0.107-0.086,0.207-0.182,0.309-0.273c0.086-0.076,0.18-0.157,0.291-0.189
		c0.082-0.022,0.164-0.006,0.246-0.013c0.205-0.02,0.295-0.249,0.373-0.41c0.041-0.085,0.082-0.171,0.133-0.252
		c0.035-0.056,0.084-0.11,0.109-0.173C48.412,66.906,48.381,66.864,48.328,66.816z"/>
	<path id="大安區_2_" style="&st7;" d="M76.334,78.959c-0.039-0.063-0.959-0.748-1.018-0.943
		c-0.021-0.068-0.051-1.047-0.086-1.111c-0.037-0.068-0.416-0.385-0.477-0.434c-0.137-0.113-0.117-0.391-0.279-0.535
		c-0.148-0.133-0.787-0.791-0.883-0.951c-0.168-0.279-0.105-0.565-0.203-0.662c-0.162-0.16-4.373-4.457-4.373-4.457l2.225-2.199
		l0.568-1.02l0.174-10.267c0,0-0.607,0.221-0.99,0.313c-3.154,0.761-0.791,4.407-2.813,4.057c-0.889-0.154-5.156-3.047-5.244-3.532
		c-0.02-0.102-0.063-0.249,0.006-0.341c0.021-0.029,0.051-0.048,0.084-0.062c-1.238,0.108-3.232,0.012-4.598-0.276
		c-0.193-0.041-0.4-0.095-0.615-0.157c-0.025-0.008-0.074-0.023-0.074-0.023l-0.105,6.459c0,0-0.105,1.07-1.176,1.081
		C56.207,63.9,55,63.84,54.539,63.75c-0.391-0.078-1.684-0.912-1.684-0.912s-0.883,1.362-1.016,1.854
		c-0.105,0.392-0.594,2.627-0.457,2.945c0.102,0.231,1.701,2.579,1.844,2.722c0.244,0.244,4.311,4.332,4.49,4.555
		c0.266,0.329,1.652,1.96,2.064,2.563c0.162,0.295,0.289,0.538,0.318,0.648c0,0,0.373,1.799,0.525,1.781
		c1.047-0.116,1.197,0.222,1.908,0.152c1.42-0.141,1.615,0.281,1.898,0.22c0.322-0.068,0.641-0.15,0.961-0.229
		c0.115-0.028,0.197-0.101,0.293-0.171c0.072-0.054,0.133-0.121,0.199-0.182c0.135-0.124,0.27-0.225,0.43-0.313
		c0.162-0.09,0.328-0.176,0.5-0.244c0.164-0.063,0.365-0.111,0.535-0.059c0.188,0.058,0.406,0.025,0.6,0.048
		c0.158,0.02,0.32,0.072,0.465,0.141c0.063,0.029,0.117,0.07,0.18,0.102c0.064,0.033,0.133,0.058,0.188,0.106
		c0.088,0.077,0.184,0.188,0.314,0.159c0.117-0.025,0.232-0.093,0.342-0.144c0.174-0.085,0.307-0.282,0.428-0.432
		c0.131-0.162,0.25-0.334,0.348-0.52c0.072-0.134,0.139-0.274,0.244-0.388c0.092-0.103,0.209-0.173,0.334-0.229
		c0.236-0.107,0.48-0.212,0.729-0.287c0.291-0.09,0.566-0.086,0.842,0.048c0.289,0.143,0.58,0.37,0.748,0.649
		c0.096,0.16,0.135,0.4,0.311,0.497c0.15,0.083,0.342,0.044,0.48,0.156c0.061,0.049,0.104,0.114,0.141,0.183
		c0.035,0.064,0.064,0.096,0.115,0.146c0.059,0.06,0.463,0.498,0.504,0.561c0.031,0.05,0.053,0.103,0.074,0.158
		c0.006,0.017,0.004,0.057,0.012,0.068c0.031,0.041,1.127,0.563,1.197,0.573c0.057,0.008,0.518-0.366,0.617-0.426
		c0.074-0.046,0.117-0.074,0.137-0.09C76.68,80.084,76.365,79.008,76.334,78.959z"/>
	<g>
		<g>
			<g>
				
					<rect x="50.46" y="48.872" transform="matrix(0.707 -0.7072 0.7072 0.707 -22.141 52.7332)" style="&st2;" width="4.218" height="8.431"/>
			</g>
		</g>
		<g>
			<g>
				<path style="&st18;" d="M22.758,23.272c-8.234,8.233-8.234,21.581,0,29.814c8.232,8.232,21.58,8.232,29.813-0.001
					c8.234-8.234,8.232-21.58,0-29.813C44.336,15.04,30.992,15.038,22.758,23.272z M49.59,50.104
					c-6.586,6.587-17.266,6.587-23.852,0.001s-6.586-17.266,0-23.853c6.586-6.586,17.266-6.583,23.85,0.002
					C56.174,32.841,56.176,43.519,49.59,50.104z"/>
			</g>
		</g>
		<g>
			<g>
				
					<rect x="60.28" y="52.363" transform="matrix(0.7072 -0.707 0.707 0.7072 -27.0801 64.6398)" style="&st18;" width="8.432" height="25.298"/>
			</g>
		</g>
		<g>
			<g>
				
					<rect x="60.897" y="53.853" transform="matrix(0.7072 -0.707 0.707 0.7072 -28.5699 64.015)" style="&st2;" width="4.217" height="25.298"/>
			</g>
		</g>
		<g>
			<g>
				
					<rect x="51.336" y="55.47" transform="matrix(0.707 -0.7072 0.7072 0.707 -23.3753 55.7159)" style="&st15;" width="8.431" height="1.195"/>
			</g>
		</g>
		<g>
			<g>
				
					<rect x="69.225" y="73.359" transform="matrix(0.707 -0.7072 0.7072 0.707 -30.7853 73.6003)" style="&st15;" width="8.431" height="1.195"/>
			</g>
		</g>
		<g style="&st11;">
			<circle style="&st15;" cx="37.664" cy="38.179" r="16.866"/>
		</g>
	</g>
	<path id="北投區_2_" style="&st19;" d="M26.525,47.127c0.025,0.023,0.057,0.043,0.086,0.064
		c0.029,0.023,0.059,0.049,0.086,0.075c0.059,0.054,0.113,0.113,0.18,0.157c0.035,0.024,0.074,0.044,0.113,0.064
		c0.037,0.021,0.074,0.045,0.113,0.066c0.045,0.025,0.094,0.045,0.143,0.062c0.025,0.009,0.051,0.017,0.074,0.023
		c0.021,0.006,0.045,0.017,0.068,0.016c0.023,0,0.045,0.007,0.068,0.013c0.039,0.01,0.078,0.017,0.117,0.023
		c0.055,0.011,0.109,0.018,0.162,0.028c0.021,0.004,0.039,0.007,0.061,0.004c0.02-0.003,0.039-0.005,0.061-0.005
		c0.029,0.001,0.061,0,0.092-0.002c0.096-0.007,0.193-0.013,0.289-0.022c0.088-0.011,0.174-0.028,0.258-0.059
		c0.049-0.017,0.096-0.038,0.145-0.056c0.07-0.025,0.137-0.063,0.205-0.092c0.033-0.017,0.066-0.037,0.104-0.052
		c0.047-0.019,0.092-0.041,0.139-0.061c0.014-0.007,0.029-0.007,0.045-0.013c0.016-0.007,0.035-0.011,0.053-0.015
		c0.049-0.013,0.1-0.027,0.15-0.036c0.064-0.013,0.127-0.027,0.191-0.046c0.055-0.016,0.111-0.024,0.166-0.042
		c0.045-0.016,0.092-0.028,0.139-0.045c0.027-0.01,0.059-0.011,0.084-0.025c0.025-0.017,0.055-0.023,0.084-0.035
		c0.061-0.021,0.119-0.042,0.18-0.061c0.027-0.008,0.051-0.015,0.08-0.02s0.061-0.011,0.092-0.019
		c0.035-0.008,0.068-0.017,0.102-0.028c0.09-0.029,0.176-0.069,0.266-0.103c0.107-0.041,0.217-0.075,0.326-0.111
		c0.076-0.024,0.148-0.043,0.229-0.051c0.117-0.014,0.238-0.021,0.357-0.005c0.074,0.009,0.15,0.029,0.225,0.045
		s0.141,0.045,0.201,0.089c0.023,0.016,0.045,0.031,0.064,0.047c0.021,0.015,0.041,0.034,0.061,0.047
		c0.043,0.022,0.078,0.056,0.113,0.087c0.025,0.021,0.049,0.041,0.072,0.062c0.033,0.028,0.066,0.052,0.104,0.074
		c0.023,0.016,0.047,0.033,0.068,0.053c0.02,0.018,0.039,0.041,0.061,0.056c0.043,0.03,0.063,0.082,0.094,0.125
		c0.063,0.086,0.109,0.184,0.152,0.281c0.01,0.024,0.021,0.05,0.033,0.073c0.01,0.023,0.021,0.042,0.023,0.067
		c0.006,0.054,0.02,0.107,0.035,0.159c0.021,0.084,0.033,0.169,0.047,0.255c0.014,0.078,0.059,0.209,0.053,0.328
		c-0.01,0.184-0.008,1.806,0.006,1.843c0.006,0.018,0.02,0.027,0.033,0.04c0.018,0.018,0.486,0.33,0.578,0.338
		c0.035,0.003,0.092-0.126,0.123-0.146c0.049-0.032,1.604,0.337,1.643,0.293c0.148-0.164,0.469-0.487,1.254-0.663
		c0.055-0.013,0.111-0.02,0.166-0.03c0.029-0.005,0.057-0.011,0.084-0.019c0.02-0.007,0.043-0.01,0.061-0.022
		c0.02-0.016,0.035-0.038,0.049-0.058c0.016-0.021,0.035-0.053,0.043-0.078c0.01-0.029,0.01-0.062,0.016-0.091
		c0.008-0.027,0.018-0.052,0.018-0.08c0-0.03-0.002-0.061,0-0.092c0.002-0.026,0-0.057,0.004-0.082
		c0.012-0.064,0.045-0.119,0.076-0.174c0.01-0.016,0.018-0.033,0.027-0.051c0.008-0.018,0.012-0.037,0.02-0.055
		c0.008-0.017,0.014-0.037,0.027-0.051c0.01-0.009,0.021-0.012,0.031-0.02c0.039-0.025,0.07-0.062,0.105-0.092
		c0.064-0.054,0.133-0.105,0.189-0.17c0.096-0.108,0.17-0.245,0.197-0.387c0.014-0.065,0.029-0.132,0.037-0.197
		c0.004-0.054,0.002-0.108,0-0.161c-0.004-0.023-0.008-0.049-0.006-0.071c0.002-0.027,0.008-0.054,0.012-0.08
		c0.004-0.029,0.01-0.059,0.016-0.088c0.002-0.013,0.008-0.019,0.018-0.025c0.016-0.014,0.033-0.026,0.051-0.037
		c0.029-0.02,0.059-0.038,0.086-0.059c0.023-0.017,0.051-0.034,0.066-0.056c0.012-0.017,0.01-0.04,0.01-0.06
		c0.002-0.039,0.008-0.076,0.016-0.113c0.008-0.027,0.014-0.054,0.02-0.082c0.004-0.014,0.006-0.025,0.02-0.032
		c0.023-0.011,0.053-0.015,0.078-0.02c0.037-0.009,0.078-0.013,0.117-0.018c0.047-0.005,0.092-0.011,0.137-0.021
		c0.018-0.003,0.033-0.007,0.049-0.013c0.018-0.006,0.031-0.015,0.047-0.021c0.031-0.014,0.061-0.04,0.082-0.067
		c0.018-0.021,0.031-0.045,0.047-0.069c0.006-0.011,0.012-0.022,0.021-0.031c0.004-0.006,0.012-0.01,0.014-0.018
		c0.006-0.011,0.006-0.024,0.01-0.035c0.004-0.013,0.008-0.026,0.01-0.04c0.012-0.07-0.014-0.131-0.041-0.193
		c-0.012-0.021-0.016-0.044-0.025-0.064c-0.016-0.028-0.043-0.047-0.059-0.076c-0.033-0.068-0.061-0.157-0.031-0.23
		c0.018-0.045,0.033-0.092,0.021-0.14c-0.01-0.039-0.031-0.053-0.059-0.075c-0.061-0.046-0.123-0.09-0.176-0.141
		c-0.031-0.029-0.055-0.063-0.068-0.103c-0.016-0.056-0.021-0.136-0.008-0.19c0.012-0.051,0.043-0.111,0.068-0.156
		c0.035-0.058,0.08-0.112,0.104-0.175c0.025-0.06,0.068-0.102,0.117-0.145c0.029-0.025,0.066-0.037,0.094-0.063
		c0.066-0.065,0.039-0.184,0.031-0.266c-0.008-0.081,0.029-0.177,0.063-0.249c0.033-0.067,0.09-0.146,0.168-0.16
		c0.043-0.007,0.082-0.02,0.125-0.024c0.047-0.006,0.094-0.006,0.141-0.005c0.078,0,0.152-0.03,0.209-0.084
		c0.045-0.043-0.19-0.079-0.171-0.138c0.02-0.06-0.245-0.133-0.245-0.194c0-0.003,0-0.006,0-0.009c0-0.052,0.263-0.101,0.317-0.126
		c0.039-0.019,0.212-0.03,0.245-0.062s0.133-0.042,0.158-0.084c0.021-0.033,0.075-0.063,0.079-0.103
		c0.004-0.045,0.029-0.09,0.029-0.137c0-0.064,0.014-0.129,0.016-0.194c0-0.063-0.011-0.118-0.028-0.179
		c-0.021-0.076-0.014-0.155-0.037-0.232c-0.02-0.076-0.049-0.151-0.057-0.23c-0.006-0.045-0.002-0.09,0.012-0.133
		c0.02-0.058,0.037-0.115,0.049-0.175c0.01-0.051,0.031-0.085,0.004-0.135c-0.027-0.047-0.098-0.057-0.117-0.104
		c-0.025-0.065,0.01-0.138,0.02-0.202c0.006-0.027,0.012-0.057,0.016-0.085c0.004-0.031,0-0.057,0.021-0.085
		c0.018-0.026,0.047-0.046,0.061-0.073c0.029-0.053,0.01-0.119,0.051-0.166c0.047-0.055,0.113-0.07,0.182-0.074
		c0.068-0.003,0.113,0.02,0.168-0.029c0.086-0.076,0.156-0.169,0.248-0.236c0.053-0.037,0.098-0.066,0.156-0.088
		c0.039-0.012,0.094-0.029,0.133-0.02c0.043,0.013,0.074,0.009,0.119-0.003c0.025-0.007,0.063-0.031,0.078-0.056
		c0.025-0.045,0.049-0.104,0.105-0.123c0.027-0.009,0.068-0.001,0.096-0.001c0.041,0,0.063,0.006,0.09-0.026
		c0.025-0.029,0.049-0.076,0.088-0.088c0.033-0.011,0.066,0.001,0.102,0.002c0.074,0.003,0.035-0.111,0.047-0.15
		c0.006-0.014,0.016-0.025,0.027-0.035c0.021-0.021,0.049-0.031,0.078-0.04c0.051-0.015,0.115-0.014,0.168,0.006
		c0.078,0.029,0.18,0.007,0.211-0.079c0.012-0.035,0.008-0.076,0.023-0.111c0.018-0.033,0.049-0.044,0.084-0.049
		c0.043-0.004,0.082,0.013,0.123,0.013c0.043,0,0.057,0.016,0.088,0.04c0.021,0.016,0.027,0.032,0.043,0.052
		c0.037,0.05,0.1,0.053,0.154,0.063c0.031,0.006,0.059,0.007,0.088,0.017c0.025,0.009,0.051,0.023,0.076,0.023
		c0.018,0,0.037-0.004,0.055-0.008c0.041-0.004,0.063-0.025,0.07-0.064c0.006-0.024,0.002-0.051,0.002-0.076
		c0-0.026-0.004-0.039,0.018-0.059c0.018-0.018,0.037-0.019,0.059-0.026c0.027-0.011,0.053-0.024,0.08-0.035
		c0.025-0.01,0.057-0.027,0.076-0.044c0.055-0.048,0.109-0.085,0.152-0.144c0.041-0.053,0.078-0.112,0.111-0.171
		c0.014-0.023,0.025-0.049,0.039-0.073s0.014-0.044,0.016-0.071c0.004-0.055,0.008-0.119,0.031-0.168
		c0.02-0.037,0.066-0.053,0.082-0.092c0.008-0.021,0.006-0.045,0.006-0.067s-0.012-0.04-0.02-0.06
		c-0.01-0.024-0.014-0.046-0.016-0.071c-0.002-0.06-0.004-0.118,0.008-0.177c0.018-0.076,0.031-0.154,0.045-0.23
		c0.01-0.062,0.014-0.111,0.045-0.166c0.018-0.028,0.041-0.056,0.057-0.086c0.016-0.033,0.016-0.064,0.027-0.097
		c0.018-0.062,0.027-0.127,0.051-0.187c0.02-0.055,0.094-0.086,0.141-0.114c0.035-0.02,0.064-0.039,0.092-0.069
		c0.021-0.025,0.047-0.049,0.072-0.071c0.016-0.013,0.033-0.022,0.043-0.042c0.031-0.057,0.053-0.115,0.096-0.168
		c0.041-0.052,0.1-0.096,0.131-0.155c0.018-0.029,0.016-0.058,0.021-0.09c0.004-0.035,0.018-0.076,0.029-0.109
		c0.012-0.035,0.033-0.062,0.051-0.094c0.049-0.082,0.057-0.186,0.084-0.276c0.035-0.115,0.096-0.22,0.145-0.328
		c0.043-0.094,0.098-0.184,0.133-0.278c0.031-0.085,0.113-0.167,0.189-0.21c0.053-0.03,0.107-0.059,0.166-0.075
		c0.037-0.01,0.076-0.015,0.115-0.021c0.049-0.009,0.104-0.014,0.145-0.043c0.039-0.027,0.053-0.072,0.082-0.107
		c0.035-0.045,0.068-0.071,0.123-0.084c0.049-0.01,0.1-0.013,0.143-0.04c0.049-0.032,0.113-0.107,0.127-0.163
		c0.006-0.026,0-0.057,0.004-0.085c0.004-0.035,0.016-0.069,0.018-0.105c0.008-0.092,0-0.186,0.018-0.276
		c0.012-0.067,0.068-0.113,0.088-0.176c0.008-0.022,0.006-0.047,0.016-0.069c0.008-0.021,0.016-0.04,0.021-0.063
		c0.012-0.036,0.021-0.074,0.025-0.112c0.004-0.022-0.002-0.047,0-0.069c0.004-0.041,0.021-0.072,0.039-0.106
		c0.021-0.039,0.035-0.085,0.053-0.126c0.02-0.038,0.037-0.079,0.045-0.122c0.006-0.034,0.008-0.067,0.018-0.101
		c0.018-0.055,0.055-0.105,0.084-0.155c0.025-0.042,0.02-0.106-0.002-0.151c-0.021-0.046-0.063-0.078-0.102-0.11
		c-0.057-0.051-0.107-0.109-0.152-0.174c-0.021-0.03-0.043-0.062-0.059-0.093c-0.018-0.033-0.025-0.076-0.035-0.113
		c-0.016-0.048-0.027-0.091-0.035-0.141c-0.016-0.087,0.006-0.161,0.014-0.247c0.008-0.092,0.021-0.181,0.063-0.264
		c0.02-0.037,0.041-0.065,0.066-0.098c0.033-0.043,0.061-0.09,0.092-0.134c0.016-0.02,0.031-0.037,0.043-0.06
		c0.012-0.021,0.018-0.04,0.033-0.058c0.029-0.033,0.059-0.068,0.092-0.098c0.033-0.028,0.07-0.034,0.111-0.039
		c0.084-0.012,0.176-0.006,0.254-0.049c0.064-0.037,0.092-0.118,0.123-0.181c0.037-0.073,0.074-0.15,0.086-0.232
		c0.006-0.051-0.01-0.097-0.016-0.146c-0.01-0.052-0.008-0.155,0.055-0.172c0.055-0.015,0.109-0.026,0.148-0.071
		c0.021-0.025,0.031-0.06,0.031-0.094c-0.002-0.043-0.02-0.092-0.008-0.136c0.012-0.04,0.049-0.056,0.082-0.075
		c0.074-0.048,0.119-0.146,0.08-0.231c-0.033-0.069-0.141-0.104-0.102-0.196c0.02-0.046,0.064-0.074,0.102-0.104
		c0.025-0.022,0.049-0.043,0.035-0.079c-0.021-0.065-0.084-0.104-0.127-0.156c-0.02-0.023-0.041-0.055-0.045-0.086
		c-0.006-0.044,0.012-0.086-0.008-0.13c-0.008-0.019-0.006-0.032-0.008-0.052c-0.004-0.021-0.016-0.034-0.027-0.053
		c-0.018-0.028-0.023-0.061-0.002-0.09c0.092-0.115,0.203-0.204,0.307-0.308c0.043-0.041,0.074-0.091,0.109-0.136
		c0.043-0.058,0.092-0.11,0.143-0.159c0.074-0.07,0.148-0.134,0.205-0.22c0.039-0.061,0.107-0.086,0.172-0.11
		c0.082-0.029,0.164-0.039,0.242-0.083c0.027-0.017,0.055-0.033,0.066-0.063c0.012-0.025,0.014-0.053,0.033-0.075
		c0.039-0.042,0.105-0.2,0.16-0.206C48.439,29.173,48.488,29,48.547,29c0.02,0,0.041,0,0.063,0c0.051,0,0.102-0.004,0.131-0.084
		c-0.006,0-0.01,0.034-0.016,0.036C48.701,28.954,48.68,29,48.658,29c-0.002,0-0.002,0-0.002,0c-0.008,0-0.016,0.038-0.021,0.04
		c-0.057,0.019-0.115,0.061-0.188,0.083c-0.025,0.008-0.055,0.024-0.08,0.024c-0.023,0-0.043,0.009-0.064,0.015
		c-0.053,0.014-0.107,0.022-0.162,0.01c-0.029-0.006-0.055-0.015-0.08-0.031c-0.02-0.011-0.035-0.027-0.053-0.037
		c-0.021-0.013-0.045-0.022-0.064-0.034c-0.025-0.014-0.053-0.024-0.078-0.04c-0.047-0.029-0.092-0.064-0.131-0.103
		c-0.021-0.021-0.035-0.045-0.029-0.075c0.004-0.029,0.012-0.053,0.012-0.082c-0.002-0.019,0.004-0.036,0.004-0.055
		c0-0.023-0.014-0.049-0.021-0.07c-0.01-0.026-0.02-0.052-0.031-0.077c-0.012-0.026-0.029-0.052-0.049-0.073
		c-0.029-0.031-0.063-0.057-0.105-0.058c-0.053-0.002-0.111,0.006-0.162-0.013c-0.043-0.015-0.09-0.044-0.123-0.075
		c-0.035-0.035-0.088-0.053-0.131-0.074c-0.063-0.031-0.127-0.063-0.193-0.085c-0.023-0.008-0.043-0.006-0.068-0.007
		c-0.023-0.002-0.063-0.01-0.076-0.029c-0.012-0.015-0.014-0.032-0.02-0.049c-0.01-0.022-0.014-0.045-0.027-0.065
		c-0.012-0.019-0.023-0.036-0.039-0.054c-0.037-0.042-0.074-0.08-0.117-0.117c-0.023-0.022-0.025-0.044-0.021-0.076
		c0.002-0.019,0.01-0.035,0.014-0.054c0.004-0.021,0.012-0.044,0.012-0.066c0-0.023-0.004-0.047-0.006-0.07
		c-0.012-0.166-0.029-0.337-0.104-0.49c-0.076-0.158-0.195-0.292-0.264-0.454c-0.018-0.04-0.029-0.082-0.039-0.124
		c-0.016-0.075-0.021-0.153-0.033-0.229s0.008-0.154,0.002-0.232c0-0.02,0-0.047-0.014-0.063c-0.014-0.015-0.041-0.02-0.059-0.022
		c-0.029-0.004-0.059-0.006-0.088-0.007c-0.061-0.002-0.115-0.007-0.174-0.03c-0.033-0.013-0.066-0.028-0.098-0.048
		c-0.023-0.015-0.041-0.032-0.068-0.041c-0.02-0.008-0.041-0.009-0.061-0.012c-0.072-0.01-0.143-0.017-0.211,0.01
		c-0.072,0.028-0.135,0.079-0.191,0.129c-0.023,0.019-0.047,0.035-0.068,0.054c-0.07,0.06-0.146,0.036-0.242,0.051
		C44.805,26.097,44.766,26,44.727,26c-0.027,0-0.055,0-0.084,0c-0.016,0-0.035,0.094-0.049,0.103
		c-0.029,0.016-0.049,0.098-0.063,0.125c-0.016,0.033-0.025,0.094-0.033,0.13c-0.016,0.072-0.025,0.161-0.057,0.229
		c-0.07,0.154-0.178,0.268-0.225,0.437c-0.061,0.207-0.162,0.272-0.367,0.328c-0.002,0.05-0.01,0.103-0.014,0.153
		c-0.004,0.045-0.012,0.097,0.014,0.137c0.012,0.02,0.027,0.039,0.041,0.056c0.012,0.017,0.025,0.032,0.039,0.045
		c0.02,0.019,0.031,0.041,0.045,0.063c0.016,0.027,0.025,0.056,0.033,0.087c0.006,0.024,0.006,0.05,0.008,0.074
		c0.004,0.021,0.008,0.044,0.008,0.065c-0.004,0.014-0.01,0.026-0.01,0.039c-0.004,0.024,0.006,0.036,0.012,0.059
		c0.004,0.01,0.008,0.021,0.01,0.032c0.008,0.044,0.004,0.09-0.012,0.132c-0.014,0.034-0.023,0.07-0.041,0.104
		c-0.018,0.031-0.037,0.06-0.059,0.087c-0.041,0.052-0.072,0.111-0.131,0.144c-0.023,0.013-0.047,0.021-0.074,0.025
		c-0.039,0.007-0.092,0.015-0.131,0c-0.063-0.024-0.109-0.078-0.16-0.12c-0.055-0.045-0.117-0.085-0.188-0.075
		c-0.156,0.021-0.133,0.116-0.221,0.209c-0.064,0.068-0.215,0.102-0.301,0.139c0.012,0.108-0.092,0.128-0.152,0.168
		c-0.076,0.049-0.08,0.127-0.146,0.189c-0.129,0.126-0.223,0.147-0.223,0.357c0,0.097-0.002,0.147-0.045,0.226
		c-0.055,0.103-0.057,0.161-0.057,0.281c0,0.157,0.078,0.35-0.043,0.486c-0.033,0.036-0.086,0.052-0.121,0.088
		c-0.033,0.03-0.068,0.063-0.094,0.099c-0.08,0.111-0.113,0.197-0.264,0.204c-0.109,0.006-0.203,0.02-0.311,0.037
		c-0.191,0.032-0.51,0.009-0.611,0.219c-0.092,0.191-0.168,0.396-0.377,0.496c-0.1,0.048-0.229,0.046-0.334,0.036
		c-0.09-0.009-0.18-0.015-0.266,0.006c-0.08,0.02-0.143,0.048-0.227,0.055c-0.133,0.013-0.266,0.013-0.396,0.028
		c-0.066,0.008-0.133-0.006-0.199,0.009c-0.143,0.031-0.219,0.167-0.314,0.268c-0.102,0.106-0.191,0.216-0.299,0.315
		c-0.088,0.079-0.184,0.149-0.273,0.227c-0.084,0.075-0.064,0.187-0.012,0.28c0.039,0.07,0.047,0.09,0.033,0.171
		c-0.008,0.053-0.012,0.098,0.012,0.147c0.023,0.046,0.043,0.062,0.045,0.122c0,0.055-0.002,0.109-0.002,0.164
		c0,0.106-0.004,0.226-0.051,0.321c-0.047,0.095-0.152,0.172-0.182,0.275c-0.018,0.06,0.006,0.114-0.023,0.173
		c-0.02,0.042-0.063,0.069-0.084,0.112c-0.037,0.075-0.041,0.164-0.043,0.247c-0.006,0.098-0.025,0.144-0.09,0.219
		c-0.041,0.049-0.094,0.051-0.154,0.024c-0.051-0.021-0.092-0.061-0.148-0.077c-0.061-0.02-0.119-0.038-0.178-0.061
		c-0.109-0.041-0.215-0.083-0.326-0.118c-0.098-0.031-0.188-0.086-0.287-0.112c-0.096-0.024-0.258-0.05-0.35-0.001
		c-0.109,0.058-0.172,0.17-0.246,0.264c-0.055,0.07-0.074,0.079-0.164,0.064c-0.055-0.01-0.111,0-0.168-0.008
		c-0.119-0.017-0.215-0.097-0.316-0.155c-0.064-0.035-0.121-0.073-0.174-0.123c-0.029-0.025-0.055-0.064-0.088-0.084
		c-0.117-0.069-0.309,0.048-0.342-0.145c-0.018-0.108,0.043-0.292-0.107-0.325c-0.137-0.029-0.271-0.023-0.412-0.013
		c-0.014,0.09-0.037,0.167-0.066,0.251c-0.031,0.09-0.088,0.104-0.145,0.171c-0.043,0.048-0.02,0.053-0.008,0.098
		c0.01,0.038,0.008,0.084,0.008,0.127c0,0.083,0.01,0.177-0.002,0.259c-0.166,0.066-0.307,0.167-0.398,0.321
		c-0.041,0.07-0.066,0.157-0.078,0.233c-0.012,0.079,0,0.172-0.041,0.243c-0.154,0.26-0.404,0.372-0.645,0.536
		c-0.053,0.038-0.109,0.075-0.158,0.121c-0.055,0.047-0.078,0.118-0.137,0.162c-0.111,0.083-0.242,0.12-0.336,0.23
		c-0.053,0.061-0.109,0.109-0.145,0.182c-0.033,0.068-0.029,0.137-0.063,0.207c-0.07,0.146-0.146,0.298-0.246,0.426
		c-0.096,0.12-0.17,0.263-0.246,0.396c-0.043,0.076-0.088,0.155-0.119,0.236c-0.02,0.049-0.037,0.094-0.066,0.137
		c-0.037,0.059-0.094,0.11-0.125,0.172c-0.039,0.071-0.039,0.158-0.057,0.234c-0.008,0.041,0,0.08-0.029,0.113
		c-0.027,0.031-0.037,0.078-0.076,0.099c-0.023,0.013-0.049,0.019-0.074,0.021c-0.096,0.007-0.195,0.001-0.293,0.003
		c-0.064,0.002-0.158,0-0.223,0.017c-0.129,0.033-0.234,0.197-0.285,0.308c-0.066,0.136-0.117,0.26-0.229,0.361
		c-0.135,0.125-0.262,0.264-0.404,0.387c-0.045,0.038-0.088,0.077-0.135,0.116c-0.08,0.07-0.164,0.139-0.248,0.206
		c-0.031,0.024-0.063,0.042-0.1,0.056c-0.039,0.016-0.043,0.06-0.051,0.096c-0.004,0.016-0.008,0.03-0.008,0.045
		c-0.002,0.015,0,0.029-0.002,0.043c-0.008,0.039-0.033,0.074-0.055,0.106c-0.014,0.024-0.029,0.044-0.049,0.065
		c-0.031,0.035-0.059,0.071-0.094,0.104c-0.037,0.036-0.078,0.069-0.111,0.108c-0.049,0.054-0.098,0.104-0.154,0.15
		c-0.063,0.055-0.102,0.118-0.172,0.168c-0.061,0.045-0.137,0.076-0.195,0.121c-0.053,0.039-0.066,0.103-0.072,0.16
		c-0.01,0.068-0.016,0.157-0.061,0.215c-0.041,0.055-0.115,0.098-0.166,0.15c-0.1,0.104-0.178,0.216-0.318,0.254
		c-0.023,0.006-0.074,0.005-0.092,0.028c-0.016,0.024-0.006,0.075-0.018,0.105c-0.021,0.063-0.068,0.133-0.113,0.181
		c-0.053,0.057-0.119,0.099-0.174,0.154c-0.035,0.037-0.076,0.072-0.111,0.111c-0.055,0.062-0.102,0.131-0.164,0.188
		c-0.076,0.069-0.162,0.126-0.242,0.19c-0.043,0.035-0.146,0.098-0.17,0.149c-0.02,0.046,0.01,0.132,0.02,0.183
		c0.049,0.258,0.014,0.517,0.105,0.771c0.043,0.12,0.088,0.238,0.059,0.37c-0.018,0.079-0.014,0.14-0.08,0.198
		c-0.049,0.043-0.109,0.072-0.172,0.094c-0.045,0.016-0.094,0.021-0.139,0.025c-0.049,0.004-0.098,0.024-0.141,0.041
		c-0.027,0.01-0.053,0.021-0.078,0.03c-0.041,0.013-0.092,0.025-0.135,0.023c-0.021-0.001-0.014,0.011-0.004,0.021
		c0.012,0.014,0.016,0.024,0.021,0.04c0.016,0.035,0.047,0.066,0.049,0.105c0.002,0.033,0.018,0.061,0.025,0.093
		c0.014,0.052,0.025,0.104,0.035,0.155c0.01,0.045,0.01,0.088,0.01,0.134c0,0.097,0.006,0.191,0.006,0.287
		c0,0.029,0,0.062,0.006,0.091c0.008,0.033,0.021,0.065,0.033,0.098c0.01,0.025,0.018,0.052,0.027,0.078
		c0.016,0.041,0.033,0.081,0.045,0.123c0.012,0.036,0.031,0.066,0.051,0.1c0.021,0.044,0.047,0.086,0.066,0.131
		c0.018,0.038,0.033,0.078,0.049,0.117c0.016,0.034,0.027,0.067,0.047,0.099c0.01,0.017,0.023,0.028,0.035,0.042
		c0.018,0.02,0.029,0.04,0.043,0.061c0.035,0.052,0.068,0.105,0.096,0.162c0.02,0.038,0.047,0.07,0.063,0.112
		C26.5,47.093,26.508,47.11,26.525,47.127z"/>
</g>
</svg>
