<?xml version="1.0" encoding="utf-8"?>
<!-- Generator: Adobe Illustrator 16.0.0, SVG Export Plug-In . SVG Version: 6.00 Build 0)  -->
<!DOCTYPE svg PUBLIC "-//W3C//DTD SVG 1.1//EN" "http://www.w3.org/Graphics/SVG/1.1/DTD/svg11.dtd" [
	<!ENTITY st0 "fill:#E36A5C;">
	<!ENTITY st1 "fill:#E5D6C7;">
	<!ENTITY st2 "fill:#545454;">
	<!ENTITY st3 "fill:none;stroke:#FFFFFF;stroke-miterlimit:10;">
	<!ENTITY st4 "fill:#242C3C;">
	<!ENTITY st5 "fill:#5D9EA6;">
	<!ENTITY st6 "fill:#92B7EF;">
	<!ENTITY st7 "fill:#C2E97E;">
	<!ENTITY st8 "fill:#C49669;">
	<!ENTITY st9 "fill:#FC6738;">
	<!ENTITY st10 "fill:#999999;">
	<!ENTITY st11 "opacity:0.3;">
	<!ENTITY st12 "fill:#FEE677;">
	<!ENTITY st13 "fill:#FF9B74;">
	<!ENTITY st14 "fill:#FFEE4D;">
	<!ENTITY st15 "fill:#FFFFFF;">
	<!ENTITY st16 "fill:none;stroke:#FFFFFF;stroke-width:0.5913;stroke-miterlimit:10;">
	<!ENTITY st17 "fill:#6DBEC4;">
	<!ENTITY st18 "fill:#404040;">
	<!ENTITY st19 "fill:#45A36F;">
]>
<svg version="1.1" id="圖層_1" xmlns="http://www.w3.org/2000/svg" xmlns:xlink="http://www.w3.org/1999/xlink" x="0px" y="0px"
	 width="100px" height="100px" viewBox="0 0 100 100" style="enable-background:new 0 0 100 100;" xml:space="preserve">
<g>
	<circle style="&st6;" cx="50" cy="50" r="50"/>
	<circle style="&st3;" cx="49.999" cy="50" r="44.999"/>
	<path style="&st7;" d="M46.46,19.009c-0.002-0.156,0.004-0.232,0.076-0.367c0.055-0.104,0.055-0.168,0.055-0.295
		c0.002-0.275,0.121-0.301,0.295-0.467c0.084-0.082,0.092-0.186,0.189-0.248c0.078-0.051,0.217-0.078,0.199-0.219
		c0.113-0.053,0.311-0.096,0.396-0.184c0.113-0.121,0.084-0.246,0.283-0.271c0.277-0.037,0.408,0.443,0.656,0.189
		c0.219-0.223,0.354-0.422,0.365-0.756c0.008-0.199-0.137-0.227-0.211-0.385c-0.061-0.133-0.014-0.352-0.01-0.496
		c0.27-0.072,0.4-0.154,0.48-0.426c0.064-0.221,0.199-0.361,0.293-0.563c0.088-0.188,0.047-0.469,0.264-0.57
		c0.102-0.049,0.227-0.031,0.334-0.053c0.135-0.027,0.232-0.088,0.336-0.178c0.217-0.188,0.34-0.234,0.623-0.158
		c0.211,0.057,0.467,0.094,0.566,0.313c0.102,0.227,0.063,0.494,0.162,0.723c0.09,0.213,0.246,0.391,0.346,0.598
		c0.117,0.242,0.125,0.51,0.146,0.773c0.023,0.246,0.096,0.402,0.248,0.594c0.195,0.01,0.408,0.135,0.582,0.219
		c0.227,0.107,0.498,0.068,0.615,0.316c0.1,0.211,0.109,0.445,0.301,0.592c0.197,0.148,0.477,0.227,0.721,0.156
		c0.26-0.074,0.389-0.191,0.656-0.043c0.119,0.066,0.527,0.375,0.625,0.313c0.082-0.047,0.031-0.205,0.137-0.264
		c0.09-0.051,0.313-0.041,0.412-0.033c0.137,0.018,0.511,0.115,0.528,0.268c0.016,0.117-0.111,0.256-0.117,0.381
		c-0.01,0.148,0.055,0.252,0.113,0.381c0.109,0.244,0.076,0.605,0.053,0.871c-0.201,0.002-0.236,0.172-0.251,0.332
		c-0.012,0.129-0.023,0.111-0.086,0.213c-0.049,0.078-0.053,0.143-0.045,0.234c0.014,0.15,0.047,0.301,0.068,0.445
		c0.025,0.215-0.09,0.232-0.217,0.361c-0.123,0.129-0.109,0.271-0.109,0.439c0,0.072-0.018,0.174,0.004,0.242
		c0.021,0.072,0.078,0.1,0.111,0.156c0.039,0.063,0.057,0.135,0.072,0.207c0.029,0.121,0.055,0.1,0.125,0.18
		c0.106,0.121,0.104,0.26,0.179,0.402c0.1,0.184-0.108,0.482-0.202,0.66c-0.117,0.225-0.254,0.436-0.41,0.635
		c-0.178,0.223-0.381,0.391-0.605,0.566c-0.189,0.148-0.24,0.32-0.311,0.549c-0.064,0.209-0.199,0.477-0.053,0.68
		c0.119,0.172,0.387,0.359,0.588,0.418c0.291,0.086,0.643-0.037,0.948-0.016c0.322,0.023,0.504,0.217,0.748,0.414
		c0.152,0.125,0.793,0.438,0.873,0.102c0.174-0.045,0.248,0.053,0.252,0.205c0.002,0.078-0.004,0.15,0.016,0.225
		c0.063,0.23,0.137,0.48,0.213,0.709c0.064,0.184,0.152,0.365,0.162,0.561c0.002,0.201,0.031,0.396,0.029,0.598
		c-0.004,0.23-0.123,0.287-0.238,0.467c-0.082,0.125-0.135,0.262-0.221,0.385c-0.227,0.326,0.242,0.393,0.459,0.539
		c0.074,0.055,0.15,0.113,0.24,0.133c0.104,0.021,0.225-0.033,0.305,0.057c0.189,0.207-0.02,0.549,0.127,0.785
		c0.074,0.123,0.191,0.184,0.258,0.328c0.051,0.113,0.125,0.252,0.135,0.377c0.016,0.158-0.008,0.35,0.029,0.506
		c0.043,0.18,0.246,0.133,0.348,0.279c0.072,0.104,0.053,0.24,0.123,0.344c0.09,0.139,0.25,0.334,0.387,0.426
		c0.1,0.068,0.234,0.063,0.34,0.121c0.109,0.063,0.188,0.184,0.246,0.291c0.053,0.09,0.064,0.119,0.152,0.164
		c0.063,0.029,0.137,0.035,0.203,0.078c0.125,0.08,0.203,0.279,0.338,0.34c0.115,0.051,0.078-0.02,0.139-0.1
		c0.057-0.078,0.111-0.084,0.193-0.123c0.148,0.152,0.035,0.262-0.047,0.389c-0.096,0.146-0.139,0.266-0.139,0.441
		c0.004,0.168-0.031,0.324-0.031,0.502c0,0.184-0.049,0.354-0.027,0.525c0.146,0.021,0.297-0.008,0.428,0.041
		c0.121,0.043,0.256,0.076,0.367,0.133c0.053,0.348-0.369,0.615-0.58,0.848c-0.184,0.207-0.496,0.744-0.674,0.244
		c-0.201-0.043-0.211,0.275-0.252,0.385c-0.053,0.135-0.133,0.291-0.143,0.434c-0.012,0.238-0.09,0.537-0.242,0.732
		c-0.092,0.123-0.232,0.123-0.309,0.268c-0.1,0.184-0.123,0.387-0.209,0.576c-0.107,0.238-0.293,0.426-0.396,0.67
		c-0.051,0.117-0.107,0.225-0.184,0.326c-0.057,0.078-0.156,0.162-0.162,0.266c-0.01,0.17,0.189,0.385,0.242,0.551
		c0.068,0.211,0.152,0.41,0.277,0.6c0.145,0.227,0.324,0.23,0.578,0.24c0.459,0.025,0.852,0.207,1.27,0.377
		c0.236,0.1,0.494,0.104,0.742,0.162c0.193,0.045,0.361,0.121,0.488,0.264c0.141,0.166,0.297,0.303,0.496,0.385
		c0.234,0.098,0.496-0.008,0.734,0.074c0.166,0.059,0.387,0.199,0.486,0.344c0.119,0.164,0.178,0.383,0.334,0.516
		c0.09,0.078,0.217,0.111,0.311,0.189c0.102,0.084,0.182,0.188,0.285,0.27c0.146,0.117,0.258,0.258,0.416,0.357
		c0.08,0.051,0.18,0.084,0.248,0.15c0.088,0.082,0.113,0.232,0.221,0.295c0.199,0.119,0.506-0.012,0.723,0.016
		c0.227,0.031,0.352,0.303,0.191,0.465c-0.189,0.191-0.338,0.289-0.223,0.588c0.043,0.115,0.119,0.186,0.139,0.314
		c0.021,0.113,0.055,0.225,0.076,0.338c0.023,0.121-0.004,0.24,0.064,0.348c0.109,0.17,0.371,0.293,0.43,0.486
		c0.035,0.119-0.023,0.248,0.012,0.369c0.043,0.141,0.131,0.186,0.043,0.336c-0.141,0.236-0.256,0.354-0.135,0.641
		c0.096,0.223-0.133,0.396-0.332,0.451c-0.164,0.045-0.34,0.246-0.445,0.389c-0.084,0.115-0.043,0.223-0.078,0.35
		c-0.033,0.111-0.16,0.16-0.16,0.285c-0.002,0.127,0.143,0.182,0.049,0.295c-0.102,0.121-0.213,0.072-0.211,0.287
		c0.002,0.096,0.043,0.137,0.082,0.219c0.041,0.092,0.027,0.078,0.012,0.168c-0.012,0.078-0.041,0.064-0.021,0.15
		c0.016,0.064,0.07,0.086,0.057,0.166c-0.018,0.002-0.035,0.008-0.053,0.012c-0.004,0.018-0.008,0.035-0.012,0.053
		c-0.018,0.008-0.076,0.027-0.094,0.027c-0.059-0.104-0.078-0.219-0.219-0.219c-0.156,0.002-0.168,0.176-0.254,0.271
		c-0.092,0.1-0.207,0.123-0.17,0.299c0.025,0.115,0.117,0.131,0.172,0.23c0.072,0.131-0.061,0.24-0.045,0.371
		c0.006,0.094,0.15,0.238,0.045,0.336c-0.039,0.037-0.146,0-0.203,0.031c-0.068,0.037-0.137,0.139-0.205,0.191
		c-0.096,0.072-0.191,0.148-0.285,0.227c-0.117,0.105-0.24,0.209-0.354,0.326c-0.037,0.035-0.105,0.082-0.133,0.127
		c-0.033,0.066-0.006,0.127-0.02,0.199c-0.02,0.092-0.098,0.145-0.123,0.225c-0.023,0.072-0.012,0.18-0.004,0.256
		c0.154,0.008,0.305-0.014,0.449,0.043c0.146,0.061,0.256,0.172,0.379,0.271c0.229,0.186,0.416,0.422,0.568,0.678
		c0.141,0.234,0.164,0.521,0.34,0.736c0.102,0.125,0.191,0.236-0.029,0.297c-0.217,0.057-0.424,0.07-0.482,0.326
		c-0.043,0.195,0.037,0.436-0.066,0.613c-0.141,0.242-0.496,0.281-0.715,0.426c-0.107,0.072-0.207,0.145-0.291,0.244
		c-0.119,0.139-0.092,0.246-0.068,0.428c0.018,0.148,0.041,0.293,0.082,0.438c0.041,0.141,0.109,0.211,0.18,0.332
		c0.041,0.072,0.059,0.156,0.104,0.227c0.074,0.135,0.168,0.223,0.225,0.355c0.059,0.141,0.086,0.285,0.15,0.426
		c0.07,0.15,0.174,0.258,0.268,0.396c0.156,0.229,0.26,0.51,0.527,0.631c0.227,0.1,0.568,0.311,0.637,0.57
		c0.164,0.027,0.334,0.008,0.49,0.059c0.119,0.039,0.186,0.135,0.307,0.188c0.145,0.059,0.301,0.057,0.4,0.164
		c0.102,0.115,0.156,0.273,0.154,0.426c0.121,0.039,0.223-0.076,0.328-0.115c0.107-0.039,0.262-0.055,0.375-0.066
		c0.129-0.016,0.264-0.039,0.324,0.074c0.045,0.088-0.023,0.086,0.092,0.141c0.047,0.021,0.125,0.023,0.176,0.039
		c0.473,0.135,0.879,0.516,1.295,0.775c0.211,0.131,0.406,0.277,0.625,0.395c0.102,0.055,0.203,0.102,0.301,0.154
		c0.107,0.057,0.199,0.152,0.309,0.201c0.105,0.047,0.268,0.023,0.355,0.094c0.098,0.078,0.064,0.252,0.195,0.307
		c0.121,0.055,0.242-0.061,0.367-0.006c0.045,0.018,0.059,0.057,0.117,0.072c0.051,0.02,0.133,0.023,0.188,0.037
		c0.145,0.029,0.285,0.082,0.436,0.064c0.135-0.02,0.227-0.146,0.369-0.082c0.145,0.059,0.201,0.08,0.365,0.063
		c0.158-0.016,0.314-0.008,0.467-0.025c0.072-0.008,0.232-0.004,0.301-0.037c0.135-0.066,0.16-0.266,0.301-0.346
		c0.139-0.084,0.293-0.143,0.434-0.221c0.121-0.063,0.262-0.201,0.396-0.219c0.152-0.021,0.297,0.064,0.432,0.121
		c0.119,0.049,0.254,0.09,0.381,0.135c0.158,0.055,0.33,0.01,0.498,0.035c0.008,0.088-0.16,0.154-0.215,0.227
		c-0.074,0.104-0.102,0.199-0.104,0.328c-0.004,0.213,0.125,0.402,0.121,0.613c-0.004,0.189-0.178,0.338-0.217,0.527
		c-0.094,0.43-0.973,0.223-1.252,0.156c-0.26-0.063-0.512-0.047-0.779-0.055c-0.168-0.008-0.297-0.109-0.453-0.174
		c-0.186-0.074-0.27-0.146-0.463-0.07c-0.215,0.084-0.443,0.174-0.678,0.146c-0.092-0.01-0.17-0.045-0.268-0.027
		c-0.006,0.102-0.166,0.232-0.234,0.303c-0.115,0.121-0.307,0.25-0.475,0.277c-0.236,0.039-0.4-0.178-0.543-0.33
		c-0.178-0.191-0.359-0.352-0.621-0.406c-0.344-0.07-0.688-0.023-1.025,0.061c-0.148,0.037-0.344,0.055-0.463,0.141
		c-0.111,0.078-0.182,0.162-0.283-0.006c-0.076-0.123-0.088-0.143-0.24-0.201c-0.225-0.092-0.441-0.449-0.701-0.326
		c-0.107,0.051-0.264,0.143-0.322,0.25c-0.047,0.092-0.033,0.211-0.057,0.313c-0.014,0.059-0.064,0.115-0.074,0.17
		c-0.01,0.041,0.016,0.064,0.008,0.104c-0.01,0.084-0.039,0.154-0.08,0.229c-0.094,0.178-0.234,0.318-0.324,0.496
		c-0.027,0.053-0.061,0.104-0.117,0.129s-0.125,0.002-0.184,0.025c-0.135,0.053-0.203,0.217-0.336,0.277
		c-0.064,0.029-0.137,0.063-0.213,0.096c-0.26,0.117-0.537,0.301-0.842,0.262c-0.188-0.023-0.297-0.26-0.494-0.256
		c-0.096,0.002-0.211,0.023-0.311,0.039c-0.111,0.012-0.236,0.012-0.344,0.018c-0.145,0.01-0.189-0.09-0.264-0.195
		c-0.051-0.074-0.059-0.186-0.131-0.244c-0.156-0.125-0.432,0.09-0.594,0.119c-0.174,0.033-0.273-0.084-0.422-0.154
		c-0.191-0.09-0.367-0.084-0.547,0.027c-0.193,0.121-0.346,0.109-0.566,0.096c-0.262-0.014-0.529-0.002-0.791,0.002
		c-0.174,0.002-0.293,0.057-0.359,0.221c-0.078,0.184-0.125,0.371-0.186,0.561c-0.018,0.059-0.051,0.111-0.066,0.168
		c-0.021,0.072-0.006,0.156-0.061,0.215c-0.057,0.064-0.184,0.049-0.258,0.066c-0.182,0.041-0.381,0.037-0.566,0.037
		c-0.111,0-0.453-0.057-0.502,0.072c-0.021,0.061,0.008,0.193,0.008,0.262c0,0.305-0.318,0.518-0.385,0.801
		c-0.033,0.146-0.023,0.297-0.027,0.447c-0.002,0.162-0.072,0.277-0.123,0.428c-0.047,0.135-0.035,0.285-0.035,0.426
		c0,0.143,0.02,0.295,0.053,0.434c0.055,0.209,0.176,0.166,0.348,0.158c0.174-0.006,0.232,0.111,0.316,0.234
		c0.082,0.119,0.201,0.203,0.295,0.314c0.094,0.113,0.158,0.24,0.23,0.365c0.135,0.23,0.133,0.539,0.07,0.795
		c-0.041,0.182-0.182,0.318-0.236,0.504c-0.041,0.137-0.059,0.189-0.193,0.268c-0.125,0.07-0.178,0.141-0.178,0.291
		c0,0.082,0.02,0.131,0.047,0.205c0.025,0.061,0.023,0.113,0.033,0.18c0.102,0.037,0.174,0.084,0.191,0.197
		c0.014,0.111-0.037,0.193-0.037,0.297c-0.004,0.117,0.143,0.127,0.225,0.172c0.107,0.055,0.209,0.115,0.318,0.16
		c0.137,0.053,0.086,0.113,0.098,0.242c0.006,0.104,0.076,0.176,0.08,0.285s0.025,0.236-0.068,0.316
		c-0.078,0.066-0.199,0.094-0.291,0.137c-0.146,0.066-0.199,0.24-0.162,0.389c0.023,0.1,0.059,0.182,0.059,0.289
		c0.002,0.105-0.006,0.211,0.012,0.314c0.01,0.051,0.047,0.088,0.059,0.139c0.014,0.051,0.004,0.113,0.002,0.164
		c-0.002,0.111,0.002,0.215,0.014,0.32c0.012,0.066,0.033,0.094,0.055,0.15c0.018,0.049,0.008,0.102,0.01,0.154
		c0.002,0.111-0.037,0.188-0.105,0.277c-0.053,0.07-0.184,0.15-0.207,0.23c-0.033,0.129,0.064,0.234,0.104,0.348
		c0.018,0.051,0.008,0.111,0.033,0.16c0.037,0.072,0.152,0.137,0.213,0.188c0.186,0.156,0.381,0.078,0.6,0.127
		c0.217,0.049,0.367,0.258,0.549,0.377c0.184,0.121,0.424,0.121,0.633,0.049c0.189-0.063,0.555-0.242,0.646,0.043
		c0.07,0.006,0.15,0,0.215-0.029c0.072-0.031,0.121-0.078,0.193-0.014c0.049,0.043,0.049,0.117,0.09,0.168
		c0.045,0.057,0.107,0.074,0.176,0.094c0.064,0.016,0.119,0.047,0.182,0.066c0.078,0.025,0.164-0.01,0.242,0.033
		c0.066,0.037,0.09,0.119,0.141,0.172c0.059,0.064,0.146,0.084,0.213,0.146c0.055,0.051,0.1,0.119,0.158,0.17
		c0.148,0.133,0.404,0.156,0.594,0.188c0.127,0.023,0.252,0.023,0.332,0.143c0.084,0.123,0.061,0.25,0.018,0.381
		c-0.045,0.145-0.018,0.289-0.053,0.43c-0.037,0.139-0.215,0.188-0.338,0.229c-0.162,0.051-0.168-0.02-0.283-0.107
		c-0.145-0.104-0.289,0.021-0.393,0.125c-0.223,0.209-0.58,0.08-0.805,0.285c-0.076,0.07-0.045,0.146-0.162,0.16
		c-0.076,0.008-0.156-0.018-0.232,0.012c-0.078,0.029-0.154,0.094-0.232,0.137c-0.127,0.07-0.256,0.146-0.324,0.279
		c-0.057,0.104-0.105,0.168-0.225,0.207c-0.225,0.068-0.473-0.041-0.691,0.027c-0.135,0.045-0.275,0.096-0.398,0.16
		c-0.117,0.061-0.307,0.139-0.385,0.246c-0.08,0.119-0.176,0.217-0.338,0.199c-0.064-0.01-0.738-0.18-0.76-0.105
		c-0.105,0.393-0.455,0.063-0.662-0.018c-0.105-0.041-0.223,0.004-0.291-0.109c-0.072-0.117-0.045-0.252-0.117-0.367
		c-0.057-0.094-0.098-0.213-0.176-0.293c-0.082-0.088-0.236-0.035-0.344-0.043c-0.105-0.01-0.162-0.084-0.262-0.107
		c-0.051-0.012-0.129-0.029-0.178-0.004c-0.047,0.023-0.072,0.086-0.115,0.115c-0.223,0.164-0.512,0.094-0.766,0.143
		c-0.111,0.023-0.246,0.066-0.338-0.029c-0.041-0.041-0.041-0.098-0.076-0.139c-0.029-0.033-0.105-0.072-0.146-0.088
		c-0.24-0.094-0.521-0.098-0.774-0.146c-0.125-0.023-0.225-0.041-0.336-0.104c-0.117-0.064-0.197-0.186-0.318-0.248
		c-0.223-0.109-0.447-0.043-0.682-0.084c-0.08-0.016-0.066-0.041-0.121-0.08c-0.041-0.031-0.113-0.043-0.16-0.049
		c-0.098-0.012-0.254-0.023-0.346,0.021c-0.01,0.18-0.018,0.307-0.111,0.467c-0.072,0.125-0.168,0.256-0.303,0.314
		c-0.154,0.064-0.301,0.029-0.453-0.004c-0.09-0.016-0.391-0.137-0.426-0.004c-0.082,0.012-0.184,0.008-0.266-0.002
		c-0.098-0.01-0.205-0.012-0.311-0.012c-0.172,0-0.396,0.061-0.553,0c-0.092-0.041-0.154-0.064-0.254-0.08
		c-0.09-0.014-0.182-0.031-0.273-0.043c-0.23-0.031-0.506,0.07-0.67-0.148c-0.047-0.063-0.078-0.125-0.131-0.182
		c-0.053-0.051-0.063-0.096-0.092-0.156c-0.031-0.064-0.082-0.111-0.115-0.176c-0.027-0.045-0.051-0.09-0.078-0.133
		c-0.061-0.092-0.127-0.184-0.146-0.295c-0.014-0.1,0.018-0.195-0.016-0.291c-0.035-0.096-0.084-0.188-0.121-0.285
		c-0.039-0.098-0.057-0.199-0.082-0.299c-0.033-0.131-0.002-0.188-0.115-0.271c-0.094-0.066-0.18-0.137-0.27-0.207
		c-0.078-0.061-0.041-0.174-0.07-0.258c-0.035-0.115-0.086-0.229-0.129-0.342c-0.027-0.076-0.02-0.156-0.049-0.23
		c-0.035-0.072-0.074-0.057-0.143-0.1c-0.08-0.049-0.158-0.107-0.221-0.18c-0.064-0.076-0.072-0.162-0.119-0.246
		c-0.068-0.127-0.09-0.309-0.09-0.463c0-0.193,0.039-0.375,0.049-0.57c0.016-0.271,0.061-0.512,0.107-0.775
		c0.049-0.264-0.074-0.529-0.324-0.645c-0.063-0.027-0.205-0.066-0.264-0.002c-0.033,0.031-0.035,0.113-0.068,0.16
		c-0.078,0.115-0.209,0.188-0.285,0.301c-0.049,0.076-0.08,0.18-0.15,0.234c-0.074,0.057-0.168,0.063-0.254,0.08
		c-0.193,0.043-0.369,0.055-0.564,0.057c-0.119,0-0.262-0.002-0.371-0.057c-0.088-0.041-0.207-0.189-0.211-0.291
		c-0.006-0.15,0.023-0.332,0.055-0.48c0.029-0.125,0.102-0.215,0.055-0.354c-0.092-0.271-0.494-0.176-0.699-0.137
		c-0.275,0.047-0.535,0.072-0.809-0.002c-0.223-0.059-0.521-0.158-0.592-0.406c-0.07-0.246,0.102-0.49,0.111-0.736
		c0.01-0.236-0.084-0.561-0.256-0.73c-0.205-0.207-0.412-0.031-0.465,0.203c-0.025,0.129-0.035,0.258-0.088,0.383
		c-0.066,0.148-0.17,0.277-0.279,0.395c-0.033,0.039-0.15,0.189-0.217,0.156c-0.053-0.025-0.057-0.219-0.072-0.27
		c-0.061-0.227-0.248-0.43-0.211-0.674c0.047-0.285,0.102-0.492-0.006-0.773c-0.098-0.254-0.125-0.486-0.125-0.758
		c0.004-0.271,0.027-0.463,0.275-0.604c0.152-0.084,0.303-0.166,0.441-0.268s0.293-0.191,0.172-0.365
		c-0.137-0.193-0.234-0.406-0.338-0.619c-0.051-0.107-0.129-0.217-0.143-0.338c-0.014-0.111,0.014-0.227,0.004-0.34
		c-0.014-0.168-0.088-0.314-0.229-0.408c-0.084-0.053-0.16-0.113-0.24-0.166c-0.096-0.061-0.201-0.053-0.303-0.08
		c-0.127-0.035-0.227-0.117-0.346-0.166c-0.084-0.033-0.15-0.041-0.225-0.1c-0.186-0.143-0.354-0.313-0.482-0.502
		s-0.256-0.385-0.381-0.582c-0.102-0.156-0.193-0.326-0.322-0.465c-0.078-0.082-0.135-0.18-0.213-0.264
		c-0.215-0.232-0.449-0.475-0.701-0.67c-0.207-0.156-0.436-0.285-0.674-0.387c-0.504-0.217-1.064-0.256-1.607-0.191
		c-0.121,0.012-0.242,0.018-0.359,0.059c-0.271,0.1-0.432,0.406-0.604,0.623c-0.201,0.254-0.441,0.447-0.572,0.752
		c-0.059,0.131-0.15,0.225-0.254,0.324c-0.113,0.107-0.201,0.199-0.331,0.291c-0.07,0.047-0.123,0.107-0.188,0.164
		c-0.068,0.061-0.133,0.09-0.188,0.166c-0.063,0.082-0.139,0.152-0.213,0.225c-0.164,0.162-0.334,0.32-0.506,0.475
		c-0.143,0.121-0.293,0.236-0.459,0.326c-0.121,0.068-0.252,0.102-0.379,0.148c-0.113,0.045-0.182,0.021-0.299-0.008
		c-0.088-0.023-0.17-0.051-0.252-0.092c-0.24-0.129-0.459-0.262-0.607-0.496c-0.059-0.096-0.109-0.189-0.152-0.293
		c-0.051-0.117-0.1-0.234-0.15-0.352c-0.049-0.107-0.037-0.178-0.045-0.295c-0.018-0.266-0.039-0.518-0.1-0.779
		c-0.031-0.141-0.049-0.287-0.055-0.432c-0.008-0.133-0.031-0.289-0.008-0.418c0.018-0.096,0.063-0.18,0.072-0.277
		c0.016-0.15,0.031-0.307,0.012-0.455c-0.012-0.076-0.059-0.166-0.084-0.24c-0.045-0.113-0.047-0.238-0.096-0.359
		c-0.053-0.129-0.123-0.254-0.191-0.377c-0.1-0.178-0.184-0.363-0.275-0.547c-0.156-0.318-0.268-0.662-0.416-0.986
		c-0.135-0.295-0.328-0.633-0.348-0.961c-0.006-0.146,0.008-0.307,0.049-0.447c0.041-0.145,0.135-0.266,0.209-0.396
		c0.176-0.314,0.344-0.646,0.602-0.904c0.008,0.141,0,0.271-0.037,0.41c-0.033,0.127-0.086,0.27-0.053,0.402
		c0.064,0.252,0.439,0.279,0.65,0.301c0.105,0.014,0.262,0.031,0.318-0.084c0.055-0.111-0.016-0.258,0.012-0.375
		c0.033-0.156,0.184-0.215,0.318-0.264c0.164-0.064,0.324-0.127,0.475-0.223c0.086-0.051,0.078-0.121,0.139-0.189
		c0.047-0.055,0.107-0.107,0.16-0.156c0.086-0.084,0.121-0.189,0.105-0.309c-0.072-0.039-0.17-0.023-0.252-0.023
		c-0.213,0-0.42,0.035-0.633,0.057c-0.219,0.023-0.441,0.043-0.646,0.127c-0.258,0.105-0.398,0.436-0.289,0.697
		c0.115,0.279,0.512,0.227,0.754,0.215c0.322-0.014,0.625-0.074,0.932-0.172c0.268-0.086,0.508-0.234,0.73-0.402
		c0.111-0.088,0.221-0.18,0.328-0.273c0.098-0.084,0.123-0.178,0.201-0.273c0.066-0.084,0.15-0.152,0.213-0.238
		c0.105-0.131,0.217-0.246,0.33-0.365c0.131-0.141,0.256-0.299,0.389-0.443c0.163-0.168,0.299-0.336,0.418-0.533
		c0.055-0.092,0.094-0.156,0.117-0.258c0.041-0.176,0.057-0.365,0.141-0.529c0.082-0.162,0.207-0.299,0.264-0.475
		c0.037-0.131,0.049-0.25,0.072-0.383c0.033-0.184,0.184-0.33,0.18-0.521c0-0.076-0.012-0.121,0.027-0.191
		c0.047-0.086,0.107-0.15,0.121-0.25c0.021-0.15,0.08-0.275,0.08-0.434c0.006-0.385,0.113-0.76,0.1-1.146
		c-0.01-0.256,0.135-0.484,0.135-0.734c0-0.096-0.078-0.189,0-0.283c0-0.107-0.027-0.195,0.014-0.293
		c0.037-0.086,0.055-0.176,0.068-0.268c0.029-0.221,0-0.459,0-0.682c0.002-0.18-0.074-0.383-0.119-0.557
		c-0.035-0.148-0.049-0.303-0.057-0.455c-0.002-0.117,0.025-0.211-0.002-0.326c-0.094-0.406-0.141-0.805-0.184-1.223
		c-0.021-0.189-0.145-0.342-0.199-0.523c-0.068-0.215-0.127-0.416-0.25-0.609c-0.084-0.123-0.156-0.25-0.234-0.381
		c-0.176-0.283-0.426-0.52-0.609-0.799c-0.131-0.203-0.256-0.404-0.42-0.584c-0.223-0.244-0.486-0.445-0.721-0.676
		c-0.086-0.084-0.191-0.146-0.273-0.23c-0.125-0.131-0.244-0.24-0.385-0.352c-0.119-0.088-0.234-0.184-0.346-0.281
		c-0.121-0.1-0.252-0.178-0.371-0.281c-0.137-0.119-0.268-0.24-0.4-0.361c-0.158-0.141-0.336-0.258-0.492-0.4
		c-0.383-0.342-0.766-0.666-1.225-0.891c-0.594-0.289-1.145-0.637-1.781-0.84c-0.182-0.057-0.365-0.105-0.553-0.145
		c-0.141-0.025-0.281-0.051-0.418-0.098c-0.154-0.055-0.295-0.133-0.451-0.178c-0.305-0.094-0.643,0.027-0.932-0.121
		c-0.146-0.072-0.27-0.191-0.406-0.283c-0.129-0.088-0.273-0.148-0.412-0.227c-0.309-0.17-0.422-0.434-0.363-0.777
		c0.061-0.369,0.037-0.668-0.146-1.002c-0.141-0.252-0.287-0.496-0.418-0.756c-0.076-0.156-0.145-0.313-0.17-0.484
		c-0.027-0.182-0.029-0.367-0.072-0.547c-0.064-0.285-0.275-0.65,0.039-0.863c0.148-0.1,0.326-0.072,0.486-0.123
		c0.082-0.029,0.162-0.07,0.229-0.125c0.084-0.076,0.08-0.156,0.104-0.26c0.039-0.17-0.02-0.326-0.078-0.484
		c-0.119-0.332-0.076-0.67-0.139-1.008c-0.012-0.064-0.051-0.18-0.021-0.238c0.027-0.07,0.16-0.15,0.219-0.195
		c0.104-0.084,0.219-0.16,0.318-0.25c0.08-0.074,0.143-0.166,0.215-0.246c0.045-0.053,0.1-0.096,0.148-0.145
		c0.068-0.074,0.154-0.129,0.225-0.203c0.061-0.063,0.117-0.156,0.148-0.236c0.012-0.039,0-0.105,0.021-0.139
		c0.023-0.029,0.09-0.029,0.119-0.035c0.188-0.051,0.289-0.195,0.42-0.334c0.064-0.068,0.162-0.123,0.217-0.197
		c0.057-0.074,0.064-0.189,0.076-0.279c0.012-0.076,0.025-0.158,0.096-0.209c0.08-0.061,0.176-0.1,0.258-0.16
		c0.09-0.064,0.141-0.148,0.221-0.219c0.076-0.063,0.143-0.127,0.203-0.197c0.109-0.123,0.256-0.201,0.299-0.367
		c0.018-0.078,0.018-0.189,0.072-0.256c0.061-0.064,0.166-0.133,0.236-0.189c0.174-0.133,0.346-0.283,0.51-0.424
		c0.188-0.162,0.35-0.344,0.527-0.506c0.145-0.135,0.215-0.297,0.299-0.473c0.068-0.146,0.203-0.361,0.375-0.404
		c0.082-0.02,0.203-0.02,0.291-0.02c0.1-0.004,0.195-0.002,0.293-0.002c0.082,0,0.215,0.027,0.273-0.039
		c0.057-0.07,0.033-0.188,0.053-0.27c0.023-0.1,0.023-0.215,0.072-0.307c0.043-0.08,0.115-0.146,0.164-0.225
		c0.039-0.059,0.063-0.117,0.086-0.18c0.039-0.105,0.102-0.209,0.156-0.309c0.102-0.176,0.197-0.363,0.32-0.52
		c0.133-0.168,0.232-0.365,0.326-0.557c0.043-0.094,0.035-0.182,0.08-0.273c0.047-0.092,0.119-0.156,0.189-0.236
		c0.123-0.145,0.293-0.191,0.441-0.303c0.074-0.053,0.105-0.15,0.176-0.213c0.066-0.055,0.137-0.107,0.209-0.156
		c0.313-0.215,0.641-0.361,0.842-0.701c0.057-0.094,0.039-0.215,0.053-0.318c0.018-0.1,0.053-0.213,0.105-0.307
		c0.117-0.201,0.303-0.332,0.52-0.42c0.018-0.105,0.004-0.23,0.004-0.34c0-0.053,0.004-0.113-0.012-0.164
		c-0.014-0.057-0.045-0.066,0.012-0.127c0.074-0.09,0.146-0.107,0.188-0.227c0.04-0.107,0.069-0.211,0.088-0.328
		c0.182-0.012,0.359-0.02,0.539,0.018c0.199,0.043,0.117,0.283,0.141,0.426c0.043,0.252,0.293,0.1,0.447,0.189
		c0.043,0.025,0.076,0.076,0.115,0.109c0.068,0.066,0.143,0.117,0.227,0.164c0.135,0.072,0.258,0.18,0.416,0.201
		c0.074,0.01,0.145-0.002,0.219,0.01c0.117,0.021,0.141,0.008,0.215-0.084c0.096-0.123,0.178-0.271,0.322-0.346
		c0.121-0.063,0.33-0.031,0.459,0.004c0.129,0.033,0.244,0.104,0.373,0.143c0.145,0.049,0.283,0.102,0.428,0.156
		c0.078,0.029,0.156,0.053,0.234,0.078c0.07,0.025,0.125,0.074,0.193,0.104c0.078,0.033,0.148,0.029,0.199-0.033
		c0.086-0.1,0.113-0.16,0.119-0.285c0.002-0.109,0.008-0.227,0.057-0.324c0.027-0.055,0.082-0.092,0.109-0.148
		c0.039-0.074,0.008-0.146,0.029-0.225c0.039-0.135,0.178-0.236,0.24-0.359c0.061-0.127,0.066-0.283,0.064-0.424
		c-0.002-0.07,0.004-0.143,0.004-0.213c-0.004-0.078-0.029-0.1-0.061-0.16c-0.029-0.063-0.023-0.125-0.012-0.191
		c0.016-0.107,0.004-0.133-0.047-0.225c-0.068-0.123-0.094-0.27,0.018-0.365c0.117-0.102,0.24-0.193,0.357-0.297
		c0.141-0.131,0.258-0.273,0.389-0.414c0.127-0.129,0.227-0.309,0.412-0.348c0.086-0.021,0.174-0.002,0.262-0.014
		c0.172-0.02,0.344-0.021,0.518-0.037c0.109-0.01,0.193-0.045,0.297-0.07c0.115-0.027,0.232-0.021,0.348-0.01
		c0.139,0.014,0.311,0.016,0.439-0.047c0.271-0.131,0.371-0.398,0.492-0.648c0.133-0.277,0.549-0.246,0.801-0.287
		c0.139-0.023,0.266-0.039,0.402-0.047c0.197-0.012,0.242-0.121,0.346-0.268c0.035-0.047,0.082-0.092,0.125-0.129
		c0.049-0.047,0.115-0.066,0.156-0.117C46.56,19.468,46.46,19.216,46.46,19.009z"/>
	<g>
		<g>
			<g>
				
					<rect x="53.747" y="48.871" transform="matrix(0.7071 -0.7071 0.7071 0.7071 -21.1781 55.0453)" style="&st2;" width="4.219" height="8.431"/>
			</g>
		</g>
		<g>
			<g>
				<path style="&st18;" d="M26.044,23.272c-8.233,8.233-8.234,21.581,0,29.814c8.232,8.232,21.58,8.232,29.813-0.001
					c8.234-8.234,8.232-21.58,0-29.813C47.623,15.04,34.278,15.038,26.044,23.272z M52.877,50.104
					c-6.587,6.587-17.266,6.587-23.852,0.001s-6.587-17.266,0-23.853c6.586-6.586,17.265-6.583,23.85,0.002
					C59.461,32.841,59.463,43.519,52.877,50.104z"/>
			</g>
		</g>
		<g>
			<g>
				
					<rect x="63.567" y="52.363" transform="matrix(0.7071 -0.7071 0.7071 0.7071 -26.1175 66.9713)" style="&st18;" width="8.431" height="25.298"/>
			</g>
		</g>
		<g>
			<g>
				
					<rect x="64.184" y="53.853" transform="matrix(0.7071 -0.7071 0.7071 0.7071 -27.6077 66.354)" style="&st2;" width="4.216" height="25.298"/>
			</g>
		</g>
		<g>
			<g>
				
					<rect x="54.623" y="55.471" transform="matrix(0.707 -0.7072 0.7072 0.707 -22.4123 58.0339)" style="&st15;" width="8.432" height="1.195"/>
			</g>
		</g>
		<g>
			<g>
				
					<rect x="72.512" y="73.36" transform="matrix(0.7071 -0.7071 0.7071 0.7071 -29.8225 75.9161)" style="&st15;" width="8.431" height="1.195"/>
			</g>
		</g>
		<g style="&st11;">
			<circle style="&st15;" cx="40.951" cy="38.179" r="16.866"/>
		</g>
	</g>
	<g>
		<path style="&st9;" d="M48.053,40.177L48.053,40.177c-0.96,1.418-2.346,2.532-3.979,3.168c-0.116,0.053-0.233,0.123-0.316,0.222
			l-2.806,6.073l-2.805-6.073c-0.098-0.111-0.216-0.196-0.345-0.233c-1.618-0.636-2.993-1.745-3.952-3.156
			c-0.946-1.38-1.503-3.052-1.503-4.853c0-2.385,0.965-4.521,2.521-6.077c1.556-1.554,3.712-2.527,6.084-2.527
			c2.37,0,4.53,0.974,6.084,2.527c1.554,1.556,2.521,3.692,2.521,6.077C49.556,37.125,49.005,38.797,48.053,40.177L48.053,40.177z"
			/>
		<path style="&st15;" d="M40.951,30.386L40.951,30.386c-1.362,0-2.59,0.555-3.492,1.445c-0.892,0.892-1.446,2.129-1.446,3.493
			c0,1.342,0.54,2.574,1.42,3.461l0.026,0.03c0.902,0.892,2.13,1.448,3.492,1.448c1.358,0,2.601-0.557,3.491-1.448l0,0
			c0.892-0.896,1.447-2.129,1.447-3.491c0-1.364-0.556-2.602-1.447-3.493C43.552,30.94,42.313,30.386,40.951,30.386L40.951,30.386z"
			/>
		<path style="&st10;" d="M43.097,37.469L43.097,37.469c-0.547,0.552-1.311,0.894-2.148,0.894c-0.84,0-1.599-0.342-2.146-0.894
			l-0.021-0.015c-0.539-0.551-0.873-1.306-0.873-2.131c0-0.835,0.342-1.598,0.894-2.148c0.547-0.549,1.306-0.896,2.146-0.896
			c0.838,0,1.602,0.348,2.148,0.896c0.551,0.551,0.888,1.313,0.888,2.148C43.984,36.164,43.647,36.927,43.097,37.469L43.097,37.469z
			"/>
	</g>
</g>
</svg>
