<?xml version="1.0" encoding="utf-8"?>
<!-- Generator: Adobe Illustrator 16.0.0, SVG Export Plug-In . SVG Version: 6.00 Build 0)  -->
<!DOCTYPE svg PUBLIC "-//W3C//DTD SVG 1.1//EN" "http://www.w3.org/Graphics/SVG/1.1/DTD/svg11.dtd" [
	<!ENTITY st0 "fill:#ACCFF6;">
	<!ENTITY st1 "fill:#E34D7F;">
	<!ENTITY st2 "fill:#828282;">
	<!ENTITY st3 "fill:#B7EDCC;">
	<!ENTITY st4 "fill:#EDEDED;">
	<!ENTITY st5 "fill:#545454;">
	<!ENTITY st6 "fill:none;stroke:#FFFFFF;stroke-miterlimit:10;">
	<!ENTITY st7 "opacity:0.5;fill:#FFFFFF;">
	<!ENTITY st8 "fill:#F7A83B;">
	<!ENTITY st9 "fill:#F96E6E;">
	<!ENTITY st10 "fill:#C2C2C2;">
	<!ENTITY st11 "fill:#C2E97E;">
	<!ENTITY st12 "fill:#FBCA61;">
	<!ENTITY st13 "fill:#FBD764;">
	<!ENTITY st14 "fill:#FC6738;">
	<!ENTITY st15 "fill:#FCEFB9;">
	<!ENTITY st16 "fill:#FEE677;">
	<!ENTITY st17 "fill:#FFA3A3;">
	<!ENTITY st18 "fill:#FFFFFF;">
	<!ENTITY st19 "fill:none;">
	<!ENTITY st20 "fill:#CA2F59;">
	<!ENTITY st21 "fill:#9C9C9C;">
	<!ENTITY st22 "fill:#68C1C1;">
	<!ENTITY st23 "fill:#9DCED1;">
	<!ENTITY st24 "fill:#D4B99B;">
	<!ENTITY st25 "fill:#D9E9F9;">
	<!ENTITY st26 "fill:#DBDBDB;">
	<!ENTITY st27 "fill:#404040;">
	<!ENTITY st28 "fill:#419CE0;">
	<!ENTITY st29 "fill:#43D17D;">
]>
<svg version="1.1" id="圖層_1" xmlns="http://www.w3.org/2000/svg" xmlns:xlink="http://www.w3.org/1999/xlink" x="0px" y="0px"
	 width="100px" height="100px" viewBox="0 0 100 100" style="enable-background:new 0 0 100 100;" xml:space="preserve">
<g>
	<circle style="&st13;" cx="50" cy="50" r="49.999"/>
	<g>
		<path style="&st19;" d="M5.121,50.247c0.014,2.5,0.238,4.948,0.645,7.334l4.064-5.402C8.416,51.262,6.828,50.592,5.121,50.247z"/>
		<path style="&st19;" d="M28.551,54.865C28.726,54.921,28.868,55,28.983,55H32v2h-3.08l-1.194,3.649
			c0.245,0.152,0.478,0.328,0.683,0.53c0.092,0.095,0.166,0.205,0.249,0.307l27.437-22.039l-34.225-0.041l-0.11,0.146l4.059,20.509
			c0.019,0.001,0.036,0.006,0.056,0.008l1.448-4.503C27.49,55.055,28.039,54.699,28.551,54.865z"/>
		<path style="&st19;" d="M51.507,63.947c0,3.785,1.533,7.209,4.01,9.69c2.483,2.479,5.906,4.014,9.69,4.014
			c0.032,0,0.063-0.003,0.096-0.003L65.215,67c-0.002,0-0.005,0-0.008,0c-0.834,0-1.599,0-2.147-1h-0.006
			c-0.552,0-0.894-1.264-0.894-2.105c0-0.841,0.342-1.577,0.891-2.126l-4.429-8.891l0.149-0.171L59,52.499v-0.507
			c-2,0.618-2.354,1.378-3.243,2.266C53.28,56.738,51.507,60.164,51.507,63.947z"/>
		<path style="&st19;" d="M64.801,60.94c0.135-0.019,0.268,0.063,0.406,0.063c0.841,0,1.604-0.003,2.154,0.997h0.006
			c0.549,0,0.893,1.156,0.893,1.999c0,0.842-0.344,2.001-0.893,2.001h-0.002l7.533,7.583c2.482-2.481,4.015-5.878,4.015-9.662
			c0-3.783-1.532-7.195-4.017-9.675c-2.479-2.481-5.905-4.008-9.689-4.008c-1.678,0-3.277,0.32-4.763,0.872l0.009,1.088
			L64.801,60.94z"/>
		<path style="&st19;" d="M19.725,63h2.154c0.178-1,0.522-1.316,1.006-1.801c0.295-0.294,0.646-0.536,1.024-0.724l-3.723-18.827
			l-6.601,8.766c0.373,0.315,0.738,0.653,1.083,0.998C17.657,54.396,19.543,58,19.725,63z"/>
		<path style="&st19;" d="M12.082,73.404C14.284,71.2,15.732,68,16.029,65H7.666c0.958,3,2.171,5.277,3.609,7.728l0.738,0.738
			C12.036,73.444,12.061,73.426,12.082,73.404z"/>
		<path style="&st19;" d="M12.082,54.001c-0.225-0.225-0.465-0.439-0.705-0.647l-5.102,6.787C6.497,61.103,6.744,62,7.025,63h9.031
			C15.879,59,14.404,56.327,12.082,54.001z"/>
		<path style="&st19;" d="M50.001,5.114c-23.633,0-42.984,18.265-44.742,41.448c2.476,0.413,4.779,1.333,6.783,2.678l7.641-10.153
			l-1.32-6.673c-1.267,0.612-2.267,1.744-4.909,0.256l0.271-2.693c0-1.07,0.926-0.977,1.572-0.977h8.441
			c0.304,0,0.73-0.055,0.879,0.249c0.169,0.35,0.408,1.413,0.324,1.901l-4.691,0.582L21.345,37h0.038l37.053,0.245L58.344,28h1.322
			c0.006,0,0.011,0,0.018,0h5.225c1.768,0,3.352,0.736,4.483,1.871l0.059,0.081c1.048,1.076,1.695,2.539,1.695,4.124
			c0,1.617-0.673,3.052-1.76,4.135C68.254,39.345,66.669,40,64.908,40h-1.713c-0.641,0-1.164-0.472-1.164-1c0-0.53,0.523-1,1.164-1
			h1.713c1.029,0,1.98-0.338,2.686-1.041c0.75-0.751,1.223-1.755,1.223-2.926c0-1.142-0.453-2.148-1.172-2.899l-0.058-0.022
			C66.889,30.41,65.938,30,64.908,30h-4.634l0.14,17.277c1.523-0.438,3.129-0.693,4.793-0.693c4.799,0,9.14,1.944,12.283,5.083
			c3.145,3.145,5.091,7.487,5.091,12.282c0,4.797-1.946,9.14-5.091,12.28c-3.144,3.143-7.484,5.091-12.283,5.091
			c-4.793,0-9.14-1.949-12.277-5.092c-3.143-3.141-5.091-7.484-5.091-12.281c0-4.795,1.948-9.139,5.091-12.283
			c1.59-1.59,3.49-2.871,5.602-3.751l0.021-7.944L29.914,63H30v-0.037L29.89,63h0.01l-0.361,0.874c0,0.03,0.009,0.05,0.009,0.081
			c0,1.078-0.433,2.049-1.139,2.756c-0.711,0.705-1.688,1.143-2.763,1.143c-0.091,0-0.177-0.022-0.267-0.028l-1.24,3.781
			c-0.162,0.511-0.711,0.816-1.223,0.652C22.742,72.203,22.594,72,22.482,72H20v-2h2.547l0.984-2.892
			c-0.232-0.151-0.452-0.224-0.646-0.419C22.4,66.205,22.056,66,21.878,65h-2.181c-0.307,4-2.16,8.131-5.028,10.999
			c-0.247,0.247-0.513,0.453-0.774,0.684c8.176,11.053,21.303,18.212,36.106,18.212c24.791,0,44.884-20.102,44.884-44.891
			C94.885,25.214,74.792,5.114,50.001,5.114z"/>
		<path style="&st20;" d="M60.274,30h4.634c1.029,0,1.98,0.422,2.679,1.124l0.058,0.042c0.719,0.751,1.172,1.779,1.172,2.92
			c0,1.171-0.473,2.124-1.223,2.875C66.889,37.663,65.938,38,64.908,38h-1.713c-0.641,0-1.164,0.47-1.164,1c0,0.527,0.523,1,1.164,1
			h1.713c1.761,0,3.346-0.651,4.478-1.786c1.087-1.083,1.76-2.541,1.76-4.158c0-1.585-0.647-3.026-1.695-4.103l-0.059-0.089
			C68.26,28.729,66.676,28,64.908,28h-5.225c-0.007,0-0.012,0-0.018,0h0.593L60.274,30z"/>
		<path d="M28.92,57H32v-2h-3.017c-0.115,0-0.258-0.079-0.433-0.135c-0.512-0.166-1.061,0.19-1.229,0.701l-1.448,4.465
			c0.678,0.039,1.308,0.259,1.853,0.599L28.92,57z"/>
		<path style="&st7;" d="M11.275,72.689c0.18,0.306,0.36,0.611,0.547,0.912c0.063-0.06,0.131-0.114,0.191-0.174L11.275,72.689z"/>
		<path d="M12.042,49.24c-2.004-1.344-4.308-2.265-6.783-2.678c-0.043,0.571-0.079,1.143-0.101,1.72
			c2.129,0.381,4.111,1.184,5.85,2.333L12.042,49.24z"/>
		<path d="M19.697,65h-1.715c-0.302,4-1.965,7.229-4.522,9.782c-0.181,0.18-0.376,0.323-0.565,0.494
			c0.324,0.476,0.658,0.935,1,1.397c0.262-0.231,0.527-0.423,0.774-0.669C17.537,73.136,19.391,69,19.697,65z"/>
		<path d="M18.01,63h1.715c-0.182-5-2.067-8.604-5.056-11.589c-0.345-0.345-0.71-0.676-1.083-0.992l-1.033,1.37
			c0.311,0.266,0.618,0.548,0.907,0.837C16.137,55.303,17.83,59,18.01,63z"/>
		<path style="&st1;" d="M17.75,65h-1.721c-0.297,3-1.745,6.2-3.947,8.404c-0.021,0.021-0.046,0.021-0.068,0.042l1.104,1.093
			c-0.141,0.141-0.296,0.262-0.442,0.397c0.028,0.043,0.056,0.086,0.084,0.129c0.177-0.162,0.362-0.277,0.532-0.447
			C15.81,72.106,17.448,69,17.75,65z"/>
		<path style="&st1;" d="M10.867,50.802c-1.699-1.123-3.635-1.91-5.715-2.287C5.137,49.009,5.115,49.502,5.115,50
			c0,0.083,0.006,0.164,0.006,0.247c1.707,0.345,3.295,1.016,4.709,1.932L10.867,50.802z"/>
		<path style="&st1;" d="M13.291,52.788c-0.28-0.28-0.578-0.549-0.879-0.807l-1.035,1.37c0.24,0.208,0.48,0.428,0.705,0.653
			C14.404,56.329,15.879,59,16.057,63h1.721C17.598,59,15.93,55.424,13.291,52.788z"/>
		<path style="&st1;" d="M12.014,73.427c-0.061,0.061-0.129,0.115-0.191,0.174c0.277,0.448,0.561,0.893,0.853,1.33
			c0.146-0.135,0.302-0.261,0.442-0.402L12.014,73.427z"/>
		<path style="&st1;" d="M17.982,65H17.75c-0.302,4-1.94,7.105-4.459,9.617c-0.17,0.17-0.355,0.303-0.532,0.465
			c0.044,0.065,0.091,0.119,0.136,0.185c0.189-0.171,0.385-0.299,0.565-0.479C16.018,72.234,17.681,69,17.982,65z"/>
		<path style="&st1;" d="M13.291,52.788C15.93,55.424,17.598,59,17.777,63h0.232c-0.18-4-1.873-7.699-4.55-10.376
			c-0.289-0.289-0.597-0.566-0.907-0.832l-0.141,0.192C12.713,52.242,13.011,52.507,13.291,52.788z"/>
		<path style="&st1;" d="M11.008,50.615c-1.738-1.149-3.721-1.952-5.85-2.333c-0.003,0.078-0.004,0.156-0.006,0.233
			c2.08,0.377,4.016,1.164,5.715,2.287L11.008,50.615z"/>
		<path style="&st7;" d="M67.361,66c-0.549,1-1.309,0.942-2.146,0.944l0.088,10.676c3.745-0.025,7.137-1.537,9.594-3.996
			c0.001,0,0.002-0.047,0.002-0.048L67.365,66H67.361z"/>
		<path d="M65.207,48.294c4.328,0,8.24,1.753,11.067,4.583c2.833,2.837,4.586,6.75,4.586,11.07c0,4.321-1.753,8.234-4.586,11.068
			c-2.827,2.832-6.739,4.586-11.067,4.586c-4.32,0-8.234-1.754-11.067-4.586c-2.833-2.834-4.586-6.747-4.586-11.068
			c0-4.32,1.753-8.233,4.586-11.07c1.264-1.263,2.752-2.295,4.386-3.069l0.006-1.895c-2.111,0.88-4.012,2.161-5.602,3.751
			c-3.143,3.145-5.091,7.488-5.091,12.283c0,4.797,1.948,9.141,5.091,12.281c3.138,3.143,7.484,5.091,12.277,5.091
			c4.799,0,9.14-1.948,12.283-5.091c3.145-3.141,5.091-7.484,5.091-12.281c0-4.795-1.946-9.139-5.091-12.283
			c-3.144-3.14-7.484-5.087-12.283-5.087c-1.664,0-3.27,0.249-4.793,0.687l0.014,1.78C61.936,48.561,63.539,48.294,65.207,48.294z"
			/>
		<path style="&st1;" d="M65.207,50.244c3.784,0,7.211,1.533,9.689,4.015c2.484,2.48,4.017,5.905,4.017,9.688
			c0,3.784-1.532,7.208-4.015,9.688l0.69,0.69c-2.633,2.633-6.268,4.272-10.278,4.298l-0.008-0.978
			c-0.033,0-0.063,0.005-0.096,0.005c-3.784,0-7.207-1.534-9.69-4.014c-2.477-2.481-4.01-5.905-4.01-9.69
			c0-3.783,1.533-7.208,4.01-9.688c0.889-0.888,1.901-1.647,3.003-2.266l0.006-1.925c-1.57,0.758-3,1.758-4.218,2.978
			c-2.794,2.79-4.521,6.644-4.521,10.901s1.727,8.112,4.521,10.902c2.788,2.792,6.643,4.519,10.899,4.519
			c4.262,0,8.118-1.727,10.906-4.519c2.787-2.79,4.514-6.645,4.514-10.902s-1.727-8.111-4.514-10.901
			c-2.788-2.792-6.645-4.519-10.906-4.519c-1.669,0-3.271,0.273-4.777,0.764l0.015,1.821C61.93,50.561,63.529,50.244,65.207,50.244z
			"/>
		<path style="&st1;" d="M65.303,77.646l0.008,0.978c4.011-0.025,7.646-1.665,10.278-4.298l-0.69-0.69
			c0,0.001-0.001,0.001-0.002,0.002C72.439,76.096,69.048,77.621,65.303,77.646z"/>
		<path style="&st1;" d="M49.554,63.947c0,4.321,1.753,8.234,4.586,11.068c2.833,2.832,6.747,4.586,11.067,4.586
			c4.328,0,8.24-1.754,11.067-4.586c2.833-2.834,4.586-6.747,4.586-11.068c0-4.32-1.753-8.233-4.586-11.07
			c-2.827-2.83-6.739-4.583-11.067-4.583c-1.668,0-3.271,0.267-4.779,0.75l0.002,0.248c1.506-0.491,3.108-0.764,4.777-0.764
			c4.262,0,8.118,1.727,10.906,4.519c2.787,2.79,4.514,6.644,4.514,10.901S78.9,72.06,76.113,74.85
			c-2.788,2.792-6.645,4.519-10.906,4.519c-4.257,0-8.111-1.727-10.899-4.519c-2.794-2.79-4.521-6.645-4.521-10.902
			s1.964-8.111,4.758-10.901c1.218-1.22,2.455-2.22,4.455-2.978v-0.26c-2,0.774-3.359,1.806-4.623,3.069
			C51.543,55.714,49.554,59.627,49.554,63.947z"/>
		<path style="&st8;" d="M27.6,63.947c0-0.539-0.221-1.027-0.576-1.38c-0.349-0.355-0.84-0.576-1.378-0.576
			c-0.536,0-1.028,0.221-1.384,0.576c-0.349,0.353-0.568,0.841-0.568,1.38c0,0.492,0.189,0.94,0.488,1.284l0.508-1.548
			c0.161-0.508,0.711-0.789,1.223-0.624c0.511,0.166,0.795,0.715,0.627,1.226l-0.518,1.579c0.389-0.076,0.736-0.266,1.002-0.534
			C27.379,64.977,27.6,64.484,27.6,63.947z"/>
		<path d="M19.851,29.921l0.399,2.018l4.691-0.837c0.084-0.488-0.155-1.503-0.324-1.853C24.469,28.945,24.042,29,23.738,29h-8.441
			c-0.646,0-1.572-0.094-1.572,0.977l-0.271,2.742c2.643,1.488,3.643,0.332,4.909-0.28l-0.42-2.134L19.851,29.921z"/>
		<path style="&st18;" d="M58.771,52.713l-0.029,0.178l4.369,9.009C63.112,61.898,63.053,62,63.054,62h0.006
			c0.458-1,1.068-0.864,1.741-0.956l-4.348-8.794l0.231-1.112C60.018,51.386,59,51.663,59,52.006v0.502L58.771,52.713z"/>
		<path style="&st18;" d="M20.187,41.645l3.723,18.823c-0.378,0.188-0.729,0.437-1.024,0.731C22.401,61.684,22.057,62,21.879,63
			h-2.154c0.01,0,0.036,0.491,0.036,0.729c0,0.421-0.034,1.271-0.063,1.271h2.181c0.178,1,0.522,1.262,1.007,1.746
			c0.194,0.195,0.414,0.344,0.646,0.495l0.48-1.479c-0.494-0.447-0.811-1.091-0.811-1.81c0-1.348,1.093-2.444,2.444-2.444l0,0
			c-0.079-0.202-0.104-0.428-0.031-0.649l0.259-0.79c-0.02-0.001-0.037-0.007-0.056-0.008l-4.059-20.509l0.11-0.146l34.225,0.042
			l-27.437,22.04c-0.083-0.102-0.157-0.209-0.249-0.304c-0.205-0.202-0.438-0.372-0.683-0.524l-0.262,0.797
			c-0.07,0.223-0.222,0.39-0.404,0.508c0.618,0.443,1.026,1.164,1.026,1.982c0,1.276-0.984,2.312-2.23,2.42l-0.477,1.458
			c0.09,0.006,0.176,0.027,0.267,0.027c1.074,0,2.052-0.439,2.763-1.145c0.706-0.707,1.139-1.682,1.139-2.76
			c0-0.03-0.009-0.043-0.009-0.074L29.899,63h-0.01L30,62.963V63h-0.086l28.638-23.031l-0.021,7.957
			c0.609-0.255,1.24-0.458,1.883-0.642L60.274,30h-0.591c-0.641,0-1.165-0.476-1.165-1.003c0-0.522,0.515-0.997,1.147-0.997h-1.322
			l0.092,9.245L21.383,37h-0.038l-1.095-5.292l-1.053,0.304c-0.301,0.054-0.573,0.218-0.835,0.345l1.32,6.702l-7.641,10.167
			c0.538,0.361,1.052,0.762,1.544,1.179L20.187,41.645z"/>
		<path style="&st18;" d="M9.83,52.179l-4.064,5.402c0.145,0.856,0.316,1.704,0.51,2.543l5.102-6.777
			C10.89,52.923,10.375,52.532,9.83,52.179z"/>
		<path style="&st18;" d="M16.092,63.729c0-0.238-0.023-0.729-0.035-0.729H7.025c0.199,1,0.413,1,0.641,2h8.363
			C16.066,65,16.092,64.15,16.092,63.729z"/>
		<path style="&st18;" d="M58.519,29.016c0,0.527,0.524,0.957,1.165,0.957h0.591l-0.016-1.908h-0.593
			C59.033,28.073,58.519,28.493,58.519,29.016z"/>
		<path style="&st18;" d="M27.464,61.457l0.262-0.797c-0.545-0.339-1.175-0.551-1.853-0.591l-0.259,0.789
			c-0.073,0.221-0.048,0.445,0.031,0.647c0.528,0,1.015,0.173,1.414,0.459C27.242,61.847,27.394,61.68,27.464,61.457z"/>
		<path style="&st18;" d="M12.553,51.785l1.033-1.373c-0.492-0.417-1.006-0.811-1.544-1.172l-1.034,1.375
			C11.548,50.973,12.063,51.365,12.553,51.785z"/>
		<path style="&st18;" d="M19.725,62.972H18.01c0.011,0.235,0.035,0.466,0.035,0.704c0,0.421-0.029,0.834-0.063,1.246h1.715
			c0.029-0.413,0.063-0.825,0.063-1.246C19.761,63.438,19.734,63.207,19.725,62.972z"/>
		<path style="&st18;" d="M17.777,62.972h-1.721c0.012,0.235,0.035,0.466,0.035,0.704c0,0.421-0.025,0.835-0.063,1.246h1.721
			c0.033-0.412,0.063-0.825,0.063-1.246C17.813,63.438,17.788,63.207,17.777,62.972z"/>
		<path style="&st18;" d="M10.867,50.802L9.83,52.179c0.545,0.353,1.06,0.744,1.547,1.168l1.035-1.374
			C11.922,51.552,11.408,51.16,10.867,50.802z"/>
		<path style="&st18;" d="M12.553,51.785c-0.49-0.42-1.005-0.813-1.545-1.17l-0.141,0.187c0.541,0.357,1.055,0.75,1.545,1.171
			L12.553,51.785z"/>
		<path style="&st18;" d="M18.01,62.972h-0.232c0.011,0.235,0.035,0.466,0.035,0.704c0,0.421-0.029,0.834-0.063,1.246h0.232
			c0.033-0.412,0.063-0.825,0.063-1.246C18.045,63.438,18.021,63.207,18.01,62.972z"/>
		<path style="&st18;" d="M58.525,49.808c0.615-0.292,1.246-0.554,1.902-0.764l-0.014-1.78c-0.643,0.185-1.273,0.395-1.883,0.649
			L58.525,49.808z"/>
		<path style="&st18;" d="M58.52,51.993c0.613-0.344,1.258-0.633,1.925-0.881l-0.015-1.821c-0.657,0.214-1.289,0.479-1.904,0.777
			L58.52,51.993z"/>
		<path style="&st18;" d="M60.43,49.292l-0.002-0.248c-0.656,0.21-1.287,0.473-1.902,0.764v0.26
			C59.141,49.771,59.772,49.506,60.43,49.292z"/>
		<path style="&st18;" d="M23.693,63.947c0-0.539,0.22-1.027,0.568-1.38c0.355-0.355,0.848-0.576,1.384-0.576
			c0.538,0,1.029,0.221,1.378,0.576c0.355,0.353,0.576,0.841,0.576,1.38c0,0.537-0.221,1.029-0.576,1.382
			c-0.266,0.269-0.613,0.458-1.002,0.534l-0.166,0.504c1.246-0.108,2.23-1.144,2.23-2.42c0-0.818-0.408-1.54-1.026-1.982
			c-0.236,0.153-0.53,0.214-0.818,0.12c-0.29-0.093-0.493-0.315-0.596-0.579l0,0c-1.352,0-2.444,1.094-2.444,2.441
			c0,0.719,0.316,1.358,0.811,1.805l0.17-0.521C23.883,64.887,23.693,64.439,23.693,63.947z"/>
		<path style="&st18;" d="M26.241,62.085c0.288,0.094,0.582,0.033,0.818-0.12c-0.399-0.286-0.886-0.459-1.414-0.459
			C25.748,61.77,25.951,61.992,26.241,62.085z"/>
		<path style="&st18;" d="M20.25,31.939l-0.399-2.018l-1.908,0.371l0.42,2.122c0.262-0.127,0.534-0.233,0.835-0.287L20.25,31.939z"
			/>
		<path style="&st8;" d="M64.202,64.387l-0.012-0.03C64.194,64.367,64.197,64.377,64.202,64.387z"/>
		<path style="&st8;" d="M64.001,64.408C64.056,64.525,64,64.635,64,64.725v0.003c1,0.196,1,0.321,1,0.321v-1.102L65.891,65H66
			v-0.275c0-0.197,0.313-0.477,0.313-0.777c0-0.304-0.126-0.578-0.32-0.779c-0.035-0.034-0.084-0.051-0.122-0.081l0.104,0.426
			L64.001,64.408z"/>
		<path style="&st8;" d="M65.207,65.049c0.311,0,0.581-0.125,0.781-0.321l-0.781-0.781V65.049z"/>
		<path style="&st8;" d="M64.431,63.168c-0.2,0.201-0.323,0.476-0.323,0.779c0,0.144,0.031,0.282,0.083,0.41l0.012,0.03
			c0.003,0.008,0.011,0.013,0.015,0.021l1.863-0.894l-0.211-0.426c-0.186-0.141-0.405-0.24-0.662-0.24
			C64.902,62.848,64.631,62.972,64.431,63.168z"/>
		<path d="M67.283,63.947c0,0.574-0.231,1.04-0.607,1.415L67.365,66h0.002c0.549,0,0.893-1.159,0.893-2.001
			c0-0.843-0.344-1.999-0.893-1.999h-0.006c-0.551-1-1.313-0.997-2.154-0.997c-0.139,0-0.271-0.029-0.406-0.011l0.467,0.912
			C66.39,61.937,67.283,62.823,67.283,63.947z"/>
		<path d="M63.137,63.947c0-0.448,0.146-0.861,0.387-1.201l-0.473-0.952c-0.549,0.549-0.891,1.259-0.891,2.1
			c0,0.842,0.342,2.105,0.894,2.105h0.006c0.549,1,1.313,1,2.147,1c0.003,0,0.006,0,0.008,0l-0.008-0.977
			C64.063,66.023,63.137,65.093,63.137,63.947z"/>
		<path d="M67.365,66l-0.689-0.638c-0.375,0.375-0.895,0.633-1.469,0.633l0.008,0.936C66.053,66.929,66.813,67,67.361,66H67.365z"/>
		<path d="M65.207,61.872c0.021,0,0.039,0.005,0.061,0.006l-0.467-0.833C64.128,61.136,63.518,61,63.06,62h-0.006
			c-0.001,0-0.002-0.102-0.003-0.101l0.473,0.899C63.898,62.271,64.511,61.872,65.207,61.872z"/>
		<path d="M64,64.728v-0.003c0-0.089,0.056-0.199,0.001-0.317l0.103,0.002l0.045-0.023c-0.004-0.01,0.02-0.02,0.016-0.03
			l-0.542-1.386l-0.104-0.225c-0.242,0.339-0.488,0.752-0.488,1.201c0,1.146,0.971,2.074,1.971,2.074v-0.973
			C65,65.049,65,64.924,64,64.728z"/>
		<path d="M67.283,63.947c0-1.124-0.894-2.037-2.016-2.069l0.602,1.209c0.038,0.029,0.086,0.047,0.12,0.081
			c0.194,0.201,0.323,0.476,0.323,0.779c0,0.301-0.313,0.58-0.313,0.777V65h-0.006l0.684,0.551
			C67.055,65.176,67.283,64.521,67.283,63.947z"/>
		<path d="M65.207,65.049v0.973c0.574,0,1.094-0.232,1.469-0.606l-0.688-0.687C65.788,64.924,65.518,65.049,65.207,65.049z"/>
		<path d="M64.211,64.41l0.006-0.002c-0.004-0.007-0.012-0.013-0.015-0.021L64.211,64.41z"/>
		<path d="M64.19,64.357c-0.052-0.128-0.083-0.266-0.083-0.41c0-0.304,0.123-0.578,0.323-0.779c0.2-0.196,0.472-0.32,0.776-0.32
			c0.257,0,0.477,0.099,0.662,0.24l-0.602-1.209c-0.021,0-0.04-0.006-0.061-0.006c-0.696,0-1.309,0.347-1.684,0.875l0.112,0.225
			L64.19,64.357z"/>
		<path d="M22.547,70H20v2h2.482c0.111,0,0.26,0.203,0.434,0.259c0.512,0.164,1.061-0.128,1.223-0.639l1.24-3.789
			c-0.679-0.047-1.311-0.372-1.848-0.72L22.547,70z"/>
		<path d="M25.912,63.059c-0.512-0.165-1.062,0.116-1.223,0.624l-0.508,1.548c0.028,0.032,0.051,0.068,0.08,0.098
			c0.355,0.353,0.848,0.572,1.384,0.572c0.128,0,0.254-0.014,0.376-0.038l0.518-1.579C26.707,63.773,26.423,63.225,25.912,63.059z"
			/>
		<path d="M25.646,66.389c-0.632,0-1.2-0.245-1.634-0.637l-0.48,1.469c0.537,0.348,1.169,0.557,1.848,0.604l0.477-1.458
			C25.785,66.374,25.718,66.389,25.646,66.389z"/>
		<path d="M25.855,66.367l0.166-0.504c-0.122,0.024-0.248,0.038-0.376,0.038c-0.536,0-1.028-0.22-1.384-0.572
			c-0.029-0.03-0.052-0.066-0.08-0.098l-0.17,0.521c0.434,0.392,1.002,0.637,1.634,0.637C25.718,66.389,25.785,66.374,25.855,66.367
			z"/>
	</g>
	<circle style="&st6;" cx="50" cy="50" r="44.999"/>
</g>
</svg>
