<?xml version="1.0" encoding="utf-8"?>
<!-- Generator: Adobe Illustrator 16.0.0, SVG Export Plug-In . SVG Version: 6.00 Build 0)  -->
<!DOCTYPE svg PUBLIC "-//W3C//DTD SVG 1.1//EN" "http://www.w3.org/Graphics/SVG/1.1/DTD/svg11.dtd" [
	<!ENTITY st0 "fill:#ACCFF6;">
	<!ENTITY st1 "fill:#AEDD47;">
	<!ENTITY st2 "fill:#E34D7F;">
	<!ENTITY st3 "fill:#1C75BC;">
	<!ENTITY st4 "fill:#52AA52;">
	<!ENTITY st5 "fill:none;stroke:#FFFFFF;stroke-miterlimit:10;">
	
		<!ENTITY st6 "fill:none;stroke:#C779D3;stroke-width:4.252;stroke-linecap:round;stroke-linejoin:round;stroke-dasharray:0.2467,8.539;">
	<!ENTITY st7 "fill:#27AAE1;">
	<!ENTITY st8 "fill-rule:evenodd;clip-rule:evenodd;fill:none;stroke:#3A63C9;stroke-width:0.4496;stroke-miterlimit:10;">
	<!ENTITY st9 "fill:#C2C2C2;">
	<!ENTITY st10 "opacity:0.5;fill-rule:evenodd;clip-rule:evenodd;fill:#FFFFFF;">
	<!ENTITY st11 "fill:#C779D3;">
	<!ENTITY st12 "fill:#FC6738;">
	<!ENTITY st13 "fill:#999999;">
	<!ENTITY st14 "fill:#FCEFB9;">
	<!ENTITY st15 "fill-rule:evenodd;clip-rule:evenodd;">
	<!ENTITY st16 "fill:#FFC7B6;">
	<!ENTITY st17 "fill:#FFEE4D;">
	<!ENTITY st18 "fill:#FFFFFF;">
	<!ENTITY st19 "fill:#CA2F59;">
	<!ENTITY st20 "fill:#68C1C1;">
	<!ENTITY st21 "fill-rule:evenodd;clip-rule:evenodd;fill:#F7A83B;">
	<!ENTITY st22 "fill-rule:evenodd;clip-rule:evenodd;fill:#92B7EF;">
	<!ENTITY st23 "fill-rule:evenodd;clip-rule:evenodd;fill:#FFFFFF;">
	<!ENTITY st24 "fill:none;stroke:#C779D3;stroke-width:4.252;stroke-linecap:round;stroke-linejoin:round;">
	<!ENTITY st25 "fill:#A7A9AC;">
	<!ENTITY st26 "fill:#DBDBDB;">
	<!ENTITY st27 "fill:#414042;">
	<!ENTITY st28 "fill:#419CE0;">
]>
<svg version="1.1" id="圖層_1" xmlns="http://www.w3.org/2000/svg" xmlns:xlink="http://www.w3.org/1999/xlink" x="0px" y="0px"
	 width="100px" height="100px" viewBox="0 0 100 100" style="enable-background:new 0 0 100 100;" xml:space="preserve">
<g>
	<circle style="&st17;" cx="50.001" cy="50" r="49.999"/>
	<circle style="&st5;" cx="50.001" cy="50" r="44.999"/>
	<path style="&st1;" d="M44.777,20.068c-0.004-0.159,0.004-0.236,0.074-0.367c0.055-0.104,0.055-0.168,0.055-0.293
		c0.002-0.276,0.121-0.301,0.295-0.466c0.084-0.081,0.092-0.186,0.188-0.247c0.076-0.049,0.217-0.078,0.197-0.215
		c0.115-0.057,0.311-0.097,0.395-0.183c0.113-0.122,0.084-0.245,0.281-0.27c0.279-0.04,0.406,0.439,0.652,0.184
		c0.221-0.218,0.354-0.415,0.365-0.746c0.006-0.2-0.135-0.228-0.211-0.385c-0.061-0.133-0.014-0.35-0.01-0.495
		c0.27-0.067,0.4-0.153,0.477-0.421c0.066-0.222,0.199-0.36,0.293-0.559c0.088-0.19,0.047-0.468,0.264-0.57
		c0.1-0.048,0.225-0.027,0.33-0.051c0.135-0.029,0.232-0.087,0.336-0.179c0.215-0.187,0.336-0.233,0.619-0.155
		c0.205,0.055,0.467,0.092,0.564,0.313c0.102,0.224,0.061,0.493,0.16,0.714c0.088,0.215,0.244,0.388,0.344,0.595
		c0.115,0.246,0.125,0.512,0.145,0.77c0.025,0.246,0.096,0.401,0.246,0.593c0.195,0.012,0.408,0.137,0.58,0.216
		c0.227,0.108,0.496,0.071,0.611,0.314c0.098,0.213,0.109,0.445,0.299,0.589c0.197,0.148,0.477,0.224,0.719,0.159
		c0.258-0.078,0.387-0.194,0.652-0.044c0.119,0.066,0.525,0.371,0.621,0.31c0.08-0.047,0.029-0.203,0.135-0.262
		c0.09-0.052,0.313-0.042,0.41-0.034c0.137,0.02,0.508,0.115,0.527,0.267c0.016,0.116-0.111,0.258-0.117,0.383
		c-0.01,0.143,0.053,0.248,0.111,0.375c0.107,0.244,0.076,0.604,0.053,0.865c-0.201,0-0.234,0.173-0.248,0.335
		c-0.012,0.123-0.025,0.107-0.086,0.207c-0.049,0.078-0.055,0.142-0.047,0.233c0.016,0.151,0.049,0.301,0.068,0.446
		c0.025,0.211-0.088,0.229-0.215,0.355c-0.121,0.128-0.109,0.271-0.109,0.436c0,0.074-0.016,0.177,0.006,0.246
		c0.02,0.066,0.078,0.099,0.109,0.152c0.039,0.061,0.059,0.133,0.072,0.205c0.029,0.119,0.055,0.101,0.125,0.18
		c0.105,0.122,0.102,0.256,0.178,0.399c0.1,0.184-0.109,0.478-0.201,0.656c-0.115,0.226-0.254,0.434-0.41,0.635
		c-0.174,0.22-0.377,0.383-0.602,0.561c-0.188,0.15-0.238,0.317-0.309,0.544c-0.064,0.209-0.197,0.478-0.051,0.679
		c0.117,0.169,0.385,0.355,0.584,0.415c0.291,0.088,0.641-0.038,0.943-0.015c0.32,0.021,0.5,0.214,0.742,0.412
		c0.152,0.124,0.789,0.436,0.871,0.101c0.17-0.045,0.246,0.054,0.248,0.202c0.004,0.08-0.002,0.151,0.018,0.227
		c0.061,0.229,0.135,0.478,0.211,0.701c0.064,0.186,0.15,0.363,0.162,0.558c0,0.201,0.029,0.396,0.027,0.598
		c-0.004,0.23-0.121,0.282-0.236,0.463c-0.082,0.123-0.135,0.259-0.221,0.385c-0.225,0.321,0.242,0.388,0.457,0.533
		c0.074,0.055,0.15,0.115,0.24,0.133c0.104,0.021,0.223-0.035,0.301,0.056c0.189,0.211-0.02,0.546,0.127,0.781
		c0.074,0.122,0.189,0.184,0.258,0.325c0.049,0.111,0.125,0.25,0.135,0.377c0.014,0.157-0.01,0.346,0.027,0.502
		c0.043,0.181,0.246,0.132,0.346,0.278c0.072,0.104,0.053,0.24,0.121,0.341c0.092,0.139,0.25,0.336,0.387,0.424
		c0.1,0.066,0.232,0.063,0.336,0.122c0.111,0.064,0.189,0.181,0.244,0.288c0.057,0.092,0.068,0.118,0.152,0.166
		c0.064,0.027,0.137,0.03,0.205,0.075c0.123,0.081,0.201,0.28,0.334,0.34c0.115,0.05,0.078-0.021,0.139-0.101
		c0.055-0.077,0.111-0.085,0.193-0.122c0.145,0.15,0.033,0.261-0.047,0.387c-0.098,0.146-0.139,0.263-0.139,0.438
		c0.004,0.165-0.031,0.326-0.031,0.497c0,0.186-0.047,0.354-0.025,0.522c0.145,0.022,0.293-0.007,0.422,0.043
		c0.121,0.043,0.256,0.073,0.367,0.134c0.051,0.341-0.369,0.608-0.576,0.838c-0.186,0.209-0.494,0.746-0.672,0.246
		c-0.199-0.042-0.211,0.273-0.252,0.385c-0.051,0.132-0.131,0.288-0.141,0.426c-0.01,0.238-0.09,0.536-0.24,0.733
		c-0.094,0.12-0.23,0.12-0.309,0.265c-0.098,0.18-0.121,0.384-0.207,0.573c-0.107,0.236-0.291,0.423-0.395,0.661
		c-0.049,0.123-0.105,0.227-0.18,0.328c-0.059,0.078-0.156,0.164-0.164,0.266c-0.01,0.171,0.188,0.382,0.24,0.55
		c0.068,0.21,0.154,0.405,0.277,0.592c0.145,0.226,0.322,0.233,0.574,0.241c0.459,0.023,0.848,0.206,1.264,0.373
		c0.234,0.103,0.49,0.105,0.738,0.163c0.191,0.045,0.357,0.12,0.484,0.262c0.141,0.168,0.297,0.3,0.494,0.385
		c0.232,0.096,0.492-0.01,0.73,0.07c0.164,0.062,0.385,0.201,0.482,0.341c0.121,0.167,0.178,0.388,0.334,0.518
		c0.09,0.077,0.215,0.109,0.307,0.184c0.104,0.086,0.182,0.189,0.285,0.271c0.146,0.118,0.258,0.255,0.414,0.354
		c0.08,0.054,0.18,0.087,0.246,0.149c0.088,0.081,0.113,0.234,0.221,0.296c0.197,0.117,0.504-0.014,0.717,0.013
		c0.227,0.032,0.352,0.304,0.191,0.466c-0.188,0.19-0.336,0.286-0.221,0.582c0.043,0.117,0.117,0.186,0.139,0.313
		c0.021,0.112,0.051,0.227,0.074,0.335c0.021,0.122-0.002,0.239,0.064,0.348c0.107,0.168,0.369,0.29,0.428,0.481
		c0.033,0.118-0.023,0.249,0.012,0.37c0.041,0.138,0.129,0.184,0.041,0.335c-0.139,0.233-0.254,0.35-0.133,0.637
		c0.096,0.221-0.133,0.391-0.332,0.45c-0.162,0.043-0.338,0.243-0.441,0.386c-0.084,0.112-0.041,0.218-0.078,0.346
		c-0.031,0.112-0.158,0.161-0.158,0.281c-0.002,0.13,0.141,0.185,0.047,0.296c-0.1,0.122-0.211,0.07-0.209,0.285
		c0.004,0.094,0.043,0.138,0.082,0.222c0.039,0.089,0.027,0.071,0.012,0.163c-0.012,0.075-0.043,0.066-0.021,0.148
		c0.016,0.063,0.07,0.088,0.057,0.168c-0.02,0.001-0.035,0.006-0.053,0.007c-0.004,0.02-0.008,0.039-0.014,0.057
		c-0.016,0.004-0.074,0.024-0.092,0.024c-0.057-0.099-0.078-0.214-0.217-0.214c-0.154,0.001-0.168,0.176-0.252,0.269
		c-0.092,0.096-0.207,0.123-0.17,0.294c0.023,0.117,0.117,0.132,0.172,0.234c0.07,0.131-0.063,0.236-0.047,0.369
		c0.006,0.095,0.15,0.237,0.047,0.331c-0.041,0.038-0.148,0-0.203,0.036c-0.068,0.033-0.135,0.133-0.205,0.187
		c-0.094,0.07-0.189,0.148-0.281,0.224c-0.117,0.106-0.238,0.211-0.352,0.327c-0.039,0.033-0.105,0.081-0.133,0.126
		c-0.033,0.066-0.008,0.126-0.02,0.196c-0.02,0.095-0.096,0.144-0.121,0.225c-0.023,0.068-0.014,0.178-0.006,0.253
		c0.154,0.008,0.303-0.013,0.447,0.044c0.146,0.058,0.254,0.171,0.377,0.269c0.229,0.184,0.414,0.42,0.564,0.676
		c0.141,0.23,0.164,0.516,0.338,0.73c0.102,0.123,0.191,0.235-0.027,0.296c-0.217,0.06-0.422,0.07-0.482,0.325
		c-0.041,0.196,0.039,0.433-0.064,0.609c-0.141,0.239-0.492,0.279-0.709,0.422c-0.109,0.072-0.207,0.145-0.291,0.244
		c-0.119,0.141-0.09,0.245-0.068,0.426c0.016,0.15,0.041,0.294,0.08,0.436c0.041,0.141,0.109,0.211,0.182,0.332
		c0.039,0.068,0.057,0.153,0.102,0.224c0.072,0.133,0.166,0.22,0.223,0.354c0.059,0.141,0.088,0.281,0.15,0.422
		c0.07,0.153,0.172,0.258,0.266,0.395c0.154,0.225,0.258,0.509,0.523,0.629c0.227,0.097,0.566,0.304,0.635,0.568
		c0.164,0.024,0.332,0.013,0.488,0.059c0.117,0.037,0.184,0.133,0.305,0.184c0.145,0.061,0.299,0.055,0.398,0.165
		c0.1,0.112,0.154,0.271,0.154,0.422c0.119,0.039,0.219-0.077,0.326-0.113c0.105-0.039,0.258-0.054,0.371-0.068
		c0.129-0.011,0.262-0.037,0.322,0.074c0.045,0.087-0.021,0.085,0.094,0.142c0.045,0.021,0.123,0.022,0.172,0.037
		c0.471,0.132,0.873,0.516,1.287,0.773c0.211,0.127,0.406,0.274,0.623,0.392c0.102,0.054,0.203,0.098,0.299,0.153
		c0.109,0.057,0.199,0.151,0.309,0.2c0.104,0.045,0.266,0.024,0.354,0.091c0.096,0.078,0.063,0.255,0.191,0.306
		c0.121,0.058,0.244-0.061,0.367-0.005c0.043,0.018,0.059,0.059,0.117,0.071c0.049,0.02,0.131,0.025,0.186,0.037
		c0.143,0.031,0.285,0.083,0.432,0.066c0.135-0.021,0.225-0.146,0.371-0.084c0.141,0.059,0.197,0.078,0.361,0.063
		c0.156-0.015,0.313-0.008,0.463-0.026c0.074-0.007,0.232-0.001,0.301-0.037c0.131-0.067,0.158-0.265,0.297-0.341
		c0.141-0.082,0.293-0.143,0.432-0.223c0.121-0.061,0.262-0.197,0.395-0.213c0.152-0.029,0.295,0.061,0.43,0.118
		c0.119,0.048,0.252,0.089,0.379,0.132c0.158,0.058,0.328,0.009,0.496,0.036c0.008,0.088-0.16,0.154-0.213,0.226
		c-0.076,0.103-0.104,0.197-0.104,0.326c-0.006,0.211,0.125,0.399,0.121,0.613c-0.006,0.182-0.178,0.332-0.215,0.52
		c-0.098,0.43-0.971,0.223-1.246,0.157c-0.26-0.062-0.51-0.048-0.775-0.057c-0.168-0.005-0.297-0.107-0.451-0.169
		c-0.186-0.075-0.268-0.146-0.459-0.073c-0.217,0.083-0.441,0.176-0.676,0.146c-0.09-0.006-0.168-0.043-0.266-0.025
		c-0.006,0.102-0.166,0.23-0.236,0.304c-0.109,0.114-0.301,0.248-0.469,0.273c-0.236,0.038-0.398-0.175-0.541-0.329
		c-0.174-0.191-0.357-0.353-0.617-0.404c-0.342-0.068-0.684-0.024-1.021,0.062c-0.148,0.035-0.342,0.051-0.459,0.137
		c-0.111,0.08-0.182,0.163-0.281-0.005c-0.076-0.122-0.086-0.142-0.24-0.202c-0.223-0.088-0.439-0.441-0.697-0.319
		c-0.105,0.05-0.26,0.138-0.32,0.248c-0.045,0.09-0.031,0.211-0.057,0.313c-0.014,0.054-0.063,0.111-0.072,0.166
		c-0.012,0.037,0.016,0.065,0.008,0.103c-0.008,0.081-0.039,0.152-0.08,0.228c-0.094,0.178-0.23,0.314-0.32,0.492
		c-0.029,0.054-0.061,0.101-0.117,0.127c-0.057,0.028-0.127,0-0.184,0.028c-0.135,0.052-0.201,0.212-0.334,0.273
		c-0.064,0.032-0.137,0.063-0.213,0.098c-0.258,0.116-0.533,0.296-0.836,0.259c-0.188-0.021-0.297-0.259-0.492-0.253
		c-0.094,0-0.209,0.021-0.309,0.038c-0.109,0.013-0.236,0.013-0.342,0.016c-0.145,0.015-0.188-0.086-0.262-0.191
		c-0.051-0.075-0.061-0.184-0.131-0.244c-0.154-0.125-0.43,0.089-0.59,0.118c-0.176,0.03-0.273-0.082-0.418-0.153
		c-0.193-0.09-0.367-0.085-0.547,0.03c-0.191,0.114-0.342,0.106-0.563,0.09c-0.262-0.009-0.527-0.003-0.785,0.004
		c-0.174,0.003-0.293,0.054-0.357,0.222c-0.078,0.182-0.125,0.369-0.188,0.554c-0.018,0.063-0.051,0.113-0.063,0.169
		c-0.023,0.071-0.008,0.156-0.063,0.214c-0.057,0.062-0.184,0.049-0.256,0.065c-0.182,0.043-0.377,0.035-0.563,0.035
		c-0.111,0-0.453-0.056-0.5,0.076c-0.021,0.06,0.008,0.19,0.008,0.258c0,0.303-0.318,0.515-0.383,0.797
		c-0.033,0.146-0.025,0.293-0.029,0.444c0,0.159-0.07,0.278-0.121,0.425c-0.045,0.133-0.033,0.284-0.033,0.424
		c0,0.144,0.018,0.295,0.051,0.432c0.055,0.208,0.174,0.163,0.346,0.157c0.172-0.007,0.23,0.111,0.316,0.234
		c0.08,0.119,0.197,0.201,0.291,0.312c0.094,0.115,0.158,0.239,0.229,0.365c0.137,0.228,0.133,0.537,0.07,0.787
		c-0.039,0.182-0.178,0.317-0.234,0.501c-0.039,0.138-0.059,0.189-0.191,0.268c-0.123,0.069-0.178,0.139-0.178,0.292
		c0,0.081,0.021,0.128,0.047,0.203c0.025,0.062,0.023,0.108,0.035,0.175c0.1,0.039,0.172,0.085,0.189,0.196
		c0.014,0.112-0.037,0.193-0.037,0.299c-0.004,0.114,0.141,0.124,0.223,0.173c0.107,0.053,0.209,0.112,0.318,0.156
		c0.135,0.052,0.084,0.113,0.096,0.242c0.004,0.104,0.076,0.173,0.08,0.283c0.002,0.107,0.023,0.233-0.07,0.314
		c-0.076,0.063-0.197,0.091-0.287,0.134c-0.146,0.069-0.197,0.237-0.16,0.39c0.021,0.099,0.059,0.178,0.059,0.286
		c0,0.104-0.008,0.21,0.01,0.312c0.012,0.049,0.047,0.085,0.059,0.14c0.012,0.048,0.004,0.112,0,0.164
		c0,0.11,0.004,0.21,0.016,0.316c0.012,0.066,0.033,0.098,0.055,0.148c0.016,0.05,0.008,0.104,0.008,0.154
		c0.004,0.108-0.035,0.188-0.105,0.274c-0.051,0.068-0.182,0.153-0.203,0.229c-0.033,0.131,0.063,0.234,0.104,0.346
		c0.016,0.053,0.004,0.113,0.033,0.162c0.035,0.069,0.15,0.135,0.209,0.187c0.186,0.155,0.379,0.075,0.598,0.125
		c0.217,0.049,0.365,0.257,0.545,0.375c0.182,0.121,0.422,0.121,0.631,0.049c0.188-0.063,0.551-0.24,0.643,0.042
		c0.07,0.005,0.148,0,0.211-0.029c0.074-0.03,0.123-0.076,0.195-0.013c0.049,0.042,0.049,0.118,0.09,0.166
		c0.043,0.056,0.105,0.076,0.174,0.096c0.064,0.009,0.119,0.045,0.18,0.065c0.078,0.023,0.164-0.013,0.24,0.035
		c0.066,0.032,0.09,0.115,0.143,0.167c0.055,0.063,0.145,0.081,0.211,0.148c0.053,0.049,0.098,0.117,0.158,0.167
		c0.146,0.131,0.4,0.156,0.59,0.187c0.125,0.024,0.25,0.024,0.33,0.144c0.084,0.119,0.059,0.246,0.016,0.377
		c-0.045,0.143-0.016,0.287-0.051,0.428c-0.037,0.14-0.215,0.187-0.338,0.227c-0.16,0.054-0.164-0.02-0.283-0.106
		c-0.141-0.105-0.283,0.021-0.389,0.125c-0.219,0.207-0.576,0.076-0.799,0.281c-0.076,0.074-0.045,0.146-0.162,0.159
		c-0.074,0.008-0.154-0.015-0.23,0.012c-0.078,0.031-0.152,0.092-0.232,0.137c-0.125,0.072-0.256,0.146-0.322,0.279
		c-0.055,0.104-0.102,0.17-0.223,0.208c-0.223,0.066-0.469-0.042-0.688,0.024c-0.133,0.045-0.273,0.095-0.396,0.156
		c-0.115,0.058-0.305,0.139-0.385,0.248c-0.078,0.117-0.172,0.217-0.332,0.198c-0.066-0.012-0.736-0.178-0.756-0.107
		c-0.107,0.392-0.455,0.063-0.66-0.016c-0.105-0.04-0.221,0.005-0.289-0.108c-0.072-0.115-0.045-0.253-0.115-0.364
		c-0.059-0.092-0.098-0.213-0.176-0.292c-0.084-0.088-0.236-0.036-0.342-0.043s-0.16-0.086-0.262-0.107
		c-0.051-0.015-0.127-0.026-0.178-0.002c-0.047,0.021-0.07,0.083-0.111,0.111c-0.223,0.167-0.51,0.094-0.762,0.141
		c-0.113,0.026-0.244,0.068-0.336-0.025c-0.041-0.038-0.041-0.099-0.078-0.141c-0.027-0.034-0.104-0.069-0.145-0.084
		c-0.238-0.096-0.52-0.098-0.771-0.146c-0.121-0.024-0.223-0.041-0.332-0.104c-0.117-0.063-0.195-0.185-0.316-0.245
		c-0.223-0.108-0.445-0.042-0.678-0.083c-0.08-0.018-0.066-0.044-0.121-0.083c-0.041-0.03-0.113-0.041-0.16-0.047
		c-0.096-0.014-0.252-0.021-0.344,0.021c-0.008,0.177-0.016,0.304-0.111,0.463c-0.07,0.127-0.168,0.259-0.299,0.314
		c-0.156,0.063-0.301,0.029-0.453-0.006c-0.09-0.014-0.385-0.133-0.424-0.003c-0.078,0.011-0.18,0.009-0.262,0
		c-0.098-0.011-0.205-0.015-0.309-0.015c-0.172,0-0.393,0.061-0.551,0c-0.092-0.04-0.152-0.062-0.252-0.081
		c-0.088-0.01-0.18-0.026-0.273-0.038c-0.229-0.03-0.502,0.067-0.664-0.149c-0.047-0.063-0.078-0.126-0.131-0.182
		c-0.053-0.047-0.063-0.093-0.092-0.154c-0.031-0.063-0.082-0.112-0.115-0.175c-0.025-0.046-0.049-0.091-0.076-0.13
		c-0.061-0.09-0.127-0.185-0.146-0.295c-0.012-0.099,0.02-0.193-0.016-0.29c-0.035-0.096-0.082-0.188-0.119-0.283
		c-0.039-0.097-0.057-0.194-0.082-0.297c-0.033-0.129-0.004-0.186-0.113-0.271c-0.094-0.062-0.18-0.133-0.27-0.201
		c-0.08-0.065-0.039-0.175-0.07-0.264c-0.035-0.111-0.084-0.224-0.127-0.336c-0.027-0.074-0.02-0.158-0.051-0.231
		c-0.033-0.072-0.072-0.054-0.141-0.098c-0.08-0.045-0.158-0.105-0.219-0.177c-0.064-0.075-0.074-0.163-0.117-0.246
		c-0.07-0.124-0.092-0.307-0.092-0.463c0-0.191,0.037-0.374,0.049-0.563c0.014-0.272,0.059-0.51,0.107-0.771
		c0.047-0.261-0.072-0.526-0.324-0.64c-0.061-0.03-0.203-0.066-0.262-0.005c-0.031,0.031-0.033,0.112-0.066,0.157
		c-0.078,0.119-0.207,0.19-0.285,0.302c-0.049,0.076-0.076,0.177-0.148,0.231c-0.074,0.059-0.166,0.063-0.254,0.084
		c-0.189,0.039-0.365,0.052-0.561,0.052c-0.117,0-0.26,0-0.369-0.052c-0.088-0.044-0.207-0.189-0.209-0.291
		c-0.006-0.149,0.023-0.332,0.053-0.476c0.031-0.126,0.104-0.22,0.057-0.354c-0.092-0.271-0.492-0.176-0.695-0.139
		c-0.275,0.045-0.533,0.074-0.805-0.002c-0.223-0.058-0.52-0.156-0.59-0.401s0.102-0.49,0.111-0.734
		c0.008-0.233-0.084-0.555-0.254-0.728c-0.205-0.203-0.41-0.029-0.463,0.205c-0.025,0.125-0.035,0.255-0.088,0.377
		c-0.066,0.148-0.166,0.278-0.277,0.396c-0.031,0.038-0.15,0.186-0.217,0.154c-0.051-0.027-0.055-0.217-0.07-0.27
		c-0.061-0.225-0.246-0.428-0.213-0.672c0.049-0.283,0.104-0.486-0.004-0.769c-0.096-0.249-0.125-0.481-0.125-0.752
		c0.006-0.267,0.029-0.457,0.273-0.598c0.154-0.088,0.303-0.164,0.441-0.268c0.137-0.102,0.289-0.192,0.172-0.364
		c-0.137-0.192-0.236-0.403-0.338-0.616c-0.051-0.106-0.127-0.215-0.143-0.335c-0.012-0.11,0.016-0.228,0.006-0.336
		c-0.016-0.168-0.086-0.316-0.227-0.41c-0.086-0.05-0.16-0.111-0.24-0.165c-0.096-0.061-0.201-0.051-0.301-0.08
		c-0.129-0.031-0.227-0.112-0.346-0.166c-0.082-0.028-0.148-0.038-0.223-0.096c-0.184-0.141-0.35-0.313-0.479-0.498
		c-0.127-0.193-0.254-0.383-0.379-0.579c-0.104-0.154-0.193-0.324-0.32-0.462c-0.078-0.084-0.135-0.181-0.211-0.267
		c-0.215-0.229-0.447-0.471-0.701-0.664c-0.203-0.153-0.43-0.281-0.668-0.384c-0.5-0.216-1.059-0.254-1.6-0.192
		c-0.119,0.014-0.24,0.021-0.355,0.06c-0.27,0.098-0.43,0.406-0.602,0.62c-0.201,0.252-0.439,0.446-0.568,0.747
		c-0.059,0.131-0.15,0.224-0.254,0.321c-0.111,0.107-0.199,0.201-0.328,0.29c-0.068,0.047-0.121,0.108-0.186,0.167
		c-0.066,0.06-0.131,0.084-0.188,0.164c-0.063,0.081-0.139,0.152-0.211,0.223c-0.164,0.158-0.332,0.319-0.504,0.471
		c-0.141,0.12-0.291,0.234-0.457,0.325c-0.121,0.066-0.248,0.101-0.375,0.145c-0.113,0.047-0.182,0.024-0.297-0.004
		c-0.09-0.024-0.17-0.054-0.25-0.096c-0.24-0.125-0.459-0.257-0.607-0.487c-0.055-0.099-0.105-0.192-0.148-0.291
		c-0.051-0.117-0.102-0.235-0.15-0.352c-0.049-0.11-0.037-0.18-0.045-0.29c-0.018-0.267-0.039-0.516-0.1-0.778
		c-0.031-0.142-0.049-0.289-0.055-0.432c-0.01-0.131-0.029-0.287-0.01-0.414c0.021-0.094,0.064-0.177,0.074-0.277
		c0.018-0.149,0.031-0.303,0.012-0.451c-0.012-0.075-0.057-0.167-0.086-0.242c-0.041-0.106-0.043-0.234-0.094-0.354
		c-0.051-0.128-0.121-0.251-0.189-0.375c-0.098-0.177-0.182-0.362-0.273-0.542c-0.154-0.316-0.266-0.66-0.414-0.985
		c-0.135-0.291-0.328-0.627-0.344-0.954c-0.008-0.144,0.006-0.301,0.047-0.441c0.041-0.143,0.133-0.265,0.209-0.398
		c0.174-0.31,0.342-0.642,0.596-0.898c0.008,0.142,0,0.272-0.035,0.41c-0.033,0.125-0.082,0.265-0.051,0.398
		c0.063,0.251,0.438,0.276,0.645,0.297c0.105,0.015,0.262,0.035,0.316-0.081c0.055-0.112-0.016-0.256,0.014-0.376
		c0.031-0.152,0.182-0.213,0.314-0.259c0.164-0.062,0.324-0.126,0.473-0.223c0.084-0.047,0.078-0.12,0.137-0.189
		c0.047-0.053,0.107-0.103,0.16-0.149c0.086-0.087,0.119-0.193,0.105-0.31c-0.074-0.039-0.17-0.025-0.25-0.025
		c-0.213,0-0.418,0.035-0.631,0.057c-0.217,0.023-0.439,0.043-0.643,0.127c-0.258,0.105-0.396,0.432-0.287,0.696
		c0.115,0.274,0.508,0.224,0.752,0.209c0.318-0.016,0.619-0.074,0.924-0.169c0.266-0.084,0.506-0.236,0.727-0.403
		c0.109-0.085,0.221-0.174,0.326-0.269c0.096-0.086,0.125-0.179,0.199-0.272c0.07-0.083,0.152-0.151,0.213-0.237
		c0.105-0.132,0.215-0.245,0.328-0.363c0.131-0.141,0.256-0.297,0.387-0.44c0.16-0.165,0.297-0.332,0.418-0.53
		c0.053-0.091,0.09-0.154,0.113-0.257c0.041-0.175,0.057-0.364,0.141-0.528c0.084-0.156,0.207-0.296,0.264-0.466
		c0.037-0.137,0.049-0.256,0.07-0.387c0.033-0.179,0.184-0.327,0.18-0.515c0-0.078-0.014-0.122,0.025-0.19
		c0.049-0.087,0.107-0.148,0.123-0.249c0.021-0.147,0.078-0.273,0.078-0.435c0.006-0.379,0.113-0.755,0.1-1.137
		c-0.01-0.257,0.133-0.486,0.133-0.732c0-0.094-0.078-0.189,0-0.281c0-0.105-0.023-0.196,0.014-0.292
		c0.039-0.086,0.057-0.177,0.07-0.264c0.029-0.222,0-0.459,0-0.68c0-0.178-0.074-0.379-0.117-0.556
		c-0.037-0.146-0.051-0.299-0.059-0.449c-0.002-0.117,0.025-0.213-0.002-0.326c-0.094-0.405-0.143-0.801-0.184-1.216
		c-0.021-0.19-0.143-0.34-0.197-0.521c-0.068-0.211-0.125-0.414-0.248-0.604c-0.084-0.121-0.156-0.25-0.234-0.38
		c-0.172-0.282-0.422-0.517-0.605-0.795c-0.131-0.201-0.256-0.402-0.418-0.579c-0.221-0.243-0.484-0.443-0.717-0.674
		c-0.086-0.084-0.189-0.145-0.27-0.229c-0.125-0.131-0.246-0.241-0.385-0.351c-0.117-0.086-0.234-0.185-0.346-0.278
		c-0.119-0.099-0.252-0.181-0.367-0.283c-0.137-0.112-0.266-0.234-0.398-0.358c-0.156-0.14-0.334-0.252-0.49-0.399
		c-0.381-0.335-0.76-0.659-1.217-0.885c-0.592-0.286-1.139-0.63-1.773-0.835c-0.178-0.053-0.361-0.104-0.549-0.143
		c-0.141-0.024-0.279-0.049-0.416-0.096c-0.152-0.054-0.293-0.132-0.449-0.177c-0.301-0.094-0.637,0.03-0.924-0.122
		c-0.146-0.069-0.27-0.188-0.406-0.281c-0.127-0.091-0.27-0.148-0.408-0.224c-0.309-0.169-0.42-0.434-0.363-0.775
		c0.061-0.362,0.041-0.663-0.145-0.996c-0.141-0.249-0.287-0.494-0.414-0.751c-0.078-0.156-0.143-0.31-0.172-0.484
		c-0.029-0.179-0.029-0.363-0.068-0.543c-0.066-0.28-0.275-0.647,0.037-0.855c0.146-0.101,0.326-0.072,0.484-0.122
		c0.082-0.03,0.16-0.074,0.227-0.126c0.082-0.076,0.078-0.156,0.102-0.261c0.039-0.167-0.02-0.323-0.076-0.479
		c-0.119-0.329-0.076-0.664-0.139-1.002c-0.012-0.063-0.051-0.177-0.02-0.237c0.025-0.067,0.158-0.15,0.215-0.193
		c0.104-0.086,0.217-0.159,0.316-0.249c0.08-0.075,0.143-0.166,0.213-0.247c0.047-0.053,0.1-0.093,0.148-0.143
		c0.07-0.075,0.154-0.128,0.225-0.202c0.063-0.063,0.119-0.152,0.146-0.235c0.014-0.038,0-0.104,0.021-0.139
		c0.025-0.027,0.09-0.027,0.119-0.037c0.188-0.045,0.289-0.191,0.418-0.33c0.064-0.067,0.162-0.121,0.215-0.192
		c0.057-0.078,0.064-0.19,0.076-0.282c0.012-0.071,0.025-0.154,0.098-0.206c0.078-0.057,0.174-0.098,0.254-0.157
		c0.09-0.068,0.139-0.146,0.221-0.219c0.074-0.061,0.143-0.126,0.201-0.197c0.109-0.123,0.256-0.201,0.297-0.365
		c0.02-0.077,0.02-0.187,0.072-0.25c0.061-0.065,0.164-0.139,0.236-0.192c0.172-0.134,0.344-0.279,0.506-0.419
		c0.186-0.162,0.346-0.345,0.523-0.505c0.145-0.132,0.215-0.294,0.299-0.47c0.068-0.146,0.203-0.358,0.371-0.402
		c0.082-0.02,0.203-0.02,0.291-0.02c0.1-0.005,0.193-0.003,0.291-0.003c0.082,0,0.213,0.029,0.273-0.037
		c0.055-0.07,0.031-0.188,0.051-0.269c0.023-0.101,0.023-0.214,0.072-0.307c0.043-0.078,0.115-0.145,0.162-0.225
		c0.039-0.053,0.064-0.11,0.086-0.177c0.041-0.103,0.1-0.205,0.156-0.308c0.102-0.17,0.195-0.362,0.32-0.518
		c0.131-0.163,0.229-0.362,0.322-0.554c0.041-0.093,0.033-0.18,0.08-0.273c0.045-0.087,0.117-0.148,0.188-0.233
		c0.125-0.142,0.291-0.188,0.441-0.3c0.072-0.05,0.102-0.146,0.172-0.211c0.066-0.055,0.137-0.106,0.207-0.156
		c0.313-0.213,0.639-0.355,0.838-0.697c0.059-0.093,0.039-0.216,0.053-0.317c0.018-0.101,0.053-0.209,0.105-0.306
		c0.117-0.199,0.303-0.329,0.518-0.415c0.016-0.104,0.002-0.231,0.002-0.338c0-0.056,0.004-0.116-0.01-0.164
		c-0.014-0.059-0.043-0.064,0.01-0.128c0.076-0.089,0.148-0.107,0.188-0.225c0.039-0.107,0.068-0.207,0.088-0.324
		c0.18-0.013,0.355-0.021,0.535,0.017c0.197,0.043,0.119,0.281,0.141,0.425c0.043,0.248,0.291,0.103,0.445,0.187
		c0.043,0.027,0.076,0.076,0.115,0.11c0.066,0.066,0.141,0.112,0.227,0.162c0.135,0.071,0.252,0.179,0.412,0.2
		c0.074,0.009,0.145-0.003,0.217,0.009c0.117,0.021,0.141,0.005,0.213-0.082c0.096-0.121,0.178-0.271,0.32-0.346
		c0.121-0.063,0.33-0.03,0.461,0.002c0.125,0.037,0.24,0.105,0.369,0.143c0.141,0.054,0.281,0.104,0.424,0.157
		c0.08,0.029,0.156,0.057,0.234,0.08c0.07,0.021,0.123,0.072,0.193,0.102c0.076,0.03,0.146,0.029,0.195-0.035
		c0.088-0.099,0.113-0.158,0.117-0.285c0.004-0.106,0.008-0.224,0.059-0.317c0.027-0.056,0.082-0.093,0.107-0.151
		c0.039-0.071,0.008-0.142,0.029-0.221c0.039-0.136-0.073-0.237-0.011-0.355C39.245,24.859,39,24.704,39,24.566
		c0-0.071,0-0.145,0-0.213c0-0.08,0.224-0.101,0.192-0.161c-0.029-0.063,0.104-0.122,0.116-0.189
		c0.016-0.104,0.063-0.131,0.015-0.226c-0.07-0.12-0.061-0.264,0.047-0.358c0.119-0.104,0.256-0.194,0.373-0.296
		c0.139-0.132,0.266-0.273,0.396-0.415c0.125-0.128,0.226-0.309,0.411-0.345c0.086-0.021,0.176,0,0.262-0.014
		c0.17-0.021,0.344-0.021,0.518-0.036c0.107-0.01,0.195-0.045,0.295-0.07c0.115-0.025,0.232-0.021,0.346-0.011
		c0.139,0.017,0.311,0.017,0.438-0.045c0.271-0.132,0.369-0.396,0.49-0.645c0.133-0.277,0.545-0.247,0.797-0.287
		c0.139-0.021,0.266-0.041,0.4-0.046c0.195-0.013,0.24-0.121,0.344-0.265c0.035-0.047,0.08-0.092,0.123-0.13
		c0.051-0.046,0.117-0.065,0.156-0.116C44.875,20.521,44.777,20.271,44.777,20.068z"/>
	<g>
		<g>
			<path style="&st24;" d="M76.861,68.981c-0.026,0.03-0.053,0.061-0.079,0.092"/>
			<path style="&st6;" d="M70.033,74.245c-5.601,3.177-12.948,5.692-19.809,7.413c-17.193,4.314-22.914-1.791-33.168-18.672
				c-9.878-16.263,1.875-19.01,28.771-18.826"/>
			<path style="&st24;" d="M50.102,44.211c0.041,0,0.082,0.001,0.123,0.002"/>
		</g>
	</g>
	<g>
		<path style="&st12;" d="M57.938,72.142L57.938,72.142c-1.717,2.538-4.197,4.533-7.123,5.671c-0.207,0.095-3.424,1.553-3.572,1.729
			l-2.016,3.454l-2.262-3.947c-0.176-0.199-3.145-1.19-3.375-1.257c-2.896-1.138-5.357-3.123-7.074-5.649
			c-1.693-2.47-2.689-5.462-2.689-8.686c0-4.269,1.727-8.093,4.51-10.878c2.785-2.781,6.645-4.523,10.891-4.523
			c4.242,0,8.109,1.742,10.891,4.523c2.781,2.785,4.512,6.609,4.512,10.878C60.629,66.68,59.643,69.672,57.938,72.142L57.938,72.142
			z"/>
		<path style="&st18;" d="M45.227,50.419L45.227,50.419c-3.596,0-6.836,1.464-9.219,3.814c-2.354,2.355-3.818,5.621-3.818,9.223
			c0,3.541,1.426,6.796,3.75,9.137l0.068,0.079c2.383,2.354,5.623,3.823,9.219,3.823c3.586,0,6.865-1.47,9.217-3.823l0,0
			c2.354-2.363,3.82-5.62,3.82-9.216c0-3.602-1.467-6.867-3.82-9.223C52.092,51.883,48.822,50.419,45.227,50.419L45.227,50.419z"/>
		<path style="&st0;" d="M52.545,70.771L52.545,70.771c-1.863,1.879-4.465,3.045-7.32,3.045c-2.863,0-5.447-1.166-7.311-3.045
			l-0.07-0.051c-1.838-1.875-2.977-4.448-2.977-7.262c0-2.844,1.166-5.443,3.047-7.318c1.863-1.87,4.447-3.057,7.311-3.057
			c2.855,0,5.457,1.187,7.32,3.057c1.877,1.875,3.025,4.475,3.025,7.318C55.57,66.323,54.422,68.923,52.545,70.771L52.545,70.771z"
			/>
	</g>
	<g>
		<path style="&st12;" d="M89.574,58.128L89.574,58.128c-1.719,2.538-4.199,4.533-7.123,5.671c-0.209,0.095-3.426,1.553-3.574,1.729
			l-2.016,3.454L74.6,65.034c-0.174-0.199-3.145-1.19-3.375-1.257c-2.896-1.138-5.357-3.123-7.074-5.649
			c-1.693-2.47-2.689-5.462-2.689-8.686c0-4.269,1.727-8.093,4.512-10.878c2.783-2.781,6.643-4.523,10.889-4.523
			c4.242,0,8.109,1.742,10.891,4.523c2.781,2.785,4.512,6.609,4.512,10.878C92.264,52.666,91.277,55.658,89.574,58.128
			L89.574,58.128z"/>
		<path style="&st18;" d="M76.861,36.405L76.861,36.405c-3.596,0-6.836,1.464-9.219,3.814c-2.354,2.355-3.818,5.621-3.818,9.223
			c0,3.541,1.426,6.796,3.75,9.137l0.068,0.079c2.383,2.354,5.623,3.823,9.219,3.823c3.586,0,6.865-1.47,9.217-3.823l0,0
			c2.354-2.363,3.82-5.62,3.82-9.216c0-3.602-1.467-6.867-3.82-9.223C83.727,37.869,80.459,36.405,76.861,36.405L76.861,36.405z"/>
		<path style="&st0;" d="M84.18,56.757L84.18,56.757c-1.863,1.879-4.465,3.045-7.32,3.045c-2.863,0-5.447-1.166-7.311-3.045
			l-0.07-0.051c-1.836-1.875-2.975-4.448-2.975-7.262c0-2.844,1.164-5.443,3.045-7.318c1.863-1.87,4.447-3.057,7.311-3.057
			c2.855,0,5.457,1.187,7.32,3.057c1.877,1.875,3.025,4.475,3.025,7.318C87.205,52.31,86.057,54.909,84.18,56.757L84.18,56.757z"/>
	</g>
	<g>
		<path style="&st12;" d="M62.938,33.359L62.938,33.359c-1.719,2.538-4.199,4.533-7.123,5.671c-0.209,0.095-3.426,1.553-3.574,1.729
			l-2.016,3.454l-2.262-3.947c-0.174-0.199-3.145-1.19-3.375-1.257c-2.896-1.138-5.357-3.123-7.074-5.649
			c-1.693-2.47-2.689-5.462-2.689-8.686c0-4.269,1.727-8.093,4.512-10.878c2.783-2.781,6.643-4.523,10.889-4.523
			c4.242,0,8.109,1.742,10.891,4.523c2.781,2.785,4.512,6.609,4.512,10.878C65.627,27.897,64.641,30.89,62.938,33.359L62.938,33.359
			z"/>
		<path style="&st18;" d="M50.225,11.637L50.225,11.637c-3.596,0-6.836,1.464-9.219,3.814c-2.354,2.355-3.818,5.621-3.818,9.223
			c0,3.541,1.426,6.796,3.75,9.137l0.068,0.079c2.383,2.354,5.623,3.823,9.219,3.823c3.586,0,6.865-1.47,9.217-3.823l0,0
			c2.354-2.363,3.82-5.62,3.82-9.216c0-3.602-1.467-6.867-3.82-9.223C57.09,13.101,53.822,11.637,50.225,11.637L50.225,11.637z"/>
		<path style="&st0;" d="M57.543,31.988L57.543,31.988c-1.863,1.879-4.465,3.045-7.32,3.045c-2.863,0-5.447-1.166-7.311-3.045
			l-0.07-0.051c-1.836-1.875-2.975-4.448-2.975-7.262c0-2.844,1.164-5.443,3.045-7.318c1.863-1.87,4.447-3.057,7.311-3.057
			c2.855,0,5.457,1.187,7.32,3.057c1.877,1.875,3.025,4.475,3.025,7.318C60.568,27.541,59.42,30.141,57.543,31.988L57.543,31.988z"
			/>
	</g>
	<g>
		<g>
			<path style="&st14;" d="M55.197,29.344c0,0.896-2.336,2.415-5.215,2.415s-5.215-1.52-5.215-2.415c0-2.438,4.02-2.438,4.02-3.512
				c0-0.882,0.654-0.917,1.195-0.917c0.535,0,1.18,0.035,1.18,0.912C51.162,26.905,55.197,26.905,55.197,29.344z"/>
			<ellipse style="&st14;" cx="49.982" cy="22.772" rx="3.066" ry="3.158"/>
			<g>
				<path style="&st22;" d="M48.361,15.988c0,0-0.629,0.256-0.963,0.752c-0.219,0.327-0.404,0.852-0.404,0.852
					s-0.691,0.66-0.949,1.37c-0.256,0.708-0.639,2.645,0.744,3.824c0,0,0.123,0.092,0.205-0.117c0.082-0.21,0.256-1.89,1.816-2.762
					c1.563-0.874,3.273,0.65,3.658,1.329c0.414,0.735,0.414,1.267,0.414,1.267s0.127,0.236,0.383,0
					c0.258-0.235,1.395-1.354,0.693-2.691c-0.41-0.779-0.615-0.921-0.615-0.921s-0.066-1.713-1.563-2.385
					c-0.998-0.449-1.689-0.236-1.689-0.236S49.59,15.564,48.361,15.988z"/>
				<g>
					<path style="&st23;" d="M46.898,22.609c-0.322-0.324-0.52-0.709-0.65-1.125c-0.551-1.766,0.297-3.574,2.072-4.418
						c0.809-0.386,1.656-0.624,2.582-0.533c0.73,0.073,1.299,0.395,1.701,0.961c0.262,0.368,0.43,0.771,0.512,1.244
						c-0.271,0-0.523-0.005-0.771,0.001c-1.201,0.029-2.359,0.237-3.418,0.783c-1.006,0.515-1.734,1.248-1.967,2.321
						C46.906,22.091,46.916,22.348,46.898,22.609z"/>
					<path style="&st23;" d="M52.979,22.451c0.008-0.777-0.248-1.446-0.818-1.999c-0.563-0.548-1.262-0.828-2.09-0.899
						c0.139-0.04,0.277-0.086,0.418-0.119c0.873-0.211,1.764-0.278,2.664-0.248c0.072,0.003,0.168,0.037,0.215,0.085
						c0.801,0.822,0.654,2.435-0.279,3.131C53.066,22.416,53.039,22.426,52.979,22.451z"/>
					<path style="&st23;" d="M49.67,16.078c-0.645,0.237-1.342,0.493-2.004,0.74C48.215,16.315,48.916,16.069,49.67,16.078z"/>
				</g>
			</g>
		</g>
		<path style="&st28;" d="M50.193,32.711c-4.949,0-9.359-1.269-9.439-2.715c-0.059-1.039,1.297-1.546,2.771-1.939
			c0.123-0.034,0.25,0.041,0.283,0.164s-0.041,0.25-0.164,0.281c-1.713,0.457-2.463,0.909-2.43,1.468
			c0.051,0.917,3.844,2.278,8.979,2.278c5.188,0,8.785-1.371,8.984-2.313c0.121-0.586-0.717-1.102-2.496-1.534
			c-0.125-0.03-0.201-0.155-0.17-0.28c0.031-0.123,0.154-0.199,0.279-0.169c1.338,0.326,3.088,0.896,2.838,2.078
			C59.324,31.482,55.002,32.711,50.193,32.711z"/>
		<path style="&st28;" d="M45.008,31.264c-0.016,0-0.033-0.003-0.051-0.007c-0.857-0.244-2.297-0.77-2.297-1.543
			c0-0.573,0.752-0.836,1.816-1.144c0.098-0.028,0.201,0.029,0.229,0.127c0.029,0.099-0.027,0.201-0.125,0.229
			c-0.818,0.236-1.551,0.474-1.551,0.787c0,0.282,0.531,0.762,2.029,1.187c0.098,0.029,0.156,0.131,0.127,0.229
			C45.162,31.211,45.088,31.264,45.008,31.264z"/>
		<path style="&st28;" d="M54.953,31.394c-0.084,0-0.16-0.057-0.18-0.142c-0.023-0.099,0.037-0.199,0.137-0.224
			c1.742-0.416,2.521-0.959,2.521-1.314c0-0.352-0.891-0.625-1.855-0.869c-0.1-0.025-0.158-0.126-0.135-0.226
			c0.025-0.099,0.127-0.161,0.227-0.134c1.209,0.306,2.135,0.593,2.135,1.229c0,0.906-1.963,1.475-2.807,1.675
			C54.982,31.393,54.969,31.394,54.953,31.394z"/>
		<path style="&st8;" d="M54.693,27.235"/>
		<path style="&st28;" d="M42.768,25.998c-0.074,0-0.148-0.034-0.199-0.097c-0.088-0.11-0.072-0.272,0.039-0.36
			c0.012-0.011,0.354-0.315,0.322-1.115c-0.014-0.336-0.246-0.527-0.625-0.811c-0.381-0.285-0.852-0.64-0.967-1.306
			c-0.211-1.226,1.867-2.68,2.105-2.841c0.117-0.08,0.277-0.049,0.357,0.067c0.078,0.117,0.049,0.276-0.068,0.357
			c-0.793,0.539-2.006,1.649-1.889,2.329c0.08,0.465,0.416,0.715,0.768,0.981c0.379,0.283,0.809,0.604,0.83,1.201
			c0.043,1.076-0.49,1.518-0.512,1.534C42.881,25.979,42.826,25.998,42.768,25.998z"/>
		<path style="&st28;" d="M44.504,25.356c-0.074,0-0.148-0.032-0.199-0.096c-0.09-0.109-0.072-0.271,0.039-0.36
			c0.006-0.005,0.232-0.214,0.211-0.767c-0.008-0.216-0.16-0.341-0.432-0.542c-0.289-0.218-0.648-0.485-0.738-1.003
			c-0.162-0.941,1.398-2.034,1.578-2.156c0.117-0.081,0.277-0.049,0.357,0.067c0.078,0.117,0.047,0.276-0.068,0.357
			c-0.611,0.416-1.438,1.201-1.359,1.643c0.053,0.317,0.279,0.486,0.539,0.681c0.289,0.217,0.619,0.463,0.637,0.934
			c0.031,0.813-0.357,1.151-0.402,1.187C44.619,25.338,44.561,25.356,44.504,25.356z"/>
		<path style="&st28;" d="M57.041,25.996c-0.057,0-0.111-0.019-0.16-0.057c-0.021-0.017-0.555-0.458-0.512-1.534
			c0.021-0.597,0.451-0.918,0.83-1.201c0.354-0.267,0.688-0.517,0.768-0.982c0.117-0.681-1.096-1.789-1.887-2.328
			c-0.117-0.081-0.148-0.24-0.068-0.357s0.24-0.146,0.355-0.067c0.238,0.161,2.318,1.615,2.105,2.841
			c-0.115,0.666-0.586,1.021-0.967,1.306c-0.379,0.283-0.611,0.475-0.625,0.811c-0.031,0.8,0.311,1.104,0.326,1.116
			c0.105,0.092,0.121,0.253,0.031,0.361C57.188,25.964,57.113,25.996,57.041,25.996z"/>
		<path style="&st28;" d="M55.303,25.356c-0.055,0-0.109-0.019-0.156-0.056c-0.045-0.035-0.436-0.373-0.404-1.187
			c0.02-0.471,0.348-0.717,0.637-0.934c0.262-0.194,0.486-0.363,0.541-0.679c0.076-0.443-0.75-1.229-1.359-1.645
			c-0.117-0.081-0.148-0.24-0.068-0.357c0.08-0.116,0.24-0.148,0.357-0.067c0.178,0.122,1.74,1.215,1.576,2.156
			c-0.09,0.518-0.449,0.785-0.738,1.003c-0.27,0.201-0.422,0.326-0.432,0.542c-0.021,0.553,0.207,0.762,0.217,0.771
			c0.104,0.093,0.117,0.253,0.027,0.359C55.449,25.324,55.375,25.356,55.303,25.356z"/>
	</g>
	<g>
		<g>
			<path style="&st18;" d="M64.873,44.393v9.109l20.779-0.038c0.992-0.102,2.953-0.829,3.164-1.803
				c0.125-0.576,0.02-1.159-0.266-1.643c-0.133-0.231-0.307-0.44-0.518-0.61c-0.123-0.105-0.26-0.197-0.408-0.272l-0.096-0.041
				l-1.41-0.608l-6.621-2.854c-1.898-0.819-3.941-1.24-6.012-1.24H64.873z"/>
			<path style="&st25;" d="M88.816,51.661c-0.211,0.974-2.172,1.701-3.162,1.803l-20.781,0.039l-0.506-1.842H88.816z"/>
			<path style="&st27;" d="M79.375,45.922l5.014,2.162l-6.85-0.399c-0.85-0.05-1.588-0.599-1.883-1.396l0,0
				c-0.174-0.474,0.178-0.977,0.682-0.977h1.334C78.248,45.481,78.816,45.682,79.375,45.922z"/>
			<path style="&st27;" d="M73.311,47.628L73.311,47.628c0.389,0,0.703-0.313,0.703-0.701v-0.775c0-0.388-0.314-0.701-0.703-0.701
				l0,0c-0.387,0-0.701,0.313-0.701,0.701v0.775C72.609,47.314,72.924,47.628,73.311,47.628z"/>
			<path style="&st27;" d="M71.654,47.628L71.654,47.628c0.389,0,0.703-0.313,0.703-0.701v-0.775c0-0.388-0.314-0.701-0.703-0.701
				l0,0c-0.387,0-0.701,0.313-0.701,0.701v0.775C70.953,47.314,71.268,47.628,71.654,47.628z"/>
			<path style="&st27;" d="M69.998,47.628L69.998,47.628c0.389,0,0.701-0.313,0.701-0.701v-0.775c0-0.388-0.313-0.701-0.701-0.701
				l0,0c-0.387,0-0.701,0.313-0.701,0.701v0.775C69.297,47.314,69.611,47.628,69.998,47.628z"/>
			<path style="&st27;" d="M68.342,47.628L68.342,47.628c0.389,0,0.703-0.313,0.703-0.701v-0.775c0-0.388-0.314-0.701-0.703-0.701
				l0,0c-0.387,0-0.701,0.313-0.701,0.701v0.775C67.641,47.314,67.955,47.628,68.342,47.628z"/>
			<path style="&st27;" d="M66.686,47.628L66.686,47.628c0.389,0,0.703-0.313,0.703-0.701v-0.775c0-0.388-0.314-0.701-0.703-0.701
				l0,0c-0.387,0-0.701,0.313-0.701,0.701v0.775C65.984,47.314,66.299,47.628,66.686,47.628z"/>
			<polygon style="&st7;" points="64.084,48.486 64.084,49.095 87.529,49.095 86.119,48.486 			"/>
			<path style="&st3;" d="M64.084,49.408v0.61h24.467c-0.133-0.231-0.307-0.44-0.518-0.61H64.084z"/>
		</g>
		<polygon style="&st27;" points="88.551,54.459 65.254,54.459 64.971,53.851 88.869,53.851 		"/>
	</g>
	<path style="&st18;" d="M51.908,61.831c-0.6,0-1.17,0.128-1.689,0.353l-2.5-4.405c-0.004-0.005-0.01-0.008-0.012-0.012
		c-0.008-0.015-0.018-0.029-0.027-0.04c-0.008-0.012-0.018-0.021-0.027-0.032c-0.008-0.012-0.02-0.02-0.029-0.029
		c-0.012-0.009-0.023-0.02-0.033-0.028c-0.014-0.009-0.025-0.016-0.037-0.023c-0.012-0.006-0.025-0.014-0.039-0.021
		c-0.014-0.005-0.025-0.011-0.041-0.015c-0.014-0.005-0.027-0.009-0.041-0.014c-0.014-0.003-0.025-0.004-0.039-0.007
		c-0.018-0.001-0.033-0.003-0.051-0.005c-0.006,0-0.01-0.001-0.016-0.001h-1.391c-0.25,0-0.449,0.201-0.449,0.448
		s0.199,0.449,0.449,0.449h1.129l0.656,1.154h-6.135l-0.494-0.766h-1.066l2.357,3.658c0.086,0.131,0.23,0.205,0.377,0.205
		c0.084,0,0.168-0.023,0.244-0.072c0.207-0.133,0.266-0.411,0.133-0.621L42.164,60.5h5.492l-2.953,5.117H42.74
		c-0.225-2.125-2.025-3.786-4.211-3.786c-2.336,0-4.236,1.9-4.236,4.234c0,2.335,1.9,4.234,4.236,4.234
		c2.186,0,3.986-1.661,4.211-3.785c0,0,1.969,0,2.221,0c0.211,0,0.314-0.095,0.389-0.226l3.111-5.385l0.98,1.726
		c-1.07,0.771-1.77,2.021-1.77,3.436c0,2.335,1.898,4.234,4.236,4.234c2.334,0,4.236-1.899,4.236-4.234
		C56.145,63.731,54.242,61.831,51.908,61.831z M38.529,64.487c-0.871,0-1.58,0.708-1.58,1.579c0,0.869,0.709,1.577,1.58,1.577
		c0.715,0,1.32-0.478,1.514-1.129h1.908c-0.221,1.692-1.668,3.005-3.422,3.005c-1.906,0-3.455-1.549-3.455-3.454
		c0-1.904,1.549-3.454,3.455-3.454c1.754,0,3.201,1.313,3.422,3.006h-1.908C39.85,64.964,39.244,64.487,38.529,64.487z
		 M51.908,69.52c-1.906,0-3.457-1.549-3.457-3.454c0-1.125,0.543-2.122,1.375-2.752l0.945,1.66
		c-0.273,0.283-0.443,0.668-0.443,1.093c0,0.869,0.709,1.577,1.58,1.577c0.869,0,1.578-0.708,1.578-1.577
		c0-0.871-0.709-1.579-1.578-1.579c-0.123,0-0.244,0.016-0.357,0.042l-0.943-1.661c0.402-0.165,0.84-0.257,1.301-0.257
		c1.904,0,3.455,1.55,3.455,3.454C55.363,67.971,53.813,69.52,51.908,69.52z M38.637,58c0-0.247,0.201-0.448,0.447-0.448h2.793
		c0.25,0,0.449,0.201,0.449,0.448s-0.199,0.449-0.449,0.449h-2.793C38.838,58.449,38.637,58.247,38.637,58z"/>
	<g>
		<path style="&st19;" d="M47.547,58.008c-0.148,0-0.271-0.1-0.271-0.224c0-0.123,0.123-0.222,0.271-0.222h1.223
			c0.412,0,0.781,0.164,1.047,0.429l0.014,0.017c0.244,0.25,0.395,0.591,0.395,0.96c0,0.379-0.156,0.725-0.41,0.979
			c-0.264,0.265-0.635,0.43-1.045,0.43h-0.4c-0.15,0-0.273-0.101-0.273-0.223c0-0.125,0.123-0.225,0.273-0.225h0.4
			c0.24,0,0.461-0.102,0.627-0.267c0.174-0.175,0.285-0.42,0.285-0.694c0-0.267-0.105-0.507-0.273-0.683l-0.014-0.012
			c-0.164-0.163-0.385-0.266-0.625-0.266H47.547L47.547,58.008z"/>
		<path style="&st10;" d="M41.076,68.574c-0.615,0.617-1.465,0.998-2.402,1.005H38.65v-3.43L41.076,68.574L41.076,68.574z"/>
		<path d="M38.57,61.983c1.119,0,2.133,0.454,2.867,1.188c0.734,0.733,1.189,1.748,1.189,2.869c0,1.119-0.455,2.134-1.189,2.868
			s-1.748,1.188-2.867,1.188c-1.121,0-2.135-0.453-2.869-1.188s-1.189-1.749-1.189-2.868c0-1.121,0.455-2.136,1.189-2.869
			C36.436,62.438,37.449,61.983,38.57,61.983L38.57,61.983z M41.115,63.493c-0.65-0.651-1.551-1.055-2.545-1.055
			c-0.996,0-1.896,0.403-2.547,1.055c-0.652,0.652-1.055,1.553-1.055,2.548c0,0.993,0.402,1.895,1.055,2.546
			c0.65,0.652,1.551,1.055,2.547,1.055c0.994,0,1.895-0.402,2.545-1.055c0.652-0.651,1.057-1.553,1.057-2.546
			C42.172,65.046,41.768,64.146,41.115,63.493L41.115,63.493z"/>
		<path style="&st2;" d="M38.57,62.384c1.008,0,1.924,0.41,2.586,1.072c0.66,0.661,1.07,1.574,1.07,2.585
			c0,1.009-0.41,1.924-1.07,2.585c-0.662,0.661-1.578,1.07-2.586,1.07c-1.01,0-1.924-0.409-2.586-1.07
			c-0.66-0.661-1.07-1.576-1.07-2.585c0-1.011,0.41-1.924,1.07-2.585C36.646,62.794,37.561,62.384,38.57,62.384L38.57,62.384z
			 M40.834,63.777c-0.58-0.58-1.383-0.938-2.264-0.938c-0.883,0-1.686,0.357-2.264,0.938c-0.58,0.58-0.938,1.379-0.938,2.264
			c0,0.883,0.357,1.684,0.938,2.262c0.578,0.58,1.381,0.938,2.264,0.938c0.881,0,1.684-0.358,2.264-0.938
			c0.578-0.578,0.936-1.379,0.936-2.262C41.77,65.156,41.412,64.357,40.834,63.777L40.834,63.777z"/>
		<path style="&st10;" d="M54.346,68.465c-0.615,0.615-1.465,0.997-2.402,1.003l-0.023-2.943v2.943v-3.427L54.346,68.465
			L54.346,68.465z"/>
		<path d="M51.92,61.983c1.121,0,2.135,0.454,2.869,1.188c0.734,0.733,1.189,1.748,1.189,2.869c0,1.119-0.455,2.134-1.189,2.867
			c-0.734,0.734-1.748,1.189-2.869,1.189c-1.119,0-2.135-0.455-2.867-1.189c-0.734-0.733-1.189-1.748-1.189-2.867
			c0-1.121,0.455-2.136,1.189-2.869C49.785,62.438,50.801,61.983,51.92,61.983L51.92,61.983z M54.467,63.493
			c-0.65-0.65-1.551-1.055-2.547-1.055c-0.994,0-1.895,0.404-2.545,1.055c-0.652,0.652-1.057,1.553-1.057,2.548
			c0,0.993,0.404,1.894,1.057,2.546c0.65,0.652,1.551,1.055,2.545,1.055c0.996,0,1.896-0.402,2.547-1.055
			c0.652-0.652,1.055-1.553,1.055-2.546C55.521,65.046,55.119,64.146,54.467,63.493L54.467,63.493z"/>
		<path style="&st2;" d="M51.92,62.384c1.012,0,1.924,0.409,2.586,1.069c0.66,0.663,1.07,1.578,1.07,2.588
			c0,1.009-0.41,1.922-1.07,2.585c-0.662,0.661-1.574,1.07-2.586,1.07c-1.01,0-1.924-0.409-2.586-1.07
			c-0.66-0.663-1.07-1.576-1.07-2.585c0-1.01,0.41-1.925,1.07-2.588C49.996,62.793,50.91,62.384,51.92,62.384L51.92,62.384z
			 M54.184,63.777c-0.578-0.58-1.381-0.937-2.264-0.937c-0.885,0-1.684,0.356-2.264,0.937c-0.578,0.58-0.936,1.38-0.936,2.264
			s0.357,1.684,0.936,2.262c0.58,0.58,1.379,0.938,2.264,0.938c0.883,0,1.686-0.358,2.264-0.938c0.58-0.578,0.938-1.378,0.938-2.262
			S54.764,64.357,54.184,63.777L54.184,63.777z"/>
		<path style="&st21;" d="M44.85,65.608c0.314,0,0.57,0.256,0.57,0.571c0,0.314-0.256,0.569-0.57,0.569s-0.57-0.255-0.57-0.569
			C44.279,65.864,44.535,65.608,44.85,65.608L44.85,65.608z"/>
		<path style="&st15;" d="M38.658,57.802l-0.09,0.652c1.043,0.418,1.303-0.053,1.879-0.128l1.877-0.239
			c0.027-0.113-0.051-0.374-0.105-0.455c-0.049-0.071-0.188-0.08-0.287-0.08h-2.76C38.959,57.552,38.658,57.553,38.658,57.802
			L38.658,57.802z"/>
		<path style="&st21;" d="M51.92,65.556c0.27,0,0.484,0.217,0.484,0.485c0,0.267-0.215,0.483-0.484,0.483
			c-0.268,0-0.484-0.217-0.484-0.483C51.436,65.772,51.652,65.556,51.92,65.556L51.92,65.556z"/>
		<path d="M51.92,65.328c0.197,0,0.375,0.079,0.504,0.208l0,0c0.129,0.129,0.209,0.308,0.209,0.505c0,0.195-0.08,0.374-0.209,0.503
			l0,0c-0.129,0.129-0.307,0.209-0.504,0.209c-0.193,0-0.373-0.08-0.502-0.209l0,0c-0.129-0.129-0.209-0.308-0.209-0.503
			c0-0.197,0.08-0.376,0.209-0.505l0,0C51.547,65.407,51.727,65.328,51.92,65.328L51.92,65.328z M52.104,65.858
			c-0.047-0.046-0.111-0.076-0.184-0.076c-0.07,0-0.135,0.03-0.182,0.076l0,0c-0.047,0.047-0.074,0.11-0.074,0.183
			c0,0.07,0.027,0.136,0.074,0.181v0.001c0.047,0.045,0.111,0.074,0.182,0.074c0.072,0,0.137-0.029,0.184-0.074v-0.001
			c0.045-0.045,0.072-0.11,0.072-0.181C52.176,65.969,52.148,65.905,52.104,65.858L52.104,65.858L52.104,65.858z"/>
		<path style="&st15;" d="M44.627,66.117c0.037-0.118,0.166-0.185,0.285-0.146s0.188,0.166,0.146,0.286l-0.561,1.709
			c-0.037,0.12-0.166,0.185-0.285,0.147c-0.041-0.013-0.076-0.038-0.102-0.066h-0.676v-0.403h0.691L44.627,66.117L44.627,66.117z"/>
		<path style="&st21;" d="M38.57,65.556c0.268,0,0.484,0.217,0.484,0.485c0,0.267-0.217,0.484-0.484,0.484
			c-0.27,0-0.484-0.218-0.484-0.484C38.086,65.772,38.301,65.556,38.57,65.556L38.57,65.556z"/>
		<path d="M38.57,65.328c0.195,0,0.373,0.08,0.502,0.207l0.002,0.003c0.127,0.128,0.207,0.306,0.207,0.503
			c0,0.195-0.08,0.374-0.207,0.503h-0.002c-0.129,0.128-0.307,0.208-0.502,0.208c-0.197,0-0.375-0.08-0.502-0.208h-0.002
			c-0.129-0.129-0.209-0.308-0.209-0.503c0-0.197,0.08-0.375,0.209-0.503l0.002-0.003C38.195,65.408,38.373,65.328,38.57,65.328
			L38.57,65.328z M38.752,65.86v-0.002c-0.047-0.047-0.111-0.074-0.182-0.074s-0.137,0.027-0.184,0.074v0.002
			c-0.047,0.045-0.072,0.109-0.072,0.181c0,0.068,0.025,0.134,0.072,0.182l0,0c0.047,0.046,0.113,0.074,0.184,0.074
			s0.135-0.028,0.182-0.074l0,0c0.047-0.048,0.074-0.113,0.074-0.182C38.826,65.97,38.799,65.905,38.752,65.86L38.752,65.86z"/>
	</g>
</g>
</svg>
