<?xml version="1.0" encoding="utf-8"?>
<!-- Generator: Adobe Illustrator 16.0.0, SVG Export Plug-In . SVG Version: 6.00 Build 0)  -->
<!DOCTYPE svg PUBLIC "-//W3C//DTD SVG 1.1//EN" "http://www.w3.org/Graphics/SVG/1.1/DTD/svg11.dtd">
<svg version="1.1" id="圖層_1" xmlns="http://www.w3.org/2000/svg" xmlns:xlink="http://www.w3.org/1999/xlink" x="0px" y="0px"
	 width="50px" height="50px" viewBox="0 0 50 50" enable-background="new 0 0 50 50" xml:space="preserve">
<g>
	<circle fill="#F6E079" cx="25" cy="25" r="25"/>
	<path fill="#85C89B" d="M12.98,37.668c0,0.646-1.172,1.174-1.172,1.174h24.3c0,0-1.173-0.528-1.173-1.182
		c0-1.408-0.578-2.455-1.374-3.227c-1.241-1.198-2.984-1.734-4.022-1.81c-0.847-0.084-1.626-0.436-2.179-1.005
		c-0.646-0.621-1.542-2.959-0.353-3.704c0.822-0.494,1.241-1.559,1.593-2.456c0.2-0.469,0.368-0.897,0.587-1.282l0.05-0.159
		c-0.637-0.586-1.156-1.266-1.525-2.028c-0.427-0.863-0.67-1.81-0.67-2.815c0-1.978,0.938-3.754,2.431-5.044
		c0.184-0.151,0.367-0.311,0.569-0.428c-0.202-0.31-0.403-0.604-0.621-0.871c-0.401-0.478-0.854-0.821-1.206-0.754
		c-0.419,0.05-0.821,0-1.189-0.167c-0.327-0.159-0.604-0.394-0.821-0.704l-0.067-0.084c-0.185-0.268-0.645-0.436-1.174-0.528
		c-0.694-0.125-1.482-0.109-2.069-0.092c-1.399,0.017-2.614,0.301-3.544,0.955c-0.838,0.545-1.476,1.375-1.877,2.539l-0.034,0.093
		c-0.317,0.93-0.47,1.961-0.47,2.966l0,0l0,0c0,0.896,0.152,1.76,0.454,2.48c0.133,0.227,0.176,0.511,0.117,0.771
		c-0.117,0.771-0.755,0.804-0.369,1.81c0.217,0.553,0.628,1.081,0.922,1.357l0.05,0.05l0,0c0.52,0.478,0.805,1.157,1.106,1.936
		c0.352,0.897,0.787,1.978,1.608,2.489c0.368,0.185,0.629,0.569,0.629,1.039c0,1.006-0.16,1.877-0.913,2.632
		c-0.57,0.569-1.35,0.921-2.195,1.005c-1.04,0.075-2.774,0.611-4.022,1.81C13.567,35.205,12.98,36.252,12.98,37.668L12.98,37.668z"
		/>
	<path fill="#F29673" d="M40.014,15.203L40.014,15.203c-1.224-1.056-2.917-1.685-4.811-1.685c-1.885,0-3.586,0.629-4.81,1.685
		c-1.19,1.022-1.936,2.43-1.936,3.972c0,0.779,0.192,1.516,0.528,2.187c0.344,0.696,0.854,1.324,1.49,1.852
		c0.219,0.176,0.336,0.478,0.252,0.771l-0.41,1.399l1.466-0.938c0.185-0.151,0.436-0.176,0.671-0.084
		c0.419,0.167,0.871,0.277,1.341,0.369c0.436,0.075,0.905,0.117,1.407,0.117c1.894,0,3.587-0.645,4.811-1.692
		c1.206-1.022,1.936-2.43,1.936-3.98C41.949,17.633,41.22,16.226,40.014,15.203L40.014,15.203z"/>
	<circle fill="none" stroke="#FFFFFF" stroke-miterlimit="10" cx="25" cy="25" r="22.5"/>
</g>
</svg>