<?xml version="1.0" encoding="utf-8"?>
<!-- Generator: Adobe Illustrator 16.0.0, SVG Export Plug-In . SVG Version: 6.00 Build 0)  -->
<!DOCTYPE svg PUBLIC "-//W3C//DTD SVG 1.1//EN" "http://www.w3.org/Graphics/SVG/1.1/DTD/svg11.dtd">
<svg version="1.1" id="圖層_1" xmlns="http://www.w3.org/2000/svg" xmlns:xlink="http://www.w3.org/1999/xlink" x="0px" y="0px"
	 width="50px" height="50px" viewBox="0 0 50 50" enable-background="new 0 0 50 50" xml:space="preserve">
<g>
	<circle fill="#D1B699" cx="25" cy="25" r="25"/>
	<path fill="#F8ECB8" d="M31.193,36.309h5.039c0.431,0,0.764-0.35,0.764-0.772v-3.674c0-0.422-0.333-0.745-0.764-0.745h-5.039
		c-0.422,0-0.763,0.323-0.763,0.745v3.674C30.431,35.959,30.771,36.309,31.193,36.309L31.193,36.309z M13.777,20.24L13.777,20.24
		h5.031c0.413,0,0.763-0.333,0.763-0.764v-3.664c0-0.432-0.35-0.772-0.763-0.772h-5.031c-0.431,0-0.773,0.341-0.773,0.772v3.664
		C13.004,19.907,13.346,20.24,13.777,20.24L13.777,20.24z M13.777,36.309L13.777,36.309h5.031c0.413,0,0.763-0.35,0.763-0.772
		v-3.674c0-0.422-0.35-0.745-0.763-0.745h-5.031c-0.431,0-0.773,0.323-0.773,0.745v3.674C13.004,35.959,13.346,36.309,13.777,36.309
		L13.777,36.309z M38.917,37.872L38.917,37.872H11.083V13.477h27.834V37.872L38.917,37.872z M22.49,36.309L22.49,36.309h5.03
		c0.422,0,0.772-0.35,0.772-0.772v-3.674c0-0.422-0.351-0.745-0.772-0.745h-5.03c-0.432,0-0.772,0.323-0.772,0.745v3.674
		C21.717,35.959,22.058,36.309,22.49,36.309L22.49,36.309z M22.49,20.24L22.49,20.24h5.03c0.422,0,0.772-0.333,0.772-0.764v-3.664
		c0-0.432-0.351-0.772-0.772-0.772h-5.03c-0.432,0-0.772,0.341-0.772,0.772v3.664C21.717,19.907,22.058,20.24,22.49,20.24
		L22.49,20.24z M31.193,20.24L31.193,20.24h5.039c0.431,0,0.764-0.333,0.764-0.764v-3.664c0-0.432-0.333-0.772-0.764-0.772h-5.039
		c-0.422,0-0.763,0.341-0.763,0.772v3.664C30.431,19.907,30.771,20.24,31.193,20.24L31.193,20.24z"/>
	<circle fill="none" stroke="#FFFFFF" stroke-miterlimit="10" cx="25" cy="25" r="22.5"/>
</g>
</svg>
