<?xml version="1.0" encoding="utf-8"?>
<!-- Generator: Adobe Illustrator 16.0.0, SVG Export Plug-In . SVG Version: 6.00 Build 0)  -->
<!DOCTYPE svg PUBLIC "-//W3C//DTD SVG 1.1//EN" "http://www.w3.org/Graphics/SVG/1.1/DTD/svg11.dtd">
<svg version="1.1" id="圖層_1" xmlns="http://www.w3.org/2000/svg" xmlns:xlink="http://www.w3.org/1999/xlink" x="0px" y="0px"
	 width="50px" height="50px" viewBox="0 0 50 50" enable-background="new 0 0 50 50" xml:space="preserve">
<g>
	<circle fill="#AACAEA" cx="25" cy="25" r="25"/>
	<path fill="#4593D0" d="M33.516,37.854L33.516,37.854h-0.022h-0.014h-0.013h-0.028H23.124c-6.194,0-6.179-9.496,0-9.496h3.024
		c2.004,0,1.923-3.021,0-3.021h-9.607h-0.026H16.5h-0.012l0,0h-0.022h-0.007c-0.512-0.027-0.9-0.444-0.9-0.962v-4.309
		c-0.736-0.179-1.385-0.546-1.902-1.059l-0.049-0.067c-1.501-1.563-1.473-4.093,0.055-5.629l0.068-0.047
		c1.562-1.514,4.093-1.487,5.627,0.047c1.563,1.563,1.563,4.128,0,5.696h-0.012l-0.007,0.02c-0.506,0.499-1.147,0.86-1.855,1.039
		v4.124h8.664c3.362,0,3.581,5.314,0,5.314h-3.024c-4.672,0-4.685,7.189,0,7.189h9.381v-4.111c-0.722-0.176-1.37-0.561-1.87-1.064
		l-0.014-0.006l-0.012-0.014c-0.726-0.717-1.162-1.727-1.162-2.824c0-1.105,0.444-2.121,1.174-2.859
		c1.562-1.548,4.128-1.548,5.69,0.014l0.014-0.014c0.716,0.738,1.175,1.753,1.175,2.859c0,1.111-0.459,2.121-1.175,2.844
		c-0.519,0.504-1.174,0.889-1.902,1.064v4.297C34.423,37.411,34.034,37.827,33.516,37.854L33.516,37.854z"/>
	<path fill="#F6E079" d="M18.75,18.411L18.75,18.411v-0.022c1.23-1.208,1.23-3.237,0-4.466c-1.212-1.209-3.18-1.23-4.41-0.052
		l-0.061,0.052c-1.206,1.198-1.229,3.187-0.072,4.416l0.072,0.05C15.513,19.62,17.521,19.62,18.75,18.411L18.75,18.411z"/>
	<path fill="#EB6B6B" d="M35.775,30.983L35.775,30.983c0.605-0.582,0.956-1.432,0.956-2.313c0-0.9-0.351-1.717-0.956-2.301
		c-1.259-1.272-3.36-1.262-4.621,0c-0.581,0.584-0.954,1.4-0.954,2.301c0,0.881,0.373,1.73,0.943,2.313h0.011
		C32.426,32.257,34.505,32.257,35.775,30.983L35.775,30.983z"/>
	<circle fill="none" stroke="#FFFFFF" stroke-miterlimit="10" cx="25" cy="25" r="22.5"/>
</g>
</svg>
