<?xml version="1.0" encoding="utf-8"?>
<!-- Generator: Adobe Illustrator 16.0.0, SVG Export Plug-In . SVG Version: 6.00 Build 0)  -->
<!DOCTYPE svg PUBLIC "-//W3C//DTD SVG 1.1//EN" "http://www.w3.org/Graphics/SVG/1.1/DTD/svg11.dtd" [
	<!ENTITY st0 "fill:#48AC8D;">
	<!ENTITY st1 "fill:#ACCFF6;">
	<!ENTITY st2 "fill:none;stroke:#D4B99B;stroke-width:0.2746;stroke-linecap:round;stroke-miterlimit:10;">
	<!ENTITY st3 "fill:#E5E5E5;">
	<!ENTITY st4 "fill:#191919;">
	<!ENTITY st5 "fill:#B2B2B2;">
	<!ENTITY st6 "fill:#EA5C0B;">
	<!ENTITY st7 "fill:#EC6C23;">
	<!ENTITY st8 "fill:none;stroke:#F7D237;stroke-miterlimit:10;">
	<!ENTITY st9 "fill:none;stroke:#FFFFFF;stroke-miterlimit:10;">
	<!ENTITY st10 "fill:#8B5E3C;">
	<!ENTITY st11 "fill:#F7D237;">
	<!ENTITY st12 "fill:#5DB599;">
	<!ENTITY st13 "fill:#C49A6C;">
	<!ENTITY st14 "fill:#603913;">
	<!ENTITY st15 "fill:#FFFFFF;">
	<!ENTITY st16 "fill:#68C1C1;">
	<!ENTITY st17 "fill:#CCCCCC;">
	<!ENTITY st18 "fill:#333333;">
	<!ENTITY st19 "fill:#D4B99B;">
	<!ENTITY st20 "fill:#3A63C9;">
	<!ENTITY st21 "fill:#3C2415;">
	<!ENTITY st22 "fill:#D9E9F9;">
	<!ENTITY st23 "fill:none;stroke:#D4B99B;stroke-width:0.2835;stroke-linecap:round;stroke-miterlimit:10;">
	<!ENTITY st24 "fill:#71BFA6;">
	<!ENTITY st25 "fill:#754C29;">
	<!ENTITY st26 "fill:#A97C50;">
	<!ENTITY st27 "fill:#DDDDDD;">
	<!ENTITY st28 "fill:#419CE0;">
]>
<svg version="1.1" id="圖層_1" xmlns="http://www.w3.org/2000/svg" xmlns:xlink="http://www.w3.org/1999/xlink" x="0px" y="0px"
	 width="100px" height="100px" viewBox="0 0 100 100" style="enable-background:new 0 0 100 100;" xml:space="preserve">
<g>
	<circle style="&st1;" cx="50" cy="50" r="49.998"/>
	<circle style="&st9;" cx="50" cy="50" r="44.998"/>
	<g>
		<g>
			<path style="&st0;" d="M24.024,64.688c1.457-0.636,1.64,2.277,3.279,2.916c1.589,0.617,21.666,0.037,22.893,0.002v-0.002
				c0,0,0.012,0,0.029,0s0.029,0,0.029,0v0.002c1.229,0.035,21.304,0.615,22.893-0.002c1.64-0.639,1.822-3.552,3.279-2.916
				c0.07,0.031,0.133,0.09,0.188,0.169l0.086-0.169c0,0-0.273-6.284-0.273-8.061c0-1.775-1.366-3.551-2.322-4.234
				c-0.039-0.027-0.08-0.084-0.122-0.151c1.129-0.235,2.449-0.625,2.854-1.216c0.751-1.092,1.162-2.117-0.068-3.552
				c-0.932-1.085-3.267-0.489-4.35-0.135c-1.232-4.225-3.03-9.68-5.556-10.521c-3.993-1.332-16.024-1.236-16.638-1.229
				c-0.613-0.007-12.644-0.103-16.638,1.229c-2.525,0.841-4.323,6.296-5.556,10.521c-1.083-0.354-3.419-0.95-4.349,0.135
				c-1.23,1.435-0.82,2.46-0.069,3.552c0.406,0.591,1.726,0.98,2.855,1.216c-0.043,0.067-0.084,0.124-0.122,0.151
				c-0.957,0.684-2.323,2.459-2.323,4.234c0,1.776-0.273,8.061-0.273,8.061l0.086,0.169C23.892,64.778,23.953,64.72,24.024,64.688z"
				/>
			<path style="&st4;" d="M28.147,79.869c0,2.508,2.033,4.539,4.539,4.539c2.509,0,4.54-2.031,4.54-4.539v-1.501
				c-3.558-0.15-7.001-0.338-9.079-0.547V79.869z"/>
			<path style="&st4;" d="M63.224,79.869c0,2.508,2.033,4.539,4.539,4.539c2.508,0,4.541-2.031,4.541-4.539v-2.048
				c-2.078,0.209-5.521,0.396-9.08,0.547V79.869z"/>
			<path style="&st17;" d="M76.427,64.688c-1.457-0.636-1.64,2.277-3.279,2.916c-1.589,0.617-21.664,0.037-22.893,0.002v-0.002
				c0,0-0.012,0-0.029,0s-0.029,0-0.029,0v0.002c-1.227,0.035-21.304,0.615-22.893-0.002c-1.64-0.639-1.822-3.552-3.279-2.916
				c-0.071,0.031-0.133,0.09-0.188,0.169c-0.647,0.917-0.34,4.899,0.412,8.167h51.953c0.752-3.268,1.061-7.25,0.412-8.167
				C76.56,64.778,76.497,64.72,76.427,64.688z"/>
			<path style="&st17;" d="M24.667,74.604c-0.15-0.493-0.29-1.022-0.416-1.574C24.377,73.581,24.517,74.11,24.667,74.604z"/>
			<path style="&st17;" d="M76.2,73.029c-0.126,0.552-0.266,1.081-0.416,1.574C75.935,74.11,76.074,73.581,76.2,73.029z"/>
			<path style="&st5;" d="M24.251,73.029c0.126,0.552,0.266,1.081,0.416,1.574c0.007,0.026,0.016,0.053,0.023,0.079
				c0.032,0.103,0.065,0.205,0.097,0.304c0.013,0.037,0.025,0.073,0.037,0.109c0.032,0.095,0.064,0.188,0.097,0.279
				c0.008,0.022,0.016,0.043,0.024,0.063c0.059,0.16,0.118,0.312,0.178,0.458c0.023,0.056,0.047,0.111,0.07,0.165
				c0.024,0.057,0.051,0.112,0.076,0.167c0.026,0.057,0.054,0.113,0.081,0.168c0.023,0.047,0.047,0.095,0.072,0.14
				c0.033,0.063,0.067,0.123,0.102,0.182c0.018,0.031,0.035,0.064,0.054,0.094c0.053,0.084,0.104,0.16,0.157,0.231
				c0.017,0.022,0.033,0.042,0.05,0.063c0.038,0.049,0.077,0.095,0.117,0.137c0.02,0.021,0.039,0.04,0.059,0.06
				c0.039,0.037,0.078,0.069,0.117,0.1c0.019,0.013,0.036,0.027,0.054,0.041c0.056,0.037,0.112,0.068,0.17,0.09
				c0.275,0.1,0.927,0.195,1.846,0.289c2.078,0.209,5.521,0.396,9.079,0.547c6.101,0.261,12.536,0.418,12.999,0.404
				c0.463,0.014,6.898-0.144,12.998-0.404c3.559-0.15,7.002-0.338,9.08-0.547c0.919-0.094,1.57-0.189,1.846-0.289
				c0.058-0.021,0.113-0.053,0.17-0.09c0.018-0.014,0.036-0.028,0.054-0.041c0.039-0.03,0.078-0.063,0.117-0.1
				c0.02-0.02,0.039-0.038,0.059-0.06c0.04-0.042,0.078-0.088,0.116-0.137c0.018-0.021,0.035-0.04,0.051-0.063
				c0.053-0.071,0.105-0.147,0.156-0.231c0.019-0.029,0.037-0.063,0.055-0.094c0.034-0.059,0.068-0.119,0.102-0.182
				c0.025-0.045,0.049-0.093,0.072-0.14c0.027-0.055,0.055-0.111,0.08-0.168c0.026-0.055,0.053-0.11,0.077-0.167
				c0.023-0.054,0.046-0.109,0.069-0.165c0.061-0.146,0.12-0.298,0.179-0.458c0.009-0.021,0.017-0.041,0.024-0.063
				c0.032-0.091,0.064-0.185,0.097-0.279c0.012-0.036,0.024-0.072,0.037-0.109c0.031-0.099,0.065-0.201,0.097-0.304
				c0.008-0.026,0.017-0.053,0.023-0.079c0.15-0.493,0.29-1.022,0.416-1.574c0.002-0.002,0.002-0.003,0.002-0.005H24.249
				C24.25,73.026,24.25,73.027,24.251,73.029z"/>
		</g>
		<path style="&st22;" d="M32.688,48.375c0.886,2.774,1.476,5.193,5.434,5.252c3.919,0.06,11.943,0.29,12.1,0.295l0,0h0.004h0.004
			l0,0c0.158-0.005,8.181-0.235,12.1-0.295c3.956-0.059,4.547-2.478,5.434-5.252c0.886-2.776,1.949-7.147,0.295-9.154
			c-1.645-1.998-17.67-2.184-17.828-2.187l0,0h-0.004h-0.004l0,0c-0.158,0.003-16.183,0.188-17.828,2.187
			C30.739,41.228,31.803,45.599,32.688,48.375z"/>
		<path style="&st24;" d="M50.255,54.729H32.677v1.366c0,0,1.275,0.729,3.005,2.368c1.731,1.64,3.188,3.279,3.188,3.279
			l11.363,0.033L50.255,54.729z"/>
		<path style="&st18;" d="M27.805,59.384c1.502-0.547,7.649,1.093,8.538,2.322c0.888,1.229,0.684,2.46-0.342,2.938
			c-1.024,0.479-7.787,0.273-8.606-0.614S26.302,59.931,27.805,59.384z"/>
		<circle style="&st17;" cx="34.225" cy="62.867" r="1.548"/>
		<path style="&st5;" d="M32.814,62.237c-0.088,0.192-0.138,0.405-0.138,0.63c0,0.855,0.692,1.549,1.548,1.549
			c0.226,0,0.438-0.051,0.632-0.137L32.814,62.237z"/>
		<circle style="&st17;" cx="30.764" cy="62.276" r="1.548"/>
		<path style="&st5;" d="M29.353,61.646c-0.086,0.192-0.137,0.404-0.137,0.631c0,0.854,0.692,1.549,1.548,1.549
			c0.225,0,0.438-0.052,0.632-0.138L29.353,61.646z"/>
		<ellipse style="&st7;" cx="28.351" cy="60.636" rx="0.84" ry="0.866"/>
		<path style="&st6;" d="M27.584,60.285c-0.046,0.105-0.073,0.226-0.073,0.351c0,0.479,0.376,0.866,0.84,0.866
			c0.121,0,0.237-0.028,0.342-0.077L27.584,60.285z"/>
		<path style="&st12;" d="M50.196,54.729h17.578v1.366c0,0-1.275,0.729-3.006,2.368c-1.73,1.64-3.188,3.279-3.188,3.279
			l-11.362,0.033L50.196,54.729z"/>
		<path style="&st18;" d="M72.647,59.384c-1.503-0.547-7.65,1.093-8.539,2.322c-0.888,1.229-0.684,2.46,0.342,2.938
			c1.023,0.479,7.787,0.273,8.606-0.614S74.149,59.931,72.647,59.384z"/>
		<circle style="&st17;" cx="66.227" cy="62.868" r="1.548"/>
		<path style="&st5;" d="M66.856,64.279c-0.192,0.086-0.405,0.137-0.63,0.137c-0.855,0-1.549-0.693-1.549-1.549
			c0-0.225,0.051-0.438,0.138-0.63L66.856,64.279z"/>
		<circle style="&st17;" cx="69.688" cy="62.276" r="1.548"/>
		<path style="&st5;" d="M70.317,63.687c-0.191,0.087-0.405,0.138-0.63,0.138c-0.855,0-1.549-0.693-1.549-1.548
			c0-0.227,0.051-0.438,0.138-0.632L70.317,63.687z"/>
		<ellipse style="&st7;" cx="72.102" cy="60.637" rx="0.866" ry="0.84"/>
		<path style="&st6;" d="M72.452,61.402c-0.106,0.047-0.225,0.074-0.351,0.074c-0.479,0-0.866-0.376-0.866-0.84
			c0-0.122,0.029-0.237,0.077-0.343L72.452,61.402z"/>
		<circle style="&st3;" cx="29.339" cy="73.715" r="1.675"/>
		<circle style="&st3;" cx="70.529" cy="73.715" r="1.675"/>
		<rect x="40.322" y="71.251" style="&st3;" width="19.806" height="3.941"/>
		<circle style="&st0;" cx="50.226" cy="61.841" r="2.316"/>
		<circle style="&st17;" cx="50.226" cy="61.841" r="1.791"/>
		<path style="&st5;" d="M48.554,61.215c-0.073,0.194-0.118,0.404-0.118,0.626c0,0.988,0.801,1.789,1.79,1.789
			c0.221,0,0.43-0.045,0.626-0.118L48.554,61.215z"/>
	</g>
	<g>
		
			<ellipse transform="matrix(0.7133 0.7008 -0.7008 0.7133 35.3497 -26.4459)" style="&st11;" cx="50" cy="29.985" rx="13.48" ry="14.496"/>
		<g>
			<path style="&st15;" d="M52.678,43.178c-0.119-0.033-0.246-0.069-0.357-0.112c-0.015-0.006-0.027-0.014-0.027-0.014
				s0.005,0,0.005,0.008c-2.281-0.812-2.079-3.107-2.079-3.107c0.014-0.095,0.023-0.157,0.066-0.228
				c-0.073-0.172,0.125-0.318,0.016-0.45c0.05-0.101,0.133-0.18,0.133-0.319c0.016-0.063,0.09-0.122,0.073-0.188
				c-0.058-0.098,0.172-0.186,0.128-0.296c0.081-0.166,0.081-0.351,0.229-0.425c0.007-0.075,0.104-0.13,0.074-0.206
				c0.136-0.068,0.112-0.187,0.141-0.313c0.061-0.038,0.12-0.095,0.098-0.181c0.022-0.045,0.06-0.07,0.111-0.065l-0.022-0.083
				c-0.102,0.024-0.318-0.03-0.297,0.156c-0.066,0-0.03,0.112-0.104,0.112c0.017,0.154-0.178,0.187-0.11,0.349
				c-0.135,0.07,0,0.244-0.15,0.318c-0.051,0.149-0.154,0.251-0.253,0.354c-0.021,0.028,0.017,0.077-0.05,0.077
				c-0.059-0.094,0.007-0.223,0.074-0.296c0.022-0.282,0.201-0.446,0.281-0.714c-0.008-0.143,0.11-0.273,0.186-0.387
				c0.117-0.096,0.117-0.254,0.172-0.41c0.051-0.199,0.15-0.291,0.186-0.491c0.099-0.078,0.08-0.275,0.17-0.336
				c0.074-0.243,0.245-0.411,0.365-0.641c0.089-0.045,0.059-0.157,0.14-0.236c0.032-0.12,0.009-0.231,0.134-0.331
				c0.156-0.039,0.149-0.265,0.298-0.325l-0.013-0.022c0.161-0.166,0.286-0.4,0.547-0.407c0.111,0.021,0.142-0.047,0.225-0.097
				c0.02-0.017,0.086-0.03,0.044-0.089c0.206-0.025,0.214-0.203,0.288-0.358c0.111-0.088,0.104-0.245,0.216-0.333
				c-0.06-0.11,0.104-0.138,0.045-0.241c-0.141-0.037-0.097,0.115-0.141,0.176c-0.06,0.063-0.173,0.081-0.163,0.17
				c-0.039,0.021-0.017,0.134-0.104,0.127c-0.038,0.065-0.118,0.126-0.089,0.222c-0.045-0.021-0.089-0.021-0.135-0.005
				c-0.089-0.115,0.053-0.229,0.039-0.37c0.028-0.067,0.14-0.1,0.08-0.188c-0.105,0-0.09,0.096-0.154,0.147
				c-0.039,0-0.084,0.021-0.104-0.018c0.014-0.07,0.014-0.205,0.126-0.211c0.021-0.087,0.147-0.127,0.103-0.224
				c0.125-0.054,0.096-0.193,0.253-0.193c-0.015-0.02,0-0.065-0.038-0.074c0.014-0.015,0.014-0.049,0.045-0.044l-0.015-0.135
				c0.089-0.104,0.223-0.157,0.341-0.218c-0.044-0.063,0.029-0.116,0.044-0.143c0.008-0.156,0.225-0.173,0.231-0.338
				c0.112,0,0.164-0.082,0.244-0.124c0.016-0.09,0.111-0.155,0.194-0.211c-0.007-0.021,0-0.059,0.016-0.088
				c0.119-0.048,0.178-0.236,0.266-0.324c0.03-0.053,0.126-0.086,0.067-0.166c0.021-0.023,0.029-0.067,0.074-0.063l-0.007-0.05
				c-0.03-0.049,0.029-0.058,0.075-0.069c0.057-0.167,0.313-0.226,0.267-0.461c-0.06-0.015-0.082,0.086-0.128,0.015
				c0.031-0.083,0.083-0.146,0.114-0.217h0.006c0.016,0.036,0.045,0.066,0.045,0.104c0.058-0.007,0.109-0.007,0.143-0.061
				c0.049-0.018,0.088-0.098,0.177-0.119c0-0.033,0-0.059-0.036-0.074l0.043-0.03c0.148,0.058,0.089-0.095,0.216-0.114
				c0-0.034-0.015-0.063-0.044-0.084c0-0.034,0.051-0.05,0.065-0.087c0.061-0.013,0.091-0.077,0.171-0.077
				c0.017-0.075,0.084-0.093,0.096-0.172c0.112-0.124,0.179-0.288,0.209-0.453c0.104-0.042,0.038-0.176,0.155-0.211
				c-0.015-0.07,0.105-0.039,0.066-0.115c0.023-0.022,0.047-0.059,0.09-0.071c-0.006-0.069,0.053-0.118,0.047-0.186
				c0.036-0.04,0.08-0.088,0.125-0.131c0-0.103,0.081-0.183,0.125-0.259c0.113-0.176,0.18-0.328,0.26-0.509
				c0.121-0.1,0.09-0.248,0.098-0.391c-0.058-0.186-0.045-0.362-0.031-0.549c-0.01-0.466-0.838-0.291-1.075-0.232l-0.015,0.005
				c0.002,0,0.005-0.003,0.005-0.003c-0.035,0.011-0.059,0.017-0.059,0.017c-0.028,0.124-0.214,0.065-0.288,0.148
				c-0.067,0.019-0.143,0.024-0.201,0.061c-0.052,0.08-0.198,0.066-0.297,0.108c-0.059,0.006-0.095,0.075-0.178,0.066
				c-0.076,0.053-0.17,0.059-0.245,0.083c-0.046,0.074-0.187,0.012-0.156,0.125c-0.066,0.01-0.104,0.01-0.162,0.046
				c-0.031,0.081-0.149,0.074-0.23,0.09c-0.074,0.021-0.081,0.104-0.165,0.104c-0.016,0.073-0.111,0.014-0.154,0.05
				c-0.076,0.089-0.252,0.023-0.363,0.058l-0.039,0.047c-0.111-0.041-0.104,0.06-0.155,0.096c-0.126,0-0.21,0.093-0.334,0.082
				c-0.059,0.043-0.143,0.076-0.2,0.112c-0.112-0.013-0.18,0.066-0.271,0.066c-0.057,0.059-0.132-0.009-0.185,0.016v-0.016H52.37
				c-0.117,0.104-0.279,0.008-0.398,0.086c-0.065,0.092-0.245-0.027-0.274,0.1c-0.061-0.008-0.083,0.057-0.156,0.04
				c-0.047,0.017-0.037,0.064-0.037,0.109c-0.141,0.007-0.299,0.042-0.43,0.099c-0.023,0.071-0.149,0.017-0.172,0.093
				c-0.104,0.027-0.193,0.052-0.299,0.042c0.01,0.026-0.027,0.039-0.027,0.053c-0.127-0.029-0.127,0.076-0.226,0.082
				c-0.007-0.013-0.021-0.013-0.013-0.026c-0.119,0.014-0.171,0.065-0.262,0.148c-0.072-0.021-0.104,0.028-0.156,0.042
				c-0.191-0.059-0.243,0.153-0.443,0.135c-0.061,0.079-0.217,0.025-0.253,0.127c-0.135-0.048-0.238,0.036-0.349,0.07
				c-0.12,0.008-0.203,0.093-0.313,0.07v0.038c-0.119,0-0.141,0.073-0.253,0.063c-0.098,0.107-0.285,0.063-0.38,0.164
				c-0.021,0.087-0.119,0-0.161,0.057c-0.09-0.035-0.122,0.043-0.18,0.073c-0.082,0.118-0.297,0.055-0.417,0.133
				c-0.096-0.015-0.096,0.082-0.198,0.062c-0.085,0.01-0.085,0.059-0.111,0.11c-0.076,0.033-0.15,0.036-0.225,0.052
				c-0.103,0.065-0.216,0.015-0.325,0.044c-0.061,0.071-0.158,0.101-0.158,0.192c-0.05,0.037-0.111,0-0.146-0.02
				c-0.046-0.009-0.103,0-0.112,0.042c-0.097-0.028-0.118,0.068-0.194,0.077l-0.022,0.036c0,0-0.021,0.073-0.05,0.013
				c-0.119-0.013-0.179,0.061-0.225,0.143c-0.06-0.017-0.154-0.073-0.194,0c0,0.1-0.125,0.061-0.184,0.096
				c0.008,0.033-0.008,0.068-0.044,0.082c-0.111-0.037-0.194,0.058-0.298,0.058c-0.065-0.021-0.141-0.05-0.229-0.021v0.104
				c-0.074,0.024-0.038,0.13-0.149,0.103c-0.06,0.113-0.066-0.047-0.136-0.034c-0.096,0.04-0.232,0.005-0.303,0.104
				c-0.081-0.009-0.126,0.063-0.171,0.111c-0.036,0.19-0.282,0.036-0.371,0.167c-0.156-0.167-0.237,0.094-0.357,0.108
				c-0.029,0.073-0.177-0.04-0.216,0.088c-0.14-0.022-0.238,0.071-0.354,0.09c-0.053,0.065-0.189,0.044-0.21,0.132
				c-0.083-0.003-0.118,0.061-0.199,0.036c-0.134,0.031-0.261,0.119-0.38,0.156c-0.118,0.012-0.146,0.137-0.298,0.084
				c-0.087,0.053-0.184,0.104-0.29,0.125c0.039,0.107-0.109,0.029-0.141,0.066c-0.043,0.031-0.119,0.031-0.111,0.089
				c-0.126-0.006-0.199,0.057-0.31,0.078c-0.046,0.072-0.118,0.036-0.158,0.087c-0.043,0.022-0.119,0-0.134,0.062
				c-0.105-0.034-0.125,0.057-0.224,0.046c-0.079,0.101-0.25,0.071-0.362,0.167c-0.075,0-0.134,0.052-0.209,0.059
				c-0.066,0.093-0.2,0.075-0.287,0.11c-0.061,0.048-0.143,0.062-0.216,0.094l-0.008,0.095c0.036-0.008,0.103,0.023,0.132-0.015
				c0.121,0,0.245-0.051,0.355-0.031c-0.005-0.02,0.018-0.049-0.005-0.056l0.118-0.049c0.104,0.097,0.218-0.096,0.35-0.056v0.056
				c-0.015,0.03-0.06,0.017-0.089,0.023c-0.029,0.081,0.052,0.09,0.067,0.156h0.042c0.023-0.006,0.017,0.023,0.017,0.04
				c0.176-0.017,0.385-0.04,0.549-0.069c0.081,0.103,0.217,0.016,0.32,0.035c0.104,0.016,0.125-0.065,0.236-0.05
				c0.031,0.03,0.105,0.038,0.09,0.084c0.009,0.022-0.008,0.033-0.023,0.03v0.078c0.053-0.014,0.134,0.021,0.128-0.057
				c0.021,0.047,0.089,0.013,0.133,0.025v-0.077c-0.022,0-0.044,0.012-0.058-0.003c0-0.014,0.014-0.016,0.014-0.031
				c0.038-0.012,0.09,0,0.065-0.05c-0.015-0.016-0.054,0.007-0.065-0.016c0-0.023,0-0.045,0.044-0.064c0,0,0.007,0.01,0.007,0.011
				c0.098-0.011,0.193,0.054,0.135,0.15h-0.082v0.063h0.061c0.021-0.014,0.021-0.029,0.036-0.06
				c0.074,0.022,0.179-0.026,0.223,0.042h0.298l0.03-0.076c0.027-0.006,0.015,0.034,0.035,0.034c0.054,0,0.121,0.012,0.172-0.003
				c0.03,0.033,0.104-0.014,0.119,0.033h0.112c-0.029-0.107,0.163-0.076,0.147-0.165c-0.023-0.007-0.053,0.012-0.062-0.019
				c-0.006-0.011,0-0.011,0.009-0.018c0.061,0.018,0.147,0,0.21,0.018c0.013,0.03,0.036,0.047,0.059,0.038
				c0.06-0.088,0.186,0.038,0.246-0.074c0.051,0,0.125-0.045,0.17-0.007c0.06-0.014,0.178-0.007,0.132-0.097l0.135,0.012v-0.034
				c-0.028-0.107,0.105-0.012,0.134-0.046v0.034c0.089,0.034,0.045-0.062,0.112-0.071c0.09-0.024,0.118,0.078,0.191,0.071
				c0.009,0.023-0.007,0.036-0.013,0.052c-0.074,0-0.074,0.104-0.128,0.141c-0.022-0.029-0.038-0.029-0.074-0.029
				c-0.06-0.025-0.029,0.049-0.072,0.064c-0.21,0.03-0.329,0.185-0.543,0.142c-0.044,0.022-0.044,0.088-0.061,0.138
				c-0.036,0.007-0.089-0.028-0.095,0.022c-0.017-0.033-0.061-0.046-0.084-0.033c0.023,0.096-0.109,0.116-0.051,0.221h0.06
				c0.036-0.048,0.126-0.029,0.117-0.088c0.009-0.03,0.017-0.065,0.069-0.065c0.044-0.091,0.177-0.088,0.258-0.128
				c0.083,0.021,0.157,0.021,0.201,0.097c-0.029,0.031-0.051,0.066-0.096,0.06v0.141c0.089-0.037,0.073,0.063,0.161,0.037
				c0.083-0.082,0.171,0.04,0.276,0.022v-0.036c0.009-0.008,0.016-0.03,0.029-0.023c0.022,0.008,0.022,0.023,0.022,0.029h0.036
				c0.031,0,0.039-0.021,0.047-0.045c0.058,0.009,0.125-0.007,0.178,0.016v0.008c0.081,0.016,0.148-0.076,0.267-0.045
				c0.016-0.052,0.112-0.008,0.096-0.083c0.106,0,0.188-0.134,0.299-0.099c0.075,0,0.201,0.016,0.229-0.057
				c0.01-0.006,0.018,0,0.022,0.016c0.037,0.003,0.113,0.023,0.134-0.016c0.014,0,0.014,0.019,0.014,0.039l0.107,0.011v-0.034
				c0.027-0.051,0.057-0.068,0.108-0.086c0.031-0.048,0.113,0.035,0.136-0.029c0,0.012,0.014,0.012,0.014,0.021
				c0.091,0.025,0.15-0.04,0.224-0.029c0.039-0.022,0.039-0.063,0.052-0.092c0.007,0.016,0.015,0.023,0.015,0.029
				c0.076-0.006,0.125-0.037,0.178-0.037c0.022-0.077,0.15,0.008,0.15-0.087c0.03,0.029,0.096-0.007,0.119,0.041h0.028
				c0.038,0.008,0.021-0.019,0.045-0.03c0.149,0.03,0.333-0.001,0.489-0.011c0.067-0.025,0.014-0.094,0.09-0.117
				c0.014,0.006,0.009,0.019,0.009,0.04c0.11,0.031,0.207-0.017,0.318-0.017v-0.069c0.089-0.113,0.267-0.034,0.364-0.083
				c0.022-0.091,0.193,0.021,0.154-0.104c0.114-0.057,0.239-0.118,0.373-0.101v0.014h0.05c0.076,0,0.039-0.077,0.09-0.114
				c0.099,0.022,0.112-0.094,0.224-0.063c0.053-0.057,0.15-0.03,0.224-0.063c0.036-0.03,0.104-0.03,0.119-0.09
				c0.051,0.018,0.103,0,0.157-0.008c-0.019,0.098-0.172,0.11-0.188,0.2c-0.038,0.038-0.044,0.124-0.111,0.106
				c-0.05,0-0.111,0.026-0.177,0.031l-0.023,0.154c0.023,0.007,0.045,0.007,0.053,0c-0.008,0.049-0.022,0.103-0.074,0.132
				c-0.021,0.137-0.09,0.231-0.127,0.361c-0.172-0.004,0.05,0.219-0.132,0.219c-0.075,0.256-0.242,0.334-0.342,0.57
				c-0.123,0.199-0.218,0.38-0.29,0.591c-0.09,0.038-0.135,0.138-0.135,0.233c-0.141,0.084-0.082,0.295-0.225,0.393
				c-0.022,0.057-0.088,0.131-0.06,0.2c-0.19,0.231-0.242,0.486-0.401,0.753c0.011,0.096-0.073,0.147-0.073,0.252
				c-0.075,0.015,0,0.155-0.104,0.17c-0.05,0.078-0.015,0.209-0.099,0.27c0.018,0.152-0.153,0.23-0.13,0.383
				c-0.047,0.103-0.097,0.254-0.157,0.356c0.007,0.031,0.007,0.059-0.014,0.084c0.08,0.132-0.053,0.178-0.024,0.291
				c0.032,0.151-0.081,0.186-0.081,0.326c-0.014,0.038-0.014,0.112,0.038,0.125c-0.06,0.083-0.007,0.201-0.007,0.313
				c-0.075,0.051-0.067,0.147-0.174,0.164c0.061,0.095-0.177,0.088-0.049,0.229c0.029-0.008,0.066-0.014,0.086,0.018
				c0.03,0.108-0.065,0.015-0.115,0.06c0.012,0.161,0.003,0.321-0.017,0.479c-0.03,0.07-0.074,0.169-0.128,0.234
				c-0.006,0.139-0.035,0.324-0.066,0.514c0,0.222-0.051,0.495,0,0.699c0,0.267,0.105,0.602,0.164,0.863
				c0.162,0.47,0.328,0.885,0.646,1.221c0.076,0.113,0.179,0.273,0.29,0.326c0.036,0.083,0.141,0.148,0.224,0.192
				c0.038,0.07,0.228,0.03,0.19,0.134c0.165,0.069,0.112,0.219,0.358,0.115c0.113,0.003,0.015,0.16,0.113,0.181
				c0.109-0.077,0.071,0.127,0.177,0.061c0.053,0.055,0.199,0.049,0.259,0.104l0.336,0.113c0,0,0.758,0.18,2.094,0.24
				c1.189-0.163,2.357-0.458,3.488-0.876C53.491,43.284,52.998,43.247,52.678,43.178z"/>
			<path style="&st15;" d="M56.792,19.634l-1.278-0.637c-0.4,0-0.874,0.084-1.194-0.155c-0.879-0.555-1.36,0.396-2.162,0.396
				c-0.4,0.085-0.878,0.396-1.106,0.563c-0.246,0.477,0.313,0.635,0.474,0.951c0.226,0.525,1.009,0.495,1.108,1.071
				c0,0.018,0,0.021,0.008,0.033c0.014,0.173,0.199,1.131,1.833,1.73h0.008c0.068,0.021,0.127,0.052,0.171,0.065
				c0.528,0.212,1.048,0.426,1.584,0.455c0.636-0.077,0.965-0.473,1.439-0.882c0.477-0.228,1.113-0.553,1.113-1.188
				c-0.476-0.479-0.557-1.04-0.802-1.603C57.511,20.278,57.201,19.802,56.792,19.634z"/>
		</g>
	</g>
</g>
</svg>
