<?xml version="1.0" encoding="utf-8"?>
<!-- Generator: Adobe Illustrator 16.0.0, SVG Export Plug-In . SVG Version: 6.00 Build 0)  -->
<!DOCTYPE svg PUBLIC "-//W3C//DTD SVG 1.1//EN" "http://www.w3.org/Graphics/SVG/1.1/DTD/svg11.dtd" [
	<!ENTITY st0 "fill:#ACCFF6;">
	<!ENTITY st1 "fill:#7EE2A6;">
	<!ENTITY st2 "fill:#545454;">
	<!ENTITY st3 "fill:none;stroke:#FFFFFF;stroke-miterlimit:10;">
	<!ENTITY st4 "fill:#F7D237;">
	<!ENTITY st5 "fill:#92B7EF;">
	<!ENTITY st6 "fill:#C2C2C2;">
	<!ENTITY st7 "fill:#C2E97E;">
	<!ENTITY st8 "fill:#C779D3;">
	<!ENTITY st9 "fill:#C7E2E2;">
	<!ENTITY st10 "fill:#FBCA61;">
	<!ENTITY st11 "fill:#FC6738;">
	<!ENTITY st12 "fill:#999999;">
	<!ENTITY st13 "fill:#FEE677;">
	<!ENTITY st14 "fill:#FF9B74;">
	<!ENTITY st15 "fill:#FFC7B6;">
	<!ENTITY st16 "fill:#FFFFFF;">
	<!ENTITY st17 "fill:#9C9C9C;">
	<!ENTITY st18 "fill:#68C1C1;">
	<!ENTITY st19 "fill:#DBDBDB;">
	<!ENTITY st20 "fill:#404040;">
	<!ENTITY st21 "fill:#43D17D;">
]>
<svg version="1.1" id="圖層_1" xmlns="http://www.w3.org/2000/svg" xmlns:xlink="http://www.w3.org/1999/xlink" x="0px" y="0px"
	 width="100px" height="100px" viewBox="0 0 100 100" style="enable-background:new 0 0 100 100;" xml:space="preserve">
<g>
	<circle style="&st7;" cx="50" cy="50" r="49.999"/>
	<circle style="&st3;" cx="50" cy="50" r="44.999"/>
	<g>
		<g>
			<g>
				<path style="&st2;" d="M35.046,82.543c-2.202,0-4.002-1.801-4.002-4.002V22.504c0-2.202,1.8-4.003,4.002-4.003h30.354
					c2.203,0,4.003,1.801,4.003,4.003v56.037c0,2.201-1.8,4.002-4.003,4.002H35.046z"/>
			</g>
		</g>
		<g>
			<g>
				<rect x="34.046" y="26.507" style="&st16;" width="32.355" height="48.03"/>
			</g>
		</g>
		<g>
			<g>
				<rect x="48.256" y="22.004" style="&st20;" width="3.844" height="1"/>
			</g>
		</g>
		<g>
			<g>
				<path style="&st20;" d="M47.722,79.541c-0.275,0-0.5-0.226-0.5-0.501v-1c0-0.275,0.225-0.501,0.5-0.501h5.003
					c0.274,0,0.5,0.226,0.5,0.501v1c0,0.275-0.226,0.501-0.5,0.501H47.722z"/>
			</g>
		</g>
		<g>
			<g>
				<g>
					<rect x="36.125" y="28.748" style="&st18;" width="28.107" height="43.546"/>
				</g>
			</g>
		</g>
		<g>
			<g>
				<rect x="42.582" y="52.354" style="&st4;" width="15.283" height="15.284"/>
			</g>
			<g>
				<path style="&st16;" d="M50.224,58.406c0-0.879-0.85-1.592-1.9-1.592c-1.055,0-1.9,0.713-1.9,1.592
					c0,1.756,3.801,4.776,3.801,4.776s3.802-3.021,3.802-4.776c0-0.879-0.847-1.592-1.901-1.592
					C51.074,56.814,50.224,57.527,50.224,58.406z"/>
			</g>
		</g>
		<g>
			<path style="&st11;" d="M57.543,46.022L57.543,46.022c-0.96,1.418-2.346,2.532-3.979,3.168c-0.116,0.053-0.233,0.123-0.316,0.222
				l-2.806,6.073l-2.805-6.073c-0.098-0.111-0.216-0.196-0.345-0.233c-1.618-0.636-2.993-1.745-3.952-3.156
				c-0.946-1.38-1.503-3.052-1.503-4.853c0-2.385,0.965-4.521,2.521-6.077c1.556-1.554,3.712-2.527,6.084-2.527
				c2.37,0,4.53,0.974,6.084,2.527c1.554,1.556,2.521,3.692,2.521,6.077C59.046,42.971,58.495,44.643,57.543,46.022L57.543,46.022z"
				/>
			<path style="&st16;" d="M50.441,36.231L50.441,36.231c-1.362,0-2.59,0.555-3.492,1.445c-0.892,0.892-1.446,2.129-1.446,3.493
				c0,1.342,0.54,2.574,1.42,3.461l0.026,0.03c0.902,0.892,2.13,1.448,3.492,1.448c1.358,0,2.601-0.557,3.491-1.448l0,0
				c0.892-0.896,1.447-2.129,1.447-3.491c0-1.364-0.556-2.602-1.447-3.493C53.042,36.786,51.804,36.231,50.441,36.231L50.441,36.231
				z"/>
			<path style="&st12;" d="M52.587,43.314L52.587,43.314c-0.547,0.552-1.311,0.894-2.148,0.894c-0.84,0-1.599-0.342-2.146-0.894
				L48.272,43.3c-0.539-0.551-0.873-1.306-0.873-2.131c0-0.835,0.342-1.598,0.894-2.148c0.547-0.549,1.306-0.896,2.146-0.896
				c0.838,0,1.602,0.348,2.148,0.896c0.551,0.551,0.888,1.313,0.888,2.148C53.475,42.01,53.138,42.772,52.587,43.314L52.587,43.314z
				"/>
		</g>
	</g>
</g>
</svg>
