<?xml version="1.0" encoding="utf-8"?>
<!-- Generator: Adobe Illustrator 16.0.0, SVG Export Plug-In . SVG Version: 6.00 Build 0)  -->
<!DOCTYPE svg PUBLIC "-//W3C//DTD SVG 1.1//EN" "http://www.w3.org/Graphics/SVG/1.1/DTD/svg11.dtd">
<svg version="1.1" id="圖層_1" xmlns="http://www.w3.org/2000/svg" xmlns:xlink="http://www.w3.org/1999/xlink" x="0px" y="0px"
	 width="100px" height="100px" viewBox="0 0 100 100" enable-background="new 0 0 100 100" xml:space="preserve">
<g>
	<circle fill="#92B7EF" cx="50" cy="50" r="49.999"/>
	<circle fill="none" stroke="#FFFFFF" stroke-miterlimit="10" cx="50" cy="50" r="44.999"/>
	<g>
		<g>
			<path fill="#FEE677" d="M49.999,78.37c-3.967,0-7.744-0.817-11.174-2.289l-5.59,13.042c5.143,2.207,10.813,3.431,16.764,3.431
				c10.365,0,19.863-3.705,27.242-9.865l-9.08-10.896C63.239,75.896,56.911,78.37,49.999,78.37z"/>
		</g>
		<g>
			<path fill="#FFFFFF" d="M78.37,49.999h14.184c0-21.714-16.264-39.628-37.275-42.227l-1.76,14.083
				C67.526,23.59,78.37,35.522,78.37,49.999z"/>
		</g>
		<g>
			<path fill="#AEDD47" d="M38.825,76.081C28.714,71.741,21.63,61.7,21.63,49.999c0-15.665,12.703-28.369,28.369-28.369
				c1.193,0,2.365,0.082,3.52,0.226l1.76-14.083c-1.729-0.216-3.49-0.326-5.279-0.326c-23.5,0-42.553,19.053-42.553,42.553
				c0,17.548,10.623,32.615,25.789,39.124L38.825,76.081z"/>
		</g>
		<g>
			<g>
				<path fill="#FFFFFF" d="M92.554,49.999H78.37c0,2.705-0.381,5.319-1.088,7.796l13.645,3.898
					C91.987,57.979,92.554,54.055,92.554,49.999z"/>
			</g>
			<g>
				<path fill="#FCEFB9" d="M90.927,61.693l-13.645-3.898c-1.584,5.547-4.809,10.399-9.121,13.998l9.08,10.896
					C83.71,77.295,88.552,70.014,90.927,61.693z"/>
			</g>
		</g>
	</g>
	<circle fill="#92B7EF" cx="49.999" cy="50" r="37.445"/>
	<g>
		<g>
			<rect x="25.81" y="26.858" fill="#DBDBDB" width="48.38" height="50.487"/>
		</g>
		<g>
			<g>
				<polygon fill="#DBDBDB" points="34.226,26.858 74.189,26.858 69.984,22.655 34.226,22.655 				"/>
			</g>
		</g>
		<g>
			<polygon fill="#C2C2C2" points="74.189,77.346 25.81,77.346 25.81,73.137 69.984,73.137 			"/>
		</g>
		<g>
			<path fill="#FFFFFF" d="M30.015,22.655c-2.323,0-4.205,1.883-4.205,4.203v50.487c0-2.325,1.882-4.209,4.205-4.209h39.97V22.655
				H30.015z"/>
		</g>
	</g>
	<path fill="#68C1C1" d="M46.683,28.7c0-0.1,0.004-0.148,0.051-0.235c0.031-0.065,0.033-0.107,0.033-0.188
		c0.002-0.179,0.079-0.195,0.191-0.301c0.053-0.053,0.058-0.12,0.121-0.16c0.051-0.033,0.139-0.05,0.127-0.142
		c0.074-0.034,0.201-0.06,0.256-0.118c0.072-0.077,0.054-0.158,0.185-0.174c0.176-0.025,0.259,0.283,0.419,0.123
		c0.142-0.146,0.229-0.272,0.236-0.487c0.006-0.13-0.09-0.146-0.135-0.249c-0.041-0.085-0.012-0.225-0.008-0.318
		c0.174-0.046,0.258-0.1,0.309-0.273c0.041-0.142,0.129-0.232,0.188-0.361c0.058-0.123,0.032-0.304,0.17-0.367
		c0.065-0.032,0.146-0.021,0.216-0.034c0.086-0.02,0.148-0.057,0.217-0.114c0.141-0.121,0.218-0.151,0.399-0.103
		c0.136,0.036,0.302,0.061,0.364,0.202c0.066,0.146,0.041,0.316,0.104,0.465c0.058,0.137,0.159,0.25,0.223,0.383
		c0.075,0.157,0.081,0.328,0.096,0.499c0.015,0.158,0.062,0.257,0.159,0.382c0.125,0.006,0.263,0.087,0.375,0.142
		c0.146,0.067,0.321,0.043,0.395,0.203c0.064,0.134,0.07,0.287,0.193,0.382c0.126,0.095,0.307,0.146,0.464,0.1
		c0.167-0.048,0.253-0.124,0.423-0.028c0.076,0.042,0.339,0.242,0.402,0.202c0.053-0.03,0.021-0.133,0.087-0.171
		c0.06-0.032,0.201-0.025,0.266-0.021c0.089,0.01,0.328,0.073,0.34,0.172c0.01,0.075-0.072,0.164-0.076,0.246
		c-0.005,0.094,0.036,0.16,0.073,0.244c0.07,0.157,0.051,0.391,0.034,0.561c-0.13,0.001-0.153,0.11-0.161,0.213
		c-0.007,0.083-0.016,0.073-0.055,0.138c-0.032,0.05-0.035,0.091-0.028,0.151c0.009,0.095,0.029,0.191,0.044,0.286
		c0.016,0.138-0.058,0.147-0.141,0.232c-0.078,0.082-0.069,0.173-0.069,0.282c0,0.048-0.011,0.113,0.003,0.156
		c0.012,0.048,0.049,0.064,0.071,0.101c0.024,0.041,0.036,0.087,0.046,0.134c0.019,0.076,0.035,0.063,0.08,0.113
		c0.068,0.079,0.066,0.168,0.113,0.26c0.065,0.117-0.068,0.312-0.129,0.425c-0.074,0.145-0.164,0.281-0.262,0.409
		c-0.115,0.145-0.246,0.251-0.392,0.364c-0.122,0.096-0.155,0.206-0.199,0.353c-0.042,0.135-0.129,0.308-0.034,0.439
		c0.077,0.108,0.248,0.229,0.379,0.267c0.187,0.057,0.412-0.022,0.609-0.009c0.207,0.015,0.324,0.139,0.48,0.268
		c0.098,0.079,0.51,0.28,0.563,0.064c0.111-0.029,0.159,0.033,0.162,0.131c0,0.051-0.003,0.097,0.011,0.146
		c0.039,0.148,0.086,0.307,0.138,0.456c0.041,0.117,0.097,0.235,0.103,0.359c0.001,0.131,0.021,0.256,0.019,0.386
		c-0.002,0.147-0.079,0.184-0.153,0.301c-0.053,0.08-0.085,0.167-0.142,0.248c-0.145,0.208,0.157,0.252,0.295,0.346
		c0.048,0.034,0.096,0.074,0.154,0.086c0.069,0.015,0.145-0.021,0.196,0.035c0.123,0.134-0.011,0.354,0.082,0.507
		c0.048,0.08,0.124,0.118,0.167,0.21c0.031,0.073,0.08,0.163,0.086,0.243c0.009,0.102-0.005,0.224,0.019,0.325
		c0.026,0.114,0.159,0.085,0.224,0.18c0.047,0.067,0.034,0.154,0.078,0.221c0.059,0.09,0.164,0.216,0.25,0.274
		c0.065,0.044,0.151,0.042,0.218,0.078c0.07,0.04,0.121,0.117,0.158,0.188c0.034,0.057,0.042,0.076,0.1,0.105
		c0.04,0.019,0.087,0.023,0.13,0.05c0.08,0.05,0.131,0.179,0.219,0.22c0.073,0.032,0.051-0.014,0.089-0.064
		c0.035-0.051,0.07-0.055,0.125-0.08c0.095,0.1,0.021,0.168-0.031,0.252c-0.062,0.092-0.089,0.169-0.089,0.283
		c0.002,0.107-0.02,0.208-0.02,0.322c0,0.117-0.033,0.229-0.019,0.339c0.095,0.012,0.19-0.007,0.274,0.024
		c0.078,0.028,0.164,0.05,0.236,0.087c0.035,0.223-0.237,0.396-0.373,0.546c-0.117,0.133-0.318,0.479-0.434,0.156
		c-0.128-0.027-0.135,0.178-0.162,0.248c-0.034,0.086-0.084,0.187-0.09,0.279c-0.01,0.152-0.06,0.346-0.158,0.471
		c-0.059,0.08-0.148,0.08-0.197,0.172c-0.063,0.118-0.08,0.25-0.135,0.37c-0.068,0.154-0.189,0.274-0.256,0.432
		c-0.033,0.075-0.068,0.144-0.117,0.21c-0.037,0.049-0.101,0.105-0.104,0.17c-0.006,0.11,0.121,0.249,0.155,0.354
		c0.045,0.138,0.1,0.265,0.179,0.387c0.093,0.146,0.21,0.147,0.372,0.155c0.297,0.016,0.549,0.132,0.816,0.242
		c0.152,0.064,0.318,0.066,0.479,0.104c0.126,0.03,0.232,0.076,0.313,0.17c0.092,0.106,0.191,0.194,0.32,0.248
		c0.151,0.062,0.32-0.005,0.474,0.048c0.106,0.036,0.247,0.128,0.313,0.22c0.075,0.105,0.112,0.247,0.215,0.333
		c0.058,0.049,0.138,0.07,0.199,0.121c0.065,0.055,0.117,0.121,0.184,0.174c0.093,0.074,0.167,0.165,0.269,0.229
		c0.051,0.032,0.115,0.055,0.158,0.098c0.058,0.052,0.074,0.149,0.143,0.189c0.129,0.076,0.326-0.008,0.466,0.011
		c0.146,0.018,0.224,0.193,0.122,0.299c-0.121,0.122-0.217,0.187-0.143,0.378c0.026,0.072,0.076,0.118,0.09,0.201
		c0.014,0.074,0.033,0.146,0.047,0.217c0.016,0.079,0,0.156,0.043,0.225c0.069,0.109,0.238,0.189,0.276,0.313
		c0.021,0.077-0.015,0.161,0.007,0.237c0.027,0.09,0.085,0.12,0.027,0.216c-0.092,0.154-0.164,0.229-0.086,0.414
		c0.061,0.143-0.086,0.256-0.212,0.29c-0.107,0.028-0.221,0.157-0.288,0.251c-0.054,0.073-0.027,0.144-0.051,0.224
		c-0.022,0.071-0.104,0.104-0.104,0.185s0.093,0.116,0.031,0.188c-0.064,0.078-0.137,0.048-0.135,0.186
		c0,0.062,0.028,0.088,0.053,0.141c0.025,0.059,0.018,0.05,0.008,0.107c-0.008,0.051-0.026,0.042-0.014,0.098
		c0.009,0.042,0.045,0.055,0.036,0.107c-0.01,0.001-0.022,0.003-0.034,0.006c-0.002,0.012-0.004,0.023-0.008,0.035
		c-0.01,0.005-0.049,0.017-0.06,0.017c-0.038-0.064-0.05-0.142-0.142-0.141c-0.102,0.001-0.106,0.112-0.162,0.175
		c-0.059,0.064-0.134,0.08-0.111,0.192c0.018,0.075,0.076,0.085,0.112,0.148c0.047,0.085-0.04,0.155-0.028,0.238
		c0.002,0.06,0.098,0.153,0.028,0.218c-0.026,0.022-0.095,0-0.13,0.02c-0.043,0.023-0.088,0.089-0.133,0.123
		c-0.063,0.045-0.123,0.095-0.184,0.146c-0.074,0.067-0.154,0.135-0.229,0.208c-0.023,0.025-0.067,0.054-0.085,0.083
		c-0.021,0.043-0.003,0.083-0.012,0.13c-0.013,0.057-0.063,0.092-0.08,0.144c-0.015,0.046-0.007,0.116-0.001,0.164
		c0.1,0.005,0.194-0.009,0.287,0.028c0.096,0.039,0.166,0.111,0.244,0.174c0.148,0.12,0.268,0.272,0.367,0.436
		c0.09,0.151,0.104,0.337,0.218,0.476c0.065,0.08,0.125,0.151-0.021,0.189c-0.139,0.037-0.271,0.047-0.311,0.21
		c-0.025,0.126,0.025,0.281-0.041,0.396c-0.091,0.154-0.318,0.18-0.459,0.273c-0.069,0.046-0.135,0.093-0.187,0.157
		c-0.079,0.089-0.061,0.156-0.045,0.274c0.011,0.096,0.026,0.188,0.052,0.282c0.025,0.09,0.07,0.136,0.116,0.214
		c0.026,0.047,0.037,0.1,0.065,0.146c0.048,0.086,0.107,0.143,0.146,0.229c0.036,0.091,0.055,0.184,0.095,0.273
		c0.045,0.097,0.112,0.165,0.173,0.256c0.102,0.147,0.167,0.328,0.341,0.405c0.145,0.064,0.364,0.201,0.408,0.367
		c0.106,0.017,0.214,0.006,0.315,0.037c0.076,0.024,0.12,0.089,0.198,0.121c0.093,0.038,0.192,0.035,0.257,0.105
		c0.065,0.075,0.1,0.176,0.1,0.275c0.078,0.024,0.143-0.05,0.211-0.075c0.068-0.026,0.168-0.034,0.242-0.042
		c0.081-0.01,0.168-0.025,0.207,0.047c0.029,0.057-0.015,0.057,0.06,0.09c0.03,0.014,0.081,0.017,0.113,0.026
		c0.305,0.086,0.565,0.331,0.833,0.499c0.135,0.083,0.262,0.179,0.401,0.253c0.065,0.035,0.131,0.065,0.194,0.098
		c0.068,0.039,0.129,0.101,0.199,0.132c0.066,0.029,0.171,0.015,0.229,0.06c0.063,0.052,0.042,0.164,0.125,0.198
		c0.078,0.035,0.154-0.041,0.236-0.004c0.028,0.011,0.037,0.036,0.076,0.047c0.031,0.011,0.086,0.015,0.121,0.021
		c0.092,0.02,0.184,0.055,0.279,0.043c0.087-0.014,0.146-0.094,0.238-0.054c0.093,0.038,0.129,0.053,0.234,0.04
		c0.101-0.01,0.202-0.004,0.301-0.015c0.045-0.007,0.149-0.002,0.193-0.025c0.087-0.042,0.103-0.171,0.191-0.223
		c0.091-0.053,0.188-0.092,0.28-0.141c0.078-0.04,0.17-0.129,0.255-0.141c0.1-0.013,0.192,0.04,0.278,0.078
		c0.078,0.031,0.164,0.058,0.245,0.087c0.102,0.035,0.213,0.005,0.32,0.023c0.006,0.056-0.102,0.098-0.138,0.145
		c-0.048,0.066-0.065,0.129-0.067,0.21c-0.003,0.137,0.08,0.261,0.079,0.396c-0.005,0.122-0.114,0.218-0.14,0.34
		c-0.061,0.275-0.627,0.143-0.805,0.102c-0.168-0.042-0.33-0.031-0.504-0.037c-0.107-0.005-0.19-0.07-0.291-0.111
		c-0.118-0.048-0.174-0.094-0.297-0.047c-0.14,0.055-0.285,0.111-0.438,0.096c-0.06-0.007-0.109-0.027-0.172-0.018
		c-0.002,0.065-0.105,0.149-0.149,0.194c-0.073,0.078-0.199,0.161-0.306,0.181c-0.152,0.023-0.258-0.116-0.35-0.215
		c-0.115-0.123-0.231-0.226-0.401-0.261c-0.219-0.045-0.439-0.014-0.659,0.038c-0.094,0.024-0.221,0.035-0.299,0.092
		c-0.069,0.05-0.115,0.104-0.182-0.004c-0.047-0.08-0.055-0.091-0.152-0.129c-0.146-0.06-0.285-0.289-0.452-0.211
		c-0.069,0.033-0.17,0.092-0.207,0.161c-0.03,0.058-0.021,0.137-0.037,0.201c-0.008,0.038-0.041,0.073-0.047,0.11
		c-0.007,0.025,0.009,0.042,0.005,0.065c-0.006,0.056-0.026,0.099-0.054,0.147c-0.059,0.114-0.149,0.205-0.206,0.319
		c-0.019,0.033-0.04,0.065-0.076,0.082c-0.036,0.018-0.08,0.002-0.117,0.017c-0.087,0.033-0.133,0.14-0.217,0.178
		c-0.043,0.019-0.089,0.042-0.138,0.062c-0.166,0.077-0.346,0.195-0.54,0.17c-0.122-0.016-0.193-0.168-0.318-0.166
		c-0.063,0.002-0.138,0.018-0.201,0.026c-0.071,0.008-0.152,0.008-0.222,0.01c-0.091,0.006-0.121-0.057-0.168-0.124
		c-0.033-0.048-0.039-0.12-0.085-0.158c-0.1-0.079-0.277,0.06-0.383,0.077c-0.111,0.021-0.176-0.054-0.27-0.1
		c-0.124-0.057-0.238-0.054-0.352,0.019c-0.125,0.077-0.224,0.07-0.366,0.061c-0.168-0.009-0.34-0.001-0.507,0.003
		c-0.113,0-0.19,0.035-0.234,0.14c-0.049,0.118-0.079,0.24-0.119,0.361c-0.01,0.038-0.031,0.072-0.041,0.108
		c-0.014,0.048-0.004,0.102-0.039,0.139c-0.035,0.041-0.118,0.03-0.166,0.043c-0.118,0.025-0.245,0.022-0.365,0.022
		c-0.07,0-0.29-0.035-0.322,0.048c-0.014,0.039,0.004,0.123,0.004,0.168c0.002,0.196-0.203,0.332-0.248,0.515
		c-0.021,0.095-0.015,0.19-0.016,0.29c-0.002,0.103-0.046,0.178-0.079,0.274c-0.03,0.087-0.023,0.183-0.023,0.273
		c0,0.092,0.012,0.189,0.033,0.279c0.036,0.134,0.113,0.106,0.225,0.102c0.111-0.004,0.149,0.071,0.203,0.149
		c0.053,0.077,0.13,0.133,0.19,0.203c0.061,0.072,0.101,0.156,0.147,0.234c0.086,0.149,0.085,0.348,0.046,0.514
		c-0.026,0.115-0.117,0.205-0.152,0.322c-0.026,0.088-0.038,0.122-0.124,0.172c-0.079,0.046-0.116,0.092-0.116,0.189
		c0,0.051,0.014,0.082,0.032,0.13c0.016,0.04,0.015,0.074,0.021,0.117c0.066,0.022,0.113,0.054,0.123,0.125
		c0.01,0.072-0.023,0.126-0.023,0.193c-0.002,0.075,0.092,0.081,0.144,0.108c0.07,0.036,0.135,0.076,0.206,0.104
		c0.088,0.034,0.056,0.073,0.063,0.156c0.003,0.067,0.048,0.113,0.052,0.184c0.002,0.072,0.016,0.151-0.045,0.203
		c-0.05,0.043-0.127,0.061-0.188,0.088c-0.095,0.042-0.129,0.156-0.104,0.251c0.015,0.065,0.036,0.116,0.036,0.186
		c0.003,0.067-0.002,0.136,0.008,0.203c0.007,0.032,0.031,0.056,0.039,0.089c0.008,0.032,0.002,0.072,0.001,0.105
		c-0.001,0.07,0.001,0.138,0.009,0.207c0.007,0.041,0.021,0.059,0.034,0.096c0.013,0.031,0.007,0.066,0.008,0.1
		c0,0.072-0.025,0.119-0.068,0.178c-0.033,0.046-0.119,0.098-0.133,0.15c-0.021,0.082,0.041,0.149,0.066,0.223
		c0.012,0.032,0.005,0.07,0.02,0.103c0.024,0.046,0.1,0.087,0.138,0.122c0.12,0.1,0.246,0.051,0.386,0.08
		c0.14,0.031,0.236,0.167,0.355,0.242c0.117,0.078,0.271,0.078,0.406,0.033c0.121-0.041,0.355-0.156,0.416,0.025
		c0.045,0.004,0.095,0,0.138-0.019c0.046-0.019,0.078-0.05,0.126-0.007c0.029,0.027,0.029,0.073,0.057,0.108
		c0.029,0.034,0.068,0.046,0.112,0.059c0.04,0.011,0.076,0.03,0.116,0.043c0.052,0.016,0.107-0.006,0.156,0.021
		c0.043,0.025,0.059,0.078,0.091,0.111c0.038,0.041,0.095,0.054,0.136,0.094c0.036,0.033,0.064,0.077,0.104,0.109
		c0.095,0.086,0.26,0.101,0.381,0.121c0.082,0.016,0.164,0.016,0.214,0.091c0.055,0.08,0.039,0.162,0.012,0.245
		c-0.029,0.093-0.012,0.185-0.034,0.276c-0.023,0.091-0.137,0.122-0.217,0.147c-0.105,0.033-0.109-0.012-0.182-0.068
		c-0.094-0.066-0.187,0.014-0.254,0.081c-0.144,0.134-0.373,0.05-0.518,0.182c-0.049,0.045-0.028,0.095-0.105,0.104
		c-0.047,0.006-0.098-0.01-0.148,0.009c-0.049,0.019-0.1,0.061-0.148,0.087c-0.082,0.045-0.164,0.094-0.211,0.179
		c-0.033,0.068-0.067,0.109-0.143,0.134c-0.146,0.045-0.305-0.025-0.445,0.019c-0.086,0.028-0.178,0.06-0.257,0.104
		c-0.075,0.037-0.197,0.088-0.247,0.158c-0.051,0.076-0.113,0.139-0.218,0.128c-0.04-0.007-0.476-0.114-0.489-0.069
		c-0.066,0.255-0.291,0.043-0.426-0.01c-0.067-0.027-0.143,0.002-0.187-0.07c-0.048-0.076-0.028-0.162-0.077-0.236
		c-0.035-0.061-0.061-0.139-0.111-0.189c-0.052-0.056-0.151-0.021-0.223-0.027c-0.066-0.006-0.104-0.055-0.166-0.067
		c-0.034-0.009-0.084-0.019-0.116-0.005c-0.028,0.016-0.046,0.056-0.074,0.075c-0.143,0.106-0.329,0.061-0.492,0.092
		c-0.072,0.015-0.159,0.044-0.219-0.02c-0.024-0.025-0.024-0.062-0.048-0.089c-0.02-0.021-0.067-0.046-0.096-0.055
		c-0.152-0.061-0.334-0.065-0.498-0.095c-0.078-0.015-0.142-0.028-0.213-0.069c-0.076-0.04-0.128-0.118-0.206-0.158
		c-0.143-0.069-0.287-0.027-0.438-0.056c-0.051-0.009-0.043-0.023-0.078-0.05c-0.027-0.02-0.072-0.027-0.103-0.031
		c-0.063-0.007-0.163-0.016-0.224,0.013c-0.005,0.116-0.011,0.197-0.072,0.302c-0.046,0.08-0.106,0.164-0.193,0.201
		c-0.098,0.042-0.192,0.02-0.293-0.002c-0.056-0.011-0.251-0.088-0.273-0.003c-0.053,0.009-0.117,0.005-0.171-0.001
		c-0.062-0.007-0.132-0.008-0.198-0.008c-0.113,0-0.256,0.04-0.356,0c-0.062-0.025-0.101-0.04-0.163-0.051
		c-0.059-0.01-0.117-0.021-0.176-0.029c-0.15-0.018-0.326,0.047-0.433-0.094c-0.029-0.041-0.049-0.081-0.083-0.118
		c-0.033-0.033-0.04-0.061-0.06-0.101c-0.02-0.041-0.054-0.071-0.073-0.111c-0.019-0.029-0.032-0.059-0.051-0.086
		c-0.038-0.059-0.082-0.118-0.094-0.19c-0.01-0.063,0.011-0.124-0.011-0.188c-0.021-0.062-0.055-0.12-0.078-0.183
		c-0.024-0.063-0.036-0.129-0.053-0.193c-0.022-0.081-0.001-0.119-0.074-0.173c-0.061-0.044-0.114-0.089-0.173-0.134
		c-0.051-0.039-0.027-0.111-0.045-0.166c-0.023-0.075-0.056-0.146-0.083-0.22c-0.019-0.049-0.013-0.101-0.032-0.148
		c-0.022-0.047-0.047-0.037-0.092-0.064c-0.051-0.031-0.102-0.069-0.143-0.116c-0.041-0.048-0.045-0.104-0.074-0.158
		c-0.045-0.081-0.059-0.197-0.059-0.297c0-0.125,0.023-0.242,0.032-0.368c0.009-0.174,0.037-0.33,0.067-0.497
		c0.031-0.171-0.048-0.341-0.208-0.416c-0.04-0.019-0.132-0.043-0.169-0.002c-0.023,0.021-0.023,0.072-0.047,0.104
		c-0.05,0.074-0.133,0.12-0.182,0.194c-0.033,0.048-0.051,0.116-0.096,0.149c-0.049,0.038-0.109,0.041-0.166,0.055
		c-0.122,0.025-0.235,0.032-0.361,0.034c-0.077,0-0.168-0.002-0.24-0.034c-0.057-0.028-0.133-0.124-0.136-0.189
		c-0.001-0.096,0.016-0.215,0.037-0.307c0.019-0.083,0.063-0.141,0.034-0.229c-0.058-0.175-0.318-0.113-0.451-0.089
		c-0.176,0.031-0.343,0.046-0.521-0.002c-0.142-0.037-0.335-0.101-0.381-0.26c-0.044-0.159,0.068-0.314,0.074-0.475
		c0.005-0.15-0.055-0.361-0.165-0.47c-0.133-0.133-0.266-0.019-0.299,0.131c-0.018,0.083-0.023,0.165-0.059,0.246
		c-0.042,0.096-0.107,0.179-0.178,0.253c-0.023,0.025-0.098,0.121-0.141,0.102c-0.033-0.017-0.036-0.142-0.047-0.174
		c-0.038-0.146-0.159-0.275-0.136-0.435c0.031-0.182,0.065-0.313-0.002-0.496c-0.063-0.164-0.081-0.313-0.081-0.488
		c0-0.175,0.018-0.298,0.177-0.389c0.099-0.054,0.195-0.105,0.284-0.172c0.089-0.065,0.188-0.124,0.11-0.233
		c-0.087-0.125-0.15-0.262-0.218-0.4c-0.032-0.067-0.082-0.138-0.092-0.216c-0.008-0.072,0.01-0.146,0.004-0.22
		c-0.008-0.108-0.057-0.202-0.148-0.262c-0.053-0.035-0.103-0.074-0.154-0.106c-0.061-0.04-0.129-0.036-0.195-0.053
		c-0.08-0.022-0.145-0.075-0.223-0.107c-0.053-0.021-0.096-0.024-0.143-0.064c-0.119-0.09-0.229-0.199-0.311-0.321
		c-0.084-0.122-0.164-0.248-0.248-0.375c-0.062-0.101-0.123-0.21-0.206-0.299c-0.049-0.052-0.086-0.115-0.137-0.17
		c-0.138-0.148-0.29-0.306-0.45-0.432c-0.133-0.101-0.281-0.183-0.434-0.248c-0.324-0.14-0.686-0.164-1.035-0.123
		c-0.078,0.006-0.155,0.011-0.232,0.037c-0.174,0.064-0.276,0.262-0.387,0.402c-0.131,0.163-0.284,0.286-0.369,0.482
		c-0.035,0.083-0.096,0.145-0.162,0.209c-0.073,0.07-0.13,0.129-0.212,0.187c-0.046,0.03-0.081,0.07-0.122,0.105
		c-0.045,0.04-0.084,0.059-0.121,0.106c-0.039,0.055-0.09,0.1-0.135,0.146c-0.106,0.104-0.216,0.206-0.326,0.304
		c-0.093,0.08-0.19,0.154-0.296,0.212c-0.078,0.044-0.161,0.065-0.244,0.095c-0.073,0.028-0.118,0.014-0.191-0.006
		c-0.056-0.014-0.11-0.031-0.161-0.059c-0.157-0.082-0.298-0.168-0.392-0.318c-0.039-0.062-0.07-0.121-0.099-0.189
		c-0.033-0.074-0.064-0.149-0.098-0.226c-0.029-0.067-0.023-0.113-0.028-0.188c-0.013-0.17-0.024-0.334-0.063-0.502
		c-0.021-0.092-0.033-0.186-0.037-0.277c-0.003-0.086-0.02-0.186-0.003-0.27c0.011-0.062,0.039-0.115,0.046-0.18
		c0.009-0.097,0.021-0.196,0.007-0.292c-0.007-0.05-0.036-0.107-0.053-0.155c-0.028-0.071-0.032-0.153-0.062-0.23
		c-0.036-0.083-0.079-0.163-0.124-0.242c-0.064-0.114-0.118-0.234-0.176-0.353c-0.104-0.204-0.174-0.424-0.271-0.634
		c-0.086-0.189-0.21-0.408-0.222-0.618c-0.005-0.095,0.004-0.198,0.03-0.287c0.027-0.095,0.088-0.172,0.135-0.257
		c0.113-0.201,0.221-0.416,0.388-0.583c0.005,0.092,0,0.177-0.024,0.266c-0.021,0.081-0.057,0.174-0.035,0.259
		c0.044,0.161,0.284,0.181,0.419,0.193c0.07,0.009,0.169,0.021,0.205-0.054c0.036-0.072-0.009-0.165,0.008-0.241
		c0.021-0.102,0.12-0.139,0.205-0.171c0.106-0.04,0.208-0.081,0.306-0.143c0.057-0.033,0.049-0.077,0.091-0.122
		c0.028-0.034,0.067-0.067,0.102-0.1c0.056-0.056,0.078-0.122,0.066-0.2c-0.046-0.024-0.108-0.015-0.16-0.015
		c-0.139,0-0.271,0.022-0.408,0.037c-0.14,0.016-0.284,0.027-0.415,0.082c-0.166,0.066-0.258,0.281-0.185,0.449
		c0.072,0.178,0.327,0.145,0.483,0.137c0.206-0.01,0.401-0.046,0.598-0.109c0.172-0.057,0.33-0.15,0.471-0.26
		c0.072-0.056,0.144-0.115,0.212-0.177c0.063-0.054,0.079-0.113,0.131-0.176c0.04-0.052,0.095-0.098,0.136-0.152
		c0.068-0.085,0.141-0.159,0.213-0.235c0.086-0.091,0.164-0.192,0.249-0.285c0.104-0.108,0.193-0.216,0.27-0.343
		c0.034-0.059,0.06-0.101,0.075-0.166c0.026-0.114,0.037-0.235,0.091-0.341c0.052-0.104,0.134-0.193,0.169-0.305
		c0.025-0.084,0.032-0.161,0.047-0.247c0.021-0.116,0.117-0.212,0.117-0.337c0-0.047-0.008-0.076,0.017-0.121
		c0.028-0.057,0.069-0.097,0.078-0.161c0.013-0.097,0.052-0.178,0.052-0.278c0.004-0.248,0.072-0.489,0.063-0.739
		c-0.006-0.165,0.088-0.312,0.088-0.473c0-0.061-0.051-0.121,0-0.182c0-0.068-0.018-0.125,0.01-0.188
		c0.023-0.056,0.033-0.114,0.043-0.173c0.018-0.141,0-0.295,0-0.44c0.001-0.114-0.047-0.244-0.077-0.356
		c-0.021-0.095-0.032-0.195-0.036-0.293c-0.002-0.076,0.016-0.137-0.002-0.21c-0.06-0.262-0.09-0.519-0.117-0.785
		c-0.014-0.124-0.094-0.22-0.128-0.338c-0.044-0.139-0.082-0.269-0.163-0.392c-0.053-0.081-0.099-0.162-0.15-0.246
		c-0.111-0.183-0.271-0.333-0.391-0.514c-0.086-0.131-0.164-0.262-0.271-0.376c-0.142-0.156-0.312-0.288-0.464-0.436
		c-0.055-0.054-0.122-0.094-0.174-0.149c-0.082-0.082-0.159-0.152-0.25-0.225c-0.075-0.058-0.148-0.117-0.222-0.181
		c-0.077-0.064-0.162-0.114-0.238-0.181c-0.088-0.076-0.172-0.155-0.258-0.233c-0.102-0.091-0.217-0.165-0.316-0.257
		c-0.246-0.221-0.492-0.43-0.789-0.573c-0.38-0.187-0.734-0.409-1.145-0.541c-0.117-0.036-0.236-0.067-0.355-0.092
		c-0.092-0.018-0.181-0.033-0.27-0.064c-0.1-0.034-0.19-0.085-0.291-0.114c-0.195-0.061-0.414,0.018-0.598-0.077
		c-0.095-0.046-0.174-0.123-0.264-0.183c-0.082-0.057-0.174-0.095-0.264-0.146c-0.199-0.109-0.272-0.279-0.235-0.5
		c0.04-0.235,0.024-0.429-0.094-0.645c-0.089-0.161-0.185-0.318-0.268-0.485c-0.05-0.102-0.093-0.202-0.11-0.313
		c-0.017-0.116-0.019-0.235-0.047-0.352c-0.042-0.183-0.176-0.419,0.026-0.556c0.095-0.063,0.21-0.047,0.313-0.08
		c0.053-0.018,0.103-0.044,0.145-0.079c0.057-0.05,0.053-0.101,0.068-0.169c0.024-0.108-0.014-0.209-0.05-0.309
		c-0.078-0.214-0.05-0.435-0.09-0.65c-0.008-0.042-0.033-0.115-0.015-0.153c0.018-0.045,0.104-0.096,0.143-0.126
		c0.066-0.054,0.139-0.103,0.203-0.161c0.053-0.047,0.093-0.104,0.139-0.156c0.029-0.034,0.063-0.063,0.095-0.094
		c0.044-0.048,0.099-0.083,0.145-0.132c0.04-0.04,0.077-0.1,0.097-0.151c0.008-0.026,0-0.068,0.014-0.089
		c0.015-0.02,0.058-0.02,0.076-0.023c0.119-0.031,0.187-0.125,0.271-0.214c0.039-0.045,0.104-0.08,0.14-0.128
		s0.041-0.121,0.048-0.18c0.007-0.048,0.017-0.102,0.063-0.134c0.051-0.039,0.113-0.064,0.164-0.104
		c0.059-0.04,0.091-0.095,0.145-0.141c0.047-0.039,0.09-0.08,0.13-0.127c0.071-0.078,0.164-0.128,0.191-0.236
		c0.013-0.049,0.013-0.121,0.046-0.163c0.039-0.043,0.107-0.086,0.152-0.122c0.112-0.086,0.222-0.183,0.328-0.273
		c0.121-0.105,0.226-0.221,0.34-0.324c0.094-0.086,0.137-0.191,0.192-0.305c0.044-0.094,0.131-0.231,0.241-0.26
		c0.053-0.014,0.131-0.012,0.187-0.014c0.063-0.003,0.126-0.001,0.188-0.001c0.053,0,0.139,0.017,0.177-0.025
		c0.036-0.045,0.02-0.12,0.033-0.173c0.015-0.064,0.015-0.138,0.046-0.199c0.029-0.049,0.075-0.093,0.107-0.143
		c0.023-0.039,0.039-0.075,0.056-0.116c0.024-0.068,0.065-0.134,0.101-0.198c0.063-0.112,0.127-0.233,0.205-0.335
		c0.085-0.107,0.149-0.234,0.209-0.357c0.029-0.06,0.023-0.116,0.051-0.175c0.031-0.059,0.08-0.102,0.124-0.152
		c0.077-0.093,0.188-0.124,0.282-0.196c0.05-0.034,0.07-0.095,0.114-0.136c0.042-0.035,0.088-0.069,0.134-0.101
		c0.201-0.139,0.413-0.231,0.543-0.451c0.035-0.061,0.025-0.141,0.034-0.204c0.011-0.064,0.033-0.139,0.067-0.199
		c0.074-0.128,0.195-0.214,0.334-0.27c0.012-0.068,0.002-0.148,0.002-0.219c0-0.034,0.002-0.072-0.006-0.104
		c-0.012-0.039-0.03-0.044,0.006-0.083c0.049-0.057,0.096-0.069,0.121-0.145c0.026-0.07,0.045-0.136,0.057-0.212
		c0.115-0.007,0.232-0.015,0.347,0.012c0.128,0.027,0.074,0.181,0.091,0.273c0.029,0.161,0.189,0.063,0.287,0.122
		c0.027,0.017,0.051,0.048,0.075,0.069c0.044,0.043,0.09,0.076,0.144,0.105c0.088,0.048,0.168,0.116,0.27,0.131
		c0.049,0.005,0.094-0.001,0.141,0.005c0.076,0.015,0.09,0.006,0.137-0.054c0.063-0.079,0.115-0.174,0.207-0.221
		c0.08-0.043,0.215-0.021,0.296,0.001c0.083,0.021,0.159,0.068,0.241,0.093c0.094,0.03,0.183,0.066,0.273,0.1
		c0.052,0.019,0.102,0.035,0.152,0.051c0.046,0.017,0.08,0.048,0.125,0.065c0.051,0.022,0.094,0.02,0.129-0.02
		c0.057-0.065,0.072-0.104,0.076-0.186c0.003-0.068,0.005-0.145,0.035-0.207c0.017-0.035,0.054-0.061,0.071-0.097
		c0.024-0.047,0.005-0.093,0.018-0.144c0.026-0.086,0.114-0.152,0.155-0.232c0.039-0.08,0.043-0.181,0.042-0.271
		c-0.001-0.045,0.003-0.093,0.003-0.137c-0.003-0.05-0.02-0.065-0.037-0.104c-0.021-0.04-0.018-0.08-0.01-0.123
		c0.011-0.068,0.002-0.086-0.029-0.145c-0.045-0.08-0.062-0.174,0.01-0.234c0.074-0.066,0.156-0.125,0.229-0.191
		c0.091-0.085,0.167-0.177,0.252-0.268c0.081-0.083,0.145-0.198,0.265-0.225c0.057-0.012,0.111,0,0.168-0.007
		c0.109-0.014,0.222-0.014,0.334-0.024c0.07-0.006,0.123-0.03,0.191-0.045c0.072-0.017,0.148-0.014,0.223-0.007
		c0.09,0.009,0.199,0.011,0.282-0.03c0.176-0.084,0.237-0.256,0.317-0.418c0.086-0.178,0.353-0.155,0.514-0.184
		c0.09-0.016,0.172-0.025,0.262-0.029c0.126-0.008,0.155-0.079,0.222-0.173c0.021-0.028,0.052-0.06,0.079-0.083
		c0.031-0.03,0.074-0.043,0.103-0.075C46.747,28.996,46.683,28.835,46.683,28.7z"/>
	<g>
		<g>
			<g>
				<path fill="#FBD764" d="M73.228,72.367c-1.801,0-3.264-1.46-3.264-3.264c0,1.804-1.46,3.264-3.262,3.264
					c1.802,0,3.262,1.461,3.262,3.262C69.964,73.828,71.427,72.367,73.228,72.367z"/>
			</g>
		</g>
		<g>
			<g>
				<path fill="#FBD764" d="M29.247,33.187c-2.703,0-4.895-2.193-4.895-4.895c0,2.701-2.189,4.895-4.894,4.895
					c2.704,0,4.894,2.189,4.894,4.893C24.353,35.376,26.544,33.187,29.247,33.187z"/>
			</g>
		</g>
		<g>
			<g>
				<path fill="#FBD764" d="M66.489,67.615c-1.021,0-1.851-0.829-1.851-1.853c0,1.023-0.831,1.853-1.852,1.853
					c1.021,0,1.852,0.829,1.852,1.851C64.639,68.444,65.468,67.615,66.489,67.615z"/>
			</g>
		</g>
		<g>
			<g>
				<path fill="#FBD764" d="M31.297,27.9c-1.021,0-1.851-0.828-1.851-1.852c0,1.023-0.831,1.852-1.853,1.852
					c1.021,0,1.853,0.829,1.853,1.853C29.446,28.729,30.275,27.9,31.297,27.9z"/>
			</g>
		</g>
		<g>
			<g>
				<path fill="#FBD764" d="M37.09,66.998c-1.023,0-1.852-0.828-1.852-1.852c0,1.023-0.827,1.852-1.851,1.852
					c1.023,0,1.851,0.827,1.851,1.851C35.238,67.825,36.066,66.998,37.09,66.998z"/>
			</g>
		</g>
		<g>
			<g>
				<path fill="#FBD764" d="M26.341,70.658c-1.023,0-1.852-0.828-1.852-1.851c0,1.022-0.828,1.851-1.852,1.851
					c1.023,0,1.852,0.829,1.852,1.853C24.489,71.487,25.317,70.658,26.341,70.658z"/>
			</g>
		</g>
		<g>
			<g>
				<path fill="#FBD764" d="M32.769,61.748c-1.992,0-3.605-1.612-3.605-3.604c0,1.992-1.614,3.604-3.606,3.604
					c1.992,0,3.606,1.615,3.606,3.605C29.163,63.363,30.776,61.748,32.769,61.748z"/>
			</g>
		</g>
		<g>
			<g>
				<path fill="#FBD764" d="M42.352,20.73c-1.024,0-1.853-0.827-1.853-1.85c0,1.022-0.828,1.85-1.852,1.85
					c1.023,0,1.852,0.83,1.852,1.852C40.499,21.561,41.327,20.73,42.352,20.73z"/>
			</g>
		</g>
		<g>
			<g>
				<path fill="#FBD764" d="M74.508,44.259c-1.022,0-1.851-0.828-1.851-1.852c0,1.023-0.829,1.852-1.852,1.852
					c1.022,0,1.852,0.829,1.852,1.85C72.657,45.088,73.485,44.259,74.508,44.259z"/>
			</g>
		</g>
		<g>
			<g>
				<path fill="#FBD764" d="M80.968,63.296c-1.022,0-1.853-0.828-1.853-1.851c0,1.022-0.828,1.851-1.851,1.851
					c1.022,0,1.851,0.829,1.851,1.852C79.115,64.125,79.945,63.296,80.968,63.296z"/>
			</g>
		</g>
		<g>
			<g>
				<path fill="#FBD764" d="M18.528,49.888c-1.021,0-1.853-0.828-1.853-1.851c0,1.022-0.829,1.851-1.851,1.851
					c1.021,0,1.851,0.83,1.851,1.854C16.676,50.718,17.507,49.888,18.528,49.888z"/>
			</g>
		</g>
		<g>
			<g>
				<path fill="#FBD764" d="M67.971,38.709c-1.023,0-1.851-0.828-1.851-1.851c0,1.022-0.83,1.851-1.853,1.851
					c1.022,0,1.853,0.83,1.853,1.853C66.12,39.539,66.947,38.709,67.971,38.709z"/>
			</g>
		</g>
		<g>
			<g>
				<path fill="#FBD764" d="M67.338,28.922c-2.597,0-4.7-2.105-4.7-4.701c0,2.596-2.106,4.701-4.702,4.701
					c2.596,0,4.702,2.104,4.702,4.702C62.638,31.026,64.741,28.922,67.338,28.922z"/>
			</g>
		</g>
	</g>
</g>
</svg>
