<?xml version="1.0" encoding="utf-8"?>
<!-- Generator: Adobe Illustrator 16.0.0, SVG Export Plug-In . SVG Version: 6.00 Build 0)  -->
<!DOCTYPE svg PUBLIC "-//W3C//DTD SVG 1.1//EN" "http://www.w3.org/Graphics/SVG/1.1/DTD/svg11.dtd" [
	<!ENTITY st0 "fill:#ACCFF6;">
	<!ENTITY st1 "fill:#7EE2A6;">
	<!ENTITY st2 "fill:#545454;">
	<!ENTITY st3 "fill:none;stroke:#FFFFFF;stroke-miterlimit:10;">
	<!ENTITY st4 "fill:#F7D237;">
	<!ENTITY st5 "fill:#92B7EF;">
	<!ENTITY st6 "fill:#C2C2C2;">
	<!ENTITY st7 "fill:#C2E97E;">
	<!ENTITY st8 "fill:#C779D3;">
	<!ENTITY st9 "fill:#C7E2E2;">
	<!ENTITY st10 "fill:#FBCA61;">
	<!ENTITY st11 "fill:#FC6738;">
	<!ENTITY st12 "fill:#999999;">
	<!ENTITY st13 "fill:#FEE677;">
	<!ENTITY st14 "fill:#FF9B74;">
	<!ENTITY st15 "fill:#FFC7B6;">
	<!ENTITY st16 "fill:#FFFFFF;">
	<!ENTITY st17 "fill:#9C9C9C;">
	<!ENTITY st18 "fill:#68C1C1;">
	<!ENTITY st19 "fill:#DBDBDB;">
	<!ENTITY st20 "fill:#404040;">
	<!ENTITY st21 "fill:#43D17D;">
]>
<svg version="1.1" id="圖層_1" xmlns="http://www.w3.org/2000/svg" xmlns:xlink="http://www.w3.org/1999/xlink" x="0px" y="0px"
	 width="100px" height="100px" viewBox="0 0 100 100" style="enable-background:new 0 0 100 100;" xml:space="preserve">
<g>
	<path style="&st8;" d="M100,50c0,27.613-22.383,50-49.998,50C22.385,100,0,77.613,0,50C0,22.385,22.385,0,50.002,0
		C77.617,0,100,22.385,100,50z"/>
	<circle style="&st3;" cx="50" cy="50" r="45"/>
	<g>
		<path style="&st19;" d="M20.789,32.984v37.599c2.604,3.694,5.957,6.862,9.846,9.317V23.669
			C26.746,26.123,23.394,29.292,20.789,32.984z"/>
		<path style="&st17;" d="M69.365,23.669V79.9c3.889-2.454,7.241-5.622,9.846-9.314V32.983
			C76.606,29.289,73.254,26.121,69.365,23.669z"/>
		<g>
			<path style="&st19;" d="M50.001,35.588v3.919c7.154,0,13.808-0.941,19.364-2.556v-3.918
				C63.809,34.647,57.155,35.588,50.001,35.588z"/>
			<path style="&st17;" d="M50.001,35.588c-7.156,0-13.81-0.942-19.366-2.555v3.918c5.557,1.613,12.21,2.556,19.366,2.556V35.588z"
				/>
			<path style="&st0;" d="M51.327,59.213l4-4.53l4.128,4.641l5.847-6.607l4.063,4.598V36.951c-5.557,1.614-12.21,2.556-19.364,2.556
				v18.205L51.327,59.213z"/>
			<path style="&st5;" d="M39.737,59.323l5.848-6.607l4.416,4.996V39.507c-7.156,0-13.81-0.942-19.366-2.556v23.365l4.975-5.634
				L39.737,59.323z"/>
			<path style="&st19;" d="M50.001,67.826c7.154,0,13.808,0.942,19.364,2.556v-3.92c-5.557-1.613-12.21-2.555-19.364-2.555V67.826z"
				/>
			<path style="&st1;" d="M59.455,59.323l-4.128-4.641l-4,4.53l-1.326-1.501v6.195c7.154,0,13.808,0.941,19.364,2.555v-9.148
				l-4.063-4.598L59.455,59.323z"/>
			<path style="&st17;" d="M30.635,66.462v3.92c5.557-1.613,12.21-2.556,19.366-2.556v-3.919
				C42.845,63.907,36.191,64.849,30.635,66.462z"/>
			<path style="&st21;" d="M50.001,63.907v-6.195l-4.416-4.996l-5.848,6.607l-4.128-4.641l-4.975,5.634v6.146
				C36.191,64.849,42.845,63.907,50.001,63.907z"/>
		</g>
	</g>
	<g>
		<path style="&st16;" d="M33.476,47.095l0.564-2.718h9.915l-0.44,2.092c-0.63,0.506-1.323,1.267-2.082,2.281
			c-0.759,1.016-1.461,2.15-2.107,3.404c-0.646,1.255-1.174,2.446-1.584,3.573c-0.567,1.559-0.92,2.718-1.057,3.477h-2.799
			c0.123-0.752,0.413-1.784,0.871-3.097c0.561-1.613,1.262-3.172,2.103-4.676s1.856-2.949,3.046-4.337H33.476z"/>
		<path style="&st16;" d="M48.528,48.858l-2.881-0.432c0.232-1.395,0.774-2.462,1.625-3.204c0.852-0.741,1.916-1.112,3.194-1.112
			c1.401,0,2.502,0.379,3.302,1.139c0.8,0.758,1.199,1.723,1.199,2.891c0,0.596-0.123,1.191-0.369,1.79
			c-0.246,0.598-0.649,1.226-1.209,1.882c-0.404,0.465-1.063,1.122-1.979,1.974c-0.916,0.851-1.522,1.432-1.82,1.743
			c-0.297,0.311-0.583,0.641-0.856,0.989h5.209l-0.553,2.687h-9.137c0.096-0.738,0.313-1.44,0.651-2.107
			c0.338-0.666,0.76-1.287,1.267-1.861c0.505-0.574,1.432-1.5,2.778-2.778c1.012-0.971,1.651-1.603,1.917-1.897
			c0.479-0.533,0.807-0.994,0.984-1.384s0.268-0.741,0.268-1.056c0-0.506-0.149-0.916-0.446-1.23
			c-0.298-0.314-0.676-0.473-1.134-0.473c-0.465,0-0.871,0.177-1.22,0.528C48.97,47.298,48.706,47.935,48.528,48.858z"/>
		<path style="&st16;" d="M56.014,54.313c0-1.511,0.256-3.042,0.77-4.594c0.628-1.894,1.436-3.303,2.42-4.225
			c0.984-0.924,2.077-1.385,3.281-1.385c1.216,0,2.216,0.441,2.999,1.322c0.782,0.883,1.174,2.164,1.174,3.846
			c0,1.538-0.285,3.163-0.856,4.876c-0.57,1.712-1.342,3.024-2.313,3.938c-0.971,0.912-2.064,1.368-3.281,1.368
			s-2.22-0.44-3.009-1.322C56.408,57.256,56.014,55.981,56.014,54.313z M58.905,54.907c0,0.808,0.13,1.375,0.39,1.703
			s0.595,0.492,1.005,0.492c0.547,0,1.032-0.253,1.456-0.76c0.567-0.676,1.069-2.01,1.508-3.998c0.348-1.58,0.522-2.83,0.522-3.754
			c0-0.751-0.132-1.293-0.395-1.625c-0.264-0.331-0.601-0.497-1.011-0.497c-0.52,0-0.98,0.25-1.384,0.749
			c-0.595,0.725-1.107,1.999-1.538,3.824C59.09,52.621,58.905,53.91,58.905,54.907z"/>
	</g>
</g>
</svg>
