<?xml version="1.0" encoding="utf-8"?>
<!-- Generator: Adobe Illustrator 16.0.0, SVG Export Plug-In . SVG Version: 6.00 Build 0)  -->
<!DOCTYPE svg PUBLIC "-//W3C//DTD SVG 1.1//EN" "http://www.w3.org/Graphics/SVG/1.1/DTD/svg11.dtd">
<svg version="1.1" id="圖層_1" xmlns="http://www.w3.org/2000/svg" xmlns:xlink="http://www.w3.org/1999/xlink" x="0px" y="0px"
	 width="100px" height="100px" viewBox="0 0 100 100" enable-background="new 0 0 100 100" xml:space="preserve">
<g>
	<g>
		<g>
			<g>
				<path fill="#92B7EF" d="M88,11.902v76.195h-5.616H12V11.902h70.384H88 M90,9.902h-7.616H10v80.195h72.384H90V9.902L90,9.902z"/>
			</g>
		</g>
	</g>
	<rect x="16.364" y="17.139" fill="#92B7EF" width="67.419" height="59.437"/>
	<rect x="16.364" y="79.967" fill="#C2C2C2" width="67.419" height="3.568"/>
	<path fill="#3A63C9" d="M77.517,75.767H22.632c0-13.924,21.146-13.924,21.146-20.04c0-5.032,3.444-5.234,6.298-5.235
		c2.817-0.002,6.212,0.203,6.212,5.204C56.287,61.843,77.517,61.843,77.517,75.767z"/>
	<path fill="#3A63C9" d="M66.215,38.265c0,9.954-7.235,18.021-16.14,18.021c-8.917,0-16.138-8.066-16.138-18.021
		c0-9.961,7.221-18.021,16.138-18.021C58.979,20.244,66.215,28.304,66.215,38.265z"/>
</g>
</svg>
