<svg xmlns="http://www.w3.org/2000/svg" viewBox="0 0 100 100"><title>must-visit</title><circle cx="50" cy="50" r="50" fill="#c2e97e"/><circle cx="50" cy="50" r="45" stroke="#fff" stroke-miterlimit="10" fill="none"/><path fill="#68c1c1" d="M37.01 53.69h26.42v26.43h-26.42z"/><path d="M50.22 64.15a3.05 3.05 0 0 0-3.29-2.75 3 3 0 0 0-3.29 2.75c0 3 6.57 8.26 6.57 8.26s6.57-5.22 6.57-8.26a3.34 3.34 0 0 0-6.57 0z" fill="#fff"/><path d="M62.88 42.74a14.79 14.79 0 0 1-6.88 5.48 1.54 1.54 0 0 0-.55.38l-4.85 10.5-4.85-10.5a1.29 1.29 0 0 0-.6-.4 14.89 14.89 0 1 1 17.72-5.46z" fill="#fc6738"/><path d="M50.6 25.81a8.53 8.53 0 0 0-6.08 14.52v.05a8.53 8.53 0 0 0 12.07 0 8.54 8.54 0 0 0-6-14.57z" fill="#fff"/><path d="M54.31 38.06a5.23 5.23 0 0 1-7.42 0 5.25 5.25 0 1 1 9-3.68 5.19 5.19 0 0 1-1.53 3.71z" fill="#999"/></svg>