<?xml version="1.0" encoding="utf-8"?>
<!-- Generator: Adobe Illustrator 16.0.0, SVG Export Plug-In . SVG Version: 6.00 Build 0)  -->
<!DOCTYPE svg PUBLIC "-//W3C//DTD SVG 1.1//EN" "http://www.w3.org/Graphics/SVG/1.1/DTD/svg11.dtd" [
	<!ENTITY st0 "fill:#EC663B;">
	<!ENTITY st1 "fill:#545454;">
	<!ENTITY st2 "fill:none;stroke:#FFFFFF;stroke-miterlimit:10;">
	<!ENTITY st3 "fill:#58B877;">
	<!ENTITY st4 "fill:#BCBCBC;">
	<!ENTITY st5 "fill:#FFFFFF;">
	<!ENTITY st6 "fill:#66B9B9;">
	<!ENTITY st7 "fill:#D4E4AE;">
	<!ENTITY st8 "fill:#D6D7D7;">
	<!ENTITY st9 "fill:#404041;">
]>
<svg version="1.1" id="圖層_1" xmlns="http://www.w3.org/2000/svg" xmlns:xlink="http://www.w3.org/1999/xlink" x="0px" y="0px"
	 width="100px" height="100px" viewBox="0 0 100 100" style="enable-background:new 0 0 100 100;" xml:space="preserve">
<g>
	<g>
		<circle style="&st6;" cx="50" cy="50" r="49.998"/>
		<circle style="&st2;" cx="50" cy="50" r="44.998"/>
	</g>
	<g>
		<g>
			<g>
				<path style="&st1;" d="M87.594,69.016c0,2.601-2.128,4.728-4.727,4.728H16.684c-2.602,0-4.728-2.127-4.728-4.728V33.167
					c0-2.603,2.126-4.729,4.728-4.729h66.184c2.599,0,4.727,2.126,4.727,4.729V69.016z"/>
			</g>
		</g>
		<rect x="17.653" y="30.428" style="&st7;" width="64.245" height="41.325"/>
		<rect x="17.653" y="30.428" style="&st5;" width="24.057" height="41.325"/>
		<g>
			<g>
				<path style="&st9;" d="M85.351,54.047c0,0.325-0.266,0.59-0.591,0.59h-1.182c-0.325,0-0.591-0.265-0.591-0.59v-5.908
					c0-0.324,0.266-0.592,0.591-0.592h1.182c0.325,0,0.591,0.268,0.591,0.592V54.047z"/>
			</g>
		</g>
		<g>
			<g>
				<g>
					<g>
						<rect x="20.898" y="33.881" style="&st3;" width="6.845" height="6.518"/>
					</g>
				</g>
			</g>
			<g>
				<g>
					<g>
						<rect x="20.898" y="41.707" style="&st3;" width="6.845" height="6.518"/>
					</g>
				</g>
			</g>
			<g>
				<g>
					<g>
						<rect x="20.898" y="49.535" style="&st3;" width="6.845" height="6.518"/>
					</g>
				</g>
			</g>
			<g>
				<g>
					<g>
						<rect x="29.133" y="33.881" style="&st4;" width="9.899" height="2.51"/>
					</g>
				</g>
			</g>
			<g>
				<g>
					<g>
						<rect x="29.133" y="41.707" style="&st4;" width="9.899" height="2.512"/>
					</g>
				</g>
			</g>
			<g>
				<g>
					<g>
						<rect x="29.133" y="49.535" style="&st4;" width="9.899" height="2.511"/>
					</g>
				</g>
			</g>
			<g>
				<g>
					<g>
						<rect x="29.133" y="38.77" style="&st8;" width="6.883" height="1.669"/>
					</g>
				</g>
			</g>
			<g>
				<g>
					<g>
						<rect x="29.133" y="46.575" style="&st8;" width="6.883" height="1.67"/>
					</g>
				</g>
			</g>
			<g>
				<g>
					<g>
						<rect x="29.133" y="54.383" style="&st8;" width="6.883" height="1.67"/>
					</g>
				</g>
			</g>
			<g>
				<g>
					<g>
						<rect x="20.898" y="57.471" style="&st3;" width="6.845" height="6.518"/>
					</g>
				</g>
			</g>
			<g>
				<g>
					<g>
						<rect x="29.133" y="57.471" style="&st4;" width="9.899" height="2.511"/>
					</g>
				</g>
			</g>
			<g>
				<g>
					<g>
						<rect x="29.133" y="62.318" style="&st8;" width="6.883" height="1.67"/>
					</g>
				</g>
			</g>
		</g>
	</g>
	<g>
		<g>
			<path style="&st3;" d="M68.49,71.513c-0.056-0.081-0.097-0.159-0.208-0.154c-0.115,0.004-0.193,0.034-0.23-0.103
				c-0.021-0.091-0.033-0.192-0.033-0.286c0-0.093-0.008-0.193,0.021-0.281c0.034-0.097,0.08-0.176,0.082-0.28
				c0.002-0.1-0.004-0.196,0.018-0.294c0.043-0.188,0.254-0.326,0.254-0.527c0-0.044-0.021-0.13-0.006-0.17
				c0.031-0.087,0.257-0.051,0.33-0.051c0.123,0,0.252,0.005,0.373-0.023c0.048-0.011,0.132-0.002,0.17-0.042
				c0.035-0.039,0.024-0.095,0.04-0.143c0.009-0.036,0.03-0.07,0.042-0.112c0.042-0.121,0.072-0.244,0.123-0.365
				c0.043-0.111,0.121-0.144,0.236-0.146c0.171-0.005,0.348-0.008,0.52-0.003c0.146,0.011,0.246,0.017,0.372-0.059
				c0.118-0.078,0.235-0.08,0.362-0.021c0.096,0.046,0.16,0.122,0.275,0.101c0.107-0.019,0.288-0.16,0.391-0.078
				c0.047,0.041,0.053,0.113,0.086,0.162c0.049,0.07,0.078,0.136,0.174,0.127c0.068-0.003,0.152-0.003,0.225-0.011
				c0.066-0.012,0.144-0.024,0.205-0.024c0.129-0.005,0.201,0.152,0.324,0.167c0.202,0.024,0.383-0.094,0.554-0.172
				c0.051-0.023,0.099-0.043,0.142-0.065c0.088-0.039,0.132-0.146,0.221-0.181c0.037-0.018,0.083,0,0.121-0.018
				c0.038-0.017,0.059-0.048,0.078-0.085c0.059-0.116,0.148-0.207,0.211-0.324c0.026-0.05,0.047-0.097,0.054-0.15
				c0.005-0.024-0.014-0.044-0.007-0.068c0.007-0.035,0.04-0.074,0.049-0.109c0.017-0.068,0.008-0.147,0.037-0.207
				c0.04-0.074,0.143-0.131,0.212-0.165c0.171-0.08,0.314,0.154,0.462,0.212c0.102,0.039,0.108,0.052,0.158,0.133
				c0.066,0.113,0.112,0.057,0.186,0.004c0.078-0.057,0.206-0.066,0.305-0.091c0.223-0.057,0.448-0.087,0.676-0.041
				c0.17,0.034,0.292,0.142,0.407,0.269c0.095,0.102,0.2,0.242,0.356,0.217c0.111-0.017,0.238-0.104,0.312-0.181
				c0.046-0.048,0.151-0.133,0.156-0.201c0.063-0.011,0.114,0.014,0.175,0.019c0.155,0.018,0.304-0.043,0.447-0.098
				c0.127-0.047,0.182-0.001,0.304,0.048c0.101,0.042,0.187,0.109,0.298,0.112c0.176,0.006,0.342-0.003,0.513,0.037
				c0.183,0.043,0.761,0.18,0.823-0.104c0.025-0.124,0.14-0.223,0.144-0.343c0.001-0.142-0.084-0.267-0.081-0.405
				c0.001-0.087,0.018-0.148,0.068-0.217c0.035-0.047,0.146-0.091,0.142-0.149c-0.111-0.018-0.224,0.015-0.329-0.022
				c-0.083-0.029-0.172-0.058-0.25-0.088c-0.089-0.038-0.184-0.098-0.283-0.078c-0.09,0.011-0.182,0.101-0.262,0.141
				c-0.091,0.053-0.193,0.093-0.285,0.148c-0.092,0.049-0.109,0.179-0.195,0.224c-0.046,0.024-0.151,0.02-0.201,0.025
				c-0.098,0.012-0.201,0.006-0.305,0.018c-0.108,0.009-0.146-0.003-0.24-0.043c-0.096-0.041-0.154,0.043-0.244,0.057
				c-0.098,0.011-0.191-0.025-0.285-0.045c-0.036-0.008-0.091-0.012-0.123-0.025c-0.039-0.008-0.049-0.035-0.076-0.046
				c-0.082-0.037-0.164,0.041-0.244,0.003c-0.086-0.032-0.063-0.15-0.127-0.202c-0.059-0.042-0.166-0.03-0.233-0.06
				c-0.073-0.032-0.133-0.096-0.204-0.132c-0.064-0.038-0.13-0.067-0.197-0.102c-0.145-0.078-0.273-0.176-0.412-0.26
				c-0.273-0.171-0.54-0.425-0.852-0.511c-0.032-0.01-0.084-0.01-0.113-0.025c-0.076-0.036-0.032-0.036-0.063-0.094
				c-0.039-0.073-0.128-0.056-0.213-0.048c-0.074,0.01-0.176,0.021-0.245,0.044c-0.071,0.023-0.138,0.102-0.216,0.075
				c0-0.099-0.036-0.204-0.102-0.278c-0.066-0.073-0.168-0.068-0.264-0.108c-0.08-0.035-0.125-0.099-0.201-0.123
				c-0.104-0.03-0.215-0.021-0.323-0.037c-0.046-0.176-0.271-0.313-0.421-0.378c-0.174-0.078-0.242-0.267-0.346-0.415
				c-0.061-0.089-0.129-0.16-0.176-0.26c-0.041-0.093-0.06-0.186-0.098-0.279c-0.038-0.089-0.1-0.146-0.148-0.234
				c-0.029-0.047-0.041-0.103-0.066-0.147c-0.049-0.079-0.094-0.127-0.119-0.22c-0.027-0.094-0.044-0.188-0.055-0.287
				c-0.014-0.12-0.033-0.19,0.045-0.283c0.057-0.064,0.121-0.113,0.193-0.16c0.143-0.094,0.376-0.121,0.469-0.278
				c0.068-0.118,0.015-0.274,0.043-0.404c0.039-0.168,0.176-0.176,0.318-0.214c0.145-0.041,0.086-0.115,0.019-0.197
				c-0.115-0.142-0.131-0.33-0.224-0.482c-0.101-0.169-0.223-0.326-0.374-0.446c-0.08-0.065-0.152-0.14-0.249-0.179
				c-0.096-0.036-0.193-0.023-0.295-0.028c-0.006-0.05-0.013-0.122,0.002-0.167c0.018-0.054,0.068-0.086,0.082-0.149
				c0.008-0.046-0.009-0.085,0.013-0.129c0.019-0.03,0.062-0.062,0.088-0.084c0.074-0.076,0.155-0.146,0.231-0.216
				c0.061-0.05,0.125-0.102,0.188-0.147c0.045-0.036,0.09-0.102,0.135-0.123c0.036-0.024,0.107,0.001,0.133-0.024
				c0.07-0.063-0.025-0.156-0.029-0.22c-0.01-0.088,0.076-0.158,0.029-0.243c-0.035-0.069-0.097-0.077-0.112-0.154
				c-0.024-0.114,0.052-0.133,0.112-0.195c0.055-0.062,0.064-0.177,0.167-0.179c0.092,0,0.104,0.077,0.144,0.143
				c0.011,0,0.051-0.014,0.06-0.017c0.005-0.013,0.007-0.024,0.009-0.037c0.012-0.001,0.023-0.004,0.035-0.004
				c0.01-0.054-0.027-0.069-0.037-0.111c-0.014-0.055,0.008-0.049,0.014-0.099c0.012-0.061,0.019-0.049-0.006-0.108
				c-0.027-0.056-0.053-0.083-0.056-0.146c-0.001-0.144,0.073-0.108,0.14-0.188c0.061-0.076-0.033-0.112-0.033-0.196
				c0-0.08,0.086-0.112,0.106-0.187c0.023-0.085-0.005-0.154,0.051-0.229c0.068-0.095,0.185-0.227,0.292-0.255
				c0.133-0.039,0.283-0.15,0.219-0.298c-0.079-0.19-0.004-0.266,0.088-0.42c0.059-0.102,0-0.13-0.025-0.223
				c-0.024-0.079,0.014-0.166-0.009-0.245c-0.038-0.125-0.211-0.206-0.282-0.317c-0.044-0.072-0.028-0.149-0.043-0.23
				c-0.016-0.07-0.035-0.146-0.051-0.221c-0.014-0.085-0.063-0.129-0.091-0.208c-0.076-0.194,0.022-0.259,0.146-0.384
				c0.106-0.107,0.022-0.285-0.126-0.309c-0.142-0.017-0.344,0.07-0.475-0.008c-0.071-0.04-0.088-0.142-0.146-0.195
				c-0.043-0.041-0.109-0.063-0.162-0.099c-0.104-0.066-0.178-0.157-0.273-0.234c-0.068-0.055-0.121-0.122-0.188-0.179
				c-0.062-0.05-0.145-0.071-0.204-0.122c-0.102-0.086-0.141-0.232-0.22-0.341c-0.064-0.093-0.211-0.186-0.319-0.227
				c-0.158-0.053-0.329,0.018-0.482-0.048c-0.131-0.055-0.233-0.142-0.326-0.253c-0.086-0.094-0.194-0.145-0.321-0.173
				c-0.164-0.039-0.333-0.04-0.488-0.107c-0.275-0.111-0.532-0.232-0.835-0.247c-0.167-0.005-0.285-0.011-0.38-0.16
				c-0.081-0.123-0.138-0.252-0.183-0.391c-0.036-0.112-0.167-0.25-0.159-0.363c0.004-0.067,0.069-0.125,0.108-0.176
				c0.048-0.067,0.086-0.136,0.117-0.218c0.069-0.157,0.19-0.28,0.262-0.438c0.057-0.125,0.072-0.26,0.137-0.379
				c0.053-0.097,0.143-0.097,0.204-0.175c0.101-0.13,0.153-0.326,0.16-0.484c0.005-0.092,0.059-0.195,0.093-0.282
				c0.027-0.073,0.034-0.281,0.165-0.254c0.118,0.331,0.321-0.024,0.445-0.162c0.136-0.152,0.414-0.33,0.381-0.555
				c-0.073-0.039-0.163-0.061-0.243-0.088c-0.086-0.033-0.184-0.015-0.279-0.029c-0.014-0.112,0.018-0.223,0.018-0.346
				c0-0.113,0.023-0.219,0.02-0.327c0-0.117,0.027-0.194,0.092-0.291c0.054-0.083,0.127-0.157,0.031-0.255
				c-0.054,0.024-0.092,0.029-0.127,0.079c-0.039,0.054-0.016,0.1-0.091,0.067c-0.09-0.039-0.142-0.171-0.222-0.225
				c-0.046-0.03-0.094-0.032-0.136-0.05c-0.057-0.031-0.064-0.05-0.101-0.11c-0.037-0.071-0.088-0.148-0.161-0.19
				c-0.069-0.038-0.156-0.037-0.224-0.08c-0.09-0.059-0.194-0.188-0.255-0.28c-0.046-0.065-0.032-0.157-0.08-0.226
				c-0.066-0.097-0.2-0.064-0.229-0.184c-0.024-0.104-0.009-0.228-0.019-0.332c-0.006-0.083-0.057-0.175-0.089-0.249
				c-0.045-0.093-0.122-0.134-0.171-0.215c-0.096-0.156,0.042-0.378-0.084-0.517c-0.051-0.062-0.129-0.023-0.198-0.037
				c-0.061-0.012-0.11-0.051-0.158-0.089c-0.144-0.096-0.451-0.139-0.304-0.353c0.058-0.083,0.092-0.172,0.146-0.255
				c0.076-0.119,0.153-0.153,0.157-0.305c0.001-0.134-0.019-0.264-0.019-0.396c-0.008-0.127-0.064-0.244-0.107-0.368
				c-0.05-0.147-0.1-0.312-0.14-0.464c-0.013-0.049-0.009-0.096-0.011-0.147c-0.002-0.101-0.053-0.164-0.164-0.136
				c-0.055,0.222-0.477,0.016-0.576-0.065c-0.161-0.131-0.279-0.259-0.491-0.273c-0.201-0.015-0.431,0.067-0.623,0.011
				c-0.132-0.04-0.31-0.164-0.388-0.275c-0.096-0.133-0.008-0.312,0.035-0.449c0.046-0.148,0.078-0.261,0.203-0.358
				c0.149-0.118,0.283-0.226,0.397-0.371c0.104-0.133,0.195-0.271,0.271-0.42c0.062-0.119,0.198-0.313,0.133-0.434
				c-0.05-0.096-0.048-0.183-0.117-0.265c-0.047-0.053-0.064-0.041-0.083-0.119c-0.009-0.047-0.021-0.095-0.047-0.136
				c-0.021-0.035-0.059-0.056-0.072-0.1c-0.015-0.046-0.005-0.113-0.005-0.163c0-0.108-0.008-0.203,0.073-0.288
				c0.083-0.083,0.158-0.096,0.143-0.235c-0.015-0.097-0.036-0.193-0.045-0.296c-0.007-0.059-0.002-0.102,0.03-0.153
				c0.04-0.064,0.049-0.056,0.056-0.137c0.01-0.107,0.032-0.222,0.164-0.222c0.016-0.173,0.036-0.41-0.033-0.572
				c-0.039-0.083-0.081-0.152-0.074-0.248c0.003-0.082,0.087-0.176,0.076-0.253c-0.012-0.1-0.257-0.163-0.348-0.176
				c-0.064-0.005-0.213-0.012-0.271,0.022c-0.069,0.039-0.035,0.142-0.09,0.173c-0.063,0.041-0.331-0.161-0.41-0.204
				c-0.176-0.1-0.26-0.023-0.431,0.029c-0.161,0.042-0.346-0.008-0.475-0.105c-0.126-0.097-0.134-0.249-0.199-0.39
				c-0.076-0.161-0.254-0.137-0.403-0.208c-0.113-0.053-0.256-0.135-0.383-0.144c-0.1-0.126-0.147-0.229-0.164-0.392
				c-0.014-0.17-0.02-0.345-0.096-0.509c-0.065-0.136-0.168-0.252-0.227-0.394c-0.065-0.146-0.039-0.323-0.106-0.471
				c-0.065-0.146-0.237-0.171-0.373-0.207c-0.187-0.052-0.267-0.021-0.41,0.103c-0.067,0.061-0.132,0.099-0.222,0.118
				c-0.07,0.016-0.152,0.002-0.219,0.032c-0.143,0.068-0.115,0.252-0.174,0.378c-0.061,0.132-0.149,0.224-0.193,0.369
				c-0.051,0.178-0.138,0.235-0.315,0.279c-0.003,0.096-0.033,0.239,0.007,0.327c0.05,0.104,0.144,0.122,0.14,0.255
				c-0.008,0.218-0.095,0.349-0.242,0.492c-0.162,0.17-0.246-0.147-0.431-0.121c-0.131,0.016-0.111,0.098-0.186,0.178
				c-0.055,0.058-0.186,0.084-0.262,0.122c0.014,0.09-0.08,0.109-0.13,0.142c-0.063,0.041-0.069,0.109-0.124,0.164
				c-0.115,0.107-0.194,0.124-0.195,0.308c0,0.082,0,0.125-0.036,0.193c-0.046,0.087-0.052,0.138-0.05,0.242
				c0,0.135,0.066,0.301-0.037,0.418c-0.027,0.032-0.071,0.046-0.104,0.077c-0.028,0.024-0.058,0.055-0.081,0.085
				c-0.068,0.096-0.098,0.166-0.229,0.175c-0.088,0.005-0.173,0.017-0.264,0.03c-0.166,0.027-0.438,0.007-0.527,0.191
				c-0.079,0.162-0.145,0.337-0.324,0.425c-0.084,0.041-0.196,0.041-0.289,0.03c-0.074-0.006-0.151-0.01-0.228,0.007
				c-0.067,0.018-0.123,0.04-0.194,0.046c-0.114,0.01-0.229,0.01-0.34,0.024c-0.058,0.01-0.115-0.004-0.172,0.01
				c-0.123,0.023-0.188,0.144-0.269,0.227c-0.086,0.094-0.161,0.188-0.253,0.275c-0.078,0.067-0.152,0.127-0.229,0.195
				c-0.072,0.063-0.044,0.158,0.003,0.238c0.032,0.061,0.068,0.079,0.057,0.148c-0.008,0.044,0.041,0.083,0.061,0.125
				c0.021,0.04,0.145,0.054,0.145,0.106c0,0.045,0,0.094,0,0.14c0,0.092-0.11,0.194-0.148,0.28
				c-0.042,0.078-0.238,0.146-0.265,0.234c-0.015,0.054,0.006,0.1-0.021,0.146c-0.016,0.038-0.053,0.063-0.069,0.101
				c-0.034,0.062-0.037,0.14-0.04,0.21c-0.002,0.083-0.02,0.124-0.077,0.188c-0.033,0.042-0.079,0.042-0.13,0.023
				c-0.047-0.02-0.081-0.053-0.128-0.066c-0.051-0.017-0.101-0.035-0.155-0.055c-0.094-0.034-0.186-0.068-0.279-0.103
				c-0.086-0.023-0.162-0.069-0.244-0.095c-0.086-0.021-0.225-0.044-0.305-0.001c-0.094,0.048-0.147,0.147-0.212,0.229
				c-0.048,0.057-0.063,0.067-0.141,0.055c-0.048-0.009-0.095,0-0.144-0.007c-0.105-0.014-0.184-0.086-0.273-0.132
				c-0.056-0.033-0.104-0.064-0.149-0.107c-0.025-0.021-0.047-0.057-0.075-0.072c-0.102-0.057-0.266,0.04-0.295-0.124
				c-0.014-0.095,0.038-0.253-0.093-0.281c-0.118-0.025-0.235-0.019-0.354-0.011c-0.012,0.077-0.031,0.143-0.057,0.214
				c-0.027,0.078-0.074,0.09-0.124,0.149c-0.036,0.042-0.017,0.045-0.007,0.084c0.008,0.031,0.007,0.071,0.007,0.109
				c0,0.07,0.009,0.153-0.001,0.222c-0.144,0.058-0.268,0.144-0.344,0.274c-0.035,0.065-0.059,0.137-0.069,0.203
				c-0.009,0.068,0.003,0.148-0.035,0.209c-0.132,0.227-0.348,0.321-0.554,0.461c-0.046,0.034-0.094,0.067-0.137,0.104
				c-0.047,0.043-0.066,0.106-0.114,0.139c-0.1,0.073-0.21,0.106-0.292,0.198c-0.046,0.057-0.094,0.098-0.123,0.154
				c-0.031,0.063-0.027,0.12-0.054,0.182c-0.062,0.126-0.126,0.259-0.213,0.366c-0.083,0.103-0.145,0.229-0.211,0.342
				c-0.038,0.067-0.077,0.136-0.104,0.204c-0.014,0.043-0.031,0.081-0.056,0.116c-0.031,0.054-0.079,0.097-0.107,0.147
				c-0.032,0.062-0.032,0.138-0.048,0.204c-0.013,0.053,0.002,0.13-0.034,0.178c-0.04,0.043-0.126,0.024-0.181,0.024
				c-0.064,0-0.127-0.001-0.191,0.002c-0.059,0-0.139,0-0.192,0.014c-0.112,0.028-0.201,0.169-0.247,0.266
				c-0.055,0.115-0.102,0.224-0.197,0.309c-0.116,0.107-0.224,0.228-0.346,0.335c-0.108,0.093-0.22,0.189-0.334,0.278
				c-0.049,0.035-0.117,0.083-0.157,0.126c-0.035,0.042-0.035,0.115-0.047,0.165c-0.029,0.109-0.125,0.161-0.197,0.241
				c-0.038,0.048-0.084,0.092-0.132,0.133c-0.054,0.048-0.086,0.098-0.146,0.143c-0.053,0.04-0.116,0.067-0.168,0.104
				c-0.047,0.035-0.056,0.091-0.063,0.137c-0.009,0.062-0.014,0.136-0.051,0.187c-0.035,0.048-0.099,0.083-0.142,0.128
				c-0.085,0.092-0.152,0.188-0.275,0.218c-0.021,0.007-0.063,0.007-0.079,0.025c-0.014,0.022-0.006,0.066-0.014,0.091
				c-0.019,0.055-0.057,0.115-0.098,0.155c-0.046,0.05-0.101,0.084-0.147,0.134c-0.031,0.034-0.067,0.06-0.098,0.095
				c-0.046,0.054-0.088,0.114-0.141,0.163c-0.066,0.061-0.141,0.108-0.21,0.165c-0.037,0.028-0.125,0.082-0.143,0.128
				c-0.021,0.04,0.006,0.115,0.014,0.157c0.042,0.223,0.014,0.443,0.092,0.661c0.037,0.104,0.075,0.208,0.051,0.317
				c-0.017,0.069-0.014,0.122-0.066,0.173c-0.045,0.034-0.097,0.064-0.15,0.084c-0.106,0.032-0.224,0.014-0.322,0.08
				c-0.206,0.139-0.067,0.381-0.024,0.566c0.026,0.119,0.026,0.24,0.045,0.358c0.019,0.117,0.063,0.217,0.113,0.32
				c0.084,0.169,0.181,0.331,0.275,0.497c0.122,0.221,0.135,0.418,0.095,0.658c-0.038,0.228,0.036,0.4,0.24,0.513
				c0.092,0.05,0.185,0.088,0.271,0.148c0.09,0.062,0.171,0.14,0.268,0.186c0.19,0.101,0.412,0.019,0.611,0.08
				c0.103,0.03,0.196,0.081,0.297,0.118c0.09,0.029,0.183,0.046,0.276,0.063c0.125,0.025,0.245,0.059,0.362,0.094
				c0.419,0.136,0.782,0.364,1.172,0.553c0.302,0.148,0.553,0.363,0.805,0.586c0.103,0.096,0.221,0.171,0.324,0.264
				c0.088,0.083,0.174,0.162,0.264,0.235c0.077,0.068,0.164,0.123,0.243,0.188c0.073,0.063,0.15,0.127,0.229,0.184
				c0.092,0.072,0.172,0.145,0.254,0.231c0.053,0.056,0.122,0.097,0.178,0.151c0.155,0.152,0.328,0.286,0.474,0.447
				c0.107,0.114,0.191,0.249,0.277,0.381c0.121,0.184,0.287,0.341,0.4,0.526c0.052,0.086,0.1,0.17,0.154,0.25
				c0.081,0.125,0.119,0.262,0.165,0.4c0.036,0.12,0.116,0.219,0.13,0.345c0.027,0.273,0.06,0.536,0.121,0.804
				c0.018,0.075,0,0.139,0.002,0.216c0.004,0.1,0.014,0.202,0.038,0.296c0.029,0.118,0.079,0.252,0.077,0.368
				c0,0.146,0.02,0.304,0,0.45c-0.008,0.056-0.02,0.117-0.045,0.174c-0.025,0.063-0.01,0.123-0.01,0.194
				c-0.051,0.06,0,0.122,0,0.187c0,0.161-0.094,0.313-0.088,0.482c0.009,0.252-0.063,0.501-0.065,0.752
				c0,0.106-0.038,0.189-0.053,0.286c-0.009,0.067-0.048,0.107-0.08,0.165c-0.026,0.046-0.018,0.075-0.018,0.126
				c0.003,0.125-0.097,0.224-0.119,0.343c-0.014,0.084-0.021,0.162-0.046,0.253c-0.037,0.113-0.119,0.205-0.174,0.309
				c-0.056,0.109-0.066,0.233-0.093,0.35c-0.017,0.067-0.04,0.108-0.076,0.17c-0.08,0.133-0.17,0.242-0.275,0.351
				c-0.088,0.095-0.17,0.197-0.256,0.29c-0.075,0.078-0.147,0.155-0.217,0.242c-0.041,0.057-0.095,0.102-0.141,0.155
				c-0.051,0.062-0.069,0.124-0.133,0.181c-0.069,0.063-0.143,0.122-0.215,0.177c-0.146,0.112-0.305,0.212-0.48,0.268
				c-0.201,0.063-0.4,0.102-0.611,0.111c-0.017,0.001-0.038,0.002-0.058,0.004c-0.008,0.015-0.024,0.022-0.028,0.04
				c-0.021,0.08,0.027,0.175-0.01,0.249c-0.035,0.077-0.14,0.063-0.209,0.055c-0.138-0.015-0.386-0.03-0.427-0.197
				c-0.021-0.088,0.012-0.18,0.033-0.263c0.024-0.092,0.029-0.178,0.024-0.271c-0.167,0.17-0.278,0.39-0.394,0.594
				c-0.051,0.088-0.111,0.17-0.14,0.264c-0.026,0.093-0.036,0.197-0.03,0.292c0.011,0.216,0.139,0.438,0.227,0.631
				c0.1,0.215,0.173,0.441,0.273,0.651c0.063,0.119,0.117,0.241,0.183,0.357c0.045,0.083,0.092,0.164,0.125,0.249
				c0.032,0.08,0.034,0.163,0.062,0.234c0.02,0.049,0.049,0.11,0.057,0.16c0.014,0.098,0.004,0.199-0.008,0.297
				c-0.006,0.066-0.035,0.122-0.049,0.185c-0.014,0.084,0,0.188,0.008,0.274c0.003,0.093,0.014,0.19,0.035,0.284
				c0.04,0.175,0.054,0.339,0.065,0.516c0.005,0.073-0.003,0.119,0.029,0.191c0.033,0.077,0.066,0.155,0.101,0.231
				c0.027,0.066,0.061,0.128,0.098,0.192c0.098,0.153,0.243,0.24,0.401,0.323c0.053,0.028,0.107,0.047,0.165,0.063
				c0.077,0.02,0.121,0.033,0.196,0.002c0.084-0.028,0.169-0.05,0.249-0.096c0.109-0.06,0.209-0.135,0.301-0.214
				c0.115-0.101,0.225-0.207,0.334-0.312c0.048-0.046,0.099-0.095,0.139-0.148c0.038-0.053,0.08-0.068,0.125-0.107
				c0.043-0.039,0.077-0.08,0.123-0.11c0.085-0.059,0.143-0.121,0.217-0.192c0.067-0.065,0.129-0.126,0.168-0.213
				c0.085-0.199,0.243-0.327,0.375-0.493c0.113-0.142,0.219-0.346,0.398-0.409c0.076-0.026,0.156-0.031,0.235-0.041
				c0.357-0.04,0.727-0.015,1.058,0.128c0.158,0.067,0.307,0.152,0.441,0.254c0.167,0.128,0.321,0.288,0.463,0.439
				c0.051,0.057,0.088,0.12,0.139,0.175c0.086,0.092,0.146,0.204,0.213,0.307c0.084,0.129,0.166,0.255,0.251,0.382
				c0.085,0.123,0.194,0.237,0.317,0.33c0.048,0.038,0.092,0.045,0.146,0.063c0.079,0.035,0.144,0.089,0.229,0.109
				c0.066,0.021,0.135,0.013,0.197,0.053c0.055,0.037,0.104,0.076,0.16,0.109c0.093,0.063,0.141,0.16,0.149,0.272
				c0.007,0.07-0.011,0.147-0.004,0.222c0.011,0.079,0.062,0.151,0.095,0.221c0.067,0.142,0.133,0.28,0.223,0.407
				c0.062,0.088,0.014,0.146-0.054,0.197h11.334c-0.008-0.011-0.012-0.022-0.021-0.033C68.621,71.646,68.543,71.592,68.49,71.513z"
				/>
			<path style="&st3;" d="M50.071,64.685c0.109-0.04,0.217-0.084,0.314-0.146c0.055-0.03,0.051-0.08,0.089-0.126
				c0.033-0.034,0.072-0.067,0.106-0.099c0.058-0.058,0.08-0.128,0.07-0.203c-0.049-0.026-0.112-0.019-0.166-0.019
				c-0.14,0-0.276,0.023-0.416,0.037c-0.144,0.017-0.291,0.028-0.426,0.085c-0.171,0.069-0.262,0.285-0.189,0.46
				c0.067,0.161,0.279,0.152,0.439,0.142C49.931,64.75,50,64.71,50.071,64.685z"/>
		</g>
		<g>
			<path style="&st0;" d="M58.833,39.792L58.833,39.792c-0.588,0.867-1.436,1.55-2.436,1.938c-0.071,0.033-0.143,0.075-0.193,0.136
				l-1.717,3.717l-1.717-3.717c-0.06-0.067-0.133-0.121-0.211-0.144c-0.99-0.389-1.832-1.068-2.418-1.931
				c-0.579-0.844-0.92-1.868-0.92-2.97c0-1.459,0.59-2.767,1.542-3.719c0.952-0.951,2.271-1.547,3.724-1.547
				c1.45,0,2.772,0.596,3.723,1.547c0.951,0.952,1.543,2.26,1.543,3.719C59.753,37.924,59.415,38.948,58.833,39.792L58.833,39.792z"
				/>
		</g>
		<g>
			<path style="&st0;" d="M75.153,54.099L75.153,54.099c-0.587,0.868-1.436,1.55-2.435,1.938c-0.071,0.032-0.144,0.076-0.194,0.136
				l-1.717,3.717l-1.716-3.717c-0.06-0.068-0.132-0.12-0.212-0.142c-0.989-0.391-1.831-1.068-2.418-1.933
				c-0.579-0.845-0.92-1.867-0.92-2.97c0-1.459,0.591-2.768,1.543-3.718c0.952-0.951,2.271-1.548,3.723-1.548
				s2.772,0.597,3.723,1.548c0.951,0.95,1.543,2.259,1.543,3.718C76.073,52.231,75.736,53.254,75.153,54.099L75.153,54.099z"/>
		</g>
		<g>
			<path style="&st0;" d="M68.032,63.795L68.032,63.795c-0.588,0.868-1.436,1.55-2.436,1.939c-0.071,0.031-0.143,0.074-0.193,0.135
				l-1.718,3.716l-1.716-3.716c-0.06-0.067-0.133-0.12-0.211-0.144c-0.99-0.389-1.832-1.067-2.419-1.931
				c-0.579-0.845-0.919-1.868-0.919-2.97c0-1.459,0.59-2.767,1.542-3.719c0.952-0.951,2.271-1.547,3.723-1.547
				c1.45,0,2.772,0.596,3.724,1.547c0.95,0.952,1.543,2.26,1.543,3.719C68.952,61.927,68.614,62.95,68.032,63.795L68.032,63.795z"/>
		</g>
		<g>
			<path style="&st5;" d="M52.532,36.354l0.211-0.996c0.962-0.419,1.705-0.908,2.232-1.466h0.68l-1.202,5.736h-1.124l0.829-3.951
				c-0.233,0.15-0.503,0.287-0.808,0.412S52.773,36.303,52.532,36.354z"/>
		</g>
		<g>
			<path style="&st5;" d="M70.349,49.827l-1.093-0.163c0.088-0.529,0.294-0.935,0.616-1.215c0.323-0.282,0.727-0.422,1.211-0.422
				c0.532,0,0.95,0.144,1.254,0.431c0.303,0.288,0.454,0.654,0.454,1.097c0,0.227-0.047,0.452-0.14,0.68
				c-0.094,0.227-0.246,0.464-0.459,0.714c-0.153,0.175-0.403,0.425-0.751,0.747c-0.347,0.323-0.577,0.544-0.69,0.662
				c-0.112,0.117-0.221,0.243-0.324,0.375h1.976l-0.21,1.019h-3.465c0.035-0.279,0.117-0.546,0.246-0.799s0.289-0.488,0.48-0.707
				c0.191-0.217,0.543-0.568,1.054-1.054c0.384-0.367,0.627-0.607,0.728-0.719c0.182-0.202,0.306-0.377,0.373-0.525
				c0.067-0.147,0.102-0.28,0.102-0.399c0-0.192-0.057-0.349-0.169-0.467c-0.113-0.12-0.257-0.181-0.431-0.181
				c-0.176,0-0.33,0.068-0.463,0.201C70.517,49.235,70.416,49.478,70.349,49.827z"/>
		</g>
		<g>
			<path style="&st5;" d="M61.593,62.054l1.069-0.128c0.044,0.304,0.124,0.513,0.239,0.629c0.115,0.117,0.27,0.176,0.461,0.176
				c0.254,0,0.465-0.086,0.632-0.257c0.167-0.172,0.251-0.391,0.251-0.657c0-0.233-0.067-0.418-0.202-0.554
				c-0.136-0.137-0.316-0.204-0.545-0.204c-0.057,0-0.116,0.005-0.179,0.016l0.194-0.93c0.038,0.005,0.077,0.008,0.113,0.008
				c0.298,0,0.524-0.075,0.681-0.228c0.154-0.151,0.232-0.357,0.232-0.616c0-0.185-0.052-0.329-0.156-0.436
				c-0.105-0.106-0.244-0.159-0.415-0.159c-0.161,0-0.305,0.058-0.432,0.177c-0.127,0.118-0.228,0.318-0.304,0.604l-1.019-0.202
				c0.13-0.419,0.31-0.742,0.541-0.968c0.35-0.337,0.78-0.505,1.29-0.505c0.524,0,0.922,0.146,1.194,0.438
				c0.272,0.29,0.409,0.641,0.409,1.047c0,0.296-0.088,0.563-0.262,0.802c-0.173,0.238-0.411,0.413-0.715,0.524
				c0.241,0.127,0.418,0.293,0.533,0.495c0.113,0.201,0.17,0.413,0.17,0.634c0,0.42-0.148,0.806-0.446,1.159
				c-0.407,0.48-0.933,0.722-1.575,0.722c-0.482,0-0.88-0.137-1.192-0.413S61.66,62.56,61.593,62.054z"/>
		</g>
	</g>
</g>
<g>
</g>
<g>
</g>
<g>
</g>
<g>
</g>
<g>
</g>
<g>
</g>
</svg>
