<?xml version="1.0" encoding="utf-8"?>
<!-- Generator: Adobe Illustrator 16.0.0, SVG Export Plug-In . SVG Version: 6.00 Build 0)  -->
<!DOCTYPE svg PUBLIC "-//W3C//DTD SVG 1.1//EN" "http://www.w3.org/Graphics/SVG/1.1/DTD/svg11.dtd">
<svg version="1.1" id="圖層_1" xmlns="http://www.w3.org/2000/svg" xmlns:xlink="http://www.w3.org/1999/xlink" x="0px" y="0px"
	 width="50px" height="50px" viewBox="0 0 50 50" enable-background="new 0 0 50 50" xml:space="preserve">
<g>
	<g>
		<rect x="9.99" y="8.618" fill="#DBDBDB" width="32.758" height="34.185"/>
	</g>
	<g>
		<g>
			<polygon fill="#DBDBDB" points="15.688,8.618 42.748,8.618 39.901,5.773 15.688,5.773 			"/>
		</g>
	</g>
	<g>
		<polygon fill="#C2C2C2" points="42.748,42.803 9.99,42.803 9.99,39.952 39.901,39.952 		"/>
	</g>
	<g>
		<path fill="#FFFFFF" d="M12.837,5.773c-1.573,0-2.847,1.275-2.847,2.845v34.185c0-1.574,1.274-2.851,2.847-2.851h27.064V5.773
			H12.837z"/>
	</g>
</g>
<path fill="#FBD764" d="M24.122,9.865c0-0.067,0.003-0.1,0.036-0.158c0.021-0.045,0.021-0.073,0.021-0.129
	c0.002-0.121,0.053-0.132,0.129-0.203c0.037-0.035,0.039-0.082,0.082-0.108c0.035-0.023,0.094-0.034,0.087-0.096
	c0.05-0.023,0.136-0.04,0.172-0.08c0.049-0.052,0.036-0.107,0.125-0.118c0.119-0.017,0.176,0.192,0.284,0.083
	c0.096-0.098,0.155-0.184,0.161-0.329c0.003-0.089-0.062-0.099-0.093-0.169c-0.028-0.057-0.008-0.152-0.005-0.215
	c0.119-0.031,0.176-0.068,0.209-0.185C25.36,8.061,25.419,8,25.458,7.913c0.04-0.083,0.023-0.206,0.116-0.249
	c0.045-0.022,0.099-0.015,0.146-0.023c0.059-0.014,0.1-0.039,0.147-0.078c0.095-0.082,0.147-0.103,0.271-0.069
	c0.091,0.024,0.204,0.041,0.247,0.137c0.044,0.099,0.027,0.214,0.07,0.314c0.039,0.093,0.107,0.17,0.15,0.259
	c0.051,0.106,0.055,0.222,0.064,0.338c0.01,0.106,0.041,0.174,0.108,0.258c0.084,0.003,0.177,0.059,0.253,0.096
	c0.1,0.046,0.218,0.029,0.268,0.138c0.044,0.091,0.048,0.195,0.13,0.258c0.086,0.064,0.209,0.099,0.315,0.068
	c0.113-0.033,0.172-0.084,0.286-0.02c0.052,0.028,0.229,0.164,0.273,0.137c0.035-0.021,0.014-0.09,0.058-0.116
	c0.041-0.022,0.136-0.017,0.181-0.014c0.06,0.006,0.223,0.05,0.23,0.117c0.006,0.051-0.05,0.111-0.053,0.167
	c-0.004,0.063,0.024,0.108,0.05,0.165c0.047,0.107,0.034,0.264,0.023,0.38c-0.089,0.001-0.104,0.075-0.109,0.144
	c-0.005,0.056-0.011,0.05-0.037,0.094c-0.021,0.033-0.023,0.062-0.019,0.102c0.005,0.063,0.02,0.13,0.028,0.194
	c0.012,0.093-0.038,0.1-0.095,0.157c-0.053,0.056-0.047,0.117-0.047,0.191c0,0.033-0.007,0.077,0.003,0.106
	c0.008,0.032,0.032,0.043,0.048,0.068c0.017,0.028,0.024,0.06,0.03,0.091c0.014,0.051,0.024,0.042,0.055,0.076
	c0.046,0.054,0.045,0.114,0.077,0.177c0.045,0.079-0.047,0.21-0.087,0.288c-0.051,0.098-0.111,0.19-0.178,0.277
	c-0.078,0.098-0.167,0.17-0.266,0.246c-0.082,0.065-0.104,0.14-0.136,0.239c-0.026,0.091-0.086,0.208-0.022,0.297
	c0.053,0.074,0.169,0.155,0.257,0.18c0.127,0.039,0.279-0.015,0.413-0.005c0.141,0.01,0.219,0.093,0.325,0.181
	c0.065,0.054,0.346,0.19,0.381,0.044c0.075-0.02,0.107,0.022,0.11,0.089c0,0.034-0.003,0.065,0.006,0.098
	c0.027,0.101,0.059,0.208,0.094,0.309c0.027,0.079,0.066,0.16,0.069,0.243c0,0.089,0.015,0.174,0.014,0.262
	c-0.002,0.099-0.055,0.124-0.104,0.204c-0.035,0.054-0.058,0.112-0.096,0.167c-0.098,0.142,0.105,0.171,0.2,0.234
	c0.032,0.023,0.064,0.05,0.104,0.058c0.046,0.01,0.098-0.015,0.133,0.023c0.084,0.092-0.007,0.241,0.056,0.344
	c0.032,0.054,0.084,0.08,0.113,0.142c0.021,0.05,0.054,0.11,0.058,0.165c0.007,0.068-0.004,0.152,0.013,0.22
	c0.02,0.078,0.107,0.058,0.151,0.122c0.032,0.046,0.024,0.104,0.053,0.149c0.04,0.061,0.112,0.146,0.17,0.186
	c0.044,0.03,0.103,0.029,0.147,0.054c0.048,0.027,0.082,0.079,0.107,0.127c0.023,0.038,0.027,0.052,0.066,0.071
	c0.028,0.013,0.059,0.016,0.089,0.033c0.053,0.034,0.089,0.122,0.147,0.149c0.05,0.022,0.034-0.009,0.061-0.044
	c0.023-0.034,0.048-0.037,0.085-0.054c0.064,0.067,0.014,0.114-0.021,0.17c-0.042,0.062-0.06,0.115-0.06,0.192
	c0.001,0.073-0.014,0.141-0.014,0.218c0,0.079-0.022,0.155-0.013,0.229c0.064,0.008,0.129-0.004,0.187,0.017
	c0.052,0.019,0.11,0.034,0.159,0.059c0.023,0.151-0.161,0.268-0.253,0.37c-0.079,0.09-0.215,0.324-0.293,0.105
	c-0.087-0.018-0.093,0.121-0.109,0.168c-0.023,0.058-0.058,0.126-0.062,0.189c-0.007,0.103-0.04,0.234-0.107,0.319
	c-0.04,0.054-0.101,0.054-0.133,0.117c-0.042,0.08-0.054,0.169-0.092,0.25c-0.046,0.104-0.128,0.186-0.173,0.292
	c-0.022,0.051-0.047,0.097-0.079,0.143c-0.025,0.033-0.068,0.071-0.071,0.114c-0.004,0.075,0.082,0.169,0.105,0.24
	c0.03,0.093,0.067,0.179,0.12,0.262c0.063,0.099,0.143,0.1,0.253,0.105c0.2,0.011,0.371,0.089,0.553,0.164
	c0.103,0.044,0.215,0.044,0.323,0.07c0.086,0.021,0.158,0.052,0.212,0.116c0.063,0.072,0.13,0.131,0.217,0.167
	c0.103,0.042,0.217-0.003,0.321,0.032c0.072,0.024,0.166,0.087,0.212,0.149c0.05,0.071,0.076,0.167,0.146,0.226
	c0.038,0.033,0.092,0.048,0.134,0.082c0.045,0.037,0.079,0.082,0.125,0.118c0.063,0.05,0.112,0.112,0.182,0.156
	c0.034,0.021,0.077,0.037,0.107,0.065c0.039,0.036,0.05,0.102,0.097,0.128c0.087,0.052,0.22-0.005,0.314,0.007
	c0.1,0.012,0.151,0.131,0.084,0.202c-0.083,0.083-0.147,0.127-0.098,0.256c0.019,0.049,0.051,0.08,0.061,0.137
	c0.01,0.05,0.022,0.099,0.032,0.146c0.01,0.054,0,0.106,0.029,0.152c0.047,0.074,0.162,0.128,0.187,0.212
	c0.016,0.052-0.01,0.109,0.004,0.161c0.02,0.06,0.059,0.081,0.02,0.146c-0.063,0.104-0.11,0.155-0.058,0.28
	c0.04,0.096-0.059,0.173-0.145,0.196c-0.072,0.019-0.149,0.106-0.194,0.169c-0.036,0.05-0.02,0.098-0.034,0.151
	c-0.016,0.049-0.07,0.07-0.07,0.125s0.063,0.079,0.021,0.128c-0.044,0.053-0.094,0.032-0.092,0.125c0,0.042,0.019,0.06,0.035,0.095
	c0.018,0.04,0.013,0.034,0.006,0.073c-0.006,0.035-0.018,0.029-0.01,0.066c0.006,0.029,0.031,0.038,0.024,0.073
	c-0.006,0.001-0.015,0.002-0.022,0.004c-0.002,0.008-0.002,0.016-0.005,0.023c-0.008,0.003-0.034,0.012-0.041,0.012
	c-0.025-0.043-0.033-0.096-0.096-0.095c-0.068,0-0.071,0.076-0.109,0.118c-0.039,0.043-0.091,0.054-0.076,0.13
	c0.013,0.051,0.052,0.059,0.077,0.101c0.03,0.058-0.027,0.105-0.02,0.161c0.001,0.041,0.065,0.104,0.02,0.147
	c-0.019,0.016-0.064,0-0.088,0.014c-0.03,0.016-0.061,0.061-0.091,0.084c-0.042,0.03-0.083,0.063-0.124,0.099
	c-0.051,0.045-0.104,0.09-0.155,0.14c-0.015,0.018-0.046,0.036-0.057,0.057c-0.014,0.028-0.003,0.056-0.009,0.088
	c-0.009,0.038-0.043,0.063-0.054,0.098c-0.011,0.029-0.006,0.077-0.001,0.11c0.068,0.003,0.132-0.006,0.194,0.02
	c0.064,0.025,0.112,0.075,0.165,0.118c0.101,0.08,0.182,0.184,0.249,0.294c0.061,0.103,0.07,0.229,0.147,0.322
	c0.045,0.055,0.085,0.103-0.014,0.128c-0.095,0.025-0.184,0.032-0.211,0.142c-0.016,0.086,0.018,0.191-0.027,0.269
	c-0.063,0.105-0.215,0.123-0.31,0.186c-0.048,0.032-0.093,0.063-0.127,0.106c-0.055,0.061-0.041,0.105-0.031,0.187
	c0.008,0.065,0.018,0.128,0.035,0.19c0.018,0.061,0.048,0.092,0.079,0.146c0.019,0.031,0.024,0.066,0.044,0.099
	c0.033,0.058,0.073,0.096,0.1,0.153c0.023,0.063,0.036,0.125,0.063,0.186c0.031,0.066,0.077,0.111,0.118,0.173
	c0.067,0.101,0.112,0.224,0.229,0.275c0.099,0.044,0.247,0.136,0.277,0.248c0.071,0.011,0.145,0.005,0.214,0.025
	c0.051,0.018,0.081,0.061,0.134,0.083c0.063,0.023,0.13,0.022,0.174,0.07c0.044,0.052,0.067,0.119,0.067,0.187
	c0.053,0.017,0.096-0.033,0.143-0.051c0.047-0.019,0.114-0.022,0.164-0.028c0.055-0.006,0.114-0.017,0.14,0.031
	c0.021,0.038-0.009,0.038,0.04,0.062c0.021,0.009,0.057,0.012,0.078,0.017c0.205,0.06,0.383,0.225,0.563,0.339
	c0.091,0.056,0.177,0.121,0.272,0.171c0.043,0.023,0.088,0.045,0.131,0.066c0.047,0.026,0.088,0.067,0.136,0.09
	c0.044,0.02,0.114,0.009,0.154,0.039c0.042,0.036,0.028,0.111,0.084,0.135c0.053,0.024,0.105-0.027,0.161-0.003
	c0.019,0.007,0.025,0.024,0.05,0.032c0.022,0.008,0.06,0.009,0.083,0.015c0.062,0.014,0.124,0.036,0.188,0.029
	c0.06-0.01,0.1-0.063,0.161-0.036c0.063,0.024,0.088,0.036,0.159,0.026c0.068-0.006,0.138-0.002,0.204-0.01
	c0.031-0.004,0.102-0.001,0.131-0.017c0.059-0.029,0.069-0.116,0.13-0.15c0.061-0.036,0.127-0.063,0.189-0.096
	c0.053-0.027,0.116-0.088,0.173-0.097c0.067-0.007,0.13,0.028,0.188,0.055c0.053,0.021,0.111,0.039,0.166,0.059
	c0.068,0.023,0.145,0.003,0.217,0.016c0.004,0.038-0.07,0.065-0.094,0.098c-0.032,0.045-0.044,0.087-0.045,0.142
	c-0.002,0.094,0.054,0.178,0.054,0.269c-0.004,0.082-0.078,0.147-0.095,0.229c-0.041,0.187-0.425,0.096-0.545,0.069
	c-0.114-0.028-0.225-0.021-0.342-0.024c-0.072-0.004-0.129-0.048-0.196-0.077c-0.081-0.032-0.118-0.063-0.201-0.031
	c-0.095,0.037-0.193,0.075-0.297,0.064c-0.04-0.004-0.073-0.018-0.116-0.012c-0.001,0.045-0.072,0.102-0.102,0.132
	c-0.05,0.053-0.135,0.11-0.207,0.123c-0.103,0.015-0.174-0.079-0.236-0.146c-0.078-0.083-0.157-0.151-0.271-0.175
	c-0.148-0.032-0.298-0.011-0.446,0.023c-0.063,0.018-0.15,0.025-0.201,0.063c-0.049,0.035-0.079,0.072-0.124-0.001
	c-0.032-0.056-0.037-0.062-0.103-0.088c-0.1-0.04-0.195-0.196-0.307-0.143c-0.048,0.021-0.115,0.062-0.14,0.108
	c-0.021,0.039-0.016,0.093-0.025,0.136c-0.006,0.026-0.028,0.05-0.033,0.074c-0.003,0.018,0.007,0.029,0.004,0.046
	c-0.004,0.037-0.018,0.066-0.036,0.1c-0.04,0.077-0.102,0.139-0.14,0.216c-0.013,0.022-0.026,0.045-0.052,0.057
	c-0.023,0.011-0.054,0.001-0.079,0.011c-0.059,0.021-0.09,0.095-0.146,0.119c-0.029,0.014-0.061,0.029-0.094,0.042
	c-0.112,0.054-0.234,0.133-0.365,0.116c-0.082-0.012-0.132-0.114-0.217-0.113c-0.041,0.002-0.092,0.013-0.136,0.018
	c-0.048,0.006-0.103,0.006-0.149,0.008c-0.063,0.003-0.082-0.039-0.113-0.085c-0.023-0.032-0.027-0.081-0.058-0.107
	c-0.068-0.053-0.188,0.04-0.259,0.054c-0.077,0.014-0.12-0.036-0.184-0.068c-0.083-0.038-0.161-0.036-0.238,0.012
	c-0.084,0.053-0.15,0.049-0.248,0.042c-0.113-0.006-0.229-0.001-0.343,0.001c-0.076,0-0.129,0.024-0.158,0.096
	c-0.034,0.08-0.054,0.162-0.081,0.244c-0.007,0.025-0.021,0.05-0.028,0.074c-0.009,0.032-0.002,0.068-0.026,0.094
	c-0.023,0.027-0.08,0.021-0.111,0.028c-0.08,0.017-0.167,0.015-0.248,0.015c-0.048,0-0.196-0.022-0.218,0.033
	c-0.01,0.027,0.003,0.083,0.003,0.114c0.002,0.133-0.139,0.224-0.168,0.348c-0.014,0.064-0.011,0.13-0.012,0.197
	c-0.002,0.068-0.03,0.12-0.053,0.185c-0.021,0.06-0.016,0.124-0.016,0.186c0,0.063,0.007,0.128,0.021,0.188
	c0.024,0.092,0.078,0.074,0.152,0.07c0.076-0.003,0.102,0.047,0.138,0.102c0.036,0.051,0.088,0.088,0.128,0.137
	c0.042,0.05,0.069,0.105,0.101,0.158c0.059,0.102,0.058,0.236,0.031,0.348c-0.018,0.078-0.079,0.14-0.103,0.219
	c-0.018,0.06-0.026,0.082-0.084,0.116c-0.054,0.03-0.079,0.063-0.079,0.129c0,0.034,0.009,0.056,0.021,0.087
	c0.012,0.027,0.011,0.051,0.014,0.079c0.046,0.017,0.077,0.038,0.084,0.085c0.007,0.049-0.016,0.085-0.016,0.131
	c-0.001,0.051,0.063,0.056,0.098,0.074c0.047,0.024,0.091,0.051,0.139,0.07c0.06,0.022,0.038,0.049,0.043,0.105
	c0.002,0.046,0.033,0.076,0.034,0.124c0.001,0.049,0.012,0.103-0.029,0.138c-0.034,0.028-0.086,0.041-0.127,0.059
	c-0.065,0.029-0.088,0.106-0.07,0.172c0.011,0.043,0.024,0.078,0.024,0.124c0.002,0.046-0.002,0.093,0.005,0.138
	c0.005,0.022,0.022,0.038,0.026,0.062c0.006,0.021,0.002,0.048,0.002,0.07c-0.002,0.048,0,0.094,0.005,0.14
	c0.004,0.027,0.015,0.04,0.023,0.065c0.009,0.021,0.005,0.045,0.005,0.067c0,0.05-0.017,0.08-0.046,0.12
	c-0.022,0.031-0.08,0.066-0.09,0.102c-0.014,0.055,0.027,0.102,0.045,0.152c0.008,0.021,0.004,0.047,0.014,0.068
	c0.016,0.031,0.066,0.059,0.093,0.082c0.081,0.068,0.167,0.035,0.261,0.055c0.095,0.021,0.161,0.113,0.242,0.165
	c0.078,0.053,0.184,0.053,0.273,0.021c0.083-0.026,0.24-0.104,0.282,0.019c0.03,0.002,0.064,0,0.093-0.013
	c0.032-0.013,0.054-0.034,0.086-0.006c0.021,0.02,0.021,0.051,0.038,0.074c0.021,0.023,0.047,0.031,0.076,0.04
	c0.027,0.007,0.052,0.021,0.079,0.028c0.035,0.012,0.073-0.003,0.105,0.014c0.029,0.019,0.04,0.054,0.061,0.076
	c0.027,0.027,0.065,0.036,0.094,0.063c0.023,0.021,0.042,0.052,0.068,0.073c0.065,0.06,0.176,0.069,0.258,0.083
	c0.057,0.011,0.111,0.011,0.146,0.062c0.038,0.054,0.027,0.109,0.008,0.166c-0.02,0.063-0.008,0.125-0.023,0.187
	s-0.092,0.083-0.146,0.1c-0.07,0.023-0.073-0.007-0.123-0.046c-0.063-0.045-0.126,0.01-0.171,0.055
	c-0.098,0.091-0.253,0.034-0.351,0.123c-0.033,0.03-0.02,0.064-0.072,0.07c-0.031,0.004-0.065-0.007-0.1,0.006
	c-0.034,0.012-0.068,0.041-0.102,0.06c-0.056,0.03-0.11,0.063-0.143,0.121c-0.022,0.046-0.046,0.074-0.097,0.091
	c-0.099,0.029-0.206-0.018-0.301,0.012c-0.059,0.019-0.12,0.04-0.174,0.07c-0.051,0.025-0.135,0.06-0.168,0.106
	c-0.034,0.052-0.077,0.095-0.147,0.086c-0.027-0.004-0.322-0.077-0.331-0.046c-0.046,0.173-0.197,0.029-0.288-0.007
	c-0.046-0.018-0.096,0.001-0.127-0.048c-0.031-0.051-0.019-0.108-0.052-0.159c-0.023-0.041-0.04-0.094-0.076-0.128
	c-0.035-0.038-0.103-0.015-0.149-0.02c-0.046-0.005-0.072-0.037-0.112-0.046c-0.023-0.006-0.058-0.012-0.079-0.002
	c-0.02,0.01-0.031,0.038-0.05,0.05c-0.098,0.073-0.223,0.041-0.334,0.063c-0.049,0.011-0.107,0.03-0.148-0.014
	c-0.017-0.017-0.017-0.041-0.031-0.06c-0.014-0.015-0.047-0.031-0.065-0.037c-0.104-0.041-0.227-0.044-0.338-0.063
	c-0.053-0.011-0.096-0.02-0.144-0.048c-0.052-0.027-0.086-0.08-0.14-0.107c-0.097-0.047-0.194-0.018-0.297-0.037
	c-0.033-0.006-0.029-0.016-0.054-0.034c-0.018-0.013-0.048-0.018-0.068-0.021c-0.043-0.005-0.111-0.011-0.152,0.008
	c-0.004,0.079-0.006,0.134-0.048,0.205c-0.032,0.054-0.072,0.111-0.131,0.137c-0.067,0.027-0.131,0.013-0.198-0.002
	c-0.037-0.008-0.171-0.059-0.186-0.001c-0.036,0.005-0.079,0.003-0.115-0.002c-0.042-0.005-0.09-0.005-0.135-0.005
	c-0.076,0-0.173,0.026-0.241,0c-0.042-0.018-0.068-0.027-0.111-0.035c-0.04-0.006-0.08-0.015-0.118-0.019
	c-0.102-0.013-0.222,0.031-0.293-0.064c-0.02-0.028-0.033-0.055-0.057-0.08c-0.021-0.022-0.026-0.04-0.04-0.067
	c-0.014-0.029-0.036-0.049-0.05-0.075c-0.013-0.02-0.021-0.04-0.034-0.059c-0.025-0.039-0.057-0.08-0.063-0.129
	c-0.006-0.042,0.007-0.084-0.007-0.128c-0.015-0.04-0.037-0.08-0.054-0.123s-0.023-0.088-0.035-0.13
	c-0.015-0.057-0.001-0.081-0.05-0.118c-0.041-0.029-0.078-0.061-0.118-0.09c-0.034-0.026-0.018-0.076-0.029-0.113
	c-0.017-0.051-0.038-0.099-0.057-0.147c-0.013-0.035-0.009-0.069-0.021-0.102c-0.017-0.032-0.032-0.024-0.063-0.043
	c-0.035-0.021-0.069-0.048-0.098-0.079c-0.026-0.033-0.029-0.07-0.049-0.107c-0.032-0.055-0.04-0.134-0.04-0.2
	c0-0.085,0.016-0.164,0.021-0.249c0.006-0.118,0.025-0.224,0.046-0.337c0.021-0.116-0.033-0.23-0.142-0.282
	c-0.027-0.012-0.089-0.03-0.115-0.001c-0.016,0.015-0.016,0.05-0.031,0.07c-0.035,0.05-0.09,0.082-0.123,0.131
	c-0.022,0.033-0.035,0.078-0.065,0.101c-0.033,0.026-0.074,0.028-0.113,0.037c-0.082,0.019-0.16,0.022-0.245,0.023
	c-0.052,0-0.113-0.001-0.162-0.023c-0.039-0.019-0.09-0.083-0.093-0.127c0-0.065,0.011-0.146,0.025-0.209
	c0.013-0.055,0.044-0.094,0.024-0.154c-0.04-0.118-0.216-0.078-0.306-0.061c-0.119,0.021-0.232,0.031-0.353-0.001
	c-0.097-0.025-0.228-0.068-0.258-0.177c-0.03-0.107,0.047-0.212,0.051-0.321c0.003-0.102-0.039-0.244-0.112-0.317
	c-0.089-0.09-0.18-0.013-0.202,0.089c-0.012,0.056-0.016,0.112-0.039,0.166c-0.029,0.065-0.073,0.121-0.121,0.172
	c-0.016,0.018-0.065,0.082-0.095,0.068c-0.022-0.011-0.024-0.096-0.032-0.118c-0.025-0.099-0.108-0.187-0.092-0.294
	c0.021-0.123,0.045-0.212-0.001-0.336c-0.042-0.111-0.054-0.212-0.054-0.33c0-0.119,0.012-0.202,0.119-0.264
	c0.067-0.036,0.132-0.071,0.193-0.116c0.061-0.044,0.127-0.084,0.075-0.158c-0.059-0.085-0.102-0.177-0.147-0.271
	c-0.022-0.046-0.056-0.094-0.062-0.146c-0.006-0.049,0.006-0.099,0.002-0.148c-0.004-0.073-0.038-0.137-0.101-0.178
	c-0.035-0.023-0.069-0.051-0.104-0.072c-0.041-0.026-0.087-0.024-0.132-0.035c-0.054-0.016-0.098-0.051-0.15-0.072
	c-0.037-0.016-0.065-0.018-0.098-0.044c-0.081-0.061-0.154-0.136-0.21-0.218c-0.057-0.083-0.111-0.168-0.167-0.254
	c-0.042-0.068-0.083-0.142-0.14-0.202c-0.033-0.035-0.058-0.079-0.092-0.115c-0.093-0.102-0.196-0.207-0.305-0.292
	c-0.089-0.068-0.19-0.123-0.293-0.168c-0.219-0.095-0.464-0.112-0.701-0.083c-0.053,0.004-0.105,0.007-0.158,0.025
	c-0.118,0.043-0.188,0.177-0.262,0.271c-0.089,0.111-0.192,0.194-0.25,0.327c-0.024,0.057-0.065,0.099-0.11,0.142
	c-0.05,0.048-0.088,0.088-0.144,0.126c-0.031,0.021-0.055,0.049-0.082,0.072c-0.032,0.026-0.058,0.04-0.083,0.071
	c-0.026,0.037-0.061,0.068-0.09,0.099c-0.073,0.071-0.147,0.14-0.222,0.206c-0.063,0.054-0.129,0.104-0.2,0.144
	c-0.053,0.03-0.11,0.045-0.166,0.064c-0.049,0.019-0.08,0.009-0.129-0.005c-0.037-0.009-0.075-0.021-0.109-0.04
	c-0.106-0.055-0.202-0.112-0.265-0.215c-0.026-0.042-0.049-0.081-0.067-0.129c-0.022-0.05-0.043-0.101-0.066-0.151
	c-0.02-0.046-0.016-0.077-0.02-0.128c-0.008-0.115-0.016-0.227-0.043-0.34c-0.014-0.063-0.022-0.126-0.025-0.188
	c-0.001-0.058-0.013-0.125-0.001-0.182c0.007-0.041,0.025-0.078,0.031-0.122c0.006-0.065,0.013-0.133,0.005-0.198
	c-0.005-0.033-0.024-0.072-0.036-0.105c-0.02-0.048-0.022-0.104-0.042-0.155c-0.024-0.056-0.054-0.11-0.083-0.164
	c-0.044-0.077-0.081-0.158-0.12-0.238c-0.07-0.138-0.118-0.287-0.184-0.43c-0.058-0.128-0.142-0.275-0.15-0.418
	c-0.003-0.065,0.003-0.134,0.021-0.194c0.018-0.064,0.059-0.117,0.09-0.175c0.077-0.136,0.149-0.282,0.263-0.394
	c0.004,0.063,0,0.119-0.018,0.179c-0.013,0.056-0.037,0.118-0.023,0.175c0.03,0.109,0.193,0.123,0.285,0.131
	c0.047,0.008,0.113,0.015,0.139-0.035c0.024-0.05-0.006-0.112,0.004-0.163c0.015-0.069,0.082-0.095,0.14-0.116
	c0.072-0.027,0.14-0.055,0.207-0.097c0.038-0.023,0.032-0.052,0.062-0.083c0.018-0.023,0.044-0.046,0.068-0.067
	c0.037-0.037,0.053-0.083,0.045-0.135c-0.031-0.017-0.073-0.011-0.109-0.011c-0.094,0-0.184,0.016-0.276,0.024
	c-0.095,0.013-0.193,0.02-0.281,0.057c-0.112,0.045-0.174,0.19-0.125,0.305c0.049,0.12,0.222,0.098,0.327,0.092
	c0.14-0.007,0.272-0.03,0.404-0.073c0.117-0.039,0.224-0.103,0.32-0.177c0.048-0.038,0.097-0.078,0.143-0.119
	c0.044-0.036,0.054-0.076,0.088-0.12c0.028-0.034,0.064-0.065,0.093-0.102c0.046-0.059,0.094-0.109,0.144-0.159
	c0.058-0.062,0.111-0.132,0.169-0.194c0.071-0.073,0.131-0.146,0.183-0.231c0.023-0.04,0.04-0.068,0.05-0.113
	c0.018-0.077,0.025-0.158,0.062-0.229c0.035-0.071,0.09-0.132,0.114-0.207c0.019-0.057,0.022-0.109,0.032-0.167
	c0.015-0.078,0.08-0.144,0.08-0.229c0-0.031-0.005-0.051,0.011-0.082c0.02-0.038,0.048-0.065,0.053-0.109
	c0.008-0.064,0.035-0.12,0.035-0.188c0.003-0.168,0.048-0.331,0.043-0.501c-0.005-0.111,0.059-0.212,0.059-0.32
	c0-0.041-0.034-0.081,0-0.122c0-0.047-0.011-0.085,0.007-0.127c0.016-0.038,0.022-0.077,0.028-0.117c0.013-0.096,0-0.199,0-0.298
	c0.002-0.078-0.03-0.166-0.052-0.243c-0.013-0.063-0.021-0.131-0.024-0.197c-0.001-0.052,0.011-0.093-0.001-0.142
	c-0.04-0.178-0.062-0.351-0.079-0.532c-0.008-0.084-0.063-0.149-0.087-0.229c-0.03-0.094-0.056-0.182-0.11-0.265
	c-0.036-0.055-0.067-0.11-0.103-0.167c-0.075-0.124-0.183-0.225-0.265-0.348c-0.058-0.088-0.111-0.176-0.184-0.255
	c-0.095-0.105-0.21-0.194-0.313-0.294c-0.038-0.036-0.084-0.063-0.119-0.101c-0.055-0.056-0.107-0.104-0.168-0.152
	c-0.051-0.039-0.102-0.08-0.15-0.123c-0.053-0.043-0.11-0.077-0.162-0.122c-0.06-0.052-0.117-0.105-0.175-0.158
	c-0.068-0.062-0.147-0.111-0.215-0.174c-0.166-0.15-0.333-0.291-0.535-0.388c-0.257-0.126-0.496-0.277-0.773-0.367
	c-0.081-0.024-0.161-0.045-0.242-0.062c-0.063-0.012-0.122-0.023-0.183-0.044c-0.067-0.023-0.128-0.058-0.197-0.078
	c-0.132-0.041-0.28,0.012-0.404-0.052c-0.064-0.03-0.118-0.083-0.179-0.124c-0.055-0.039-0.118-0.064-0.178-0.099
	c-0.136-0.074-0.186-0.188-0.16-0.338c0.028-0.159,0.017-0.291-0.063-0.436c-0.061-0.109-0.124-0.216-0.181-0.329
	c-0.034-0.069-0.063-0.137-0.076-0.212c-0.01-0.079-0.012-0.159-0.031-0.238c-0.029-0.123-0.119-0.283,0.018-0.375
	c0.064-0.043,0.143-0.032,0.212-0.054c0.036-0.012,0.07-0.03,0.098-0.054c0.038-0.033,0.035-0.068,0.046-0.114
	c0.016-0.073-0.01-0.142-0.034-0.209c-0.053-0.145-0.034-0.294-0.061-0.44c-0.005-0.029-0.022-0.079-0.01-0.104
	c0.012-0.03,0.071-0.065,0.097-0.085c0.045-0.036,0.094-0.07,0.137-0.109c0.036-0.032,0.063-0.071,0.094-0.106
	c0.021-0.024,0.042-0.042,0.063-0.064c0.031-0.032,0.068-0.056,0.099-0.089c0.027-0.027,0.052-0.067,0.065-0.102
	c0.006-0.018,0-0.046,0.009-0.061c0.01-0.013,0.039-0.013,0.051-0.016c0.081-0.021,0.127-0.085,0.185-0.145
	c0.026-0.03,0.07-0.055,0.094-0.087c0.025-0.032,0.027-0.082,0.033-0.122c0.005-0.032,0.011-0.069,0.043-0.091
	c0.034-0.026,0.076-0.043,0.111-0.071c0.04-0.026,0.062-0.063,0.098-0.095c0.031-0.026,0.061-0.054,0.088-0.085
	c0.048-0.053,0.111-0.087,0.129-0.161c0.009-0.032,0.009-0.082,0.032-0.11c0.026-0.029,0.073-0.058,0.103-0.083
	c0.075-0.058,0.15-0.124,0.222-0.185c0.083-0.071,0.153-0.149,0.23-0.219c0.064-0.058,0.092-0.13,0.13-0.207
	c0.03-0.063,0.088-0.156,0.163-0.175c0.035-0.01,0.088-0.008,0.126-0.01c0.043-0.001,0.085,0,0.128,0
	c0.035,0,0.093,0.011,0.119-0.017c0.024-0.03,0.013-0.082,0.022-0.117c0.009-0.044,0.009-0.093,0.032-0.135
	c0.02-0.034,0.051-0.063,0.073-0.097c0.016-0.026,0.026-0.05,0.037-0.079c0.017-0.046,0.044-0.09,0.068-0.134
	c0.044-0.076,0.086-0.158,0.139-0.227c0.058-0.073,0.102-0.158,0.142-0.242c0.021-0.041,0.015-0.079,0.035-0.119
	c0.021-0.04,0.054-0.069,0.083-0.103c0.052-0.063,0.127-0.083,0.191-0.133c0.033-0.023,0.047-0.064,0.076-0.092
	c0.029-0.024,0.062-0.047,0.091-0.068c0.136-0.093,0.281-0.156,0.367-0.305c0.024-0.042,0.018-0.096,0.024-0.139
	c0.006-0.044,0.022-0.094,0.045-0.134c0.051-0.087,0.132-0.146,0.227-0.183c0.008-0.046,0.001-0.101,0.001-0.148
	c0-0.023,0.001-0.049-0.004-0.071c-0.008-0.026-0.02-0.03,0.004-0.056c0.033-0.039,0.064-0.048,0.082-0.099
	c0.018-0.047,0.03-0.092,0.038-0.143c0.079-0.005,0.158-0.01,0.235,0.008c0.086,0.019,0.05,0.123,0.062,0.185
	c0.019,0.11,0.129,0.043,0.194,0.083c0.019,0.011,0.035,0.033,0.051,0.048c0.03,0.029,0.061,0.051,0.097,0.071
	c0.06,0.033,0.114,0.078,0.183,0.088c0.034,0.003,0.063,0,0.095,0.003c0.052,0.01,0.062,0.004,0.092-0.037
	c0.042-0.053,0.078-0.117,0.141-0.149c0.054-0.029,0.146-0.014,0.2,0c0.055,0.015,0.107,0.047,0.163,0.063
	c0.063,0.021,0.124,0.045,0.185,0.067c0.036,0.013,0.07,0.024,0.104,0.034c0.031,0.012,0.055,0.033,0.085,0.045
	c0.034,0.015,0.064,0.013,0.087-0.013c0.038-0.044,0.049-0.07,0.051-0.125c0.002-0.046,0.003-0.098,0.024-0.141
	c0.011-0.024,0.036-0.041,0.048-0.065c0.016-0.032,0.003-0.063,0.011-0.097c0.018-0.059,0.077-0.103,0.105-0.158
	c0.027-0.054,0.029-0.122,0.029-0.183c-0.001-0.031,0.002-0.063,0.002-0.093c-0.002-0.033-0.013-0.044-0.025-0.07
	c-0.014-0.027-0.012-0.054-0.007-0.083c0.008-0.046,0.002-0.058-0.02-0.098c-0.031-0.054-0.042-0.118,0.006-0.159
	c0.05-0.045,0.106-0.084,0.156-0.129c0.063-0.058,0.114-0.12,0.17-0.182c0.056-0.056,0.098-0.133,0.18-0.151
	c0.037-0.009,0.074,0,0.112-0.005c0.074-0.009,0.15-0.009,0.227-0.016c0.048-0.004,0.083-0.021,0.131-0.03
	c0.048-0.012,0.1-0.01,0.15-0.005c0.062,0.006,0.135,0.007,0.191-0.021c0.118-0.056,0.161-0.173,0.214-0.282
	c0.059-0.12,0.239-0.105,0.349-0.125c0.061-0.011,0.116-0.018,0.177-0.02c0.084-0.005,0.104-0.053,0.15-0.117
	c0.014-0.02,0.035-0.041,0.053-0.056c0.021-0.021,0.05-0.029,0.07-0.051C24.166,10.066,24.122,9.957,24.122,9.865z"/>
<g>
	<g>
		<g>
			<path fill="#FBD764" d="M42.097,39.432c-1.219,0-2.21-0.989-2.21-2.209c0,1.22-0.987,2.209-2.208,2.209
				c1.221,0,2.208,0.989,2.208,2.209C39.887,40.421,40.878,39.432,42.097,39.432z"/>
		</g>
	</g>
	<g>
		<g>
			<path fill="#FBD764" d="M12.317,12.904c-1.83,0-3.313-1.485-3.313-3.314c0,1.829-1.484,3.314-3.314,3.314
				c1.83,0,3.314,1.482,3.314,3.313C9.003,14.386,10.487,12.904,12.317,12.904z"/>
		</g>
	</g>
	<g>
		<g>
			<path fill="#FBD764" d="M37.535,36.214c-0.692,0-1.254-0.562-1.254-1.254c0,0.692-0.563,1.254-1.254,1.254
				c0.69,0,1.254,0.562,1.254,1.253C36.281,36.775,36.843,36.214,37.535,36.214z"/>
		</g>
	</g>
	<g>
		<g>
			<path fill="#FBD764" d="M13.705,9.324c-0.691,0-1.253-0.561-1.253-1.253c0,0.693-0.562,1.253-1.253,1.253
				c0.691,0,1.253,0.562,1.253,1.254C12.451,9.886,13.014,9.324,13.705,9.324z"/>
		</g>
	</g>
	<g>
		<g>
			<path fill="#FBD764" d="M17.627,35.797c-0.693,0-1.254-0.562-1.254-1.255c0,0.693-0.56,1.255-1.253,1.255
				c0.693,0,1.253,0.56,1.253,1.253C16.374,36.356,16.935,35.797,17.627,35.797z"/>
		</g>
	</g>
	<g>
		<g>
			<path fill="#FBD764" d="M10.349,38.275c-0.693,0-1.254-0.562-1.254-1.253c0,0.691-0.56,1.253-1.253,1.253
				c0.693,0,1.253,0.561,1.253,1.254C9.095,38.836,9.656,38.275,10.349,38.275z"/>
		</g>
	</g>
	<g>
		<g>
			<path fill="#FBD764" d="M14.702,32.242c-1.349,0-2.441-1.093-2.441-2.441c0,1.349-1.093,2.441-2.443,2.441
				c1.35,0,2.443,1.093,2.443,2.44C12.261,33.335,13.353,32.242,14.702,32.242z"/>
		</g>
	</g>
	<g>
		<g>
			<path fill="#FBD764" d="M21.189,4.47c-0.693,0-1.254-0.56-1.254-1.253c0,0.693-0.56,1.253-1.253,1.253
				c0.693,0,1.253,0.562,1.253,1.253C19.935,5.031,20.496,4.47,21.189,4.47z"/>
		</g>
	</g>
	<g>
		<g>
			<path fill="#FBD764" d="M42.965,20.401c-0.693,0-1.254-0.561-1.254-1.254c0,0.693-0.561,1.254-1.255,1.254
				c0.694,0,1.255,0.562,1.255,1.251C41.711,20.962,42.271,20.401,42.965,20.401z"/>
		</g>
	</g>
	<g>
		<g>
			<path fill="#FBD764" d="M47.339,33.29c-0.694,0-1.255-0.561-1.255-1.254c0,0.693-0.562,1.254-1.254,1.254
				c0.692,0,1.254,0.561,1.254,1.253C46.084,33.851,46.645,33.29,47.339,33.29z"/>
		</g>
	</g>
	<g>
		<g>
			<path fill="#FBD764" d="M5.059,24.211c-0.691,0-1.254-0.561-1.254-1.253c0,0.692-0.561,1.253-1.253,1.253
				c0.692,0,1.253,0.562,1.253,1.255C3.805,24.773,4.368,24.211,5.059,24.211z"/>
		</g>
	</g>
	<g>
		<g>
			<path fill="#FBD764" d="M38.537,16.643c-0.693,0-1.252-0.562-1.252-1.253c0,0.692-0.563,1.253-1.256,1.253
				c0.692,0,1.256,0.562,1.256,1.254C37.285,17.205,37.844,16.643,38.537,16.643z"/>
		</g>
	</g>
	<g>
		<g>
			<path fill="#FBD764" d="M38.108,10.016c-1.758,0-3.183-1.426-3.183-3.183c0,1.757-1.426,3.183-3.184,3.183
				c1.758,0,3.184,1.425,3.184,3.184C34.926,11.441,36.351,10.016,38.108,10.016z"/>
		</g>
	</g>
</g>
</svg>
