<?xml version="1.0" encoding="utf-8"?>
<!-- Generator: Adobe Illustrator 16.0.0, SVG Export Plug-In . SVG Version: 6.00 Build 0)  -->
<!DOCTYPE svg PUBLIC "-//W3C//DTD SVG 1.1//EN" "http://www.w3.org/Graphics/SVG/1.1/DTD/svg11.dtd">
<svg version="1.1" id="圖層_1" xmlns="http://www.w3.org/2000/svg" xmlns:xlink="http://www.w3.org/1999/xlink" x="0px" y="0px"
	 width="50px" height="50px" viewBox="0 0 50 50" enable-background="new 0 0 50 50" xml:space="preserve">
<g>
	<g>
		<path fill="#FFFFFF" d="M16.957,15.39c0.501,0,0.908,0.407,0.908,0.91c0,0.502-0.407,0.909-0.908,0.909H6.215
			c-0.753,0-1.363,0.611-1.363,1.364c0,0.753,0.61,1.363,1.363,1.363h19.379c0.753,0,1.363-0.61,1.363-1.363
			c0-0.753-0.61-1.364-1.363-1.364h-5.91c-0.503,0-0.91-0.407-0.91-0.909c0-0.503,0.407-0.91,0.91-0.91h2.728
			c1.005,0,1.817-0.813,1.817-1.818s-0.813-1.818-1.817-1.818h-7.274c-1.005,0-1.819,0.813-1.819,1.818s0.814,1.818,1.819,1.818
			H16.957z"/>
	</g>
	<g>
		<path fill="#FFFFFF" d="M16.412,41.908h0.514c0.568,0,1.029,0.46,1.029,1.027c0,0.568-0.46,1.029-1.029,1.029h-4.114
			c-0.568,0-1.029-0.461-1.029-1.029c0-0.567,0.461-1.027,1.029-1.027h1.543c0.284,0,0.514-0.231,0.514-0.515
			c0-0.284-0.23-0.515-0.514-0.515h-3.6c-1.136,0-2.057-0.921-2.057-2.057c0-1.137,0.921-2.058,2.057-2.058h11.313
			c1.137,0,2.057,0.921,2.057,2.058c0,1.136-0.92,2.057-2.057,2.057h-5.657c-0.284,0-0.514,0.23-0.514,0.515
			C15.898,41.677,16.128,41.908,16.412,41.908L16.412,41.908z"/>
	</g>
	<g>
		<path fill="#FFFFFF" d="M3.908,32.733h9.855c0.778,0,1.408,0.631,1.408,1.408c0,0.778-0.63,1.408-1.408,1.408H3.908
			c-0.777,0-1.408-0.63-1.408-1.408C2.5,33.364,3.131,32.733,3.908,32.733z"/>
	</g>
	<g>
		<g>
			<g>
				<path fill="#F3D166" d="M38.941,43.269c-0.983,0-1.78-0.797-1.78-1.78c0,0.983-0.797,1.78-1.779,1.78
					c0.982,0,1.779,0.797,1.779,1.779C37.161,44.065,37.958,43.269,38.941,43.269z"/>
			</g>
		</g>
		<g>
			<g>
				<path fill="#F3D166" d="M11.626,13.84c-1.475,0-2.67-1.195-2.67-2.67c0,1.475-1.195,2.67-2.67,2.67
					c1.475,0,2.67,1.195,2.67,2.67C8.956,15.036,10.151,13.84,11.626,13.84z"/>
			</g>
		</g>
		<g>
			<g>
				<path fill="#F3D166" d="M35.266,40.677c-0.558,0-1.01-0.453-1.01-1.011c0,0.558-0.453,1.011-1.011,1.011
					c0.558,0,1.011,0.451,1.011,1.009C34.256,41.128,34.708,40.677,35.266,40.677z"/>
			</g>
		</g>
		<g>
			<g>
				<path fill="#F3D166" d="M13.828,9.874c-0.557,0-1.01-0.452-1.01-1.01c0,0.558-0.453,1.01-1.01,1.01
					c0.558,0,1.01,0.452,1.01,1.01C12.818,10.326,13.271,9.874,13.828,9.874z"/>
			</g>
		</g>
		<g>
			<g>
				<path fill="#F3D166" d="M15.904,29.036c-0.558,0-1.01-0.453-1.01-1.011c0,0.558-0.452,1.011-1.01,1.011
					c0.558,0,1.01,0.451,1.01,1.009C14.894,29.487,15.346,29.036,15.904,29.036z"/>
			</g>
		</g>
		<g>
			<g>
				<path fill="#F3D166" d="M8.956,31.033c-0.559,0-1.01-0.452-1.01-1.01c0,0.558-0.452,1.01-1.01,1.01
					c0.558,0,1.01,0.452,1.01,1.01C7.946,31.485,8.397,31.033,8.956,31.033z"/>
			</g>
		</g>
		<g>
			<g>
				<path fill="#F3D166" d="M12.462,26.172c-1.086,0-1.967-0.88-1.967-1.967c0,1.086-0.88,1.967-1.967,1.967
					c1.086,0,1.967,0.881,1.967,1.967C10.496,27.053,11.376,26.172,12.462,26.172z"/>
			</g>
		</g>
		<g>
			<g>
				<path fill="#F3D166" d="M22.026,5.962c-0.558,0-1.01-0.452-1.01-1.01c0,0.558-0.452,1.01-1.01,1.01
					c0.558,0,1.01,0.452,1.01,1.009C21.017,6.415,21.468,5.962,22.026,5.962z"/>
			</g>
		</g>
		<g>
			<g>
				<path fill="#F3D166" d="M47.158,20.965c-0.558,0-1.01-0.452-1.01-1.01c0,0.558-0.452,1.01-1.01,1.01
					c0.558,0,1.01,0.452,1.01,1.01C46.148,21.417,46.601,20.965,47.158,20.965z"/>
			</g>
		</g>
		<g>
			<g>
				<path fill="#F3D166" d="M47.5,38.319c-0.558,0-1.01-0.451-1.01-1.01c0,0.559-0.452,1.01-1.011,1.01
					c0.559,0,1.011,0.452,1.011,1.01C46.49,38.771,46.942,38.319,47.5,38.319z"/>
			</g>
		</g>
		<g>
			<g>
				<path fill="#F3D166" d="M7.946,21.869c-0.557,0-1.01-0.452-1.01-1.01c0,0.558-0.453,1.01-1.01,1.01
					c0.557,0,1.01,0.453,1.01,1.01C6.936,22.322,7.389,21.869,7.946,21.869z"/>
			</g>
		</g>
		<g>
			<g>
				<path fill="#F3D166" d="M38.172,15.771c-0.559,0-1.011-0.452-1.011-1.009c0,0.557-0.451,1.009-1.01,1.009
					c0.559,0,1.01,0.453,1.01,1.01C37.161,16.223,37.613,15.771,38.172,15.771z"/>
			</g>
		</g>
		<g>
			<g>
				<path fill="#F3D166" d="M38.821,10.431c-1.966,0-3.56-1.594-3.56-3.56c0,1.965-1.594,3.56-3.56,3.56
					c1.966,0,3.56,1.594,3.56,3.56C35.262,12.024,36.855,10.431,38.821,10.431z"/>
			</g>
		</g>
	</g>
	<path fill="#F3D166" d="M23.545,11.302c0-0.076,0.003-0.113,0.038-0.178c0.026-0.05,0.026-0.082,0.026-0.144
		c0.001-0.134,0.06-0.146,0.144-0.227c0.042-0.04,0.044-0.09,0.093-0.121c0.039-0.025,0.105-0.038,0.096-0.107
		c0.056-0.025,0.152-0.046,0.194-0.089c0.054-0.059,0.041-0.12,0.138-0.132c0.134-0.019,0.198,0.215,0.318,0.093
		c0.107-0.109,0.172-0.207,0.178-0.369c0.004-0.098-0.067-0.111-0.102-0.188C24.637,9.776,24.66,9.67,24.663,9.6
		c0.131-0.035,0.195-0.075,0.233-0.207c0.031-0.107,0.098-0.176,0.143-0.273c0.043-0.092,0.023-0.229,0.128-0.279
		c0.049-0.023,0.11-0.014,0.163-0.025c0.065-0.014,0.113-0.043,0.163-0.086c0.105-0.092,0.166-0.114,0.304-0.077
		c0.103,0.027,0.227,0.045,0.275,0.152c0.05,0.11,0.03,0.24,0.078,0.351c0.044,0.104,0.12,0.19,0.168,0.291
		c0.058,0.119,0.062,0.249,0.073,0.377c0.01,0.119,0.045,0.195,0.12,0.289c0.095,0.004,0.198,0.065,0.283,0.106
		c0.109,0.053,0.242,0.034,0.299,0.155c0.049,0.102,0.053,0.216,0.146,0.288c0.096,0.072,0.231,0.11,0.351,0.076
		c0.127-0.036,0.19-0.094,0.32-0.021c0.058,0.032,0.256,0.183,0.304,0.153c0.039-0.024,0.016-0.1,0.066-0.129
		c0.044-0.024,0.151-0.02,0.2-0.015c0.067,0.008,0.248,0.055,0.257,0.13c0.007,0.057-0.054,0.124-0.058,0.185
		c-0.003,0.072,0.027,0.123,0.056,0.186c0.053,0.119,0.037,0.295,0.026,0.424c-0.1,0.001-0.116,0.083-0.122,0.162
		c-0.005,0.063-0.012,0.055-0.043,0.104c-0.023,0.038-0.024,0.069-0.021,0.114c0.006,0.073,0.022,0.146,0.033,0.217
		c0.012,0.104-0.044,0.112-0.105,0.176c-0.06,0.062-0.053,0.131-0.053,0.213c0,0.036-0.01,0.085,0.002,0.118
		c0.009,0.036,0.037,0.048,0.054,0.076c0.019,0.03,0.027,0.065,0.034,0.101c0.016,0.059,0.026,0.048,0.062,0.087
		c0.051,0.059,0.05,0.126,0.086,0.196c0.049,0.089-0.052,0.235-0.098,0.321c-0.057,0.109-0.123,0.211-0.2,0.309
		c-0.086,0.108-0.186,0.19-0.294,0.276c-0.093,0.072-0.117,0.155-0.15,0.266c-0.032,0.102-0.098,0.233-0.027,0.332
		c0.059,0.083,0.189,0.174,0.286,0.202c0.143,0.042,0.313-0.018,0.463-0.007c0.156,0.012,0.244,0.105,0.363,0.202
		c0.074,0.061,0.386,0.213,0.425,0.049c0.084-0.021,0.121,0.026,0.123,0.1c0,0.039-0.002,0.073,0.008,0.11
		c0.029,0.112,0.065,0.233,0.104,0.345c0.031,0.089,0.073,0.177,0.078,0.272c0.001,0.098,0.016,0.193,0.014,0.292
		c-0.001,0.112-0.06,0.139-0.115,0.227c-0.04,0.061-0.064,0.127-0.107,0.188c-0.109,0.159,0.118,0.191,0.223,0.262
		c0.036,0.026,0.073,0.056,0.117,0.064c0.052,0.011,0.109-0.016,0.149,0.028c0.092,0.101-0.01,0.267,0.061,0.382
		c0.036,0.06,0.094,0.089,0.126,0.159c0.024,0.056,0.062,0.123,0.065,0.184c0.007,0.077-0.003,0.169,0.014,0.245
		c0.021,0.087,0.121,0.065,0.17,0.137c0.035,0.05,0.026,0.117,0.06,0.167c0.044,0.067,0.122,0.164,0.188,0.208
		c0.049,0.032,0.115,0.031,0.164,0.059c0.055,0.03,0.093,0.089,0.12,0.141c0.026,0.043,0.032,0.058,0.075,0.08
		c0.03,0.015,0.066,0.018,0.099,0.039c0.061,0.038,0.099,0.135,0.164,0.166c0.057,0.025,0.038-0.01,0.068-0.049
		c0.027-0.038,0.054-0.041,0.095-0.06c0.071,0.075,0.018,0.127-0.023,0.19c-0.047,0.071-0.067,0.128-0.067,0.215
		c0.002,0.082-0.016,0.158-0.016,0.243c0,0.089-0.024,0.173-0.013,0.256c0.071,0.009,0.145-0.004,0.208,0.02
		c0.058,0.021,0.123,0.037,0.178,0.064c0.026,0.169-0.179,0.3-0.281,0.413c-0.09,0.101-0.242,0.362-0.328,0.119
		c-0.099-0.021-0.103,0.134-0.124,0.187c-0.025,0.066-0.063,0.141-0.067,0.212c-0.007,0.115-0.045,0.261-0.119,0.356
		c-0.045,0.06-0.112,0.06-0.15,0.13c-0.048,0.089-0.06,0.188-0.102,0.28c-0.052,0.117-0.142,0.208-0.193,0.326
		c-0.024,0.058-0.051,0.109-0.089,0.159c-0.027,0.038-0.076,0.08-0.079,0.13c-0.004,0.083,0.093,0.188,0.118,0.268
		c0.033,0.103,0.074,0.2,0.135,0.292c0.071,0.11,0.159,0.112,0.282,0.117c0.223,0.013,0.414,0.101,0.617,0.184
		c0.116,0.048,0.241,0.05,0.361,0.079c0.095,0.021,0.176,0.059,0.237,0.128c0.068,0.081,0.145,0.147,0.242,0.188
		c0.113,0.047,0.241-0.004,0.357,0.036c0.081,0.028,0.188,0.097,0.236,0.167c0.058,0.08,0.087,0.187,0.162,0.251
		c0.044,0.038,0.105,0.054,0.151,0.093c0.049,0.04,0.089,0.091,0.14,0.131c0.07,0.057,0.125,0.125,0.201,0.173
		c0.039,0.025,0.087,0.042,0.121,0.074c0.044,0.04,0.055,0.113,0.107,0.144c0.098,0.058,0.247-0.006,0.352,0.007
		c0.11,0.015,0.171,0.147,0.093,0.226c-0.091,0.093-0.163,0.14-0.107,0.285c0.021,0.057,0.057,0.092,0.067,0.153
		c0.011,0.056,0.026,0.11,0.037,0.165c0.011,0.06-0.002,0.118,0.032,0.169c0.052,0.083,0.18,0.143,0.208,0.236
		c0.017,0.059-0.011,0.121,0.006,0.18c0.021,0.068,0.064,0.091,0.021,0.163c-0.068,0.116-0.123,0.174-0.066,0.313
		c0.048,0.108-0.064,0.193-0.16,0.22c-0.08,0.022-0.165,0.119-0.217,0.189c-0.041,0.056-0.021,0.108-0.039,0.17
		c-0.016,0.054-0.077,0.078-0.077,0.139c-0.001,0.063,0.069,0.089,0.023,0.144c-0.05,0.059-0.104,0.036-0.103,0.14
		c0,0.047,0.021,0.067,0.04,0.106c0.021,0.045,0.013,0.038,0.006,0.081c-0.006,0.039-0.021,0.032-0.01,0.074
		c0.007,0.031,0.032,0.042,0.027,0.081c-0.009,0.001-0.018,0.004-0.026,0.005c-0.001,0.009-0.003,0.017-0.006,0.026
		c-0.008,0.004-0.036,0.013-0.045,0.013c-0.029-0.049-0.038-0.106-0.107-0.105c-0.075,0.001-0.082,0.085-0.122,0.132
		c-0.046,0.048-0.102,0.06-0.084,0.145c0.013,0.058,0.058,0.064,0.084,0.112c0.035,0.063-0.03,0.116-0.022,0.181
		c0.003,0.046,0.074,0.116,0.022,0.164c-0.02,0.018-0.071,0-0.099,0.016c-0.032,0.018-0.066,0.067-0.101,0.093
		c-0.047,0.034-0.093,0.071-0.138,0.11c-0.058,0.051-0.118,0.101-0.174,0.158c-0.016,0.018-0.05,0.04-0.063,0.062
		c-0.016,0.032-0.003,0.063-0.009,0.098c-0.01,0.044-0.048,0.07-0.061,0.109c-0.012,0.035-0.005,0.088-0.001,0.124
		c0.074,0.004,0.147-0.007,0.218,0.021c0.072,0.029,0.124,0.083,0.185,0.132c0.111,0.09,0.203,0.205,0.276,0.329
		c0.068,0.114,0.079,0.255,0.166,0.359c0.049,0.061,0.094,0.114-0.016,0.145c-0.104,0.027-0.206,0.034-0.234,0.157
		c-0.021,0.096,0.019,0.213-0.032,0.3c-0.069,0.117-0.241,0.137-0.348,0.207c-0.052,0.035-0.102,0.07-0.142,0.119
		c-0.059,0.067-0.044,0.119-0.033,0.207c0.009,0.073,0.021,0.143,0.04,0.214c0.02,0.068,0.054,0.102,0.087,0.161
		c0.021,0.036,0.03,0.076,0.051,0.11c0.036,0.065,0.082,0.108,0.108,0.174c0.029,0.068,0.043,0.139,0.073,0.207
		c0.035,0.072,0.086,0.125,0.131,0.192c0.076,0.111,0.127,0.248,0.258,0.307c0.11,0.05,0.275,0.151,0.31,0.277
		c0.08,0.014,0.162,0.005,0.238,0.029c0.058,0.019,0.091,0.065,0.149,0.091c0.07,0.029,0.146,0.028,0.194,0.08
		c0.05,0.056,0.075,0.134,0.075,0.207c0.06,0.02,0.108-0.036,0.16-0.056c0.053-0.02,0.127-0.025,0.183-0.033
		c0.062-0.008,0.128-0.019,0.157,0.037c0.021,0.042-0.012,0.042,0.045,0.067c0.022,0.011,0.061,0.013,0.086,0.02
		c0.23,0.066,0.427,0.251,0.63,0.378c0.102,0.063,0.197,0.136,0.304,0.192c0.049,0.025,0.098,0.048,0.146,0.074
		c0.053,0.028,0.099,0.074,0.15,0.098s0.13,0.012,0.174,0.045c0.048,0.039,0.032,0.124,0.095,0.15
		c0.059,0.026,0.118-0.029,0.179-0.002c0.022,0.008,0.029,0.026,0.057,0.034c0.025,0.009,0.064,0.012,0.093,0.018
		c0.069,0.015,0.138,0.04,0.211,0.031c0.065-0.009,0.11-0.07,0.181-0.04c0.069,0.029,0.098,0.039,0.178,0.031
		c0.075-0.008,0.151-0.004,0.227-0.012c0.035-0.005,0.113-0.003,0.146-0.02c0.065-0.032,0.077-0.129,0.146-0.168
		c0.067-0.041,0.143-0.069,0.211-0.106c0.06-0.03,0.128-0.099,0.194-0.106c0.073-0.011,0.145,0.03,0.209,0.059
		c0.059,0.023,0.124,0.043,0.186,0.065c0.077,0.026,0.161,0.005,0.242,0.017c0.005,0.044-0.077,0.075-0.104,0.111
		c-0.035,0.05-0.049,0.096-0.051,0.159c-0.002,0.104,0.062,0.196,0.06,0.298c-0.003,0.093-0.086,0.165-0.105,0.258
		c-0.046,0.208-0.473,0.107-0.608,0.076c-0.128-0.031-0.249-0.023-0.381-0.027c-0.082-0.004-0.145-0.053-0.22-0.084
		c-0.09-0.036-0.132-0.072-0.225-0.035c-0.105,0.041-0.217,0.084-0.331,0.072c-0.045-0.006-0.082-0.022-0.13-0.014
		c-0.002,0.049-0.08,0.112-0.113,0.146c-0.057,0.06-0.15,0.122-0.23,0.136c-0.116,0.02-0.196-0.087-0.266-0.161
		c-0.086-0.093-0.174-0.171-0.303-0.197c-0.166-0.034-0.333-0.012-0.498,0.029c-0.073,0.019-0.168,0.026-0.227,0.069
		c-0.054,0.037-0.088,0.078-0.137-0.004c-0.037-0.06-0.043-0.069-0.117-0.098c-0.109-0.045-0.214-0.218-0.341-0.159
		c-0.053,0.024-0.129,0.069-0.157,0.122c-0.022,0.044-0.016,0.103-0.027,0.152c-0.007,0.028-0.031,0.056-0.036,0.083
		c-0.005,0.02,0.008,0.031,0.004,0.05c-0.004,0.041-0.019,0.075-0.04,0.111c-0.044,0.087-0.113,0.154-0.156,0.241
		c-0.015,0.025-0.03,0.05-0.058,0.062c-0.028,0.015-0.061,0.002-0.089,0.014c-0.066,0.025-0.1,0.105-0.163,0.135
		c-0.032,0.015-0.067,0.031-0.104,0.047c-0.127,0.058-0.262,0.146-0.409,0.127c-0.093-0.011-0.146-0.127-0.241-0.124
		c-0.046,0.001-0.103,0.011-0.15,0.019c-0.055,0.007-0.116,0.007-0.168,0.009c-0.069,0.005-0.093-0.043-0.128-0.095
		c-0.025-0.036-0.028-0.091-0.064-0.119c-0.076-0.061-0.21,0.044-0.288,0.059c-0.085,0.016-0.134-0.041-0.206-0.075
		c-0.093-0.044-0.179-0.042-0.266,0.013c-0.094,0.059-0.169,0.054-0.275,0.047c-0.128-0.007-0.258-0.001-0.385,0.001
		c-0.085,0-0.143,0.027-0.176,0.107c-0.038,0.089-0.062,0.18-0.09,0.272c-0.009,0.028-0.025,0.055-0.032,0.082
		c-0.011,0.035-0.003,0.076-0.029,0.104c-0.028,0.031-0.09,0.023-0.126,0.032c-0.088,0.02-0.185,0.018-0.276,0.018
		c-0.054,0-0.22-0.026-0.243,0.036c-0.011,0.028,0.003,0.094,0.003,0.127c0.001,0.148-0.154,0.251-0.187,0.39
		c-0.017,0.071-0.012,0.145-0.014,0.218c-0.001,0.079-0.034,0.136-0.06,0.209c-0.022,0.065-0.018,0.138-0.018,0.207
		c0.001,0.069,0.01,0.143,0.026,0.21c0.025,0.103,0.084,0.081,0.169,0.077c0.084-0.003,0.112,0.055,0.153,0.114
		c0.04,0.059,0.099,0.1,0.144,0.153c0.047,0.054,0.077,0.117,0.111,0.177c0.066,0.113,0.065,0.263,0.036,0.388
		c-0.021,0.088-0.089,0.155-0.115,0.245c-0.021,0.066-0.029,0.093-0.095,0.13c-0.061,0.034-0.087,0.068-0.087,0.143
		c0,0.039,0.011,0.063,0.023,0.099c0.013,0.03,0.011,0.056,0.016,0.088c0.051,0.019,0.085,0.041,0.094,0.096
		c0.007,0.055-0.019,0.095-0.019,0.146c-0.001,0.057,0.07,0.062,0.109,0.083c0.052,0.026,0.102,0.057,0.156,0.077
		c0.065,0.026,0.04,0.056,0.047,0.118c0.003,0.051,0.037,0.087,0.04,0.14c0.001,0.053,0.01,0.114-0.034,0.153
		C31,39.936,30.94,39.949,30.896,39.97c-0.072,0.032-0.098,0.117-0.079,0.19c0.011,0.048,0.028,0.088,0.028,0.14
		c0.001,0.051-0.003,0.103,0.005,0.153c0.006,0.024,0.023,0.042,0.03,0.067c0.006,0.024,0,0.055,0,0.08c0,0.054,0,0.104,0.007,0.156
		c0.005,0.032,0.016,0.044,0.025,0.073c0.009,0.023,0.006,0.049,0.006,0.073c0.001,0.056-0.019,0.093-0.052,0.136
		c-0.025,0.035-0.09,0.073-0.101,0.112c-0.016,0.063,0.032,0.114,0.051,0.17c0.008,0.024,0.004,0.054,0.016,0.077
		c0.018,0.035,0.074,0.066,0.104,0.093c0.09,0.075,0.185,0.037,0.292,0.061c0.105,0.023,0.178,0.125,0.267,0.183
		c0.089,0.061,0.207,0.061,0.308,0.024c0.092-0.03,0.27-0.117,0.315,0.021c0.033,0.002,0.071,0,0.104-0.016
		c0.035-0.015,0.059-0.037,0.095-0.006c0.023,0.021,0.023,0.057,0.043,0.083c0.022,0.027,0.053,0.035,0.086,0.044
		c0.031,0.009,0.058,0.023,0.088,0.033c0.039,0.012,0.08-0.005,0.118,0.015c0.033,0.02,0.044,0.06,0.069,0.085
		c0.028,0.031,0.071,0.041,0.103,0.071c0.027,0.024,0.049,0.059,0.077,0.082c0.072,0.064,0.197,0.076,0.289,0.092
		c0.063,0.012,0.123,0.012,0.162,0.069c0.041,0.06,0.028,0.122,0.008,0.186c-0.021,0.069-0.008,0.141-0.025,0.209
		c-0.019,0.067-0.105,0.092-0.164,0.11c-0.079,0.026-0.082-0.009-0.139-0.051c-0.069-0.051-0.14,0.01-0.19,0.061
		c-0.108,0.102-0.283,0.039-0.392,0.138c-0.037,0.034-0.021,0.072-0.078,0.079c-0.037,0.003-0.077-0.008-0.114,0.005
		c-0.037,0.015-0.075,0.046-0.113,0.067c-0.061,0.033-0.124,0.071-0.158,0.136c-0.026,0.05-0.051,0.081-0.108,0.101
		c-0.109,0.033-0.23-0.02-0.337,0.013c-0.065,0.022-0.134,0.047-0.194,0.08c-0.057,0.028-0.148,0.065-0.186,0.119
		c-0.04,0.057-0.087,0.104-0.166,0.097c-0.031-0.005-0.359-0.088-0.369-0.052c-0.052,0.191-0.222,0.03-0.322-0.009
		c-0.052-0.02-0.108,0.002-0.142-0.053c-0.035-0.057-0.022-0.123-0.057-0.179c-0.028-0.046-0.048-0.104-0.086-0.144
		c-0.04-0.042-0.114-0.017-0.168-0.021c-0.05-0.005-0.078-0.041-0.126-0.052c-0.025-0.006-0.063-0.015-0.087-0.003
		c-0.022,0.012-0.035,0.042-0.057,0.057c-0.107,0.079-0.249,0.046-0.372,0.069c-0.055,0.012-0.119,0.033-0.165-0.015
		c-0.019-0.02-0.019-0.047-0.037-0.067c-0.015-0.016-0.051-0.034-0.071-0.042c-0.116-0.045-0.254-0.049-0.377-0.071
		c-0.06-0.011-0.107-0.02-0.162-0.051c-0.058-0.031-0.096-0.091-0.155-0.12c-0.108-0.054-0.218-0.021-0.331-0.042
		c-0.04-0.006-0.032-0.02-0.06-0.038c-0.021-0.016-0.055-0.021-0.078-0.023c-0.048-0.006-0.123-0.013-0.168,0.01
		c-0.005,0.087-0.009,0.148-0.054,0.228c-0.036,0.061-0.082,0.124-0.147,0.153c-0.075,0.031-0.146,0.014-0.222-0.002
		c-0.043-0.008-0.19-0.066-0.206-0.003c-0.041,0.007-0.089,0.005-0.13-0.001c-0.047-0.004-0.101-0.006-0.151-0.006
		c-0.084,0-0.192,0.03-0.269,0c-0.045-0.02-0.076-0.03-0.123-0.038c-0.045-0.007-0.089-0.016-0.134-0.021
		c-0.112-0.015-0.247,0.034-0.326-0.072c-0.022-0.03-0.037-0.061-0.064-0.089c-0.024-0.024-0.03-0.047-0.044-0.076
		c-0.015-0.03-0.04-0.053-0.057-0.084c-0.013-0.022-0.023-0.044-0.037-0.065c-0.029-0.045-0.063-0.089-0.071-0.144
		c-0.007-0.048,0.009-0.095-0.008-0.141c-0.017-0.048-0.04-0.092-0.059-0.14c-0.02-0.048-0.028-0.098-0.04-0.146
		c-0.017-0.063-0.001-0.09-0.057-0.131c-0.045-0.032-0.087-0.066-0.131-0.102c-0.037-0.028-0.02-0.084-0.034-0.125
		c-0.017-0.057-0.042-0.11-0.063-0.166c-0.014-0.037-0.01-0.076-0.025-0.111c-0.016-0.037-0.035-0.029-0.068-0.05
		c-0.039-0.022-0.077-0.052-0.108-0.087c-0.031-0.036-0.034-0.079-0.057-0.12c-0.034-0.062-0.044-0.15-0.044-0.225
		c0-0.095,0.018-0.184,0.023-0.278c0.007-0.132,0.029-0.249,0.053-0.377c0.023-0.129-0.037-0.258-0.158-0.313
		c-0.03-0.015-0.1-0.032-0.128-0.001c-0.017,0.016-0.018,0.055-0.034,0.078c-0.038,0.056-0.102,0.09-0.139,0.146
		c-0.024,0.036-0.039,0.087-0.073,0.113c-0.036,0.028-0.082,0.03-0.125,0.04c-0.094,0.021-0.178,0.025-0.274,0.026
		c-0.059,0-0.127-0.001-0.181-0.026c-0.042-0.021-0.1-0.093-0.102-0.143c-0.002-0.073,0.012-0.162,0.027-0.233
		c0.014-0.061,0.049-0.105,0.026-0.172c-0.045-0.133-0.241-0.086-0.341-0.067c-0.134,0.023-0.26,0.035-0.394-0.001
		c-0.108-0.028-0.254-0.077-0.289-0.197c-0.033-0.12,0.051-0.238,0.055-0.358c0.004-0.115-0.041-0.273-0.125-0.355
		c-0.1-0.101-0.201-0.016-0.226,0.099c-0.013,0.063-0.018,0.125-0.043,0.187c-0.032,0.072-0.082,0.135-0.135,0.191
		c-0.017,0.02-0.074,0.092-0.106,0.076c-0.025-0.012-0.027-0.106-0.035-0.131c-0.029-0.11-0.121-0.209-0.103-0.328
		c0.023-0.139,0.05-0.238-0.001-0.376c-0.048-0.124-0.062-0.236-0.062-0.369c0.002-0.131,0.014-0.226,0.134-0.294
		c0.074-0.04,0.148-0.08,0.215-0.13c0.067-0.05,0.142-0.094,0.083-0.178c-0.066-0.095-0.113-0.197-0.165-0.302
		c-0.025-0.052-0.063-0.104-0.069-0.163c-0.006-0.055,0.007-0.11,0.002-0.167c-0.007-0.081-0.043-0.152-0.112-0.198
		c-0.04-0.025-0.078-0.055-0.117-0.081c-0.046-0.028-0.098-0.025-0.148-0.038c-0.061-0.018-0.109-0.058-0.167-0.081
		c-0.041-0.017-0.073-0.02-0.11-0.049c-0.089-0.069-0.171-0.151-0.234-0.244c-0.063-0.092-0.125-0.187-0.187-0.282
		c-0.048-0.077-0.093-0.16-0.156-0.228c-0.038-0.039-0.066-0.087-0.104-0.127c-0.104-0.113-0.219-0.231-0.342-0.326
		c-0.101-0.077-0.211-0.14-0.327-0.189c-0.245-0.104-0.518-0.124-0.782-0.093c-0.059,0.005-0.118,0.009-0.176,0.028
		c-0.132,0.048-0.21,0.198-0.293,0.304c-0.098,0.124-0.214,0.217-0.279,0.366c-0.028,0.063-0.073,0.109-0.124,0.157
		c-0.055,0.052-0.098,0.098-0.16,0.142c-0.034,0.022-0.061,0.053-0.092,0.08c-0.034,0.029-0.064,0.044-0.091,0.08
		c-0.03,0.041-0.068,0.075-0.103,0.109c-0.081,0.079-0.163,0.156-0.247,0.231c-0.069,0.059-0.143,0.115-0.224,0.159
		c-0.059,0.032-0.123,0.05-0.185,0.072c-0.055,0.021-0.088,0.01-0.145-0.005c-0.042-0.012-0.083-0.023-0.123-0.044
		c-0.117-0.063-0.224-0.127-0.296-0.241c-0.029-0.046-0.053-0.093-0.074-0.143c-0.025-0.058-0.049-0.114-0.073-0.172
		c-0.023-0.051-0.019-0.086-0.021-0.143c-0.009-0.129-0.02-0.252-0.048-0.379c-0.016-0.069-0.025-0.141-0.027-0.211
		c-0.003-0.064-0.015-0.141-0.003-0.203c0.009-0.047,0.03-0.088,0.035-0.136c0.007-0.073,0.016-0.148,0.006-0.222
		c-0.006-0.036-0.029-0.08-0.041-0.115c-0.021-0.056-0.023-0.117-0.046-0.176c-0.026-0.063-0.061-0.124-0.094-0.184
		c-0.048-0.087-0.09-0.176-0.134-0.266c-0.077-0.155-0.13-0.322-0.203-0.48c-0.065-0.144-0.16-0.308-0.169-0.468
		c-0.003-0.071,0.003-0.149,0.023-0.217c0.021-0.071,0.066-0.13,0.102-0.193c0.085-0.153,0.168-0.315,0.293-0.44
		c0.004,0.068,0,0.133-0.018,0.199c-0.016,0.063-0.042,0.132-0.026,0.196c0.032,0.122,0.215,0.136,0.317,0.146
		c0.052,0.007,0.127,0.015,0.154-0.041c0.027-0.055-0.007-0.125,0.006-0.184c0.016-0.075,0.089-0.104,0.155-0.128
		c0.08-0.03,0.158-0.062,0.231-0.107c0.042-0.025,0.037-0.059,0.067-0.093c0.022-0.025,0.052-0.052,0.078-0.075
		c0.043-0.041,0.059-0.093,0.051-0.15c-0.035-0.02-0.083-0.013-0.122-0.013c-0.104,0-0.205,0.018-0.309,0.028
		c-0.106,0.012-0.214,0.021-0.314,0.062c-0.125,0.052-0.194,0.213-0.141,0.34c0.056,0.136,0.249,0.111,0.367,0.104
		c0.157-0.007,0.304-0.035,0.453-0.083c0.13-0.043,0.248-0.114,0.355-0.196c0.055-0.042,0.108-0.088,0.16-0.133
		c0.047-0.041,0.06-0.086,0.098-0.134c0.032-0.04,0.073-0.074,0.104-0.116c0.05-0.063,0.104-0.12,0.16-0.178
		c0.064-0.068,0.124-0.145,0.189-0.215c0.078-0.082,0.146-0.164,0.203-0.26c0.027-0.044,0.045-0.076,0.057-0.126
		c0.02-0.086,0.028-0.177,0.069-0.257c0.04-0.079,0.101-0.146,0.128-0.231c0.019-0.063,0.024-0.122,0.036-0.187
		c0.016-0.09,0.089-0.161,0.087-0.254c0-0.036-0.006-0.059,0.014-0.093c0.021-0.041,0.052-0.072,0.058-0.122
		c0.01-0.073,0.04-0.134,0.04-0.211c0.002-0.187,0.055-0.369,0.048-0.558c-0.004-0.125,0.066-0.235,0.066-0.357
		c0-0.046-0.038-0.092,0-0.139c0-0.051-0.013-0.095,0.007-0.142c0.017-0.042,0.026-0.085,0.033-0.131c0.014-0.106,0-0.224,0-0.331
		c0.001-0.088-0.036-0.187-0.058-0.271c-0.018-0.072-0.025-0.147-0.028-0.222c-0.001-0.057,0.012-0.104-0.001-0.159
		c-0.045-0.198-0.068-0.392-0.089-0.595c-0.01-0.092-0.07-0.166-0.097-0.255c-0.033-0.104-0.061-0.202-0.122-0.296
		c-0.041-0.061-0.076-0.122-0.114-0.186c-0.086-0.139-0.206-0.253-0.296-0.39c-0.064-0.098-0.124-0.197-0.205-0.284
		c-0.108-0.119-0.236-0.217-0.351-0.329c-0.042-0.041-0.092-0.071-0.132-0.113c-0.061-0.063-0.12-0.116-0.188-0.171
		c-0.057-0.042-0.113-0.088-0.168-0.136c-0.059-0.048-0.123-0.087-0.18-0.137c-0.067-0.059-0.13-0.117-0.195-0.176
		c-0.077-0.068-0.164-0.125-0.24-0.194c-0.186-0.167-0.373-0.324-0.596-0.434c-0.289-0.141-0.557-0.31-0.867-0.409
		c-0.088-0.027-0.178-0.051-0.269-0.07c-0.068-0.013-0.137-0.025-0.204-0.049c-0.075-0.026-0.144-0.063-0.22-0.085
		c-0.148-0.046-0.312,0.014-0.452-0.058c-0.072-0.036-0.131-0.094-0.199-0.139c-0.063-0.042-0.133-0.072-0.2-0.11
		c-0.15-0.083-0.205-0.211-0.178-0.379c0.03-0.179,0.019-0.325-0.07-0.487c-0.068-0.123-0.14-0.242-0.203-0.367
		c-0.038-0.077-0.071-0.153-0.083-0.237c-0.013-0.087-0.015-0.178-0.035-0.266c-0.032-0.139-0.134-0.317,0.02-0.42
		c0.072-0.048,0.159-0.035,0.236-0.06c0.04-0.014,0.079-0.034,0.111-0.061c0.042-0.037,0.04-0.076,0.052-0.126
		c0.018-0.083-0.011-0.159-0.039-0.235c-0.058-0.162-0.037-0.327-0.068-0.491c-0.006-0.032-0.024-0.087-0.011-0.116
		c0.013-0.034,0.079-0.073,0.107-0.095c0.05-0.041,0.106-0.077,0.154-0.122c0.04-0.035,0.07-0.08,0.105-0.119
		c0.022-0.026,0.048-0.047,0.072-0.071c0.034-0.036,0.075-0.063,0.11-0.099c0.029-0.03,0.057-0.075,0.073-0.115
		c0.006-0.02,0-0.051,0.01-0.067c0.011-0.015,0.043-0.015,0.058-0.018c0.091-0.024,0.14-0.094,0.204-0.162
		c0.031-0.034,0.079-0.061,0.106-0.096c0.027-0.036,0.03-0.093,0.037-0.137c0.005-0.037,0.012-0.077,0.046-0.101
		c0.039-0.03,0.086-0.049,0.126-0.078c0.044-0.031,0.068-0.072,0.108-0.106c0.036-0.03,0.069-0.062,0.099-0.096
		c0.053-0.06,0.124-0.098,0.145-0.179c0.009-0.038,0.009-0.093,0.035-0.124c0.029-0.032,0.08-0.065,0.116-0.093
		c0.084-0.065,0.167-0.138,0.248-0.207c0.091-0.079,0.17-0.167,0.257-0.247c0.071-0.065,0.104-0.144,0.145-0.229
		c0.034-0.071,0.099-0.175,0.183-0.197c0.04-0.01,0.099-0.009,0.142-0.01c0.048-0.002,0.096-0.001,0.143-0.001
		c0.04,0,0.104,0.013,0.133-0.019c0.027-0.034,0.016-0.091,0.025-0.132c0.011-0.048,0.011-0.103,0.035-0.148
		c0.021-0.039,0.056-0.072,0.08-0.11c0.019-0.028,0.03-0.057,0.042-0.087c0.019-0.052,0.05-0.102,0.076-0.15
		c0.049-0.085,0.097-0.177,0.156-0.253c0.064-0.082,0.113-0.177,0.158-0.27c0.022-0.046,0.019-0.088,0.04-0.133
		c0.023-0.045,0.059-0.077,0.093-0.116c0.059-0.07,0.143-0.093,0.214-0.147c0.037-0.026,0.052-0.073,0.086-0.103
		c0.033-0.027,0.067-0.052,0.102-0.077c0.152-0.104,0.312-0.175,0.41-0.341c0.027-0.045,0.018-0.105,0.025-0.154
		c0.008-0.049,0.024-0.104,0.051-0.15c0.057-0.098,0.147-0.161,0.252-0.204c0.009-0.052,0.001-0.113,0.001-0.166
		c0-0.026,0.002-0.055-0.004-0.08c-0.007-0.028-0.022-0.033,0.004-0.062c0.037-0.043,0.073-0.052,0.092-0.11
		c0.019-0.053,0.034-0.103,0.042-0.16c0.088-0.006,0.176-0.01,0.264,0.009c0.096,0.021,0.057,0.137,0.068,0.206
		c0.021,0.123,0.143,0.049,0.218,0.093c0.021,0.011,0.038,0.036,0.056,0.053c0.034,0.032,0.069,0.057,0.11,0.08
		c0.066,0.035,0.127,0.087,0.204,0.097c0.036,0.005,0.071,0,0.105,0.005c0.058,0.01,0.069,0.004,0.105-0.042
		c0.047-0.06,0.086-0.131,0.157-0.167c0.059-0.031,0.161-0.016,0.223,0.001c0.063,0.016,0.12,0.051,0.182,0.07
		c0.071,0.023,0.138,0.05,0.208,0.076c0.038,0.015,0.076,0.026,0.114,0.039c0.035,0.012,0.061,0.036,0.095,0.049
		c0.037,0.017,0.071,0.015,0.096-0.016c0.042-0.049,0.055-0.078,0.059-0.139c0.001-0.053,0.003-0.109,0.026-0.158
		c0.013-0.026,0.041-0.044,0.054-0.071c0.018-0.037,0.003-0.072,0.014-0.109c0.019-0.066,0.086-0.115,0.117-0.175
		c0.029-0.062,0.032-0.138,0.031-0.206c-0.001-0.034,0.002-0.069,0.002-0.104c-0.002-0.038-0.014-0.049-0.029-0.078
		c-0.015-0.031-0.011-0.061-0.006-0.094c0.008-0.051,0.002-0.064-0.022-0.109c-0.033-0.061-0.045-0.131,0.008-0.178
		c0.057-0.049,0.118-0.094,0.174-0.145c0.068-0.064,0.125-0.133,0.19-0.202c0.061-0.063,0.109-0.15,0.201-0.169
		c0.042-0.01,0.083,0,0.126-0.006c0.084-0.01,0.168-0.011,0.253-0.019c0.053-0.004,0.093-0.022,0.144-0.035
		c0.056-0.013,0.113-0.009,0.169-0.004c0.068,0.007,0.151,0.008,0.214-0.022c0.132-0.064,0.18-0.194,0.239-0.316
		c0.065-0.134,0.268-0.119,0.39-0.139c0.067-0.012,0.13-0.02,0.197-0.023c0.095-0.005,0.117-0.06,0.167-0.13
		c0.017-0.022,0.041-0.044,0.061-0.063c0.023-0.022,0.056-0.033,0.076-0.057C23.594,11.525,23.545,11.403,23.545,11.302z"/>
	<g>
		<g>
			<g>
				<path fill="#FFFFFF" d="M35.753,24.11c-0.389,0-0.703,0.314-0.703,0.704c0,0.388,0.314,0.704,0.703,0.704h7.744
					c0.777,0,1.407,0.63,1.407,1.408c0,0.778-0.63,1.408-1.407,1.408H30.826c-0.777,0-1.407-0.63-1.407-1.408
					c0-0.777,0.63-1.408,1.407-1.408h2.111c0.39,0,0.705-0.315,0.705-0.704c0-0.389-0.315-0.704-0.705-0.704h-0.704H35.753z"/>
			</g>
		</g>
		<g>
			<path fill="#FFFFFF" d="M35.753,24.11h0.881c0.583,0,1.056-0.473,1.056-1.056s-0.473-1.056-1.056-1.056h-4.4
				c-0.582,0-1.056,0.473-1.056,1.056s0.474,1.056,1.056,1.056H35.753z"/>
		</g>
	</g>
	<g>
		<path fill="#FFFFFF" d="M44.233,29.926H29.775c-1.369,0-2.479,1.109-2.479,2.479c0,1.368,1.11,2.479,2.479,2.479h7.849
			c0.457,0,0.826,0.37,0.826,0.826c0,0.457-0.369,0.826-0.826,0.826h-1.24c-0.685,0-1.238,0.555-1.238,1.239
			s0.554,1.239,1.238,1.239h3.719h1.652c0.685,0,1.24-0.555,1.24-1.239s-0.556-1.239-1.24-1.239h-1.652
			c-0.456,0-0.826-0.369-0.826-0.826c0-0.456,0.37-0.826,0.826-0.826h4.131c1.368,0,2.479-1.11,2.479-2.479
			C46.713,31.035,45.602,29.926,44.233,29.926z"/>
	</g>
</g>
</svg>
