<?xml version="1.0" encoding="utf-8"?>
<!-- Generator: Adobe Illustrator 16.0.0, SVG Export Plug-In . SVG Version: 6.00 Build 0)  -->
<!DOCTYPE svg PUBLIC "-//W3C//DTD SVG 1.1//EN" "http://www.w3.org/Graphics/SVG/1.1/DTD/svg11.dtd">
<svg version="1.1" id="圖層_1" xmlns="http://www.w3.org/2000/svg" xmlns:xlink="http://www.w3.org/1999/xlink" x="0px" y="0px"
	 width="50px" height="50px" viewBox="0 0 50 50" enable-background="new 0 0 50 50" xml:space="preserve">
<g>
	<g>
		<g>
			<rect x="9.835" y="16.936" fill="#FFFFFF" width="30.835" height="24.907"/>
		</g>
		<g>
			<g>
				<g>
					<rect x="33.319" y="23.696" fill="#C2C2C2" width="2.016" height="2.019"/>
				</g>
			</g>
			<g>
				<g>
					<rect x="30.294" y="23.696" fill="#C2C2C2" width="2.016" height="2.019"/>
				</g>
			</g>
			<g>
				<g>
					<rect x="27.271" y="23.696" fill="#C2C2C2" width="2.016" height="2.019"/>
				</g>
			</g>
			<g>
				<g>
					<rect x="24.246" y="23.696" fill="#C2C2C2" width="2.016" height="2.019"/>
				</g>
			</g>
			<g>
				<g>
					<rect x="21.221" y="23.696" fill="#C2C2C2" width="2.017" height="2.019"/>
				</g>
			</g>
		</g>
		<g>
			<g>
				<g>
					<rect x="33.319" y="26.722" fill="#C2C2C2" width="2.016" height="2.017"/>
				</g>
			</g>
			<g>
				<g>
					<rect x="30.294" y="26.722" fill="#C2C2C2" width="2.016" height="2.017"/>
				</g>
			</g>
			<g>
				<g>
					<rect x="27.271" y="26.722" fill="#C2C2C2" width="2.016" height="2.017"/>
				</g>
			</g>
			<g>
				<g>
					<rect x="24.246" y="26.722" fill="#C2C2C2" width="2.016" height="2.017"/>
				</g>
			</g>
			<g>
				<g>
					<rect x="21.221" y="26.722" fill="#C2C2C2" width="2.017" height="2.017"/>
				</g>
			</g>
			<g>
				<g>
					<rect x="18.196" y="26.722" fill="#FBD764" width="2.016" height="2.017"/>
				</g>
			</g>
			<g>
				<g>
					<rect x="15.172" y="26.722" fill="#C2C2C2" width="2.017" height="2.017"/>
				</g>
			</g>
		</g>
		<g>
			<g>
				<g>
					<rect x="33.319" y="29.747" fill="#C2C2C2" width="2.016" height="2.016"/>
				</g>
			</g>
			<g>
				<g>
					<rect x="30.294" y="29.747" fill="#C2C2C2" width="2.016" height="2.016"/>
				</g>
			</g>
			<g>
				<g>
					<rect x="27.271" y="29.747" fill="#C2C2C2" width="2.016" height="2.016"/>
				</g>
			</g>
			<g>
				<g>
					<rect x="24.246" y="29.747" fill="#FBD764" width="2.016" height="2.016"/>
				</g>
			</g>
			<g>
				<g>
					<rect x="21.221" y="29.747" fill="#C2C2C2" width="2.017" height="2.016"/>
				</g>
			</g>
			<g>
				<g>
					<rect x="18.196" y="29.747" fill="#C2C2C2" width="2.016" height="2.016"/>
				</g>
			</g>
			<g>
				<g>
					<rect x="15.172" y="29.747" fill="#C2C2C2" width="2.017" height="2.016"/>
				</g>
			</g>
		</g>
		<g>
			<g>
				<g>
					<rect x="33.319" y="32.771" fill="#C2C2C2" width="2.016" height="2.015"/>
				</g>
			</g>
			<g>
				<g>
					<rect x="30.294" y="32.771" fill="#C2C2C2" width="2.016" height="2.015"/>
				</g>
			</g>
			<g>
				<g>
					<rect x="27.271" y="32.771" fill="#C2C2C2" width="2.016" height="2.015"/>
				</g>
			</g>
			<g>
				<g>
					<rect x="24.246" y="32.771" fill="#C2C2C2" width="2.016" height="2.015"/>
				</g>
			</g>
			<g>
				<g>
					<rect x="21.221" y="32.771" fill="#C2C2C2" width="2.017" height="2.015"/>
				</g>
			</g>
			<g>
				<g>
					<rect x="18.196" y="32.771" fill="#C2C2C2" width="2.016" height="2.015"/>
				</g>
			</g>
			<g>
				<g>
					<rect x="15.172" y="32.771" fill="#C2C2C2" width="2.017" height="2.015"/>
				</g>
			</g>
		</g>
		<g>
			<g>
				<g>
					<rect x="24.246" y="35.796" fill="#C2C2C2" width="2.016" height="2.016"/>
				</g>
			</g>
			<g>
				<g>
					<rect x="21.221" y="35.796" fill="#C2C2C2" width="2.017" height="2.016"/>
				</g>
			</g>
			<g>
				<g>
					<rect x="18.196" y="35.796" fill="#C2C2C2" width="2.016" height="2.016"/>
				</g>
			</g>
			<g>
				<g>
					<rect x="15.172" y="35.796" fill="#FBD764" width="2.017" height="2.016"/>
				</g>
			</g>
		</g>
		<g>
			<rect x="9.835" y="5.704" fill="#FBD764" width="30.835" height="13.644"/>
		</g>
		<g>
			<rect x="9.835" y="19.348" fill="#C2C2C2" width="30.835" height="0.593"/>
		</g>
		<g>
			<path fill="#FFFFFF" d="M18.805,15.479v1.47h-5.547c0.061-0.556,0.241-1.082,0.542-1.58c0.299-0.497,0.892-1.157,1.779-1.979
				c0.712-0.665,1.15-1.114,1.311-1.352c0.218-0.327,0.327-0.649,0.327-0.968c0-0.354-0.096-0.625-0.285-0.813
				c-0.19-0.19-0.451-0.286-0.785-0.286c-0.332,0-0.594,0.101-0.789,0.299c-0.196,0.199-0.308,0.529-0.338,0.992l-1.578-0.159
				c0.095-0.871,0.389-1.495,0.885-1.875c0.495-0.377,1.114-0.568,1.857-0.568c0.815,0,1.455,0.221,1.92,0.66
				c0.467,0.438,0.699,0.984,0.699,1.637c0,0.372-0.066,0.726-0.2,1.062c-0.133,0.336-0.345,0.688-0.634,1.057
				c-0.19,0.244-0.537,0.595-1.037,1.053c-0.499,0.459-0.814,0.762-0.948,0.912s-0.241,0.297-0.323,0.439H18.805z"/>
			<path fill="#FFFFFF" d="M22.261,8.659c0.8,0,1.426,0.285,1.875,0.856c0.536,0.676,0.805,1.796,0.805,3.361
				c0,1.561-0.27,2.685-0.81,3.367c-0.447,0.563-1.07,0.845-1.87,0.845c-0.803,0-1.45-0.308-1.943-0.927
				c-0.491-0.618-0.737-1.718-0.737-3.303c0-1.554,0.272-2.672,0.811-3.354C20.838,8.941,21.461,8.659,22.261,8.659z M22.261,9.971
				c-0.191,0-0.362,0.062-0.512,0.185c-0.149,0.121-0.266,0.341-0.349,0.656c-0.109,0.408-0.163,1.098-0.163,2.065
				s0.049,1.635,0.146,1.995c0.099,0.364,0.221,0.604,0.369,0.725c0.148,0.12,0.318,0.18,0.509,0.18
				c0.192,0,0.364-0.061,0.513-0.184c0.15-0.121,0.266-0.34,0.35-0.654c0.108-0.405,0.162-1.094,0.162-2.062
				s-0.048-1.635-0.146-1.997c-0.098-0.36-0.219-0.604-0.368-0.725C22.623,10.032,22.453,9.971,22.261,9.971z"/>
			<path fill="#FFFFFF" d="M29.761,16.948h-1.582v-5.963c-0.58,0.54-1.261,0.94-2.043,1.199v-1.437
				c0.411-0.136,0.859-0.39,1.344-0.768s0.814-0.817,0.996-1.321h1.285V16.948z"/>
			<path fill="#FFFFFF" d="M31.837,10.275v-1.47h5.411v1.149c-0.447,0.439-0.901,1.069-1.363,1.891
				c-0.462,0.822-0.813,1.697-1.056,2.621c-0.242,0.927-0.361,1.752-0.357,2.481h-1.525c0.025-1.142,0.262-2.305,0.706-3.491
				c0.444-1.186,1.039-2.247,1.782-3.182H31.837z"/>
		</g>
	</g>
	<g>
		<g>
			<g>
				<path fill="#FBD764" d="M45.544,35.327c-1.222,0-2.212-0.991-2.212-2.211c0,1.22-0.988,2.211-2.208,2.211
					c1.22,0,2.208,0.988,2.208,2.208C43.332,36.315,44.322,35.327,45.544,35.327z"/>
			</g>
		</g>
		<g>
			<g>
				<path fill="#FBD764" d="M9.393,18.025c-1.83,0-3.314-1.485-3.314-3.314c0,1.829-1.482,3.314-3.314,3.314
					c1.832,0,3.314,1.482,3.314,3.313C6.079,19.508,7.563,18.025,9.393,18.025z"/>
			</g>
		</g>
		<g>
			<g>
				<path fill="#FBD764" d="M39.727,33.588c-0.693,0-1.255-0.563-1.255-1.256c0,0.693-0.562,1.256-1.254,1.256
					c0.692,0,1.254,0.562,1.254,1.251C38.472,34.149,39.033,33.588,39.727,33.588z"/>
			</g>
		</g>
		<g>
			<g>
				<path fill="#FBD764" d="M11.836,26.038c-1.35,0-2.442-1.093-2.442-2.442c0,1.35-1.094,2.442-2.442,2.442
					c1.348,0,2.442,1.095,2.442,2.442C9.394,27.133,10.486,26.038,11.836,26.038z"/>
			</g>
		</g>
		<g>
			<g>
				<path fill="#FBD764" d="M19.43,3.323c-0.694,0-1.254-0.56-1.254-1.253c0,0.693-0.562,1.253-1.254,1.253
					c0.692,0,1.254,0.563,1.254,1.254C18.176,3.886,18.736,3.323,19.43,3.323z"/>
			</g>
		</g>
		<g>
			<g>
				<path fill="#FBD764" d="M3.295,23.071c-0.691,0-1.254-0.562-1.254-1.254c0,0.692-0.562,1.254-1.254,1.254
					c0.692,0,1.254,0.562,1.254,1.254C2.042,23.633,2.604,23.071,3.295,23.071z"/>
			</g>
		</g>
		<g>
			<g>
				<path fill="#FBD764" d="M37.511,44.322c-1.759,0-3.183-1.428-3.183-3.185c0,1.757-1.426,3.185-3.186,3.185
					c1.76,0,3.186,1.424,3.186,3.185C34.328,45.746,35.752,44.322,37.511,44.322z"/>
			</g>
		</g>
	</g>
</g>
</svg>
