<?xml version="1.0" encoding="utf-8"?>
<!-- Generator: Adobe Illustrator 16.0.0, SVG Export Plug-In . SVG Version: 6.00 Build 0)  -->
<!DOCTYPE svg PUBLIC "-//W3C//DTD SVG 1.1//EN" "http://www.w3.org/Graphics/SVG/1.1/DTD/svg11.dtd" [
	<!ENTITY st0 "fill:#ACCFF6;">
	<!ENTITY st1 "fill:#E0ACE5;">
	<!ENTITY st2 "opacity:0.92;">
	<!ENTITY st3 "fill:#EAC95D;">
	<!ENTITY st4 "fill:#880F19;">
	<!ENTITY st5 "fill:#B7EDCC;">
	<!ENTITY st6 "fill:#545454;">
	<!ENTITY st7 "fill:none;stroke:#FFFFFF;stroke-miterlimit:10;">
	<!ENTITY st8 "fill:#BE1E2D;">
	<!ENTITY st9 "fill:#F1F2F2;">
	<!ENTITY st10 "fill:#F8F8F9;">
	<!ENTITY st11 "fill:#F96E6E;">
	<!ENTITY st12 "fill:#C1C1C1;">
	<!ENTITY st13 "fill:#C49669;">
	<!ENTITY st14 "fill:#2A2E32;">
	<!ENTITY st15 "fill:#C68074;">
	<!ENTITY st16 "fill:#FADD7B;">
	<!ENTITY st17 "fill:#2E0000;">
	<!ENTITY st18 "fill:#FCEFB9;">
	<!ENTITY st19 "opacity:0.3;">
	<!ENTITY st20 "fill:#FED37E;">
	<!ENTITY st21 "fill:#FEE677;">
	<!ENTITY st22 "fill:#FF9B74;">
	<!ENTITY st23 "fill:#FFE29A;">
	<!ENTITY st24 "fill:#FFEE4D;">
	<!ENTITY st25 "fill:#FFFFFF;">
	<!ENTITY st26 "fill:#631A19;">
	<!ENTITY st27 "fill:#009444;">
	<!ENTITY st28 "fill:#D09049;">
	<!ENTITY st29 "fill:#D09957;">
	<!ENTITY st30 "fill:#D4B99B;">
	<!ENTITY st31 "fill:#3B372D;">
	<!ENTITY st32 "fill:none;stroke:#FCEFB9;stroke-width:0.9184;stroke-miterlimit:10;">
	<!ENTITY st33 "fill:#D9D1B2;">
	<!ENTITY st34 "fill:#A11824;">
	<!ENTITY st35 "fill:#754C29;">
	<!ENTITY st36 "fill:#756C5E;">
	<!ENTITY st37 "fill:#DDB36A;">
	<!ENTITY st38 "fill:#404040;">
	<!ENTITY st39 "fill:#444036;">
	<!ENTITY st40 "fill:#451613;">
]>
<svg version="1.1" id="圖層_1" xmlns="http://www.w3.org/2000/svg" xmlns:xlink="http://www.w3.org/1999/xlink" x="0px" y="0px"
	 width="100px" height="100px" viewBox="0 0 100 100" style="enable-background:new 0 0 100 100;" xml:space="preserve">
<g>
	<path style="&st1;" d="M100,50c0,27.613-22.383,50-49.998,50C22.385,100,0,77.613,0,50C0,22.385,22.385,0,50.002,0
		C77.617,0,100,22.385,100,50z"/>
	<circle style="&st7;" cx="50" cy="50" r="45"/>
	<g>
		<circle style="&st22;" cx="63.274" cy="65.665" r="15.767"/>
		<g>
			<g>
				<path style="&st18;" d="M62.678,64.77c0,0.26-0.21,0.47-0.47,0.47h-6.564c-0.259,0-0.469-0.21-0.469-0.47v-6.565
					c0-0.258,0.21-0.467,0.469-0.467h6.564c0.26,0,0.47,0.209,0.47,0.467V64.77z"/>
				<path style="&st30;" d="M62.208,63.129h-6.564c-0.259,0-0.469-0.21-0.469-0.469v2.109c0,0.26,0.21,0.47,0.469,0.47h6.564
					c0.26,0,0.47-0.21,0.47-0.47V62.66C62.678,62.919,62.468,63.129,62.208,63.129z"/>
			</g>
			<g>
				<path style="&st18;" d="M71.374,64.77c0,0.26-0.21,0.47-0.47,0.47H64.34c-0.259,0-0.469-0.21-0.469-0.47v-6.565
					c0-0.258,0.21-0.467,0.469-0.467h6.564c0.26,0,0.47,0.209,0.47,0.467V64.77z"/>
				<path style="&st30;" d="M70.904,63.129H64.34c-0.259,0-0.469-0.21-0.469-0.469v2.109c0,0.26,0.21,0.47,0.469,0.47h6.564
					c0.26,0,0.47-0.21,0.47-0.47V62.66C71.374,62.919,71.164,63.129,70.904,63.129z"/>
			</g>
			<g>
				<path style="&st18;" d="M62.678,73.125c0,0.26-0.21,0.469-0.47,0.469h-6.564c-0.259,0-0.469-0.209-0.469-0.469V66.56
					c0-0.258,0.21-0.467,0.469-0.467h6.564c0.26,0,0.47,0.209,0.47,0.467V73.125z"/>
				<path style="&st30;" d="M62.208,71.485h-6.564c-0.259,0-0.469-0.21-0.469-0.47v2.109c0,0.26,0.21,0.469,0.469,0.469h6.564
					c0.26,0,0.47-0.209,0.47-0.469v-2.109C62.678,71.275,62.468,71.485,62.208,71.485z"/>
			</g>
			<g>
				<path style="&st18;" d="M71.374,73.125c0,0.26-0.21,0.469-0.47,0.469H64.34c-0.259,0-0.469-0.209-0.469-0.469V66.56
					c0-0.258,0.21-0.467,0.469-0.467h6.564c0.26,0,0.47,0.209,0.47,0.467V73.125z"/>
				<path style="&st30;" d="M70.904,71.485H64.34c-0.259,0-0.469-0.21-0.469-0.47v2.109c0,0.26,0.21,0.469,0.469,0.469h6.564
					c0.26,0,0.47-0.209,0.47-0.469v-2.109C71.374,71.275,71.164,71.485,70.904,71.485z"/>
			</g>
		</g>
		<circle style="&st32;" cx="63.274" cy="65.665" r="13.392"/>
		<g>
			<polygon style="&st13;" points="70.795,78.791 70.892,79.73 70.28,80.391 69.503,79.178 			"/>
			<g>
				<polygon style="&st13;" points="69.152,81.609 69.108,82.553 68.419,83.098 67.817,81.803 				"/>
				<g>
					<polygon style="&st13;" points="46.586,72.286 70.253,80.376 69.967,79.408 46.609,72.193 					"/>
					<polygon style="&st13;" points="69.967,79.408 70.752,78.776 46.634,72.102 46.609,72.193 					"/>
					<polygon style="&st13;" points="46.221,72.779 68.404,83.106 68.266,82.107 46.243,72.689 					"/>
					<polygon style="&st13;" points="46.267,72.602 46.243,72.689 68.266,82.107 69.134,81.598 					"/>
				</g>
			</g>
		</g>
	</g>
	<g>
		<g>
			<path style="&st39;" d="M25.984,43.621V29.984h4.45v13.637c0,1.346,0.779,2.57,2.001,3.139l0.075,0.036
				c1.611,0.75,2.642,2.366,2.642,4.145v27.444c0,0.896-0.727,1.623-1.623,1.623H22.89c-0.896,0-1.622-0.727-1.622-1.623V50.94
				c0-1.778,1.029-3.395,2.642-4.145l0.075-0.036C25.204,46.191,25.984,44.967,25.984,43.621z"/>
			<path style="&st35;" d="M29.72,35.301h-3.021c-0.584,0-1.059-0.474-1.059-1.061v-3.729c0-0.521,0.424-0.945,0.944-0.945h3.249
				c0.521,0,0.945,0.424,0.945,0.945v3.729C30.779,34.827,30.304,35.301,29.72,35.301z"/>
			<path style="&st31;" d="M23.402,47.855l1.877,17.76c0.523,4.944,4.33,8.904,9.252,9.62l0,0v3.149c0,0.552-0.448,1-1.001,1H22.89
				c-0.553,0-0.999-0.448-0.999-1V50.939C21.891,49.735,22.451,48.612,23.402,47.855z"/>
			<path style="&st36;" d="M32.411,53.777c-0.37-5.635-3.578-5.407-4.77-5.645c-1.194-0.239-0.558-1.432-0.558-1.432
				c0.495-0.074,0.929-0.272,1.29-0.508c0.684-0.447,1.543-0.358,2.146,0.195c0.775,0.713,1.729,0.971,1.729,0.971
				c1.387,0.646,2.283,2.051,2.283,3.58v8.722C34.531,59.661,32.729,58.627,32.411,53.777z"/>
			<path style="&st36;" d="M29.629,36.841v6.998c0,0-0.796,0.079-1.513,0.796c-0.716,0.715-0.556-1.193-0.316-2.387
				c0.238-1.192,0.635-5.407,0.635-5.407H29.629z"/>
			<path style="&st9;" d="M24.315,60.854h8.082c0.666,0,1.206-0.54,1.206-1.206v-3.788c0-0.667-0.54-1.207-1.206-1.207h-8.082
				c-0.667,0-1.208,0.54-1.208,1.207v3.788C23.107,60.313,23.648,60.854,24.315,60.854z"/>
		</g>
		<g>
			<path style="&st25;" d="M35.745,81.612h1.883c0.926,0,1.676-0.75,1.676-1.678v-5.781c0-1.683-0.721-3.329-2.078-4.321
				c-4.926-3.604-3.053-10.114-2.285-12.188h9.854c0.768,2.073,2.641,8.583-2.285,12.188c-1.357,0.992-2.08,2.639-2.08,4.321v5.781
				c0,0.928,0.752,1.678,1.678,1.678h1.885c0.594,0,1.076,0.481,1.076,1.075H34.669C34.669,82.094,35.151,81.612,35.745,81.612z"/>
			<g>
				<path style="&st26;" d="M44.394,66.586c-0.57,1.231-1.48,2.247-2.715,3.032c-1.115,0.711-2.508,0.711-3.621,0.002
					c-1.236-0.787-2.146-1.801-2.717-3.033c-0.502-1.081-0.701-2.238-0.732-3.358h10.516C45.095,64.349,44.896,65.505,44.394,66.586
					z"/>
				<path style="&st17;" d="M39.866,69.481c0.51,0,1.014-0.147,1.453-0.428c1.123-0.715,1.953-1.64,2.467-2.749
					c0.33-0.713,0.541-1.52,0.627-2.406c-2.107,3.501-3.643,0.497-8.021,0.052c-0.568-0.057-1.025,0.469-0.896,1.025
					c0.111,0.474,0.262,0.918,0.453,1.33c0.514,1.108,1.344,2.033,2.469,2.749C38.854,69.334,39.356,69.481,39.866,69.481
					L39.866,69.481z"/>
				<path style="&st10;" d="M37.126,58.314h5.482c1.063,0,1.979,0.74,2.201,1.779c0.199,0.93,0.344,2.013,0.314,3.135H34.608
					c-0.027-1.12,0.115-2.203,0.316-3.135C35.147,59.055,36.063,58.314,37.126,58.314z"/>
			</g>
		</g>
	</g>
	<g>
		<g>
			<circle style="&st24;" cx="50" cy="26.476" r="12.161"/>
		</g>
		<g>
			<circle style="&st3;" cx="50" cy="26.476" r="10.133"/>
		</g>
		<g>
			<path style="&st24;" d="M49.395,31.971c-1.556-0.133-2.693-0.724-3.491-1.537l1.138-1.598c0.549,0.576,1.347,1.095,2.354,1.271
				v-2.337c-1.525-0.385-3.183-0.947-3.183-2.959c0-1.494,1.185-2.765,3.183-2.974v-1.375h1.404v1.405
				c1.199,0.134,2.203,0.591,3.002,1.316l-1.167,1.538c-0.534-0.488-1.17-0.798-1.835-0.96v2.084
				c1.523,0.386,3.225,0.977,3.225,2.989c0,1.642-1.066,2.897-3.225,3.121v1.346h-1.404V31.971z M49.395,25.479v-1.805
				c-0.668,0.089-1.035,0.457-1.035,0.962C48.359,25.063,48.771,25.3,49.395,25.479z M50.799,28.125v1.982
				c0.725-0.149,1.096-0.577,1.096-1.035C51.895,28.584,51.435,28.331,50.799,28.125z"/>
		</g>
	</g>
</g>
</svg>
