<?xml version="1.0" standalone="no"?><!DOCTYPE svg PUBLIC "-//W3C//DTD SVG 1.1//EN" "http://www.w3.org/Graphics/SVG/1.1/DTD/svg11.dtd"><svg t="1506169644791" class="icon" style="" viewBox="0 0 1024 1024" version="1.1" xmlns="http://www.w3.org/2000/svg" p-id="62218" xmlns:xlink="http://www.w3.org/1999/xlink" width="200" height="200"><defs><style type="text/css"></style></defs><path d="M130 444.002C130 410.864 156.867 384 189.991 384h104.018C327.141 384 354 410.862 354 444.002v391.995C354 869.136 327.133 896 294.009 896H189.991C156.859 896 130 869.138 130 835.998V444.002zM242 800c26.51 0 48-21.49 48-48s-21.49-48-48-48-48 21.49-48 48 21.49 48 48 48z" fill="#00CFBB" p-id="62219"></path><path d="M242 752m-48 0a48 48 0 1 0 96 0 48 48 0 1 0-96 0Z" fill="#435BD4" p-id="62220"></path><path d="M600.612 384h235.379C869.133 384 896 410.872 896 443.995v8.011C896 485.14 869.145 512 835.991 512H450h385.991C869.133 512 896 538.872 896 571.995v8.011C896 613.14 869.145 640 835.991 640H450h353.005C836.139 640 863 666.872 863 699.995v8.011C863 741.14 836.128 768 803.005 768H450h322.005C805.139 768 832 794.872 832 827.995v8.011C832 869.14 805.136 896 772.005 896h-358.01C380.861 896 354 869.128 354 836.005V448.761c-1.447-17.008 4.186-34.546 16.882-47.729 0 0 82.989-81.891 124.419-145.461s41.43-88.297 60.43-146.34 91.287-12.713 104.382 52.382c13.095 65.095 0.232 118.618-31.382 182.618-6.191 12.532-16.133 26.082-28.119 39.769z" fill="#FFCC80" p-id="62221"></path></svg>