<svg xmlns="http://www.w3.org/2000/svg" viewBox="0 0 100 100"><title>daytour-03</title><g style="isolation:isolate"><g id="69fe8893-c279-4d38-998f-79e7b7915b6b" data-name="圖層 1"><circle cx="50" cy="50" r="39.8" style="fill:#f5f8f6"/><path id="f32c8848-4748-41d9-aa8b-7b00cbefeeb9" data-name="path3845" d="M77,17.5v7.2l-.6.2v.6h.4v.4H77v.3h-.5a.3.3,0,0,0-.3.3v2.1h-.5s.1,2,.1,2.1a.3.3,0,0,0,.3.3h.1v2.1h-.9a.3.3,0,0,0-.3.3v1.1h-1a.3.3,0,0,0-.3.3V35h-.3l.5,4.9h-.4l.5,4.8h-.5l.5,4.8h-.5l.6,4.8h-.5l.5,4.7h-.5l.5,4.7h-.5l.6,4.9h-.5l.5,5.1H74c-.1,0-.1.1-.2.2s-1.6,14.6-1.6,14.6H82.5S80.9,74,80.8,73.9s-.1-.2-.2-.2h-.3l.5-5.1h-.5l.6-4.9h-.5l.5-4.7h-.5l.5-4.7h-.5l.6-4.8h-.5l.5-4.8h-.5l.5-4.8h-.4L81,35h-.3v-.2a.3.3,0,0,0-.3-.3h-1V33.3a.3.3,0,0,0-.3-.3h-.9V30.9h.1a.3.3,0,0,0,.3-.3c0-.1.1-2.1.1-2.1h-.5V26.4a.3.3,0,0,0-.3-.3h-.5v-.3h.2v-.4h.4v-.6l-.6-.2V17.5H77Z" style="fill:#b0d9ea"/><polygon points="79.4 88.8 96.9 94.5 4 94.5 24.5 88.8 79.4 88.8" style="fill:#5ca06a"/><path d="M89.3,82.1A5.8,5.8,0,0,0,84,85.6a3.9,3.9,0,0,0-1.6-.4,4,4,0,0,0-2.6.9,4.5,4.5,0,0,0-7.6,0,4,4,0,0,0-2.6-1H69a5.7,5.7,0,1,0-1.7,7.2,3.9,3.9,0,0,0,2.3.7,4,4,0,0,0,3.1-1.4,4.5,4.5,0,0,0,6.6,0,4,4,0,0,0,5.9.2,5.8,5.8,0,1,0,4.1-9.9Z" style="fill:#78c348"/><path d="M63.8,93.6a5.7,5.7,0,0,0,3.4-1.1,3.9,3.9,0,0,0,2.3.7,4,4,0,0,0,3.1-1.4,4.5,4.5,0,0,0,6.6,0,4,4,0,0,0,5.9.2h.1a5.7,5.7,0,0,0,7.4.6h.1a5.8,5.8,0,0,0,2.3-4.1,4.5,4.5,0,0,1-4.1-.3,5.8,5.8,0,0,1-7.4-.6,4,4,0,0,1-6-.2,4.5,4.5,0,0,1-6.6,0,4,4,0,0,1-3.1,1.4,3.9,3.9,0,0,1-2.3-.7,5.8,5.8,0,0,1-7.5-.6v.3h0A5.7,5.7,0,0,0,63.8,93.6Z" style="fill:#666;opacity:0.15;mix-blend-mode:multiply"/><rect x="7.6" y="44.2" width="26.9" height="51.06" style="fill:#fff18a"/><rect x="34.6" y="45.2" width="26.9" height="50.03" style="fill:#ffe48d"/><path d="M30.1,51.7V61h-18V51.7c0-1.8,4-3.2,9-3.2S30.1,49.9,30.1,51.7Z" style="fill:#e5e5e5;opacity:0.49;mix-blend-mode:multiply"/><rect x="17.6" y="52.2" width="7" height="8.76" style="fill:#fff"/><rect x="24.6" y="52.2" width="3.4" height="8.76" style="fill:#5dbca8"/><rect x="25.2" y="52.7" width="2.3" height="7.66" style="fill:#4ea190"/><rect x="14.2" y="52.2" width="3.4" height="8.76" style="fill:#5dbca8"/><rect x="14.7" y="52.7" width="2.3" height="7.66" style="fill:#4ea190"/><rect x="18.1" y="52.7" width="2.7" height="7.66" style="fill:#398b91"/><rect x="21.3" y="52.7" width="2.7" height="7.66" style="fill:#398b91"/><path d="M30.1,68.6v9.3h-18V68.6c0-1.8,4-3.2,9-3.2S30.1,66.8,30.1,68.6Z" style="fill:#e5e5e5;opacity:0.49;mix-blend-mode:multiply"/><rect x="17.6" y="69.1" width="7" height="8.76" style="fill:#fff"/><rect x="24.6" y="69.1" width="3.4" height="8.76" style="fill:#5dbca8"/><rect x="25.2" y="69.6" width="2.3" height="7.66" style="fill:#4ea190"/><rect x="14.2" y="69.1" width="3.4" height="8.76" style="fill:#5dbca8"/><rect x="14.7" y="69.6" width="2.3" height="7.66" style="fill:#4ea190"/><rect x="18.1" y="69.6" width="2.7" height="7.66" style="fill:#398b91"/><rect x="21.3" y="69.6" width="2.7" height="7.66" style="fill:#398b91"/><path d="M57,51.7V61H39V51.7c0-1.8,4-3.2,9-3.2S57,49.9,57,51.7Z" style="fill:#e5e5e5;opacity:0.49;mix-blend-mode:multiply"/><rect x="44.5" y="52.2" width="7" height="8.76" style="fill:#fff"/><rect x="51.5" y="52.2" width="3.4" height="8.76" style="fill:#5dbca8"/><rect x="52.1" y="52.7" width="2.3" height="7.66" style="fill:#4ea190"/><rect x="41.1" y="52.2" width="3.4" height="8.76" style="fill:#5dbca8"/><rect x="41.7" y="52.7" width="2.3" height="7.66" style="fill:#4ea190"/><rect x="45" y="52.7" width="2.7" height="7.66" style="fill:#398b91"/><rect x="48.3" y="52.7" width="2.7" height="7.66" style="fill:#398b91"/><path d="M57,68.6v9.3H39V68.6c0-1.8,4-3.2,9-3.2S57,66.8,57,68.6Z" style="fill:#e5e5e5;opacity:0.49;mix-blend-mode:multiply"/><rect x="44.5" y="69.1" width="7" height="8.76" style="fill:#fff"/><rect x="51.5" y="69.1" width="3.4" height="8.76" style="fill:#5dbca8"/><rect x="52.1" y="69.6" width="2.3" height="7.66" style="fill:#4ea190"/><rect x="41.1" y="69.1" width="3.4" height="8.76" style="fill:#5dbca8"/><rect x="41.7" y="69.6" width="2.3" height="7.66" style="fill:#4ea190"/><rect x="45" y="69.6" width="2.7" height="7.66" style="fill:#398b91"/><rect x="48.3" y="69.6" width="2.7" height="7.66" style="fill:#398b91"/><polygon points="38.5 47.7 38.5 95.3 34.6 95.3 34.6 45.2 36.1 45.2 36.1 45.2 38.5 47.7" style="fill:gray;opacity:0.63;mix-blend-mode:multiply"/><rect x="8.4" y="35.8" width="25.4" height="7.58" style="fill:#f5763f"/><path d="M11,39.9v2h-.7V37.2H11v2h.8v-2h.7v4.7h-.7v-2Z" style="fill:#fff"/><path d="M14.2,37.1a1.1,1.1,0,0,1,.8.3,1.1,1.1,0,0,1,.3.8v2.6a1.1,1.1,0,0,1-.3.8,1.1,1.1,0,0,1-.8.3,1.1,1.1,0,0,1-.8-.3,1.1,1.1,0,0,1-.3-.8V38.2a1.1,1.1,0,0,1,.3-.8A1.1,1.1,0,0,1,14.2,37.1Zm.4,1.1a.4.4,0,0,0-.1-.3h-.6a.4.4,0,0,0-.1.3v2.6a.4.4,0,0,0,.1.3h.6a.4.4,0,0,0,.1-.3Z" style="fill:#fff"/><path d="M16.6,37.9h-.7v-.7H18v.7h-.7v4h-.7Z" style="fill:#fff"/><path d="M18.6,41.9V37.2h2v.7H19.3v1.3h.9v.7h-.9v1.3h1.3v.7Z" style="fill:#fff"/><path d="M23,41.9H21.1V37.2h.7v4H23Z" style="fill:#fff"/><path d="M30.1,51.7v.7a20.1,20.1,0,0,0-6-.8,21.3,21.3,0,0,0-5.3.6l-1.2.4-.5.2c-1.2.6-2,1.2-2,2V61h-3V51.7c0-1.8,4-3.2,9-3.2S30.1,49.9,30.1,51.7Z" style="fill:gray;opacity:0.41000000000000003;mix-blend-mode:multiply"/><path d="M30.1,68.6v.7a20.1,20.1,0,0,0-6-.8,21.3,21.3,0,0,0-5.3.6l-1.2.4-.5.2c-1.2.6-2,1.2-2,2v6.2h-3V68.6c0-1.8,4-3.2,9-3.2S30.1,66.8,30.1,68.6Z" style="fill:gray;opacity:0.41000000000000003;mix-blend-mode:multiply"/><path d="M57,51.7v.7a20.1,20.1,0,0,0-6-.8,21.3,21.3,0,0,0-5.3.6l-1.2.4-.5.2c-1.2.6-2,1.2-2,2V61H39V51.7c0-1.8,4-3.2,9-3.2S57,49.9,57,51.7Z" style="fill:gray;opacity:0.41000000000000003;mix-blend-mode:multiply"/><path d="M57,68.6v.7a20.1,20.1,0,0,0-6-.8,21.3,21.3,0,0,0-5.3.6l-1.2.4-.5.2c-1.2.6-2,1.2-2,2v6.2H39V68.6c0-1.8,4-3.2,9-3.2S57,66.8,57,68.6Z" style="fill:gray;opacity:0.41000000000000003;mix-blend-mode:multiply"/><rect x="17.6" y="83.8" width="7" height="8.76" style="fill:#f2f2f2"/><rect x="24.6" y="83.8" width="3.4" height="8.76" style="fill:#5dbca8"/><rect x="25.2" y="84.4" width="2.3" height="7.66" style="fill:#4ea190"/><rect x="14.2" y="83.8" width="3.4" height="8.76" style="fill:#5dbca8"/><rect x="14.7" y="84.4" width="2.3" height="7.66" style="fill:#4ea190"/><rect x="18.1" y="84.4" width="2.7" height="7.66" style="fill:#48969b"/><rect x="21.3" y="84.4" width="2.7" height="7.66" style="fill:#48969b"/><polygon points="34.6 83 34.6 92.8 21.8 92.8 21.8 95.2 20.4 95.2 20.4 92.8 18.7 92.8 18.5 92.6 17.6 91.6 17 91.1 14.7 88.7 14.2 88.2 9.5 83.4 9.1 83 34.6 83" style="fill:gray;opacity:0.63;mix-blend-mode:multiply"/><rect x="5.9" y="81.5" width="57.3" height="1.53" style="fill:#e5951f"/><polygon points="63.2 81.5 5.9 81.5 7.6 79.6 61.5 79.6 63.1 81.4 63.2 81.5" style="fill:#f7b858"/><rect x="25.6" y="83" width="1.5" height="12.29" style="fill:#f7b858"/><rect x="25.6" y="83" width="1.5" height="1.76" style="fill:#d88d1c"/><rect x="44.7" y="83.3" width="6.6" height="11.96" style="fill:#5dbca8"/><rect x="51.3" y="83.3" width="3.5" height="11.96" style="fill:#5dbca8"/><rect x="45.1" y="93.9" width="5.8" height="1.04" style="fill:#224f59;opacity:0.64;mix-blend-mode:multiply"/><rect x="45.1" y="93.9" width="5.8" height="1.04" style="fill:gray;opacity:0.49;mix-blend-mode:multiply"/><rect x="45.1" y="83.8" width="5.8" height="10.11" style="fill:#224f59;opacity:0.64;mix-blend-mode:multiply"/><rect x="51.7" y="83.8" width="2.7" height="10.99" style="fill:#4c9e8c"/><rect x="41.2" y="83.3" width="3.5" height="11.96" style="fill:#5dbca8"/><rect x="41.6" y="83.8" width="2.7" height="10.99" style="fill:#4c9e8c"/><polygon points="61.5 83 61.5 93.9 55.2 93.9 55.2 95.2 53.7 95.2 53.7 93.9 38.5 93.9 38.5 83 61.5 83" style="fill:gray;opacity:0.63;mix-blend-mode:multiply"/><rect x="59.3" y="83" width="1.5" height="12.29" style="fill:#f7b858"/><rect x="59.3" y="83" width="1.5" height="1.76" style="fill:#d88d1c"/><rect x="42.1" y="83" width="1.5" height="12.24" style="fill:#f7b858"/><rect x="42.1" y="83" width="1.5" height="1.76" style="fill:#d88d1c"/><rect x="8.1" y="83" width="1.5" height="12.29" style="fill:#f7b858"/><rect x="8.1" y="83" width="1.5" height="1.76" style="fill:#d88d1c"/><path d="M24.7,38.4a1.3,1.3,0,0,1,.3-1,1,1,0,0,1,.8-.3,1,1,0,0,1,.7.3,1.1,1.1,0,0,1,.3.8,2,2,0,0,1-.2.9l-.5.8-.3.5v.2l-.2.3h1.3v.7H24.7v-.9l.2-.2.2-.3.5-.7.5-.8a1.4,1.4,0,0,0,.1-.5.5.5,0,0,0-.1-.3h-.3a.4.4,0,0,0-.4.3.7.7,0,0,0,0,.3v.2h-.6Z" style="fill:#fff"/><path d="M26.9,40l1.2-2.8h.7V40h.4v.7h-.4v1h-.7v-1H26.9Zm1.2,0V38.6L27.5,40Z" style="fill:#fff"/><path d="M29.9,41.6V38.2h.4v1.2a.9.9,0,0,1,.7-.3h.5l.3.3a1.4,1.4,0,0,1,.1.6v1.6h-.4V40.1a.7.7,0,0,0-.1-.5h-.7l-.2.3a1.2,1.2,0,0,0-.1.5v1.3Z" style="fill:#fff;stroke:#fff;stroke-miterlimit:10;stroke-width:0.448106738536186px"/><path d="M75.6,7.6a4,4,0,0,1,7.1-2.8l1.2-.3a3,3,0,0,1,3,3h0a3,3,0,0,1-.7,5.9H76.2a3,3,0,0,1-.6-5.9Z" style="fill:#d2f6f9"/><path d="M16.4,17.6a4,4,0,0,1,7.1-2.8l1.2-.3a3,3,0,0,1,3,3h0a3,3,0,0,1-.7,5.9H17.1a3,3,0,0,1-.6-5.9Z" style="fill:#d2f6f9"/><line x1="4" y1="95.5" x2="96.5" y2="95.5" style="fill:none;stroke:#c6e288;stroke-linecap:round;stroke-miterlimit:10;stroke-width:2px"/><ellipse cx="23.9" cy="95.7" rx="14.3" ry="0.9" style="fill:#4d4d4d;opacity:0.29;mix-blend-mode:multiply"/><rect x="10.8" y="90.2" width="25.5" height="3.61" style="fill:#8fd5e0;mix-blend-mode:multiply"/><path d="M12,93.8a2.3,2.3,0,1,0,2.3-2.3A2.3,2.3,0,0,0,12,93.8Zm.7,0a1.6,1.6,0,1,1,1.6,1.6A1.6,1.6,0,0,1,12.6,93.8Z" style="fill:#102249"/><path d="M12.6,93.8a1.6,1.6,0,1,0,1.6-1.6A1.6,1.6,0,0,0,12.6,93.8Zm.7,0a1,1,0,1,1,1,1A1,1,0,0,1,13.3,93.8Z" style="fill:#f2f2f2"/><path d="M13.3,93.8a1,1,0,0,0,1.9.1h-.4a1,1,0,0,1-1-1h0A1,1,0,0,0,13.3,93.8Z" style="fill:#999"/><path d="M13.8,93.1a1,1,0,0,0,1,1h.4a1,1,0,0,0-1-1h-.4Z" style="fill:#ccc"/><path d="M30.4,93.8a2.3,2.3,0,1,0,2.3-2.3A2.3,2.3,0,0,0,30.4,93.8Zm.7,0a1.6,1.6,0,1,1,1.6,1.6A1.6,1.6,0,0,1,31.1,93.8Z" style="fill:#102249"/><path d="M31.1,93.8a1.6,1.6,0,1,0,1.6-1.6A1.6,1.6,0,0,0,31.1,93.8Zm.7,0a1,1,0,1,1,1,1A1,1,0,0,1,31.8,93.8Z" style="fill:#f2f2f2"/><path d="M31.8,93.8a1,1,0,0,0,1.9.1h-.4a1,1,0,0,1-1-1h0A1,1,0,0,0,31.8,93.8Z" style="fill:#999"/><path d="M32.3,93.1a1,1,0,0,0,1,1h.4a1,1,0,0,0-1-1h-.4Z" style="fill:#ccc"/><path d="M37.1,92.7H37v.4h0v.6s0-.1,0-.2S37.1,93.1,37.1,92.7Z" style="fill:#fff"/><path d="M33.7,84.3H10.6l.2-.2c.8-.5,9.5-.4,10.1-.4h.3C23.9,83.7,32.2,83.5,33.7,84.3Z" style="fill:#fff"/><path d="M37.1,92.7H35.5l-.2.3v-.5l-.4-.5-.4-.2H30.7c-.3.1-.4.3-.5.6l-.6,1.3H17.3l-.4-1.3c-.2-.4-.3-.6-.8-.7H12.5c-.4.1-.4.3-.6.7l-.6,1.3h-1s-.6,0-.6-.2,0-2.5.1-3.4h0V88.8c0-.3,0-.9.1-1.6a12.3,12.3,0,0,1,.4-2.5h0l.2-.3H33.7l.5.3h-.1l2.1,3.1v.5l.3,1.3v1.5C37,91.7,37.1,92.3,37.1,92.7Z" style="fill:#83cbd8"/><path d="M30.3,85.1v2a.3.3,0,0,0,.3.3H35c.2,0,.5,0,.4-.2L34,85.1c-.1-.2-.1-.3-.3-.3H30.6A.3.3,0,0,0,30.3,85.1Zm.2.2a.2.2,0,0,1,.3-.2h2.8c.1,0,.1.1.2.2L35,87c.1.2-.1.2-.3.2H30.8a.2.2,0,0,1-.3-.2Z" style="fill:#fff"/><path d="M9.8,87.9l.2.2H36.3l.2-.2-.2-.2H10Z" style="fill:#ccc"/><path d="M34.3,84.4H10.5v-.3H34.1Z" style="fill:#ccc"/><path d="M26,85.1v2a.3.3,0,0,0,.3.3h2.9a.3.3,0,0,0,.3-.3v-2a.3.3,0,0,0-.3-.3H26.3A.3.3,0,0,0,26,85.1Zm.2.1h3.1V87H26.2Z" style="fill:#fff"/><rect x="26.2" y="85.1" width="3.1" height="2.12" rx="0.1" ry="0.1" style="fill:#3f6271;opacity:0.74;mix-blend-mode:multiply"/><path d="M21.9,85.1v2a.3.3,0,0,0,.3.3h2.9a.3.3,0,0,0,.3-.3v-2a.3.3,0,0,0-.3-.3H22.2A.3.3,0,0,0,21.9,85.1Zm.2.1h3.1V87H22.1Z" style="fill:#fff"/><rect x="22.1" y="85.1" width="3.1" height="2.12" rx="0.1" ry="0.1" style="fill:#3f6271;opacity:0.74;mix-blend-mode:multiply"/><path d="M17.8,85.1v2a.3.3,0,0,0,.3.3H21a.3.3,0,0,0,.3-.3v-2a.3.3,0,0,0-.3-.3H18.1A.3.3,0,0,0,17.8,85.1Zm.2.1h3.1V87H18.1Z" style="fill:#fff"/><rect x="18.1" y="85.1" width="3.1" height="2.12" rx="0.1" ry="0.1" style="fill:#3f6271;opacity:0.74;mix-blend-mode:multiply"/><path d="M12.9,85.1v2a.3.3,0,0,0,.4.3h3.6a.3.3,0,0,0,.4-.3v-2a.3.3,0,0,0-.4-.3H13.3A.3.3,0,0,0,12.9,85.1Zm.3.1H17V87H13.2Z" style="fill:#fff"/><path d="M13.2,85.2V87H17V85.2H13.2Z" style="fill:#3f6271;opacity:0.74;mix-blend-mode:multiply"/><path d="M30.5,85.3v1.6a.2.2,0,0,0,.3.2h3.9c.2,0,.4,0,.3-.2l-1.2-1.7c-.1-.1-.1-.2-.2-.2H30.8A.2.2,0,0,0,30.5,85.3Z" style="fill:#3f6271;opacity:0.74;mix-blend-mode:multiply"/><path d="M13.1,88h0Z" style="fill:#be894a"/><path d="M35.6,92.7l1.5.5h0v-.4H35.6Z" style="fill:#92d2df"/><path d="M35.3,93.3a.6.6,0,0,0,.3.5h1.7a.5.5,0,0,0,.5-.3H36a.6.6,0,0,1-.5-.6.6.6,0,0,1,.1-.3h-.2Z" style="fill:#b3b3b3"/><path d="M35.5,93a.6.6,0,0,0,.5.6h1.7a.6.6,0,0,0,.1-.3.6.6,0,0,0-.2-.4l-.4-.2H35.5A.6.6,0,0,0,35.5,93Z" style="fill:#f2f2f2"/><path d="M9,93.3a.5.5,0,0,0,.5.6H11a.5.5,0,0,0,.5-.3H9.8a.5.5,0,0,1-.5-.6v-.3A.6.6,0,0,0,9,93.3Z" style="fill:#b3b3b3"/><path d="M9.3,93a.5.5,0,0,0,.5.6h1.6v-.3a.6.6,0,0,0-.1-.4l-.4-.2H9.4Z" style="fill:#f2f2f2"/><path d="M9.6,88.8v1.4h.2V88.8Z" style="fill:#f68821"/><path d="M30.7,88.6a.2.2,0,0,0,.2.2h1a.2.2,0,0,0,.2-.2h0a.2.2,0,0,0-.2-.2h-1a.2.2,0,0,0-.2.2Z" style="fill:#e5e5e5"/><path d="M36.8,89.4a1.3,1.3,0,0,1-.1.7h-.2c-.7,0-1.2-.3-1.2-.8s.5-.8,1.2-.8h.2A1.3,1.3,0,0,1,36.8,89.4Z" style="fill:#cae6e6"/><path d="M37.1,89.4c0,.4-.2.7-.4.7a2.1,2.1,0,0,0,0-1.4h0C36.9,88.7,37.1,89,37.1,89.4Z" style="fill:#fff"/></g></g></svg>