<svg xmlns="http://www.w3.org/2000/svg" viewBox="0 0 100 100"><title>daytour-01</title><g style="isolation:isolate"><g id="d77107b4-d406-41f8-9c78-c56d5ea1f245" data-name="圖層 1"><circle cx="50" cy="50" r="39.8" style="fill:#f5f8f6"/><path d="M70.5,18.5a4,4,0,0,1,7.1-2.8l1.2-.3a3,3,0,0,1,3,3h0a3,3,0,0,1-.7,5.9H71.1a3,3,0,0,1-.6-5.9Z" style="fill:#d2f6f9"/><path d="M15.7,32.9a4,4,0,0,1,7.1-2.8l1.2-.3a3,3,0,0,1,3,3h0a3,3,0,0,1-.7,5.9H16.3a3,3,0,0,1-.6-5.9Z" style="fill:#d2f6f9"/><path id="2ea22ce1-d074-46c2-8906-acb3245f7b58" data-name="path3845" d="M39.1,3.1v7.1l-.6.2V11h.4v.4H39v.3h-.5a.3.3,0,0,0-.3.3V14h-.5s.1,2,.1,2.1a.3.3,0,0,0,.3.3h.1v2.1h-.9a.3.3,0,0,0-.2.2v1.1h-1a.3.3,0,0,0-.2.3v.2h-.2l.5,4.8h-.4l.5,4.7h-.5l.5,4.7h-.5l.5,4.7h-.5l.5,4.6h-.5l.5,4.6h-.5l.5,4.8h-.5l.5,5H36c-.1,0-.1.1-.2.2S34.3,73,34.3,73H44.4s-1.6-14.3-1.6-14.4-.1-.2-.2-.2h-.3l.5-5h-.5l.5-4.8h-.5l.5-4.6h-.5l.5-4.6h-.5l.5-4.7h-.5l.5-4.7h-.5l.5-4.7h-.4l.5-4.8h-.2v-.2a.3.3,0,0,0-.2-.3h-1V18.7a.3.3,0,0,0-.2-.2h-.9V16.3h.1a.3.3,0,0,0,.3-.3c0-.1.1-2.1.1-2.1h-.5V11.9a.3.3,0,0,0-.3-.3h-.5v-.3h.2V11h.4v-.6l-.6-.2V3.1h-.5Z" style="fill:#00a29a"/><polygon points="79.6 77.3 97.1 95.5 4.2 95.5 24.7 77.3 79.6 77.3" style="fill:#5ca06a"/><path d="M77.3,58.3a11.4,11.4,0,0,0-10.5,6.9,7.7,7.7,0,0,0-3.2-.7,7.8,7.8,0,0,0-5,1.8,8.9,8.9,0,0,0-14.9,0,7.8,7.8,0,0,0-5.1-1.9H37.3A11.3,11.3,0,1,0,34,78.7a7.7,7.7,0,0,0,4.5,1.4,7.8,7.8,0,0,0,6-2.8,8.9,8.9,0,0,0,13,0,7.8,7.8,0,0,0,11.6.4,11.4,11.4,0,1,0,8.1-19.5Z" style="fill:#78c348"/><rect x="19.7" y="77.2" width="13.7" height="1.17" transform="translate(-51.6 103.2) rotate(-89.2)" style="fill:#452f27"/><rect x="76.1" y="70.9" width="1.2" height="13.7" style="fill:#452f27"/><rect x="49.5" y="74.5" width="1.2" height="8.89" style="fill:#452f27"/><rect x="75.8" y="73.5" width="6.2" height="1.17" transform="translate(-29.3 77.5) rotate(-45)" style="fill:#452f27"/><rect x="24.2" y="70.1" width="1.2" height="5.16" transform="translate(-44.1 38.8) rotate(-45)" style="fill:#452f27"/><path d="M27.2,80.9A11.2,11.2,0,0,0,34,78.7a7.7,7.7,0,0,0,4.5,1.4,7.8,7.8,0,0,0,6-2.8,8.9,8.9,0,0,0,13,0,7.8,7.8,0,0,0,11.6.4h.1a11.3,11.3,0,0,0,14.6,1.2h.2a11.4,11.4,0,0,0,4.6-8.1,8.8,8.8,0,0,1-8-.6A11.3,11.3,0,0,1,66.1,69a7.8,7.8,0,0,1-11.7-.3,8.9,8.9,0,0,1-13,0,7.8,7.8,0,0,1-6,2.8,7.7,7.7,0,0,1-4.5-1.4A11.3,11.3,0,0,1,16,69c0,.2,0,.4,0,.6h0A11.3,11.3,0,0,0,27.2,80.9Z" style="fill:#666;opacity:0.15;mix-blend-mode:multiply"/><line x1="4" y1="96.5" x2="96.5" y2="96.5" style="fill:none;stroke:#c6e288;stroke-linecap:round;stroke-miterlimit:10;stroke-width:2px"/><path d="M61.5,68a1.1,1.1,0,0,1-.1-2.2l9-1.1a1.1,1.1,0,1,1,.3,2.2l-9,1.1Z" style="fill:#fdd09c"/><path d="M77.5,94.3a.4.4,0,0,0,.7.1l4.5-3.9a.4.4,0,0,0,0-.6l-2.3-2.7-2.7,2.3.9,1.1-.9,1.2a2.2,2.2,0,0,0-.2,2.3Z" style="fill:#a97c50"/><path d="M77.5,94.3a.4.4,0,0,0,.7.1l4.5-3.9a.4.4,0,0,0,0-.6l-.2-.2-5.1,4.4Z" style="fill:#603913"/><path d="M63.7,96.5a.4.4,0,0,0,.4.5h5.9a.4.4,0,0,0,.4-.4V93H66.9v1.4l-1.5.3a2.2,2.2,0,0,0-1.7,1.6Z" style="fill:#a97c50"/><path d="M63.7,96.5a.4.4,0,0,0,.4.5h5.9a.4.4,0,0,0,.4-.4v-.2H63.8Z" style="fill:#603913"/><path d="M77.5,89.8l-4.2-5a9.3,9.3,0,0,1-2-4.3L70,73.3l4-.7,1.3,7.2a5.3,5.3,0,0,0,1.1,2.4l4.2,5Z" style="fill:#3a4752"/><path d="M66.7,93.5l-.6-8.9a10.1,10.1,0,0,1,.2-2.7l2.4-11.2,4,.8L70.3,82.7a6.1,6.1,0,0,0-.1,1.6l.6,8.9Z" style="fill:#3a4752"/><path d="M67.7,70.8v5.9h5.7a1.7,1.7,0,0,0,1.6-1.7V70.8Z" style="fill:#3a4752"/><path d="M72.7,44.8l2.5.8A4.3,4.3,0,0,1,78.1,51l-.2.6a6.1,6.1,0,0,1-3.7,3.9l-1.1.4Z" style="fill:#67443e"/><path d="M68.4,47.1h3.2a3,3,0,0,1,3,3v4.6a0,0,0,0,1,0,0H68.4a0,0,0,0,1,0,0V47.1A0,0,0,0,1,68.4,47.1Z" transform="translate(124.8 120.6) rotate(-162.9)" style="fill:#fdd09c"/><rect x="71.1" y="52.8" width="2.3" height="4.52" transform="translate(143.7 111.1) rotate(-179.2)" style="fill:#fdd09c"/><path d="M67.7,56h7.4a0,0,0,0,1,0,0V67a3.8,3.8,0,0,1-3.8,3.8H69.7a1.9,1.9,0,0,1-1.9-1.9V56A0,0,0,0,1,67.7,56Z" transform="translate(142.8 126.8) rotate(180)" style="fill:#00a79d"/><circle cx="74.8" cy="51.8" r="1.2" transform="translate(3.2 108) rotate(-72.9)" style="fill:#fdd09c"/><path d="M69.3,46.3c-.4,3.1,4.1,4.1,4.1,4.1l-.3,1.8,2-1.5,1-3.1L73.2,45S69.6,43.2,69.3,46.3Z" style="fill:#67443e"/><polygon points="73.5 55.3 73.4 56.6 69.6 57.4 70 56.1 73.5 55.3" style="fill:#00a79d"/><path d="M75.8,57.2h.8a3.1,3.1,0,0,1,3.1,3.1v7.4a3.6,3.6,0,0,1-3.6,3.6h-1a0,0,0,0,1,0,0V58A.7.7,0,0,1,75.8,57.2Z" style="fill:#f7ec6b"/><path d="M75.1,71.5,73,70h0a49.7,49.7,0,0,1-2.6-5.6c-1.5-4-1.6-6.5-.3-7.5,3.2-2.1,5.7.8,5.8.9v.9h-.2c-.6-.7-2.9-2.7-5.2-1.2s-.8,3,.5,6.6a48.9,48.9,0,0,0,2.5,5.4l1.5.7Z" style="fill:#58595b"/><path d="M75,66.1v-.2l-.6-2.4h0l-1.3-5a1.4,1.4,0,1,0-2.6.7l1.2,4.5h.1l.7,2.8,1,9.1a1.3,1.3,0,0,0,.6.9,1.7,1.7,0,0,0,1-1.5V71.5h.5Z" style="fill:#61a8af;mix-blend-mode:multiply"/><path d="M74.2,64.4H71.6l-1.1-5.3a1.3,1.3,0,0,1,2.5-.5Z" style="fill:#d3a581"/><path d="M75.2,75.4A1.3,1.3,0,0,1,74,76.8h-.1a1.3,1.3,0,0,1-1.3-1.2l-.6-9.1-.4-2.1h2.6l.3,1.7v.2Z" style="fill:#fdd09c"/><path d="M71,64l-1-4.8a1.7,1.7,0,0,1,1.3-2h.4a1.7,1.7,0,0,1,1.7,1.4L74.6,64Z" style="fill:#30bba5"/><polygon points="60.4 58 62.3 66.9 58.3 68.3 55.6 59.2 60.4 58" style="fill:#e7d0f7"/><path d="M61.5,64.7l1.1.9-.4.6-.8-.7S60.6,64.8,61.5,64.7Z" style="fill:#fdd09c"/><path d="M57.9,61.1h-.1l-.2-.8v.3h-.2l-.3-.3.2.8h-.2l-.3-1.1a.1.1,0,0,1,0-.1h.3l.4.4.2-.6h.3l.3,1.1h-.1Z" style="fill:#fafafb"/><path d="M59.1,60.7h-.1v-.2h-.4v.2h-.2V59.7h.3l.7,1h-.2Zm-.6-.8v.5h.3Z" style="fill:#fafafb"/><path d="M59.7,60.1h0v.3a.1.1,0,0,1,0,.1h-.2l-.3-1.1a.1.1,0,0,1,0-.1H60l.2.3a.4.4,0,0,1,0,.3l-.3.2Zm-.2-.6h0v.4h.4a.2.2,0,0,0,0-.2h-.5Z" style="fill:#fafafb"/></g></g></svg>