<?xml version="1.0" encoding="utf-8"?>
<!-- Generator: Adobe Illustrator 16.0.0, SVG Export Plug-In . SVG Version: 6.00 Build 0)  -->
<!DOCTYPE svg PUBLIC "-//W3C//DTD SVG 1.1//EN" "http://www.w3.org/Graphics/SVG/1.1/DTD/svg11.dtd" [
	<!ENTITY st0 "fill:#AEDD47;">
	<!ENTITY st1 "fill:#4A77A9;">
	<!ENTITY st2 "fill:#E5D6C7;">
	<!ENTITY st3 "clip-path:url(#SVGID_2_);fill:#DFDFDF;">
	<!ENTITY st4 "fill:#EAC95D;">
	<!ENTITY st5 "fill:#EDEDED;">
	<!ENTITY st6 "fill:#545454;">
	<!ENTITY st7 "fill:none;stroke:#FFFFFF;stroke-miterlimit:10;">
	<!ENTITY st8 "opacity:0.25;fill:#FFFFFF;">
	<!ENTITY st9 "fill:#F2F2F2;">
	<!ENTITY st10 "fill:#F6B43F;">
	<!ENTITY st11 "fill:#5DBBD0;">
	<!ENTITY st12 "fill:#92B7EF;">
	<!ENTITY st13 "clip-path:url(#SVGID_2_);fill:#595757;">
	<!ENTITY st14 "fill:#C49669;">
	<!ENTITY st15 "fill:#C779D3;">
	<!ENTITY st16 "fill:#FBD764;">
	<!ENTITY st17 "fill:#FC6738;">
	<!ENTITY st18 "fill:#FCEFB9;">
	<!ENTITY st19 "opacity:0.3;">
	<!ENTITY st20 "fill:#FEE677;">
	<!ENTITY st21 "fill:#FF9B74;">
	<!ENTITY st22 "fill:#FFFFFF;">
	<!ENTITY st23 "clip-path:url(#SVGID_2_);fill:#F7D237;">
	<!ENTITY st24 "fill:none;stroke:#FFFFFF;stroke-width:0.4667;stroke-miterlimit:10;">
	<!ENTITY st25 "fill:#686868;">
	<!ENTITY st26 "fill:#68C1C1;">
	<!ENTITY st27 "opacity:0.14;fill:#666666;">
	<!ENTITY st28 "clip-path:url(#SVGID_2_);fill:#FC6738;">
	<!ENTITY st29 "fill:#404040;">
	<!ENTITY st30 "fill:#43D17D;">
	<!ENTITY st31 "opacity:0.13;fill:#FFFFFF;">
]>
<svg version="1.1" id="圖層_1" xmlns="http://www.w3.org/2000/svg" xmlns:xlink="http://www.w3.org/1999/xlink" x="0px" y="0px"
	 width="100px" height="100px" viewBox="0 0 100 100" style="enable-background:new 0 0 100 100;" xml:space="preserve">
<g>
	<circle style="&st12;" cx="50.001" cy="50" r="49.999"/>
	<circle style="&st7;" cx="50.001" cy="50" r="44.999"/>
	<g>
		<g>
			<g>
				<circle style="&st26;" cx="49.608" cy="50.476" r="15.806"/>
			</g>
		</g>
		<g>
			<g>
				<g>
					<g>
						<path style="&st22;" d="M49.598,41.656c-6.744,0-12.875,3.311-17.418,8.709h34.836C62.473,44.967,56.344,41.656,49.598,41.656
							z"/>
					</g>
				</g>
				<g>
					<g>
						<path style="&st5;" d="M32.18,50.365c4.543,5.398,10.674,8.709,17.418,8.709c6.746,0,12.875-3.311,17.418-8.709H32.18z"/>
					</g>
				</g>
			</g>
			<g>
				<g>
					<path style="&st22;" d="M69.059,50.547c-5.592-6.644-12.502-10.303-19.461-10.303c-6.957,0-13.867,3.659-19.459,10.303
						l-0.432-0.363C35.408,43.41,42.473,39.68,49.598,39.68c7.129,0,14.193,3.73,19.893,10.504L69.059,50.547z"/>
				</g>
			</g>
		</g>
		<g>
			<g>
				<path style="&st16;" d="M49.607,45.396c-2.805,0-5.08,2.274-5.08,5.08c0,2.805,2.275,5.08,5.08,5.08
					c1.404,0,2.676-0.568,3.594-1.488l-3.594-3.592V45.396z"/>
			</g>
			<g>
				<path style="&st25;" d="M53.201,46.883c-0.918-0.92-2.189-1.487-3.594-1.487v5.08L53.201,46.883z"/>
			</g>
			<g>
				<path style="&st29;" d="M53.201,46.883l-3.594,3.593l3.594,3.592c0.918-0.917,1.486-2.188,1.486-3.592
					C54.688,49.073,54.119,47.803,53.201,46.883z"/>
			</g>
		</g>
	</g>
	<g>
		<g>
			<g>
				<path style="&st20;" d="M50,72.249c-3.164,0-6.176-0.652-8.91-1.825l-4.457,10.398c4.102,1.76,8.621,2.735,13.367,2.735
					c8.264,0,15.836-2.954,21.721-7.866l-7.24-8.687C60.557,70.275,55.51,72.249,50,72.249z"/>
			</g>
			<g>
				<path style="&st22;" d="M72.619,49.628h11.309c0-17.313-12.967-31.596-29.719-33.668l-1.404,11.229
					C63.973,28.571,72.619,38.086,72.619,49.628z"/>
			</g>
			<g>
				<path style="&st0;" d="M41.09,70.424c-8.063-3.461-13.709-11.467-13.709-20.796c0-12.49,10.127-22.619,22.619-22.619
					c0.951,0,1.885,0.065,2.805,0.18l1.404-11.229C52.83,15.788,51.426,15.7,50,15.7c-18.738,0-33.93,15.19-33.93,33.928
					c0,13.991,8.471,26.005,20.563,31.194L41.09,70.424z"/>
			</g>
			<g>
				<g>
					<path style="&st22;" d="M83.928,49.628H72.619c0,2.157-0.303,4.241-0.867,6.216l10.879,3.108
						C83.477,55.99,83.928,52.861,83.928,49.628z"/>
				</g>
				<g>
					<path style="&st18;" d="M82.631,58.952l-10.879-3.108c-1.262,4.423-3.834,8.292-7.271,11.161l7.24,8.687
						C76.877,71.392,80.738,65.586,82.631,58.952z"/>
				</g>
			</g>
		</g>
		<g>
			<g>
				<g>
					<polygon style="&st22;" points="27.512,30.347 27.512,25.271 22.438,26.963 22.438,28.656 					"/>
				</g>
				<g>
					<polygon style="&st29;" points="22.438,28.656 22.438,26.963 19.898,27.809 					"/>
				</g>
			</g>
			<g>
				<rect x="70.217" y="25.271" style="&st29;" width="2.537" height="5.075"/>
			</g>
			<g>
				<circle style="&st22;" cx="75.293" cy="27.809" r="2.538"/>
			</g>
			<g>
				<rect x="72.754" y="25.271" style="&st22;" width="2.539" height="5.075"/>
			</g>
			<g>
				<g>
					<rect x="27.512" y="25.271" style="&st16;" width="42.705" height="2.537"/>
				</g>
				<g>
					<rect x="27.512" y="27.809" style="&st4;" width="42.705" height="2.538"/>
				</g>
			</g>
		</g>
	</g>
</g>
</svg>
